<svg width="48" height="48" viewBox="0 0 48 48" fill="none" xmlns="http://www.w3.org/2000/svg">
<path d="M46.6957 24.5152C46.6957 37.195 36.2425 47.4739 23.3478 47.4739C10.4532 47.4739 0 37.195 0 24.5152C0 11.8355 10.4532 1.55653 23.3478 1.55653C36.2425 1.55653 46.6957 11.8355 46.6957 24.5152Z" fill="#F41111"/>
<path d="M45.9668 23.737C45.9668 11.4598 36.0142 1.50712 23.737 1.50712C11.4598 1.50712 1.50711 11.4598 1.50711 23.737C1.50711 36.0142 11.4598 45.9668 23.737 45.9668C36.0142 45.9668 45.9668 36.0142 45.9668 23.737ZM47.4739 23.737C47.4739 36.8465 36.8465 47.4739 23.737 47.4739C10.6274 47.4739 0 36.8465 0 23.737C0 10.6274 10.6274 1.52588e-05 23.737 1.52588e-05C36.8465 1.52588e-05 47.4739 10.6274 47.4739 23.737Z" fill="#1E1E1E"/>
<path d="M28.5288 35.0374L11.2495 25.0619L28.5288 15.0856L29.9238 17.502L16.8305 25.0619L29.9238 32.6218L28.5288 35.0374Z" fill="#F4F4F4"/>
<path d="M29.0317 36.9136L8.50284 25.0622L29.0317 13.2092L31.8003 18.0043L19.5778 25.0614L31.8003 32.1192L29.0317 36.9136ZM16.8307 25.0622L29.9239 17.5023L28.5289 15.0855L11.2499 25.0622L28.5289 35.0373L29.9239 32.6221L16.8307 25.0622Z" fill="#1E1E1E"/>
<path d="M29.4345 20.4671C27.1296 20.4671 25.2611 18.5986 25.2611 16.2937C25.2611 13.9887 27.1296 12.1202 29.4345 12.1202C31.7394 12.1202 33.6079 13.9887 33.6079 16.2937C33.6079 18.5986 31.7394 20.4671 29.4345 20.4671Z" fill="#F4F4F4"/>
<path d="M29.4344 20.4673C31.6673 20.4673 33.4908 18.7135 33.6025 16.5084L33.6079 16.2938C33.6079 13.9889 31.7393 12.1203 29.4344 12.1203L29.2197 12.1256C27.0857 12.2338 25.3742 13.9451 25.2662 16.0792L25.2608 16.2938C25.2609 18.5266 27.0147 20.3502 29.2197 20.462L29.4344 20.4673ZM29.4344 21.8409C26.371 21.8408 23.8873 19.3572 23.8873 16.2938C23.8873 13.2303 26.3709 10.7468 29.4344 10.7467C32.4979 10.7467 34.9814 13.2303 34.9814 16.2938C34.9814 19.3572 32.4978 21.8409 29.4344 21.8409Z" fill="#1E1E1E"/>
<path d="M13.4574 29.3475C11.1525 29.3475 9.28403 27.479 9.28403 25.1741C9.28403 22.8692 11.1525 21.0007 13.4574 21.0007C15.7624 21.0007 17.6309 22.8692 17.6309 25.1741C17.6309 27.479 15.7624 29.3475 13.4574 29.3475Z" fill="#F4F4F4"/>
<path d="M13.4573 29.3477C15.6902 29.3477 17.5137 27.5939 17.6255 25.3888L17.6308 25.1742C17.6308 22.8693 15.7622 21.0007 13.4573 21.0007L13.2427 21.006C11.1086 21.1142 9.39717 22.8255 9.28914 24.9596L9.28377 25.1742C9.28384 27.407 11.0376 29.2306 13.2427 29.3424L13.4573 29.3477ZM13.4573 30.7213C10.3939 30.7212 7.91029 28.2376 7.91022 25.1742C7.91022 22.1107 10.3939 19.6272 13.4573 19.6271C16.5208 19.6271 19.0044 22.1107 19.0044 25.1742C19.0043 28.2376 16.5208 30.7213 13.4573 30.7213Z" fill="#1E1E1E"/>
<path d="M29.4345 37.6943C27.1296 37.6943 25.2611 35.8258 25.2611 33.5209C25.2611 31.2159 27.1296 29.3474 29.4345 29.3474C31.7394 29.3474 33.6079 31.2159 33.6079 33.5209C33.6079 35.8258 31.7394 37.6943 29.4345 37.6943Z" fill="#F4F4F4"/>
<path d="M29.4344 37.6946C31.6673 37.6946 33.4908 35.9408 33.6025 33.7356L33.6079 33.521C33.6079 31.2161 31.7393 29.3475 29.4344 29.3475L29.2197 29.3529C27.0857 29.461 25.3742 31.1723 25.2662 33.3064L25.2608 33.521C25.2609 35.7539 27.0147 37.5774 29.2197 37.6892L29.4344 37.6946ZM29.4344 39.0681C26.371 39.068 23.8873 36.5844 23.8873 33.521C23.8873 30.4576 26.3709 27.974 29.4344 27.9739C32.4979 27.9739 34.9814 30.4575 34.9814 33.521C34.9814 36.5845 32.4978 39.0681 29.4344 39.0681Z" fill="#1E1E1E"/>
</svg>
