<svg width="49" height="49" viewBox="0 0 49 49" fill="none" xmlns="http://www.w3.org/2000/svg">
<path d="M46.9174 24C46.9174 36.6797 36.6384 46.9587 23.9587 46.9587C11.279 46.9587 1 36.6797 1 24C1 11.3203 11.279 1.04131 23.9587 1.04131C36.6384 1.04131 46.9174 11.3203 46.9174 24Z" fill="#0000CC"/>
<path d="M46.6957 24.1261C46.6957 11.6476 36.5909 1.53183 24.1261 1.53183C11.6613 1.53183 1.55652 11.6476 1.55652 24.1261C1.55652 36.6046 11.6613 46.7204 24.1261 46.7204C36.5909 46.7204 46.6957 36.6046 46.6957 24.1261ZM48.2522 24.1261C48.2522 37.4258 37.4755 48.2522 24.1261 48.2522C10.7766 48.2522 0 37.4258 0 24.1261C0 10.8264 10.7766 1.52588e-05 24.1261 1.52588e-05C37.4755 1.52588e-05 48.2522 10.8264 48.2522 24.1261Z" fill="#1E1E1E"/>
<path d="M15 35.6361V15.8039C15 15.3599 15.363 15 15.8107 15H33.6458C34.0936 15 34.4565 15.3599 34.4565 15.8039V35.6945C34.4565 36.3919 33.6223 36.7585 33.1013 36.2901L25.0591 29.0594C24.7447 28.7768 24.2638 28.7824 23.9562 29.0721L16.369 36.219C15.8526 36.7054 15 36.3424 15 35.6361Z" fill="#F4F4F4"/>
<path d="M23.779 28.8709C24.0689 28.593 24.5223 28.5876 24.8184 28.8589L32.3984 35.8019C32.8894 36.2517 33.6758 35.8994 33.6758 35.2298V16.1313C33.6758 15.7051 33.3337 15.3595 32.9117 15.3595V14.0087C34.0723 14.0087 35.013 14.959 35.013 16.1313V35.2298C35.013 37.0712 32.8504 38.0391 31.4999 36.8022L24.314 30.2202L17.5482 36.7132C16.2097 37.9971 14.0001 37.0387 14 35.174V16.1313C14 14.959 14.9408 14.0087 16.1013 14.0087V15.3595C15.6793 15.3595 15.3372 15.7051 15.3372 16.1313V35.174C15.3373 35.8521 16.1407 36.2004 16.6274 35.7333L23.779 28.8709ZM32.9117 14.0087V15.3595H16.1013V14.0087H32.9117Z" fill="#1E1E1E"/>
</svg>
