<svg preserveAspectRatio="none" width="100%" height="100%" overflow="visible" style="display: block;" viewBox="0 0 430 327" fill="none" xmlns="http://www.w3.org/2000/svg">
<g id="Frame 69">
<path id="3" d="M226.203 89.5595C233.441 89.5595 239.408 91.3053 243.923 94.9775L244.344 95.3193C248.626 98.896 250.764 103.689 250.764 109.535C250.764 112.307 250.287 114.866 249.301 117.185L249.295 117.198L249.288 117.212C248.377 119.251 247.408 121.103 246.379 122.762L246.346 122.815L246.309 122.867C245.215 124.369 244.213 125.682 243.305 126.8C242.913 127.282 242.662 127.669 242.515 127.966C242.372 128.253 242.362 128.385 242.361 128.393C242.361 128.448 242.366 128.507 242.377 128.569C242.489 128.738 242.601 128.907 242.713 129.076C243.223 129.578 243.865 130.139 244.653 130.757C245.575 131.479 246.54 132.298 247.548 133.212L247.582 133.242L247.613 133.274C249.137 134.809 250.503 136.786 251.735 139.159H251.736C253.106 141.689 253.712 145.031 253.712 149.032C253.712 161.306 249.076 171.437 239.843 179.291L239.842 179.29C230.729 187.126 219.058 190.983 204.977 190.983C197.02 190.983 190.279 189.565 184.849 186.619V186.618C179.438 183.782 176.288 179.895 176.288 174.868C176.288 172.734 176.942 170.842 178.311 169.312C179.666 167.699 181.4 166.771 183.454 166.771C184.554 166.771 185.714 167.104 186.887 167.633C187.777 167.933 188.741 168.285 189.778 168.688L190.875 169.123L190.914 169.139C192.204 169.696 193.644 170.213 195.239 170.687C196.758 171.044 198.381 171.227 200.111 171.227C205.635 171.227 209.701 169.862 212.538 167.351C215.463 164.75 216.974 161.233 216.974 156.604C216.974 153.586 216.399 151.728 215.575 150.69C214.799 149.713 213.585 149.11 211.609 149.11H209.897V149.053L205.949 149.257L205.939 149.258H205.93C203.094 149.372 200.664 148.501 199.354 146.154C198.295 144.258 197.81 142.025 197.81 139.529C197.81 138.349 197.86 137.317 197.971 136.453C198.078 135.616 198.256 134.814 198.578 134.165L198.614 134.092L198.657 134.023C199.478 132.701 200.945 131.947 202.566 131.504C206.588 130.279 209.594 128.527 211.697 126.32L211.709 126.308L211.722 126.296C213.907 124.094 214.909 121.74 214.909 119.186C214.909 117.444 214.425 116.287 213.638 115.493L213.611 115.467L213.586 115.438C212.931 114.719 211.842 114.217 209.988 114.217C207.903 114.217 206.158 114.695 204.694 115.596L204.664 115.615L204.633 115.632C202.942 116.578 201.401 117.615 200.007 118.738L200.001 118.742L199.995 118.747C198.63 119.827 197.365 120.856 196.2 121.834L196.188 121.844C195.042 122.789 193.813 123.462 192.504 123.769C192.19 123.925 191.871 123.992 191.597 124.011L191.414 124.017H190.972C188.553 124.016 186.449 122.967 184.707 121.096L184.689 121.076L184.672 121.058C182.932 119.072 182.037 116.743 182.037 114.138C182.037 113.055 182.216 111.983 182.565 110.928C182.921 109.852 183.494 108.774 184.241 107.694C185.24 106.138 186.591 104.682 188.258 103.317L188.932 102.772C190.531 101.513 192.351 100.306 194.383 99.1484L195.538 98.4814C198.223 96.953 200.84 95.6129 203.387 94.4629C206.314 93.1411 209.205 92.1172 212.059 91.3974C214.387 90.7856 216.718 90.3261 219.052 90.0195C221.388 89.7125 223.773 89.5595 226.203 89.5595Z" fill="var(--fill-0, #F41111)" stroke="var(--stroke-0, #F4F4F4)" stroke-width="3.42408"/>
<g id="Lembre em quem n&#195;&#163;o votar mais!">
<path d="M40.1559 181.175L56.6167 174.271L58.1348 177.891L44.7171 183.519L48.082 191.541L45.0389 192.818L40.1559 181.175Z" fill="var(--fill-0, #F4F4F4)"/>
<path d="M57.6918 201.758L52.436 194.056C50.6338 195.406 50.4071 196.893 51.5202 198.524C52.3234 199.701 53.6943 200.158 54.482 199.893L56.2433 202.474C53.1603 203.367 50.8888 202.345 49.2402 199.928C46.9434 196.562 47.8331 192.899 51.1372 190.644C54.3381 188.46 58.2826 189.007 60.4948 192.249C62.9748 195.884 61.1162 199.724 57.6918 201.758ZM54.2945 192.787L57.5495 197.558C58.8532 196.275 59.2011 195.099 58.2288 193.674C56.9607 191.816 55.1487 192.265 54.2945 192.787Z" fill="var(--fill-0, #F4F4F4)"/>
<path d="M54.798 206.949L63.8406 197.714L66.2342 200.058L65.0099 201.308L65.0456 201.343C66.6336 201.043 68.1404 201.434 69.3372 202.606C70.4982 203.743 71.1145 205.186 70.5302 206.783C71.8532 206.504 73.5349 206.716 74.821 207.976C76.7859 209.9 77.305 212.192 74.9613 214.586L68.9095 220.767L66.373 218.283L71.4978 213.049C72.7046 211.817 73.5944 210.693 72.1475 209.277C70.7185 207.877 69.2962 208.794 68.1593 209.955L63.122 215.1L60.5855 212.616L65.6578 207.436C66.7072 206.364 67.9855 205.201 66.3779 203.627C65.8777 203.137 64.3482 202.27 62.5817 204.074L57.3345 209.433L54.798 206.949Z" fill="var(--fill-0, #F4F4F4)"/>
<path d="M71.3764 222.886L81.7135 208.334L84.6076 210.39L80.8434 215.689L80.8842 215.718C82.3648 215.144 84.0167 215.582 85.3211 216.508C87.4204 218 88.481 221.298 85.7447 225.15C82.9939 229.023 79.53 229.107 77.4307 227.616C75.8817 226.516 74.9307 225.135 75.1241 223.524L75.0834 223.495L74.1278 224.841L71.3764 222.886ZM82.8361 223.115C84.0957 221.342 84.4853 219.196 82.7733 217.98C81.0613 216.764 79.1634 217.838 77.9039 219.611C76.6588 221.364 76.2691 223.51 77.9812 224.726C79.6932 225.942 81.591 224.868 82.8361 223.115Z" fill="var(--fill-0, #F4F4F4)"/>
<path d="M84.3011 231.923L90.8421 220.776L93.753 222.484L92.5384 224.554L92.5816 224.579C93.9646 223.506 96.0433 223.422 97.531 224.295C97.7467 224.421 97.9801 224.616 98.1362 224.795L96.4661 227.641C96.2238 227.412 95.7963 227.103 95.4297 226.888C93.1873 225.572 91.4621 226.734 90.3108 228.696L87.3629 233.72L84.3011 231.923Z" fill="var(--fill-0, #F4F4F4)"/>
<path d="M106.236 237.264L97.8967 233.092C96.9794 235.149 97.5046 236.558 99.2708 237.441C100.545 238.079 101.965 237.811 102.524 237.196L105.319 238.594C103.06 240.875 100.578 241.086 97.9622 239.778C94.3178 237.954 93.3125 234.321 95.1022 230.743C96.836 227.278 100.548 225.837 104.058 227.593C107.993 229.561 108.238 233.821 106.236 237.264ZM98.9035 231.08L104.068 233.664C104.583 231.908 104.315 230.712 102.772 229.94C100.76 228.934 99.3956 230.208 98.9035 231.08Z" fill="var(--fill-0, #F4F4F4)"/>
<path d="M126.395 245.256L117.651 242.016C116.963 244.16 117.639 245.504 119.491 246.19C120.827 246.685 122.209 246.264 122.698 245.592L125.628 246.678C123.631 249.191 121.187 249.671 118.444 248.655C114.623 247.239 113.228 243.736 114.618 239.985C115.965 236.352 119.498 234.515 123.178 235.879C127.304 237.408 128.011 241.616 126.395 245.256ZM118.433 239.906L123.848 241.913C124.169 240.112 123.773 238.952 122.155 238.352C120.045 237.571 118.828 238.986 118.433 239.906Z" fill="var(--fill-0, #F4F4F4)"/>
<path d="M127.018 251.336L130.528 238.896L133.752 239.806L133.277 241.49L133.325 241.504C134.575 240.48 136.085 240.1 137.697 240.555C139.261 240.996 140.493 241.968 140.746 243.649C141.773 242.77 143.351 242.15 145.083 242.639C147.73 243.386 149.285 245.149 148.375 248.373L146.026 256.698L142.61 255.734L144.599 248.685C145.067 247.024 145.31 245.612 143.361 245.062C141.436 244.519 140.627 246.006 140.186 247.57L138.231 254.499L134.814 253.535L136.783 246.557C137.19 245.114 137.755 243.481 135.589 242.87C134.915 242.68 133.157 242.651 132.471 245.081L130.435 252.3L127.018 251.336Z" fill="var(--fill-0, #F4F4F4)"/>
<path d="M171.163 248.518L168.133 265.729L164.636 265.113L165.707 259.031L165.658 259.023C164.603 260.259 162.829 260.53 161.302 260.261C158.963 259.849 156.209 257.613 157.076 252.689C157.692 249.192 160.119 246.218 163.985 246.899C165.561 247.176 166.963 248.007 167.504 249.549L167.553 249.558L167.839 247.933L171.163 248.518ZM160.586 253.23C160.226 255.274 160.609 257.423 162.899 257.826C165.164 258.225 166.29 256.443 166.658 254.351C167.009 252.356 166.599 250.075 164.407 249.69C162.142 249.291 160.95 251.162 160.586 253.23Z" fill="var(--fill-0, #F4F4F4)"/>
<path d="M185.631 250.321L184.106 263.155L180.754 262.757L180.967 260.97L180.892 260.961C179.828 262.294 178.206 262.807 176.716 262.63C172.968 262.184 172.275 259.962 172.653 256.784L173.591 248.89L177.116 249.309L176.255 256.558C176.004 258.668 176.501 259.784 178.139 259.979C180.051 260.206 180.997 259.236 181.306 256.629L182.106 249.902L185.631 250.321Z" fill="var(--fill-0, #F4F4F4)"/>
<path d="M199.888 258.718L190.584 258.079C190.53 260.331 191.557 261.429 193.527 261.564C194.949 261.662 196.156 260.867 196.436 260.085L199.553 260.299C198.347 263.273 196.138 264.425 193.219 264.224C189.154 263.945 186.827 260.978 187.101 256.988C187.367 253.122 190.238 250.362 194.153 250.631C198.543 250.933 200.409 254.77 199.888 258.718ZM190.739 255.834L196.5 256.23C196.299 254.412 195.591 253.411 193.87 253.293C191.625 253.139 190.857 254.84 190.739 255.834Z" fill="var(--fill-0, #F4F4F4)"/>
<path d="M202.204 264.405L202.327 251.48L205.677 251.512L205.66 253.262L205.71 253.263C206.648 251.946 208.005 251.184 209.68 251.2C211.305 251.216 212.749 251.83 213.434 253.386C214.195 252.268 215.555 251.256 217.355 251.274C220.105 251.3 222.067 252.594 222.035 255.943L221.953 264.593L218.403 264.559L218.473 257.234C218.489 255.51 218.353 254.083 216.328 254.064C214.328 254.045 213.937 255.691 213.922 257.316L213.853 264.516L210.303 264.482L210.372 257.232C210.387 255.732 210.503 254.008 208.253 253.987C207.553 253.98 205.849 254.414 205.825 256.939L205.754 264.439L202.204 264.405Z" fill="var(--fill-0, #F4F4F4)"/>
<path d="M232.7 264.186L231.689 251.3L235.054 251.036L235.195 252.831L235.269 252.825C236.053 251.309 237.544 250.49 239.039 250.372C242.802 250.077 243.916 252.121 244.166 255.311L244.788 263.237L241.249 263.515L240.678 256.237C240.512 254.119 239.806 253.121 238.161 253.25C236.242 253.401 235.504 254.537 235.709 257.154L236.239 263.908L232.7 264.186Z" fill="var(--fill-0, #F4F4F4)"/>
<path d="M255.313 256.939L255.145 255.625C254.616 256.222 253.379 256.405 252.314 256.744C251.251 257.107 250.307 257.606 250.472 258.895C250.641 260.209 251.699 260.401 252.839 260.255C255.592 259.903 255.411 257.708 255.313 256.939ZM250.199 253.612L246.678 254.063C246.453 250.74 249.277 249.37 252.154 249.001C254.708 248.674 257.856 248.85 258.25 251.925L259.104 258.596C259.253 259.761 259.527 260.911 259.916 261.39L256.345 261.848C256.17 261.467 256.017 261.058 255.938 260.64C254.972 261.948 253.389 262.579 251.827 262.779C249.397 263.091 247.307 262.123 246.97 259.495C246.598 256.594 248.692 255.62 250.836 255.043C252.952 254.444 254.97 254.261 254.786 252.823C254.592 251.31 253.522 251.22 252.282 251.379C250.943 251.551 250.145 252.207 250.199 253.612ZM254.325 244.111L256.036 243.892C255.935 244.484 255.826 245.204 255.502 245.825C255.179 246.446 254.637 246.944 253.621 247.074C252.877 247.169 252.179 247.032 251.533 246.913C250.885 246.769 250.314 246.641 249.744 246.714C249.074 246.8 248.905 247.25 248.836 247.889L247.323 248.083C247.461 246.603 247.878 244.937 250.06 244.657C250.63 244.584 251.155 244.744 251.701 244.875C252.25 245.032 252.824 245.185 253.395 245.112C254.139 245.017 254.41 244.579 254.325 244.111Z" fill="var(--fill-0, #F4F4F4)"/>
<path d="M261.132 254.69C260.39 250.632 262.487 247.504 266.471 246.776C270.479 246.043 273.547 248.227 274.289 252.285C275.026 256.318 272.929 259.446 268.921 260.179C264.937 260.907 261.869 258.723 261.132 254.69ZM264.624 254.052C264.992 256.068 266.079 257.979 268.44 257.548C270.825 257.112 271.165 254.94 270.796 252.923C270.423 250.882 269.337 248.971 266.952 249.408C264.591 249.839 264.251 252.011 264.624 254.052Z" fill="var(--fill-0, #F4F4F4)"/>
<path d="M293.173 240.864L292.355 254.485L288.544 255.525L280.872 244.221L284.466 243.24L289.418 251.037L289.467 251.023L289.772 241.792L293.173 240.864Z" fill="var(--fill-0, #F4F4F4)"/>
<path d="M296.01 246.756C294.695 242.846 296.322 239.45 300.161 238.159C304.023 236.86 307.372 238.583 308.687 242.492C309.994 246.378 308.367 249.774 304.504 251.073C300.666 252.364 297.317 250.642 296.01 246.756ZM299.375 245.624C300.028 247.567 301.377 249.303 303.652 248.538C305.95 247.765 305.976 245.567 305.322 243.624C304.661 241.657 303.312 239.922 301.014 240.695C298.739 241.46 298.713 243.658 299.375 245.624Z" fill="var(--fill-0, #F4F4F4)"/>
<path d="M311.353 230.37L312.784 233.971L315.2 233.01L316.077 235.217L313.661 236.178L316.025 242.125C316.468 243.24 316.858 243.408 317.973 242.965C318.321 242.827 318.637 242.674 318.958 242.466L319.983 245.045C319.462 245.359 318.751 245.669 318.101 245.927C316.08 246.73 314.129 246.968 313.178 244.575L310.362 237.489L308.364 238.283L307.487 236.076L309.485 235.282L308.054 231.681L311.353 230.37Z" fill="var(--fill-0, #F4F4F4)"/>
<path d="M327.133 236.189L326.57 234.989C326.25 235.72 325.129 236.274 324.219 236.923C323.319 237.594 322.574 238.359 323.126 239.536C323.69 240.735 324.756 240.593 325.797 240.104C328.308 238.924 327.463 236.89 327.133 236.189ZM321.245 234.591L318.032 236.101C316.799 233.007 319.066 230.837 321.691 229.603C324.021 228.508 327.071 227.71 328.39 230.515L331.25 236.602C331.75 237.665 332.363 238.676 332.88 239.012L329.622 240.544C329.339 240.235 329.067 239.893 328.864 239.519C328.346 241.061 327.033 242.147 325.608 242.817C323.39 243.859 321.104 243.58 319.977 241.181C318.733 238.534 320.427 236.965 322.29 235.758C324.12 234.538 325.985 233.745 325.368 232.433C324.72 231.052 323.674 231.295 322.542 231.827C321.321 232.401 320.763 233.271 321.245 234.591Z" fill="var(--fill-0, #F4F4F4)"/>
<path d="M335.372 237.735L329.057 226.458L332.001 224.809L333.174 226.903L333.218 226.879C332.991 225.143 333.968 223.307 335.473 222.464C335.691 222.342 335.977 222.239 336.21 222.194L337.823 225.073C337.503 225.167 337.02 225.38 336.649 225.587C334.381 226.858 334.512 228.933 335.623 230.918L338.47 236.001L335.372 237.735Z" fill="var(--fill-0, #F4F4F4)"/>
<path d="M350.556 228.535L342.545 218.392L345.174 216.316L346.259 217.689L346.298 217.658C346.203 216.045 346.782 214.6 348.096 213.562C349.372 212.555 350.881 212.127 352.391 212.91C352.283 211.562 352.707 209.921 354.119 208.805C356.277 207.101 358.618 206.877 360.694 209.506L366.055 216.294L363.269 218.495L358.729 212.746C357.66 211.393 356.659 210.367 355.07 211.622C353.501 212.862 354.229 214.389 355.236 215.665L359.699 221.315L356.913 223.515L352.419 217.826C351.49 216.648 350.499 215.233 348.733 216.627C348.184 217.061 347.129 218.468 348.694 220.449L353.342 226.335L350.556 228.535Z" fill="var(--fill-0, #F4F4F4)"/>
<path d="M370.167 204.779L369.185 203.889C369.172 204.687 368.351 205.63 367.761 206.58C367.189 207.546 366.796 208.539 367.76 209.412C368.742 210.301 369.671 209.759 370.443 208.907C372.305 206.85 370.742 205.299 370.167 204.779ZM364.118 205.574L361.735 208.206C359.405 205.826 360.66 202.949 362.607 200.8C364.335 198.891 366.842 196.979 369.14 199.06L374.125 203.574C374.996 204.362 375.951 205.059 376.558 205.17L374.142 207.839C373.762 207.663 373.379 207.452 373.048 207.185C373.164 208.807 372.371 210.316 371.314 211.483C369.669 213.299 367.452 213.922 365.488 212.144C363.32 210.18 364.278 208.08 365.532 206.248C366.751 204.417 368.166 202.967 367.091 201.993C365.961 200.97 365.089 201.597 364.25 202.524C363.344 203.524 363.164 204.542 364.118 205.574Z" fill="var(--fill-0, #F4F4F4)"/>
<path d="M378.367 202.921L367.84 195.422L369.899 192.531L380.427 200.029L378.367 202.921ZM365.888 189.673L368.27 191.37L366.211 194.262L363.828 192.565L365.888 189.673Z" fill="var(--fill-0, #F4F4F4)"/>
<path d="M378.18 195.843L379.757 192.859C381.139 193.561 382.299 192.704 382.953 191.466C383.432 190.56 383.686 189.224 382.581 188.64C381.63 188.138 380.609 189.266 378.932 191.264C377.576 192.866 375.977 194.34 373.966 193.276C371.048 191.734 371.628 188.817 372.925 186.364C374.245 183.866 376.3 182.012 379.236 183.252L377.658 186.236C376.396 185.682 375.574 186.435 374.978 187.562C374.604 188.27 374.188 189.378 375.116 189.869C376.243 190.465 377.333 188.779 378.699 187.21C380.088 185.598 381.698 184.158 383.82 185.279C386.826 186.868 386.42 189.99 385.041 192.598C383.639 195.251 381.278 197.311 378.18 195.843Z" fill="var(--fill-0, #F4F4F4)"/>
<path d="M372.945 175.255L377.478 176.833L384.43 180.285L383.846 181.961L376.262 180.327L371.729 178.749L372.945 175.255ZM388.554 184.712L384.918 183.446L386.208 179.739L389.844 181.005L388.554 184.712Z" fill="var(--fill-0, #F4F4F4)"/>
</g>
</g>
</svg>
