<svg preserveAspectRatio="none" width="100%" height="100%" overflow="visible" style="display: block;" viewBox="0 0 430 327" fill="none" xmlns="http://www.w3.org/2000/svg">
<g id="Frame 67">
<path id="2" d="M225.465 102.143C232.355 102.143 238.001 103.659 242.207 106.894C246.575 110.098 248.757 114.613 248.757 120.235C248.757 124.531 247.364 128.561 244.661 132.29C242.095 135.829 239.263 139.149 236.166 142.246L236.148 142.263C233.114 145.211 230.339 147.899 227.824 150.327L227.813 150.337L227.802 150.348C226.605 151.463 225.771 152.426 225.247 153.24C224.716 154.064 224.577 154.617 224.577 154.945C224.577 155.108 224.598 155.202 224.612 155.249C224.996 155.365 225.768 155.498 227.075 155.573H230.843L230.89 155.576C232.096 155.643 232.869 155.342 233.413 154.848C234.285 154.055 235.079 153.182 235.795 152.228C236.639 151.102 237.579 150.068 238.613 149.128C239.945 147.918 241.644 147.383 243.535 147.383C245.532 147.383 247.146 148.309 248.226 149.989H248.225C249.324 151.565 249.797 153.525 249.797 155.725C249.797 157.232 249.611 159.231 249.26 161.687C248.988 164.102 248.498 166.632 247.793 169.278L247.794 169.279C246.803 173.152 245.356 176.688 243.443 179.875C241.524 183.305 238.84 185.387 235.345 185.387C233.892 185.387 232.538 185.075 231.405 184.32L231.366 184.293L231.328 184.264C230.524 183.661 229.853 182.963 229.369 182.154C229.079 181.759 228.824 181.351 228.613 180.93C228.551 180.806 228.5 180.718 228.461 180.66C228.421 180.6 228.403 180.585 228.414 180.595L228.146 180.328C227.846 180.279 227.489 180.225 227.072 180.173C226.474 180.099 225.684 180.057 224.685 180.057H194.915C192.24 180.057 189.98 179.969 188.149 179.789C186.349 179.611 184.844 179.333 183.749 178.895L183.7 178.875L183.652 178.852C181.204 177.692 180.203 175.323 180.203 172.495V171.975C180.203 171.62 180.272 171.286 180.389 170.978C180.7 169.153 181.86 167.315 183.506 165.497L183.508 165.494C185.322 163.498 188.558 160.534 193.15 156.635L194.106 155.808C195.12 154.924 196.306 153.866 197.666 152.635C199.445 150.94 201.27 149.071 203.143 147.028L203.168 147L203.194 146.974C204.2 145.968 205.165 144.92 206.088 143.83C207.037 142.708 207.986 141.585 208.936 140.463C210.872 138.019 212.456 135.68 213.698 133.444C214.927 131.232 215.433 129.49 215.433 128.165C215.432 126.793 215.035 125.954 214.428 125.397L214.373 125.347L214.323 125.292C213.766 124.684 212.926 124.287 211.555 124.287C209.979 124.287 208.519 124.712 207.14 125.583L207.111 125.6L207.083 125.617C205.521 126.521 203.998 127.506 202.516 128.572C202.072 129.009 201.595 129.443 201.081 129.871L201.011 129.929L200.935 129.979C200.451 130.302 200.015 130.62 199.625 130.932L199.566 130.978L199.505 131.019C198.41 131.749 197.309 132.392 196.201 132.946L196.172 132.96L196.144 132.973C194.969 133.507 193.731 133.777 192.445 133.777C190.377 133.777 188.588 132.948 187.16 131.41C185.857 130.006 184.967 128.41 184.544 126.63L184.429 126.198C184.391 126.067 184.356 125.95 184.321 125.846L184.233 125.583V124.525C184.233 122.897 184.814 121.284 185.793 119.717C186.766 118.16 188.098 116.652 189.748 115.185L189.785 115.152L189.824 115.122C191.534 113.771 193.542 112.39 195.838 110.977C198.176 109.538 200.81 108.2 203.736 106.959C207.374 105.363 210.983 104.16 214.56 103.355L214.568 103.353C218.236 102.548 221.869 102.143 225.465 102.143Z" fill="var(--fill-0, #FFCE00)" stroke="var(--stroke-0, #0000CC)" stroke-width="3.42408"/>
<g id="Acompanhe suas atividades">
<path d="M56.7252 196.919L73.946 188.675L76.8592 191.452L69.3729 208.978L66.4236 206.166L68.1894 202.357L63.3583 197.751L59.6021 199.662L56.7252 196.919ZM72.3211 193.205L66.1186 196.341L69.466 199.533L72.3573 193.24L72.3211 193.205Z" fill="var(--fill-0, #F4F4F4)"/>
<path d="M85.5268 210.466L82.7223 208.414C83.3969 207.111 83.108 205.94 81.9176 205.069C80.0815 203.725 78.1181 205.139 76.9962 206.672C75.9039 208.165 75.1752 210.389 76.9709 211.703C78.3026 212.677 79.6893 212.391 80.8008 211.252L83.565 213.275C81.1795 215.773 78.1556 215.884 75.4116 213.877C72.264 211.574 71.7693 207.804 74.0574 204.677C76.434 201.429 80.1276 200.445 83.5172 202.925C85.9788 204.726 87.2938 207.67 85.5268 210.466Z" fill="var(--fill-0, #F4F4F4)"/>
<path d="M85.6548 212.867C87.7446 209.311 91.3756 208.313 94.8674 210.365C98.3808 212.429 99.2762 216.087 97.1865 219.643C95.1094 223.178 91.4784 224.176 87.965 222.112C84.4732 220.06 83.5778 216.402 85.6548 212.867ZM88.7156 214.666C87.677 216.433 87.2509 218.59 89.3201 219.805C91.4109 221.034 93.0872 219.612 94.1257 217.845C95.1769 216.056 95.6031 213.899 93.5123 212.671C91.443 211.455 89.7668 212.877 88.7156 214.666Z" fill="var(--fill-0, #F4F4F4)"/>
<path d="M96.4923 226.537L101.816 214.759L104.868 216.139L104.148 217.734L104.193 217.754C105.582 216.928 107.131 216.778 108.658 217.468C110.138 218.137 111.213 219.281 111.212 220.982C112.359 220.266 114.011 219.888 115.651 220.629C118.157 221.762 119.432 223.737 118.052 226.79L114.489 234.672L111.254 233.21L114.271 226.535C114.982 224.963 115.432 223.603 113.587 222.769C111.764 221.945 110.743 223.294 110.074 224.775L107.108 231.336L103.873 229.873L106.859 223.267C107.477 221.9 108.279 220.369 106.229 219.443C105.591 219.154 103.856 218.864 102.816 221.165L99.7272 227.999L96.4923 226.537Z" fill="var(--fill-0, #F4F4F4)"/>
<path d="M116.051 240.214L121.757 223.697L124.947 224.799L124.408 226.358L124.455 226.374C125.708 225.352 127.235 225.219 128.747 225.741C132.575 227.063 133.231 230.755 132.031 234.228C130.905 237.489 128.056 239.917 124.488 238.685C123.023 238.179 121.849 237.059 121.462 235.576L121.415 235.56L119.406 241.373L116.051 240.214ZM124.463 235.846C126.661 236.605 128.023 234.96 128.708 232.975C129.378 231.037 129.292 228.759 127.141 228.016C124.944 227.257 123.557 228.974 122.872 230.959C122.186 232.943 122.289 235.095 124.463 235.846Z" fill="var(--fill-0, #F4F4F4)"/>
<path d="M141.571 238.323L141.926 237.047C141.207 237.392 139.996 237.081 138.883 236.98C137.762 236.902 136.699 236.996 136.351 238.248C135.996 239.525 136.897 240.112 138.005 240.42C140.678 241.163 141.364 239.07 141.571 238.323ZM138.148 233.273L134.728 232.322C135.81 229.172 138.944 229.005 141.739 229.781C144.22 230.471 147.053 231.854 146.223 234.841L144.423 241.321C144.108 242.453 143.914 243.619 144.087 244.211L140.618 243.248C140.605 242.829 140.622 242.393 140.712 241.977C139.313 242.808 137.61 242.775 136.092 242.354C133.732 241.698 132.181 239.996 132.89 237.442C133.673 234.624 135.98 234.539 138.18 234.838C140.363 235.107 142.294 235.722 142.682 234.325C143.09 232.855 142.139 232.357 140.934 232.023C139.633 231.661 138.643 231.957 138.148 233.273Z" fill="var(--fill-0, #F4F4F4)"/>
<path d="M146.806 244.886L149.543 232.254L152.842 232.969L152.46 234.728L152.534 234.744C153.72 233.518 155.383 233.162 156.849 233.48C160.539 234.279 161.017 236.557 160.34 239.685L158.656 247.454L155.186 246.702L156.732 239.568C157.182 237.491 156.794 236.333 155.181 235.983C153.3 235.575 152.266 236.451 151.71 239.017L150.275 245.638L146.806 244.886Z" fill="var(--fill-0, #F4F4F4)"/>
<path d="M161.789 248.056L164.59 230.427L168.096 230.984L167.041 237.626L167.115 237.638C168.231 236.347 169.872 235.899 171.181 236.107C174.909 236.699 175.514 238.947 175.012 242.107L173.764 249.959L170.258 249.402L171.404 242.192C171.737 240.093 171.284 238.958 169.655 238.699C167.754 238.397 166.77 239.33 166.358 241.922L165.295 248.613L161.789 248.056Z" fill="var(--fill-0, #F4F4F4)"/>
<path d="M189.703 246.13L180.431 245.135C180.291 247.383 181.275 248.52 183.239 248.73C184.656 248.882 185.893 248.135 186.202 247.364L189.309 247.697C187.989 250.623 185.738 251.689 182.829 251.377C178.778 250.942 176.566 247.889 176.992 243.912C177.405 240.059 180.38 237.411 184.282 237.829C188.657 238.299 190.376 242.204 189.703 246.13ZM180.671 242.898L186.413 243.514C186.282 241.69 185.613 240.663 183.898 240.479C181.66 240.239 180.828 241.909 180.671 242.898Z" fill="var(--fill-0, #F4F4F4)"/>
<path d="M198.667 248.184L202.04 248.305C202.009 249.855 203.286 250.527 204.685 250.577C205.709 250.614 207.023 250.261 207.068 249.012C207.106 247.938 205.646 247.51 203.117 246.868C201.085 246.345 199.062 245.546 199.144 243.273C199.263 239.975 202.142 239.228 204.915 239.328C207.738 239.43 210.302 240.473 210.463 243.656L207.09 243.534C207.04 242.156 206.004 241.744 204.73 241.698C203.93 241.669 202.751 241.777 202.713 242.826C202.667 244.1 204.659 244.347 206.666 244.895C208.722 245.444 210.719 246.267 210.633 248.665C210.51 252.063 207.522 253.056 204.574 252.95C201.576 252.842 198.694 251.612 198.667 248.184Z" fill="var(--fill-0, #F4F4F4)"/>
<path d="M225.051 239.795L225.183 252.719L221.808 252.753L221.789 250.954L221.714 250.954C220.829 252.413 219.286 253.129 217.786 253.144C214.012 253.183 213.04 251.068 213.007 247.868L212.926 239.918L216.476 239.882L216.551 247.182C216.572 249.307 217.208 250.35 218.858 250.333C220.783 250.314 221.597 249.23 221.57 246.606L221.501 239.831L225.051 239.795Z" fill="var(--fill-0, #F4F4F4)"/>
<path d="M236.118 247.163L236.041 245.84C235.473 246.399 234.226 246.496 233.14 246.76C232.055 247.048 231.078 247.481 231.154 248.779C231.231 250.101 232.273 250.366 233.421 250.3C236.191 250.138 236.163 247.936 236.118 247.163ZM231.247 243.489L227.703 243.696C227.709 240.365 230.621 239.193 233.516 239.025C236.087 238.875 239.215 239.269 239.395 242.364L239.786 249.078C239.854 250.251 240.047 251.417 240.402 251.922L236.808 252.131C236.66 251.739 236.536 251.32 236.486 250.898C235.431 252.136 233.809 252.656 232.236 252.748C229.79 252.89 227.772 251.78 227.619 249.135C227.449 246.215 229.604 245.388 231.783 244.961C233.936 244.51 235.962 244.467 235.877 243.02C235.789 241.497 234.727 241.334 233.48 241.406C232.132 241.485 231.29 242.084 231.247 243.489Z" fill="var(--fill-0, #F4F4F4)"/>
<path d="M242.133 247.585L245.489 247.23C245.677 248.769 247.035 249.254 248.428 249.107C249.447 248.999 250.698 248.465 250.567 247.222C250.454 246.153 248.947 245.935 246.354 245.656C244.268 245.423 242.153 244.918 241.914 242.655C241.568 239.374 244.313 238.229 247.072 237.938C249.882 237.641 252.567 238.313 253.174 241.441L249.818 241.796C249.574 240.439 248.49 240.176 247.222 240.31C246.427 240.394 245.274 240.666 245.384 241.711C245.518 242.979 247.525 242.943 249.589 243.202C251.702 243.457 253.795 243.99 254.047 246.377C254.404 249.758 251.586 251.162 248.652 251.471C245.669 251.787 242.642 250.975 242.133 247.585Z" fill="var(--fill-0, #F4F4F4)"/>
<path d="M271.44 242.727L271.203 241.423C270.707 242.047 269.481 242.295 268.435 242.688C267.393 243.106 266.476 243.654 266.708 244.933C266.945 246.237 268.012 246.373 269.143 246.168C271.873 245.672 271.579 243.489 271.44 242.727ZM266.159 239.672L262.666 240.306C262.268 236.999 265.017 235.483 267.87 234.965C270.404 234.505 273.556 234.516 274.111 237.566L275.313 244.183C275.523 245.339 275.856 246.473 276.269 246.931L272.727 247.575C272.533 247.204 272.359 246.803 272.258 246.39C271.361 247.747 269.814 248.46 268.264 248.741C265.854 249.179 263.716 248.323 263.242 245.715C262.719 242.838 264.759 241.756 266.87 241.067C268.952 240.359 270.957 240.07 270.698 238.644C270.426 237.143 269.352 237.11 268.122 237.333C266.794 237.574 266.032 238.272 266.159 239.672Z" fill="var(--fill-0, #F4F4F4)"/>
<path d="M279.673 228.992L280.534 232.77L283.069 232.193L283.596 234.509L281.061 235.086L282.482 241.326C282.748 242.496 283.107 242.722 284.277 242.456C284.643 242.372 284.979 242.27 285.328 242.114L285.944 244.82C285.381 245.05 284.631 245.247 283.948 245.402C281.828 245.885 279.864 245.82 279.292 243.309L277.599 235.874L275.503 236.352L274.976 234.036L277.072 233.558L276.212 229.78L279.673 228.992Z" fill="var(--fill-0, #F4F4F4)"/>
<path d="M288.159 244.243L284.897 231.737L288.332 230.841L291.594 243.347L288.159 244.243ZM287.089 226.075L287.827 228.905L284.392 229.801L283.653 226.971L287.089 226.075Z" fill="var(--fill-0, #F4F4F4)"/>
<path d="M302.025 226.74L301.607 240.379L297.828 241.53L289.829 230.456L293.392 229.37L298.57 237.018L298.618 237.004L298.653 227.768L302.025 226.74Z" fill="var(--fill-0, #F4F4F4)"/>
<path d="M307.744 238.445L303.451 226.253L306.8 225.074L311.093 237.265L307.744 238.445ZM305.164 220.429L306.136 223.188L302.787 224.367L301.816 221.608L305.164 220.429Z" fill="var(--fill-0, #F4F4F4)"/>
<path d="M322.71 232.605L322.084 231.079L322.038 231.098C321.806 232.706 320.692 233.812 319.166 234.438C315.558 235.918 312.528 233.54 311.171 230.233C309.852 227.018 310.409 223.304 313.924 221.861C315.335 221.282 316.97 221.314 318.194 222.19L318.24 222.171L315.772 216.158L319.057 214.81L325.833 231.324L322.71 232.605ZM320.197 226.611C319.399 224.668 317.946 223.102 315.819 223.975C313.668 224.858 313.687 227.012 314.493 228.978C315.262 230.851 316.924 232.466 318.96 231.631C321.134 230.739 321.003 228.577 320.197 226.611Z" fill="var(--fill-0, #F4F4F4)"/>
<path d="M333.66 221.928L333.063 220.746C332.764 221.485 331.659 222.071 330.768 222.745C329.887 223.442 329.164 224.228 329.75 225.388C330.348 226.571 331.409 226.399 332.435 225.88C334.912 224.629 334.01 222.62 333.66 221.928ZM327.729 220.5L324.56 222.1C323.239 219.042 325.444 216.808 328.032 215.501C330.33 214.34 333.357 213.455 334.754 216.222L337.787 222.224C338.317 223.273 338.958 224.266 339.485 224.588L336.272 226.211C335.98 225.91 335.699 225.576 335.485 225.208C335.011 226.764 333.73 227.887 332.324 228.598C330.137 229.702 327.844 229.488 326.649 227.123C325.33 224.512 326.978 222.895 328.807 221.636C330.601 220.365 332.443 219.519 331.789 218.224C331.101 216.863 330.062 217.136 328.947 217.699C327.742 218.308 327.209 219.194 327.729 220.5Z" fill="var(--fill-0, #F4F4F4)"/>
<path d="M349.759 218.347L348.887 216.946L348.845 216.972C348.884 218.597 347.97 219.872 346.569 220.744C343.258 222.804 339.875 220.963 337.986 217.928C336.15 214.977 336.081 211.222 339.307 209.215C340.602 208.409 342.219 208.169 343.572 208.829L343.615 208.802L340.181 203.283L343.195 201.408L352.625 216.564L349.759 218.347ZM346.283 212.854C345.173 211.071 343.48 209.769 341.527 210.984C339.553 212.212 339.93 214.333 341.053 216.137C342.123 217.857 344.031 219.172 345.899 218.01C347.894 216.769 347.405 214.658 346.283 212.854Z" fill="var(--fill-0, #F4F4F4)"/>
<path d="M361.458 202.821L354.103 208.554C355.565 210.267 357.063 210.4 358.621 209.185C359.745 208.309 360.114 206.912 359.799 206.143L362.264 204.222C363.35 207.242 362.474 209.574 360.167 211.372C356.953 213.877 353.24 213.221 350.781 210.067C348.398 207.01 348.695 203.039 351.79 200.626C355.26 197.921 359.211 199.533 361.458 202.821ZM352.72 206.78L357.275 203.229C355.912 202.01 354.716 201.737 353.356 202.797C351.581 204.181 352.145 205.96 352.72 206.78Z" fill="var(--fill-0, #F4F4F4)"/>
<path d="M363.446 202.975L365.846 200.603C366.954 201.687 368.318 201.218 369.313 200.234C370.042 199.513 370.686 198.315 369.807 197.426C369.051 196.661 367.739 197.432 365.539 198.833C363.764 199.954 361.797 200.88 360.197 199.262C357.877 196.915 359.307 194.307 361.28 192.356C363.29 190.37 365.806 189.218 368.234 191.283L365.834 193.655C364.796 192.748 363.786 193.219 362.879 194.115C362.31 194.678 361.58 195.61 362.318 196.357C363.214 197.264 364.76 195.982 366.534 194.897C368.343 193.776 370.311 192.886 371.998 194.593C374.388 197.011 373.063 199.867 370.965 201.941C368.832 204.05 365.961 205.306 363.446 202.975Z" fill="var(--fill-0, #F4F4F4)"/>
</g>
</g>
</svg>
