<svg preserveAspectRatio="none" width="100%" height="100%" overflow="visible" style="display: block;" viewBox="0 0 275.858 52.0618" fill="none" xmlns="http://www.w3.org/2000/svg">
<g id="Colecione seus pol&#195;&#173;ticos">
<path d="M17.1892 11.0655L13.9935 9.0095C14.7436 7.38149 14.0444 5.32636 12.4045 4.27129C9.43999 2.36405 6.7025 4.17009 5.01169 6.79816C3.40203 9.30009 2.89315 12.5399 5.85762 14.4472C7.87597 15.7457 9.90405 15.0885 11.4278 13.2746L14.6236 15.3306C11.8795 18.8565 7.75141 19.5896 4.07211 17.2224C-0.574319 14.2331 -1.07564 9.00556 1.71083 4.6745C4.57845 0.217287 9.54353 -1.49332 14.19 1.49604C17.4908 3.61971 19.0216 7.33947 17.1892 11.0655Z" fill="var(--fill-0, #F4F4F4)"/>
<path d="M15.6689 16.433C17.5325 12.753 21.0942 11.5302 24.7073 13.36C28.3427 15.201 29.4647 18.7957 27.6011 22.4757C25.7487 26.1334 22.187 27.3562 18.5516 25.5151C14.9385 23.6854 13.8166 20.0907 15.6689 16.433ZM18.8359 18.0369C17.9098 19.8657 17.6191 22.0444 19.7602 23.1287C21.9236 24.2243 23.5078 22.7007 24.434 20.8718C25.3715 19.0207 25.6622 16.842 23.4988 15.7464C21.3577 14.6621 19.7734 16.1857 18.8359 18.0369Z" fill="var(--fill-0, #F4F4F4)"/>
<path d="M27.0885 29.3561L34.2591 13.0097L37.5101 14.4358L30.3395 30.7822L27.0885 29.3561Z" fill="var(--fill-0, #F4F4F4)"/>
<path d="M46.5933 31.0396L37.872 27.7389C37.1691 29.8786 37.8351 31.2266 39.6822 31.9257C41.015 32.4301 42.4002 32.0188 42.8938 31.3502L45.8165 32.4564C43.8017 34.955 41.3541 35.4186 38.6184 34.3832C34.8073 32.9408 33.4369 29.4283 34.8527 25.6873C36.2244 22.0632 39.7704 20.251 43.4413 21.6404C47.5564 23.1978 48.2341 27.4105 46.5933 31.0396ZM38.6685 25.6345L44.0696 27.6787C44.4028 25.8802 44.0142 24.7174 42.4009 24.1068C40.2966 23.3104 39.0692 24.717 38.6685 25.6345Z" fill="var(--fill-0, #F4F4F4)"/>
<path d="M61.0371 32.6451L57.7165 31.6209C57.9289 30.169 57.2734 29.1557 55.864 28.721C53.6901 28.0504 52.2954 30.0272 51.7354 31.8427C51.1901 33.6106 51.2271 35.9504 53.3532 36.6062C54.9299 37.0926 56.1472 36.3692 56.8264 34.9305L60.0993 35.9401C58.6597 39.0803 55.8376 40.1719 52.5886 39.1698C48.8619 38.0202 47.1641 34.6187 48.3063 30.9158C49.4927 27.0696 52.6629 24.9342 56.6763 26.1722C59.5908 27.0712 61.7948 29.4254 61.0371 32.6451Z" fill="var(--fill-0, #F4F4F4)"/>
<path d="M60.906 41.3033L64.1774 28.7992L67.6118 29.6978L64.3404 42.2019L60.906 41.3033ZM68.8584 24.9331L68.118 27.7629L64.6836 26.8643L65.424 24.0346L68.8584 24.9331Z" fill="var(--fill-0, #F4F4F4)"/>
<path d="M68.2822 36.5313C69.1608 32.5009 72.3007 30.422 76.2578 31.2847C80.2392 32.1526 82.2289 35.3498 81.3503 39.3801C80.477 43.386 77.3371 45.465 73.3556 44.597C69.3986 43.7344 67.4089 40.5372 68.2822 36.5313ZM71.7507 37.2874C71.3141 39.2904 71.5805 41.4722 73.9254 41.9834C76.2948 42.4999 77.4451 40.6269 77.8818 38.624C78.3237 36.5966 78.0573 34.4148 75.688 33.8983C73.3431 33.3871 72.1927 35.26 71.7507 37.2874Z" fill="var(--fill-0, #F4F4F4)"/>
<path d="M82.4873 46.1536L84.543 33.3932L87.875 33.93L87.5887 35.7071L87.6628 35.719C88.782 34.4306 90.4236 33.986 91.9045 34.2246C95.6314 34.825 96.2313 37.0741 95.7224 40.2333L94.4579 48.0821L90.9531 47.5175L92.1142 40.3104C92.4522 38.2125 92.0021 37.0765 90.3731 36.814C88.4726 36.5078 87.4871 37.4379 87.0696 40.0295L85.9921 46.7183L82.4873 46.1536Z" fill="var(--fill-0, #F4F4F4)"/>
<path d="M110.16 44.2546L100.891 43.2359C100.745 45.4834 101.726 46.6224 103.689 46.8381C105.106 46.9938 106.344 46.2497 106.655 45.479L109.762 45.8204C108.435 48.7429 106.18 49.803 103.273 49.4835C99.2221 49.0383 97.0181 45.9792 97.4551 42.0032C97.8784 38.1514 100.86 35.5112 104.761 35.94C109.135 36.4207 110.843 40.3307 110.16 44.2546ZM101.137 40.9994L106.877 41.6302C106.751 39.8055 106.084 38.7765 104.37 38.5881C102.133 38.3423 101.296 40.0108 101.137 40.9994Z" fill="var(--fill-0, #F4F4F4)"/>
<path d="M118.629 46.2861L122.001 46.4224C121.964 47.9722 123.237 48.6492 124.636 48.7057C125.66 48.7472 126.975 48.4 127.026 47.151C127.069 46.0769 125.611 45.6426 123.085 44.99C121.055 44.4576 119.036 43.6504 119.128 41.3772C119.261 38.0799 122.143 37.3458 124.916 37.4579C127.738 37.572 130.298 38.6263 130.444 41.8098L127.072 41.6734C127.028 40.2955 125.994 39.8784 124.72 39.8269C123.921 39.7946 122.74 39.897 122.698 40.9461C122.647 42.2201 124.638 42.4757 126.642 43.0322C128.696 43.5906 130.689 44.4218 130.592 46.8198C130.455 50.2171 127.463 51.197 124.515 51.0778C121.518 50.9566 118.64 49.7143 118.629 46.2861Z" fill="var(--fill-0, #F4F4F4)"/>
<path d="M144.967 45.3247L135.642 45.3805C135.755 47.6298 136.861 48.6482 138.836 48.6364C140.261 48.6279 141.406 47.746 141.626 46.9447L144.751 46.926C143.769 49.982 141.652 51.2946 138.727 51.3121C134.652 51.3365 132.111 48.5516 132.087 44.5517C132.064 40.6768 134.721 37.7108 138.646 37.6874C143.046 37.6611 145.193 41.3483 144.967 45.3247ZM135.628 43.1305L141.403 43.096C141.067 41.298 140.287 40.3526 138.562 40.3629C136.312 40.3764 135.672 42.1302 135.628 43.1305Z" fill="var(--fill-0, #F4F4F4)"/>
<path d="M158.785 37.3071L159.461 50.2144L156.09 50.3908L155.996 48.5933L155.921 48.5972C155.098 50.0922 153.587 50.8723 152.089 50.9507C148.319 51.148 147.259 49.0755 147.092 45.8799L146.677 37.9407L150.222 37.7552L150.603 45.0452C150.715 47.1673 151.394 48.1832 153.041 48.097C154.964 47.9964 155.731 46.8798 155.594 44.2584L155.24 37.4926L158.785 37.3071Z" fill="var(--fill-0, #F4F4F4)"/>
<path d="M161.358 45.8802L164.717 45.5471C164.894 47.0871 166.25 47.5807 167.643 47.4426C168.663 47.3414 169.917 46.8151 169.794 45.5712C169.688 44.5014 168.183 44.2738 165.591 43.9782C163.507 43.7327 161.395 43.2135 161.171 40.9496C160.845 37.6657 163.597 36.5386 166.359 36.2648C169.17 35.986 171.851 36.6748 172.438 39.8071L169.079 40.1402C168.844 38.7818 167.762 38.5122 166.493 38.638C165.697 38.717 164.543 38.9822 164.646 40.0271C164.772 41.2959 166.78 41.2726 168.842 41.5455C170.954 41.8134 173.043 42.3599 173.279 44.7482C173.615 48.1316 170.788 49.5173 167.852 49.8085C164.867 50.1045 161.845 49.2736 161.358 45.8802Z" fill="var(--fill-0, #F4F4F4)"/>
<path d="M183.919 52.0618L180.898 34.8499L184.222 34.2664L184.508 35.8916L184.557 35.8829C185.156 34.3817 186.427 33.524 188.003 33.2474C191.992 32.5472 194.356 35.4573 194.991 39.077C195.588 42.475 194.274 45.98 190.556 46.6326C189.029 46.9006 187.46 46.4908 186.402 45.382L186.353 45.3906L187.416 51.448L183.919 52.0618ZM189.158 44.1622C191.448 43.7602 191.84 41.6607 191.477 39.5923C191.123 37.5731 189.943 35.6228 187.702 36.0161C185.412 36.4181 185.032 38.5915 185.395 40.6599C185.758 42.7283 186.892 44.5598 189.158 44.1622Z" fill="var(--fill-0, #F4F4F4)"/>
<path d="M196.552 38.632C195.609 34.6161 197.548 31.3878 201.491 30.4627C205.458 29.5318 208.631 31.5607 209.573 35.5766C210.51 39.5682 208.571 42.7965 204.604 43.7274C200.661 44.6526 197.488 42.6236 196.552 38.632ZM200.008 37.8211C200.476 39.8169 201.656 41.6714 203.992 41.1231C206.353 40.5691 206.585 38.3834 206.117 36.3876C205.643 34.3675 204.463 32.5129 202.102 33.0669C199.766 33.6152 199.534 35.8009 200.008 37.8211Z" fill="var(--fill-0, #F4F4F4)"/>
<path d="M213.617 41.1894L208.8 24.0014L212.219 23.0436L217.035 40.2316L213.617 41.1894Z" fill="var(--fill-0, #F4F4F4)"/>
<path d="M220.053 39.3473L216.247 26.9953L219.64 25.95L223.445 38.3021L220.053 39.3473ZM220.68 20.2407L218.046 24.7669L215.681 25.4956L216.929 21.3963L220.68 20.2407Z" fill="var(--fill-0, #F4F4F4)"/>
<path d="M225.095 20.0137L226.363 23.6753L228.82 22.8244L229.597 25.0686L227.14 25.9195L229.235 31.967C229.628 33.1009 230.009 33.2862 231.143 32.8935C231.498 32.7708 231.82 32.6326 232.15 32.439L233.058 35.0612C232.524 35.3521 231.8 35.6293 231.138 35.8584C229.083 36.5702 227.124 36.7196 226.281 34.2864L223.786 27.0813L221.754 27.7849L220.977 25.5407L223.009 24.8371L221.74 21.1755L225.095 20.0137Z" fill="var(--fill-0, #F4F4F4)"/>
<path d="M234.958 34.3211L230.289 22.2691L233.599 20.9865L238.268 33.0385L234.958 34.3211ZM231.819 16.3942L232.876 19.1216L229.566 20.4042L228.509 17.6767L231.819 16.3942Z" fill="var(--fill-0, #F4F4F4)"/>
<path d="M248.886 19.2311L245.712 20.6453C244.916 19.4124 243.756 19.081 242.408 19.6812C240.33 20.6071 240.581 23.0133 241.355 24.7488C242.108 26.4387 243.675 28.176 245.708 27.2705C247.215 26.599 247.655 25.2532 247.22 23.723L250.348 22.3291C251.331 25.6408 249.925 28.32 246.819 29.7037C243.257 31.291 239.74 29.8473 238.163 26.3077C236.525 22.6311 237.506 18.9369 241.343 17.2276C244.129 15.9863 247.337 16.3083 248.886 19.2311Z" fill="var(--fill-0, #F4F4F4)"/>
<path d="M250.934 20.3655C248.96 16.7435 249.973 13.1165 253.529 11.1784C257.107 9.2284 260.704 10.343 262.678 13.965C264.64 17.5651 263.627 21.1921 260.049 23.1421C256.493 25.0802 252.896 23.9656 250.934 20.3655ZM254.051 18.6667C255.032 20.4667 256.662 21.9418 258.769 20.7933C260.899 19.6328 260.542 17.4639 259.561 15.6639C258.568 13.8419 256.939 12.3668 254.809 13.5273C252.702 14.6758 253.058 16.8447 254.051 18.6667Z" fill="var(--fill-0, #F4F4F4)"/>
<path d="M265.093 15.157L267.9 13.2838C268.781 14.5593 270.21 14.3576 271.374 13.5806C272.227 13.0117 273.086 11.9574 272.392 10.9176C271.796 10.0234 270.361 10.5302 267.934 11.488C265.979 12.2515 263.871 12.7862 262.609 10.8938C260.777 8.14873 262.676 5.85984 264.984 4.31964C267.334 2.75168 270.024 2.09884 272.015 4.58727L269.208 6.4605C268.362 5.37223 267.28 5.64307 266.219 6.35074C265.554 6.79476 264.66 7.57169 265.243 8.44512C265.95 9.5057 267.711 8.54121 269.659 7.8124C271.649 7.05583 273.75 6.55577 275.082 8.55217C276.969 11.3804 275.125 13.9327 272.672 15.5701C270.176 17.2352 267.118 17.9228 265.093 15.157Z" fill="var(--fill-0, #F4F4F4)"/>
</g>
</svg>
