<svg width="430" height="110" viewBox="0 0 430 110" fill="none" xmlns="http://www.w3.org/2000/svg">
<rect width="430" height="110" fill="#F0F0F0"/>
<g id="Mobile - Landing Page - Lan&#195;&#167;amento">
<g id="Feature - Cole&#195;&#167;&#195;&#181;es">
<rect width="430" height="1154" transform="translate(0 -1044.5)" fill="#0C0060"/>
<rect width="430" height="1154" transform="translate(0 -1044.5)" style="mix-blend-mode:overlay"/>
<g id="Divisor" clip-path="url(#clip0_345_2)">
<path id="Divisor_2" d="M467.5 182C467.5 183.381 466.381 184.5 465 184.5H-28C-29.3807 184.5 -30.5 183.381 -30.5 182V55.874L-30.4873 55.624C-30.365 54.3924 -29.3482 53.4184 -28.0859 53.375C-26.7393 53.3289 -25.598 54.3589 -25.5059 55.7031C-25.4832 56.0323 -25.2925 56.6054 -24.5605 57.4482C-23.8373 58.281 -22.7394 59.198 -21.2715 60.1846C-18.3346 62.1585 -14.3236 64.1464 -9.96484 66.1475C-5.70048 68.1052 -1.01959 70.1104 2.87402 71.9902C5.16736 73.0974 7.37958 74.2485 9.21875 75.4365C11.9009 67.3912 16.079 58.407 22.5293 51.1104C29.9931 42.6672 40.4948 36.5053 54.9902 36.7031C55.7337 36.7133 56.4343 37.0543 56.9014 37.6328C57.3684 38.2114 57.5541 38.9683 57.4072 39.6973C56.7298 43.0581 55.9286 46.1904 55.832 49.2988C55.7821 50.9081 55.9315 52.4167 56.3789 53.8262C59.0083 49.7874 62.4804 45.9059 67.2871 43.0781C73.0559 39.5317 78.7767 35.9383 84.4414 32.29C93.9465 25.8841 101.401 19.222 107.326 10.7744C107.757 10.1597 108.442 9.7714 109.191 9.7168C109.94 9.66227 110.674 9.94751 111.189 10.4932C116.573 16.1884 119.102 21.7866 119.774 27.6738C120.393 33.0878 119.415 38.5663 118.008 44.2529L117.721 45.3936C117.141 47.6602 117.218 49.7897 117.762 52.0879C126.24 44.9493 136.115 40.5859 148.518 38.3975C149.5 38.2244 150.49 38.6516 151.039 39.4844C151.588 40.3175 151.589 41.3975 151.042 42.2314C147.902 47.0165 147.388 50.1311 147.879 52.7139C148.388 55.3889 150.012 57.9098 152.47 61.4863C159.633 64.1885 168.678 62.3783 174.634 58.0195C177.667 55.7998 179.67 53.0823 180.331 50.25C180.97 47.5103 180.44 44.3009 177.699 40.7773C177.091 39.9953 177.002 38.9276 177.473 38.0557C177.943 37.1838 178.884 36.6715 179.871 36.75C191.021 37.6375 200.336 40.3602 207.803 47.0752C209.25 44.6377 210.124 42.4307 210.168 39.9824V39.9814C210.281 33.7553 210.997 28.1551 213.344 22.9111C215.704 17.6368 219.618 12.9335 225.786 8.31445L225.899 8.23438C226.474 7.85151 227.185 7.72262 227.861 7.88281C228.583 8.05376 229.191 8.53601 229.521 9.19922C233.238 16.6476 238.68 22.2748 246.434 27.9336C251.176 31.1589 255.95 34.3547 260.746 37.5303H260.745C264.678 40.1049 267.385 43.4653 269.12 47.1279C271.459 44.1553 271.642 40.0778 271.895 35.5605L271.922 35.3076C272.015 34.7233 272.313 34.1878 272.767 33.7998C273.286 33.3565 273.964 33.1442 274.643 33.2129C278.745 33.628 283.542 35.3611 288.355 37.6445C293.213 39.9491 298.279 42.9087 302.966 45.9385C307.658 48.9712 312.008 52.0989 315.438 54.7598C318.004 56.7494 320.153 58.5534 321.541 59.8896C321.609 59.7846 321.683 59.6729 321.759 59.5537C322.284 58.7324 322.983 57.6029 323.78 56.2422C325.376 53.5172 327.352 49.8974 329.135 46.001C330.925 42.0889 332.482 37.9815 333.29 34.2646C334.117 30.4602 334.061 27.5026 333.152 25.5781C332.764 24.7557 332.853 23.7868 333.385 23.0488C333.916 22.3109 334.807 21.9194 335.71 22.0273C347.04 23.3829 356.31 26.6741 363.77 33.6211C365.06 31.8567 365.431 30.1293 365.488 28.2705V28.2695C365.65 23.0486 366.074 18.2219 368.227 13.9043C370.428 9.49047 374.264 5.91991 380.597 2.7627C381.21 2.45685 381.922 2.41619 382.566 2.65039C383.211 2.88465 383.73 3.37348 384.004 4.00195C387.261 11.4812 393.85 17.8954 400.882 24.292C405.6 28.439 410.275 32.6275 414.875 36.8662C414.915 36.9034 414.955 36.9416 414.993 36.9814C418.336 40.4958 421.152 44.0784 423.015 48.3564C423.661 47.7413 424.05 47.0047 424.315 46.1816C424.87 44.46 424.861 42.4933 424.939 40.2061L424.949 40.0498C425.024 39.2779 425.454 38.5804 426.118 38.168C426.826 37.728 427.707 37.6705 428.467 38.0137C439.183 42.855 448.595 50.4999 455.491 59.249C462.372 67.9795 466.867 77.966 467.495 87.5332C467.499 87.5877 467.5 87.6427 467.5 87.6973V182Z" fill="#0000CC" stroke="#FFCE00" stroke-width="5" stroke-linejoin="round"/>
</g>
</g>
</g>
<defs>
<clipPath id="clip0_345_2">
<rect width="430" height="162" fill="white" transform="translate(0 -52.5)"/>
</clipPath>
</defs>
</svg>
