<svg preserveAspectRatio="none" width="100%" height="100%" overflow="visible" style="display: block;" viewBox="0 0 334.068 117.133" fill="none" xmlns="http://www.w3.org/2000/svg">
<g id="Explore nossas Cole&#195;&#167;&#195;&#181;es">
<path fill-rule="evenodd" clip-rule="evenodd" d="M203.486 101.695C203.486 101.692 203.487 101.688 203.488 101.685C203.488 101.683 203.493 101.672 203.494 101.671C203.492 101.676 203.486 101.689 203.486 101.695ZM203.626 101.794C203.623 101.795 203.615 101.797 203.611 101.798L203.626 101.794ZM222.455 56.7456C222.461 56.7403 222.475 56.7288 222.481 56.7236L222.455 56.7456Z" fill="#D50000"/>
<path fill-rule="evenodd" clip-rule="evenodd" d="M194.892 115.399C194.889 115.401 194.885 115.404 194.883 115.405L194.892 115.399ZM171.516 101.354C171.507 101.355 171.499 101.357 171.493 101.36C171.489 101.362 171.486 101.363 171.483 101.365C171.487 101.363 171.488 101.362 171.493 101.36C171.497 101.358 171.511 101.355 171.516 101.354Z" fill="#D50000"/>
<path fill-rule="evenodd" clip-rule="evenodd" d="M117.199 106.478C117.203 106.48 117.195 106.477 117.199 106.478ZM127.067 95.673C127.061 95.673 127.056 95.6731 127.051 95.6732L127.067 95.673Z" fill="#D50000"/>
<path fill-rule="evenodd" clip-rule="evenodd" d="M36.2045 101.296C36.2056 101.291 36.2061 101.286 36.2061 101.28C36.2061 101.261 36.2008 101.24 36.1895 101.217C36.1781 101.194 36.1642 101.175 36.1484 101.162C36.1416 101.157 36.127 101.152 36.1055 101.147C36.0991 101.146 36.0916 101.144 36.0831 101.141C36.0812 101.14 36.0755 101.137 36.0735 101.137C36.0682 101.134 36.0626 101.132 36.0566 101.129" fill="#D50000"/>
<path fill-rule="evenodd" clip-rule="evenodd" d="M89.9301 39.5544L89.9189 39.5508C89.9225 39.5521 89.9263 39.5533 89.9301 39.5544ZM103.949 39.8353C103.943 39.8375 103.935 39.8399 103.929 39.8418L103.949 39.8353Z" fill="#D50000"/>
<path fill-rule="evenodd" clip-rule="evenodd" d="M3.31764 15.1295C3.32055 15.155 3.32349 15.1808 3.32633 15.2069L3.31764 15.1295Z" fill="#D50000"/>
<path d="M29.8428 40.5283C30.9818 40.5283 32.2986 40.2698 33.5417 39.5325L33.5605 39.541C35.4496 40.3891 37.6219 40.5078 39.2412 40.5078C40.8048 40.5078 42.7366 40.3697 44.5049 39.6582C44.9127 39.8113 45.3041 39.9276 45.6641 40.0156L45.6895 40.0225L45.7148 40.0283C47.3742 40.4187 49.6028 40.5078 51.873 40.5078C53.3183 40.5078 54.7472 40.4746 56.0716 40.3674C56.9831 42.6256 58.8377 44.082 60.3477 44.8857C63.5325 46.5857 67.0709 47.3349 70.7803 47.335C72.7919 47.335 75.0857 47.0865 77.1504 46.0879L77.1608 46.0825C77.1641 46.0806 77.1675 46.0788 77.1709 46.0771C77.1856 46.07 77.2001 46.0619 77.2148 46.0547C78.2796 45.5366 79.4782 44.7192 80.4209 43.4248C81.1475 42.4269 81.5937 41.3179 81.7891 40.1816C83.6372 39.6927 85.3396 38.832 86.8682 37.6599C87.7697 38.5213 88.8153 39.1445 89.9189 39.5508L89.9301 39.5544L89.9434 39.5586L89.9727 39.5693C92.1108 40.3501 94.8619 40.5078 97.4355 40.5078C99.7013 40.5078 102.058 40.3875 103.929 39.8418C103.935 39.8399 103.943 39.8375 103.949 39.8353L103.962 39.8313L104.008 39.8174L104.053 39.8037C105.194 39.4645 106.331 38.8863 107.323 38.0012C110.186 39.8403 113.502 40.6484 116.983 40.6484C121.046 40.6484 124.823 39.5479 128.155 37.3511C129.279 38.5279 130.602 39.1871 131.71 39.5654L131.721 39.5693L131.732 39.5732C133.891 40.3006 136.463 40.5078 139.033 40.5078C141.631 40.5078 144.007 40.3764 145.903 39.9814C147.51 39.6466 149.173 38.8846 150.534 37.4766L150.568 37.4414L150.603 37.4053C151.404 36.5489 152.013 35.5426 152.385 34.4351C153.022 35.2664 153.741 36.0354 154.544 36.7334L154.571 36.7568C157.688 39.4348 161.478 40.6484 165.528 40.6484C169.535 40.6484 173.259 39.4716 176.47 37.0684C178.322 35.686 180.677 33.2013 180.677 29.4834C180.677 28.6345 180.54 27.8433 180.311 27.1172C181.243 25.4636 181.538 23.7134 181.538 22.1758C181.538 19.9015 180.866 17.8142 179.846 15.9844C178.916 14.3068 177.686 12.8569 176.199 11.6582C173.241 9.26295 169.715 8.16797 165.969 8.16797C163.786 8.16797 161.651 8.54148 159.619 9.33594L159.214 9.5C158.119 9.95981 157.091 10.5198 156.135 11.177L155.859 10.9111C154.03 9.23613 151.787 8.4206 149.479 8.31934L148.983 8.30859C147.637 8.30859 146.393 8.54348 145.259 8.96777C144.687 8.70991 144.204 8.58421 143.937 8.52148C143.087 8.32229 142.287 8.28809 141.716 8.28809H141.661C139.731 8.30596 137.696 8.66593 135.638 9.22754L134.754 9.48047C133.087 9.97403 131.199 10.6585 129.701 11.7285C129.665 11.7538 129.63 11.7794 129.594 11.8054C129.291 11.5627 128.977 11.33 128.653 11.1074C125.718 9.08701 122.365 8.14845 118.825 8.14844C114.883 8.14844 111.215 9.14468 108.018 11.2215C108.102 10.1785 108.16 9.29488 108.16 8.72266C108.16 7.41957 107.923 5.33019 106.436 3.48535C104.749 1.39364 102.414 0.760742 100.578 0.760742C99.3564 0.760789 97.8518 0.969891 96.3545 1.22852C94.7657 1.50294 93.3092 1.81804 92.0625 2.19629C90.4493 2.68183 88.5918 3.39821 87.0781 4.58984C85.7885 5.59577 84.6338 7.05471 84.124 8.91805C82.7544 8.41407 81.2884 8.14844 79.749 8.14844C78.3261 8.14848 76.9475 8.40438 75.667 8.78223L75.6396 8.79004L75.6104 8.79883C75.4931 8.83301 75.3756 8.86915 75.2578 8.90625C74.3836 8.53405 73.6362 8.42594 73.3592 8.38587C72.7059 8.29133 72.0493 8.26855 71.501 8.26855H71.418C68.7359 8.30582 65.8207 9.145 62.8875 10.3512C62.3764 9.92066 61.8475 9.58509 61.3477 9.3252L61.3057 9.30273L61.2637 9.28223L60.9111 9.11719C59.136 8.34291 57.1753 8.28809 55.9971 8.28809C54.5988 8.2881 52.7305 8.36548 51.0576 8.95312L50.7266 9.07715C50.7229 9.07861 50.7185 9.07959 50.7148 9.08105C50.3887 8.96947 50.0789 8.88362 49.7959 8.81543L49.7559 8.80566L49.7168 8.79688L49.3965 8.72852C47.7756 8.40286 45.8219 8.3086 43.8057 8.30859C41.5965 8.30859 39.4689 8.41545 37.6076 8.74278C37.2632 6.94338 36.561 5.21005 35.4258 3.63379L35.4111 3.61328C35.4091 3.61085 35.4012 3.60106 35.3994 3.59863C34.1742 1.89979 32.0492 0.116403 29.002 0.00585938L28.7021 0C27.7036 0 26.8469 0.220781 26.3926 0.350586L26.3711 0.357422L26.3486 0.364258C25.8224 0.519031 25.2723 0.625164 24.6934 0.683594C24.0054 0.739136 22.7173 0.781248 20.6943 0.78125H10.4043C8.99157 0.78125 7.31765 0.817665 6.03223 1.11426L5.95703 1.13184L5.88184 1.15137C4.29501 1.5609 2.87824 2.4412 1.81152 3.72852L1.60352 3.99121C0.5403 5.39018 0 7.05132 0 8.7627C0 10.1349 0.344059 11.8123 1.48535 13.334C2.02968 14.0597 2.65905 14.619 3.30859 15.0488C3.31143 15.0752 3.31454 15.1025 3.31764 15.1295C3.32256 15.1727 3.32759 15.2167 3.33203 15.2617C3.46523 16.6131 3.54297 18.4972 3.54297 20.9746C3.54297 23.2755 3.43103 25.0686 3.25684 26.4199C2.97059 26.6177 2.62634 26.8828 2.28125 27.2188L2.03125 27.4756C0.365394 29.2805 0.200195 31.398 0.200195 32.3857C0.200195 34.4626 0.997849 36.6984 2.95215 38.3037L3.00293 38.3447L3.05371 38.3848C4.85646 39.8012 6.88217 40.1074 8.3418 40.1074H25.1992C26.4565 40.1443 27.2301 40.2285 27.6367 40.3047L27.6963 40.3164L27.7559 40.3262C28.3231 40.4207 29.0825 40.5283 29.8428 40.5283ZM217.396 13.1329C216.719 12.2307 215.916 11.4546 215.038 10.7998L214.999 10.7705L214.552 10.458C212.297 8.94906 209.738 8.28817 207.127 8.28809C205.461 8.28809 203.857 8.57791 202.381 9.16992C201.437 8.66584 200.393 8.37405 199.306 8.31836L198.919 8.30859C197.904 8.30859 196.775 8.52882 195.812 8.76367L194.914 8.99512C193.559 9.34726 192.168 9.77879 190.761 10.2773L190.751 10.2803C189.367 10.7756 187.592 11.4654 186.312 12.416C184.516 13.7373 183.27 15.8014 183.192 18.2861L183.189 18.5322L183.194 18.8291C183.278 21.0226 184.283 22.6832 185.463 23.833C185.447 24.9792 185.407 26.077 185.343 27.127C185.34 27.1729 185.336 27.2178 185.333 27.2617C185.099 27.5106 184.866 27.7869 184.656 28.0898L184.626 28.1328L184.597 28.1768C183.661 29.5803 183.469 31.0172 183.436 31.8887L183.43 32.2256L183.436 32.543C183.5 34.1306 184.05 35.6867 185.105 36.9971C186.154 38.2984 187.452 39.0524 188.527 39.4971C190.561 40.3382 192.906 40.5283 194.995 40.5283C197.451 40.5283 199.985 40.3535 202.059 39.6455C202.145 39.6161 202.232 39.5831 202.322 39.5493L202.375 39.5293L202.386 39.5341L202.411 39.5464L202.423 39.5518L202.436 39.5576C204.401 40.385 206.772 40.5078 208.668 40.5078C211.358 40.5078 214.122 40.3669 216.189 39.6865C217.114 39.3822 218.206 38.8773 219.206 38.0204C222.061 39.846 225.367 40.6484 228.837 40.6484C233.317 40.6483 237.449 39.31 241.02 36.6394C241.439 37.2176 241.922 37.7755 242.482 38.2812L242.499 38.2969L242.517 38.3115C244.272 39.872 246.341 40.3076 247.984 40.3076C248.527 40.3076 249.085 40.2455 249.488 40.1924C249.812 40.2251 250.283 40.2754 250.912 40.3467C252.238 40.5133 253.515 40.6484 254.45 40.6484C257.481 40.6484 260.423 39.8488 262.957 38.0036C263.053 38.0977 263.151 38.1903 263.252 38.2812L263.269 38.2969L263.285 38.3115C265.041 39.8721 267.109 40.3076 268.753 40.3076C269.296 40.3076 269.854 40.2456 270.258 40.1924C270.582 40.2251 271.052 40.2755 271.681 40.3467C273.007 40.5133 274.284 40.6484 275.22 40.6484C278.268 40.6484 281.228 39.8393 283.772 37.9702C283.977 38.1353 284.188 38.2941 284.406 38.4463L284.417 38.4541L284.429 38.4619C286.796 40.0982 289.514 40.6484 292.085 40.6484C293.883 40.6484 295.616 40.3189 297.239 39.6631C298.665 40.3338 300.219 40.6484 301.794 40.6484C304.001 40.6484 306.072 40.0466 307.923 38.9717L307.933 38.9652L307.948 38.9561L307.961 38.9484L307.973 38.9414C308.23 38.7924 308.482 38.6348 308.729 38.4685C310.444 39.9015 312.427 40.3076 314.015 40.3076C314.558 40.3076 315.116 40.2456 315.52 40.1924C315.843 40.2251 316.314 40.2755 316.942 40.3467C318.268 40.5133 319.546 40.6484 320.481 40.6484C323.622 40.6484 326.668 39.7896 329.264 37.7979L329.281 37.7842L329.29 37.7764C332.214 35.5363 334.068 32.3092 334.068 28.3818C334.068 26.5829 333.671 24.8702 332.893 23.3193C333.604 22.1102 333.969 20.742 333.969 19.333C333.969 17.6778 333.502 16.1912 333.003 15.0273C332.473 13.7909 331.784 12.641 330.939 11.5908L330.933 11.5825L330.926 11.5742C330.921 11.5685 330.916 11.5623 330.911 11.5566C329.888 10.2823 327.837 8.27935 324.695 8.1543L324.385 8.14844C323.39 8.14845 322.526 8.35691 321.879 8.57324C320.606 8.34447 319.334 8.16797 318.259 8.16797C314.447 8.168 310.89 9.51233 308.243 12.4678C307.745 11.9486 307.207 11.4848 306.646 11.0732L306.636 11.0654L306.624 11.0576L306.094 10.6885C303.416 8.9144 300.355 8.14844 297.189 8.14844C293.54 8.14846 290.056 9.04806 286.811 10.7695L286.78 10.7861L286.749 10.8027C286.36 11.0148 285.976 11.2456 285.601 11.497C284.563 10.2208 282.527 8.27744 279.434 8.1543L279.123 8.14844C278.128 8.14845 277.264 8.35692 276.617 8.57324C275.344 8.34447 274.072 8.16797 272.997 8.16797C269.854 8.16798 266.885 9.08075 264.456 11.058C263.336 9.81782 261.42 8.26383 258.664 8.1543L258.354 8.14844C257.36 8.14844 256.496 8.35696 255.849 8.57324C254.575 8.34445 253.303 8.16801 252.229 8.16797C248.418 8.16797 244.863 9.50904 242.217 12.462C241.683 11.9761 241.113 11.5238 240.507 11.1074C237.572 9.08696 234.219 8.14852 230.679 8.14844C225.865 8.14844 221.459 9.63411 217.82 12.7588C217.676 12.8819 217.535 13.0066 217.396 13.1329ZM35.9062 101.095C35.9583 101.095 36.0085 101.106 36.0566 101.129C36.0649 101.133 36.0762 101.138 36.0831 101.141C36.0932 101.145 36.0982 101.146 36.1055 101.147C36.127 101.152 36.1416 101.157 36.1484 101.162C36.1642 101.175 36.1781 101.194 36.1895 101.217C36.2008 101.24 36.2061 101.261 36.2061 101.28L36.2045 101.296C36.2028 101.304 36.1994 101.312 36.1943 101.318C36.1862 101.329 36.1764 101.335 36.165 101.335C36.1573 101.335 36.147 101.329 36.1348 101.317C36.1205 101.303 36.1001 101.292 36.0742 101.283C36.0486 101.274 36.0224 101.27 35.9961 101.27C35.9245 101.27 35.8695 101.301 35.8311 101.363C35.8029 101.41 35.7881 101.461 35.7881 101.517C35.7881 101.557 35.7979 101.59 35.8174 101.614C35.8372 101.639 35.8641 101.65 35.8975 101.65C35.932 101.65 35.9655 101.639 35.9971 101.617C36.0096 101.608 36.0206 101.598 36.0293 101.587C36.0381 101.576 36.0495 101.557 36.0635 101.531C36.0732 101.513 36.0833 101.5 36.0938 101.493C36.1041 101.486 36.1174 101.482 36.1338 101.482C36.152 101.482 36.1689 101.487 36.1836 101.497C36.2105 101.515 36.2236 101.545 36.2236 101.584C36.2235 101.64 36.2079 101.687 36.1768 101.725C36.1642 101.74 36.1495 101.748 36.1328 101.748C36.1276 101.748 36.1224 101.747 36.1182 101.746C36.1053 101.743 36.0957 101.742 36.0898 101.742C36.0816 101.742 36.0674 101.747 36.0469 101.757C36.0027 101.778 35.9566 101.788 35.9092 101.788C35.8584 101.788 35.8086 101.778 35.7607 101.757C35.698 101.73 35.6474 101.689 35.6084 101.638C35.5636 101.578 35.5411 101.513 35.541 101.44C35.541 101.378 35.559 101.319 35.5947 101.262C35.6311 101.203 35.6805 101.159 35.7432 101.131C35.7972 101.106 35.8519 101.095 35.9062 101.095ZM82.4246 71.6879C82.1193 67.9411 80.8395 64.4622 78.3994 61.5137C76.815 59.5834 74.4695 58.0773 71.4932 57.9844L71.2012 57.9795C70.5594 57.9795 69.8563 58.0369 69.125 58.1973C69.0923 58.1828 69.0581 58.1681 69.0227 58.1528C68.942 58.118 68.8549 58.0803 68.7627 58.0371C65.4227 56.4668 61.8935 55.6572 58.2305 55.6572C54.4382 55.6572 50.7642 56.4401 47.2549 57.9678L46.4131 58.3496C42.2477 60.3113 38.735 63.1076 35.9941 66.7393C32.6313 71.1988 30.877 76.2817 30.877 81.8213C30.877 86.6408 32.2805 91.1842 34.8975 95.3564C37.6388 99.7622 41.4312 103.083 46.1592 105.216C49.9984 106.95 53.9808 107.872 58.0605 107.872C62.0033 107.872 65.7946 106.989 69.377 105.271C69.8424 105.049 70.1978 104.903 70.4541 104.809C70.6328 104.743 70.7337 104.715 70.757 104.709L70.8027 104.7C71.5845 104.546 72.3898 104.351 73.1494 104.089C73.8237 103.856 74.8903 103.43 75.8828 102.627L75.9199 102.597L75.958 102.565C76.7442 101.908 77.4364 101.172 78.0461 100.381C78.6277 101.101 79.2728 101.787 79.9824 102.438C84.0874 106.211 89.2882 107.872 95.0029 107.872C100.908 107.872 106.303 106.091 110.964 102.534C111.27 102.3 111.569 102.061 111.86 101.817C112.179 102.45 112.563 103.022 112.979 103.528L113.047 103.61C114.198 104.961 115.639 105.905 117.199 106.478C117.203 106.479 117.214 106.483 117.218 106.484L117.248 106.495C119.82 107.437 123.322 107.674 126.96 107.674C130.164 107.674 133.195 107.494 135.471 106.825C135.477 106.823 135.483 106.821 135.489 106.819C135.495 106.817 135.501 106.815 135.507 106.813C135.536 106.805 135.566 106.796 135.595 106.787C137.228 106.305 138.816 105.407 140.082 103.961C140.098 103.943 140.112 103.924 140.128 103.906L140.164 103.864C140.369 103.627 140.563 103.379 140.743 103.12C144.612 106.368 149.31 107.872 154.443 107.872C159.601 107.872 164.341 106.366 168.432 103.305C169.325 102.639 170.255 101.811 171.064 100.815C171.15 100.909 171.236 101.003 171.322 101.096L171.313 101.102C171.302 101.104 171.289 101.108 171.275 101.114C171.24 101.13 171.208 101.155 171.181 101.187C171.144 101.229 171.125 101.28 171.125 101.34C171.125 101.413 171.153 101.474 171.209 101.523C171.263 101.57 171.329 101.594 171.405 101.594C171.464 101.594 171.516 101.579 171.561 101.549C171.601 101.521 171.621 101.487 171.621 101.445C171.621 101.426 171.615 101.411 171.605 101.396C173.262 103.118 175.139 104.547 177.236 105.639C176.961 106.359 176.783 107.157 176.753 108.032L176.748 108.301L176.753 108.59C176.856 111.529 178.514 113.647 180.227 114.908C180.232 114.912 180.238 114.916 180.244 114.92L180.259 114.931C182.589 116.641 185.313 117.133 187.732 117.133C190.142 117.133 192.623 116.676 194.873 115.411C194.878 115.408 194.886 115.403 194.892 115.399L194.902 115.393C197.149 114.129 199.68 111.661 199.68 107.763C199.68 106.65 199.446 105.643 199.086 104.746L199.146 104.708C200.543 103.833 202.003 102.701 203.198 101.282C203.31 101.404 203.425 101.525 203.541 101.645C203.525 101.645 203.511 101.65 203.501 101.661L203.494 101.671C203.495 101.667 203.492 101.673 203.494 101.671C203.493 101.672 203.488 101.683 203.488 101.685C203.486 101.69 203.486 101.689 203.486 101.695C203.486 101.715 203.49 101.739 203.498 101.756C203.506 101.769 203.516 101.781 203.53 101.789C203.545 101.797 203.561 101.801 203.579 101.801L203.591 101.8C203.597 101.8 203.606 101.799 203.611 101.798C203.615 101.797 203.623 101.795 203.626 101.794C203.632 101.792 203.641 101.788 203.651 101.782L203.67 101.773C203.892 101.999 204.122 102.221 204.358 102.438C208.463 106.211 213.664 107.872 219.379 107.872C225.284 107.872 230.679 106.091 235.34 102.534C236.615 101.56 237.762 100.498 238.761 99.3526C239.2 99.9777 239.664 100.582 240.169 101.152C240.147 101.171 240.125 101.197 240.11 101.225C240.091 101.261 240.081 101.3 240.081 101.341C240.081 101.395 240.098 101.445 240.131 101.488C240.159 101.526 240.196 101.555 240.24 101.573C240.257 101.58 240.274 101.585 240.292 101.589C240.298 101.59 240.304 101.591 240.31 101.591L240.327 101.593C240.334 101.594 240.341 101.594 240.349 101.594C240.41 101.594 240.463 101.576 240.506 101.541C240.51 101.538 240.513 101.534 240.516 101.531C240.979 102.027 241.474 102.495 241.99 102.944L242.018 102.968C245.92 106.321 250.683 107.872 255.896 107.872C261.053 107.872 265.793 106.366 269.884 103.305C270.16 103.099 270.44 102.877 270.719 102.64C271.315 103.552 272.015 104.416 272.846 105.165L272.862 105.181L272.879 105.195C274.784 106.889 277.057 107.391 278.961 107.391C279.652 107.391 280.402 107.299 280.971 107.221L281.039 107.211C281.087 107.215 281.141 107.221 281.2 107.226L281.34 107.24C281.814 107.288 282.493 107.361 283.389 107.463C285.283 107.701 286.955 107.872 288.108 107.872C292.101 107.872 295.868 106.783 299.051 104.328C302.649 101.574 304.842 97.7047 304.842 93.0078C304.842 90.3484 304.13 87.8682 302.73 85.7129C304.034 84.1457 304.7 82.2234 304.7 80.207C304.7 78.325 304.167 76.5704 303.535 75.0967C302.872 73.5504 302.012 72.1149 300.958 70.8047L300.951 70.7958L300.943 70.7871L300.93 70.7705C299.617 69.1332 297.207 66.8721 293.631 66.8721C292.353 66.8721 291.245 67.1965 290.458 67.4951C290.425 67.5072 290.393 67.5182 290.362 67.5287L290.327 67.5405L290.295 67.5518C288.303 67.1749 286.433 66.9004 284.965 66.9004C280.034 66.9004 275.586 68.6707 272.34 72.5098C272.096 72.798 271.864 73.0924 271.646 73.3924C270.971 72.635 270.232 71.9326 269.431 71.2871C265.736 68.2941 261.316 66.9004 256.519 66.9004C253.719 66.9004 251.008 67.3781 248.44 68.3818L247.93 68.5898C244.469 70.0425 241.548 72.2714 239.26 75.2302C238.249 73.871 237.081 72.6501 235.76 71.5801C237.387 69.4531 238.066 66.9418 238.066 64.4326C238.066 62.2846 237.536 59.567 235.421 57.4189C233.422 55.3894 230.899 54.7706 228.799 54.7012L228.385 54.6943C226.551 54.6943 224.491 55.1647 222.688 56.5615L222.481 56.7236L222.455 56.7456L222.437 56.7607C221.407 56.2843 220.5 55.8993 219.769 55.6523L219.741 55.6431L219.72 55.6357C219.696 55.628 219.672 55.6208 219.649 55.6133C218.145 55.1051 216.599 54.8926 215.074 54.8926C213.088 54.8926 211.13 55.3545 209.328 56.3555L209.303 56.3691L209.277 56.3838C207.536 57.3731 206.082 58.7905 205.082 60.6162L205.039 60.6943L204.999 60.7725C204.064 62.6057 203.608 64.5821 203.608 66.6133C203.608 68.6888 204.222 70.8054 205.666 72.584C205.588 72.6491 205.51 72.714 205.433 72.7803L205 73.1592C204.75 73.3834 204.507 73.6115 204.271 73.8435C203.288 72.5667 202.067 71.4575 200.68 70.5254L200.67 70.5195L200.661 70.5137L200.315 70.2881C196.73 67.9954 192.682 66.9004 188.355 66.9004C182.559 66.9004 177.33 68.7245 173.009 72.4766L172.983 72.498C172.286 73.1105 171.639 73.752 171.043 74.4209C170.155 73.2621 169.131 72.2156 167.979 71.2871C164.284 68.294 159.864 66.9004 155.066 66.9004C152.266 66.9004 149.555 67.3781 146.988 68.3818L146.477 68.5898C143.638 69.7814 141.163 71.4949 139.102 73.7052C139.165 72.454 139.246 71.1507 139.345 69.7949C139.523 67.7419 139.644 66.1034 139.644 65.1973C139.644 63.6231 139.352 61.3309 137.756 59.3506C135.96 57.123 133.46 56.4219 131.406 56.4219C129.908 56.4219 127.961 56.6841 125.854 57.0479C123.65 57.4287 121.691 57.8557 120.059 58.3525C117.907 59.0014 115.669 59.8901 113.909 61.2549C111.884 62.8058 110.227 65.2382 110.227 68.4258C110.227 69.2485 110.334 70.1083 110.586 70.9639C110.426 70.8473 110.264 70.7327 110.101 70.6201C106.402 68.0741 102.161 66.8721 97.6084 66.8721C91.9483 66.8721 86.7991 68.44 82.4246 71.6879ZM127.067 95.673L127.117 95.6723L126.178 94.2227C126.13 94.6233 126.052 95.1174 125.924 95.6631C126.253 95.6688 126.598 95.6738 126.96 95.6738L127.003 95.6736L127.051 95.6732L127.067 95.673ZM171.483 101.365C171.487 101.363 171.488 101.362 171.493 101.36C171.497 101.358 171.511 101.355 171.516 101.354L171.526 101.354C171.547 101.354 171.564 101.361 171.581 101.372L171.539 101.328C171.513 101.302 171.488 101.275 171.463 101.249L171.483 101.365Z" fill="#D50000"/>
<path d="M10.5448 6.78076H20.8348C22.9169 6.78076 24.4317 6.74072 25.3793 6.66064C26.3402 6.56722 27.2744 6.38704 28.182 6.12012C28.4623 6.04004 28.6825 6 28.8426 6C29.5366 6 30.1506 6.3737 30.6844 7.12109C31.5653 8.33561 32.0057 9.80371 32.0057 11.5254C32.0057 12.3929 31.8189 13.0802 31.4452 13.5874C31.0848 14.0812 30.5843 14.3281 29.9437 14.3281C29.5033 14.3281 29.1563 14.2414 28.9027 14.0679C28.6625 13.881 28.3355 13.474 27.9217 12.8467C27.3345 11.9525 26.5871 11.3586 25.6796 11.0649C24.7853 10.758 23.3106 10.6045 21.2552 10.6045C19.7204 10.6045 18.7862 10.8781 18.4525 11.4253C18.279 11.7189 18.1722 12.1126 18.1322 12.6064C18.1055 13.1003 18.0921 14.3615 18.0921 16.3901C18.0921 17.1909 18.2256 17.6914 18.4925 17.8916C18.7595 18.0785 19.4601 18.1719 20.5946 18.1719C21.1551 18.1719 21.5622 18.0584 21.8158 17.8315C22.0694 17.5913 22.2295 17.1709 22.2962 16.5703C22.3897 15.7962 22.4831 15.269 22.5765 14.9888C22.6833 14.6951 22.8701 14.4416 23.1371 14.228C23.4173 13.9878 23.7443 13.8677 24.118 13.8677C24.6652 13.8677 25.1323 14.1279 25.5194 14.6484C25.7997 15.0355 26.0332 15.7228 26.2201 16.7104C26.4203 17.6847 26.5204 18.7057 26.5204 19.7734C26.5204 21.8822 26.1934 23.6105 25.5394 24.9585C25.1791 25.6925 24.6319 26.0596 23.8978 26.0596C23.444 26.0596 23.1304 25.9461 22.9569 25.7192C22.7834 25.479 22.6499 24.9919 22.5565 24.2578C22.3563 22.7497 21.4754 21.9956 19.9139 21.9956C19.3133 21.9956 18.8996 22.1891 18.6727 22.5762C18.4592 22.9499 18.3524 23.6506 18.3524 24.6782C18.3524 25.3055 18.3924 26.1196 18.4725 27.1206C18.5659 28.1082 18.6594 28.7622 18.7528 29.0825C18.8596 29.4829 19.1865 29.7632 19.7337 29.9233C20.2943 30.0701 21.2219 30.1436 22.5165 30.1436C24.5184 30.1436 26.0266 29.89 27.0409 29.3828C28.0552 28.8623 28.8827 27.9281 29.5233 26.5801C29.897 25.806 30.2307 25.2855 30.5243 25.0186C30.8312 24.7516 31.225 24.6182 31.7054 24.6182C32.266 24.6182 32.7264 24.8651 33.0868 25.3589C33.4605 25.8394 33.6473 26.4466 33.6473 27.1807C33.6473 27.9814 33.4405 28.9824 33.0267 30.1836C32.613 31.3848 32.1058 32.4525 31.5052 33.3867C31.1983 33.8405 30.9447 34.1408 30.7445 34.2876C30.5443 34.4478 30.2907 34.5278 29.9837 34.5278C29.7302 34.5278 29.3631 34.4878 28.8827 34.4077C28.0285 34.2476 26.8874 34.1475 25.4593 34.1074H8.48277C7.80211 34.1074 7.27493 33.9606 6.90123 33.667C6.52753 33.36 6.34068 32.9329 6.34068 32.3857C6.34068 31.9987 6.42076 31.7184 6.58092 31.5449C6.74107 31.3714 7.1081 31.1512 7.68199 30.8843C8.08238 30.7108 8.376 30.4972 8.56285 30.2437C8.76305 29.9901 8.91653 29.6164 9.0233 29.1226C9.46373 27.1073 9.68394 24.3913 9.68394 20.9746C9.68394 15.8229 9.36363 12.5731 8.72301 11.2251C8.58954 10.9582 8.44273 10.7713 8.28258 10.6646C8.12242 10.5578 7.78876 10.431 7.2816 10.2842C6.52086 10.0573 6.14049 9.55013 6.14049 8.7627C6.14049 8.33561 6.26728 7.95524 6.52086 7.62158C6.77444 7.28792 7.1081 7.06771 7.52184 6.96094C8.04234 6.84082 9.04999 6.78076 10.5448 6.78076Z" fill="var(--fill-0, #FFF100)"/>
<path d="M42.2045 22.8965L40.5028 20.7744C39.7688 19.8535 39.1949 19.2329 38.7811 18.9126C38.3674 18.5923 37.8469 18.3654 37.2196 18.2319C36.1652 18.005 35.6381 17.4979 35.6381 16.7104C35.6381 15.8963 36.3121 15.2957 37.66 14.9087C39.0214 14.5083 41.1167 14.3081 43.9462 14.3081C46.0015 14.3081 47.5297 14.4215 48.5306 14.6484C49.6384 14.9154 50.1923 15.4492 50.1923 16.25C50.1923 16.557 49.972 17.0575 49.5316 17.7515C49.4515 17.8849 49.4115 18.0251 49.4115 18.1719C49.4115 18.4521 49.6184 18.8592 50.0321 19.3931C50.4592 19.9269 50.7795 20.1938 50.993 20.1938C51.2333 20.1938 51.587 19.9002 52.0541 19.313C52.5212 18.7124 52.7548 18.2653 52.7548 17.9717C52.7548 17.7581 52.608 17.4378 52.3143 17.0107C52.0608 16.637 51.934 16.3434 51.934 16.1299C51.934 15.8363 52.0407 15.5493 52.2543 15.269C52.4812 14.9888 52.7614 14.7819 53.0951 14.6484C53.6957 14.4082 54.71 14.2881 56.1381 14.2881C57.3793 14.2881 58.2401 14.4082 58.7206 14.6484C59.3879 14.9954 59.7216 15.4893 59.7216 16.1299C59.7216 16.4769 59.6281 16.7371 59.4413 16.9106C59.2544 17.0841 58.7806 17.3511 58.0199 17.7114C57.6062 17.9116 57.2925 18.1385 57.079 18.3921C56.8654 18.6323 56.1247 19.6066 54.8568 21.3149L53.4755 23.397C53.3153 23.6239 53.2352 23.7773 53.2352 23.8574C53.2352 23.9108 53.3086 24.0576 53.4554 24.2979L54.6566 26.1196C55.9379 28.0549 56.8855 29.3161 57.4994 29.9033C57.793 30.1836 58.2668 30.4705 58.9208 30.7642C59.5347 31.0311 59.8417 31.4849 59.8417 32.1255C59.8417 33.033 59.2811 33.6603 58.16 34.0073C57.0389 34.341 54.9903 34.5078 52.014 34.5078C49.7318 34.5078 48.1369 34.401 47.2294 34.1875C46.0282 33.8939 45.4276 33.2733 45.4276 32.3257C45.4276 31.7651 45.7746 31.3247 46.4686 31.0044C46.8557 30.8309 47.0492 30.5373 47.0492 30.1235C47.0492 29.6831 46.7756 29.0825 46.2284 28.3218C45.6812 27.5477 45.2541 27.1673 44.9471 27.1807C44.6268 27.194 44.153 27.6745 43.5258 28.6221C42.8985 29.5697 42.5848 30.2837 42.5848 30.7642C42.5848 30.991 42.745 31.298 43.0653 31.6851C43.3456 32.0054 43.4857 32.3657 43.4857 32.7661C43.4857 33.9272 42.1177 34.5078 39.3817 34.5078C37.8869 34.5078 36.8125 34.361 36.1586 34.0674C35.5046 33.7738 35.1776 33.2933 35.1776 32.626C35.1776 32.1989 35.2777 31.8919 35.4779 31.7051C35.6915 31.5049 36.0785 31.3514 36.639 31.2446C37.2263 31.1379 37.6734 30.8976 37.9804 30.5239C38.2873 30.1502 39.2349 28.7088 40.8231 26.1997L42.2645 23.8174C42.398 23.6038 42.4647 23.4504 42.4647 23.3569C42.4647 23.2769 42.378 23.1234 42.2045 22.8965Z" fill="var(--fill-0, #FFF100)"/>
<path d="M71.642 14.2681C72.4561 14.2681 72.9633 14.3415 73.1635 14.4883C73.3637 14.6217 73.4638 14.9688 73.4638 15.5293C73.4638 16.0231 73.6239 16.27 73.9442 16.27C74.0777 16.27 74.5248 16.0164 75.2855 15.5093C75.8594 15.1222 76.5868 14.8019 77.4677 14.5483C78.3619 14.2814 79.1693 14.1479 79.89 14.1479C81.585 14.1479 83.0998 14.7352 84.4345 15.9097C85.4488 16.8039 86.2362 17.9316 86.7968 19.293C87.384 20.721 87.6776 22.2225 87.6776 23.7974C87.6776 27.1606 86.5432 29.93 84.2743 32.1055C82.5259 33.8005 80.5373 34.6479 78.3085 34.6479C77.1741 34.6479 76.0062 34.381 74.8051 33.8472C74.5648 33.7404 74.3713 33.687 74.2245 33.687C73.8241 33.687 73.6239 34.0874 73.6239 34.8882C73.6239 35.9425 73.9776 36.7033 74.685 37.1704C75.3389 37.6108 75.726 37.9045 75.8461 38.0513C75.9796 38.2114 76.0463 38.4717 76.0463 38.832C76.0463 39.6328 75.5992 40.2467 74.705 40.6738C73.8108 41.1143 72.5495 41.3345 70.9213 41.3345C68.0251 41.3345 65.4893 40.7539 63.3139 39.5928C62.2061 39.0055 61.6522 38.2782 61.6522 37.4106C61.6522 37.0103 61.7323 36.7033 61.8925 36.4897C62.066 36.2896 62.393 36.076 62.8734 35.8491C63.5674 35.5288 63.9879 34.9482 64.1347 34.1074C64.2948 33.2666 64.4149 30.8509 64.495 26.8604C64.4016 23.5771 64.2815 21.7354 64.1347 21.335C64.0813 21.2015 64.0012 21.1147 63.8944 21.0747C63.801 21.0347 63.474 20.9613 62.9135 20.8545C62.4864 20.7744 62.1394 20.5809 61.8725 20.2739C61.6055 19.9536 61.4721 19.5732 61.4721 19.1328C61.4721 18.599 61.6589 18.1318 62.0326 17.7314C62.4063 17.3177 63.0136 16.9173 63.8544 16.5303C67.1242 15.0488 69.7201 14.2948 71.642 14.2681ZM73.6239 21.8354L73.3236 27.3408C73.3103 27.5677 73.3036 27.7879 73.3036 28.0015C73.3036 28.4152 73.4838 28.7489 73.8441 29.0024C74.2045 29.256 74.685 29.3828 75.2855 29.3828C77.1273 29.3828 78.0482 27.868 78.0482 24.8384C78.0482 22.8765 77.6612 21.4951 76.8871 20.6943C76.4066 20.2005 75.8327 19.9536 75.1654 19.9536C74.2178 19.9536 73.704 20.5809 73.6239 21.8354Z" fill="var(--fill-0, #FFF100)"/>
<path d="M101.8 18.2319V24.6582C101.8 27.501 101.84 29.1559 101.92 29.623C102.014 30.0902 102.347 30.4505 102.921 30.7041C103.415 30.9176 103.742 31.1178 103.902 31.3047C104.076 31.4915 104.163 31.7585 104.163 32.1055C104.163 32.5459 104.002 32.9463 103.682 33.3066C103.375 33.667 102.961 33.9206 102.441 34.0674C101.48 34.361 99.8583 34.5078 97.5761 34.5078C95.0002 34.5078 93.1918 34.3143 92.1508 33.9272C91.6703 33.7537 91.2766 33.4868 90.9697 33.1265C90.6627 32.7528 90.5092 32.3657 90.5092 31.9653C90.5092 31.645 90.5893 31.3981 90.7494 31.2246C90.9229 31.0511 91.29 30.8442 91.8505 30.604C92.371 30.3771 92.6913 29.7565 92.8114 28.7422C93.025 27.0072 93.1318 24.5381 93.1318 21.335C93.1318 18.0785 93.0383 15.9831 92.8515 15.0488C92.6646 14.1146 92.1975 13.4206 91.4501 12.9668C90.8896 12.6465 90.5025 12.3462 90.289 12.0659C90.0888 11.7723 89.9887 11.4186 89.9887 11.0049C89.9887 10.3509 90.3023 9.78369 90.9296 9.30322C91.5569 8.80941 92.5579 8.35563 93.9325 7.94189C94.8534 7.66162 96.0479 7.39469 97.516 7.14111C98.9841 6.88753 100.052 6.76074 100.719 6.76074C101.774 6.76074 102.301 7.41471 102.301 8.72266C102.301 9.14974 102.234 10.1307 102.101 11.6655C101.927 14.0545 101.827 16.2433 101.8 18.2319Z" fill="var(--fill-0, #FFF100)"/>
<path d="M118.966 14.1479C121.408 14.1479 123.55 14.7819 125.392 16.0498C126.713 16.9574 127.774 18.1385 128.575 19.5933C129.403 21.1147 129.816 22.703 129.816 24.3579C129.816 27.2541 128.488 29.7165 125.832 31.7451C123.297 33.6803 120.394 34.6479 117.124 34.6479C113.934 34.6479 111.352 33.7404 109.376 31.9253C107.455 30.1636 106.494 27.868 106.494 25.0386C106.494 21.8888 107.668 19.313 110.017 17.311C112.473 15.2023 115.456 14.1479 118.966 14.1479ZM117.364 18.7725C116.777 18.7725 116.303 18.9927 115.943 19.4331C115.596 19.8602 115.422 20.4341 115.422 21.1548C115.422 21.9556 115.569 23.05 115.863 24.438C116.17 25.8127 116.53 27.0339 116.944 28.1016C117.358 29.196 118.032 29.7432 118.966 29.7432C120.154 29.7432 120.747 28.9891 120.747 27.481C120.747 26.3599 120.594 25.0853 120.287 23.6572C119.993 22.2292 119.633 21.068 119.206 20.1738C118.766 19.2663 118.152 18.7992 117.364 18.7725Z" fill="var(--fill-0, #FFF100)"/>
<path d="M141.857 14.2881C142.564 14.2881 142.991 14.3882 143.138 14.5884C143.298 14.7886 143.438 15.4292 143.559 16.5103C143.625 17.0975 143.832 17.3911 144.179 17.3911C144.446 17.3911 144.7 17.1976 144.94 16.8105C146.008 15.1423 147.402 14.3081 149.124 14.3081C150.339 14.3081 151.333 14.7018 152.107 15.4893C152.481 15.8763 152.788 16.3768 153.028 16.9907C153.268 17.5913 153.388 18.1719 153.388 18.7324C153.388 19.3597 153.241 20.007 152.948 20.6743C152.654 21.3283 152.274 21.8688 151.807 22.2959C150.952 23.11 149.905 23.5171 148.664 23.5171C147.983 23.5171 147.409 23.397 146.942 23.1567C146.488 22.9165 145.888 22.4294 145.14 21.6953C144.86 21.415 144.6 21.2749 144.359 21.2749C143.986 21.2749 143.739 21.4884 143.619 21.9155C143.512 22.3293 143.458 23.2101 143.458 24.5581C143.458 26.5734 143.532 27.9481 143.679 28.6821C143.772 29.0825 143.899 29.3628 144.059 29.5229C144.233 29.6698 144.593 29.8232 145.14 29.9834C146.341 30.3438 146.942 30.971 146.942 31.8652C146.942 32.4124 146.748 32.8929 146.361 33.3066C145.974 33.707 145.46 33.974 144.82 34.1074C143.539 34.3743 141.657 34.5078 139.174 34.5078C136.812 34.5078 135.017 34.3009 133.789 33.8872C132.695 33.5135 132.147 32.8662 132.147 31.9453C132.147 31.2513 132.548 30.6307 133.349 30.0835C133.736 29.8299 134.003 29.603 134.149 29.4028C134.296 29.1893 134.396 28.9023 134.45 28.542C134.663 27.3275 134.77 25.0786 134.77 21.7954C134.77 21.1948 134.703 20.7677 134.57 20.5142C134.436 20.2472 134.169 20.0337 133.769 19.8735C132.821 19.4998 132.348 18.9593 132.348 18.252C132.348 17.6113 132.675 17.0641 133.329 16.6104C133.983 16.1432 135.077 15.6828 136.612 15.229C138.667 14.6151 140.415 14.3014 141.857 14.2881Z" fill="var(--fill-0, #FFF100)"/>
<path d="M173.737 25.1387H164.328C163.914 25.1387 163.707 25.3188 163.707 25.6792C163.707 26.5467 164.174 27.3675 165.108 28.1416C166.056 28.9023 167.07 29.2827 168.151 29.2827C168.792 29.2827 169.499 29.1626 170.273 28.9224C171.061 28.6688 171.708 28.3618 172.215 28.0015C172.669 27.6812 173.029 27.521 173.296 27.521C173.643 27.521 173.984 27.7345 174.317 28.1616C174.651 28.5887 174.818 29.0291 174.818 29.4829C174.818 30.4438 174.217 31.3714 173.016 32.2656C170.894 33.8538 168.445 34.6479 165.669 34.6479C162.866 34.6479 160.517 33.8338 158.622 32.2056C157.701 31.4048 156.94 30.4372 156.34 29.3027C155.552 27.7946 155.159 26.2064 155.159 24.5381C155.159 22.2959 155.839 20.2806 157.201 18.4922C158.375 16.944 159.87 15.7896 161.685 15.0288C163.046 14.4549 164.521 14.168 166.109 14.168C168.645 14.168 170.801 14.8887 172.576 16.3301C173.47 17.0508 174.191 17.9049 174.738 18.8926C175.365 20.0137 175.679 21.1081 175.679 22.1758C175.679 23.0433 175.499 23.7573 175.138 24.3179C174.778 24.8651 174.311 25.1387 173.737 25.1387ZM164.848 21.395H166.87C167.724 21.395 168.151 21.0013 168.151 20.2139C168.151 19.4932 167.944 18.9059 167.531 18.4521C167.117 17.9984 166.576 17.7715 165.909 17.7715C165.162 17.7715 164.575 18.0651 164.147 18.6523C163.747 19.1995 163.547 19.7534 163.547 20.314C163.547 20.7144 163.64 20.9946 163.827 21.1548C164.027 21.3149 164.368 21.395 164.848 21.395Z" fill="var(--fill-0, #FFF100)"/>
<path d="M213.974 21.5552L214.254 28.6021C214.281 29.1359 214.361 29.5296 214.494 29.7832C214.641 30.0368 215.055 30.5239 215.735 31.2446C215.936 31.4582 216.036 31.7585 216.036 32.1455C216.036 33.0264 215.508 33.6403 214.454 33.9873C213.4 34.3343 211.518 34.5078 208.809 34.5078C206.967 34.5078 205.666 34.3477 204.905 34.0273C204.117 33.6937 203.724 33.1532 203.724 32.4058C203.724 32.1388 203.764 31.9453 203.844 31.8252C203.924 31.6917 204.191 31.3781 204.645 30.8843C205.178 30.3237 205.445 28.4552 205.445 25.2788C205.445 23.437 205.232 22.0757 204.805 21.1948C204.458 20.4875 203.817 20.1338 202.883 20.1338C201.989 20.1338 201.375 20.4207 201.041 20.9946C200.707 21.5685 200.541 22.6095 200.541 24.1177V28.0815C200.541 28.869 200.587 29.4095 200.681 29.7031C200.787 29.9967 201.121 30.564 201.682 31.4048C201.828 31.645 201.902 31.9186 201.902 32.2256C201.902 33.013 201.355 33.5936 200.26 33.9673C199.166 34.341 197.458 34.5278 195.135 34.5278C191.425 34.5278 189.57 33.7604 189.57 32.2256C189.57 31.9053 189.623 31.665 189.73 31.5049C189.85 31.3314 190.124 31.0911 190.551 30.7842C190.898 30.5306 191.118 30.2437 191.211 29.9233C191.305 29.5897 191.392 28.7822 191.472 27.501C191.565 25.9795 191.612 24.3846 191.612 22.7163C191.612 21.7954 191.538 21.1948 191.392 20.9146C191.258 20.6209 190.858 20.2673 190.19 19.8535C189.617 19.4932 189.33 19.0527 189.33 18.5322C189.33 17.9984 189.563 17.5646 190.03 17.231C190.497 16.884 191.458 16.4502 192.913 15.9297C194.194 15.4759 195.429 15.0955 196.617 14.7886C197.805 14.4683 198.619 14.3081 199.059 14.3081C199.459 14.3081 199.793 14.4549 200.06 14.7485C200.34 15.0422 200.48 15.3892 200.48 15.7896C200.48 15.8296 200.474 15.9964 200.46 16.29C200.447 16.3968 200.44 16.4902 200.44 16.5703C200.44 17.2109 200.707 17.5312 201.241 17.5312C201.562 17.5312 201.902 17.2777 202.262 16.7705C203.41 15.1156 205.078 14.2881 207.267 14.2881C208.949 14.2881 210.39 14.7285 211.591 15.6094C212.432 16.2367 213.019 16.9774 213.353 17.8315C213.687 18.6724 213.894 19.9136 213.974 21.5552Z" fill="var(--fill-0, #FFF100)"/>
<path d="M230.819 14.1479C233.261 14.1479 235.403 14.7819 237.245 16.0498C238.566 16.9574 239.627 18.1385 240.428 19.5933C241.256 21.1147 241.669 22.703 241.669 24.3579C241.669 27.2541 240.342 29.7165 237.686 31.7451C235.15 33.6803 232.247 34.6479 228.977 34.6479C225.787 34.6479 223.205 33.7404 221.23 31.9253C219.308 30.1636 218.347 27.868 218.347 25.0386C218.347 21.8888 219.521 19.313 221.87 17.311C224.326 15.2023 227.309 14.1479 230.819 14.1479ZM229.217 18.7725C228.63 18.7725 228.156 18.9927 227.796 19.4331C227.449 19.8602 227.275 20.4341 227.275 21.1548C227.275 21.9556 227.422 23.05 227.716 24.438C228.023 25.8127 228.383 27.0339 228.797 28.1016C229.211 29.196 229.885 29.7432 230.819 29.7432C232.007 29.7432 232.601 28.9891 232.601 27.481C232.601 26.3599 232.447 25.0853 232.14 23.6572C231.847 22.2292 231.486 21.068 231.059 20.1738C230.619 19.2663 230.005 18.7992 229.217 18.7725Z" fill="var(--fill-0, #FFF100)"/>
<path d="M252.369 14.168C253.036 14.168 254.124 14.3148 255.632 14.6084C255.939 14.6618 256.192 14.6885 256.393 14.6885C256.62 14.6885 257.06 14.5684 257.714 14.3281C258.021 14.208 258.281 14.1479 258.495 14.1479C259.109 14.1479 259.729 14.5417 260.357 15.3291C260.864 15.9564 261.277 16.6437 261.598 17.3911C261.918 18.1385 262.078 18.7858 262.078 19.333C262.078 19.8669 261.891 20.314 261.518 20.6743C261.144 21.0213 260.677 21.1948 260.116 21.1948C259.649 21.1948 259.229 21.0814 258.855 20.8545C258.495 20.6276 257.907 20.1271 257.093 19.353C256.239 18.5256 255.532 18.1118 254.971 18.1118C254.598 18.1118 254.271 18.252 253.99 18.5322C253.723 18.7992 253.59 19.1195 253.59 19.4932C253.59 20.1471 254.217 20.7611 255.472 21.335C257.727 22.3493 259.456 23.457 260.657 24.6582C261.671 25.6725 262.178 26.9137 262.178 28.3818C262.178 30.237 261.364 31.7852 259.736 33.0264C258.335 34.1074 256.62 34.6479 254.591 34.6479C254.07 34.6479 253.123 34.5612 251.748 34.3877C250.454 34.2409 249.726 34.1675 249.566 34.1675C249.392 34.1675 249.192 34.1875 248.965 34.2275C248.578 34.2809 248.298 34.3076 248.125 34.3076C247.497 34.3076 247.003 34.1475 246.643 33.8271C246.096 33.3333 245.589 32.5592 245.122 31.5049C244.655 30.4372 244.421 29.5229 244.421 28.7622C244.421 27.5343 244.901 26.9204 245.862 26.9204C246.236 26.9204 246.576 27.0472 246.883 27.3008C247.204 27.541 247.864 28.195 248.865 29.2627C249.412 29.8499 249.866 30.257 250.227 30.4839C250.587 30.6974 250.974 30.8042 251.388 30.8042C251.828 30.8042 252.182 30.6908 252.449 30.4639C252.716 30.2236 252.849 29.91 252.849 29.5229C252.849 28.9224 252.335 28.3752 251.308 27.8813C249.159 26.827 247.604 25.7393 246.643 24.6182C245.696 23.4971 245.222 22.2025 245.222 20.7344C245.222 19.1462 245.709 17.7782 246.683 16.6304C248.071 14.9888 249.966 14.168 252.369 14.168Z" fill="var(--fill-0, #FFF100)"/>
<path d="M273.138 14.168C273.805 14.168 274.893 14.3148 276.401 14.6084C276.708 14.6618 276.961 14.6885 277.162 14.6885C277.389 14.6885 277.829 14.5684 278.483 14.3281C278.79 14.208 279.05 14.1479 279.264 14.1479C279.878 14.1479 280.498 14.5417 281.126 15.3291C281.633 15.9564 282.046 16.6437 282.367 17.3911C282.687 18.1385 282.847 18.7858 282.847 19.333C282.847 19.8669 282.66 20.314 282.287 20.6743C281.913 21.0213 281.446 21.1948 280.885 21.1948C280.418 21.1948 279.998 21.0814 279.624 20.8545C279.264 20.6276 278.676 20.1271 277.862 19.353C277.008 18.5256 276.301 18.1118 275.74 18.1118C275.367 18.1118 275.04 18.252 274.759 18.5322C274.492 18.7992 274.359 19.1195 274.359 19.4932C274.359 20.1471 274.986 20.7611 276.241 21.335C278.496 22.3493 280.225 23.457 281.426 24.6582C282.44 25.6725 282.947 26.9137 282.947 28.3818C282.947 30.237 282.133 31.7852 280.505 33.0264C279.104 34.1074 277.389 34.6479 275.36 34.6479C274.839 34.6479 273.892 34.5612 272.517 34.3877C271.223 34.2409 270.495 34.1675 270.335 34.1675C270.162 34.1675 269.961 34.1875 269.734 34.2275C269.347 34.2809 269.067 34.3076 268.894 34.3076C268.266 34.3076 267.773 34.1475 267.412 33.8271C266.865 33.3333 266.358 32.5592 265.891 31.5049C265.424 30.4372 265.19 29.5229 265.19 28.7622C265.19 27.5343 265.67 26.9204 266.631 26.9204C267.005 26.9204 267.345 27.0472 267.652 27.3008C267.973 27.541 268.633 28.195 269.634 29.2627C270.182 29.8499 270.635 30.257 270.996 30.4839C271.356 30.6974 271.743 30.8042 272.157 30.8042C272.597 30.8042 272.951 30.6908 273.218 30.4639C273.485 30.2236 273.618 29.91 273.618 29.5229C273.618 28.9224 273.104 28.3752 272.077 27.8813C269.928 26.827 268.373 25.7393 267.412 24.6182C266.465 23.4971 265.991 22.2025 265.991 20.7344C265.991 19.1462 266.478 17.7782 267.452 16.6304C268.84 14.9888 270.735 14.168 273.138 14.168Z" fill="var(--fill-0, #FFF100)"/>
<path d="M297.33 14.1479C299.652 14.1479 301.621 14.7352 303.236 15.9097C304.09 16.5369 304.684 17.2576 305.018 18.0718C305.365 18.8726 305.538 19.9803 305.538 21.395L305.498 24.3779C305.498 26.4466 305.645 27.7879 305.939 28.4019C306.085 28.6955 306.226 28.8823 306.359 28.9624C306.492 29.0425 306.773 29.1159 307.2 29.1826C307.627 29.2493 307.84 29.5296 307.84 30.0234C307.84 30.6641 307.58 31.3314 307.06 32.0254C306.553 32.7194 305.892 33.3 305.078 33.7671C304.077 34.3543 303.029 34.6479 301.935 34.6479C300.533 34.6479 299.426 34.1675 298.611 33.2065C298.331 32.8595 298.071 32.686 297.831 32.686C297.564 32.686 297.21 32.8529 296.77 33.1865C295.435 34.1608 293.92 34.6479 292.225 34.6479C290.477 34.6479 289.062 34.2743 287.981 33.5269C287.274 33.033 286.713 32.3924 286.299 31.605C285.886 30.8042 285.679 29.9701 285.679 29.1025C285.679 27.7145 286.239 26.4867 287.36 25.4189C289.109 23.7373 291.725 22.8898 295.208 22.8765C295.982 22.8765 296.469 22.8031 296.67 22.6562C296.87 22.4961 296.97 22.1357 296.97 21.5752C296.97 20.1605 296.823 19.1395 296.529 18.5122C296.236 17.8716 295.755 17.5513 295.088 17.5513C294.688 17.5513 294.327 17.6714 294.007 17.9116C293.7 18.1519 293.313 18.5923 292.846 19.2329C291.658 20.9279 290.417 21.7754 289.122 21.7754C288.468 21.7754 287.934 21.5819 287.521 21.1948C287.107 20.8078 286.9 20.3006 286.9 19.6733C286.9 19.0327 287.154 18.3921 287.661 17.7515C288.181 17.1108 288.882 16.5503 289.763 16.0698C292.179 14.7886 294.701 14.1479 297.33 14.1479ZM295.989 25.7393C295.402 25.7393 294.888 25.9795 294.447 26.46C294.02 26.9404 293.807 27.5143 293.807 28.1816C293.807 28.8223 293.96 29.3428 294.267 29.7432C294.574 30.1302 294.981 30.3237 295.488 30.3237C296.556 30.3237 297.09 29.4229 297.09 27.6211C297.09 26.887 297.01 26.3932 296.85 26.1396C296.703 25.8861 296.416 25.7526 295.989 25.7393Z" fill="var(--fill-0, #FFF100)"/>
<path d="M318.4 14.168C319.067 14.168 320.155 14.3148 321.663 14.6084C321.97 14.6618 322.223 14.6885 322.423 14.6885C322.65 14.6885 323.091 14.5684 323.745 14.3281C324.052 14.208 324.312 14.1479 324.526 14.1479C325.139 14.1479 325.76 14.5417 326.387 15.3291C326.894 15.9564 327.308 16.6437 327.629 17.3911C327.949 18.1385 328.109 18.7858 328.109 19.333C328.109 19.8669 327.922 20.314 327.548 20.6743C327.175 21.0213 326.708 21.1948 326.147 21.1948C325.68 21.1948 325.26 21.0814 324.886 20.8545C324.526 20.6276 323.938 20.1271 323.124 19.353C322.27 18.5256 321.563 18.1118 321.002 18.1118C320.628 18.1118 320.301 18.252 320.021 18.5322C319.754 18.7992 319.621 19.1195 319.621 19.4932C319.621 20.1471 320.248 20.7611 321.503 21.335C323.758 22.3493 325.486 23.457 326.688 24.6582C327.702 25.6725 328.209 26.9137 328.209 28.3818C328.209 30.237 327.395 31.7852 325.767 33.0264C324.365 34.1074 322.65 34.6479 320.622 34.6479C320.101 34.6479 319.154 34.5612 317.779 34.3877C316.484 34.2409 315.757 34.1675 315.597 34.1675C315.423 34.1675 315.223 34.1875 314.996 34.2275C314.609 34.2809 314.329 34.3076 314.155 34.3076C313.528 34.3076 313.034 34.1475 312.674 33.8271C312.127 33.3333 311.62 32.5592 311.152 31.5049C310.685 30.4372 310.452 29.5229 310.452 28.7622C310.452 27.5343 310.932 26.9204 311.893 26.9204C312.267 26.9204 312.607 27.0472 312.914 27.3008C313.234 27.541 313.895 28.195 314.896 29.2627C315.443 29.8499 315.897 30.257 316.257 30.4839C316.618 30.6974 317.005 30.8042 317.419 30.8042C317.859 30.8042 318.213 30.6908 318.48 30.4639C318.747 30.2236 318.88 29.91 318.88 29.5229C318.88 28.9224 318.366 28.3752 317.339 27.8813C315.19 26.827 313.635 25.7393 312.674 24.6182C311.726 23.4971 311.253 22.2025 311.253 20.7344C311.253 19.1462 311.74 17.7782 312.714 16.6304C314.102 14.9888 315.997 14.168 318.4 14.168Z" fill="var(--fill-0, #FFF100)"/>
<path d="M58.3709 61.6572C61.1275 61.6572 63.7896 62.2614 66.3573 63.4697C67.5656 64.0361 68.4058 64.3193 68.8778 64.3193C69.2176 64.3193 69.7651 64.2344 70.5204 64.0645C70.7658 64.0078 71.0396 63.9795 71.3416 63.9795C72.3234 63.9795 73.1825 64.4326 73.9188 65.3389C75.7313 67.529 76.6375 70.2477 76.6375 73.4951C76.6375 75.7796 75.854 77.4505 74.287 78.5078C73.4373 79.0742 72.4839 79.3574 71.4266 79.3574C70.4637 79.3574 69.6802 79.1497 69.076 78.7344C68.4719 78.319 67.8866 77.5827 67.3202 76.5254C66.5083 75.0339 65.8475 73.9671 65.3377 73.3252C64.828 72.6644 64.2049 72.0697 63.4686 71.541C61.6372 70.2572 59.7209 69.6152 57.7196 69.6152C55.7749 69.6152 54.2267 70.3232 53.075 71.7393C51.9422 73.1364 51.3758 75.015 51.3758 77.375C51.3758 80.6224 52.1971 83.596 53.8397 86.2959C56.0676 89.902 59.2583 91.7051 63.412 91.7051C64.9413 91.7051 66.4517 91.4502 67.9432 90.9404C69.4536 90.4307 70.6242 89.7699 71.4549 88.958C72.1724 88.2783 72.7577 87.9385 73.2108 87.9385C73.8716 87.9385 74.438 88.25 74.91 88.873C75.382 89.4772 75.618 90.2135 75.618 91.082C75.618 92.1771 75.2876 93.4043 74.6268 94.7637C73.966 96.123 73.173 97.1898 72.2479 97.9639C71.8514 98.2848 71.0301 98.568 69.784 98.8135C69.0666 98.9456 68.1131 99.2949 66.9237 99.8613C64.1294 101.202 61.2219 101.872 58.201 101.872C55.048 101.872 51.9045 101.164 48.7704 99.748C45.1265 98.1055 42.2472 95.585 40.1327 92.1865C38.0558 88.8825 37.0174 85.4274 37.0174 81.8213C37.0174 77.6299 38.3202 73.8066 40.9256 70.3516C43.1913 67.3496 46.146 65.0557 49.7899 63.4697C52.5653 62.2614 55.4256 61.6572 58.3709 61.6572Z" fill="var(--fill-0, #FFF100)"/>
<path d="M97.7486 72.8721C101.204 72.8721 104.234 73.7689 106.839 75.5625C108.709 76.8464 110.21 78.5173 111.342 80.5752C112.513 82.7275 113.098 84.9743 113.098 87.3154C113.098 91.4124 111.22 94.8958 107.463 97.7656C103.875 100.503 99.7688 101.872 95.1432 101.872C90.6308 101.872 86.9775 100.588 84.1832 98.0205C81.4645 95.5283 80.1051 92.2809 80.1051 88.2783C80.1051 83.8226 81.7665 80.1787 85.0895 77.3467C88.5634 74.3636 92.7831 72.8721 97.7486 72.8721ZM95.483 79.4141C94.6523 79.4141 93.982 79.7256 93.4723 80.3486C92.9814 80.9528 92.7359 81.7646 92.7359 82.7842C92.7359 83.917 92.9436 85.4652 93.359 87.4287C93.7932 89.3734 94.303 91.1009 94.8883 92.6113C95.4736 94.1595 96.427 94.9336 97.7486 94.9336C99.429 94.9336 100.269 93.8669 100.269 91.7334C100.269 90.1475 100.052 88.3444 99.6178 86.3242C99.2024 84.304 98.6927 82.6615 98.0885 81.3965C97.4654 80.1126 96.5969 79.4518 95.483 79.4141Z" fill="var(--fill-0, #FFF100)"/>
<path d="M133.077 78.6494V87.7402C133.077 91.7617 133.133 94.1029 133.246 94.7637C133.379 95.4245 133.851 95.9342 134.662 96.293C135.361 96.5951 135.824 96.8783 136.05 97.1426C136.296 97.4069 136.418 97.7845 136.418 98.2754C136.418 98.8984 136.192 99.4648 135.739 99.9746C135.304 100.484 134.719 100.843 133.983 101.051C132.623 101.466 130.329 101.674 127.101 101.674C123.457 101.674 120.899 101.4 119.426 100.853C118.746 100.607 118.189 100.229 117.755 99.7197C117.321 99.1911 117.104 98.6436 117.104 98.0771C117.104 97.624 117.217 97.2747 117.444 97.0293C117.689 96.7839 118.208 96.4912 119.001 96.1514C119.738 95.8304 120.191 94.9525 120.361 93.5176C120.663 91.0632 120.814 87.5703 120.814 83.0391C120.814 78.4323 120.682 75.4681 120.417 74.1465C120.153 72.8249 119.492 71.8431 118.435 71.2012C117.642 70.748 117.094 70.3232 116.792 69.9268C116.509 69.5114 116.368 69.0111 116.368 68.4258C116.368 67.5007 116.811 66.6982 117.699 66.0186C118.586 65.32 120.002 64.6781 121.947 64.0928C123.249 63.6963 124.939 63.3187 127.016 62.96C129.093 62.6012 130.603 62.4219 131.547 62.4219C133.039 62.4219 133.785 63.347 133.785 65.1973C133.785 65.8014 133.69 67.1891 133.501 69.3604C133.256 72.7399 133.114 75.8363 133.077 78.6494Z" fill="var(--fill-0, #FFF100)"/>
<path d="M165.997 88.4199H152.687C152.101 88.4199 151.809 88.6748 151.809 89.1846C151.809 90.4118 152.47 91.5729 153.791 92.668C155.132 93.7441 156.567 94.2822 158.096 94.2822C159.002 94.2822 160.003 94.1123 161.098 93.7725C162.212 93.4137 163.127 92.9795 163.845 92.4697C164.487 92.0166 164.997 91.79 165.374 91.79C165.865 91.79 166.346 92.0921 166.818 92.6963C167.29 93.3005 167.526 93.9235 167.526 94.5654C167.526 95.9248 166.677 97.237 164.978 98.502C161.976 100.749 158.511 101.872 154.584 101.872C150.619 101.872 147.296 100.72 144.615 98.417C143.313 97.2842 142.236 95.9154 141.387 94.3105C140.273 92.1771 139.716 89.9303 139.716 87.5703C139.716 84.3984 140.679 81.5475 142.605 79.0176C144.266 76.8275 146.381 75.1943 148.948 74.1182C150.874 73.3063 152.96 72.9004 155.207 72.9004C158.794 72.9004 161.844 73.9199 164.355 75.959C165.62 76.9785 166.639 78.1868 167.413 79.584C168.301 81.1699 168.744 82.7181 168.744 84.2285C168.744 85.4557 168.489 86.4658 167.98 87.2588C167.47 88.0329 166.809 88.4199 165.997 88.4199ZM153.423 83.124H156.283C157.492 83.124 158.096 82.5671 158.096 81.4531C158.096 80.4336 157.803 79.6029 157.218 78.9609C156.633 78.319 155.868 77.998 154.924 77.998C153.867 77.998 153.036 78.4134 152.432 79.2441C151.865 80.0182 151.582 80.8018 151.582 81.5947C151.582 82.1611 151.714 82.5576 151.979 82.7842C152.262 83.0107 152.743 83.124 153.423 83.124Z" fill="var(--fill-0, #FFF100)"/>
<path d="M186.06 104.364L184.559 102.325C184.22 101.891 183.748 101.598 183.143 101.447C182.464 101.315 181.737 101.07 180.963 100.711C178.886 99.7858 177.045 98.3981 175.44 96.5479C173.288 94.0745 172.212 91.1104 172.212 87.6553C172.212 83.4072 173.836 79.8577 177.083 77.0068C180.236 74.2692 184.04 72.9004 188.496 72.9004C191.876 72.9004 194.868 73.7689 197.474 75.5059C199.834 77.0918 201.014 79.0931 201.014 81.5098C201.014 83.1146 200.447 84.4079 199.314 85.3896C198.2 86.3525 196.926 86.834 195.491 86.834C194.283 86.834 193.348 86.5225 192.687 85.8994C192.027 85.2764 191.451 84.1813 190.96 82.6143C190.431 80.8773 189.459 80.0088 188.043 80.0088C186.986 80.0088 186.089 80.4714 185.352 81.3965C184.635 82.3216 184.276 83.4639 184.276 84.8232C184.276 87.07 185.088 89.0524 186.712 90.7705C188.052 92.1865 189.761 92.8945 191.838 92.8945C192.725 92.8945 193.452 92.819 194.018 92.668C194.585 92.5169 195.434 92.1771 196.567 91.6484C196.832 91.5163 197.124 91.4502 197.445 91.4502C198.125 91.4502 198.71 91.7523 199.201 92.3564C199.692 92.9417 199.937 93.6403 199.937 94.4521C199.937 96.3024 198.654 98.0299 196.086 99.6348C194.141 100.862 191.989 101.598 189.629 101.844C189.364 101.863 189.232 101.976 189.232 102.184C189.232 102.297 189.346 102.457 189.572 102.665L192.093 104.959C193.244 106.016 193.82 106.951 193.82 107.763C193.82 108.726 193.244 109.528 192.093 110.17C190.96 110.812 189.553 111.133 187.873 111.133C186.193 111.133 184.88 110.784 183.936 110.085C183.238 109.575 182.889 108.98 182.889 108.301C182.889 107.772 183.153 107.31 183.682 106.913C184.21 106.535 184.928 106.281 185.834 106.148C186.363 106.073 186.627 105.865 186.627 105.525C186.627 105.242 186.438 104.855 186.06 104.364Z" fill="var(--fill-0, #FFF100)"/>
<path d="M222.125 72.8721C225.58 72.8721 228.61 73.7689 231.215 75.5625C233.085 76.8464 234.586 78.5173 235.718 80.5752C236.889 82.7275 237.474 84.9743 237.474 87.3154C237.474 91.4124 235.596 94.8958 231.839 97.7656C228.251 100.503 224.145 101.872 219.519 101.872C215.007 101.872 211.353 100.588 208.559 98.0205C205.84 95.5283 204.481 92.2809 204.481 88.2783C204.481 83.8226 206.143 80.1787 209.465 77.3467C212.939 74.3636 217.159 72.8721 222.125 72.8721ZM219.859 79.4141C219.028 79.4141 218.358 79.7256 217.848 80.3486C217.357 80.9528 217.112 81.7646 217.112 82.7842C217.112 83.917 217.32 85.4652 217.735 87.4287C218.169 89.3734 218.679 91.1009 219.264 92.6113C219.85 94.1595 220.803 94.9336 222.125 94.9336C223.805 94.9336 224.645 93.8669 224.645 91.7334C224.645 90.1475 224.428 88.3444 223.994 86.3242C223.578 84.304 223.069 82.6615 222.464 81.3965C221.841 80.1126 220.973 79.4518 219.859 79.4141ZM215.753 66.9531V67.7178C215.753 68.3975 215.498 68.945 214.988 69.3604C214.478 69.7568 213.808 69.9551 212.977 69.9551C212.033 69.9551 211.259 69.6436 210.655 69.0205C210.051 68.3975 209.749 67.5951 209.749 66.6133C209.749 65.4993 209.994 64.4609 210.485 63.498C210.919 62.7051 211.552 62.0726 212.382 61.6006C213.232 61.1286 214.176 60.8926 215.214 60.8926C216.215 60.8926 217.121 61.0342 217.933 61.3174C218.745 61.5817 220.265 62.2708 222.493 63.3848C223.531 63.9134 224.343 64.1777 224.928 64.1777C225.4 64.1777 225.693 63.8096 225.806 63.0732C225.901 62.3936 225.976 61.9782 226.033 61.8271C226.089 61.6761 226.241 61.5062 226.486 61.3174C227.015 60.902 227.694 60.6943 228.525 60.6943C230.979 60.6943 232.207 61.9404 232.207 64.4326C232.207 66.0563 231.725 67.3685 230.762 68.3691C229.818 69.3509 228.563 69.8418 226.996 69.8418C226.184 69.8418 225.438 69.7568 224.758 69.5869C224.098 69.3981 223.154 69.0205 221.926 68.4541C221.096 68.0765 220.199 67.6895 219.236 67.293C218.028 66.7832 217.405 66.5094 217.367 66.4717C216.989 66.3018 216.668 66.2168 216.404 66.2168C215.97 66.2168 215.753 66.4622 215.753 66.9531Z" fill="var(--fill-0, #FFF100)"/>
<path d="M267.45 88.4199H254.139C253.554 88.4199 253.261 88.6748 253.261 89.1846C253.261 90.4118 253.922 91.5729 255.244 92.668C256.584 93.7441 258.019 94.2822 259.548 94.2822C260.454 94.2822 261.455 94.1123 262.55 93.7725C263.664 93.4137 264.58 92.9795 265.297 92.4697C265.939 92.0166 266.449 91.79 266.827 91.79C267.317 91.79 267.799 92.0921 268.271 92.6963C268.743 93.3005 268.979 93.9235 268.979 94.5654C268.979 95.9248 268.129 97.237 266.43 98.502C263.428 100.749 259.964 101.872 256.037 101.872C252.072 101.872 248.749 100.72 246.068 98.417C244.765 97.2842 243.689 95.9154 242.839 94.3105C241.725 92.1771 241.168 89.9303 241.168 87.5703C241.168 84.3984 242.131 81.5475 244.057 79.0176C245.718 76.8275 247.833 75.1943 250.401 74.1182C252.327 73.3063 254.413 72.9004 256.66 72.9004C260.247 72.9004 263.296 73.9199 265.807 75.959C267.072 76.9785 268.092 78.1868 268.866 79.584C269.753 81.1699 270.197 82.7181 270.197 84.2285C270.197 85.4557 269.942 86.4658 269.432 87.2588C268.922 88.0329 268.261 88.4199 267.45 88.4199ZM254.875 83.124H257.736C258.944 83.124 259.548 82.5671 259.548 81.4531C259.548 80.4336 259.256 79.6029 258.67 78.9609C258.085 78.319 257.32 77.998 256.376 77.998C255.319 77.998 254.488 78.4134 253.884 79.2441C253.318 80.0182 253.035 80.8018 253.035 81.5947C253.035 82.1611 253.167 82.5576 253.431 82.7842C253.714 83.0107 254.196 83.124 254.875 83.124Z" fill="var(--fill-0, #FFF100)"/>
<path d="M285.106 72.9004C286.05 72.9004 287.588 73.1081 289.722 73.5234C290.156 73.599 290.515 73.6367 290.798 73.6367C291.119 73.6367 291.742 73.4668 292.667 73.127C293.101 72.957 293.47 72.8721 293.772 72.8721C294.64 72.8721 295.518 73.429 296.405 74.543C297.123 75.4303 297.708 76.4027 298.161 77.46C298.614 78.5173 298.841 79.4329 298.841 80.207C298.841 80.9622 298.577 81.5947 298.048 82.1045C297.519 82.5954 296.859 82.8408 296.066 82.8408C295.405 82.8408 294.81 82.6803 294.281 82.3594C293.772 82.0384 292.941 81.3304 291.789 80.2354C290.581 79.0648 289.58 78.4795 288.787 78.4795C288.259 78.4795 287.796 78.6777 287.4 79.0742C287.022 79.4518 286.833 79.9049 286.833 80.4336C286.833 81.3587 287.721 82.2272 289.495 83.0391C292.686 84.474 295.131 86.041 296.83 87.7402C298.265 89.1751 298.983 90.931 298.983 93.0078C298.983 95.6322 297.831 97.8223 295.527 99.5781C293.545 101.107 291.119 101.872 288.249 101.872C287.513 101.872 286.172 101.749 284.228 101.504C282.396 101.296 281.367 101.192 281.141 101.192C280.895 101.192 280.612 101.221 280.291 101.277C279.744 101.353 279.347 101.391 279.102 101.391C278.214 101.391 277.516 101.164 277.006 100.711C276.232 100.012 275.514 98.9173 274.854 97.4258C274.193 95.9154 273.862 94.6221 273.862 93.5459C273.862 91.8089 274.542 90.9404 275.902 90.9404C276.43 90.9404 276.912 91.1198 277.346 91.4785C277.799 91.8184 278.734 92.7435 280.15 94.2539C280.924 95.0846 281.566 95.6605 282.075 95.9814C282.585 96.2835 283.133 96.4346 283.718 96.4346C284.341 96.4346 284.841 96.2741 285.219 95.9531C285.597 95.6133 285.785 95.1696 285.785 94.6221C285.785 93.7725 285.058 92.9984 283.605 92.2998C280.565 90.8083 278.365 89.2695 277.006 87.6836C275.666 86.0977 274.995 84.2663 274.995 82.1895C274.995 79.9427 275.684 78.0075 277.063 76.3838C279.026 74.0615 281.707 72.9004 285.106 72.9004Z" fill="var(--fill-0, #FFF100)"/>
</g>
</svg>
