<svg preserveAspectRatio="none" width="100%" height="100%" overflow="visible" style="display: block;" viewBox="0 0 467.019 466.548" fill="none" xmlns="http://www.w3.org/2000/svg">
<path id="Star 10" d="M233.509 6.74468L250.805 41.5714L274.042 10.3927L284.841 47.7481L313.271 21.2194L317.227 59.9027L349.937 38.8768L346.922 77.6449L382.861 62.7975L372.973 100.404L410.985 92.2125L394.54 127.449L433.405 126.176L410.932 157.911L449.399 163.598L421.622 190.809L458.455 203.274L426.265 225.088L460.281 243.929L424.713 259.645L454.818 284.257L417.016 293.369L442.242 322.961L403.42 325.178L422.957 358.798L384.364 354.047L397.584 390.616L360.459 379.05L366.937 417.392L332.473 399.382L332.001 438.265L301.307 414.391L293.9 452.564L267.962 423.594L253.857 459.831L233.509 426.695L213.161 459.831L199.057 423.594L173.119 452.564L165.712 414.391L135.018 438.265L134.545 399.382L100.082 417.392L106.56 379.05L69.4349 390.616L82.6549 354.047L44.0612 358.798L63.5984 325.178L24.7765 322.961L50.003 293.369L12.2007 284.257L42.3056 259.645L6.73789 243.929L40.7536 225.088L8.56371 203.274L45.397 190.809L17.6195 163.598L56.0864 157.911L33.6141 126.176L72.4784 127.449L56.0336 92.2125L94.0461 100.404L84.1572 62.7975L120.096 77.6449L117.081 38.8768L149.791 59.9027L153.747 21.2194L182.178 47.7481L192.977 10.3927L216.213 41.5714L233.509 6.74468Z" fill="var(--fill-0, #E20000)" stroke="var(--stroke-0, #040468)" stroke-width="6"/>
</svg>
