<svg preserveAspectRatio="none" width="100%" height="100%" overflow="visible" style="display: block;" viewBox="0 0 497 409" fill="none" xmlns="http://www.w3.org/2000/svg">
<g id="Frame 56">
<path id="Vector (Stroke)" fill-rule="evenodd" clip-rule="evenodd" d="M403.069 12.7169C404.369 9.91937 406.582 7.4116 410.646 5C414.723 12.24 421.374 18.3886 427.666 23.9524C427.678 23.9628 427.689 23.9735 427.701 23.9837C432.46 28.0497 437.168 32.1511 441.798 36.2967C445.644 40.236 448.384 43.8972 449.828 48.4072C450.049 49.0977 450.614 49.677 451.378 49.9979C452.143 50.3187 453.036 50.3509 453.831 50.0869C457.62 48.8293 459.579 46.4685 460.536 43.9607C460.969 42.8268 461.204 41.6365 461.34 40.4909C470.249 45.3895 488.493 52.4903 493 60.464V339.85C490.716 335.289 475.907 331.026 472.113 327.248C471.389 326.527 470.243 326.206 469.146 326.417C468.117 326.614 467.294 327.247 466.968 328.077L466.91 328.245C464.367 336.684 460.138 346.402 453.307 353.915C447.188 360.643 439.089 365.509 428.188 366.253C429.369 360.787 430.604 353.749 425.611 347.96C424.987 347.236 423.949 346.845 422.886 346.932C421.822 347.02 420.894 347.573 420.452 348.385C417.787 353.272 414.254 357.854 409.009 360.842L408.954 360.874C403.042 364.407 397.177 367.988 391.366 371.626L391.314 371.659C382.442 377.469 375.078 383.605 369.007 391.14C365.969 387.26 364.551 383.54 364.104 379.739C363.538 374.925 364.508 369.844 366.076 363.876C367.308 359.188 366.345 355.074 364.726 350.925C364.394 350.076 363.545 349.438 362.498 349.252C361.516 349.079 360.499 349.328 359.786 349.908L359.648 350.028C352.548 356.623 344.448 360.963 334.255 363.511C335.647 360.284 335.982 357.408 335.436 354.615C334.678 350.742 332.246 347.314 329.738 343.779L329.569 343.541L329.543 343.504C329.284 343.138 328.918 342.835 328.481 342.621L328.29 342.535L327.836 342.353C318.274 338.638 306.724 341.04 299.291 346.328C295.461 349.053 292.526 352.672 291.519 356.866C290.839 359.701 291.067 362.692 292.364 365.706C283.4 364.362 276.439 361.404 270.852 355.6C270.234 354.958 269.278 354.611 268.295 354.672C267.373 354.729 266.538 355.137 266.027 355.774L265.93 355.904C263.504 359.366 261.248 363.054 261.031 367.561L261.017 367.999C260.907 373.892 260.21 378.715 258.205 383.069C256.586 386.586 254.06 389.907 250.087 393.267C245.936 386.529 240.292 381.215 233.036 376.071L232.956 376.018L229.306 373.613C225.65 371.215 221.98 368.832 218.299 366.463L218.284 366.453L217.909 366.208C214.073 363.646 211.715 360.103 210.495 356.178C210.245 355.373 209.531 354.724 208.591 354.447C207.709 354.187 206.736 354.287 205.959 354.71L205.807 354.799C199.751 358.556 198.703 364.528 198.355 369.255C195.769 368.603 192.765 367.478 189.493 365.969C184.842 363.824 179.906 361.028 175.261 358.109C170.623 355.195 166.323 352.188 162.947 349.644C159.502 347.046 157.204 345.065 156.413 344.176C155.526 343.178 154.128 343.146 152.787 343.253C152.781 343.254 152.776 343.254 152.771 343.255C151.641 343.345 150.431 343.422 149.623 344.183L149.423 344.394C149.003 344.887 147.647 346.901 146.012 349.613C144.327 352.41 142.232 356.14 140.331 360.18C138.435 364.207 136.696 368.616 135.77 372.754C135.201 375.298 134.902 377.894 135.158 380.299C125.65 378.653 118.317 375.334 112.413 369.231C111.867 368.668 111.056 368.33 110.189 368.304C109.322 368.278 108.483 368.567 107.891 369.097C104.034 372.545 102.991 376.07 102.881 379.53C102.717 384.668 102.278 388.533 100.601 391.802C99.2827 394.371 97.1123 396.725 93.2776 399C89.1969 391.753 82.5469 385.605 76.2594 380.046C76.2476 380.035 76.2351 380.025 76.2231 380.014C71.4637 375.948 66.7548 371.846 62.1248 367.7C58.2797 363.762 55.5396 360.1 54.0957 355.591C53.8747 354.9 53.3104 354.321 52.5456 354C51.8766 353.72 51.11 353.66 50.3961 353.826L50.0941 353.911C46.3054 355.169 44.3455 357.529 43.3879 360.036C42.9348 361.223 42.6952 362.471 42.5625 363.666C33.5785 359.472 24.7719 354.504 17.8325 348.824C9.8243 342.27 4.55853 334.984 4 327.031V59.5871C7.76102 57.255 12.7415 55.4303 19.2819 54.4904C20.6395 62.6886 25.4377 70.4024 31.8114 76.7503C32.5349 77.4708 33.6807 77.7916 34.7782 77.5813C35.8757 77.371 36.7395 76.665 37.0143 75.7531C39.5575 67.3141 43.7866 57.5958 50.6186 50.083C56.7367 43.3552 64.8346 38.4888 75.7349 37.7436C74.5535 43.2104 73.3203 50.249 78.3129 56.0381C78.9374 56.7621 79.9763 57.1543 81.0396 57.0666C82.1029 56.9789 83.0296 56.4247 83.4725 55.6128C86.1373 50.7264 89.6697 46.1438 94.9155 43.1561C94.9341 43.1455 94.9533 43.1348 94.9717 43.1238C100.883 39.5911 106.749 36.0101 112.559 32.3722C112.576 32.3614 112.593 32.3501 112.61 32.339C121.482 26.5289 128.846 20.3926 134.917 12.8567C137.956 16.737 139.374 20.4581 139.821 24.2594C140.387 29.0735 139.417 34.1542 137.848 40.1233C136.616 44.8107 137.58 48.9246 139.198 53.0727C139.53 53.9227 140.38 54.5604 141.428 54.7456C142.475 54.9307 143.561 54.6351 144.277 53.9703C151.377 47.375 159.476 43.0337 169.669 40.486C168.277 43.7136 167.942 46.5894 168.488 49.383C169.246 53.2569 171.679 56.6863 174.188 60.2222L174.354 60.4562L174.381 60.4934C174.677 60.9114 175.113 61.2484 175.635 61.4632C185.283 65.4349 197.083 63.043 204.635 57.6708C208.465 54.946 211.4 51.3266 212.406 47.1323C213.086 44.297 212.856 41.3052 211.558 38.2911C220.524 39.6348 227.485 42.5938 233.072 48.3984C233.69 49.04 234.646 49.387 235.629 49.3263C236.612 49.2655 237.498 48.8049 237.995 48.0944C240.499 44.5211 242.821 40.7066 242.908 36.0004C243.018 30.1067 243.716 25.2832 245.72 20.9294C247.339 17.4122 249.864 14.0914 253.837 10.7312C257.988 17.4692 263.633 22.7831 270.889 27.9267C270.915 27.945 270.941 27.9629 270.968 27.9805C275.828 31.1937 280.725 34.3808 285.634 37.5402C289.691 40.1194 292.171 43.7687 293.43 47.8196C293.68 48.6253 294.395 49.2744 295.335 49.5511C296.275 49.8278 297.319 49.6956 298.119 49.1992C304.174 45.4419 305.221 39.4688 305.569 34.7421C308.155 35.394 311.159 36.5201 314.431 38.0291C319.082 40.1742 324.018 42.9703 328.663 45.8887C333.301 48.8031 337.602 51.8107 340.977 54.3555C344.423 56.9537 346.722 58.9342 347.512 59.8227C348.142 60.5307 349.172 60.9094 350.222 60.8199C350.51 60.7954 350.749 60.776 350.974 60.758L351.275 60.7339C351.596 60.7081 351.925 60.6812 352.362 60.6439C353.222 60.5708 354.001 60.1915 354.501 59.6037C354.921 59.1109 356.277 57.0972 357.912 54.3848C359.597 51.5884 361.692 47.8583 363.594 43.818C365.489 39.7908 367.228 35.3825 368.154 31.244C368.723 28.6997 369.021 26.1039 368.765 23.6982C378.273 25.3437 385.606 28.6634 391.512 34.7666C392.057 35.3302 392.869 35.6685 393.736 35.6944C394.603 35.7203 395.441 35.431 396.033 34.9015C399.89 31.4527 400.933 27.9277 401.043 24.4677C401.198 19.6066 401.599 15.8827 403.069 12.7169Z" fill="var(--fill-0, #E20000)" stroke="var(--stroke-0, #0000CC)" stroke-width="8" stroke-linejoin="round"/>
</g>
</svg>
