<svg preserveAspectRatio="none" width="100%" height="100%" overflow="visible" style="display: block;" viewBox="0 0 175.131 179.91" fill="none" xmlns="http://www.w3.org/2000/svg">
<g id="Logo">
<g id="Logo_2">
<path d="M175.083 119.137C175.139 123.301 170.545 123.967 167.084 123.333C166.064 123.365 164.977 122.582 164.126 122.181C160.653 150.401 135.96 173.209 103.963 178.674C103.683 178.716 103.391 178.769 103.111 178.811C102.831 178.853 102.562 178.895 102.293 178.938C101.845 179.012 101.397 179.075 100.949 179.128C100.534 179.181 100.12 179.234 99.6941 179.287C99.6381 179.287 99.5821 179.297 99.5261 179.308C99.19 179.35 98.8426 179.392 98.5065 179.424C97.6775 179.519 96.8372 179.593 95.9969 179.656C94.5965 179.762 93.1736 179.847 91.7396 179.878L89.9358 179.91C89.6781 179.91 89.4092 179.91 89.1516 179.91C87.5719 179.91 86.0146 179.868 84.4685 179.783C84.1324 179.762 83.8075 179.752 83.4714 179.73C82.8888 179.688 82.3062 179.646 81.7236 179.604C81.4995 179.582 81.2867 179.572 81.0626 179.54C80.8049 179.519 80.5472 179.498 80.2895 179.466C80.0767 179.445 79.8526 179.424 79.6397 179.403C78.4858 179.276 77.3542 179.139 76.2226 178.969C76.1218 178.959 76.021 178.938 75.9089 178.917C48.7403 174.805 26.6021 158.233 17.8073 136.344C15.9699 137.401 13.8076 137.961 11.5445 137.876C8.87801 137.781 6.0323 137.707 3.57872 137.39C0.632185 137.009 -0.936314 133.892 0.598574 131.492C3.46669 127.011 8.217 122.255 10.5922 114.846C13.0793 108.187 11.9702 98.2414 16.2163 98.7698C16.3172 98.7804 16.418 98.8015 16.53 98.8227C16.4852 98.6324 16.4292 98.4422 16.3844 98.2519C13.7628 87.4713 18.5019 76.6272 27.9913 70.1588C28.4282 68.6051 28.966 67.062 29.515 65.5189L32.3943 57.4651L33.7611 53.6285L38.1305 54.8334C39.6542 55.2561 40.8978 55.7212 41.8949 56.2602C43.8555 51.1764 44.4941 45.8495 45.1552 40.2901L45.2672 39.3811L45.7153 35.6713L49.9727 35.7875C53.8155 35.8932 57.5799 37.225 60.5713 39.5502C60.7841 39.7088 60.9858 39.8779 61.1763 40.047C62.1622 38.2291 62.9912 36.0518 63.6074 33.642C64.907 28.537 64.8174 24.0028 64.1788 21.9524L62.263 15.7694L69.4445 16.9425C74.094 17.7035 77.5335 19.2995 80.1439 21.2231C80.3232 18.4857 80.5472 15.6637 81.6788 12.7888C83.0792 9.25868 85.6224 6.29928 89.4541 3.70981L94.955 0L96.6691 5.89765C97.8119 9.82942 100.12 13.5921 103.929 17.7247L110.013 24.3305L110.394 20.9272L115.861 22.5654C119.748 23.728 123.121 25.7467 125.843 28.5687C128.095 30.8834 129.921 33.7688 131.277 37.1087C132.353 39.7827 133.036 42.5307 133.462 45.0568C133.652 44.7291 133.809 44.4015 133.943 44.0527L135.994 38.7047L141.08 42.1608C147.657 46.6105 150.289 53.1529 148.71 61.0692C148.396 62.6229 147.937 64.1555 147.376 65.6563L148.385 70.9726C148.643 72.3572 148.889 74.0906 148.945 76.0036C150.962 78.2549 152.821 80.6224 154.48 83.085C164.843 83.8249 169.728 97.0048 163.745 105.968C163.779 106.137 163.801 106.295 163.835 106.464C175.923 106.337 175.217 108.356 175.072 119.116L175.083 119.137Z" fill="#FFCE00"/>
<path fill-rule="evenodd" clip-rule="evenodd" d="M79.6727 179.407L79.6609 179.406C79.6496 179.405 79.6382 179.404 79.6294 179.403C78.4953 179.278 77.383 179.143 76.271 178.978L76.2123 178.969C76.1591 178.964 76.0964 178.952 76.0433 178.942L76.0269 178.939L75.9842 178.931L75.9657 178.927C75.9567 178.925 75.9477 178.924 75.9387 178.922L75.9247 178.92L75.9089 178.917C48.7403 174.805 26.6029 158.243 17.8081 136.354C15.9707 137.411 13.8076 137.971 11.5445 137.876C11.2876 137.867 11.0299 137.858 10.7702 137.849C8.33417 137.764 5.79593 137.676 3.57872 137.39C2.10402 137.205 0.973678 136.323 0.405636 135.192C0.025031 134.435 -0.102655 133.568 0.0864287 132.716C0.154059 132.412 0.262225 132.109 0.413825 131.815C0.427634 131.788 0.441797 131.761 0.456331 131.734C0.500735 131.653 0.54731 131.572 0.598574 131.492C1.3837 130.263 2.31242 129.016 3.2923 127.699L3.34016 127.635C3.3425 127.632 3.34437 127.628 3.34626 127.625C3.34814 127.621 3.35004 127.618 3.35237 127.615L3.36846 127.593C4.81592 125.648 6.37585 123.551 7.76707 121.145C8.55568 119.781 9.28945 118.318 9.91945 116.727C9.94707 116.657 9.9744 116.587 10.0016 116.517L10.0067 116.504C10.0927 116.282 10.1765 116.057 10.2582 115.83C10.3743 115.507 10.4853 115.179 10.5922 114.846C11.0945 113.501 11.4512 112.021 11.7339 110.521C11.7521 110.424 11.7718 110.318 11.7895 110.221C12.0009 109.059 12.1721 107.886 12.3362 106.76C12.9959 102.238 13.5494 98.4379 16.2163 98.7698L16.2308 98.7807L16.262 98.7843C16.343 98.7937 16.4318 98.8041 16.53 98.8227C16.5076 98.7275 16.4833 98.6324 16.4581 98.5373C16.4495 98.5052 16.441 98.4742 16.4326 98.4437C16.4161 98.3838 16.4001 98.3255 16.3852 98.2625C16.2789 97.8249 16.1847 97.3871 16.1024 96.9496C16.0842 96.8528 16.0666 96.7559 16.0495 96.6591C16.0336 96.5683 16.0181 96.4776 16.0031 96.3868C15.7784 95.0215 15.669 93.6575 15.6694 92.3104L15.6695 92.2916C15.682 83.9677 19.8917 76.1029 27.054 70.8238C27.3613 70.5973 27.6732 70.3756 27.9913 70.1588C28.4282 68.6051 28.9548 67.062 29.515 65.5189L32.3943 57.4651L33.7611 53.6285L38.1305 54.8334C39.6542 55.2561 40.8978 55.7212 41.8949 56.2602C43.8555 51.1764 44.4941 45.8495 45.1552 40.2901L45.2672 39.3811L45.7153 35.6713L49.9727 35.7875C53.8155 35.8932 57.5799 37.225 60.5713 39.5502C60.7841 39.7088 60.9858 39.8779 61.1763 40.047C62.1622 38.2291 62.9912 36.0518 63.6074 33.642C64.907 28.537 64.8174 24.0028 64.1788 21.9524L62.263 15.7694L69.4445 16.9425C74.094 17.7035 77.5335 19.2995 80.1439 21.2231C80.3232 18.4857 80.548 15.6531 81.6796 12.7783C82.3798 11.0184 83.3658 9.39599 84.6556 7.89117C85.9455 6.38639 87.5383 4.99925 89.4541 3.70981L94.955 0L96.6691 5.89765C97.8119 9.82942 100.132 13.5921 103.941 17.7247L110.014 24.3291L110.025 24.341L110.394 20.9272L110.405 20.9304L115.873 22.5654C119.761 23.728 123.11 25.7467 125.843 28.5687C126.704 29.4577 127.51 30.4305 128.244 31.4759C129.427 33.1616 130.441 35.0442 131.277 37.1087C132.353 39.7827 133.036 42.5307 133.462 45.0568L133.47 45.0442L133.474 45.0674C133.664 44.7397 133.821 44.4015 133.955 44.0633L136.006 38.7152L141.092 42.1608C147.669 46.621 150.301 53.1529 148.722 61.0692C148.408 62.6229 147.949 64.1555 147.389 65.6563L148.385 70.9726C148.643 72.3572 148.889 74.0906 148.945 76.0036C150.033 77.2179 151.076 78.4659 152.065 79.7445C152.107 79.7993 152.15 79.8542 152.192 79.9092C152.402 80.1822 152.609 80.4563 152.814 80.7321L152.861 80.7946C152.975 80.949 153.089 81.1039 153.202 81.2592C153.64 81.8617 154.066 82.4704 154.48 83.085L154.492 83.0956C157.839 83.338 160.617 84.8764 162.64 87.1503C166.868 91.9171 167.791 99.9065 163.745 105.968C163.749 105.987 163.753 106.006 163.757 106.026C163.763 106.058 163.769 106.09 163.774 106.122C163.78 106.154 163.786 106.186 163.791 106.218C163.793 106.233 163.796 106.248 163.799 106.263L163.81 106.329C163.817 106.366 163.824 106.404 163.831 106.442L163.835 106.464C170.694 106.398 173.438 107.023 174.502 109.542C175.161 111.121 175.164 113.445 175.11 116.809L175.1 117.387L175.098 117.488C175.089 118.007 175.079 118.549 175.072 119.116L175.083 119.137C175.086 119.397 175.073 119.644 175.041 119.877C174.914 120.824 174.511 121.556 173.926 122.106C172.349 123.592 169.451 123.767 167.084 123.333C166.314 123.357 165.507 122.917 164.791 122.527C164.558 122.401 164.335 122.279 164.126 122.181C160.653 150.401 135.96 173.209 103.963 178.674C103.823 178.695 103.681 178.718 103.538 178.742C103.395 178.766 103.251 178.79 103.111 178.811C102.831 178.853 102.562 178.895 102.293 178.938C101.987 178.98 101.692 179.022 101.395 179.065L101.223 179.089L100.949 179.128L99.6941 179.287C99.65 179.287 99.6066 179.293 99.5624 179.301L99.5261 179.308C99.19 179.35 98.8426 179.392 98.5065 179.424C97.6663 179.508 96.8372 179.582 95.9969 179.656C94.5853 179.762 93.1624 179.836 91.7396 179.878L89.9142 179.91H89.1516C87.5719 179.91 86.0146 179.868 84.4685 179.783C84.3004 179.773 84.136 179.765 83.9707 179.757C83.9534 179.756 83.936 179.755 83.9187 179.754L83.8961 179.753C83.8232 179.749 83.7505 179.745 83.6785 179.742C83.6051 179.738 83.5325 179.735 83.461 179.73L81.7058 179.603C81.6397 179.597 81.5747 179.59 81.51 179.585C81.3618 179.573 81.2141 179.562 81.0626 179.54C80.9966 179.535 80.9314 179.529 80.8654 179.524C80.8457 179.521 80.8259 179.52 80.8061 179.518L80.7657 179.515L80.738 179.513C80.5864 179.495 80.4356 179.479 80.2895 179.466C80.217 179.459 80.1465 179.454 80.0755 179.448C79.962 179.439 79.8614 179.428 79.7498 179.415C79.7523 179.415 79.7473 179.414 79.7498 179.415C79.7474 179.414 79.7374 179.413 79.735 179.413C79.7281 179.412 79.721 179.412 79.714 179.411L79.6885 179.409L79.6727 179.407ZM153.114 138.056C154.884 134.462 156.224 130.767 157.109 126.994C156.595 127.132 156.064 127.264 155.542 127.389C154.269 127.695 153.01 127.997 151.937 128.469C148.632 129.336 145.428 126.43 143.635 124.094C142.966 124.734 133.372 124.763 129.408 124.775C128.395 124.779 127.749 124.781 127.715 124.791C125.962 125.394 125.316 125.687 124.835 125.906C124.032 126.271 123.685 126.429 119.436 127.465L118.808 132.634H108.803C109.274 133.088 109.745 133.532 110.215 133.965C111.302 134.991 112.064 136.111 112.601 137.274C113.512 139.192 113.818 141.183 114.085 142.927L114.092 142.97C114.327 144.514 114.562 145.972 115.111 147.04L115.118 147.053C116.016 148.789 117.673 151.995 116.321 155.432C115.727 156.922 114.775 158.803 113.016 159.628C112.971 161.995 112.445 164.733 110.002 166.878C109.196 167.597 108.803 168.527 108.198 170.123L108.075 170.44C107.862 171 107.627 171.56 107.381 172.121C107.643 172.066 107.905 172.001 108.163 171.937L108.325 171.896L108.445 171.867C108.471 171.862 108.497 171.857 108.525 171.851C108.538 171.848 108.55 171.845 108.564 171.842C108.584 171.837 108.601 171.832 108.624 171.825C108.629 171.823 108.638 171.821 108.646 171.819C108.654 171.817 108.663 171.815 108.669 171.814C108.678 171.813 108.687 171.811 108.694 171.81C108.702 171.808 108.708 171.806 108.714 171.803L108.75 171.794L108.887 171.759L109.119 171.701L109.314 171.652L109.464 171.613C109.503 171.604 109.541 171.593 109.581 171.582L109.61 171.574L109.64 171.565L109.663 171.559C109.69 171.552 109.717 171.545 109.745 171.539L109.798 171.525L109.854 171.509L109.901 171.497C109.967 171.479 110.035 171.461 110.103 171.443C110.292 171.394 110.483 171.344 110.674 171.286L110.785 171.255C110.899 171.222 111.011 171.19 111.124 171.158L111.332 171.099L111.454 171.065L111.574 171.031C111.786 170.968 111.998 170.905 112.198 170.842C112.467 170.768 112.736 170.683 113.005 170.599C113.285 170.514 113.576 170.419 113.867 170.324C113.952 170.297 114.032 170.271 114.113 170.245C114.17 170.226 114.23 170.207 114.29 170.188L114.36 170.165C114.433 170.139 114.506 170.115 114.579 170.091C114.652 170.067 114.725 170.044 114.797 170.017C114.999 169.954 115.212 169.88 115.414 169.806C115.705 169.7 116.007 169.594 116.31 169.489C124.578 166.487 132.006 162.207 138.37 156.753C144.7 151.341 149.652 145.053 153.114 138.056ZM75.7571 133.219L75.7693 133.209L75.8299 133.163C75.8701 133.133 75.9122 133.1 75.9521 133.069C76.0304 133.008 76.1116 132.945 76.1898 132.887C76.1898 132.887 76.2123 132.877 76.2123 132.866C76.2845 132.819 76.3522 132.766 76.4181 132.716L76.4493 132.692L76.4831 132.666L76.5063 132.648L76.526 132.634C76.526 132.634 64.6726 132.338 64.6166 132.338C58.4048 132.09 60.0192 125.681 61.0266 121.682C61.0912 121.425 61.1533 121.179 61.2107 120.944C54.1749 125.309 42.3439 130.118 35.7786 121.991C24.0803 125.868 23.722 127.04 22.836 129.938C22.7971 130.065 22.7571 130.196 22.7152 130.33C22.6144 130.647 22.5024 130.964 22.3679 131.27C23.1298 133.564 24.0597 135.836 25.1576 138.056C28.6083 145.053 33.5715 151.341 39.8903 156.753C46.2539 162.207 53.6819 166.487 61.9501 169.489C62.143 169.554 62.3384 169.624 62.5287 169.692L62.6445 169.733C62.7237 169.761 62.8028 169.789 62.88 169.816L63.8211 170.134C64.1236 170.239 64.4373 170.345 64.751 170.44L65.5577 170.694C65.6025 170.704 65.6361 170.715 65.6921 170.736C65.9834 170.821 66.2747 170.905 66.5548 170.99C66.7263 171.046 66.8979 171.093 67.0695 171.14C67.1553 171.163 67.242 171.187 67.3278 171.212C67.7311 171.328 68.1345 171.434 68.5378 171.539C68.7388 171.6 68.9444 171.652 69.1486 171.704C69.2628 171.733 69.3778 171.763 69.4901 171.793C69.6514 171.83 69.8124 171.87 69.9709 171.909C70.1297 171.948 70.292 171.989 70.4536 172.025L70.5373 172.045L70.6964 172.081L70.8744 172.122L70.9339 172.136C71.094 172.173 71.2542 172.21 71.4172 172.247L72.1566 172.406C72.2126 172.427 72.2686 172.438 72.3246 172.438C72.3556 172.452 72.3812 172.457 72.4088 172.462C72.4212 172.464 72.434 172.466 72.4479 172.469L72.6159 172.501C72.8624 172.554 73.1089 172.607 73.3554 172.649C73.6803 172.723 74.0051 172.786 74.33 172.839C74.5989 172.892 74.879 172.945 75.1479 172.987C75.1927 173.008 75.2376 173.008 75.2712 173.008C73.6018 172.089 72.1453 170.789 70.7225 168.908C67.3614 164.479 69.4789 159.511 71.025 155.886L71.0698 155.77L72.0221 153.519C72.0109 153.434 71.9997 153.35 71.9997 153.254C71.9213 152.472 71.9661 151.68 72.1453 150.866L72.1587 150.81L72.1652 150.784L72.179 150.728L72.1904 150.682L72.2024 150.633L72.2126 150.591C71.8877 150.549 71.5852 150.485 71.2827 150.401C70.1735 150.105 69.2773 149.545 68.6163 148.741C68.0225 148.001 67.1374 146.427 67.9889 144.101C68.2129 143.467 68.4706 142.844 68.7507 142.231C69.8822 139.789 71.4395 137.496 73.2657 135.54C73.8819 134.885 74.5205 134.272 75.1815 133.701C75.3607 133.543 75.5398 133.395 75.7189 133.247L75.7571 133.219ZM33.8852 66.7238L36.7645 58.6806C38.1201 59.0505 39.6438 59.6001 40.316 60.266L43.397 63.3099C47.8687 56.0464 48.7891 48.4148 49.7046 40.8232C49.7456 40.4833 49.7866 40.1435 49.8279 39.8039C53.6707 39.9096 56.9421 41.7169 58.8692 43.7779C59.082 44.0104 59.2837 44.243 59.4629 44.4755C60.236 45.4901 60.6729 46.5048 60.6953 47.3926C67.8992 42.1185 70.5544 27.1842 68.605 20.8954C76.1674 22.1321 79.6629 25.9264 82.2174 29.8688C83.8867 27.8078 84.4021 25.7785 84.5589 23.6646C84.6077 23.0518 84.6467 22.4442 84.6853 21.8417C85.0288 16.4895 85.3469 11.5385 92.2448 6.90258C92.3568 7.27222 92.4687 7.64187 92.5919 8.01151C93.9923 12.0807 96.4123 15.7905 99.6165 19.4157C99.6389 19.4475 99.6725 19.4792 99.7061 19.5109L99.7579 19.5695C99.9632 19.8021 100.161 20.0264 100.378 20.2507L107.056 27.5224L107.112 27.5752C108.21 28.7801 108.994 30.0167 109.588 31.285C110.249 32.733 110.652 34.2233 110.955 35.777C113.789 33.8671 114.076 30.2355 114.287 27.5759C114.321 27.1447 114.353 26.739 114.394 26.3703C118.147 27.4907 120.993 29.52 123.144 32.0249C125.284 34.5087 126.729 37.4681 127.704 40.4909C128.191 42.0036 128.856 43.7184 129.531 45.4617C130.952 49.1267 132.421 52.9182 132.398 55.2244C135.997 53.653 136.83 50.5195 137.576 47.7137C137.799 46.8774 138.013 46.0702 138.291 45.3422C139.367 46.0715 140.274 46.843 141.047 47.6674L141.07 47.6885C142.627 49.3374 143.602 51.1658 144.117 53.0894C145.249 57.2749 144.218 61.9359 142.224 66.3645C140.846 65.7303 138.986 65.4449 137.014 65.4449H136.857C133.989 65.4449 130.908 66.0368 128.679 66.988C128.062 67.2628 127.513 67.5588 127.043 67.8758C126.908 67.9815 126.774 68.0555 126.628 68.0978L127.625 59.7904L128.32 54.0935H53.3346L55.9226 71.7653C55.4857 71.9027 55.0487 72.0613 54.6006 72.2304C54.5484 72.0413 54.4968 71.8475 54.4442 71.6503C53.933 69.7309 53.3345 67.4841 51.2619 66.0368C49.9511 65.1278 48.0689 64.536 45.2456 64.536C44.3605 64.536 43.3746 64.5888 42.2991 64.7156C41.7277 64.7791 41.1339 64.8636 40.5065 64.9693C38.1201 65.4555 35.8682 66.1531 33.7731 67.0303C33.7814 67.007 33.7896 66.9831 33.798 66.9586C33.8239 66.8834 33.8514 66.8036 33.8852 66.7238Z" fill="#070760"/>
<path d="M126.602 73.2454C126.253 72.2486 125.804 71.2836 125.277 70.3823C124.536 69.1098 123.783 68.0176 123.087 67.1587C122.975 67.0208 122.874 66.8936 122.773 66.7663L122.56 66.533C122.088 66.0135 121.504 65.4727 120.797 64.9212C118.821 63.617 116.463 62.0582 114.139 63.7336C113.23 64.3698 112.477 65.0379 111.86 65.7165C111.242 66.3846 110.737 67.2859 110.176 68.3039C109.962 68.6751 109.794 69.078 109.682 69.481C109.614 69.6824 109.569 69.8945 109.525 70.1066C109.513 70.1384 109.513 70.1808 109.502 70.2126V70.2338C109.457 70.4035 109.435 70.5626 109.412 70.7322C109.412 70.764 109.401 70.7852 109.401 70.817C109.311 71.4215 109.266 72.0259 109.255 72.6303C109.255 72.8318 109.244 73.0227 109.244 73.2241V73.3196C109.244 73.3196 109.255 73.3302 109.278 73.3514C109.311 73.362 109.356 73.4044 109.424 73.4786C109.457 73.4998 109.491 73.5317 109.536 73.5847C109.569 73.6165 109.614 73.6589 109.659 73.7013C110.153 74.1891 110.917 74.995 110.95 74.9314C110.973 74.8678 111.007 74.7299 111.063 74.5603C111.085 74.4648 111.119 74.3482 111.141 74.2315C111.164 74.1467 111.186 74.0513 111.22 73.9664C111.276 73.7649 111.321 73.5847 111.366 73.4786C113.87 78.2186 115.924 83.0964 117.766 88.0909C117.485 88.2712 116.935 88.5787 116.654 88.7483C116.834 89.2997 117.081 89.8087 117.26 90.3601C117.283 90.3495 117.294 90.3389 117.316 90.3283C117.485 90.7843 117.676 91.2085 117.822 91.675C117.844 91.6538 117.867 91.6432 117.889 91.6326C117.934 91.6114 117.979 91.5796 118.013 91.5584C119.135 90.9752 120.438 90.2753 121.605 89.6073C122.032 89.374 122.425 89.1513 122.784 88.9392C122.728 88.8438 122.672 88.7483 122.605 88.6529C122.425 88.3772 122.234 88.0909 122.066 87.847C122.93 87.8258 123.806 87.5183 124.682 86.9245C124.85 86.7972 125.018 86.6806 125.187 86.5427C125.456 86.3094 125.703 86.0549 125.928 85.7686C126.95 84.4749 127.387 82.7465 127.533 81.2195C127.78 78.4519 127.41 75.9706 126.602 73.2454ZM123.289 80.2864C122.941 82.386 121.538 85.0157 120.999 85.599C120.977 85.5247 116.295 74.1467 114.15 70.1702C114.768 69.7036 115.183 69.4173 115.363 69.3113C115.879 68.9295 116.474 68.7387 117.137 68.7175C117.732 68.6857 118.293 68.8129 118.81 69.078C118.855 69.0992 118.922 69.1204 118.967 69.1522C119.831 69.7036 120.774 70.817 121.695 72.4288C121.695 72.4395 121.706 72.4501 121.706 72.4501C122.133 73.1711 122.425 73.8392 122.627 74.4542C123.177 76.3735 123.626 78.2928 123.289 80.2864ZM168.536 108.323C168.379 108.323 168.132 108.323 167.851 108.313C167.773 108.313 167.683 108.313 167.604 108.302C167.424 108.302 167.234 108.291 167.054 108.291C166.964 108.291 166.874 108.291 166.773 108.291C166.728 108.291 166.683 108.291 166.639 108.281C166.549 108.281 166.459 108.281 166.369 108.27H166.111C165.976 108.26 165.853 108.26 165.74 108.26C165.684 108.249 165.639 108.249 165.594 108.249C165.347 108.238 165.168 108.238 165.112 108.238H165.1C165.1 108.291 165.112 108.366 165.112 108.461C165.123 108.588 165.123 108.726 165.134 108.811C165.123 108.8 165.112 108.8 165.1 108.8C163.585 108.62 162.069 108.429 160.553 108.228H160.531C159.969 108.154 159.419 108.079 158.858 108.005C158.05 107.899 157.252 107.793 156.444 107.687C156.051 107.634 155.669 107.581 155.276 107.517C154.704 107.443 154.131 107.358 153.559 107.284C154.131 107.114 155.063 106.34 156.343 104.919C156.859 104.283 157.376 103.636 157.859 102.968C159.307 100.964 160.508 98.7903 160.755 96.4468C160.89 95.1319 160.924 93.764 160.621 92.4491C160.497 91.9083 160.318 91.3781 160.082 90.8691C159.857 90.392 159.577 89.936 159.24 89.5224C159.24 89.5224 159.236 89.5189 159.228 89.5118C159.15 89.4058 159.06 89.2997 158.959 89.2043C158.779 88.9922 158.577 88.8014 158.364 88.6211C158.263 88.5257 158.151 88.4408 158.05 88.356C157.937 88.2712 157.825 88.1863 157.713 88.1121C157.623 88.0485 157.533 87.9955 157.443 87.9318C157.365 87.8788 157.275 87.8258 157.174 87.7728C157.084 87.7198 156.994 87.6667 156.904 87.6243C156.815 87.5713 156.714 87.5183 156.624 87.4759C156.489 87.4228 156.365 87.3592 156.231 87.3062C156.107 87.2532 155.973 87.2002 155.838 87.1577C155.759 87.1259 155.692 87.1047 155.613 87.0835C155.557 87.0623 155.512 87.0517 155.456 87.0305C155.31 86.9881 155.164 86.9563 155.018 86.9139C154.951 86.9033 154.883 86.882 154.816 86.8714C154.715 86.8502 154.625 86.8396 154.524 86.8184C154.524 86.8184 154.446 86.8078 154.401 86.7972C154.3 86.7866 154.199 86.776 154.109 86.7654C154.03 86.7654 153.952 86.7654 153.884 86.7442C153.839 86.7442 153.783 86.7336 153.738 86.7336H153.604C153.514 86.723 153.424 86.723 153.334 86.723H153.166C152.447 86.7442 151.672 86.829 150.886 87.0093C150.19 87.1578 149.483 87.3804 148.764 87.6773C147.922 88.0379 147.114 88.462 146.339 88.918C145.879 89.1831 145.43 89.4694 144.992 89.7663C144.678 89.9784 144.363 90.2011 144.049 90.4238C142.365 91.622 140.793 92.9687 139.244 94.273C139.322 94.4639 139.401 94.6441 139.468 94.8138C139.513 94.9199 139.547 95.0047 139.592 95.1001C140.007 96.0757 140.31 96.7861 140.838 97.9632C141.287 97.6663 141.512 97.5284 141.961 97.2315C143.948 103.954 145.969 111.006 149.427 117.199C149.157 117.262 148.686 117.337 148.416 117.4C148.821 118.482 149.034 119.033 149.472 120.125C150.101 119.945 150.797 119.744 151.526 119.532C153.581 118.948 155.894 118.302 157.657 117.771C157.084 116.934 156.792 116.51 156.219 115.682C156.074 115.714 155.321 115.905 155.164 115.926C154.165 114.261 153.839 113.403 153.065 111.727C155.164 112.226 157.342 112.628 159.442 113.106C161.485 113.562 163.45 113.975 165.493 114.41L166.077 114.548V116.17C166.178 116.181 166.279 116.191 166.369 116.202C166.695 116.244 166.998 116.287 167.323 116.329C167.402 116.34 167.481 116.35 167.57 116.361C167.604 116.361 167.649 116.361 167.694 116.372C167.739 116.372 167.773 116.382 167.817 116.382C168.031 116.403 168.244 116.425 168.48 116.435V115.958C168.502 113.615 168.727 110.858 168.749 108.546C168.761 108.472 168.761 108.397 168.761 108.323C168.738 108.334 168.671 108.334 168.558 108.334L168.536 108.323ZM151.336 102.82C150.763 103.255 150.145 103.626 149.505 103.933L148.933 104.188L148.708 103.636C147.698 101.155 146.676 98.4934 145.598 95.4925L145.475 95.1425L145.767 94.9092C147.047 93.8594 148.282 93.1172 149.55 92.6506C149.618 92.6294 149.685 92.6082 149.741 92.587C150.112 92.4491 150.505 92.3431 150.931 92.2476C151.324 92.1734 151.706 92.131 152.054 92.131C153.087 92.131 153.974 92.4173 154.513 93.1172C154.839 93.5519 155.344 94.4533 155.422 95.0789C155.422 95.1001 155.422 95.1531 155.422 95.1531C155.647 96.7119 154.951 98.2283 154.165 99.6386C153.502 100.837 152.526 101.94 151.336 102.82ZM100.498 63.67C100.498 63.67 100.442 63.67 100.408 63.6806C100.284 63.6806 100.172 63.7018 100.06 63.723C100.026 63.723 99.9812 63.723 99.9475 63.7336C99.8689 63.7442 99.8128 63.7442 99.7342 63.7548C99.723 63.7548 99.6893 63.7548 99.6668 63.7654C99.6219 63.7654 99.577 63.776 99.5321 63.776C99.4423 63.7866 99.3413 63.7972 99.2402 63.8078C99.2065 63.8078 99.1728 63.8184 99.1392 63.8184C99.0606 63.8184 98.9708 63.8396 98.8809 63.8502C98.8922 63.8715 98.9034 63.9139 98.9034 63.9669C98.9146 64.0517 98.9258 64.179 98.9371 64.3062C98.9371 64.3698 98.9371 64.4335 98.9595 64.4971V64.5395C98.9595 64.5395 98.9708 64.6455 98.9708 64.688C98.982 64.7304 98.982 64.7622 98.982 64.794C98.982 64.794 98.9857 64.8011 98.9932 64.8152V64.9106C98.9932 64.9106 99.0044 64.9531 99.0044 64.9743C99.0044 65.0061 99.0044 65.0273 99.0044 65.0591C99.0044 65.1015 99.0157 65.1333 99.0157 65.1545C93.896 65.4196 89.4274 65.812 84.2965 66.0771C84.2516 66.0029 84.027 65.6635 83.8249 65.3454C83.8249 65.3454 83.8212 65.3454 83.8137 65.3454C83.6341 65.0697 83.4656 64.8258 83.432 64.7622C82.6124 64.7834 82.1969 64.794 81.3661 64.8152C81.4559 64.9637 81.5345 65.1015 81.6243 65.25C81.6356 65.2712 81.6468 65.2924 81.658 65.3242C82.8145 67.3496 83.9147 69.4067 84.8354 71.5381C84.8915 71.6548 84.9364 71.7714 84.9814 71.888C85.0487 72.0471 85.1161 72.2062 85.1834 72.3652C85.756 72.1425 86.0367 72.0259 86.6093 71.8032C86.5869 71.7396 86.5307 71.5805 86.4746 71.4003C86.4409 71.2942 86.4072 71.1776 86.3736 71.0715C86.3287 70.9125 86.2837 70.7746 86.2613 70.7216C86.4971 70.6792 86.7216 70.6474 86.9349 70.6156C86.9574 70.6156 86.9798 70.605 87.0135 70.605C87.0247 70.605 87.0247 70.5944 87.036 70.5944C87.0697 70.5944 87.1033 70.5944 87.137 70.5732C87.1707 70.5732 87.2044 70.5732 87.2268 70.5626C87.3953 70.5413 87.5412 70.5095 87.6872 70.4883C87.7994 70.4671 87.9005 70.4459 88.0015 70.4247C88.0801 70.4035 88.1475 70.3929 88.2261 70.3823C88.2935 70.3611 88.3608 70.3505 88.4282 70.3399C88.518 70.3187 88.6078 70.3081 88.6864 70.2868C88.765 70.2762 88.8436 70.255 88.9222 70.2444C88.9783 70.2338 89.0345 70.2232 89.0906 70.2126C89.1467 70.202 89.2029 70.1914 89.259 70.1808C89.3264 70.1702 89.405 70.1596 89.4723 70.149C89.5397 70.1384 89.6071 70.1278 89.6857 70.1172C89.7642 70.1066 89.8316 70.1066 89.899 70.096C89.9439 70.0854 89.9776 70.0854 90.0112 70.0854H90.0674C90.0674 70.0854 90.0898 70.0748 90.1011 70.0748H90.2246C90.2246 70.0748 90.3032 70.0642 90.3481 70.0642H90.4716C90.5614 70.0642 90.6624 70.0642 90.7635 70.0642H90.8758C91.9985 77.0098 91.6954 84.4962 89.7193 91.2827C89.5846 91.2615 88.911 91.166 88.7762 91.1554C88.3384 92.0674 88.3945 92.5658 87.9342 93.4565C89.405 93.4777 91.2687 93.5519 93.0539 93.605C93.4581 93.6156 93.8623 93.6262 94.2552 93.6368C94.9738 93.658 95.6474 93.6686 96.2649 93.6792C96.3548 92.8097 96.4333 92.4703 96.5905 91.8023C96.4446 91.7917 95.6362 91.7068 95.479 91.6962C96.9835 84.5174 96.9161 77.0204 95.3892 69.8521C95.3892 69.8415 95.3892 69.8203 95.378 69.8097C95.378 69.7779 95.3667 69.7461 95.3667 69.7142C97.3316 69.1416 98.0052 68.972 99.9139 68.7069C99.9251 68.7917 100.037 69.6188 100.049 69.7036C100.094 69.7142 100.138 69.7248 100.183 69.7354C100.531 69.8097 100.801 69.8627 101.082 69.9157C101.385 69.9793 101.688 70.043 102.092 70.1278C101.688 67.954 101.149 65.812 100.486 63.6912L100.498 63.67ZM144.229 85.2596C144.161 84.9945 144.105 84.74 144.026 84.3901H143.824C143.712 84.3901 143.566 84.3795 143.409 84.3689C143.387 84.3689 143.353 84.3689 143.319 84.3689C143.263 84.3689 143.196 84.3583 143.14 84.3583C143.083 84.3583 143.027 84.3583 142.982 84.3477C142.848 84.3477 142.735 84.3371 142.668 84.3371C142.612 84.3371 142.589 84.3477 142.567 84.3477C142.769 82.1845 142.904 79.9683 142.803 77.8263C142.803 77.5718 142.78 77.3173 142.78 77.0416C142.724 75.9388 142.668 74.7087 142.488 73.4893C142.286 72.1532 141.949 70.8383 141.332 69.7036C141.018 69.1522 140.647 68.6326 140.187 68.1979C139.547 67.6889 138.738 67.4026 137.762 67.3602C137.638 67.3496 137.515 67.3496 137.38 67.3496C137.2 67.3496 136.998 67.3495 136.796 67.3708C136.706 67.3814 136.605 67.392 136.504 67.4026C136.437 67.4026 136.369 67.4026 136.302 67.4238C136.235 67.445 136.179 67.445 136.111 67.4556C136.055 67.4662 135.999 67.4768 135.943 67.4874C135.853 67.498 135.774 67.5086 135.707 67.5298C135.696 67.5298 135.673 67.5404 135.662 67.5404C135.572 67.5616 135.482 67.5828 135.393 67.604C135.359 67.604 135.314 67.6253 135.28 67.6359C135.213 67.6571 135.134 67.6783 135.067 67.6889C135.067 67.6889 135.06 67.6924 135.045 67.6995C135.045 67.6995 134.943 67.7313 134.887 67.7525C134.865 67.7631 134.842 67.7631 134.809 67.7843C134.753 67.7949 134.696 67.8161 134.64 67.8373C134.528 67.8798 134.438 67.9222 134.337 67.9646C134.259 67.9858 134.191 68.0176 134.124 68.06C134.057 68.0812 133.989 68.113 133.922 68.1555C133.821 68.1979 133.731 68.2509 133.63 68.3039C133.596 68.3251 133.563 68.3463 133.529 68.3675C133.506 68.3781 133.484 68.3993 133.461 68.4099C133.439 68.4206 133.428 68.4312 133.405 68.4418C133.349 68.4736 133.293 68.5054 133.237 68.5478C133.08 68.6538 132.934 68.7599 132.777 68.8765L132.81 68.9083C132.754 68.9295 132.698 68.9614 132.642 68.9826L132.597 69.025C132.473 69.1204 132.361 69.2265 132.249 69.3325C132.215 69.2689 132.047 69.0674 131.912 68.9083C131.833 68.8129 131.766 68.7281 131.755 68.6857C131.396 68.9401 130.374 69.5446 130.015 69.7885C130.127 69.9899 130.239 70.1914 130.351 70.3823C130.396 70.4671 130.441 70.5413 130.486 70.6156C130.857 71.2518 131.238 71.8562 131.598 72.4925C131.654 72.5985 131.71 72.6939 131.766 72.8C131.822 72.906 131.878 73.0121 131.935 73.1181C132.226 72.8106 133.214 72.1744 133.495 71.8668C133.428 71.7502 133.394 71.6972 133.327 71.5911C133.428 71.4957 133.518 71.4109 133.607 71.3366C133.675 71.2836 133.742 71.2306 133.798 71.1882C133.843 71.1458 133.888 71.114 133.944 71.0821C133.944 71.0715 133.955 71.0609 133.967 71.0609C133.967 71.0609 133.978 71.0609 133.989 71.0397C134.023 71.0185 134.045 70.9973 134.079 70.9761C134.146 70.9337 134.214 70.8913 134.27 70.8489C134.348 70.8064 134.427 70.764 134.494 70.7322C134.539 70.7004 134.595 70.6792 134.64 70.6474C134.685 70.6262 134.73 70.605 134.775 70.5944C134.876 70.5519 134.977 70.5201 135.067 70.4883C135.067 70.4883 135.101 70.4777 135.112 70.4671H135.134C135.134 70.4671 135.179 70.4671 135.202 70.4459C135.258 70.4353 135.292 70.4247 135.336 70.4141C135.381 70.4035 135.426 70.3929 135.471 70.3929C135.494 70.3929 135.516 70.3929 135.539 70.3929C135.561 70.3929 135.583 70.3823 135.606 70.3823H136.021C136.021 70.3823 136.1 70.3929 136.145 70.4035H136.19C136.19 70.4035 136.212 70.4035 136.223 70.4141H136.235C136.235 70.4141 136.324 70.4247 136.369 70.4353C136.414 70.4565 136.459 70.4671 136.515 70.4883C136.527 70.4883 136.549 70.4989 136.56 70.4989C136.605 70.5201 136.65 70.5307 136.695 70.5519C136.807 70.605 136.908 70.6686 137.021 70.7428C137.054 70.764 137.088 70.7958 137.122 70.8277C137.167 70.8701 137.223 70.9125 137.268 70.9549C137.279 70.9761 137.301 70.9973 137.324 71.0185C137.717 71.4533 137.986 72.0683 138.121 72.853C138.132 72.9272 138.143 73.0121 138.155 73.0863C137.705 72.8742 137.189 72.7576 136.605 72.7576C136.459 72.7576 136.302 72.7682 136.145 72.7788C135.28 72.853 134.494 73.2348 133.832 73.9028C133.237 74.5072 132.676 75.3343 132.125 76.3205C131.575 77.2961 131.171 78.2504 130.89 79.173C130.61 80.0955 130.453 81.1771 130.408 82.386C130.363 83.4676 130.497 84.3477 130.812 85.0263C131.137 85.7156 131.665 86.1928 132.395 86.4579C132.608 86.5321 132.889 86.5745 133.237 86.5745C133.327 86.5745 133.428 86.5745 133.54 86.5745C134.202 86.5427 134.854 86.3094 135.46 85.9595C136.077 85.599 136.976 84.7931 138.065 83.4888C138.48 83.001 138.682 82.7465 139.098 82.2587C139.109 83.2237 139.12 83.7963 139.12 84.6234V85.1324C139.03 85.1536 138.851 85.1642 138.66 85.1748C138.368 85.196 138.042 85.2172 137.919 85.2384C137.829 85.652 137.773 85.8959 137.694 86.2352C137.672 86.32 137.649 86.4261 137.627 86.5215C138.233 86.4579 138.929 86.4049 139.648 86.3625C140.703 86.2988 141.826 86.2564 142.859 86.1822C143.162 86.161 143.465 86.1398 143.746 86.108C143.802 86.108 143.847 86.0974 143.892 86.0974C144.038 86.0761 144.184 86.0655 144.33 86.0443C144.33 85.9489 144.341 85.8535 144.341 85.758C144.307 85.5884 144.262 85.4399 144.229 85.2915V85.2596ZM138.199 77.6778C138.199 77.8157 138.155 77.9959 138.053 78.2716C137.975 78.4519 137.896 78.6322 137.829 78.8018C136.852 81.0923 136.033 82.4496 135.37 82.8101C135.247 82.8844 135.123 82.9374 135.011 82.9904H134.988C134.865 83.0328 134.719 83.0752 134.562 83.0858H134.472C134.214 83.0858 133.989 83.001 133.821 82.8313C133.607 82.6299 133.506 82.3435 133.518 81.9512C133.54 81.4422 133.686 80.7954 133.967 79.9789C134.674 77.9535 135.595 76.9143 136.762 76.8083C136.83 76.7977 136.897 76.7977 136.953 76.7977C137.211 76.7977 137.436 76.8401 137.627 76.9355C138.11 77.1476 138.188 77.4763 138.199 77.6566V77.6778ZM140.568 115.576C140.389 115.576 139.333 115.598 139.154 115.608C139.154 113.678 139.266 111.727 139.221 109.829C139.154 107.273 139.3 103.371 136.976 101.462C136.111 100.869 134.854 100.625 133.271 100.604C133.012 100.604 132.743 100.614 132.473 100.635H132.451C130.902 100.731 129.128 101.155 127.837 101.865C127.814 101.823 127.702 101.622 127.601 101.462C127.567 101.388 127.522 101.325 127.5 101.272C127.466 101.219 127.444 101.187 127.432 101.166C126.994 101.335 126.77 101.42 126.332 101.59C126.354 101.622 126.366 101.664 126.388 101.706C126.422 101.759 126.456 101.823 126.478 101.887C126.961 102.799 127.601 103.838 128.072 104.729C128.207 104.654 128.319 104.58 128.42 104.516C128.6 104.41 128.757 104.304 128.993 104.156C128.937 104.06 128.712 103.838 128.656 103.742C129.655 103.212 130.576 102.947 131.407 102.947H131.418C131.766 102.947 132.08 102.989 132.361 103.064C132.732 103.17 133.046 103.339 133.293 103.583C133.731 104.007 133.967 104.601 134.012 105.354C133.394 105.089 132.631 104.951 131.721 104.941H131.665C130.677 104.941 129.745 105.184 128.926 105.662C128.185 106.107 127.444 106.733 126.725 107.496C126.018 108.26 125.479 109.013 125.131 109.765C124.771 110.529 124.592 111.451 124.547 112.491C124.513 113.392 124.805 114.24 125.322 114.919C125.827 115.555 126.534 116.064 127.399 116.34C127.735 116.467 128.196 116.531 128.78 116.573H129.038C129.723 116.573 130.363 116.446 130.935 116.223C131.598 115.969 132.406 115.364 133.63 114.314C134.09 113.922 134.326 113.731 134.798 113.328C134.809 113.434 134.809 113.53 134.82 113.625C134.82 113.678 134.82 113.721 134.831 113.763V113.869C134.831 113.869 134.842 113.922 134.842 113.954C134.854 114.134 134.876 114.304 134.887 114.463C134.899 114.548 134.91 114.633 134.921 114.707C134.932 114.792 134.943 114.876 134.966 114.961C134.966 114.983 134.966 115.004 134.977 115.025C134.988 115.078 134.988 115.131 135 115.195C135.011 115.248 135.022 115.301 135.033 115.364C135.045 115.407 135.056 115.46 135.056 115.513C135.089 115.629 135.112 115.757 135.146 115.905C135.011 115.905 134.831 115.905 134.652 115.905C134.494 115.916 134.337 115.916 134.236 115.926C134.214 116.075 134.202 116.213 134.191 116.329C134.18 116.552 134.158 116.753 134.135 117.05H134.225C134.798 117.05 135.415 117.061 136.055 117.061H140.669L140.568 115.566V115.576ZM133.383 109.84C133.316 109.977 133.214 110.126 133.125 110.253C131.485 112.819 130.733 113.35 130.217 113.509C130.116 113.551 130.015 113.572 129.925 113.593C129.768 113.636 129.599 113.646 129.442 113.646H129.352C128.701 113.625 128.286 113.201 128.286 112.554C128.297 112.045 128.465 111.473 128.813 110.783C129.835 108.737 131.16 108.302 132.08 108.302H132.125C132.451 108.302 132.743 108.366 133.001 108.472C133.551 108.684 133.63 109.023 133.63 109.214C133.619 109.384 133.551 109.564 133.383 109.84ZM50.8836 78.5261C50.9397 78.664 50.9959 78.823 51.052 78.9821C53.1852 78.4307 55.3184 77.8687 57.4404 77.2855C57.7548 77.2006 58.0692 77.1158 58.3835 77.0204C57.9007 76.3417 57.5751 75.8857 57.1597 75.3449C56.9913 75.1117 56.8005 74.8678 56.5871 74.5815C56.2615 74.7087 56.0931 74.7723 55.7675 74.8996C55.3746 73.1075 53.9824 71.6866 52.7361 70.4565C51.546 69.2901 49.9068 68.4524 48.1665 68.1236C47.6276 68.0176 47.0663 67.9646 46.5049 67.9646C46.0333 67.9646 45.5618 67.9752 45.1127 67.9964C45.0566 67.9964 45.0116 67.9964 44.9667 68.007C43.3837 68.1024 42.1037 68.3781 41.0933 68.8129C38.1853 69.9793 35.603 71.9199 33.6046 74.1785C33.0881 74.7723 32.6053 75.3874 32.145 76.0342C31.5724 76.8613 31.0447 77.7308 30.5956 78.6322C29.6637 80.4666 29.0238 82.4178 28.7543 84.3901C28.7318 84.5492 28.7094 84.7082 28.6869 84.8673C28.5297 86.0443 28.4287 87.0411 28.395 87.847C28.3838 88.0697 28.3838 88.2818 28.3838 88.4726C28.5073 90.7525 28.6532 93.0217 30.4721 94.7184C32.2348 96.3726 34.8508 97.0618 37.3321 97.0724H37.5454C37.7699 97.0724 37.9945 97.0724 38.219 97.0512C38.6794 97.0406 38.9264 97.0406 39.3755 97.03H39.4316C40.1052 96.9982 40.8238 96.9346 41.5648 96.8286C42.3058 96.6907 43.0356 96.5316 43.7654 96.3302C43.9001 96.2984 44.0349 96.2559 44.1696 96.2135C46.2579 95.6197 48.2676 94.7502 50.0752 93.5837C51.1531 92.8839 51.9951 92.1946 52.6014 91.5054C52.8259 91.2615 53.0056 91.0282 53.1515 90.8055C53.421 90.8903 53.5557 90.9328 53.8252 91.0282C54.6897 90.1269 55.1163 89.6815 55.9584 88.7802C53.5557 88.1227 50.5243 87.4971 48.1104 86.9351C47.7287 87.7198 47.549 88.1227 47.0438 88.918C47.2684 88.9816 47.9869 89.0771 48.2002 89.1513C48.1441 89.2043 48.0767 89.2467 48.0206 89.2997C46.0782 90.7949 43.6082 91.9932 41.1382 92.078H40.9473C40.6217 92.078 40.2961 92.0568 39.9817 92.0038C39.7572 91.9719 39.5214 91.9295 39.2969 91.8765C36.1644 91.2509 35.8276 87.6349 36.1307 85.2066C36.5349 82.036 38.0169 78.5792 40.9024 76.6068C41.621 76.1508 42.3395 75.6843 43.0917 75.2813C44.091 74.7511 45.1351 74.327 46.314 74.1679C46.5947 74.1149 46.8754 74.0937 47.1224 74.0725H47.2908C47.5939 74.0725 47.9083 74.1149 48.2227 74.1891C48.335 74.2103 48.436 74.2315 48.5483 74.2633C48.6493 74.2951 48.7504 74.327 48.8627 74.3694C48.9637 74.4012 49.0647 74.4436 49.177 74.486C49.2781 74.5284 49.3791 74.5708 49.4802 74.6239C49.5812 74.6663 49.6823 74.7193 49.7833 74.7723C49.8843 74.8253 49.9854 74.889 50.0752 74.942C50.1763 74.995 50.2661 75.0586 50.3559 75.1223C50.457 75.1859 50.5468 75.2495 50.6366 75.3131C50.7601 75.4086 50.8836 75.5146 51.0071 75.6206C51.052 75.6525 51.0857 75.6949 51.1306 75.7267C51.2092 75.8009 51.2766 75.8751 51.3439 75.9494C51.3664 75.96 51.3776 75.9812 51.4001 75.9918C51.445 76.0554 51.5011 76.1084 51.546 76.172C51.6134 76.2463 51.6695 76.3205 51.7257 76.3947C51.1418 76.6068 50.8499 76.7022 50.2549 76.9037C50.5243 77.5718 50.6815 77.9747 50.8836 78.5261ZM113.308 90.3601C113.185 90.4344 112.848 90.5404 112.713 90.6146C112.365 88.8544 112.028 87.0941 111.456 85.3763C110.58 83.0116 109.39 79.3108 106.774 78.5685C106.594 78.5261 106.415 78.5049 106.212 78.5049H106.033C106.033 78.5049 105.988 78.5049 105.965 78.5155C105.932 78.5155 105.887 78.5155 105.842 78.5261C105.819 78.5261 105.797 78.5261 105.775 78.5261C105.741 78.5261 105.696 78.5367 105.662 78.5473C105.64 78.5473 105.629 78.5473 105.606 78.5579C105.516 78.5685 105.438 78.5898 105.348 78.611C105.281 78.6216 105.224 78.6428 105.157 78.664C105.034 78.6958 104.91 78.7488 104.775 78.7912C104.73 78.8124 104.686 78.823 104.629 78.8442C104.573 78.8655 104.517 78.8973 104.461 78.9185C104.36 78.9609 104.259 79.0033 104.169 79.0563C103.967 79.1412 103.765 79.2472 103.563 79.3638C102.384 80.0213 101.138 81.0817 100.284 82.2057C100.127 82.4072 99.9925 82.6192 99.8577 82.8313C99.8577 82.8313 99.8128 82.7995 99.7791 82.7677C99.6669 82.6935 99.4872 82.5768 99.4423 82.5344C99.1616 82.8737 99.0269 83.0434 98.735 83.3721C98.8697 83.4782 98.9932 83.5736 99.1055 83.669C99.6668 84.1144 100.172 84.5068 100.733 84.9627C100.823 85.0264 100.913 85.1006 101.003 85.1854C101.216 84.8355 101.317 84.6552 101.519 84.3053C101.452 84.2523 101.407 84.2204 101.351 84.1886C101.34 84.178 101.317 84.1674 101.306 84.1568C101.89 83.2661 102.496 82.6299 103.147 82.2799C103.552 82.0678 103.922 81.9618 104.27 81.9618C104.472 81.9618 104.674 82.0042 104.854 82.0785C105.37 82.2799 105.775 82.7253 106.089 83.3933C105.763 83.4039 105.415 83.457 105.045 83.5842C104.764 83.6796 104.472 83.7963 104.169 83.9554C103.372 84.3583 102.732 84.9627 102.249 85.7368C102.103 85.9701 101.968 86.214 101.845 86.4791C101.576 86.9987 101.351 87.5925 101.126 88.2288C100.812 89.1831 100.599 90.042 100.509 90.8267C100.419 91.6008 100.475 92.4385 100.689 93.3611C101.07 94.9092 101.935 95.6939 103.293 95.6939C103.383 95.6939 103.484 95.6939 103.574 95.6939C103.866 95.6727 104.248 95.5773 104.708 95.397C105.348 95.1425 105.909 94.7502 106.415 94.2836C106.92 93.7958 107.593 92.8945 108.323 91.516C108.615 91.007 108.75 90.7419 109.031 90.2223C109.3 91.1024 109.424 91.5372 109.682 92.4067C109.502 92.5127 109.412 92.5552 109.233 92.6612V93.7428C110.681 93.0642 111.714 92.6082 112.983 91.9932C113.308 91.8341 113.656 91.6644 114.027 91.4842C113.746 91.0282 113.6 90.8161 113.308 90.3601ZM107.077 88.1863C106.729 89.9678 106.336 91.1979 105.898 91.8129C105.819 91.9401 105.73 92.0462 105.64 92.1204C105.438 92.3219 105.202 92.4703 104.966 92.5764C104.82 92.64 104.674 92.6718 104.528 92.6718C104.371 92.6718 103.821 92.6082 103.653 91.9189C103.552 91.4948 103.552 90.9434 103.664 90.2117C103.72 89.7981 103.787 89.4588 103.877 89.1725C104.192 87.9743 104.73 87.2002 105.528 86.8078C105.797 86.6806 106.066 86.6063 106.336 86.5957H106.358C106.942 86.5957 107.122 86.9245 107.167 87.0729H107.178V87.0941C107.234 87.285 107.212 87.5289 107.077 88.1863ZM87.0696 79.0139C86.5756 78.4519 85.9469 77.9641 85.161 77.5718C83.3646 76.7128 80.7374 76.3841 78.7501 76.3523C78.7164 76.5432 78.6828 76.7129 78.6379 76.8719C78.5256 77.4445 78.4133 77.8581 78.2337 78.5155C78.4919 78.5579 79.188 78.6534 79.4574 78.6958C77.8744 82.089 75.9882 85.1642 73.7314 88.1863C73.6304 88.1333 73.2374 87.953 73.1364 87.8894C72.7098 88.3136 72.4852 88.5257 72.0473 88.9392C72.6985 89.2361 73.3946 89.5861 74.0683 89.9254C74.5061 90.1375 74.944 90.3601 75.3707 90.5616C75.4829 90.6252 75.5952 90.6783 75.7075 90.7313C75.9769 90.3495 76.1229 90.1587 76.3924 89.7663C76.3362 89.7345 75.9433 89.4694 75.8871 89.4376C76.426 88.7377 76.7067 88.3666 77.1783 87.6879C77.2007 87.6455 77.2344 87.6137 77.2569 87.5607C77.5039 88.1015 77.6947 88.5469 77.8631 88.971C78.2449 89.9148 78.5256 90.6889 78.9298 91.8659C78.795 91.9507 78.1775 92.3007 78.054 92.3855C78.2673 92.7142 78.3684 92.8733 78.5705 93.202C79.0533 92.9369 79.5922 92.6294 80.1536 92.3219C81.2426 91.7175 82.4103 91.0812 83.2972 90.5404C82.9155 90.2223 82.7246 90.0526 82.3429 89.7345C82.2868 89.7769 81.5121 90.1375 81.4559 90.1799C80.917 89.0877 80.5353 88.3666 80.0188 87.4971C79.8167 87.1259 79.581 86.7442 79.3115 86.2882C79.4687 86.3624 79.783 86.4049 80.2658 86.4049C80.4904 86.4049 80.7486 86.3943 81.0518 86.3837C82.545 86.2882 83.8586 85.9913 84.9814 85.4823C85.2284 85.3763 85.4641 85.249 85.6887 85.1218C86.6093 84.5916 87.2942 83.9129 87.7096 83.107C88.4506 81.7285 88.2261 80.35 87.0696 79.0139ZM84.1618 83.0646C83.286 84.1992 82.2868 84.3583 82.1633 84.3795C80.7149 84.6446 79.6146 84.1886 79.6146 84.1886L81.8938 79.2896C81.8938 79.2896 83.4544 79.2896 84.1056 79.6077C85.4754 80.2758 84.7905 82.2481 84.1618 83.0646ZM72.4852 75.7055C72.1371 75.2495 71.6431 74.8466 71.0256 74.4966C70.5204 74.1997 69.9366 73.9452 69.2629 73.7013C69.1282 73.6589 68.9935 73.6059 68.8475 73.5635C68.7914 73.5423 68.7352 73.5317 68.6791 73.5105C68.623 73.4998 68.5668 73.4786 68.5107 73.468C68.3984 73.4362 68.2861 73.4044 68.1626 73.3726C68.0616 73.3514 67.9493 73.3302 67.837 73.2984C67.7135 73.2772 67.5788 73.2454 67.4441 73.2241C67.4441 73.2241 67.4104 73.2135 67.3879 73.2135C67.3318 73.2029 67.2644 73.1923 67.1971 73.1817C67.1185 73.1711 67.0287 73.1499 66.9501 73.1393C66.8827 73.1287 66.8041 73.1181 66.7367 73.1075C66.5234 73.0863 66.2989 73.0651 66.0743 73.0545C66.007 73.0439 65.9396 73.0439 65.8722 73.0439H65.8273C65.7038 73.0333 65.5803 73.0333 65.468 73.0333C64.9404 73.0333 64.4351 73.0757 63.9636 73.1817C63.9299 73.0969 63.0878 72.5455 63.0429 72.4501C62.7847 72.4713 62.5938 72.4819 62.4029 72.4925C62.2682 72.4925 62.1223 72.4925 61.9426 72.5137C62.2009 73.1923 62.5938 74.0088 62.9306 74.7935C63.1552 75.2919 63.3573 75.7797 63.4808 76.1932C63.7502 75.8327 64.1095 75.1965 64.4913 75.0904C64.4913 75.0586 64.6597 75.048 64.9291 75.048H65.3333C65.4344 75.0586 65.5354 75.0586 65.6365 75.0692C65.8498 75.0904 66.0743 75.101 66.2876 75.1329C66.3999 75.1435 66.501 75.1541 66.602 75.1753C66.7592 75.1965 66.9052 75.2177 67.0287 75.2495C67.0736 75.2601 67.1073 75.2707 67.1409 75.2813C67.1858 75.2813 67.2195 75.3025 67.2532 75.3131C68.0054 75.5676 68.5444 75.96 68.8587 76.4796C69.1619 76.9992 69.2405 77.6036 69.0833 78.2822C68.6117 77.8581 67.9605 77.5081 67.1522 77.2324C66.8153 77.1158 66.4673 77.031 66.1417 76.9885C65.9284 76.9567 65.7151 76.9461 65.5017 76.9461C65.1537 76.9461 64.8056 76.9885 64.4576 77.0734C64.1544 77.137 63.8513 77.243 63.5369 77.3597C63.4696 77.3809 63.4134 77.4127 63.3461 77.4339C62.9194 77.6142 62.4815 77.8369 62.0325 78.102C61.1904 78.5791 60.4943 79.1093 59.9441 79.682C59.394 80.244 58.9112 80.9756 58.4846 81.8558C58.3723 82.0891 58.2937 82.3011 58.2263 82.5132C57.8671 83.5948 57.9906 84.4749 58.6081 85.1854C58.7428 85.3445 58.9 85.4929 59.0796 85.6308C59.3042 85.8004 59.641 85.9701 60.1013 86.1292C60.6515 86.32 61.2241 86.4049 61.8079 86.4049C61.9089 86.4049 61.9988 86.3943 62.0886 86.3943C62.7847 86.3625 63.8962 86.1186 65.3782 85.6096C65.4007 85.599 65.4231 85.599 65.4456 85.5884C65.962 85.4187 66.2315 85.3233 66.7704 85.143C66.3775 85.8853 66.1529 86.2882 65.7712 86.9563C65.7263 87.0305 65.6814 87.1047 65.6252 87.1896C65.4344 87.1365 65.3445 87.1153 65.1424 87.0729C64.8393 87.391 64.6821 87.5501 64.3565 87.8788C65.0526 88.1015 65.6028 88.2818 66.1192 88.462C66.254 88.5045 66.3999 88.5469 66.5347 88.5999C67.1971 88.8226 67.8483 89.0559 68.724 89.3634C68.9149 88.8544 69.0047 88.5999 69.1619 88.0909C69.0271 88.0485 68.9598 88.0273 68.825 87.9955C69.8917 86.5639 70.9807 85.143 71.7779 83.5524C72.9455 81.3998 74.102 77.9323 72.4964 75.7055H72.4852ZM67.59 81.5271C67.5114 81.7073 67.343 81.8876 66.7704 82.2799C66.1866 82.7041 65.6252 83.0752 65.12 83.3721C64.2106 83.9023 63.5145 84.178 63.0429 84.1886H62.9419C62.6724 84.1886 62.4366 84.1568 62.2345 84.0826C62.0212 84.0084 61.8528 83.9023 61.7405 83.7539C61.6283 83.5948 61.4598 83.2555 61.7069 82.7465C61.9202 82.3542 62.2907 81.93 62.8408 81.4422C62.9531 81.3362 63.0654 81.2407 63.1664 81.1665C63.4696 80.9226 63.7839 80.7211 64.0983 80.5515C64.6484 80.2546 65.1874 80.1061 65.7151 80.1061C66.007 80.1061 66.3101 80.1485 66.5908 80.2546C66.8827 80.35 67.1185 80.4773 67.3093 80.6575C67.7135 81.0181 67.6574 81.3574 67.59 81.5271ZM125.827 90.6465C125.681 90.5298 125.524 90.4026 125.378 90.2965C125.378 90.3283 125.052 90.6889 124.67 91.1024C124.131 91.6962 123.491 92.3855 123.48 92.3855C123.593 92.4597 123.828 92.6506 124.03 92.8203C124.143 92.9157 124.255 93.0005 124.311 93.0323C122.268 95.5137 120.134 97.9102 117.945 100.275C117.283 100.985 116.62 101.696 115.958 102.406C115.61 102.777 115.262 103.149 114.902 103.52C114.42 104.05 113.926 104.569 113.432 105.078C113.342 105.174 113.252 105.28 113.162 105.375C112.578 105.98 112.006 106.584 111.433 107.199C109.682 109.055 107.93 110.921 106.212 112.809C106.302 112.862 106.381 112.915 106.459 112.968C108.671 114.357 110.906 115.704 113.162 117.008C114.947 118.047 116.744 119.065 118.563 120.051C118.507 120.242 118.495 120.825 118.439 121.016C119.326 121.493 119.764 121.737 120.685 122.225C120.786 121.992 120.887 121.737 120.999 121.462C121.706 119.765 122.616 117.623 123.346 116.064C123.39 115.969 123.424 115.884 123.469 115.799C122.762 115.576 122.279 115.428 121.751 115.258C121.437 115.152 121.089 115.046 120.673 114.908C120.617 115.067 120.224 115.598 120.157 115.757C118.091 114.739 116.036 113.699 114.004 112.618C113.746 112.491 113.499 112.353 113.252 112.225C113.23 112.215 113.207 112.204 113.196 112.194C113.566 111.812 113.937 111.43 114.307 111.048C116.755 108.514 119.225 106.022 121.673 103.488C121.774 103.392 121.864 103.286 121.965 103.191C122.447 102.693 122.919 102.205 123.39 101.706C123.739 101.346 124.087 100.985 124.423 100.614C125.591 99.3841 126.736 98.1434 127.87 96.8816C128.185 96.5316 128.488 96.1817 128.791 95.8424C128.881 95.8848 129.195 96.0333 129.442 96.1605C129.588 96.2347 129.711 96.2984 129.756 96.3196C129.936 96.1181 130.082 95.9484 130.217 95.7894C130.531 95.4182 130.778 95.1001 131.171 94.6229C129.464 93.4247 127.522 91.9507 125.827 90.6465ZM108.334 101.908C108.155 101.855 107.964 101.812 107.908 101.802C107.706 101.77 107.515 101.728 107.324 101.685C105.988 101.388 104.865 100.943 103.473 100.699C103.462 100.816 103.439 100.943 103.406 101.07C103.271 101.569 103.069 102.088 103.069 102.088C103.091 102.099 103.226 102.152 103.372 102.205C103.574 102.29 103.81 102.385 103.855 102.396C103.428 103.265 103.024 104.198 102.608 105.121C102.474 105.386 102.35 105.662 102.215 105.927C102.171 106.043 102.114 106.149 102.058 106.255C101.755 106.86 101.441 107.433 101.093 107.963C100.666 108.61 100.239 109.119 99.8914 109.447C99.3862 109.893 98.9146 110.264 98.4655 110.55C97.7357 111.027 97.0958 111.271 96.5569 111.271C96.4895 111.271 96.4109 111.271 96.3435 111.261C96.2874 111.25 96.2537 111.239 96.2088 111.229C95.6923 111.091 95.4566 110.571 95.5576 109.808C95.625 109.288 95.8495 108.45 96.2762 107.316C96.4221 106.913 96.5793 106.51 96.7589 106.118C96.8151 105.99 96.86 105.863 96.9274 105.736C97.0172 105.545 97.107 105.344 97.1968 105.153C97.6796 104.145 98.2073 103.159 98.735 102.173C98.7687 102.099 98.8136 102.024 98.8472 101.95C98.9932 101.993 99.5658 102.088 99.7005 102.131L100.419 100.36C99.9475 100.275 99.3862 100.148 98.7687 99.9991C97.1856 99.628 95.3106 99.1402 94.098 98.9175C94.0756 99.0448 94.0644 99.1508 94.0419 99.2569C93.997 99.6068 93.9633 99.8613 93.8959 100.285C93.9858 100.307 95.0187 100.837 95.0973 100.858C95.0187 100.996 94.9401 101.134 94.8615 101.282C94.7492 101.484 94.6257 101.685 94.5247 101.897C94.0419 102.777 93.5928 103.721 93.1774 104.729C93.1549 104.792 93.1325 104.856 93.11 104.919C93.0539 105.068 92.9978 105.216 92.9416 105.365C92.8855 105.503 92.8293 105.64 92.7844 105.789C92.0659 107.687 91.2575 110.02 91.7515 111.971C91.8975 112.544 92.1445 113.084 92.5486 113.572C92.7844 113.827 93.0427 114.039 93.3009 114.187C93.5591 114.346 93.8735 114.463 94.244 114.548C94.3001 114.558 94.3338 114.558 94.39 114.569C94.491 114.58 94.6033 114.59 94.7043 114.59C94.9962 114.59 95.2769 114.548 95.5576 114.484C96.3099 114.304 97.0284 113.912 97.6908 113.424C97.9378 113.243 98.1736 113.042 98.4094 112.841C98.4206 112.83 98.4431 112.819 98.4543 112.798C98.6227 112.65 98.7911 112.491 98.9595 112.342C99.3413 111.971 99.6893 111.6 100.004 111.271C99.7791 112.385 99.6893 112.957 99.5658 114.102C99.4311 114.102 98.8136 114.071 98.6901 114.071C98.488 114.611 98.3981 114.887 98.2185 115.438C99.083 115.555 99.9138 115.661 100.745 115.757C101.385 115.831 102.036 115.905 102.687 115.99C102.721 116.001 102.743 116.001 102.777 116.001C103.125 116.043 103.473 116.096 103.821 116.138C103.754 115.375 103.731 114.993 103.709 114.24H103.17C103.945 111.462 104.955 108.79 106.044 106.128C106.089 106.022 106.134 105.927 106.179 105.821C106.313 105.503 106.448 105.174 106.583 104.845C106.774 104.4 106.953 103.965 107.144 103.53C107.245 103.562 107.919 103.742 108.02 103.764C108.357 103.074 108.537 102.724 108.873 102.035C108.806 102.014 108.559 101.961 108.334 101.908ZM89.8316 99.5326C89.1018 98.3237 87.878 97.5602 86.1602 97.2421C85.9469 97.1997 85.7336 97.1785 85.5203 97.1679C85.3855 97.1573 85.262 97.1573 85.1273 97.1573C84.6558 97.1573 84.2066 97.2209 83.7576 97.3163C82.9379 97.5072 82.152 97.8253 81.3773 98.1965C80.9395 98.3979 80.5128 98.6312 80.0862 98.8433C80.1086 98.7797 80.2771 98.4616 80.4679 98.0692C80.423 98.0692 80.3781 98.0586 80.322 98.0586C80.3893 98.0268 80.4567 98.0056 80.5241 97.9738C80.6139 97.7829 80.7149 97.5814 80.8047 97.38C80.9058 97.1467 80.9956 96.9346 81.0518 96.7437C80.3332 96.7119 79.6146 96.6907 78.9073 96.6589C77.7172 96.6165 76.5383 96.5741 75.3594 96.5316C75.3482 96.6059 75.3482 96.6801 75.337 96.7543C75.2921 97.1149 75.2584 97.4118 75.2135 97.7087C75.1798 98.0056 75.1349 98.3131 75.09 98.7055C75.337 98.6842 75.4717 98.6842 75.7187 98.6736C75.4605 99.3629 75.2135 100.042 74.9552 100.731C74.8767 100.953 74.7981 101.176 74.7082 101.399C74.4949 102.003 74.2816 102.608 74.0683 103.202C73.956 103.52 73.8549 103.848 73.7427 104.166C73.7202 104.198 73.7202 104.23 73.6978 104.262C73.6079 104.548 73.5069 104.824 73.4171 105.11C73.3834 105.216 73.3497 105.312 73.316 105.418C72.6312 107.475 72.0249 109.532 71.5084 111.621C70.8011 114.463 70.2734 117.358 70.0152 120.369C69.7906 120.359 68.9598 120.348 68.7352 120.327C68.5556 121.366 68.477 121.896 68.3647 122.978C69.9366 122.957 71.8228 122.946 73.6192 122.935H73.7314C73.8662 122.925 74.0009 122.925 74.1356 122.925H74.6858C75.191 122.925 75.6738 122.914 76.1229 122.914C76.078 122.522 76.0555 122.225 76.0219 121.928C75.9882 121.578 75.9657 121.249 75.932 120.794C75.7412 120.783 75.6401 120.772 75.438 120.762C75.3594 118.577 75.4717 116.393 75.7187 114.219C75.7299 114.081 75.7524 113.943 75.7636 113.805C75.8198 113.318 75.8871 112.819 75.9545 112.332C76.4373 112.363 76.673 112.385 77.1558 112.427C77.6947 112.459 78.2 112.491 78.6828 112.491C79.3227 112.491 79.8953 112.448 80.3893 112.363C81.4223 112.183 82.3654 111.865 83.2186 111.462C83.2972 111.42 83.3758 111.388 83.4432 111.345C84.0607 111.048 84.6782 110.709 85.262 110.317C87.137 109.087 88.7426 107.443 89.506 105.375C89.5622 105.195 89.6183 105.047 89.6744 104.898C89.7081 104.782 89.753 104.675 89.7867 104.58C89.8765 104.326 89.9327 104.124 89.9776 103.976C90.2695 103.011 90.393 102.152 90.3593 101.399C90.3256 100.678 90.1572 100.063 89.8316 99.5326ZM85.6774 103.976C85.6774 103.976 85.6438 104.082 85.6325 104.135C85.6213 104.177 85.6101 104.198 85.6101 104.209C85.554 104.368 85.4978 104.538 85.4304 104.729C84.8466 106.171 83.8137 107.295 82.3429 108.09C82.051 108.249 81.7254 108.387 81.3998 108.493C81.0405 108.62 80.6476 108.716 80.2321 108.769C79.8504 108.822 79.4462 108.853 79.0308 108.853C78.7838 108.853 78.5256 108.843 78.2561 108.822C77.6947 108.79 77.1895 108.716 76.7292 108.61L76.1341 108.482L76.3025 107.941C76.572 107.03 76.8751 106.086 77.2007 105.131C77.459 104.326 77.7621 103.445 78.1551 102.364C78.1775 102.279 78.4919 101.208 79.1543 101.091C80.5241 100.847 80.7374 100.837 81.164 100.741C81.7254 100.604 82.2194 100.54 82.6685 100.54C82.7695 100.54 82.8706 100.551 82.9604 100.551C83.6004 100.604 84.1281 100.784 84.5323 101.113C85.7897 102.141 85.8459 103.244 85.6774 103.976ZM71.3961 97.8359C71.2277 96.8286 70.8123 95.853 69.9927 94.9729C69.2629 94.1458 68.2861 93.6898 67.2644 93.4247C66.5234 93.2338 65.76 93.149 65.0302 93.096C64.9853 93.0854 64.9404 93.0854 64.8954 93.0748C64.6934 93.0642 64.4913 93.0642 64.2892 93.0642C63.2113 93.0642 62.0661 93.255 60.9658 93.5413C60.5953 93.6368 60.2361 93.7428 59.8656 93.8701C56.43 94.9941 53.275 96.9134 50.6927 99.2569C50.6029 99.3417 50.5131 99.4159 50.4345 99.5008C49.6037 100.264 48.8065 101.081 48.0767 101.929C48.0206 101.982 47.9645 102.046 47.9195 102.109C47.796 102.247 47.6725 102.396 47.5603 102.544C46.4038 103.986 45.4607 105.545 44.9555 107.263C44.2706 109.628 44.0124 112.151 45.4046 114.516C45.8874 115.311 46.5947 115.979 47.4929 116.541C48.6493 117.262 50.0528 117.676 51.6358 117.697H52.186C52.3095 117.687 52.4218 117.687 52.534 117.676C52.6575 117.676 52.7698 117.665 52.8933 117.655C53.0056 117.644 53.1179 117.634 53.2189 117.623H53.2414C53.3649 117.602 53.4771 117.591 53.6006 117.581C53.7129 117.559 53.8364 117.549 53.9487 117.527C54.0385 117.517 54.1171 117.496 54.2069 117.485C54.3529 117.453 54.4988 117.421 54.6448 117.39C54.8132 117.358 54.9816 117.326 55.15 117.284C55.3297 117.241 55.5093 117.188 55.6889 117.135C55.8686 117.082 56.0482 117.029 56.2279 116.976C57.6425 116.51 59.0123 115.852 60.2473 115.067C61.2465 114.442 62.0661 113.869 62.7173 113.339C62.7735 113.307 62.8184 113.254 62.8745 113.222C65.4568 110.942 67.8707 108.419 69.4762 105.534C69.5324 105.428 69.5885 105.322 69.6447 105.216C69.7345 105.047 69.8131 104.888 69.9029 104.718C69.959 104.612 70.0152 104.495 70.0601 104.379C70.3183 103.827 70.5429 103.255 70.7337 102.671C70.7786 102.523 70.8348 102.385 70.8797 102.237C71.0369 101.717 71.1716 101.197 71.2726 100.667C71.4635 99.7234 71.5421 98.7691 71.3961 97.8359ZM62.4142 101.462C62.3693 101.611 62.3244 101.749 62.2682 101.887C62.1223 102.311 61.9426 102.735 61.7181 103.18C61.4823 103.658 61.2016 104.145 60.8872 104.612C60.7637 104.792 60.6627 104.951 60.5616 105.078C60.4718 105.206 60.3708 105.344 60.2361 105.503C59.2817 106.743 58.1028 107.888 56.7331 108.896C55.2398 109.988 54.061 110.518 53.1066 110.518H53.0393C52.5677 110.508 52.1411 110.37 51.7706 110.126C51.7481 110.105 51.7144 110.094 51.6807 110.062C50.8611 109.362 50.7376 108.175 51.2878 106.521C51.5236 105.831 51.8828 105.1 52.3432 104.357C52.4442 104.188 52.5677 104.007 52.6912 103.817C52.8147 103.658 52.9382 103.477 53.0729 103.308C53.0954 103.265 53.1179 103.244 53.1403 103.212L53.174 103.17C54.0161 102.078 55.0602 101.028 56.1156 100.222L56.1717 100.179C56.1717 100.179 56.2728 100.105 56.3064 100.073C56.9352 99.6068 57.5302 99.2357 58.0916 98.9387C58.9674 98.4934 59.7645 98.2389 60.528 98.1753H61.1118C61.4262 98.1965 61.7293 98.3767 62.111 98.7691H62.1223V98.7903C62.6612 99.4159 62.7622 100.285 62.4142 101.462ZM42.8335 103.403C42.8335 103.403 42.7886 103.318 42.7661 103.276C41.8455 101.738 40.0379 101.25 38.3538 100.794C38.0843 100.752 37.8036 100.72 37.5229 100.699C37.3657 100.688 37.2086 100.688 37.0514 100.688C35.7827 100.688 34.5813 100.932 33.4249 101.293C32.3134 101.643 31.2243 102.099 30.1353 102.576C30.2139 102.417 30.2475 102.343 30.3374 102.194C30.4945 102.194 30.5731 102.194 30.7303 102.173C30.91 101.749 31.0335 101.441 31.1682 101.123C31.2917 100.858 31.404 100.582 31.5612 100.222C28.9452 100.169 26.3179 100.126 23.7019 100.105C23.6683 100.317 23.6346 100.498 23.6009 100.678C23.4886 101.314 23.41 101.781 23.2753 102.555C23.6346 102.533 23.8142 102.523 24.1623 102.502C22.9946 104.983 21.8382 107.475 20.7042 109.967C18.6945 114.368 16.7409 118.789 14.8884 123.254C14.4618 124.293 14.0351 125.332 13.6197 126.382C13.3502 126.35 12.8675 126.011 12.598 125.989C12.0591 127.018 11.7896 127.527 11.2507 128.545C12.2387 128.609 13.2716 128.704 14.3158 128.81C14.8772 128.874 15.4498 128.937 16.0111 129.001C17.4483 129.16 18.8854 129.319 20.2439 129.415C20.446 128.524 20.5583 128.078 20.7716 127.188C20.5358 127.156 20.4235 127.145 20.1878 127.124C20.4909 126.074 20.8165 125.024 21.1533 123.985C21.5575 122.745 21.9729 121.493 22.3996 120.263C22.6578 119.489 22.9272 118.726 23.2079 117.962C23.8142 118.005 24.1061 118.026 24.7124 118.068C25.4534 118.132 26.1608 118.164 26.8119 118.164C27.5417 118.164 28.2041 118.121 28.8104 118.036C28.9788 118.015 29.1585 117.983 29.3269 117.952C30.5956 117.74 31.7857 117.379 32.8748 116.923C35.3785 115.947 37.6801 114.516 39.4877 112.65C40.2961 111.833 40.9922 110.921 41.576 109.924C42.0027 109.15 42.2721 108.631 42.4069 108.334C42.957 106.796 43.7092 104.983 42.8335 103.403ZM36.7707 108.546C35.895 110.433 34.2557 112.013 32.1338 113C30.8875 113.583 29.4392 113.88 27.8224 113.88H27.4407C27.2723 113.88 27.1039 113.869 26.9354 113.859C26.2393 113.816 25.5882 113.742 25.0156 113.636L24.3195 113.509L24.6001 112.894C25.678 110.561 26.767 108.207 27.7887 106.001L27.8898 105.789L28.1256 105.715C28.2603 105.662 28.4062 105.619 28.541 105.577L28.6308 105.545L28.7431 105.513C30.2588 105.015 31.8194 104.495 33.4474 104.495C33.5596 104.495 33.6719 104.506 33.7954 104.506C34.5701 104.548 35.1988 104.739 35.6929 105.1C37.3208 106.33 37.1749 107.645 36.7707 108.546ZM88.518 168.639C88.2934 168.575 88.0464 168.564 87.7882 168.586C87.4514 168.607 87.1033 168.67 86.7553 168.702H86.396C83.9035 168.575 79.0308 167.408 80.5465 164.026C81.3212 162.276 78.4919 161.237 78.9073 159.116C79.1318 158.024 77.8856 158.374 76.5383 157.42C75.2247 160.516 73.7764 163.835 75.831 166.539C76.6955 167.695 77.7397 168.776 79.0757 169.497C80.6251 170.325 82.1857 171.173 83.4207 172.371C83.9709 172.901 84.3863 173.527 84.7007 174.227C84.8017 174.227 84.9028 174.227 85.0038 174.248C85.2957 174.259 85.5764 174.28 85.8683 174.29C86.1827 174.312 86.5083 174.322 86.8339 174.333C87.1482 174.343 87.4738 174.354 87.7994 174.365C87.2156 173.4 86.6206 171.947 86.6206 171.258C86.6206 170.367 87.7321 169.519 88.518 168.639ZM111.175 149.53C111.175 149.53 111.13 149.456 111.119 149.424C109.345 145.872 110.456 141.217 107.29 138.258C105.382 136.487 103.552 134.621 101.8 132.702C101.609 132.479 101.407 132.267 101.205 132.044C101.138 131.97 101.059 131.885 100.992 131.8C99.4984 130.125 97.0284 127.845 94.3675 128.025C93.4805 128.089 92.5599 128.428 91.6617 129.149C90.988 129.68 90.3032 130.22 89.5846 130.74C88.7089 131.397 87.8107 132.044 86.9013 132.702C85.1273 133.964 83.3197 135.225 81.5682 136.509C81.1416 136.827 80.7037 137.145 80.2883 137.463C79.4462 138.099 78.6491 138.82 77.9305 139.605C77.1783 140.421 76.4934 141.291 75.8984 142.203C74.9889 143.56 74.2591 145.002 73.7427 146.423C73.0803 148.226 74.9216 148.332 76.2015 148.247C76.5158 148.226 76.8078 148.194 76.9986 148.173C77.7846 147.388 78.5817 146.625 79.3901 145.872C80.7823 144.578 82.2194 143.338 83.7126 142.129C85.4754 140.718 87.2156 139.287 88.9222 137.823C90.6849 136.509 92.3915 135.872 94.0419 135.756C96.4783 135.597 98.7911 136.572 100.958 138.195C102.541 139.329 103.956 140.612 105.337 141.927C105.584 142.182 105.572 142.988 105.292 143.009C105.269 143.009 105.247 143.009 105.213 142.998C103.866 142.426 102.485 141.885 101.25 141.132C99.4984 140.082 97.7133 139.128 95.7372 138.428C95.131 138.226 94.5247 138.152 93.9408 138.195C92.3915 138.301 90.9319 139.138 89.6295 140.103C87.2381 141.895 82.7246 145.066 79.9739 148.343C78.4582 150.124 77.4702 151.948 77.6386 153.592C77.7621 154.885 79.2666 155.574 80.4118 156.168C81.3661 155.193 82.3092 154.196 83.3085 153.252C83.6453 152.945 83.9821 152.637 84.3189 152.34C85.6775 151.174 86.7777 149.668 88.0015 148.512C89.2253 147.356 91.0554 146.042 92.9416 145.914C93.1998 145.893 93.4693 145.893 93.7275 145.925C97.1407 146.614 100.049 148.152 102.822 149.933C103.136 150.135 103.439 150.495 103.473 150.781V150.845C103.462 151.089 103.248 151.598 102.945 151.619C102.912 151.619 102.878 151.609 102.833 151.598C102.361 151.418 101.89 151.227 101.396 151.036C98.8809 150.029 96.1302 148.862 93.4918 148.417C93.2672 148.374 93.0202 148.364 92.7507 148.374C92.0434 148.427 91.2014 148.693 90.494 149.329C89.2253 150.463 87.9791 151.63 86.7777 152.828C85.4978 154.111 84.2628 155.426 83.0951 156.773C82.0398 157.992 81.1977 160.314 83.2074 160.866C85.6325 159.031 88.5068 156.391 91.5943 156.179C91.8526 156.168 92.1108 156.168 92.369 156.179C95.4004 156.391 98.241 157.483 100.868 158.703C101.171 158.84 100.98 159.657 100.7 159.678C99.8689 159.646 99.0157 159.615 98.2073 159.371C96.1078 158.745 94.0756 158.204 91.8189 158.278C91.774 158.278 91.7178 158.278 91.6729 158.289C89.1131 158.448 86.0816 161.014 84.3414 162.785C83.2186 163.941 83.1737 165.521 84.4873 166.263C85.2733 166.709 86.295 166.846 87.3391 166.783C88.1812 166.719 89.012 166.528 89.7418 166.242C95.1983 164.864 95.2545 164.768 97.3203 165.829C97.6235 165.977 97.601 166.316 97.4999 166.507C97.4438 166.613 97.3203 166.666 97.1744 166.666C96.7926 166.698 95.1422 166.359 93.0314 167.186C91.482 167.546 90 168.692 89.2815 169.9C88.5292 171.205 88.3384 172.095 88.5629 173.538C88.5966 173.792 88.6976 174.1 88.765 174.375C89.1467 174.386 89.5285 174.386 89.9102 174.386C92.6048 174.386 95.2769 174.259 97.9154 174.004C98.7799 173.919 99.6332 173.824 100.486 173.707C100.778 173.675 101.082 173.633 101.373 173.591C101.665 173.548 101.946 173.506 102.238 173.463C103.114 171.936 103.877 170.388 104.517 168.745C105.168 167.048 105.707 165.489 107.178 164.174C109.569 162.064 108.784 158.703 108.75 156.211C108.739 155.977 108.918 155.818 109.098 155.808C109.12 155.808 109.154 155.808 109.188 155.808C109.727 155.967 109.895 156.698 110.378 156.921C110.445 156.953 110.513 156.953 110.591 156.953C111.265 156.911 111.95 155.309 112.163 154.758C112.893 152.934 111.972 151.047 111.186 149.52L111.175 149.53Z" fill="var(--fill-0, #F4F4F4)"/>
</g>
</g>
</svg>
