<svg width="687" height="596" viewBox="0 0 687 596" fill="none" xmlns="http://www.w3.org/2000/svg">
<path d="M119.799 4.33368C120.303 4.18162 121.077 4.04094 121.985 4.2243C122.967 4.42277 123.803 4.94034 124.407 5.63153C125.419 6.7909 125.512 8.1152 125.536 8.49091C125.597 9.47318 125.398 10.5497 125.251 11.277C125.078 12.1345 124.832 13.1517 124.567 14.2233C123.479 18.6231 121.858 24.8773 121.486 31.3249C121.11 37.8349 122.065 43.755 125.39 47.946C128.422 51.768 134.115 54.9869 145.134 55.0573C150.222 49.4568 150.433 43.811 149.815 39.1599C149.644 37.8726 149.408 36.6708 149.173 35.5124C148.955 34.4374 148.694 33.203 148.574 32.1559C148.48 31.3369 148.288 29.4582 149.248 27.7673C149.836 26.7339 150.754 25.9342 151.898 25.4997C152.805 25.1552 153.682 25.104 154.388 25.1462L154.68 25.1696L154.704 25.1725L154.729 25.1745C157.996 25.5361 161 27.3786 163.572 29.4655C166.222 31.6164 168.91 34.4422 171.56 37.487C174.22 40.5442 176.969 43.9722 179.703 47.36C182.461 50.7772 185.219 54.1741 187.986 57.2966C193.694 63.739 198.799 68.2374 203.178 69.6188C205.16 70.244 206.83 70.1747 208.416 69.4431C210.105 68.6644 212.15 66.9251 214.364 63.362L214.365 63.361C218.656 56.4587 219.462 47.0524 216.161 38.1921V38.1911C215.33 35.9596 215.631 33.4101 217.025 31.4343V31.4333C218.28 29.6552 220.318 28.5134 222.586 28.5134L222.828 28.5182C222.906 28.5213 222.981 28.5258 223.052 28.5309L223.429 28.5681L223.441 28.57L223.453 28.571C233.038 29.8255 240.989 32.6101 247.593 37.2761C247.813 32.3829 248.387 27.4102 250.453 22.7409C252.912 17.1812 257.282 12.4603 264.578 8.47235L264.59 8.46649C265.58 7.92953 266.68 7.65011 267.796 7.65009C268.53 7.65009 269.256 7.77074 269.949 8.00555L270.244 8.11298L270.25 8.11591C272.092 8.8409 273.467 10.3099 274.161 12.0495L274.163 12.0544C276.99 19.1597 282.764 25.3825 289.659 32.2487C293.37 35.8204 296.815 39.1894 300.098 42.4597L303.346 45.7155L303.398 45.7682L303.443 45.8171L303.445 45.819C303.451 45.8259 303.546 45.9267 303.657 46.0544L303.659 46.0534C304.518 47.0429 305.418 48.1177 306.319 49.2858C306.847 48.2047 307.648 47.2477 308.696 46.5417L308.911 46.402C309.999 45.7231 311.231 45.3845 312.461 45.3845C313.464 45.3845 314.483 45.6089 315.436 46.0837H315.437C323.525 50.084 328.724 54.691 332.692 60.2839C336.355 65.4474 338.9 71.3937 341.734 77.8552C346.534 70.888 353.99 63.1119 363.566 62.0827L363.574 62.0817H363.582C363.818 62.0573 364.054 62.0456 364.279 62.0456L364.599 62.0534C366.09 62.125 367.494 62.6928 368.617 63.6345L368.853 63.8425L368.859 63.8474C370.237 65.1188 371.034 66.8754 371.15 68.6989V68.6999C371.359 72.0082 372.279 75.5127 373.892 79.0368C376.683 72.3454 380.057 66.4673 384.016 61.5075L384.017 61.5065C393.085 50.1535 404.824 44.2116 418.703 44.2116H419.034L419.106 44.2126H419.18C419.265 44.2133 419.347 44.2147 419.435 44.2165C421.599 44.253 423.537 45.3243 424.776 46.9753C426.012 48.6234 426.456 50.709 426.092 52.6686L426.091 52.6745C426.008 53.1213 425.921 53.5721 425.833 54.027C426.826 53.2089 427.859 52.4523 428.934 51.7575C434.6 47.9429 440.187 44.0912 445.548 40.3171C455.135 33.2388 461.61 26.5315 466.736 18.53L466.737 18.527C467.862 16.7724 469.752 15.5378 471.957 15.3669L471.977 15.3649L471.996 15.364C472.023 15.3621 472.079 15.3584 472.138 15.3552L472.165 15.3532L472.203 15.3522L472.228 15.3503L472.253 15.3493L472.28 15.3483H472.305L472.33 15.3474L472.351 15.3464H472.38L472.41 15.3454H472.476C474.489 15.3454 476.341 16.2494 477.611 17.7233C483.697 24.775 486.388 31.8557 487.063 38.9548C487.605 44.6662 486.822 50.2458 485.709 55.5495C492.739 50.9521 500.666 47.8869 509.834 46.1159C510.294 46.024 510.73 45.9899 511.127 45.9899L511.354 45.9938C513.691 46.0726 515.761 47.3631 516.947 49.3024L516.949 49.3054C518.312 51.5386 518.362 54.3605 517.105 56.6364L516.979 56.8552C512.521 64.292 510.572 75.0983 511.945 86.2516C512.231 86.3027 512.569 86.3376 512.97 86.3376C515.635 86.3375 519.295 85.0199 523.13 82.3249C526.892 79.6815 530.406 75.9972 532.809 71.9265L533.062 71.4899C535.656 66.923 537.584 60.7256 534.83 54.2497C533.891 52.0424 534.09 49.4716 535.4 47.4372C536.63 45.5256 538.748 44.2664 541.13 44.2663C541.148 44.2663 541.401 44.2641 541.709 44.2927L541.71 44.2917C551.727 45.1654 559.803 47.6326 566.469 52.239C566.471 52.193 566.473 52.1471 566.474 52.1013V52.0964C566.595 44.9335 568.337 34.3901 571.22 26.321C572.631 22.3723 574.504 18.4617 576.995 15.9431C578.28 14.6443 580.002 13.4389 582.174 13.0915C584.463 12.7256 586.6 13.4137 588.398 14.7106L588.758 14.9704L589.055 15.3005C639.864 71.8347 684.479 155.685 682.361 256.932C678.468 442.998 520.041 590.924 342.563 590.924C154.586 590.923 13.6217 441.223 4.14197 257.058L4.13708 256.952V256.845C4.13709 162.354 39.3313 64.4677 117.025 6.17938C117.298 5.90313 117.588 5.63001 117.889 5.38544C118.21 5.12462 118.882 4.6106 119.799 4.33368Z" fill="#E20000" stroke="#FFF100" stroke-width="8.27386"/>
</svg>
