<svg preserveAspectRatio="none" width="100%" height="100%" overflow="visible" style="display: block;" viewBox="0 0 459 409" fill="none" xmlns="http://www.w3.org/2000/svg">
<g id="Background">
<path id="Background_2" fill-rule="evenodd" clip-rule="evenodd" d="M372.058 12.7169C373.256 9.91937 375.297 7.4116 379.046 5C382.806 12.24 388.94 18.3886 394.743 23.9524C394.754 23.9628 394.764 23.9735 394.775 23.9837C399.165 28.0497 403.507 32.1511 407.777 36.2967C411.324 40.236 413.851 43.8972 415.183 48.4072C415.387 49.0977 415.908 49.677 416.613 49.9979C417.318 50.3187 418.142 50.3509 418.875 50.0869C422.369 48.8293 424.176 46.4685 425.059 43.9607C425.458 42.8268 425.675 41.6365 425.801 40.4909C434.017 45.3895 450.844 52.4903 455 60.464V339.85C452.893 335.289 439.235 331.026 435.736 327.248C435.069 326.527 434.012 326.206 433 326.417C432.051 326.614 431.291 327.247 430.991 328.077L430.937 328.245C428.592 336.684 424.692 346.402 418.391 353.915C412.748 360.643 405.279 365.509 395.225 366.253C396.314 360.787 397.452 353.749 392.848 347.96C392.272 347.236 391.315 346.845 390.334 346.932C389.353 347.02 388.498 347.573 388.089 348.385C385.632 353.272 382.374 357.854 377.536 360.842L377.485 360.874C372.033 364.407 366.623 367.988 361.264 371.626L361.216 371.659C353.034 377.469 346.242 383.605 340.643 391.14C337.84 387.26 336.533 383.54 336.121 379.739C335.599 374.925 336.493 369.845 337.939 363.876C339.075 359.188 338.187 355.074 336.694 350.925C336.388 350.076 335.605 349.438 334.639 349.253C333.733 349.079 332.796 349.328 332.138 349.908L332.011 350.028C325.462 356.623 317.992 360.963 308.591 363.511C309.874 360.284 310.184 357.408 309.68 354.615C308.981 350.742 306.738 347.314 304.425 343.779L304.269 343.541L304.245 343.504C304.006 343.138 303.669 342.835 303.266 342.621L303.09 342.535L302.671 342.353C293.852 338.638 283.199 341.04 276.344 346.328C272.811 349.053 270.104 352.672 269.176 356.866C268.549 359.701 268.759 362.692 269.956 365.706C261.688 364.362 255.268 361.404 250.115 355.6C249.545 354.958 248.663 354.611 247.757 354.672C246.906 354.729 246.136 355.137 245.665 355.774L245.575 355.904C243.338 359.366 241.258 363.054 241.058 367.561L241.045 367.999C240.943 373.892 240.3 378.715 238.451 383.069C236.957 386.586 234.628 389.907 230.964 393.267C227.135 386.529 221.93 381.215 215.238 376.071L215.164 376.018L211.798 373.613C208.426 371.215 205.041 368.832 201.645 366.463L201.633 366.453L201.286 366.208C197.748 363.646 195.574 360.103 194.449 356.178C194.218 355.373 193.559 354.724 192.692 354.447C191.879 354.187 190.982 354.287 190.265 354.71L190.124 354.799C184.54 358.556 183.572 364.528 183.251 369.255C180.867 368.603 178.096 367.478 175.079 365.969C170.789 363.824 166.236 361.028 161.953 358.109C157.675 355.195 153.709 352.188 150.596 349.644C147.418 347.046 145.298 345.065 144.569 344.176C143.751 343.178 142.462 343.146 141.225 343.253C141.22 343.254 141.215 343.254 141.21 343.255C140.168 343.345 139.052 343.422 138.307 344.183L138.122 344.394C137.735 344.887 136.484 346.901 134.977 349.613C133.422 352.41 131.49 356.14 129.736 360.18C127.988 364.207 126.385 368.616 125.531 372.754C125.006 375.298 124.729 377.894 124.966 380.299C116.197 378.653 109.434 375.334 103.988 369.231C103.485 368.668 102.737 368.33 101.937 368.304C101.137 368.278 100.364 368.567 99.8177 369.097C96.2608 372.545 95.2985 376.07 95.1973 379.53C95.046 384.668 94.6405 388.533 93.0939 391.802C91.8783 394.371 89.8766 396.725 86.3399 399C82.5763 391.753 76.4431 385.605 70.6441 380.046C70.6333 380.035 70.6217 380.025 70.6107 380.014C66.2211 375.948 61.8781 371.846 57.6079 367.7C54.0616 363.762 51.5344 360.1 50.2028 355.591C49.9989 354.9 49.4785 354.321 48.7732 354C48.1562 353.72 47.4491 353.66 46.7907 353.826L46.5121 353.911C43.0179 355.169 41.2103 357.529 40.3271 360.036C39.9092 361.223 39.6882 362.471 39.5659 363.666C31.28 359.472 23.1577 354.504 16.7576 348.824C9.37169 342.27 4.51512 334.984 4 327.031V59.5871C7.46876 57.255 12.0622 55.4303 18.0944 54.4904C19.3464 62.6886 23.7718 70.4024 29.6502 76.7503C30.3174 77.4708 31.3742 77.7916 32.3864 77.5813C33.3986 77.371 34.1953 76.665 34.4488 75.7531C36.7944 67.3141 40.6948 57.5958 46.9958 50.083C52.6385 43.3552 60.1071 38.4888 70.1604 37.7436C69.0708 43.2104 67.9334 50.249 72.5381 56.0381C73.114 56.7621 74.0722 57.1543 75.0529 57.0666C76.0335 56.9789 76.8883 56.4247 77.2967 55.6128C79.7544 50.7264 83.0123 46.1438 87.8505 43.1561C87.8677 43.1455 87.8854 43.1348 87.9023 43.1238C93.3543 39.5911 98.764 36.0101 104.123 32.3722C104.139 32.3614 104.155 32.3501 104.17 32.339C112.353 26.5289 119.144 20.3926 124.743 12.8567C127.546 16.737 128.854 20.4581 129.267 24.2594C129.789 29.0735 128.893 34.1542 127.447 40.1233C126.311 44.8107 127.199 48.9246 128.692 53.0727C128.998 53.9227 129.782 54.5604 130.748 54.7456C131.714 54.9307 132.716 54.6351 133.376 53.9703C139.925 47.375 147.394 43.0337 156.795 40.486C155.511 43.7136 155.202 46.5894 155.706 49.383C156.405 53.2569 158.649 56.6863 160.963 60.2222L161.116 60.4562L161.141 60.4934C161.414 60.9114 161.816 61.2484 162.297 61.4632C171.196 65.4349 182.079 63.043 189.043 57.6708C192.576 54.946 195.283 51.3266 196.211 47.1323C196.838 44.297 196.626 41.3052 195.429 38.2911C203.698 39.6348 210.118 42.5938 215.271 48.3984C215.841 49.04 216.723 49.387 217.63 49.3263C218.536 49.2655 219.353 48.8049 219.812 48.0944C222.121 44.5211 224.263 40.7066 224.342 36.0004C224.444 30.1067 225.087 25.2832 226.936 20.9294C228.43 17.4122 230.758 14.0914 234.422 10.7312C238.251 17.4692 243.457 22.7831 250.149 27.9267C250.173 27.945 250.197 27.9629 250.222 27.9805C254.704 31.1937 259.221 34.3808 263.748 37.5402C267.49 40.1194 269.777 43.7687 270.938 47.8196C271.169 48.6253 271.828 49.2744 272.695 49.5511C273.562 49.8278 274.525 49.6956 275.263 49.1992C280.848 45.4419 281.814 39.4688 282.135 34.7421C284.519 35.394 287.29 36.5201 290.307 38.0291C294.597 40.1742 299.15 42.9703 303.433 45.8887C307.711 48.8031 311.678 51.8107 314.79 54.3555C317.969 56.9537 320.089 58.9342 320.818 59.8227C321.399 60.5307 322.348 60.9094 323.318 60.8199C323.583 60.7954 323.803 60.776 324.011 60.758L324.288 60.7339C324.585 60.7081 324.888 60.6812 325.291 60.6439C326.084 60.5708 326.803 60.1915 327.264 59.6037C327.651 59.1109 328.902 57.0972 330.41 54.3848C331.964 51.5884 333.896 47.8583 335.65 43.818C337.398 39.7908 339.001 35.3825 339.855 31.244C340.38 28.6997 340.656 26.1039 340.419 23.6982C349.189 25.3437 355.952 28.6634 361.398 34.7666C361.901 35.3302 362.65 35.6685 363.45 35.6944C364.249 35.7203 365.022 35.431 365.568 34.9015C369.125 31.4527 370.088 27.9277 370.189 24.4677C370.332 19.6066 370.702 15.8827 372.058 12.7169Z" fill="var(--fill-0, #FFCE00)" stroke="var(--stroke-0, #FF0C0C)" stroke-width="8" stroke-linejoin="round"/>
</g>
</svg>
