<svg preserveAspectRatio="none" width="100%" height="100%" overflow="visible" style="display: block;" viewBox="0 0 170 172" fill="none" xmlns="http://www.w3.org/2000/svg">
<g id="Instagram">
<path d="M0 29C0 12.9837 12.9837 0 29 0H141C157.016 0 170 12.9837 170 29V143C170 159.016 157.016 172 141 172H29C12.9837 172 0 159.016 0 143V29Z" fill="#E20000"/>
<path d="M86.7721 73.3491C79.8674 73.3491 74.2648 78.9982 74.2648 85.9603C74.2648 92.9223 79.8674 98.5715 86.7721 98.5715C93.6768 98.5715 99.2795 92.9223 99.2795 85.9603C99.2795 78.9982 93.6768 73.3491 86.7721 73.3491Z" fill="var(--fill-0, #F4F4F4)"/>
<path d="M102.278 53.4977H70.5954C61.5601 53.4977 54.2214 60.8973 54.2214 70.0076V101.953C54.2214 111.064 61.5601 118.463 70.5954 118.463H102.278C111.313 118.463 118.652 111.064 118.652 101.953V70.0076C118.652 60.8973 111.313 53.4977 102.278 53.4977ZM86.7721 105.693C76.0008 105.693 67.2417 96.8611 67.2417 86.0004C67.2417 75.1396 76.0008 66.3078 86.7721 66.3078C97.5435 66.3078 106.303 75.1396 106.303 86.0004C106.303 96.8611 97.5435 105.693 86.7721 105.693ZM107.447 69.6496C104.882 69.6496 102.791 67.5411 102.791 64.9552C102.791 62.3693 104.882 60.2608 107.447 60.2608C110.011 60.2608 112.103 62.3693 112.103 64.9552C112.103 67.5411 110.011 69.6496 107.447 69.6496Z" fill="var(--fill-0, #F4F4F4)"/>
<path d="M86.4565 20C50.3154 20 21 49.5588 21 86C21 122.441 50.3154 152 86.4565 152C122.598 152 151.913 122.441 151.913 86C151.913 49.5588 122.598 20 86.4565 20ZM126.109 101.953C126.109 115.201 115.417 125.982 102.278 125.982H70.5954C57.4568 125.982 46.7644 115.201 46.7644 101.953V70.0072C46.7644 56.7595 57.4568 45.9783 70.5954 45.9783H102.278C115.417 45.9783 126.109 56.7595 126.109 70.0072V101.953Z" fill="var(--fill-0, #F4F4F4)"/>
</g>
</svg>
