<svg preserveAspectRatio="none" width="100%" height="100%" overflow="visible" style="display: block;" viewBox="0 0 170 172" fill="none" xmlns="http://www.w3.org/2000/svg">
<g id="Twitter">
<path d="M0 29C0 12.9837 12.9837 0 29 0H141C157.016 0 170 12.9837 170 29V143C170 159.016 157.016 172 141 172H29C12.9837 172 0 159.016 0 143V29Z" fill="#0E0AA5"/>
<path d="M69.6091 57.0886H60.2582L81.9586 88.3979L84.6811 92.2966L103.265 119.11H112.576L89.8103 86.2894L69.6091 57.0886Z" fill="var(--fill-0, #F4F4F4)"/>
<path d="M86.4565 22C50.3154 22 21 51.5588 21 88C21 124.441 50.3154 154 86.4565 154C122.598 154 151.913 124.441 151.913 88C151.913 51.5588 122.598 22 86.4565 22ZM100.384 123.486L81.6035 95.9168L58.0881 123.486H52.012L78.9205 91.9385L52.012 52.434H72.5288L90.3231 78.5316L112.615 52.434H118.692L93.0456 82.5099L120.941 123.447H100.424L100.384 123.486Z" fill="var(--fill-0, #F4F4F4)"/>
</g>
</svg>
