<svg preserveAspectRatio="none" width="100%" height="100%" overflow="visible" style="display: block;" viewBox="0 0 170 172" fill="none" xmlns="http://www.w3.org/2000/svg">
<g id="Facebook">
<path d="M0 29C0 12.9837 12.9837 0 29 0H141C157.016 0 170 12.9837 170 29V143C170 159.016 157.016 172 141 172H29C12.9837 172 0 159.016 0 143V29Z" fill="#0000CC"/>
<path d="M84.5 20C48.3348 20 19 49.519 19 86C19 122.481 48.3348 152 84.5 152C120.665 152 150 122.441 150 86C150 49.5588 120.665 20 84.5 20ZM110.281 53.2984H102.622C95.0811 53.2984 92.7122 58.0325 92.7122 62.8861V74.3834H109.571L106.886 92.0868H92.7122V134.933H73.682V92.0868H58.2447V74.3834H73.682V60.8969C73.682 45.5407 82.7628 37.0669 96.6603 37.0669C103.333 37.0669 110.281 38.2604 110.281 38.2604V53.3382V53.2984Z" fill="var(--fill-0, #F4F4F4)"/>
</g>
</svg>
