<svg width="430" height="196" viewBox="0 0 430 196" fill="none" xmlns="http://www.w3.org/2000/svg">
<path d="M445.682 -11.3328L445.719 -8.36987L447.2 109.986C447.966 112.578 448.369 115.195 448.369 117.818C448.369 119.325 448.234 120.818 447.974 122.296L448.675 122.093L446.763 126.889L446.647 127.249L446.614 127.263L446.4 127.802C442.515 137.554 433.081 146.315 419.892 153.97C406.626 161.67 389.165 168.481 368.587 174.146C327.417 185.479 273.359 192.332 214.419 192.332C155.479 192.332 101.79 185.478 60.9871 174.144C40.5925 168.478 23.3153 161.666 10.1873 153.963C-2.01893 146.801 -10.9652 138.678 -15.2493 129.692H-16.8821V125.507C-17.6473 122.993 -18.0451 120.426 -18.0452 117.818C-18.0452 115.207 -17.6465 112.603 -16.887 110.022L-18.3684 -8.29565L-18.4065 -11.3328H445.682Z" fill="#0000CC" stroke="#FFCE00" stroke-width="6"/>
</svg>
