<svg preserveAspectRatio="none" width="100%" height="100%" overflow="visible" style="display: block;" viewBox="0 0 716 716" fill="none" xmlns="http://www.w3.org/2000/svg">
<g id="Vector">
<path d="M695 358C695 544.12 544.12 695 358 695C171.88 695 21 544.12 21 358C21 171.88 171.88 21 358 21C544.12 21 695 171.88 695 358Z" fill="#040468"/>
<path d="M695 358C695 171.88 544.12 21 358 21C171.88 21 21 171.88 21 358C21 544.12 171.88 695 358 695C544.12 695 695 544.12 695 358ZM716 358C716 555.718 555.718 716 358 716C160.282 716 0 555.718 0 358C0 160.282 160.282 0 358 0C555.718 0 716 160.282 716 358Z" fill="var(--fill-0, #0E0AA5)"/>
</g>
</svg>
