<svg preserveAspectRatio="none" width="100%" height="100%" overflow="visible" style="display: block;" viewBox="0 0 50.2 63.4" fill="none" xmlns="http://www.w3.org/2000/svg">
<path id="1" d="M39.4004 1.5C41.6161 1.50004 43.5645 1.81325 44.8525 2.76758L44.8535 2.7666C44.8612 2.77195 44.8683 2.77879 44.876 2.78418C44.8885 2.7936 44.9026 2.80198 44.915 2.81152L44.9141 2.81348C46.3299 3.83359 46.7998 5.56238 46.7998 7.40039C46.7997 8.67295 46.457 9.85446 45.7646 10.9043L45.7656 10.9053C45.1369 11.8933 44.1395 12.7673 42.915 13.5596L42.8936 13.5732L42.8721 13.5859C42.5759 13.7637 42.3189 13.9351 42.0996 14.0996L42.0664 14.125L42.0322 14.1484C41.8934 14.241 41.8083 14.3128 41.7607 14.3604L41.6855 14.4365L41.5996 14.5C41.5192 14.5604 41.4218 14.6599 41.3164 14.8252C41.2447 14.9811 41.15 15.2342 41.042 15.6123L41.0039 15.7461L40.9414 15.8711C40.9498 15.8543 40.9421 15.867 40.9229 15.9248C40.9128 15.9549 40.9034 15.9928 40.8906 16.0381C40.8733 16.292 40.8296 16.5445 40.7715 16.79L40.4551 18.4307C39.7309 22.2615 39.1084 26.1181 38.5869 30C38.0626 34.3325 37.7998 38.7325 37.7998 43.2002C37.7998 44.2472 37.8638 45.0784 37.9766 45.7129C38.0925 46.3647 38.2432 46.7114 38.3477 46.8682C38.3966 46.9415 38.4759 47.0245 38.5996 47.1094V46.8193L40.5742 47.4766C40.6296 47.495 40.67 47.5 40.7002 47.5C40.9756 47.5 41.2456 47.5345 41.5078 47.5996H41.9004C43.3723 47.5996 44.7446 47.8205 45.998 48.2861L45.999 48.2852C46.9221 48.611 47.6409 49.2332 48.0996 50.0967C48.5371 50.9204 48.7002 51.8883 48.7002 52.9004C48.7001 54.7491 48.0512 56.3576 46.7236 57.5967L46.7227 57.5957C45.5112 58.7876 43.7526 59.5678 41.6406 60.0605L41.6377 60.0615C38.9486 60.6821 35.8718 61.1245 32.417 61.3955L32.416 61.3945C28.9744 61.7309 25.4354 61.9004 21.7998 61.9004H20.7998C14.2614 61.9004 9.43401 61.4411 6.50488 60.416C5.00354 59.8905 3.73933 59.1305 2.84766 58.0605C1.93598 56.9665 1.50004 55.6511 1.5 54.2002C1.5 52.1459 2.20208 50.3174 4.06152 49.4424C5.35949 48.8316 6.76001 48.4567 8.25098 48.3076L8.3252 48.2998H8.52832C8.73904 48.2365 8.96408 48.2002 9.2002 48.2002H9.32812C9.50556 48.1469 9.69289 48.112 9.88867 48.1025C10.7982 48.018 11.5444 47.5468 12.1504 46.3428C12.8315 44.9189 13.4459 42.2738 13.9102 38.2285L13.9111 38.2217V38.2139C13.9445 37.9472 13.9784 37.6807 14.0117 37.4141L14.1113 36.6143C14.1814 35.9903 14.2844 35.3675 14.4199 34.7461C14.6138 33.3186 14.7765 31.891 14.9062 30.4639L14.9092 30.4346L14.9131 30.4062C15.1048 28.9367 15.2002 27.4679 15.2002 26C15.2002 24.3124 14.9084 23.3474 14.5664 22.8535L14.5303 22.8008L14.498 22.7441C14.2293 22.2738 13.9233 22.0997 13.4004 22.0996C13.0642 22.0996 12.7146 22.1623 12.3447 22.2988C11.9257 22.4796 11.4719 22.6906 10.9834 22.9346C10.4608 23.2289 9.90872 23.486 9.32715 23.7041C8.637 23.9629 7.92525 24.0996 7.2002 24.0996C5.85107 24.0996 4.75956 23.4437 3.9873 22.3818L3.95996 22.3447L3.93457 22.3057C3.25986 21.2454 3 19.9288 3 18.5C3 16.3309 3.73671 14.4067 5.18555 12.7969L5.19824 12.7812L5.21289 12.7666C6.68896 11.213 8.97709 9.8485 11.9209 8.61621C12.8744 8.20781 13.8924 7.80098 14.9736 7.39551L15.001 7.38574C16.1516 6.97965 17.3675 6.57442 18.6484 6.16992L18.6572 6.16699C24.0731 4.49543 28.3897 3.31328 31.5879 2.63281V2.63379C34.752 1.89461 37.3714 1.5 39.4004 1.5Z" fill="var(--fill-0, #0000CC)" stroke="var(--stroke-0, #FFF100)" stroke-width="3"/>
</svg>
