<svg preserveAspectRatio="none" width="100%" height="100%" overflow="visible" style="display: block;" viewBox="0 0 451 169" fill="none" xmlns="http://www.w3.org/2000/svg">
<path id="Divisor" d="M448.5 164C448.5 165.381 447.381 166.5 446 166.5H5C3.61929 166.5 2.5 165.381 2.5 164V50.7002L2.5127 50.4502C2.6351 49.2184 3.65253 48.2442 4.91504 48.2012C6.26172 48.1554 7.40238 49.1859 7.49414 50.5303C7.50948 50.7531 7.64473 51.2184 8.2793 51.9522C8.90549 52.6761 9.86679 53.4847 11.1699 54.3643C13.7775 56.1243 17.3479 57.902 21.2461 59.6992C25.05 61.453 29.2507 63.2617 32.7354 64.9512C34.6651 65.8868 36.5461 66.8628 38.1494 67.876C40.5588 60.7119 44.2844 52.7487 49.999 46.2568C56.7171 38.6251 66.1819 33.0467 79.2402 33.2256C79.9834 33.2358 80.6833 33.5762 81.1504 34.1543C81.6174 34.7324 81.8034 35.4881 81.6572 36.2168C81.0478 39.2532 80.3385 42.0354 80.2529 44.8008C80.2153 46.0171 80.3068 47.1616 80.5762 48.2383C82.907 44.7579 85.9569 41.4322 90.1152 38.9795C95.2645 35.8003 100.37 32.5787 105.427 29.3086C113.913 23.5658 120.556 17.6016 125.834 10.0449L125.918 9.93262C126.351 9.38109 126.998 9.03468 127.702 8.9834C128.453 8.92887 129.188 9.2157 129.704 9.76368C134.553 14.9153 136.841 19.9932 137.449 25.3398C138.045 30.575 137.001 35.8662 135.607 41.3457V41.3467C135.136 43.1981 135.157 44.9484 135.55 46.8242C143.097 40.546 151.879 36.6953 162.852 34.751C163.833 34.5773 164.824 35.0033 165.373 35.835C165.922 36.6668 165.925 37.7455 165.38 38.5801C162.592 42.8455 162.164 45.5788 162.587 47.8154C163.028 50.1439 164.431 52.3503 166.607 55.5332C172.903 57.881 180.855 56.2813 186.101 52.4258C188.778 50.4578 190.526 48.064 191.1 45.5928C191.652 43.2127 191.203 40.4043 188.792 37.291C188.186 36.5085 188.099 35.442 188.569 34.5713C189.04 33.7005 189.981 33.1887 190.968 33.2676C200.854 34.0578 209.167 36.4687 215.862 42.3926C217.047 40.3337 217.747 38.4706 217.783 36.4209V36.4199C217.885 30.8126 218.527 25.7438 220.646 20.9893C222.778 16.2041 226.311 11.9462 231.855 7.77637C232.449 7.33001 233.211 7.17084 233.934 7.3418C234.656 7.5129 235.266 7.99694 235.597 8.66211C238.899 15.3079 243.736 20.3348 250.654 25.4043C254.887 28.2946 259.146 31.1589 263.427 34.0049C266.853 36.2544 269.252 39.165 270.829 42.3418C272.616 39.783 272.781 36.3447 272.999 32.4395L273.026 32.1856C273.119 31.6011 273.418 31.0657 273.872 30.6777C274.391 30.2343 275.069 30.0219 275.748 30.0908C279.464 30.4684 283.789 32.0413 288.104 34.0967C292.463 36.1735 297.005 38.8388 301.204 41.5645C305.408 44.293 309.304 47.1073 312.379 49.502C314.532 51.1789 316.367 52.7179 317.622 53.9043C317.629 53.8938 317.637 53.8837 317.644 53.8731C318.112 53.1382 318.734 52.1258 319.445 50.9063C320.87 48.4636 322.633 45.22 324.224 41.7295C325.821 38.2234 327.206 34.5519 327.924 31.2373C328.661 27.8348 328.597 25.2435 327.819 23.5898C327.433 22.7672 327.523 21.7995 328.055 21.0625C328.587 20.3255 329.477 19.9355 330.38 20.0439C340.437 21.2523 348.716 24.1697 355.402 30.3145C356.382 28.8619 356.673 27.4364 356.721 25.8965V25.8955C356.866 21.204 357.244 16.8206 359.196 12.8897C361.196 8.86159 364.678 5.6185 370.378 2.76465L370.612 2.66211C371.169 2.4513 371.787 2.445 372.352 2.65039C372.997 2.88509 373.518 3.37489 373.791 4.00489C376.683 10.6729 382.543 16.4053 388.843 22.1602C392.001 24.9483 395.139 27.7573 398.242 30.5908L401.345 33.4424L401.462 33.5576C404.367 36.6254 406.843 39.7638 408.524 43.4834C408.914 43.0242 409.169 42.4981 409.355 41.918C409.839 40.4126 409.83 38.6903 409.901 36.6172L409.911 36.4619C409.986 35.689 410.416 34.9907 411.081 34.5781C411.79 34.1382 412.673 34.081 413.433 34.4258C423.06 38.7935 431.512 45.6884 437.704 53.5781C443.882 61.4496 447.929 70.4676 448.495 79.124C448.499 79.1783 448.5 79.2328 448.5 79.2871V164Z" fill="var(--fill-0, #0000CC)" stroke="var(--stroke-0, #FFCE00)" stroke-width="5" stroke-linejoin="round"/>
</svg>
