<svg preserveAspectRatio="none" width="100%" height="100%" overflow="visible" style="display: block;" viewBox="0 0 1356.22 768.191" fill="none" xmlns="http://www.w3.org/2000/svg">
<path id="Star 10" d="M678.108 4.59556L726.996 32.2485L782.919 9.26783L823.567 40.9122L885.149 23.1696L916.558 58.0261L982.281 45.9586L1003.68 83.169L1071.92 77.0736L1082.78 115.722L1151.87 115.749L1151.92 154.883L1220.15 161.031L1209.39 199.688L1275.08 211.806L1253.78 249.033L1315.32 266.824L1283.99 301.705L1339.86 324.729L1299.29 356.405L1348.11 384.096L1299.29 411.787L1339.86 443.462L1283.99 466.487L1315.32 501.368L1253.78 519.158L1275.08 556.385L1209.39 568.504L1220.15 607.16L1151.92 613.309L1151.87 652.443L1082.78 652.469L1071.92 691.118L1003.68 685.022L982.281 722.233L916.558 710.165L885.149 745.021L823.567 727.279L782.919 758.923L726.996 735.943L678.108 763.596L629.22 735.943L573.297 758.923L532.648 727.279L471.066 745.021L439.658 710.165L373.934 722.233L352.539 685.022L284.292 691.118L273.437 652.469L204.346 652.443L204.299 613.309L136.066 607.16L146.828 568.504L81.1333 556.385L102.438 519.158L40.8998 501.368L72.2239 466.487L16.3565 443.462L56.9285 411.787L8.10766 384.096L56.9285 356.405L16.3565 324.729L72.2239 301.705L40.8998 266.824L102.438 249.033L81.1333 211.806L146.828 199.688L136.066 161.031L204.299 154.883L204.346 115.749L273.437 115.722L284.292 77.0736L352.539 83.169L373.934 45.9586L439.658 58.0261L471.066 23.1696L532.648 40.9122L573.297 9.26783L629.22 32.2485L678.108 4.59556Z" fill="var(--fill-0, #E20000)" stroke="var(--stroke-0, #FFF100)" stroke-width="8"/>
</svg>
