<svg preserveAspectRatio="none" width="100%" height="100%" overflow="visible" style="display: block;" viewBox="0 0 430 455" fill="none" xmlns="http://www.w3.org/2000/svg">
<g id="Frame 76" clip-path="url(#clip0_0_10)">
<g id="Vector">
<path d="M416.878 225C416.878 332.044 326.494 418.82 215 418.82C103.506 418.82 13.1223 332.044 13.1223 225C13.1223 117.956 103.506 31.1798 215 31.1798C326.494 31.1798 416.878 117.956 416.878 225Z" fill="#070760"/>
<path d="M416.878 225C416.878 117.956 326.494 31.1798 215 31.1798C103.506 31.1798 13.1223 117.956 13.1223 225C13.1223 332.044 103.506 418.82 215 418.82C326.494 418.82 416.878 332.044 416.878 225ZM445 225C445 292.541 416.421 350.865 374.569 391.047C332.72 431.226 276.211 455 215 455C153.789 455 97.2804 431.226 55.4312 391.047C13.5786 350.865 -15 292.541 -15 225C-15 157.459 13.5787 99.1353 55.4312 58.9531C97.2804 18.7742 153.789 -5 215 -5C276.211 -5 332.72 18.7742 374.569 58.9531C416.421 99.1353 445 157.459 445 225Z" fill="var(--fill-0, #E20000)"/>
</g>
</g>
<defs>
<clipPath id="clip0_0_10">
<rect width="430" height="455" fill="white"/>
</clipPath>
</defs>
</svg>
