<svg preserveAspectRatio="none" width="100%" height="100%" overflow="visible" style="display: block;" viewBox="0 0 349 44" fill="none" xmlns="http://www.w3.org/2000/svg">
<g id="Criado por trabalhadores para trabalhadores">
<path d="M10.0314 30.8595L8.03386 31.6257C7.18468 30.4719 5.96191 29.8583 4.29992 30.4958C1.85487 31.4337 1.67763 33.9376 2.53569 36.0805C3.39374 38.2234 5.26204 39.9426 7.70709 39.0047C9.48094 38.3242 9.93593 36.6521 9.44436 34.9641L11.394 34.2162C12.3052 36.9522 11.1106 39.5396 8.34593 40.6001C4.92606 41.9119 1.81579 40.0376 0.538099 36.8468C-0.739588 33.6559 0.241204 30.2123 3.66108 28.9004C6.24023 27.9291 8.82721 28.5426 10.0314 30.8595Z" fill="var(--fill-0, #FFF100)"/>
<path d="M14.6686 37.9008L11.6822 29.722L13.4117 29.117L13.9893 30.699L14.0216 30.6877C13.9141 29.7441 14.6724 28.4263 15.8038 28.0306C16.224 27.8836 16.3487 27.8756 16.5161 27.8349L17.1515 29.5751C16.8813 29.6339 16.5892 29.6826 16.3306 29.773C15.0699 30.214 14.4317 31.5612 15.0902 33.3646L16.5111 37.2563L14.6686 37.9008Z" fill="var(--fill-0, #FFF100)"/>
<path d="M20.4009 35.9013L17.4562 27.7081L19.302 27.0725L22.2467 35.2658L20.4009 35.9013ZM16.9493 26.2976L16.3341 24.5861L18.18 23.9505L18.7951 25.6621L16.9493 26.2976Z" fill="var(--fill-0, #FFF100)"/>
<path d="M28.5508 30.1607L28.1 28.8025C27.6506 29.3517 26.7475 29.6212 25.979 30.0245C25.2215 30.4066 24.5987 30.9226 24.9168 31.8812C25.1873 32.6961 26.3279 32.5984 26.9809 32.3908C27.7971 32.1313 28.9326 31.3111 28.5508 30.1607ZM29.3141 26.2616L30.7246 30.5117C30.8731 30.9591 31.0294 31.1037 31.3722 30.9947C31.4865 30.9584 31.6334 30.9116 31.8187 30.8174L32.2376 32.0797C31.9919 32.2638 31.4413 32.5624 31.1312 32.6611C30.3802 32.8998 29.7567 32.8154 29.3605 32.1112C28.8592 33.0478 27.7683 33.7302 26.7725 34.0468C25.2543 34.5295 23.6179 34.1665 23.0823 32.5528C22.3983 30.4916 23.9684 29.6215 25.4772 28.9475C26.7363 28.2823 27.9757 28.0472 27.6204 26.9767C27.3076 26.034 26.2534 26.1748 25.5025 26.4136C24.4577 26.7457 23.861 27.3947 24.0763 28.3154L22.2153 28.9071C21.6407 26.7405 23.2785 25.5309 25.1395 24.9392C26.7883 24.415 28.7361 24.52 29.3141 26.2616Z" fill="var(--fill-0, #FFF100)"/>
<path d="M33.5702 27.2363C34.0058 28.6694 35.1604 29.8756 36.7891 29.4014C38.4672 28.9127 38.7194 27.2092 38.2789 25.76C37.7209 23.9244 36.4833 23.0929 35.0355 23.5145C33.2752 24.0271 33.115 25.7388 33.5702 27.2363ZM37.8616 17.9066L41.3562 29.4036L39.5795 29.9209L39.2369 28.7938L39.2039 28.8034C38.9992 29.8971 38.0522 30.611 36.9828 30.9224C34.3012 31.7033 32.4093 30.1334 31.6507 27.6375C30.7354 24.6264 32.1602 22.7743 34.0192 22.233C35.0886 21.9216 36.3905 21.9631 37.2453 22.7133L37.2782 22.7037L35.9861 18.4527L37.8616 17.9066Z" fill="var(--fill-0, #FFF100)"/>
<path d="M46.9975 26.5652C48.688 26.1196 49.0187 24.4144 48.617 22.9544C48.2198 21.5107 47.0589 20.1986 45.3683 20.6442C43.6778 21.0898 43.3471 22.795 43.7443 24.2388C44.146 25.6987 45.3069 27.0108 46.9975 26.5652ZM47.3992 28.0251C44.6479 28.7503 42.5646 27.316 41.8549 24.7368C41.1497 22.1737 42.2154 19.9094 44.9666 19.1843C47.7179 18.4591 49.8012 19.8934 50.5064 22.4564C51.2161 25.0357 50.1504 27.2999 47.3992 28.0251Z" fill="var(--fill-0, #FFF100)"/>
<path d="M63.5939 19.4351C63.2309 17.8965 62.0677 16.6249 60.4956 16.9802C58.8901 17.343 58.3525 18.7232 58.7773 20.5238C59.179 22.2261 60.3666 23.3026 61.9052 22.9548C63.6445 22.5617 63.9415 20.9083 63.5939 19.4351ZM58.6717 28.2892L55.9375 16.7L57.7437 16.2918L58.014 17.4376L58.0474 17.43C58.3548 16.3433 59.2951 15.6997 60.3989 15.4503C63.1249 14.8341 64.925 16.5653 65.5082 19.037C66.045 21.3123 65.3802 23.7212 62.8214 24.2995C61.7176 24.549 60.4375 24.4245 59.6153 23.6275L59.5819 23.6351L60.5782 27.8583L58.6717 28.2892Z" fill="var(--fill-0, #FFF100)"/>
<path d="M71.8324 20.8311C73.547 20.4847 73.9807 18.8017 73.6684 17.321C73.3596 15.8567 72.2804 14.4794 70.5658 14.8258C68.8512 15.1723 68.4175 16.8552 68.7263 18.3195C69.0387 19.8003 70.1178 21.1775 71.8324 20.8311ZM72.1447 22.3118C69.3543 22.8757 67.3618 21.3227 66.81 18.7067C66.2617 16.1072 67.4631 13.9089 70.2535 13.3451C73.0439 12.7813 75.0364 14.3342 75.5847 16.9338C76.1365 19.5497 74.9352 21.748 72.1447 22.3118Z" fill="var(--fill-0, #FFF100)"/>
<path d="M78.0791 20.8884L76.4189 12.3564L78.223 12.0201L78.5441 13.6704L78.5779 13.6641C78.6204 12.7156 79.5775 11.5281 80.7578 11.3081C81.1962 11.2264 81.3206 11.2374 81.4925 11.2225L81.8457 13.0378C81.5695 13.0551 81.2732 13.059 81.0034 13.1093C79.6883 13.3545 78.8452 14.589 79.2113 16.4704L80.0013 20.5301L78.0791 20.8884Z" fill="var(--fill-0, #FFF100)"/>
<path d="M86.6174 11.9927L86.3774 10.5842L87.8334 10.3465L87.3957 7.77803L89.3258 7.46295L89.7635 10.0314L91.5073 9.74673L91.7473 11.1552L90.0035 11.4399L90.7829 16.0134C90.9156 16.7923 91.0511 17.1789 91.9146 17.038C92.1855 16.9937 92.4563 16.9495 92.7159 16.839L92.9644 18.2972C92.5468 18.3995 92.1518 18.5321 91.7285 18.6012C89.7138 18.9301 89.2115 18.2286 88.9347 16.8091L88.0734 11.755L86.6174 11.9927Z" fill="var(--fill-0, #FFF100)"/>
<path d="M94.3578 18.1016L93.0249 9.51472L94.8406 9.24472L95.0984 10.9056L95.1323 10.9006C95.2111 9.95427 96.213 8.80275 97.4008 8.62611C97.842 8.5605 97.966 8.57606 98.1383 8.56743L98.4218 10.3944C98.1452 10.4016 97.849 10.3947 97.5775 10.435C96.2538 10.6319 95.3641 11.8347 95.6581 13.7281L96.2923 17.8139L94.3578 18.1016Z" fill="var(--fill-0, #FFF100)"/>
<path d="M105.347 13.6079L105.149 12.1931C104.607 12.6555 103.67 12.7639 102.84 13.0274C102.026 13.272 101.319 13.6716 101.458 14.6703C101.577 15.5192 102.717 15.6211 103.397 15.5302C104.248 15.4165 105.514 14.8064 105.347 13.6079ZM106.804 9.90317L107.422 14.3308C107.487 14.7968 107.615 14.9663 107.972 14.9185C108.091 14.9026 108.244 14.8822 108.444 14.8216L108.627 16.1365C108.352 16.2751 107.756 16.4734 107.433 16.5166C106.651 16.6212 106.052 16.4299 105.79 15.6681C105.127 16.5028 103.93 16.985 102.892 17.1237C101.311 17.3352 99.766 16.6939 99.5314 15.0127C99.2317 12.8655 100.935 12.2818 102.542 11.8804C103.901 11.4443 105.164 11.4281 105.008 10.3129C104.871 9.33085 103.808 9.28645 103.026 9.39104C101.937 9.53655 101.232 10.0716 101.277 11.0151L99.3388 11.2743C99.1659 9.04235 100.997 8.13626 102.936 7.87706C104.653 7.64742 106.551 8.08886 106.804 9.90317Z" fill="var(--fill-0, #FFF100)"/>
<path d="M116.096 10.8936C115.908 9.32524 114.894 7.93641 113.292 8.12079C111.655 8.3091 110.966 9.6232 111.187 11.4585C111.395 13.1937 112.455 14.3912 114.023 14.2107C115.796 14.0067 116.277 12.3952 116.096 10.8936ZM109.829 15.979L108.398 4.06603L110.341 3.84242L110.87 8.2472L110.904 8.24328C111.333 7.34823 112.379 6.70351 113.367 6.58974C116.146 6.27002 117.741 8.18397 118.044 10.7034C118.322 13.0226 117.392 15.3456 114.783 15.6457C113.59 15.783 112.278 15.6464 111.562 14.5786L111.528 14.5825L111.67 15.7671L109.829 15.979Z" fill="var(--fill-0, #FFF100)"/>
<path d="M125.356 11.3696L125.213 9.94851C124.654 10.3907 123.713 10.4647 122.874 10.6976C122.051 10.9121 121.329 11.2856 121.43 12.2887C121.516 13.1414 122.652 13.285 123.335 13.219C124.189 13.1366 125.478 12.5733 125.356 11.3696ZM126.955 7.7209L127.403 12.168C127.45 12.6362 127.571 12.8102 127.93 12.7755C128.05 12.764 128.203 12.7492 128.405 12.6959L128.538 14.0167C128.258 14.1451 127.655 14.3214 127.33 14.3528C126.544 14.4286 125.954 14.2155 125.721 13.4446C125.026 14.2544 123.811 14.6924 122.769 14.7929C121.181 14.9463 119.662 14.2488 119.492 12.5603C119.274 10.4036 120.998 9.88266 122.62 9.54048C123.995 9.15452 125.257 9.18463 125.144 8.06449C125.045 7.07809 123.984 6.99476 123.199 7.07059C122.105 7.17611 121.38 7.68498 121.389 8.62946L119.442 8.81741C119.355 6.58065 121.219 5.74233 123.167 5.55438C124.892 5.38787 126.771 5.89858 126.955 7.7209Z" fill="var(--fill-0, #FFF100)"/>
<path d="M129.744 13.8907L128.624 1.94592L130.573 1.77095L131.692 13.7157L129.744 13.8907Z" fill="var(--fill-0, #FFF100)"/>
<path d="M133.817 13.5427L132.911 1.58055L134.862 1.43895L135.198 5.87868L135.232 5.87619C135.652 5.05399 136.618 4.39433 137.782 4.30987C139.699 4.17076 140.99 5.08779 141.137 7.03122L141.588 12.9788L139.637 13.1204L139.224 7.67542C139.087 6.32086 138.495 5.77423 137.348 5.85745C136.047 5.95184 135.285 7.01793 135.381 8.29121L135.768 13.4011L133.817 13.5427Z" fill="var(--fill-0, #FFF100)"/>
<path d="M148.942 9.62096L148.859 8.19533C148.281 8.61476 147.338 8.65091 146.49 8.84997C145.658 9.0313 144.922 9.37553 144.981 10.3819C145.031 11.2372 146.16 11.4263 146.845 11.3878C147.702 11.3397 149.013 10.8285 148.942 9.62096ZM150.692 6.03944L150.954 10.5008C150.981 10.9704 151.095 11.1492 151.455 11.1289C151.575 11.1222 151.729 11.1136 151.933 11.0685L152.01 12.3935C151.725 12.5104 151.115 12.6625 150.789 12.6808C150.001 12.725 149.42 12.4884 149.219 11.7088C148.491 12.4901 147.259 12.879 146.214 12.9377C144.62 13.0272 143.132 12.2694 143.032 10.5754C142.906 8.41181 144.65 7.96049 146.284 7.68362C147.675 7.35314 148.934 7.43385 148.868 6.31012C148.81 5.32057 147.754 5.19477 146.966 5.23903C145.869 5.30061 145.124 5.77999 145.093 6.72403L143.14 6.83372C143.146 4.59534 145.044 3.8325 146.998 3.72281C148.728 3.62563 150.585 4.21129 150.692 6.03944Z" fill="var(--fill-0, #FFF100)"/>
<path d="M154.514 8.01789C154.578 9.51175 155.396 10.9579 157.093 10.8882C158.843 10.8164 159.513 9.22518 159.448 7.71454C159.367 5.80106 158.374 4.69838 156.865 4.7603C155.03 4.83559 154.447 6.45689 154.514 8.01789ZM161.008 0L161.521 11.9844L159.669 12.0604L159.619 10.8855L159.584 10.8869C159.112 11.8983 158.016 12.3637 156.901 12.4094C154.106 12.5241 152.664 10.5487 152.552 7.94704C152.418 4.80826 154.263 3.35379 156.2 3.27428C157.315 3.22855 158.567 3.58073 159.208 4.51284L159.243 4.51143L159.053 0.0802127L161.008 0Z" fill="var(--fill-0, #FFF100)"/>
<path d="M167.687 10.5344C169.437 10.4904 170.168 8.90905 170.128 7.39758C170.089 5.90291 169.276 4.36051 167.525 4.4046C165.775 4.44869 165.044 6.02999 165.083 7.52467C165.123 9.03614 165.936 10.5785 167.687 10.5344ZM167.726 12.0459C164.878 12.1177 163.198 10.2442 163.127 7.57395C163.058 4.92048 164.637 2.96489 167.486 2.89313C170.334 2.82137 172.014 4.69484 172.084 7.3483C172.154 10.0186 170.575 11.9742 167.726 12.0459Z" fill="var(--fill-0, #FFF100)"/>
<path d="M173.825 11.6693L173.705 2.98469L175.541 2.96038L175.564 4.64019L175.599 4.63973C175.809 3.71288 176.962 2.70634 178.164 2.69044C178.61 2.68453 178.731 2.71654 178.902 2.73107L178.928 4.57886C178.653 4.5489 178.36 4.50237 178.086 4.506C176.747 4.52372 175.698 5.59609 175.724 7.51108L175.781 11.6434L173.825 11.6693Z" fill="var(--fill-0, #FFF100)"/>
<path d="M187.599 7.74259L181.077 7.75506C181.079 9.11583 181.837 10.324 183.468 10.3208C184.6 10.3187 185.286 9.83017 185.627 8.87194L187.481 8.86839C187.056 10.7676 185.41 11.8291 183.471 11.8328C180.69 11.8381 179.124 9.94276 179.119 7.27162C179.114 4.80207 180.758 2.68217 183.401 2.67711C186.199 2.67176 187.92 5.13802 187.599 7.74259ZM181.074 6.49509L185.64 6.48636C185.569 5.27691 184.726 4.18655 183.404 4.18908C182.048 4.19167 181.123 5.20142 181.074 6.49509Z" fill="var(--fill-0, #FFF100)"/>
<path d="M188.66 8.8093L190.617 8.84082C190.701 9.9511 191.552 10.3681 192.599 10.3849C193.337 10.3968 194.627 10.2664 194.592 9.27449C194.557 8.26582 193.135 8.12529 191.716 7.7832C190.279 7.45763 188.88 6.93104 188.91 5.16731C188.942 3.26921 191.046 2.71502 192.659 2.74101C194.478 2.77031 196.113 3.53593 196.321 5.4715L194.279 5.4386C194.122 4.52878 193.354 4.26438 192.496 4.25056C191.93 4.24144 190.881 4.35896 190.868 5.11484C190.852 6.05549 192.291 6.21309 193.728 6.55546C195.147 6.89755 196.58 7.42469 196.551 9.13803C196.516 11.2041 194.376 11.9257 192.539 11.8961C190.308 11.8602 188.66 10.8591 188.66 8.8093Z" fill="var(--fill-0, #FFF100)"/>
<path d="M209.873 7.98848C209.959 6.41153 209.2 4.87483 207.589 4.79111C205.943 4.70561 205.037 5.88662 204.937 7.73198C204.842 9.47669 205.68 10.8324 207.257 10.9144C209.039 11.007 209.791 9.49832 209.873 7.98848ZM202.643 15.1665L203.287 3.28902L205.138 3.38521L205.075 4.55953L205.109 4.56131C205.711 3.60003 206.796 3.23584 207.928 3.29462C210.722 3.43979 211.963 5.59038 211.825 8.12356C211.699 10.4554 210.38 12.5908 207.757 12.4545C206.626 12.3957 205.431 11.9298 204.866 10.9416L204.832 10.9398L204.597 15.268L202.643 15.1665Z" fill="var(--fill-0, #FFF100)"/>
<path d="M218.933 10.0342L219.047 8.61059C218.417 8.94982 217.478 8.86083 216.61 8.94589C215.761 9.01551 214.984 9.25918 214.903 10.2641C214.835 11.1182 215.927 11.4548 216.611 11.5074C217.467 11.5731 218.837 11.2401 218.933 10.0342ZM221.162 6.71705L220.805 11.1721C220.767 11.641 220.855 11.8331 221.214 11.8607C221.334 11.8699 221.488 11.8817 221.696 11.864L221.59 13.1871C221.291 13.2653 220.666 13.3352 220.341 13.3103C219.554 13.2498 219.01 12.9385 218.919 12.1395C218.09 12.8173 216.816 13.0397 215.772 12.9595C214.181 12.8374 212.81 11.8896 212.946 10.1981C213.119 8.03755 214.91 7.82113 216.567 7.763C217.99 7.61949 219.227 7.86611 219.317 6.74398C219.397 5.75584 218.367 5.49148 217.58 5.43106C216.485 5.34699 215.68 5.72333 215.52 6.65466L213.569 6.50492C213.884 4.28791 215.87 3.78316 217.821 3.93291C219.549 4.06558 221.308 4.89149 221.162 6.71705Z" fill="var(--fill-0, #FFF100)"/>
<path d="M222.747 13.2775L223.602 4.63248L225.43 4.80567L225.265 6.47782L225.299 6.48105C225.612 5.58241 226.871 4.7059 228.067 4.8192C228.511 4.86129 228.628 4.90606 228.797 4.93897L228.615 6.77833C228.345 6.71899 228.059 6.64131 227.786 6.61542C226.453 6.48917 225.29 7.44227 225.102 9.34852L224.695 13.462L222.747 13.2775Z" fill="var(--fill-0, #FFF100)"/>
<path d="M234.537 11.5881L234.707 10.1698C234.064 10.4851 233.128 10.3607 232.258 10.413C231.407 10.4506 230.621 10.6648 230.501 11.6659C230.399 12.5168 231.477 12.8944 232.159 12.9727C233.011 13.0705 234.393 12.7894 234.537 11.5881ZM236.894 8.35742L236.362 12.7957C236.306 13.2629 236.386 13.4582 236.744 13.4993C236.864 13.513 237.017 13.5306 237.226 13.5207L237.068 14.8388C236.766 14.9057 236.138 14.952 235.814 14.9148C235.03 14.8247 234.5 14.4932 234.44 13.6914C233.585 14.3374 232.303 14.5115 231.263 14.3921C229.677 14.21 228.345 13.2113 228.547 11.5261C228.805 9.37374 230.603 9.22499 232.262 9.22939C233.69 9.13964 234.916 9.43271 235.05 8.3148C235.168 7.33038 234.15 7.02742 233.366 6.93737C232.275 6.81208 231.456 7.1578 231.259 8.08238L229.315 7.85921C229.718 5.65574 231.722 5.22623 233.665 5.44941C235.387 5.64713 237.112 6.53873 236.894 8.35742Z" fill="var(--fill-0, #FFF100)"/>
<path d="M243.161 8.31382L243.376 6.90143L244.836 7.11428L245.228 4.53875L247.163 4.8209L246.771 7.39643L248.52 7.65136L248.305 9.06375L246.556 8.80882L245.858 13.3949C245.74 14.1759 245.747 14.5846 246.613 14.7108C246.884 14.7504 247.156 14.79 247.438 14.7632L247.215 16.2254C246.786 16.1968 246.368 16.2038 245.944 16.1419C243.923 15.8474 243.666 15.0286 243.85 13.5947L244.621 8.52667L243.161 8.31382Z" fill="var(--fill-0, #FFF100)"/>
<path d="M248.602 16.458L250.024 7.88478L251.837 8.17285L251.562 9.8311L251.596 9.83648C251.968 8.95944 253.282 8.16415 254.468 8.3526C254.908 8.4226 255.022 8.47461 255.188 8.51811L254.886 10.3422C254.62 10.266 254.34 10.1704 254.069 10.1274C252.748 9.91737 251.524 10.7952 251.21 12.6856L250.534 16.7649L248.602 16.458Z" fill="var(--fill-0, #FFF100)"/>
<path d="M260.482 15.5261L260.747 14.1219C260.085 14.3949 259.16 14.2104 258.288 14.2064C257.436 14.1889 256.637 14.3519 256.449 15.343C256.29 16.1855 257.341 16.6319 258.016 16.754C258.86 16.9068 260.257 16.7155 260.482 15.5261ZM263.052 12.4547L262.222 16.8489C262.135 17.3115 262.202 17.5115 262.556 17.5757C262.674 17.597 262.826 17.6245 263.035 17.6281L262.788 18.9332C262.483 18.9804 261.853 18.9861 261.532 18.928C260.756 18.7875 260.249 18.4224 260.244 17.6185C259.347 18.2079 258.056 18.2988 257.026 18.1125C255.456 17.8285 254.195 16.7459 254.51 15.0774C254.912 12.9464 256.716 12.9141 258.371 13.0256C259.802 13.0282 261.006 13.3999 261.215 12.2931C261.399 11.3184 260.404 10.9504 259.627 10.8099C258.547 10.6144 257.706 10.9065 257.447 11.8163L255.523 11.4681C256.073 9.29543 258.102 8.9963 260.026 9.34449C261.731 9.65298 263.392 10.654 263.052 12.4547Z" fill="var(--fill-0, #FFF100)"/>
<path d="M271.575 16.2914C271.907 14.746 271.398 13.1135 269.819 12.7887C268.206 12.4569 267.126 13.4878 266.737 15.2962C266.37 17.006 266.985 18.4715 268.53 18.7894C270.277 19.1488 271.257 17.7711 271.575 16.2914ZM263.979 19.1577L266.499 7.41926L268.414 7.81321L267.482 12.1535L267.516 12.1604C268.213 11.4455 269.414 11.1605 270.389 11.3609C273.127 11.9242 274.016 14.2358 273.483 16.7183C272.992 19.0035 271.353 20.9153 268.784 20.3866C267.608 20.1447 266.408 19.606 266.077 18.3706L266.043 18.3637L265.793 19.5309L263.979 19.1577Z" fill="var(--fill-0, #FFF100)"/>
<path d="M280.208 19.6815L280.546 18.2923C279.87 18.5322 278.956 18.3021 278.085 18.2549C277.235 18.1952 276.429 18.3184 276.19 19.299C275.988 20.1326 277.014 20.6303 277.682 20.7858C278.517 20.9801 279.922 20.8583 280.208 19.6815ZM282.934 16.7413L281.878 21.0888C281.766 21.5465 281.823 21.7496 282.174 21.8312C282.291 21.8584 282.441 21.8934 282.649 21.9073L282.335 23.1985C282.028 23.2305 281.399 23.205 281.082 23.1311C280.313 22.9524 279.826 22.5626 279.862 21.7595C278.936 22.3037 277.642 22.3306 276.623 22.0935C275.07 21.7321 273.866 20.5885 274.267 18.9377C274.779 16.8293 276.582 16.8864 278.229 17.0797C279.658 17.1532 280.841 17.584 281.107 16.4889C281.342 15.5246 280.367 15.1078 279.599 14.929C278.53 14.6803 277.675 14.9304 277.369 15.8262L275.466 15.3832C276.127 13.2405 278.169 13.0423 280.073 13.4853C281.759 13.8778 283.367 14.9598 282.934 16.7413Z" fill="var(--fill-0, #FFF100)"/>
<path d="M283.514 23.4793L286.61 11.8736L288.504 12.3576L285.407 23.9633L283.514 23.4793Z" fill="var(--fill-0, #FFF100)"/>
<path d="M287.466 24.5032L290.716 12.9378L292.603 13.4458L291.397 17.7382L291.43 17.7471C292.107 17.1106 293.243 16.8066 294.368 17.1095C296.222 17.6086 297.124 18.8968 296.596 20.7758L294.979 26.5261L293.093 26.0181L294.572 20.7538C294.908 19.4328 294.538 18.7233 293.429 18.4248C292.171 18.0861 291.087 18.8397 290.741 20.0707L289.353 25.0111L287.466 24.5032Z" fill="var(--fill-0, #FFF100)"/>
<path d="M303.066 25.8345L303.487 24.4674C302.798 24.6675 301.899 24.3846 301.033 24.2867C300.188 24.1777 299.376 24.2537 299.079 25.2187C298.826 26.039 299.819 26.5956 300.477 26.7897C301.298 27.0323 302.709 26.9926 303.066 25.8345ZM305.965 23.0583L304.647 27.3366C304.508 27.787 304.552 27.993 304.897 28.0949C305.012 28.1288 305.16 28.1725 305.367 28.1986L304.976 29.4692C304.667 29.4832 304.04 29.4211 303.728 29.3289C302.972 29.1057 302.509 28.6883 302.594 27.8887C301.637 28.378 300.343 28.3294 299.34 28.0335C297.812 27.5822 296.68 26.3705 297.18 24.746C297.82 22.6712 299.617 22.8332 301.249 23.1221C302.67 23.2787 303.825 23.7776 304.158 22.7C304.45 21.7511 303.502 21.2782 302.746 21.055C301.695 20.7445 300.826 20.9443 300.466 21.8207L298.593 21.2676C299.384 19.1673 301.434 19.0883 303.307 19.6414C304.967 20.1315 306.506 21.3052 305.965 23.0583Z" fill="var(--fill-0, #FFF100)"/>
<path d="M308.895 26.2378C308.416 27.6577 308.66 29.2933 310.274 29.8143C311.937 30.351 313.138 29.0936 313.622 27.6577C314.235 25.839 313.704 24.4646 312.269 24.0015C310.525 23.4384 309.395 24.7541 308.895 26.2378ZM317.861 20.9775L314.022 32.3687L312.262 31.8004L312.638 30.6836L312.605 30.6731C311.799 31.4565 310.605 31.5133 309.546 31.1712C306.889 30.3134 306.252 27.9672 307.085 25.4943C308.091 22.5109 310.341 21.7868 312.183 22.3815C313.242 22.7235 314.287 23.4853 314.551 24.5789L314.583 24.5895L316.003 20.3776L317.861 20.9775Z" fill="var(--fill-0, #FFF100)"/>
<path d="M320.309 33.1916C321.956 33.7708 323.223 32.5558 323.745 31.1328C324.261 29.7256 324.074 27.9997 322.426 27.4206C320.778 26.8414 319.512 28.0564 318.996 29.4636C318.473 30.8866 318.661 32.6125 320.309 33.1916ZM319.787 34.6146C317.105 33.6722 316.232 31.3303 317.154 28.8163C318.07 26.3182 320.266 25.0551 322.948 25.9975C325.63 26.94 326.503 29.2819 325.586 31.78C324.664 34.294 322.468 35.5571 319.787 34.6146Z" fill="var(--fill-0, #FFF100)"/>
<path d="M325.608 36.4298L328.755 28.309L330.472 28.9465L329.864 30.5173L329.896 30.5292C330.439 29.7427 331.89 29.2211 333.013 29.6382C333.43 29.7931 333.53 29.8663 333.685 29.9416L333.015 31.6694C332.771 31.5426 332.516 31.3942 332.259 31.2989C331.008 30.8342 329.629 31.4543 328.935 33.245L327.438 37.109L325.608 36.4298Z" fill="var(--fill-0, #FFF100)"/>
<path d="M339.896 37.8295L333.85 35.4349C333.328 36.6963 333.565 38.0948 335.076 38.6935C336.127 39.1094 336.95 38.9098 337.635 38.1482L339.353 38.8288C338.228 40.431 336.295 40.8071 334.497 40.095C331.919 39.0742 331.199 36.741 332.223 34.2649C333.169 31.9757 335.508 30.6184 337.958 31.5888C340.552 32.616 341.196 35.5354 339.896 37.8295ZM334.333 34.2669L338.565 35.9431C338.965 34.7967 338.604 33.4756 337.379 32.9904C336.122 32.4926 334.876 33.0867 334.333 34.2669Z" fill="var(--fill-0, #FFF100)"/>
<path d="M340.479 39.216L342.275 39.9748C341.921 41.0328 342.546 41.7358 343.507 42.1418C344.185 42.428 345.428 42.7884 345.782 41.8583C346.143 40.9129 344.882 40.2525 343.703 39.4069C342.502 38.5702 341.414 37.5617 342.128 35.9421C342.896 34.199 345.057 34.4712 346.538 35.0968C348.209 35.8024 349.423 37.12 348.861 38.9871L346.986 38.195C347.195 37.2955 346.588 36.7646 345.8 36.4318C345.28 36.2122 344.264 35.9296 343.958 36.6237C343.578 37.4875 344.847 38.17 346.042 39.0222C347.22 39.8677 348.34 40.8895 347.647 42.4629C346.81 44.3601 344.55 44.2289 342.864 43.5167C340.815 42.6515 339.681 41.1112 340.479 39.216Z" fill="var(--fill-0, #FFF100)"/>
</g>
</svg>
