<svg preserveAspectRatio="none" width="100%" height="100%" overflow="visible" style="display: block;" viewBox="0 0 345.415 70.3875" fill="none" xmlns="http://www.w3.org/2000/svg">
<g id="de quem n&#195;&#163;o merece seu voto.">
<mask id="path-1-outside-1_0_9" maskUnits="userSpaceOnUse" x="-5.36442e-07" y="-0.612457" width="346" height="71" fill="black">
<rect fill="white" x="-5.36442e-07" y="-0.612457" width="346" height="71"/>
<path d="M6.55167 15.3808L7.55291 14.0969L7.51318 14.0672C6.00793 14.6665 4.49138 14.2719 3.17996 13.2917C0.0802444 10.9748 0.602956 7.2394 2.77232 4.45765C4.881 1.7537 8.36796 0.387882 11.3882 2.64537C12.6003 3.55134 13.398 4.94822 13.2602 6.41558L13.2999 6.44528L17.2442 1.38754L20.0658 3.49651L9.23412 17.3858L6.55167 15.3808ZM10.4562 10.2934C11.7305 8.65935 12.3481 6.65757 10.52 5.2912C8.67212 3.90997 6.82265 4.99094 5.53317 6.64443C4.30437 8.22011 3.75008 10.4231 5.49864 11.7301C7.36642 13.1262 9.16675 11.9469 10.4562 10.2934Z"/>
<path d="M24.8869 21.2695L17.1729 16.1408C15.9916 18.0181 16.3258 19.4532 17.9596 20.5394C19.1384 21.3231 20.5813 21.247 21.2168 20.7229L23.8019 22.4416C21.2612 24.3617 18.773 24.2458 16.3534 22.6371C12.9824 20.3958 12.4666 16.7395 14.7137 13.5C16.8907 10.3617 20.7608 9.44383 24.0077 11.6026C27.6476 14.0225 27.3268 18.1878 24.8869 21.2695ZM18.4369 14.3186L23.2142 17.4948C23.9566 15.8583 23.8492 14.6627 22.4222 13.714C20.5609 12.4765 19.0401 13.5363 18.4369 14.3186Z"/>
<path d="M47.1935 25.7834L38.5984 40.6784L35.5076 38.9689L38.5448 33.7056L38.5013 33.6815C37.0944 34.4776 35.3315 34.1491 33.982 33.4027C31.9143 32.2591 30.0637 29.296 32.523 25.0342C34.2691 22.0084 37.5493 20.0558 40.9665 21.9458C42.3595 22.7163 43.4044 23.9407 43.4 25.5406L43.4436 25.5646L44.2551 24.1582L47.1935 25.7834ZM35.6507 26.6797C34.6301 28.4484 34.2747 30.5569 36.299 31.6764C38.3014 32.7839 39.9571 31.5071 41.0022 29.6958C41.9983 27.9698 42.3715 25.7307 40.4344 24.6593C38.4319 23.5518 36.6836 24.8898 35.6507 26.6797Z"/>
<path d="M60.0159 32.0546L54.2948 43.4006L51.2685 41.938L52.0653 40.3579L51.9981 40.3254C50.5492 41.2083 48.8496 41.1511 47.5046 40.501C44.1197 38.8651 44.2085 36.5881 45.6249 33.779L49.144 26.8002L52.3271 28.3386L49.0958 34.7468C48.1552 36.6122 48.2508 37.8048 49.7303 38.5198C51.4564 39.354 52.672 38.7678 53.8339 36.4635L56.8328 30.5162L60.0159 32.0546Z"/>
<path d="M70.4277 44.2945L61.8566 40.6993C61.0624 42.7626 61.6698 44.109 63.4852 44.8705C64.7949 45.4199 66.1966 45.0759 66.7184 44.4427L69.5908 45.6475C67.4705 48.0066 65.0053 48.3571 62.3168 47.2294C58.5713 45.6583 57.3531 42.1652 58.9283 38.5658C60.4543 35.0788 64.0748 33.4556 67.6825 34.9688C71.7268 36.6652 72.2229 40.814 70.4277 44.2945ZM62.7427 38.6746L68.0508 40.9012C68.4609 39.1561 68.1227 38.0025 66.5371 37.3374C64.469 36.4699 63.1824 37.7941 62.7427 38.6746Z"/>
<path d="M70.5126 50.1899L74.7868 38.2486L77.9482 39.3331L77.3695 40.9499L77.4167 40.9661C78.7278 40.0414 80.258 39.7625 81.8387 40.3048C83.3723 40.8309 84.5422 41.8546 84.6902 43.5133C85.77 42.7167 87.383 42.2068 89.0817 42.7896C91.6768 43.6799 93.119 45.4972 92.0112 48.5923L89.1507 56.5839L85.8006 55.4346L88.2229 48.6671C88.7933 47.0734 89.123 45.7083 87.212 45.0527C85.3246 44.4052 84.4251 45.8082 83.8877 47.3095L81.5067 53.9615L78.1566 52.8122L80.5541 46.114C81.0501 44.7282 81.715 43.1669 79.5916 42.4384C78.931 42.2118 77.1779 42.0772 76.3429 44.41L73.8627 51.3392L70.5126 50.1899Z"/>
<path d="M98.9838 59.4236L102.098 47.1433L105.374 47.9395L104.94 49.6497L105.013 49.6674C106.236 48.502 107.909 48.2026 109.364 48.5565C113.028 49.447 113.438 51.6901 112.667 54.7305L110.751 62.284L107.306 61.4465L109.065 54.5106C109.577 52.4916 109.223 51.3466 107.622 50.9573C105.754 50.5032 104.694 51.33 104.062 53.824L102.429 60.2611L98.9838 59.4236Z"/>
<path d="M122.473 59.5998L122.725 58.3262C122.036 58.7194 120.804 58.5112 119.686 58.4991C118.564 58.511 117.511 58.6857 117.264 59.9352C117.012 61.2088 117.957 61.7116 119.086 61.9252C121.811 62.4407 122.326 60.3447 122.473 59.5998ZM118.658 54.9393L115.172 54.2798C115.999 51.121 119.11 50.7125 121.957 51.2512C124.485 51.7296 127.42 52.8581 126.832 55.8378L125.556 62.3018C125.333 63.4311 125.232 64.5838 125.452 65.1488L121.917 64.48C121.871 64.0723 121.853 63.6452 121.909 63.2321C120.582 64.1525 118.881 64.2545 117.335 63.9619C114.929 63.5068 113.247 61.9671 113.75 59.4199C114.305 56.6085 116.598 56.3443 118.815 56.4646C121.012 56.5563 122.986 57.0046 123.261 55.6108C123.55 54.145 122.562 53.7337 121.335 53.5015C120.009 53.2507 119.046 53.6168 118.658 54.9393ZM125.55 47.3693L127.243 47.6897C126.963 48.2099 126.633 48.8456 126.132 49.324C125.63 49.8023 124.96 50.0994 123.954 49.909C123.217 49.7696 122.597 49.428 122.022 49.1196C121.451 48.7873 120.949 48.4929 120.384 48.386C119.721 48.2607 119.42 48.6274 119.154 49.2002L117.657 48.9169C118.251 47.5836 119.168 46.1618 121.328 46.5705C121.893 46.6773 122.341 46.9865 122.818 47.2762C123.291 47.59 123.788 47.9085 124.353 48.0153C125.089 48.1546 125.484 47.8305 125.55 47.3693Z"/>
<path d="M128.459 59.2451C129.024 55.245 131.995 52.9792 136.006 53.523C140.043 54.0702 142.273 57.0409 141.707 61.041C141.144 65.0168 138.174 67.2826 134.138 66.7355C130.126 66.1917 127.896 63.221 128.459 59.2451ZM131.975 59.7218C131.694 61.7097 132.127 63.8192 134.505 64.1415C136.907 64.4671 137.909 62.5522 138.19 60.5643C138.475 58.5522 138.041 56.4426 135.639 56.117C133.262 55.7948 132.26 57.7096 131.975 59.7218Z"/>
<path d="M150.637 68.2161L151.235 55.5764L154.582 55.7282L154.501 57.4396L154.551 57.4418C155.536 56.188 156.92 55.4913 158.593 55.5672C160.217 55.6408 161.637 56.2933 162.265 57.8408C163.066 56.7746 164.462 55.8334 166.26 55.9149C169.007 56.0395 170.921 57.3759 170.766 60.6519L170.365 69.111L166.819 68.9501L167.158 61.7868C167.238 60.0999 167.154 58.6996 165.131 58.6078C163.134 58.5172 162.683 60.1138 162.607 61.7029L162.274 68.7439L158.728 68.5831L159.064 61.4931C159.133 60.0263 159.313 58.3439 157.065 58.2419C156.366 58.2102 154.647 58.5732 154.53 61.0425L154.183 68.3769L150.637 68.2161Z"/>
<path d="M185.547 63.4381L176.224 63.6224C176.37 65.8226 177.49 66.8041 179.465 66.7651C180.889 66.7369 182.022 65.8578 182.23 65.0703L185.355 65.0085C184.416 68.0136 182.318 69.328 179.394 69.3858C175.32 69.4663 172.739 66.7757 172.658 62.8606C172.58 59.0678 175.195 56.1276 179.119 56.05C183.518 55.963 185.717 59.5425 185.547 63.4381ZM176.179 61.4201L181.953 61.306C181.591 59.5506 180.797 58.6361 179.073 58.6702C176.823 58.7147 176.209 60.4404 176.179 61.4201Z"/>
<path d="M188.011 68.8215L187.25 56.1902L190.619 55.9956L190.76 58.341L190.81 58.3381C191.363 56.7126 193.044 55.5122 194.766 55.4127C195.015 55.3983 195.318 55.4298 195.547 55.4901L195.741 58.7151C195.412 58.6606 194.885 58.642 194.461 58.6665C191.866 58.8165 191.078 60.7008 191.212 62.9241L191.555 68.6167L188.011 68.8215Z"/>
<path d="M209.127 61.5311L199.852 62.4673C200.182 64.6483 201.381 65.536 203.346 65.3377C204.763 65.1947 205.817 64.2271 205.959 63.4255L209.067 63.1117C208.386 66.1823 206.405 67.6616 203.496 67.9552C199.442 68.3643 196.644 65.8912 196.233 61.9959C195.836 58.2224 198.194 55.0811 202.098 54.6871C206.475 54.2453 208.968 57.6351 209.127 61.5311ZM199.621 60.2762L205.365 59.6964C204.857 57.9762 203.989 57.1289 202.273 57.302C200.035 57.5279 199.568 59.2974 199.621 60.2762Z"/>
<path d="M222.881 56.7386L219.447 57.2596C219.003 55.8906 217.97 55.2795 216.512 55.5007C214.264 55.8418 213.875 58.1793 214.166 60.0174C214.45 61.8071 215.507 63.851 217.706 63.5174C219.336 63.27 220.114 62.1117 220.095 60.5543L223.48 60.0408C223.559 63.4217 221.5 65.5917 218.14 66.1015C214.286 66.6862 211.271 64.4194 210.678 60.6706C210.061 56.7767 211.977 53.5388 216.127 52.9091C219.141 52.4518 222.153 53.5798 222.881 56.7386Z"/>
<path d="M237.303 56.6136L228.174 58.474C228.731 60.6105 230.017 61.3734 231.95 60.9794C233.345 60.6951 234.293 59.627 234.35 58.8154L237.409 58.1919C237.052 61.3146 235.236 62.9846 232.373 63.5681C228.384 64.3811 225.341 62.2013 224.526 58.3676C223.736 54.6536 225.754 51.2926 229.596 50.5095C233.904 49.6317 236.738 52.7539 237.303 56.6136ZM227.716 56.3175L233.37 55.1654C232.685 53.505 231.732 52.7491 230.044 53.0933C227.841 53.5422 227.561 55.3491 227.716 56.3175Z"/>
<path d="M245.951 55.9291L249.193 55.0117C249.648 56.4626 251.07 56.697 252.415 56.3165C253.399 56.0379 254.537 55.3083 254.19 54.1327C253.892 53.1217 252.371 53.17 249.768 53.3458C247.674 53.4799 245.503 53.3552 244.872 51.2156C243.956 48.1121 246.457 46.538 249.123 45.7837C251.837 45.0158 254.598 45.2025 255.744 48.1138L252.502 49.0312C252.024 47.7652 250.911 47.6979 249.687 48.0445C248.918 48.262 247.831 48.7224 248.122 49.7099C248.476 50.909 250.446 50.53 252.523 50.4263C254.649 50.309 256.802 50.4639 257.469 52.7211C258.413 55.9187 255.884 57.7551 253.05 58.5569C250.168 59.3724 247.046 59.1094 245.951 55.9291Z"/>
<path d="M270.592 46.8389L261.776 49.8124C262.603 51.8631 263.977 52.461 265.844 51.8313C267.192 51.3769 267.994 50.2003 267.946 49.3881L270.9 48.3916C270.948 51.5335 269.363 53.4144 266.597 54.3471C262.745 55.6465 259.446 53.86 258.143 50.1576C256.881 46.571 258.449 42.9875 262.16 41.736C266.319 40.3329 269.534 43.08 270.592 46.8389ZM261.043 47.7298L266.503 45.8883C265.609 44.3259 264.567 43.6937 262.936 44.2438C260.809 44.9613 260.765 46.7883 261.043 47.7298Z"/>
<path d="M280.996 35.0201L285.852 46.7464L282.724 47.9877L282.048 46.3546L281.978 46.3822C281.689 48.0287 280.516 49.2339 279.126 49.7856C275.627 51.174 273.949 49.5954 272.746 46.6922L269.76 39.4795L273.05 38.1738L275.792 44.7968C276.59 46.7248 277.564 47.4475 279.093 46.8407C280.877 46.1327 281.238 44.854 280.252 42.4724L277.706 36.3257L280.996 35.0201Z"/>
<path d="M299.639 26.298L301.496 39.5322L297.962 41.259L288.232 31.8719L291.564 30.2434L297.943 36.7824L297.988 36.7605L296.485 27.839L299.639 26.298Z"/>
<path d="M303.383 31.5085C301.351 27.9943 302.305 24.4281 305.83 22.4748C309.376 20.5095 312.99 21.5437 315.022 25.0579C317.042 28.5508 316.088 32.117 312.542 34.0824C309.017 36.0356 305.403 35.0015 303.383 31.5085ZM306.472 29.7964C307.482 31.5429 309.135 32.961 311.224 31.8035C313.334 30.6339 312.943 28.5165 311.933 26.77C310.911 25.0023 309.258 23.5842 307.147 24.7538C305.059 25.9113 305.45 28.0287 306.472 29.7964Z"/>
<path d="M315.304 12.9898L317.358 16.2065L319.562 14.8573L320.821 16.8288L318.617 18.178L322.009 23.4907C322.645 24.4869 323.058 24.5802 324.076 23.9575C324.394 23.7629 324.677 23.5605 324.956 23.3037L326.427 25.6072C325.971 26.0016 325.327 26.4245 324.733 26.7878C322.889 27.9165 321.013 28.4874 319.648 26.3499L315.606 20.0203L313.783 21.136L312.525 19.1645L314.348 18.0487L312.294 14.8321L315.304 12.9898Z"/>
<path d="M324.017 19.5625C321.666 16.2442 322.284 12.6077 325.612 10.3481C328.961 8.07454 332.656 8.78192 335.007 12.1002C337.344 15.3983 336.725 19.0348 333.377 21.3084C330.049 23.568 326.354 22.8606 324.017 19.5625ZM326.934 17.5818C328.102 19.2309 329.881 20.4956 331.853 19.1566C333.845 17.8036 333.258 15.7299 332.09 14.0808C330.908 12.4116 329.129 11.147 327.137 12.4999C325.165 13.839 325.752 15.9127 326.934 17.5818Z"/>
<path d="M340.87 15.73L338.547 12.7241L341.677 10.4059L344 13.4118L340.87 15.73Z"/>
</mask>
<path d="M6.55167 15.3808L7.55291 14.0969L7.51318 14.0672C6.00793 14.6665 4.49138 14.2719 3.17996 13.2917C0.0802444 10.9748 0.602956 7.2394 2.77232 4.45765C4.881 1.7537 8.36796 0.387882 11.3882 2.64537C12.6003 3.55134 13.398 4.94822 13.2602 6.41558L13.2999 6.44528L17.2442 1.38754L20.0658 3.49651L9.23412 17.3858L6.55167 15.3808ZM10.4562 10.2934C11.7305 8.65935 12.3481 6.65757 10.52 5.2912C8.67212 3.90997 6.82265 4.99094 5.53317 6.64443C4.30437 8.22011 3.75008 10.4231 5.49864 11.7301C7.36642 13.1262 9.16675 11.9469 10.4562 10.2934Z" fill="var(--fill-0, #F4F4F4)"/>
<path d="M24.8869 21.2695L17.1729 16.1408C15.9916 18.0181 16.3258 19.4532 17.9596 20.5394C19.1384 21.3231 20.5813 21.247 21.2168 20.7229L23.8019 22.4416C21.2612 24.3617 18.773 24.2458 16.3534 22.6371C12.9824 20.3958 12.4666 16.7395 14.7137 13.5C16.8907 10.3617 20.7608 9.44383 24.0077 11.6026C27.6476 14.0225 27.3268 18.1878 24.8869 21.2695ZM18.4369 14.3186L23.2142 17.4948C23.9566 15.8583 23.8492 14.6627 22.4222 13.714C20.5609 12.4765 19.0401 13.5363 18.4369 14.3186Z" fill="var(--fill-0, #F4F4F4)"/>
<path d="M47.1935 25.7834L38.5984 40.6784L35.5076 38.9689L38.5448 33.7056L38.5013 33.6815C37.0944 34.4776 35.3315 34.1491 33.982 33.4027C31.9143 32.2591 30.0637 29.296 32.523 25.0342C34.2691 22.0084 37.5493 20.0558 40.9665 21.9458C42.3595 22.7163 43.4044 23.9407 43.4 25.5406L43.4436 25.5646L44.2551 24.1582L47.1935 25.7834ZM35.6507 26.6797C34.6301 28.4484 34.2747 30.5569 36.299 31.6764C38.3014 32.7839 39.9571 31.5071 41.0022 29.6958C41.9983 27.9698 42.3715 25.7307 40.4344 24.6593C38.4319 23.5518 36.6836 24.8898 35.6507 26.6797Z" fill="var(--fill-0, #F4F4F4)"/>
<path d="M60.0159 32.0546L54.2948 43.4006L51.2685 41.938L52.0653 40.3579L51.9981 40.3254C50.5492 41.2083 48.8496 41.1511 47.5046 40.501C44.1197 38.8651 44.2085 36.5881 45.6249 33.779L49.144 26.8002L52.3271 28.3386L49.0958 34.7468C48.1552 36.6122 48.2508 37.8048 49.7303 38.5198C51.4564 39.354 52.672 38.7678 53.8339 36.4635L56.8328 30.5162L60.0159 32.0546Z" fill="var(--fill-0, #F4F4F4)"/>
<path d="M70.4277 44.2945L61.8566 40.6993C61.0624 42.7626 61.6698 44.109 63.4852 44.8705C64.7949 45.4199 66.1966 45.0759 66.7184 44.4427L69.5908 45.6475C67.4705 48.0066 65.0053 48.3571 62.3168 47.2294C58.5713 45.6583 57.3531 42.1652 58.9283 38.5658C60.4543 35.0788 64.0748 33.4556 67.6825 34.9688C71.7268 36.6652 72.2229 40.814 70.4277 44.2945ZM62.7427 38.6746L68.0508 40.9012C68.4609 39.1561 68.1227 38.0025 66.5371 37.3374C64.469 36.4699 63.1824 37.7941 62.7427 38.6746Z" fill="var(--fill-0, #F4F4F4)"/>
<path d="M70.5126 50.1899L74.7868 38.2486L77.9482 39.3331L77.3695 40.9499L77.4167 40.9661C78.7278 40.0414 80.258 39.7625 81.8387 40.3048C83.3723 40.8309 84.5422 41.8546 84.6902 43.5133C85.77 42.7167 87.383 42.2068 89.0817 42.7896C91.6768 43.6799 93.119 45.4972 92.0112 48.5923L89.1507 56.5839L85.8006 55.4346L88.2229 48.6671C88.7933 47.0734 89.123 45.7083 87.212 45.0527C85.3246 44.4052 84.4251 45.8082 83.8877 47.3095L81.5067 53.9615L78.1566 52.8122L80.5541 46.114C81.0501 44.7282 81.715 43.1669 79.5916 42.4384C78.931 42.2118 77.1779 42.0772 76.3429 44.41L73.8627 51.3392L70.5126 50.1899Z" fill="var(--fill-0, #F4F4F4)"/>
<path d="M98.9838 59.4236L102.098 47.1433L105.374 47.9395L104.94 49.6497L105.013 49.6674C106.236 48.502 107.909 48.2026 109.364 48.5565C113.028 49.447 113.438 51.6901 112.667 54.7305L110.751 62.284L107.306 61.4465L109.065 54.5106C109.577 52.4916 109.223 51.3466 107.622 50.9573C105.754 50.5032 104.694 51.33 104.062 53.824L102.429 60.2611L98.9838 59.4236Z" fill="var(--fill-0, #F4F4F4)"/>
<path d="M122.473 59.5998L122.725 58.3262C122.036 58.7194 120.804 58.5112 119.686 58.4991C118.564 58.511 117.511 58.6857 117.264 59.9352C117.012 61.2088 117.957 61.7116 119.086 61.9252C121.811 62.4407 122.326 60.3447 122.473 59.5998ZM118.658 54.9393L115.172 54.2798C115.999 51.121 119.11 50.7125 121.957 51.2512C124.485 51.7296 127.42 52.8581 126.832 55.8378L125.556 62.3018C125.333 63.4311 125.232 64.5838 125.452 65.1488L121.917 64.48C121.871 64.0723 121.853 63.6452 121.909 63.2321C120.582 64.1525 118.881 64.2545 117.335 63.9619C114.929 63.5068 113.247 61.9671 113.75 59.4199C114.305 56.6085 116.598 56.3443 118.815 56.4646C121.012 56.5563 122.986 57.0046 123.261 55.6108C123.55 54.145 122.562 53.7337 121.335 53.5015C120.009 53.2507 119.046 53.6168 118.658 54.9393ZM125.55 47.3693L127.243 47.6897C126.963 48.2099 126.633 48.8456 126.132 49.324C125.63 49.8023 124.96 50.0994 123.954 49.909C123.217 49.7696 122.597 49.428 122.022 49.1196C121.451 48.7873 120.949 48.4929 120.384 48.386C119.721 48.2607 119.42 48.6274 119.154 49.2002L117.657 48.9169C118.251 47.5836 119.168 46.1618 121.328 46.5705C121.893 46.6773 122.341 46.9865 122.818 47.2762C123.291 47.59 123.788 47.9085 124.353 48.0153C125.089 48.1546 125.484 47.8305 125.55 47.3693Z" fill="var(--fill-0, #F4F4F4)"/>
<path d="M128.459 59.2451C129.024 55.245 131.995 52.9792 136.006 53.523C140.043 54.0702 142.273 57.0409 141.707 61.041C141.144 65.0168 138.174 67.2826 134.138 66.7355C130.126 66.1917 127.896 63.221 128.459 59.2451ZM131.975 59.7218C131.694 61.7097 132.127 63.8192 134.505 64.1415C136.907 64.4671 137.909 62.5522 138.19 60.5643C138.475 58.5522 138.041 56.4426 135.639 56.117C133.262 55.7948 132.26 57.7096 131.975 59.7218Z" fill="var(--fill-0, #F4F4F4)"/>
<path d="M150.637 68.2161L151.235 55.5764L154.582 55.7282L154.501 57.4396L154.551 57.4418C155.536 56.188 156.92 55.4913 158.593 55.5672C160.217 55.6408 161.637 56.2933 162.265 57.8408C163.066 56.7746 164.462 55.8334 166.26 55.9149C169.007 56.0395 170.921 57.3759 170.766 60.6519L170.365 69.111L166.819 68.9501L167.158 61.7868C167.238 60.0999 167.154 58.6996 165.131 58.6078C163.134 58.5172 162.683 60.1138 162.607 61.7029L162.274 68.7439L158.728 68.5831L159.064 61.4931C159.133 60.0263 159.313 58.3439 157.065 58.2419C156.366 58.2102 154.647 58.5732 154.53 61.0425L154.183 68.3769L150.637 68.2161Z" fill="var(--fill-0, #F4F4F4)"/>
<path d="M185.547 63.4381L176.224 63.6224C176.37 65.8226 177.49 66.8041 179.465 66.7651C180.889 66.7369 182.022 65.8578 182.23 65.0703L185.355 65.0085C184.416 68.0136 182.318 69.328 179.394 69.3858C175.32 69.4663 172.739 66.7757 172.658 62.8606C172.58 59.0678 175.195 56.1276 179.119 56.05C183.518 55.963 185.717 59.5425 185.547 63.4381ZM176.179 61.4201L181.953 61.306C181.591 59.5506 180.797 58.6361 179.073 58.6702C176.823 58.7147 176.209 60.4404 176.179 61.4201Z" fill="var(--fill-0, #F4F4F4)"/>
<path d="M188.011 68.8215L187.25 56.1902L190.619 55.9956L190.76 58.341L190.81 58.3381C191.363 56.7126 193.044 55.5122 194.766 55.4127C195.015 55.3983 195.318 55.4298 195.547 55.4901L195.741 58.7151C195.412 58.6606 194.885 58.642 194.461 58.6665C191.866 58.8165 191.078 60.7008 191.212 62.9241L191.555 68.6167L188.011 68.8215Z" fill="var(--fill-0, #F4F4F4)"/>
<path d="M209.127 61.5311L199.852 62.4673C200.182 64.6483 201.381 65.536 203.346 65.3377C204.763 65.1947 205.817 64.2271 205.959 63.4255L209.067 63.1117C208.386 66.1823 206.405 67.6616 203.496 67.9552C199.442 68.3643 196.644 65.8912 196.233 61.9959C195.836 58.2224 198.194 55.0811 202.098 54.6871C206.475 54.2453 208.968 57.6351 209.127 61.5311ZM199.621 60.2762L205.365 59.6964C204.857 57.9762 203.989 57.1289 202.273 57.302C200.035 57.5279 199.568 59.2974 199.621 60.2762Z" fill="var(--fill-0, #F4F4F4)"/>
<path d="M222.881 56.7386L219.447 57.2596C219.003 55.8906 217.97 55.2795 216.512 55.5007C214.264 55.8418 213.875 58.1793 214.166 60.0174C214.45 61.8071 215.507 63.851 217.706 63.5174C219.336 63.27 220.114 62.1117 220.095 60.5543L223.48 60.0408C223.559 63.4217 221.5 65.5917 218.14 66.1015C214.286 66.6862 211.271 64.4194 210.678 60.6706C210.061 56.7767 211.977 53.5388 216.127 52.9091C219.141 52.4518 222.153 53.5798 222.881 56.7386Z" fill="var(--fill-0, #F4F4F4)"/>
<path d="M237.303 56.6136L228.174 58.474C228.731 60.6105 230.017 61.3734 231.95 60.9794C233.345 60.6951 234.293 59.627 234.35 58.8154L237.409 58.1919C237.052 61.3146 235.236 62.9846 232.373 63.5681C228.384 64.3811 225.341 62.2013 224.526 58.3676C223.736 54.6536 225.754 51.2926 229.596 50.5095C233.904 49.6317 236.738 52.7539 237.303 56.6136ZM227.716 56.3175L233.37 55.1654C232.685 53.505 231.732 52.7491 230.044 53.0933C227.841 53.5422 227.561 55.3491 227.716 56.3175Z" fill="var(--fill-0, #F4F4F4)"/>
<path d="M245.951 55.9291L249.193 55.0117C249.648 56.4626 251.07 56.697 252.415 56.3165C253.399 56.0379 254.537 55.3083 254.19 54.1327C253.892 53.1217 252.371 53.17 249.768 53.3458C247.674 53.4799 245.503 53.3552 244.872 51.2156C243.956 48.1121 246.457 46.538 249.123 45.7837C251.837 45.0158 254.598 45.2025 255.744 48.1138L252.502 49.0312C252.024 47.7652 250.911 47.6979 249.687 48.0445C248.918 48.262 247.831 48.7224 248.122 49.7099C248.476 50.909 250.446 50.53 252.523 50.4263C254.649 50.309 256.802 50.4639 257.469 52.7211C258.413 55.9187 255.884 57.7551 253.05 58.5569C250.168 59.3724 247.046 59.1094 245.951 55.9291Z" fill="var(--fill-0, #F4F4F4)"/>
<path d="M270.592 46.8389L261.776 49.8124C262.603 51.8631 263.977 52.461 265.844 51.8313C267.192 51.3769 267.994 50.2003 267.946 49.3881L270.9 48.3916C270.948 51.5335 269.363 53.4144 266.597 54.3471C262.745 55.6465 259.446 53.86 258.143 50.1576C256.881 46.571 258.449 42.9875 262.16 41.736C266.319 40.3329 269.534 43.08 270.592 46.8389ZM261.043 47.7298L266.503 45.8883C265.609 44.3259 264.567 43.6937 262.936 44.2438C260.809 44.9613 260.765 46.7883 261.043 47.7298Z" fill="var(--fill-0, #F4F4F4)"/>
<path d="M280.996 35.0201L285.852 46.7464L282.724 47.9877L282.048 46.3546L281.978 46.3822C281.689 48.0287 280.516 49.2339 279.126 49.7856C275.627 51.174 273.949 49.5954 272.746 46.6922L269.76 39.4795L273.05 38.1738L275.792 44.7968C276.59 46.7248 277.564 47.4475 279.093 46.8407C280.877 46.1327 281.238 44.854 280.252 42.4724L277.706 36.3257L280.996 35.0201Z" fill="var(--fill-0, #F4F4F4)"/>
<path d="M299.639 26.298L301.496 39.5322L297.962 41.259L288.232 31.8719L291.564 30.2434L297.943 36.7824L297.988 36.7605L296.485 27.839L299.639 26.298Z" fill="var(--fill-0, #F4F4F4)"/>
<path d="M303.383 31.5085C301.351 27.9943 302.305 24.4281 305.83 22.4748C309.376 20.5095 312.99 21.5437 315.022 25.0579C317.042 28.5508 316.088 32.117 312.542 34.0824C309.017 36.0356 305.403 35.0015 303.383 31.5085ZM306.472 29.7964C307.482 31.5429 309.135 32.961 311.224 31.8035C313.334 30.6339 312.943 28.5165 311.933 26.77C310.911 25.0023 309.258 23.5842 307.147 24.7538C305.059 25.9113 305.45 28.0287 306.472 29.7964Z" fill="var(--fill-0, #F4F4F4)"/>
<path d="M315.304 12.9898L317.358 16.2065L319.562 14.8573L320.821 16.8288L318.617 18.178L322.009 23.4907C322.645 24.4869 323.058 24.5802 324.076 23.9575C324.394 23.7629 324.677 23.5605 324.956 23.3037L326.427 25.6072C325.971 26.0016 325.327 26.4245 324.733 26.7878C322.889 27.9165 321.013 28.4874 319.648 26.3499L315.606 20.0203L313.783 21.136L312.525 19.1645L314.348 18.0487L312.294 14.8321L315.304 12.9898Z" fill="var(--fill-0, #F4F4F4)"/>
<path d="M324.017 19.5625C321.666 16.2442 322.284 12.6077 325.612 10.3481C328.961 8.07454 332.656 8.78192 335.007 12.1002C337.344 15.3983 336.725 19.0348 333.377 21.3084C330.049 23.568 326.354 22.8606 324.017 19.5625ZM326.934 17.5818C328.102 19.2309 329.881 20.4956 331.853 19.1566C333.845 17.8036 333.258 15.7299 332.09 14.0808C330.908 12.4116 329.129 11.147 327.137 12.4999C325.165 13.839 325.752 15.9127 326.934 17.5818Z" fill="var(--fill-0, #F4F4F4)"/>
<path d="M340.87 15.73L338.547 12.7241L341.677 10.4059L344 13.4118L340.87 15.73Z" fill="var(--fill-0, #F4F4F4)"/>
<path d="M6.55167 15.3808L7.55291 14.0969L7.51318 14.0672C6.00793 14.6665 4.49138 14.2719 3.17996 13.2917C0.0802444 10.9748 0.602956 7.2394 2.77232 4.45765C4.881 1.7537 8.36796 0.387882 11.3882 2.64537C12.6003 3.55134 13.398 4.94822 13.2602 6.41558L13.2999 6.44528L17.2442 1.38754L20.0658 3.49651L9.23412 17.3858L6.55167 15.3808ZM10.4562 10.2934C11.7305 8.65935 12.3481 6.65757 10.52 5.2912C8.67212 3.90997 6.82265 4.99094 5.53317 6.64443C4.30437 8.22011 3.75008 10.4231 5.49864 11.7301C7.36642 13.1262 9.16675 11.9469 10.4562 10.2934Z" stroke="var(--stroke-0, #D50000)" stroke-width="2" mask="url(#path-1-outside-1_0_9)"/>
<path d="M24.8869 21.2695L17.1729 16.1408C15.9916 18.0181 16.3258 19.4532 17.9596 20.5394C19.1384 21.3231 20.5813 21.247 21.2168 20.7229L23.8019 22.4416C21.2612 24.3617 18.773 24.2458 16.3534 22.6371C12.9824 20.3958 12.4666 16.7395 14.7137 13.5C16.8907 10.3617 20.7608 9.44383 24.0077 11.6026C27.6476 14.0225 27.3268 18.1878 24.8869 21.2695ZM18.4369 14.3186L23.2142 17.4948C23.9566 15.8583 23.8492 14.6627 22.4222 13.714C20.5609 12.4765 19.0401 13.5363 18.4369 14.3186Z" stroke="var(--stroke-0, #D50000)" stroke-width="2" mask="url(#path-1-outside-1_0_9)"/>
<path d="M47.1935 25.7834L38.5984 40.6784L35.5076 38.9689L38.5448 33.7056L38.5013 33.6815C37.0944 34.4776 35.3315 34.1491 33.982 33.4027C31.9143 32.2591 30.0637 29.296 32.523 25.0342C34.2691 22.0084 37.5493 20.0558 40.9665 21.9458C42.3595 22.7163 43.4044 23.9407 43.4 25.5406L43.4436 25.5646L44.2551 24.1582L47.1935 25.7834ZM35.6507 26.6797C34.6301 28.4484 34.2747 30.5569 36.299 31.6764C38.3014 32.7839 39.9571 31.5071 41.0022 29.6958C41.9983 27.9698 42.3715 25.7307 40.4344 24.6593C38.4319 23.5518 36.6836 24.8898 35.6507 26.6797Z" stroke="var(--stroke-0, #D50000)" stroke-width="2" mask="url(#path-1-outside-1_0_9)"/>
<path d="M60.0159 32.0546L54.2948 43.4006L51.2685 41.938L52.0653 40.3579L51.9981 40.3254C50.5492 41.2083 48.8496 41.1511 47.5046 40.501C44.1197 38.8651 44.2085 36.5881 45.6249 33.779L49.144 26.8002L52.3271 28.3386L49.0958 34.7468C48.1552 36.6122 48.2508 37.8048 49.7303 38.5198C51.4564 39.354 52.672 38.7678 53.8339 36.4635L56.8328 30.5162L60.0159 32.0546Z" stroke="var(--stroke-0, #D50000)" stroke-width="2" mask="url(#path-1-outside-1_0_9)"/>
<path d="M70.4277 44.2945L61.8566 40.6993C61.0624 42.7626 61.6698 44.109 63.4852 44.8705C64.7949 45.4199 66.1966 45.0759 66.7184 44.4427L69.5908 45.6475C67.4705 48.0066 65.0053 48.3571 62.3168 47.2294C58.5713 45.6583 57.3531 42.1652 58.9283 38.5658C60.4543 35.0788 64.0748 33.4556 67.6825 34.9688C71.7268 36.6652 72.2229 40.814 70.4277 44.2945ZM62.7427 38.6746L68.0508 40.9012C68.4609 39.1561 68.1227 38.0025 66.5371 37.3374C64.469 36.4699 63.1824 37.7941 62.7427 38.6746Z" stroke="var(--stroke-0, #D50000)" stroke-width="2" mask="url(#path-1-outside-1_0_9)"/>
<path d="M70.5126 50.1899L74.7868 38.2486L77.9482 39.3331L77.3695 40.9499L77.4167 40.9661C78.7278 40.0414 80.258 39.7625 81.8387 40.3048C83.3723 40.8309 84.5422 41.8546 84.6902 43.5133C85.77 42.7167 87.383 42.2068 89.0817 42.7896C91.6768 43.6799 93.119 45.4972 92.0112 48.5923L89.1507 56.5839L85.8006 55.4346L88.2229 48.6671C88.7933 47.0734 89.123 45.7083 87.212 45.0527C85.3246 44.4052 84.4251 45.8082 83.8877 47.3095L81.5067 53.9615L78.1566 52.8122L80.5541 46.114C81.0501 44.7282 81.715 43.1669 79.5916 42.4384C78.931 42.2118 77.1779 42.0772 76.3429 44.41L73.8627 51.3392L70.5126 50.1899Z" stroke="var(--stroke-0, #D50000)" stroke-width="2" mask="url(#path-1-outside-1_0_9)"/>
<path d="M98.9838 59.4236L102.098 47.1433L105.374 47.9395L104.94 49.6497L105.013 49.6674C106.236 48.502 107.909 48.2026 109.364 48.5565C113.028 49.447 113.438 51.6901 112.667 54.7305L110.751 62.284L107.306 61.4465L109.065 54.5106C109.577 52.4916 109.223 51.3466 107.622 50.9573C105.754 50.5032 104.694 51.33 104.062 53.824L102.429 60.2611L98.9838 59.4236Z" stroke="var(--stroke-0, #D50000)" stroke-width="2" mask="url(#path-1-outside-1_0_9)"/>
<path d="M122.473 59.5998L122.725 58.3262C122.036 58.7194 120.804 58.5112 119.686 58.4991C118.564 58.511 117.511 58.6857 117.264 59.9352C117.012 61.2088 117.957 61.7116 119.086 61.9252C121.811 62.4407 122.326 60.3447 122.473 59.5998ZM118.658 54.9393L115.172 54.2798C115.999 51.121 119.11 50.7125 121.957 51.2512C124.485 51.7296 127.42 52.8581 126.832 55.8378L125.556 62.3018C125.333 63.4311 125.232 64.5838 125.452 65.1488L121.917 64.48C121.871 64.0723 121.853 63.6452 121.909 63.2321C120.582 64.1525 118.881 64.2545 117.335 63.9619C114.929 63.5068 113.247 61.9671 113.75 59.4199C114.305 56.6085 116.598 56.3443 118.815 56.4646C121.012 56.5563 122.986 57.0046 123.261 55.6108C123.55 54.145 122.562 53.7337 121.335 53.5015C120.009 53.2507 119.046 53.6168 118.658 54.9393ZM125.55 47.3693L127.243 47.6897C126.963 48.2099 126.633 48.8456 126.132 49.324C125.63 49.8023 124.96 50.0994 123.954 49.909C123.217 49.7696 122.597 49.428 122.022 49.1196C121.451 48.7873 120.949 48.4929 120.384 48.386C119.721 48.2607 119.42 48.6274 119.154 49.2002L117.657 48.9169C118.251 47.5836 119.168 46.1618 121.328 46.5705C121.893 46.6773 122.341 46.9865 122.818 47.2762C123.291 47.59 123.788 47.9085 124.353 48.0153C125.089 48.1546 125.484 47.8305 125.55 47.3693Z" stroke="var(--stroke-0, #D50000)" stroke-width="2" mask="url(#path-1-outside-1_0_9)"/>
<path d="M128.459 59.2451C129.024 55.245 131.995 52.9792 136.006 53.523C140.043 54.0702 142.273 57.0409 141.707 61.041C141.144 65.0168 138.174 67.2826 134.138 66.7355C130.126 66.1917 127.896 63.221 128.459 59.2451ZM131.975 59.7218C131.694 61.7097 132.127 63.8192 134.505 64.1415C136.907 64.4671 137.909 62.5522 138.19 60.5643C138.475 58.5522 138.041 56.4426 135.639 56.117C133.262 55.7948 132.26 57.7096 131.975 59.7218Z" stroke="var(--stroke-0, #D50000)" stroke-width="2" mask="url(#path-1-outside-1_0_9)"/>
<path d="M150.637 68.2161L151.235 55.5764L154.582 55.7282L154.501 57.4396L154.551 57.4418C155.536 56.188 156.92 55.4913 158.593 55.5672C160.217 55.6408 161.637 56.2933 162.265 57.8408C163.066 56.7746 164.462 55.8334 166.26 55.9149C169.007 56.0395 170.921 57.3759 170.766 60.6519L170.365 69.111L166.819 68.9501L167.158 61.7868C167.238 60.0999 167.154 58.6996 165.131 58.6078C163.134 58.5172 162.683 60.1138 162.607 61.7029L162.274 68.7439L158.728 68.5831L159.064 61.4931C159.133 60.0263 159.313 58.3439 157.065 58.2419C156.366 58.2102 154.647 58.5732 154.53 61.0425L154.183 68.3769L150.637 68.2161Z" stroke="var(--stroke-0, #D50000)" stroke-width="2" mask="url(#path-1-outside-1_0_9)"/>
<path d="M185.547 63.4381L176.224 63.6224C176.37 65.8226 177.49 66.8041 179.465 66.7651C180.889 66.7369 182.022 65.8578 182.23 65.0703L185.355 65.0085C184.416 68.0136 182.318 69.328 179.394 69.3858C175.32 69.4663 172.739 66.7757 172.658 62.8606C172.58 59.0678 175.195 56.1276 179.119 56.05C183.518 55.963 185.717 59.5425 185.547 63.4381ZM176.179 61.4201L181.953 61.306C181.591 59.5506 180.797 58.6361 179.073 58.6702C176.823 58.7147 176.209 60.4404 176.179 61.4201Z" stroke="var(--stroke-0, #D50000)" stroke-width="2" mask="url(#path-1-outside-1_0_9)"/>
<path d="M188.011 68.8215L187.25 56.1902L190.619 55.9956L190.76 58.341L190.81 58.3381C191.363 56.7126 193.044 55.5122 194.766 55.4127C195.015 55.3983 195.318 55.4298 195.547 55.4901L195.741 58.7151C195.412 58.6606 194.885 58.642 194.461 58.6665C191.866 58.8165 191.078 60.7008 191.212 62.9241L191.555 68.6167L188.011 68.8215Z" stroke="var(--stroke-0, #D50000)" stroke-width="2" mask="url(#path-1-outside-1_0_9)"/>
<path d="M209.127 61.5311L199.852 62.4673C200.182 64.6483 201.381 65.536 203.346 65.3377C204.763 65.1947 205.817 64.2271 205.959 63.4255L209.067 63.1117C208.386 66.1823 206.405 67.6616 203.496 67.9552C199.442 68.3643 196.644 65.8912 196.233 61.9959C195.836 58.2224 198.194 55.0811 202.098 54.6871C206.475 54.2453 208.968 57.6351 209.127 61.5311ZM199.621 60.2762L205.365 59.6964C204.857 57.9762 203.989 57.1289 202.273 57.302C200.035 57.5279 199.568 59.2974 199.621 60.2762Z" stroke="var(--stroke-0, #D50000)" stroke-width="2" mask="url(#path-1-outside-1_0_9)"/>
<path d="M222.881 56.7386L219.447 57.2596C219.003 55.8906 217.97 55.2795 216.512 55.5007C214.264 55.8418 213.875 58.1793 214.166 60.0174C214.45 61.8071 215.507 63.851 217.706 63.5174C219.336 63.27 220.114 62.1117 220.095 60.5543L223.48 60.0408C223.559 63.4217 221.5 65.5917 218.14 66.1015C214.286 66.6862 211.271 64.4194 210.678 60.6706C210.061 56.7767 211.977 53.5388 216.127 52.9091C219.141 52.4518 222.153 53.5798 222.881 56.7386Z" stroke="var(--stroke-0, #D50000)" stroke-width="2" mask="url(#path-1-outside-1_0_9)"/>
<path d="M237.303 56.6136L228.174 58.474C228.731 60.6105 230.017 61.3734 231.95 60.9794C233.345 60.6951 234.293 59.627 234.35 58.8154L237.409 58.1919C237.052 61.3146 235.236 62.9846 232.373 63.5681C228.384 64.3811 225.341 62.2013 224.526 58.3676C223.736 54.6536 225.754 51.2926 229.596 50.5095C233.904 49.6317 236.738 52.7539 237.303 56.6136ZM227.716 56.3175L233.37 55.1654C232.685 53.505 231.732 52.7491 230.044 53.0933C227.841 53.5422 227.561 55.3491 227.716 56.3175Z" stroke="var(--stroke-0, #D50000)" stroke-width="2" mask="url(#path-1-outside-1_0_9)"/>
<path d="M245.951 55.9291L249.193 55.0117C249.648 56.4626 251.07 56.697 252.415 56.3165C253.399 56.0379 254.537 55.3083 254.19 54.1327C253.892 53.1217 252.371 53.17 249.768 53.3458C247.674 53.4799 245.503 53.3552 244.872 51.2156C243.956 48.1121 246.457 46.538 249.123 45.7837C251.837 45.0158 254.598 45.2025 255.744 48.1138L252.502 49.0312C252.024 47.7652 250.911 47.6979 249.687 48.0445C248.918 48.262 247.831 48.7224 248.122 49.7099C248.476 50.909 250.446 50.53 252.523 50.4263C254.649 50.309 256.802 50.4639 257.469 52.7211C258.413 55.9187 255.884 57.7551 253.05 58.5569C250.168 59.3724 247.046 59.1094 245.951 55.9291Z" stroke="var(--stroke-0, #D50000)" stroke-width="2" mask="url(#path-1-outside-1_0_9)"/>
<path d="M270.592 46.8389L261.776 49.8124C262.603 51.8631 263.977 52.461 265.844 51.8313C267.192 51.3769 267.994 50.2003 267.946 49.3881L270.9 48.3916C270.948 51.5335 269.363 53.4144 266.597 54.3471C262.745 55.6465 259.446 53.86 258.143 50.1576C256.881 46.571 258.449 42.9875 262.16 41.736C266.319 40.3329 269.534 43.08 270.592 46.8389ZM261.043 47.7298L266.503 45.8883C265.609 44.3259 264.567 43.6937 262.936 44.2438C260.809 44.9613 260.765 46.7883 261.043 47.7298Z" stroke="var(--stroke-0, #D50000)" stroke-width="2" mask="url(#path-1-outside-1_0_9)"/>
<path d="M280.996 35.0201L285.852 46.7464L282.724 47.9877L282.048 46.3546L281.978 46.3822C281.689 48.0287 280.516 49.2339 279.126 49.7856C275.627 51.174 273.949 49.5954 272.746 46.6922L269.76 39.4795L273.05 38.1738L275.792 44.7968C276.59 46.7248 277.564 47.4475 279.093 46.8407C280.877 46.1327 281.238 44.854 280.252 42.4724L277.706 36.3257L280.996 35.0201Z" stroke="var(--stroke-0, #D50000)" stroke-width="2" mask="url(#path-1-outside-1_0_9)"/>
<path d="M299.639 26.298L301.496 39.5322L297.962 41.259L288.232 31.8719L291.564 30.2434L297.943 36.7824L297.988 36.7605L296.485 27.839L299.639 26.298Z" stroke="var(--stroke-0, #D50000)" stroke-width="2" mask="url(#path-1-outside-1_0_9)"/>
<path d="M303.383 31.5085C301.351 27.9943 302.305 24.4281 305.83 22.4748C309.376 20.5095 312.99 21.5437 315.022 25.0579C317.042 28.5508 316.088 32.117 312.542 34.0824C309.017 36.0356 305.403 35.0015 303.383 31.5085ZM306.472 29.7964C307.482 31.5429 309.135 32.961 311.224 31.8035C313.334 30.6339 312.943 28.5165 311.933 26.77C310.911 25.0023 309.258 23.5842 307.147 24.7538C305.059 25.9113 305.45 28.0287 306.472 29.7964Z" stroke="var(--stroke-0, #D50000)" stroke-width="2" mask="url(#path-1-outside-1_0_9)"/>
<path d="M315.304 12.9898L317.358 16.2065L319.562 14.8573L320.821 16.8288L318.617 18.178L322.009 23.4907C322.645 24.4869 323.058 24.5802 324.076 23.9575C324.394 23.7629 324.677 23.5605 324.956 23.3037L326.427 25.6072C325.971 26.0016 325.327 26.4245 324.733 26.7878C322.889 27.9165 321.013 28.4874 319.648 26.3499L315.606 20.0203L313.783 21.136L312.525 19.1645L314.348 18.0487L312.294 14.8321L315.304 12.9898Z" stroke="var(--stroke-0, #D50000)" stroke-width="2" mask="url(#path-1-outside-1_0_9)"/>
<path d="M324.017 19.5625C321.666 16.2442 322.284 12.6077 325.612 10.3481C328.961 8.07454 332.656 8.78192 335.007 12.1002C337.344 15.3983 336.725 19.0348 333.377 21.3084C330.049 23.568 326.354 22.8606 324.017 19.5625ZM326.934 17.5818C328.102 19.2309 329.881 20.4956 331.853 19.1566C333.845 17.8036 333.258 15.7299 332.09 14.0808C330.908 12.4116 329.129 11.147 327.137 12.4999C325.165 13.839 325.752 15.9127 326.934 17.5818Z" stroke="var(--stroke-0, #D50000)" stroke-width="2" mask="url(#path-1-outside-1_0_9)"/>
<path d="M340.87 15.73L338.547 12.7241L341.677 10.4059L344 13.4118L340.87 15.73Z" stroke="var(--stroke-0, #D50000)" stroke-width="2" mask="url(#path-1-outside-1_0_9)"/>
</g>
</svg>
