<svg preserveAspectRatio="none" width="100%" height="100%" overflow="visible" style="display: block;" viewBox="0 0 607 531" fill="none" xmlns="http://www.w3.org/2000/svg">
<g id="Vector">
<path d="M293.852 528.038C260.625 528.038 227.781 523.657 196.23 515.023C166.13 506.781 137.777 494.843 111.961 479.537C61.18 449.426 23.1914 407.811 4.99882 362.357C4.86603 362.029 4.79717 361.677 4.79717 361.326V141.371C1.72818 130.696 3.04136 119.297 8.59406 108.28C7.57598 105.724 7.44811 102.128 7.38909 100.476C7.27597 97.2818 7.38417 90.8746 9.40557 83.833C13.9205 68.1114 25.262 58.6374 41.3397 57.1588C41.443 57.1497 41.5512 57.1451 41.6545 57.1451C42.407 57.1451 43.1398 57.3916 43.7202 57.8479C44.3792 58.3682 44.7874 59.1121 44.8464 59.9107C45.3235 66.3818 48.4909 73.1998 53.8862 79.493C57.5355 69.6767 62.3997 61.476 68.3852 55.0596C78.0938 44.6592 90.4091 39.3883 104.987 39.3883C105.243 39.3883 105.498 39.3883 105.759 39.3928C106.708 39.4065 107.603 39.8081 108.203 40.4926C108.803 41.1772 109.039 42.0762 108.853 42.9387C108.71 43.5913 108.562 44.253 108.41 44.9239C107.461 49.1087 106.487 53.3939 107.475 57.1451C110.903 52.3853 114.892 48.7847 119.555 46.2154C126.194 42.3911 132.74 38.5303 139.021 34.7471C150.584 27.4499 158.581 20.4083 164.935 11.9201C165.486 11.1853 166.366 10.7198 167.33 10.656C167.409 10.6514 167.488 10.6468 167.562 10.6468C168.442 10.6468 169.288 10.9845 169.893 11.5869C182.769 24.3513 180.787 36.5771 177.388 49.022C176.773 51.2764 176.828 53.3619 177.305 55.4977C186.861 48.091 198.01 43.5092 211.978 41.2046C212.165 41.1726 212.352 41.1589 212.539 41.1589C213.596 41.1589 214.605 41.6472 215.205 42.4869C215.908 43.4727 215.913 44.7505 215.219 45.7408C208.998 54.6215 206.731 67.3082 209.081 79.8672C210.518 80.8393 212.396 81.3321 214.683 81.3321C223.62 81.3321 235.581 74.1399 241.916 64.958C245.422 59.8742 248.727 52.0522 244.552 43.6506C244.075 42.6923 244.183 41.5742 244.832 40.7117C245.432 39.9131 246.416 39.443 247.454 39.443C247.537 39.443 247.626 39.443 247.709 39.4522C261.653 40.4927 271.597 43.8606 279.334 50.2496C280.829 47.8126 281.714 45.5947 281.758 43.1897C282.024 29.7865 285.103 19.4317 299.641 9.23668C300.202 8.84422 300.881 8.63886 301.569 8.63886C301.815 8.63886 302.061 8.66624 302.307 8.71644C303.231 8.9218 304.013 9.49681 304.436 10.2909C308.405 17.7432 314.13 23.6804 323.559 30.1333C328.855 33.5058 334.325 36.9422 339.813 40.3466C343.851 42.8201 347.028 46.1697 349.178 50.1766C351.415 47.1418 351.652 43.1213 351.878 39.2057L351.922 38.4801C351.971 37.6724 352.375 36.9148 353.038 36.39C353.619 35.9291 354.357 35.6781 355.114 35.6781C355.222 35.6781 355.33 35.6826 355.439 35.6918C372.21 37.2799 385.769 45.9644 391.784 58.9432C394.927 63.2695 398.97 65.5558 403.49 65.5558C408.998 65.5558 414.94 62.0921 418.992 56.5108C424.865 48.4287 425.804 37.7089 421.505 27.8378C421.082 26.8658 421.245 25.7568 421.933 24.9217C422.543 24.1824 423.483 23.758 424.471 23.758C424.599 23.758 424.727 23.7671 424.855 23.7808C438.547 25.3142 448.752 29.2024 456.631 35.9382C457.959 34.0854 458.235 32.3512 458.289 30.722C458.658 19.6097 460.168 10.5373 475.645 3.29947C476.098 3.08954 476.59 2.98458 477.082 2.98458C477.45 2.98458 477.819 3.04391 478.173 3.16256C479 3.44094 479.669 4.02508 480.018 4.7735C483.726 12.7506 491.172 19.5002 499.125 26.2771C504.889 31.0232 510.093 35.4043 515.031 39.6666C515.08 39.7123 515.134 39.7579 515.178 39.8035C518.36 42.9387 521.793 46.7174 524.139 51.5456C525.467 50.0625 525.723 47.7716 525.831 44.2804C525.841 43.9884 525.851 43.7008 525.861 43.4179C525.895 42.4276 526.466 41.5195 527.376 40.9992C527.887 40.7026 528.472 40.5565 529.058 40.5565C529.51 40.5565 529.963 40.6432 530.386 40.8258C541.87 45.686 551.544 53.6266 558.365 63.7897C563.869 71.9905 567.445 81.6151 568.566 91.1621C569.599 91.2031 570.646 91.2351 571.684 91.2351C576.725 91.2351 579.548 90.4136 580.842 88.57C581.378 87.8033 582.263 87.3104 583.247 87.2328C583.34 87.2237 583.434 87.2237 583.522 87.2237C584.403 87.2237 585.253 87.5614 585.858 88.1684C597.357 99.623 602.31 109.969 600.569 118.927C599.575 124.034 596.428 128.478 591.17 132.207C592.1 132.289 593.049 132.326 594.018 132.326C595.38 132.326 596.821 132.243 598.307 132.088C598.429 132.075 598.552 132.07 598.675 132.07C600.131 132.07 601.425 132.992 601.779 134.334L601.985 135.109C603.21 139.673 605.492 148.161 601.641 153.706C599.998 156.065 597.402 157.608 594.131 158.165C589.65 158.927 584.673 159.296 578.909 159.296C578.481 159.296 578.053 159.296 577.62 159.292V373.232C577.62 373.652 577.522 374.072 577.335 374.455C556.58 416.961 518.075 455.591 468.922 483.219C416.754 512.545 356.216 528.047 293.847 528.047L293.852 528.038Z" fill="#E20000"/>
<path d="M477.087 5.93722C481.07 14.5076 489.038 21.6953 496.986 28.4676C502.342 32.876 507.644 37.3255 512.852 41.8252C517.333 46.2428 520.731 50.5416 522.521 55.9312C529.146 53.8092 528.891 47.986 529.058 43.5137C552.542 53.4532 564.292 74.9705 565.62 93.9961C567.499 94.0691 569.589 94.1923 571.679 94.1923C576.411 94.1923 581.152 93.5488 583.518 90.1763C597.712 104.31 606.899 122.299 582.893 133.453C586.562 134.721 590.216 135.283 594.023 135.283C595.547 135.283 597.097 135.191 598.676 135.023C599.954 139.887 604.174 153.428 593.561 155.23C588.859 156.029 583.916 156.312 578.914 156.312C577.424 156.312 575.929 156.284 574.434 156.243V373.214C533.381 457.289 423.256 525.063 293.857 525.063C164.458 525.063 44.1138 451.557 7.99915 361.321V140.969C4.7777 130.158 6.46958 118.845 12.1649 108.244C12.5436 108.495 12.8535 108.645 13.0551 108.645C13.4043 108.645 13.4092 108.184 12.8436 107.021C12.6125 107.431 12.3862 107.833 12.1649 108.248C9.45004 106.45 5.82529 63.4109 41.6596 60.1115C42.3334 69.2888 47.6648 78.1376 55.2291 85.3937C60.9539 67.0709 74.4594 42.3546 104.992 42.3546C105.233 42.3546 105.474 42.3546 105.72 42.3592C104.259 49.1361 101.736 57.063 107.289 63.2649C110.368 57.8114 114.637 52.3671 121.222 48.7527C127.803 44.9604 134.329 41.1179 140.797 37.2206C151.809 30.2748 160.568 22.9594 167.567 13.6132C179.061 25.0084 177.821 35.3814 174.3 48.2918C173.11 52.6637 174 56.5565 175.716 60.8143C185.631 51.9381 197.268 46.6489 212.549 44.1253C204.921 55.014 203.686 69.549 206.15 81.4417C208.349 83.4086 211.329 84.2985 214.693 84.2985C231.322 84.2985 257.521 62.6443 247.464 42.4048C261.082 43.4225 271.725 46.7174 279.939 54.9409C282.688 51.1532 284.887 47.5616 284.965 43.2399C285.221 30.2976 288.142 21.029 301.579 11.6006C306.079 20.0478 312.65 26.3501 321.714 32.5429C327.129 35.9884 332.569 39.4065 338.043 42.8018C343.296 46.0191 346.399 50.5143 347.948 55.3243C354.652 51.3175 354.775 44.3717 355.119 38.6353C371.826 40.2188 383.788 48.9353 388.966 60.3488C393.009 66.0533 398.223 68.513 403.5 68.513C418.505 68.513 434.013 48.5976 424.481 26.7198C438.07 28.2394 448.59 32.0728 456.804 40.2645C460.424 37.143 461.388 34.0352 461.496 30.8087C461.865 19.7284 463.443 12.3262 477.097 5.94634M477.087 0.00456358C476.098 0.00456358 475.11 0.219052 474.209 0.638901C457.192 8.59322 455.486 18.9252 455.097 30.6171C455.097 30.7038 455.092 30.7859 455.087 30.8726C447.287 25.4465 437.598 22.2064 425.239 20.8236C424.983 20.7962 424.727 20.7825 424.471 20.7825C422.494 20.7825 420.615 21.6314 419.396 23.11C418.019 24.7757 417.699 26.9936 418.545 28.9377C422.445 37.896 421.624 47.5799 416.346 54.8405C412.879 59.614 407.951 62.5758 403.495 62.5758C400.111 62.5758 397.121 60.8645 394.598 57.4874C388.057 43.6552 373.592 34.4185 355.763 32.7254C355.547 32.7026 355.331 32.6935 355.114 32.6935C353.599 32.6935 352.124 33.1909 350.963 34.1128C349.635 35.1669 348.829 36.6775 348.73 38.293L348.686 39.0232C348.593 40.6752 348.484 42.1447 348.298 43.459C346.389 41.305 344.137 39.4202 341.569 37.8458C336.095 34.4505 330.661 31.0369 325.413 27.6964C316.442 21.5584 311.022 15.9497 307.299 8.95831C306.453 7.37475 304.894 6.22016 303.04 5.814C302.553 5.70904 302.061 5.65428 301.569 5.65428C300.192 5.65428 298.835 6.06956 297.713 6.8545C290.326 12.0387 285.482 17.3872 282.477 23.685C279.934 29.0152 278.724 35.0072 278.567 43.1167C278.552 43.9245 278.409 44.7185 278.144 45.5217C270.407 40.2827 260.767 37.4305 247.97 36.4767C247.798 36.463 247.626 36.4584 247.459 36.4584C245.383 36.4584 243.421 37.3985 242.216 38.9958C240.917 40.7254 240.701 42.9615 241.65 44.8782C245.221 52.0613 242.299 58.8839 239.226 63.3425C232.832 72.6111 221.51 78.3521 214.688 78.3521C213.641 78.3521 212.741 78.2198 211.993 77.9596C210.188 66.5872 212.338 55.2923 217.905 47.3471C219.292 45.3665 219.282 42.8064 217.875 40.8349C216.68 39.1601 214.664 38.1789 212.549 38.1789C212.175 38.1789 211.801 38.2109 211.428 38.2702C199.383 40.2599 189.34 43.8834 180.571 49.4692C182.543 42.1949 183.689 36.034 182.921 29.7043C182.026 22.3798 178.534 15.7854 172.239 9.54701C171.024 8.34222 169.332 7.66681 167.572 7.66681C167.419 7.66681 167.262 7.67138 167.109 7.68051C165.181 7.80829 163.426 8.73926 162.324 10.2133C156.206 18.3821 148.479 25.1864 137.265 32.2645C131.029 36.0249 124.517 39.8583 117.912 43.6643C115.384 45.0608 113.043 46.7265 110.874 48.6843C111.066 47.694 111.302 46.6398 111.553 45.5171C111.705 44.8372 111.858 44.1663 112 43.5046C112.374 41.775 111.897 39.9815 110.702 38.6125C109.507 37.2434 107.717 36.4356 105.818 36.4128C105.543 36.4128 105.277 36.4082 105.007 36.4082C81.7237 36.4082 63.5802 49.3688 53.0404 73.1861C50.0993 68.7047 48.373 64.0955 48.0484 59.6962C47.9304 58.0944 47.1189 56.6066 45.7959 55.5707C44.6352 54.6626 43.1744 54.1697 41.6695 54.1697C41.458 54.1697 41.2514 54.1788 41.0399 54.1971C23.5408 55.808 11.2157 66.0578 6.33187 83.0617C4.20227 90.473 4.08915 97.2088 4.2121 100.568C4.29571 102.941 4.54163 105.136 4.92033 106.92C4.99902 107.299 5.09247 107.687 5.19575 108.075C-0.174971 119.269 -1.40945 130.842 1.62019 141.745V361.317C1.62019 362.02 1.7579 362.723 2.01857 363.384C20.4522 409.44 58.8932 451.575 110.259 482.033C136.331 497.49 164.955 509.547 195.345 517.861C227.191 526.578 260.34 531 293.872 531C327.405 531 357.667 526.92 388.273 518.87C417.443 511.199 445.143 500.054 470.604 485.743C495.402 471.801 517.465 455.217 536.179 436.438C554.933 417.627 569.766 397.178 580.271 375.665C580.645 374.894 580.842 374.063 580.842 373.214V162.231C586.006 162.158 590.56 161.774 594.726 161.067C598.887 160.36 602.217 158.365 604.346 155.299C608.95 148.677 606.446 139.372 605.104 134.375C605.03 134.101 604.961 133.85 604.902 133.617C604.228 131.057 601.843 129.259 599.099 129.099C601.499 126.178 603.048 122.952 603.731 119.438C605.659 109.512 600.436 98.3041 588.21 86.133C586.995 84.9237 585.298 84.2437 583.532 84.2437C583.35 84.2437 583.163 84.2528 582.977 84.2665C581.014 84.4262 579.244 85.412 578.171 86.9408C577.896 87.3378 576.711 88.2551 571.694 88.2551C571.596 88.2551 571.492 88.2551 571.394 88.2551C569.919 79.1279 566.348 70.0418 561.09 62.2062C553.934 51.5456 543.783 43.2125 531.723 38.1105C530.878 37.7545 529.973 37.5765 529.073 37.5765C527.902 37.5765 526.731 37.8731 525.709 38.4664C523.894 39.5115 522.758 41.3278 522.684 43.3084C522.684 43.3403 522.684 43.3768 522.684 43.4088C521.016 41.305 519.241 39.443 517.529 37.7591C517.431 37.6632 517.333 37.572 517.229 37.4807C512.287 33.2092 507.068 28.819 501.289 24.0592C493.607 17.5105 486.431 11.0165 482.974 3.58241C482.275 2.08099 480.943 0.912716 479.285 0.355959C478.577 0.118653 477.839 0 477.101 0L477.087 0.00456358Z" fill="var(--fill-0, #FFF100)"/>
</g>
</svg>
