<svg preserveAspectRatio="none" width="100%" height="100%" overflow="visible" style="display: block;" viewBox="0 0 43 49" fill="none" xmlns="http://www.w3.org/2000/svg">
<g id="Logo Icon">
<g id="icone 1">
</g>
<g id="Vector">
<path d="M7.38949 23.0124C7.35781 22.9078 7.32901 22.8004 7.3031 22.6958C7.3031 22.6958 7.30598 22.6901 7.30885 22.6873C7.33189 22.7975 7.35781 22.905 7.38949 23.0124Z" fill="#FFCE00"/>
<path d="M35.0266 22.9446C35.0266 22.9446 35.018 22.9361 35.0151 22.9333C34.9806 22.8937 34.946 22.8569 34.9114 22.8173C34.946 22.724 34.9777 22.6307 35.0036 22.5346C35.0756 22.2886 35.1217 22.0342 35.1505 21.7769C35.1793 21.5309 35.1879 21.2849 35.185 21.0418C35.2023 21.0588 35.2167 21.0729 35.234 21.087C35.257 21.6666 35.2109 22.3169 35.0238 22.9417L35.0266 22.9446Z" fill="#FFCE00"/>
<path d="M35.2369 21.0899C35.2196 21.0729 35.2052 21.0588 35.1879 21.0446C35.1908 21.2878 35.1793 21.5337 35.1533 21.7797C35.1245 22.037 35.0756 22.2915 35.0065 22.5374C34.9806 22.6336 34.9489 22.7269 34.9143 22.8202C34.9489 22.8597 34.9834 22.8965 35.018 22.9361C35.0209 22.9417 35.0266 22.9446 35.0295 22.9474C35.2167 22.3226 35.2628 21.6723 35.2397 21.0927L35.2369 21.0899ZM7.31173 22.6873C7.31173 22.6873 7.30597 22.6929 7.30597 22.6958C7.33189 22.8032 7.36069 22.9078 7.39237 23.0124C7.36357 22.905 7.33477 22.7975 7.31173 22.6873Z" fill="var(--fill-0, #040468)"/>
<path d="M39.9971 31.8336C39.9971 31.8081 39.9971 31.7827 39.9971 31.7572C39.9914 31.2794 39.9597 30.8044 39.9078 30.3379C39.905 30.3097 39.9021 30.2814 39.8963 30.2531C39.8762 30.0863 39.856 29.9223 39.8301 29.7583C39.8243 29.7159 39.8186 29.6763 39.8099 29.6339C39.712 29.0261 39.5738 28.4295 39.401 27.8471C39.2426 27.3155 39.0554 26.7953 38.8423 26.2892C38.7387 26.0461 38.6292 25.8058 38.514 25.5683C38.4132 25.3647 38.3096 25.1612 38.2001 24.9604C38.1598 24.8841 38.1166 24.8077 38.0734 24.7342C38.0216 24.6438 37.9698 24.5533 37.915 24.4628C37.8143 24.2932 37.7077 24.1235 37.5983 23.9539C37.2009 23.3404 36.7603 22.7523 36.2765 22.1953C36.2534 22.1699 36.2304 22.1416 36.2073 22.1162C36.2736 21.6921 36.288 21.2736 36.2765 20.8835C36.2621 20.4085 36.2045 19.9787 36.1411 19.6338L35.8992 18.3135C36.0346 17.9403 36.144 17.5586 36.216 17.1741C36.5932 15.2091 35.9654 13.5834 34.396 12.4779L33.1807 11.6213L32.6911 12.9501C32.6595 13.0349 32.622 13.1169 32.576 13.1989C32.4752 12.5712 32.3139 11.8899 32.0547 11.2226C31.7322 10.3914 31.2973 9.67609 30.7588 9.09932C30.1051 8.39816 29.3045 7.89773 28.3744 7.60934L27.0698 7.20221L26.9777 8.04757L25.5263 6.40492C24.6191 5.37861 24.0691 4.44561 23.7955 3.46736L23.3837 2L22.0706 2.9217C21.1548 3.56349 20.55 4.30141 20.216 5.17505C19.9453 5.89035 19.8906 6.59152 19.8474 7.27007C19.2225 6.79226 18.4046 6.39644 17.293 6.20701L15.5796 5.9158L16.0374 7.45101C16.1901 7.95993 16.2102 9.08801 15.8992 10.3546C15.7523 10.9512 15.5536 11.494 15.3175 11.9436C15.2714 11.9012 15.2225 11.8616 15.1735 11.8192C14.4593 11.2424 13.5608 10.9116 12.6451 10.8833L11.6314 10.8551L11.5248 11.7768L11.4989 12.003C11.3405 13.3827 11.1879 14.7058 10.7185 15.9696C10.4795 15.8368 10.1829 15.7208 9.82001 15.6162L8.77754 15.3194L7.76098 18.271C7.62851 18.6556 7.5018 19.0372 7.39813 19.4246C7.28294 19.8487 7.19366 20.2813 7.15335 20.7308C7.14759 20.7873 7.14471 20.8467 7.14183 20.9061C7.12743 21.1323 7.12743 21.3585 7.13895 21.5818C7.15623 21.9578 7.21094 22.3282 7.29734 22.6901C7.29734 22.6901 7.30022 22.6845 7.3031 22.6816C7.32613 22.7919 7.35205 22.8993 7.38373 23.0068C7.35205 22.9022 7.32325 22.7947 7.29734 22.6901C7.25702 22.7382 7.21958 22.7891 7.18214 22.8371C7.16775 22.8569 7.15335 22.8739 7.13895 22.8937C6.96328 23.1199 6.79626 23.3517 6.63499 23.5864C6.52844 23.7419 6.42189 23.9002 6.32109 24.0613C6.29518 24.1009 6.26926 24.1405 6.24622 24.1829C6.2059 24.2479 6.16559 24.313 6.12527 24.3808C6.04464 24.5165 5.964 24.6551 5.88625 24.7936C5.36501 25.721 4.94168 26.6992 4.63067 27.717C4.61627 27.7594 4.60475 27.8047 4.59035 27.8471C4.20158 29.1589 3.99424 30.5387 3.99424 31.9608C3.99424 32.023 3.99424 32.0852 3.99424 32.1446H4C4.00864 32.7468 4.05184 33.3377 4.13247 33.9201C4.15551 34.0841 4.17855 34.2452 4.20734 34.4064C4.26206 34.723 4.32541 35.034 4.40029 35.3422C4.55004 35.9699 4.74298 36.5834 4.97336 37.18C7.07271 42.6168 12.3571 46.7334 18.8423 47.754C18.8682 47.7597 18.8913 47.7625 18.9172 47.7653C19.1879 47.8077 19.4586 47.8445 19.7322 47.8728C19.8963 47.8897 20.0634 47.9067 20.2304 47.9208C20.8121 47.9717 21.4024 47.9972 22.0014 47.9972C22.5515 47.9972 23.0986 47.9746 23.6371 47.9321C23.8387 47.9152 24.0374 47.8982 24.2361 47.8756C24.3168 47.8671 24.4003 47.8558 24.4809 47.8473C24.5932 47.8332 24.7084 47.8191 24.8207 47.8021C32.8063 46.6825 39.0468 40.8865 39.9021 33.6572C39.9597 33.1624 39.9942 32.6591 40 32.1502C40 32.0852 40 32.023 40 31.958V31.9269C40 31.8958 40 31.8647 40 31.8336H39.9971ZM38.5256 32.7213C38.5198 32.8372 38.5112 32.9532 38.4996 33.0691C38.4507 33.6713 38.3556 34.2679 38.2232 34.8559C38.0101 35.7946 37.6904 36.7135 37.27 37.6012C36.4464 39.34 35.2628 40.9035 33.7509 42.2465C32.2304 43.6007 30.4593 44.6638 28.4838 45.4102C27.3492 45.8371 26.1742 46.1481 24.9734 46.3404C24.8927 46.3545 24.8121 46.3658 24.7286 46.3771C24.6566 46.3884 24.5875 46.3969 24.5155 46.4082C24.3139 46.4365 24.1094 46.4591 23.905 46.4817C23.2772 46.5468 22.6407 46.5779 21.9986 46.5779C21.3564 46.5779 20.7171 46.5468 20.0864 46.4817C20.0058 46.4733 19.928 46.4648 19.8474 46.4563C19.6573 46.4337 19.4672 46.4111 19.2772 46.3828C19.2397 46.3771 19.2023 46.3715 19.1649 46.3658C17.9122 46.1764 16.6883 45.8569 15.5104 45.413C13.5349 44.6695 11.7639 43.6036 10.2433 42.2493C8.73434 40.9035 7.55076 39.34 6.72426 37.6041C6.4622 37.0527 6.24046 36.4901 6.05903 35.919C5.86897 35.3224 5.7221 34.7174 5.62131 34.101C5.57235 33.8042 5.53204 33.5045 5.50324 33.202C5.46292 32.7892 5.44564 32.3764 5.44564 31.958C5.44564 31.9382 5.44564 31.9212 5.44564 31.9014C5.44564 31.5141 5.4658 31.1296 5.50036 30.7507C5.50324 30.7111 5.509 30.6715 5.51188 30.632C5.59251 29.8516 5.73938 29.0826 5.95824 28.3305C6.04752 28.0195 6.15119 27.7114 6.2635 27.406C6.39885 27.0385 6.55148 26.6766 6.72138 26.3203C6.90857 25.9245 7.11591 25.5372 7.34341 25.1583C7.40965 25.0452 7.47876 24.935 7.55076 24.8247C7.55076 24.8247 7.55076 24.8191 7.55651 24.8162C7.67171 24.6353 7.78978 24.4543 7.91649 24.279C7.91649 24.2762 7.92225 24.2706 7.92513 24.2677C7.93952 24.2479 7.95104 24.231 7.96544 24.2112C8.08927 24.0359 8.21598 23.8663 8.34557 23.6966C8.44348 23.5694 8.54716 23.445 8.65083 23.3206C8.61627 23.2386 8.58171 23.1566 8.55004 23.0718C8.46364 22.8456 8.39741 22.6166 8.34557 22.3848C8.34557 22.3763 8.34269 22.3706 8.33981 22.3621C8.33405 22.3367 8.32829 22.3112 8.32253 22.2858C8.31677 22.2632 8.31389 22.2434 8.31101 22.2208C8.30525 22.1897 8.2995 22.1586 8.29374 22.1275C8.26494 21.9578 8.24478 21.7882 8.23614 21.6157C8.22174 21.4009 8.22174 21.1832 8.23614 20.9626V20.9174C8.2563 20.6742 8.28798 20.4368 8.33693 20.1993C8.38301 19.9674 8.4406 19.7384 8.50684 19.5094C8.59035 19.2238 8.68538 18.9383 8.7833 18.6471C8.79194 18.6216 8.80058 18.5962 8.80921 18.5707L9.49748 16.5718C9.82001 16.6652 10.1857 16.8009 10.347 16.9677L11.0814 17.7254C12.1958 15.8424 12.3888 13.8577 12.6163 11.887C13.5292 11.9125 14.3096 12.3592 14.7675 12.8653L14.7732 12.8709C14.8251 12.9275 14.8711 12.9868 14.9143 13.0462C15.0986 13.295 15.2023 13.5495 15.2081 13.77C16.9273 12.4581 17.5608 8.74874 17.0972 7.18808C18.9028 7.49625 19.7379 8.43774 20.3456 9.41598C20.7459 8.90707 20.8668 8.40098 20.9071 7.87511C21.0223 6.37099 20.9071 4.9941 22.7387 3.71051C22.7588 3.78119 22.779 3.84905 22.802 3.9169C22.802 3.92256 22.8049 3.92821 22.8078 3.93387L22.8251 3.98758C23.1562 4.99975 23.7351 5.91862 24.5011 6.8177C24.5097 6.82618 24.5155 6.83466 24.5241 6.84315C24.5328 6.85446 24.5414 6.86294 24.55 6.87425C24.5702 6.89687 24.5904 6.92231 24.6134 6.94493L26.2088 8.74874C26.2318 8.77701 26.2549 8.80246 26.2779 8.83073C26.2808 8.83639 26.2865 8.83921 26.2894 8.84204C26.5515 9.14173 26.7415 9.44708 26.8798 9.76374C27.0382 10.1228 27.1332 10.4932 27.2081 10.8805C27.9942 10.3292 27.9597 9.20111 28.0288 8.54518C28.9244 8.82508 29.604 9.32833 30.1166 9.95034C30.1166 9.95034 30.1166 9.95317 30.1195 9.95599C30.6263 10.5723 30.9719 11.3046 31.2052 12.0538C31.2081 12.0623 31.2109 12.0708 31.2138 12.0793C31.568 13.2356 31.6515 14.4231 31.6458 15.2628C32.7603 14.7567 33.4428 14.0471 33.7336 13.2583C33.987 13.4364 34.203 13.6258 34.3844 13.8266C34.3844 13.8266 34.3902 13.8322 34.3902 13.835C34.3902 13.835 34.3931 13.8379 34.396 13.8407C34.7675 14.2506 34.9978 14.703 35.1245 15.1808C35.1245 15.1837 35.1245 15.1865 35.1245 15.1921C35.3895 16.2297 35.1447 17.3833 34.6695 18.4803C34.5889 18.664 34.5025 18.8478 34.4132 19.0288C34.4132 19.0344 34.4075 19.0401 34.4046 19.0429C34.3528 19.1447 34.3009 19.2436 34.2462 19.3454C34.1397 19.5433 34.0245 19.7384 33.9064 19.9278C33.8402 20.0353 33.7711 20.1399 33.7048 20.2445V20.2473C33.6962 20.2615 33.6875 20.2728 33.6789 20.2869C33.5349 20.5046 33.388 20.7138 33.2412 20.9117C33.5608 20.8411 33.82 20.7393 34.0418 20.6149C34.1857 20.5357 34.3153 20.4481 34.4334 20.3519C34.4651 20.3265 34.4939 20.3039 34.5256 20.2784C34.6407 20.1823 34.7502 20.0833 34.8596 19.9816C34.9287 19.9165 34.9978 19.8515 35.067 19.7865C35.1361 20.1653 35.185 20.5923 35.1879 21.0333C35.2052 21.0503 35.2196 21.0644 35.2369 21.0786C35.2599 21.6581 35.2138 22.3084 35.0266 22.9333C35.0698 22.9813 35.1101 23.0294 35.1533 23.0774C35.1764 23.1057 35.1994 23.1312 35.2253 23.1594C35.3808 23.3432 35.5335 23.5298 35.6803 23.7164C35.8042 23.8747 35.9222 24.0331 36.0346 24.1971C36.0346 24.1971 36.0346 24.197 36.0374 24.1999C36.0374 24.1999 36.0403 24.2027 36.0403 24.2055C36.1641 24.378 36.2793 24.5505 36.3945 24.7286C36.4377 24.7964 36.4809 24.8643 36.5241 24.9321C36.7516 25.2969 36.959 25.6701 37.149 26.0518C37.1922 26.1366 37.2325 26.2186 37.2729 26.3062C37.3017 26.3684 37.3304 26.4278 37.3592 26.49C37.4226 26.6313 37.486 26.7699 37.5436 26.9141C37.6674 27.2081 37.7768 27.505 37.8776 27.8047C37.9986 28.1609 38.1022 28.52 38.1886 28.8847C38.2462 29.1222 38.2981 29.3625 38.3413 29.6028C38.3729 29.7781 38.4017 29.9562 38.4276 30.1344C38.4276 30.1428 38.4276 30.1513 38.4305 30.157C38.4881 30.5726 38.5256 30.991 38.5428 31.4151C38.5428 31.4547 38.5457 31.4943 38.5486 31.5367C38.5544 31.6752 38.5544 31.8138 38.5544 31.9523C38.5544 32.2068 38.5457 32.4612 38.5313 32.7157L38.5256 32.7213Z" fill="var(--fill-0, #040468)"/>
<path d="M7.91937 24.2741C7.79554 24.4522 7.67459 24.6296 7.55939 24.8106C7.55939 24.8106 7.55651 24.8162 7.55364 24.8191C7.48164 24.9293 7.41541 25.0396 7.34629 25.1527C7.12167 25.5315 6.91433 25.9189 6.72426 26.3147C6.55435 26.6738 6.40173 27.0356 6.26638 27.4004C6.15407 27.7057 6.0504 28.0139 5.96112 28.3249C5.74226 29.0798 5.59251 29.8488 5.51476 30.6263C5.51188 30.6659 5.50612 30.7055 5.50324 30.7451C5.46868 31.1267 5.44852 31.5112 5.44852 31.8958C5.44852 31.9156 5.44852 31.9325 5.44852 31.9523C5.44852 32.3707 5.46868 32.7835 5.50612 33.1963C5.53492 33.4988 5.57523 33.7985 5.62419 34.0954C5.72498 34.7117 5.87185 35.3168 6.06191 35.9133C6.24334 36.4845 6.46508 37.0471 6.72714 37.5984C7.55364 39.3372 8.73434 40.9007 10.2462 42.2436C11.7667 43.5979 13.5378 44.661 15.5133 45.4074C16.6911 45.8513 17.915 46.1707 19.1677 46.3602C19.2052 46.3658 19.2426 46.3715 19.2801 46.3771C19.4701 46.4054 19.6602 46.4309 19.8503 46.4506C19.9309 46.4591 20.0086 46.4676 20.0893 46.4761C20.7199 46.5411 21.3564 46.5722 22.0014 46.5722C22.6465 46.5722 23.2801 46.5411 23.9078 46.4761C24.1123 46.4563 24.3168 46.4309 24.5184 46.4026C24.5904 46.3941 24.6595 46.3828 24.7315 46.3715C24.8121 46.3602 24.8927 46.346 24.9762 46.3347C26.18 46.1425 27.3549 45.8315 28.4867 45.4045C30.4622 44.661 32.2333 43.5951 33.7538 42.2408C35.2628 40.895 36.4464 39.3315 37.2729 37.5956C37.6962 36.705 38.013 35.7889 38.2261 34.8503C38.3614 34.2622 38.4536 33.6656 38.5025 33.0634C38.514 32.9475 38.5198 32.8316 38.5284 32.7157C38.5428 32.464 38.5515 32.2096 38.5515 31.9523C38.5515 31.8138 38.5515 31.6752 38.5457 31.5367C38.5457 31.4971 38.5428 31.4575 38.54 31.4151C38.5227 30.9939 38.4852 30.5726 38.4276 30.157C38.4276 30.1485 38.4276 30.14 38.4248 30.1344C38.3988 29.9562 38.3729 29.7809 38.3384 29.6028C38.2952 29.3625 38.2433 29.1222 38.1857 28.8847C38.0993 28.52 37.9957 28.1609 37.8747 27.8047C37.7739 27.505 37.6645 27.2081 37.5407 26.9141C37.4802 26.7727 37.4197 26.6313 37.3564 26.49C37.3276 26.4278 37.3017 26.3684 37.27 26.3062C37.2297 26.2214 37.1893 26.1366 37.1461 26.0518C36.9561 25.6701 36.7459 25.2969 36.5212 24.9321C36.478 24.8643 36.4348 24.7964 36.3916 24.7286C36.2793 24.5533 36.1613 24.378 36.0374 24.2055C36.0374 24.2055 36.0374 24.2027 36.0346 24.1999C36.0346 24.1999 36.0346 24.1999 36.0317 24.1971C35.9165 24.0359 35.7984 23.8747 35.6775 23.7164C35.5306 23.527 35.3808 23.3404 35.2225 23.1594C35.1994 23.1312 35.1764 23.1057 35.1505 23.0774C35.1101 23.0294 35.067 22.9813 35.0238 22.9333C35.0209 22.9276 35.0151 22.9248 35.0122 22.9219C34.9777 22.8824 34.9431 22.8456 34.9086 22.806C34.9431 22.7127 34.9748 22.6194 35.0007 22.5233C35.0727 22.2773 35.1188 22.0229 35.1476 21.7656C35.1764 21.5196 35.185 21.2736 35.1821 21.0305C35.1764 20.5894 35.1303 20.1597 35.0612 19.7837C34.9892 19.8487 34.9201 19.9137 34.8539 19.9787C34.7444 20.0805 34.635 20.1823 34.5198 20.2756C34.491 20.301 34.4593 20.3237 34.4276 20.3491C34.3067 20.4424 34.18 20.5329 34.036 20.612C33.8143 20.7336 33.5551 20.8354 33.2354 20.9089C33.3823 20.711 33.5292 20.5018 33.6731 20.2841C33.6818 20.2699 33.6904 20.2586 33.6991 20.2445C33.6991 20.2445 33.6991 20.2445 33.6991 20.2417C33.7682 20.1371 33.8344 20.0325 33.9006 19.925C34.0187 19.7356 34.131 19.5405 34.2405 19.3426C34.2952 19.2436 34.347 19.1419 34.3988 19.0401C34.3988 19.0344 34.4046 19.0288 34.4075 19.0259C34.4996 18.845 34.586 18.6612 34.6638 18.4774C35.1389 17.3805 35.3837 16.2269 35.1188 15.1893C34.9748 14.6917 34.7271 14.2365 34.3844 13.8322C34.3844 13.8322 34.3787 13.8266 34.3787 13.8237C34.1944 13.623 33.9784 13.4336 33.7279 13.2554C33.437 14.0414 32.7545 14.7511 31.64 15.26C31.6458 14.4203 31.5623 13.2328 31.2081 12.0765C31.1591 11.921 31.1044 11.7655 31.0439 11.61C30.7963 10.9738 30.4881 10.4197 30.1166 9.95316C30.1166 9.95316 30.1166 9.95034 30.1138 9.94751C29.6012 9.32551 28.9215 8.82225 28.0259 8.54235C27.9539 9.20111 27.9885 10.3264 27.2052 10.8777C27.1332 10.4903 27.0353 10.12 26.8769 9.76091C26.8769 9.76091 26.8769 9.76939 26.8769 9.77505C26.7358 9.46404 26.5486 9.15022 26.2894 8.83921C26.2894 8.83921 26.2837 8.83073 26.2779 8.82508L24.6825 7.01844C24.6364 6.96755 24.5932 6.91666 24.55 6.86576C24.5414 6.85446 24.5328 6.84597 24.5241 6.83466C24.5155 6.82618 24.5097 6.8177 24.5011 6.80922C23.6573 5.83098 23.1217 4.92342 22.8251 3.9791L22.8078 3.92538C22.8078 3.92538 22.8049 3.91408 22.802 3.90842C22.779 3.84057 22.7588 3.76988 22.7387 3.70203C20.9071 4.98562 21.0194 6.36251 20.9071 7.86663C20.8668 8.3925 20.7459 8.89576 20.3456 9.4075C19.7379 8.42926 18.9028 7.48777 17.0972 7.17959C17.5637 8.74026 16.9273 12.4497 15.2081 13.7615C15.2023 13.541 15.0986 13.2865 14.9143 13.0377C14.9143 13.0377 14.9114 13.0434 14.9086 13.0434C14.8654 12.9812 14.8164 12.9162 14.7646 12.8568C14.3067 12.3479 13.5292 11.904 12.6134 11.8785C12.3859 13.8492 12.1929 15.8339 11.0785 17.7169L10.3441 16.9592C10.1829 16.7924 9.82001 16.6567 9.4946 16.5634L8.80633 18.5623L8.78042 18.6386C8.6825 18.927 8.58747 19.2125 8.50396 19.5009C8.43772 19.7299 8.38013 19.9589 8.33405 20.1908C8.28798 20.4283 8.25342 20.6658 8.23614 20.9089V20.9541C8.21886 21.1719 8.22174 21.3896 8.23614 21.6073C8.24766 21.7797 8.26782 21.9494 8.29374 22.119C8.29949 22.1501 8.30525 22.1812 8.31101 22.2123C8.31389 22.2349 8.31965 22.2547 8.32253 22.2773C8.32829 22.3028 8.33405 22.3282 8.33981 22.3537C8.33981 22.3621 8.34269 22.3678 8.34557 22.3763C8.39741 22.6081 8.46364 22.8371 8.55004 23.0633C8.58171 23.1453 8.61339 23.2273 8.65083 23.3121C8.54716 23.4365 8.44636 23.5609 8.34557 23.6881C8.2131 23.8578 8.08639 24.0274 7.96544 24.2027C7.95104 24.2225 7.93952 24.2423 7.92513 24.2593L7.91649 24.2706L7.91937 24.2741Z" fill="#FFCE00"/>
<path d="M35.2369 21.0899C35.2196 21.0729 35.2052 21.0588 35.1879 21.0446C35.1908 21.2878 35.1793 21.5337 35.1533 21.7797C35.1245 22.037 35.0756 22.2915 35.0065 22.5374C34.9806 22.6336 34.9489 22.7269 34.9143 22.8202C34.9489 22.8597 34.9834 22.8965 35.018 22.9361C35.0209 22.9417 35.0266 22.9446 35.0295 22.9474C35.2167 22.3226 35.2628 21.6723 35.2397 21.0927L35.2369 21.0899ZM26.2088 8.75439L24.6134 6.95058C24.5932 6.92797 24.5731 6.90252 24.55 6.8799C24.5932 6.93076 24.6365 6.98171 24.6825 7.03258L26.2779 8.83921C26.2549 8.81094 26.2318 8.78549 26.2088 8.75722V8.75439ZM7.31173 22.6873C7.31173 22.6873 7.30597 22.6929 7.30597 22.6958C7.33189 22.8032 7.36069 22.9078 7.39237 23.0124C7.36357 22.905 7.33477 22.7975 7.31173 22.6873Z" fill="var(--fill-0, #040468)"/>
<path d="M14.8596 16.5662L29.7768 16.4361L27.8848 33.9908L17.1461 33.3207L14.8596 16.5662Z" fill="var(--fill-0, #040468)"/>
<path d="M30.5918 37.2111C30.4075 37.6917 30.1138 38.3024 29.5695 38.5682C29.5551 39.3344 29.3909 40.2136 28.6364 40.9092C28.383 41.141 28.2621 41.4435 28.0749 41.9581L28.0374 42.0599C27.7495 42.8402 27.3722 43.6036 26.8539 44.4602C26.8251 44.5111 26.7905 44.5592 26.7588 44.6101L26.7646 44.9437C26.7732 45.3678 26.7502 45.7806 26.7185 46.1877C26.612 46.2047 26.5083 46.2216 26.4017 46.2358C26.3096 46.2499 26.2174 46.2612 26.1253 46.2754C25.8603 46.3121 25.5954 46.3432 25.3305 46.3687C24.5126 46.4506 23.6861 46.4931 22.851 46.4931C22.0158 46.4931 21.1865 46.4506 20.3657 46.3687C20.2621 46.3602 20.1584 46.3489 20.0547 46.3347C19.8071 46.3065 19.5594 46.2754 19.3146 46.2386C19.2657 46.2329 19.2167 46.2245 19.1677 46.216C19.2081 46.0831 19.2455 45.9841 19.2772 45.8937C19.3463 45.6986 19.3866 45.5912 19.4183 44.808C19.4327 44.3415 19.3117 43.9344 19.0929 43.7167C18.7819 43.4028 18.3096 43.1399 17.8949 42.9109C17.3593 42.614 16.8956 42.1843 16.4435 41.5623C15.401 40.1317 16.0547 38.5286 16.5356 37.3581L16.55 37.3213L16.8467 36.5947C16.8438 36.5664 16.8409 36.5382 16.838 36.5071C16.815 36.2554 16.8294 35.9982 16.887 35.7352C16.8927 35.7069 16.9014 35.6758 16.9071 35.6447C16.8063 35.6306 16.7113 35.6108 16.6192 35.5854C16.2736 35.4864 15.9942 35.3083 15.7927 35.0482C15.6055 34.8107 15.3319 34.299 15.594 33.5497C15.6659 33.3462 15.7437 33.1454 15.833 32.9475C16.1843 32.1587 16.6652 31.4151 17.2325 30.7846C17.4226 30.5726 17.6213 30.3747 17.8287 30.1909C17.8834 30.1428 17.9381 30.0919 17.9957 30.0467C18.0418 30.0071 18.0907 29.9676 18.1397 29.9308C18.1425 29.9308 18.1454 29.9251 18.1483 29.9223C18.2808 29.8177 18.4161 29.7131 18.5515 29.6085C18.9748 29.2862 19.4039 28.9695 19.8272 28.6585C20.5788 28.1044 21.2901 27.5813 21.9294 27.0498C22.2347 26.7953 22.5659 26.6144 22.9114 26.5069C23.0785 26.4561 23.2484 26.4221 23.4212 26.4052C23.4442 26.4052 23.4644 26.3995 23.4874 26.3995C24.0806 26.3571 24.671 26.5183 25.2585 26.8745C25.27 26.8802 25.2815 26.8886 25.293 26.8943C25.365 26.9395 25.437 26.9848 25.5061 27.0357C25.5263 27.0498 25.5464 27.0639 25.5695 27.0809C25.7826 27.2364 25.9957 27.4173 26.2059 27.6237C26.3556 27.7707 26.5083 27.9319 26.658 28.1072C26.6868 28.1411 26.7156 28.1722 26.7444 28.2062C27.0526 28.5624 27.3664 28.913 27.6832 29.2494C28.0173 29.6057 28.3571 29.9506 28.694 30.2786C29.0338 30.6093 29.27 30.9712 29.437 31.3473C29.7192 31.9693 29.8143 32.6224 29.8978 33.185C29.9726 33.6826 30.0418 34.1548 30.2145 34.5025C30.4939 35.0595 31.0122 36.0971 30.586 37.2111H30.5918Z" fill="var(--fill-0, #040468)"/>
<path d="M29.5032 34.7089C29.3074 34.3131 29.2354 33.8381 29.1605 33.3349C29.149 33.25 29.1346 33.1624 29.1202 33.0776C29.005 32.3453 28.8294 31.5565 28.1958 30.9401C27.689 30.4482 27.185 29.9223 26.6926 29.3682C26.5544 29.2127 26.4161 29.0543 26.2779 28.896C25.9438 28.5087 25.6127 28.2005 25.2815 27.9715C25.2556 27.9545 25.2325 27.9376 25.2066 27.9234C24.9532 27.7566 24.7027 27.6407 24.4521 27.57C24.2275 27.505 24.0029 27.4824 23.7811 27.4965C23.6775 27.505 23.5767 27.5191 23.4759 27.5446C23.1821 27.6152 22.8999 27.7623 22.6379 27.98C22.3067 28.257 21.9467 28.5341 21.581 28.8112C21.2786 29.0402 20.9705 29.2664 20.6681 29.4897C20.3427 29.7301 20.0086 29.976 19.6803 30.222C19.4932 30.3634 19.3089 30.5047 19.1274 30.6489C18.8337 30.8808 18.5572 31.1437 18.2981 31.4377C17.892 31.8986 17.5407 32.4245 17.2613 32.9843C17.1346 33.2415 17.0223 33.5045 16.9302 33.7703C16.7747 34.2113 16.9014 34.5053 17.031 34.675C17.3679 35.1047 18.013 35.0595 18.2261 35.0425C18.2923 35.0369 18.3557 35.0312 18.4075 35.0256C18.1829 35.4497 18.0706 35.8738 18.108 36.2894C18.1281 36.5099 18.2059 36.6908 18.3182 36.8435L18.0648 36.6569L17.7941 37.3185C17.3736 38.3448 16.8524 39.6227 17.6501 40.7169C18.0245 41.2286 18.396 41.5764 18.8251 41.8139C19.2397 42.0429 19.7091 42.3058 20.0518 42.6508C20.3571 42.9561 20.5212 43.465 20.504 44.039C20.4723 44.8476 20.4233 44.9805 20.3456 45.2038C20.2707 45.4074 20.1728 45.6816 20.0547 46.3404C20.1584 46.3517 20.2621 46.363 20.3657 46.3743C21.1865 46.4563 22.013 46.4987 22.851 46.4987C23.689 46.4987 24.5126 46.4563 25.3305 46.3743C25.5954 46.3489 25.8603 46.3149 26.1253 46.281C26.1368 46.1707 26.1483 46.0463 26.1598 45.9106L26.1771 45.6986C26.2203 45.1982 26.2635 44.6808 26.252 44.1605L26.2433 43.6827C26.3038 43.6036 26.3585 43.5216 26.4075 43.4368C26.8711 42.6706 27.2052 41.992 27.4615 41.3022L27.496 41.206C27.6717 40.7254 27.8128 40.3437 28.1526 40.0327C28.8323 39.4107 28.8754 38.5569 28.8438 37.85C28.8582 37.85 28.8697 37.85 28.8841 37.85C29.2671 37.8218 29.5695 37.491 29.8287 36.8096C30.1425 35.9868 29.7423 35.1896 29.5032 34.7117V34.7089ZM20.1613 39.0601C20.1353 39.0997 20.1123 39.1364 20.0922 39.1789C20.0778 39.1195 20.0605 39.0658 20.0374 39.012C20.0778 39.0318 20.1181 39.046 20.1613 39.0629V39.0601Z" fill="#F4F4F4"/>
<path d="M23.0209 44.8843C22.3902 44.6299 21.9755 44.0955 21.2498 43.9966C21.2325 43.9966 21.2153 43.9966 21.1951 43.9966C21.1605 43.9966 21.1289 44.005 21.1231 44.0135C20.9762 44.1492 21.7768 44.7967 21.987 44.9437C22.1742 45.0738 22.5112 45.1755 22.7646 45.1557C22.8884 45.1473 22.9921 45.1105 23.0497 45.0342C23.067 45.0116 23.0785 44.9069 23.0209 44.8843ZM25.7192 35.7494C25.869 35.8116 26.0187 35.8738 26.1627 35.9303C26.1742 35.936 26.1886 35.936 26.2001 35.936C26.2923 35.9303 26.3585 35.7663 26.3614 35.69C26.3614 35.6843 26.3614 35.6758 26.3614 35.6674L25.7192 35.7494ZM23.0209 44.8843C22.3902 44.6299 21.9755 44.0955 21.2498 43.9966C21.2325 43.9966 21.2153 43.9966 21.1951 43.9966C21.1605 43.9966 21.1289 44.005 21.1231 44.0135C20.9762 44.1492 21.7768 44.7967 21.987 44.9437C22.1742 45.0738 22.5112 45.1755 22.7646 45.1557C22.8884 45.1473 22.9921 45.1105 23.0497 45.0342C23.067 45.0116 23.0785 44.9069 23.0209 44.8843ZM23.0209 44.8843C22.3902 44.6299 21.9755 44.0955 21.2498 43.9966C21.2325 43.9966 21.2153 43.9966 21.1951 43.9966C21.1605 43.9966 21.1289 44.005 21.1231 44.0135C20.9762 44.1492 21.7768 44.7967 21.987 44.9437C22.1742 45.0738 22.5112 45.1755 22.7646 45.1557C22.8884 45.1473 22.9921 45.1105 23.0497 45.0342C23.067 45.0116 23.0785 44.9069 23.0209 44.8843ZM29.6933 34.8107C29.532 34.4884 29.4687 34.053 29.3996 33.5921C29.3535 33.2811 29.3017 32.939 29.2124 32.5913C29.0655 32.0089 28.8092 31.4095 28.2822 30.9006C27.7783 30.4114 27.2743 29.8856 26.7847 29.3342C26.6551 29.1872 26.5256 29.0402 26.396 28.8904C26.0907 28.5341 25.7826 28.2372 25.4716 27.9998C25.3938 27.9404 25.3161 27.8838 25.2383 27.8329C25.0252 27.6916 24.8121 27.5785 24.5961 27.4937C24.2189 27.3438 23.8416 27.2816 23.4615 27.3099C23.3866 27.3155 23.3146 27.324 23.2426 27.3353C22.802 27.406 22.3902 27.6011 22.0158 27.9121C21.7048 28.1722 21.3765 28.4267 21.0338 28.6868C20.7228 28.9215 20.4003 29.1589 20.072 29.4021C19.9136 29.518 19.7523 29.6368 19.594 29.7555C19.234 30.0241 18.8711 30.2955 18.5198 30.5698C18.4046 30.6602 18.2894 30.7564 18.18 30.8581C17.5378 31.4406 16.982 32.1728 16.5673 32.9758C16.4089 33.284 16.2707 33.6034 16.1555 33.9286C15.9136 34.6241 16.167 35.0963 16.3398 35.3168C16.4204 35.4214 16.5155 35.5119 16.622 35.5882C16.7027 35.6476 16.7919 35.6956 16.8898 35.738C17.0338 35.8002 17.1951 35.8455 17.3708 35.8709C17.3045 36.1423 17.2844 36.4081 17.3074 36.6682C17.3074 36.6965 17.3132 36.7219 17.3161 36.7474L17.0396 37.4203L17.0252 37.4542C16.5817 38.5371 15.9741 40.0214 16.9388 41.3474C17.3593 41.9213 17.7855 42.3171 18.2837 42.5942C18.6667 42.8091 19.1044 43.0494 19.3924 43.3406C19.594 43.5442 19.7063 43.9202 19.6947 44.3528C19.6659 45.0794 19.6314 45.1784 19.5652 45.3565C19.4989 45.5374 19.4154 45.7721 19.3175 46.2386C19.5623 46.2754 19.8099 46.3065 20.0576 46.3347C20.1613 46.346 20.2649 46.3573 20.3686 46.3687C20.5817 45.4045 20.6969 45.7664 20.7516 44.3867C20.7718 43.7364 20.5961 43.0636 20.1497 42.6168C19.7667 42.2323 19.2858 41.9581 18.8049 41.6923C18.3902 41.4605 18.0677 41.1127 17.7999 40.7423C17.1634 39.8715 17.6127 38.8028 18.0216 37.8048C18.4363 38.1101 18.8222 37.9999 18.7559 38.3505C18.6263 39.0347 19.5018 39.3683 19.2599 39.9309C18.7934 41.0194 20.2995 41.3954 21.0742 41.435C21.1116 41.435 21.149 41.435 21.1865 41.435C21.293 41.4265 21.4024 41.4068 21.5061 41.3983C21.5839 41.3926 21.6616 41.3954 21.7307 41.4181C21.486 41.7008 21.1404 41.975 21.1433 42.2578C21.1433 42.6084 21.5925 43.5668 21.7855 43.5555C21.797 43.5555 21.8056 43.5498 21.8171 43.5442C21.892 43.482 21.7711 43.1936 21.7394 42.9957C21.6703 42.5292 21.7307 42.2408 21.964 41.8252C22.1829 41.435 22.6436 41.0675 23.1217 40.9487C23.7754 40.683 24.2851 40.7932 24.4032 40.7848C24.4492 40.7819 24.4867 40.765 24.504 40.731C24.5328 40.6717 24.5443 40.5642 24.4492 40.5133C23.8099 40.1712 23.7898 40.2023 22.0993 40.6462C21.8747 40.7395 21.6155 40.8017 21.3592 40.8187C21.0367 40.8413 20.7171 40.7932 20.4723 40.6519C20.0691 40.4116 20.0806 39.9026 20.4262 39.5351C20.9647 38.964 21.9035 38.1412 22.6955 38.0847C22.7099 38.0847 22.7243 38.0847 22.7415 38.0847C23.4413 38.0621 24.0691 38.2345 24.7228 38.4381C24.9734 38.5173 25.2325 38.5258 25.4917 38.5371H25.4975C25.5839 38.5314 25.6443 38.2685 25.5493 38.2232C24.7372 37.8302 23.8589 37.4797 22.9172 37.4146C22.8366 37.409 22.7588 37.409 22.6782 37.4146C21.7221 37.4825 20.8294 38.3307 20.0806 38.9216C19.4586 38.7435 19.7178 37.9971 20.0461 37.6069C20.4089 37.1715 20.7919 36.7474 21.1893 36.3374C21.5608 35.9501 21.9438 35.5741 22.3384 35.2093C22.5572 35.0058 22.8164 34.921 23.0382 34.904C23.1217 34.8983 23.1965 34.904 23.2657 34.9153C24.0835 35.0595 24.933 35.4355 25.7163 35.7607C25.8661 35.8229 26.0158 35.8851 26.1598 35.9416C26.1713 35.9473 26.1857 35.9473 26.1973 35.9473C26.2894 35.9416 26.3556 35.7776 26.3585 35.7013C26.3585 35.6956 26.3585 35.6872 26.3585 35.6787C26.3499 35.5854 26.2549 35.4695 26.1598 35.4044C25.3017 34.8305 24.4003 34.3385 23.3405 34.1152C23.2599 34.1067 23.1793 34.1039 23.1015 34.1095C22.5169 34.1519 21.964 34.5591 21.5695 34.9464C21.1922 35.3196 20.8495 35.8031 20.432 36.1791C20.3254 36.2752 20.2217 36.3742 20.1181 36.4731C19.8099 36.7757 19.5162 37.0951 19.2196 37.409C18.8654 37.2195 18.3988 36.999 18.3614 36.5806C18.3125 36.0519 18.6177 35.4666 19.0842 34.8899C19.9395 33.8353 21.3333 32.8146 22.0763 32.2379C22.4795 31.9269 22.9316 31.6554 23.4096 31.6215C23.5911 31.6074 23.7783 31.63 23.9683 31.695C24.576 31.9212 25.1317 32.2294 25.6731 32.5658C26.0533 32.809 26.4824 32.9843 26.8999 33.1652C26.9086 33.1709 26.9172 33.1709 26.9258 33.1709C27.0122 33.1652 27.0151 32.9051 26.9374 32.8231C26.5112 32.3962 26.0706 31.9834 25.5839 31.6215C24.9129 31.0985 24.1958 30.7846 23.4413 30.8355C22.9316 30.8723 22.4017 31.0758 21.8575 31.5028C21.3276 31.9721 20.7891 32.4329 20.2448 32.8853C19.7811 33.2755 19.3377 33.6741 18.9057 34.0897C18.6551 34.3301 18.4075 34.5789 18.1656 34.8305C18.1051 34.8361 18.0158 34.8474 17.915 34.8559C17.5205 34.8842 16.9532 34.8503 17.1548 34.2679C17.3161 33.8098 17.5407 33.3462 17.8229 32.9079C18.0101 32.6139 18.2203 32.334 18.4536 32.0739C18.6782 31.8223 18.923 31.5876 19.1821 31.384C19.3117 31.2822 19.4471 31.1776 19.5796 31.0758C20.3974 30.451 21.2671 29.8375 22.0619 29.2211C22.2808 29.0515 22.4968 28.879 22.7041 28.7066C22.9834 28.4747 23.2657 28.3645 23.5421 28.3475C24.3657 28.2881 25.1317 29.0232 25.5925 29.5632C25.6156 29.5887 25.6386 29.617 25.6616 29.6424C26.2606 30.3351 26.8884 31.0052 27.545 31.6413C28.5241 32.5913 28.1843 34.0926 28.7315 35.2348C28.7315 35.2348 28.743 35.2602 28.7487 35.2715C28.9935 35.7607 29.2786 36.3685 29.054 36.9566C28.9878 37.1347 28.7747 37.6465 28.5644 37.6634C28.5443 37.6634 28.5212 37.6634 28.5011 37.6521C28.3513 37.5814 28.2995 37.3439 28.1325 37.2959C28.1238 37.2959 28.1152 37.2931 28.1037 37.2959C28.0518 37.2987 27.9942 37.3496 27.9942 37.4259C28.0058 38.2289 28.2505 39.3089 27.5104 39.9903C27.0526 40.4116 26.8855 40.9148 26.6839 41.4605C26.419 42.1814 26.0763 42.843 25.6731 43.5074C25.3621 44.022 24.8524 44.4404 24.2793 44.6638C24.3398 44.8193 24.455 44.8674 24.5932 44.8589C24.8668 44.8391 25.2297 44.6016 25.4428 44.5083C25.4543 45.0709 25.3967 45.6392 25.3506 46.2075C25.3449 46.2697 25.342 46.3262 25.3362 46.3828C25.6011 46.3573 25.8661 46.3234 26.131 46.2895C26.2232 46.2782 26.3153 46.264 26.4075 46.2499C26.4132 46.1934 26.4161 46.134 26.4219 46.0774C26.4651 45.5629 26.5112 45.0342 26.4996 44.4885L26.4939 44.1803C26.5256 44.1351 26.5544 44.087 26.5832 44.0418C27.0641 43.2473 27.4125 42.5405 27.6775 41.8195L27.712 41.7234C27.8877 41.2484 27.9971 40.9685 28.2304 40.7537C28.9302 40.1119 29.0828 39.2948 29.0972 38.588C29.6012 38.342 29.8747 37.7765 30.0446 37.3326C30.4392 36.3035 29.9582 35.3422 29.6991 34.8248L29.6933 34.8107Z" fill="var(--fill-0, #040468)"/>
</g>
</g>
</svg>
