<svg preserveAspectRatio="none" width="100%" height="100%" overflow="visible" style="display: block;" viewBox="0 0 451.886 161" fill="none" xmlns="http://www.w3.org/2000/svg">
<g id="T&#195;&#173;itulo">
<path id="Vector" d="M447.773 3V78.999C448.503 81.4812 448.886 83.9873 448.886 86.5C448.886 89.005 448.506 91.471 447.773 93.8848V98H446.16C442.019 106.617 433.392 114.391 421.665 121.234C409.012 128.618 392.364 135.146 372.735 140.574C333.464 151.434 281.85 158 225.386 158C168.923 158 117.309 151.434 78.0377 140.574C58.4089 135.146 41.7611 128.618 29.108 121.234C17.3807 114.391 8.75377 106.617 4.61293 98H2.99964V93.8848C2.26677 91.471 1.88636 89.005 1.88636 86.5C1.88636 83.9873 2.26931 81.4812 2.99964 78.999V3H447.773Z" fill="var(--fill-0, #0000CC)" stroke="var(--stroke-0, #FFCE00)" stroke-width="6"/>
<g id="Vector_2">
<path d="M259.157 25.1074C256.659 23.3467 253.788 22.5001 250.737 22.5C248.797 22.5 246.882 22.8049 245.059 23.5C243.558 24.0648 242.18 24.8421 240.96 25.835C239.881 24.8949 238.64 24.1427 237.258 23.5957L237.246 23.5908L236.867 23.4492C234.957 22.7734 232.829 22.5625 230.748 22.5625C230.221 22.5625 229.723 22.5721 229.278 22.5957C227.859 22.6668 226.617 22.7002 225.545 22.7002C225.334 22.7002 224.911 22.6908 224.221 22.666L224.171 22.6641L223.205 22.6504C222.01 22.6504 220.38 22.8293 218.824 23.7314C218.819 23.7339 218.815 23.7368 218.811 23.7393C218.805 23.7429 218.798 23.7473 218.792 23.751C218.45 23.9505 218.123 24.1812 217.816 24.4414C215.573 23.1334 213.071 22.5 210.435 22.5C208.494 22.5 206.58 22.805 204.757 23.5L204.743 23.5059L204.721 23.5146C204.064 23.7638 203.43 24.0529 202.823 24.3838C202.325 23.9983 201.819 23.7111 201.356 23.499C199.69 22.736 197.863 22.5996 196.444 22.5996C195.036 22.5996 192.591 22.7099 190.581 24.1055C190.577 24.1087 190.572 24.1123 190.567 24.1159C190.563 24.1194 190.559 24.1228 190.554 24.126L190.529 24.1436C190.108 24.4404 189.735 24.7732 189.406 25.1211L189.346 25.0488L189.189 24.877C188.416 24.0569 187.535 23.5483 186.748 23.2373L186.737 23.2333C186.733 23.2321 186.73 23.2309 186.726 23.2295C186.721 23.2275 186.716 23.2258 186.711 23.224C186.706 23.2223 186.701 23.2206 186.696 23.2188C185.22 22.6447 183.573 22.5879 182.48 22.5879C181.749 22.5879 180.991 22.6557 180.254 22.7539C179.541 22.8423 178.767 22.9716 178.028 23.1816L178.014 23.1866L177.979 23.197C177.958 23.2032 177.938 23.2097 177.917 23.2158C176.756 23.5527 175.565 24.1882 174.579 25.2529L174.544 25.291L174.51 25.3291C173.566 26.3869 172.879 27.8075 172.797 29.4668L172.788 29.8018L172.795 30.123C172.883 32.0787 173.771 33.4936 174.779 34.4668C174.777 35.4284 174.747 36.6157 174.685 38.041C174.654 38.7519 174.622 39.3348 174.593 39.8008L174.557 39.835C174.526 39.8637 174.495 39.8926 174.465 39.9229C172.844 41.5521 172.713 43.5205 172.713 44.3125C172.713 45.628 173.101 46.9937 173.975 48.1807C174.802 49.3037 175.839 49.965 176.691 50.3506C178.263 51.0622 179.953 51.1767 181.197 51.1768C182.585 51.1768 184.304 51.062 185.866 50.4492C185.99 50.4006 186.119 50.3444 186.254 50.2832C186.8 50.4519 187.394 50.5508 188.031 50.5508C188.695 50.5508 189.3 50.4426 189.847 50.2686C190.236 50.4441 190.602 50.5721 190.92 50.666L190.942 50.6719C192.396 51.0945 194.073 51.1885 195.598 51.1885C196.542 51.1885 197.432 51.1688 198.141 51.1016C198.938 51.0259 199.733 50.867 200.513 50.6143L200.534 50.6074L200.571 50.5947C200.585 50.5898 200.599 50.5849 200.613 50.5801C201.269 50.3659 202.076 50.0176 202.858 49.4287C203.144 49.5834 203.435 49.7313 203.734 49.8682C205.755 50.7937 207.902 51.2637 210.124 51.2637C211.81 51.2636 213.463 50.9924 215.067 50.4756L215.083 50.4707C215.958 50.1857 216.798 49.831 217.596 49.4072C217.672 49.4687 217.748 49.5304 217.827 49.5889C219.353 50.7209 221.041 51.0508 222.433 51.0508C222.833 51.0508 223.31 51.0171 223.699 50.9854C224.239 50.9437 224.68 50.9258 225.034 50.9258H225.93C226.618 50.9258 227.44 50.9407 228.401 50.9727L228.413 50.9736H228.423L229.719 51.0107L231.201 51.0605L231.292 51.0635H231.382C233.054 51.0635 234.704 50.8152 236.299 50.2812C237.957 49.7256 239.459 48.8905 240.758 47.7842C241.737 48.6187 242.833 49.3173 244.037 49.8682C246.057 50.7936 248.204 51.2636 250.425 51.2637C252.111 51.2637 253.766 50.9925 255.37 50.4756L255.385 50.4707C258.041 49.606 260.373 48.1114 262.186 45.9336C264.281 43.4229 265.407 40.4198 265.407 37.1191C265.407 34.8473 264.842 32.6849 263.858 30.6816L263.849 30.6631L263.839 30.6445C262.837 28.6418 261.463 26.886 259.683 25.4961L259.667 25.4834L259.652 25.4717L259.157 25.1074ZM391.447 95.9658C395.731 92.6761 398.346 88.2063 398.346 82.7432C398.346 79.7989 397.603 76.9969 396.202 74.4062L396.195 74.3936L396.188 74.3818L395.93 73.9238C394.607 71.6593 392.861 69.7479 390.702 68.2568C387.509 66.0477 383.85 65.0088 379.938 65.0088C376.581 65.0088 373.427 65.6563 370.555 66.9854C370.431 63.6593 368.685 61.0515 366.415 59.2422L366.401 59.2305C363.372 56.8332 359.655 55.917 355.807 55.917C351.299 55.917 346.977 57.0341 343.683 60.0732C341.679 61.9202 340.493 64.2304 340.075 66.7686C338.003 65.6754 335.724 65.1768 333.37 65.1768C331.3 65.1768 329.343 65.5941 327.592 66.4443C326.521 65.7022 325.274 65.2773 323.958 65.21L323.585 65.2002C322.227 65.2002 320.579 65.6049 319.248 65.9658C317.679 66.3751 316.073 66.8743 314.43 67.459L314.414 67.4648C313.787 67.6902 313.129 67.9374 312.484 68.209C312.321 67.991 312.144 67.7762 311.948 67.5674C310.283 65.7951 308.174 65.2652 306.491 65.2061L306.161 65.2002C302.813 65.2002 299.451 65.6286 296.087 66.4648C295.86 66.5209 295.622 66.5877 295.377 66.6641C293.997 65.568 292.484 65.2711 291.406 65.2129L290.957 65.2002C287.434 65.2002 283.922 65.5888 280.427 66.3594C279.836 66.4891 279.185 66.6712 278.523 66.9365C276.766 65.7511 274.739 65.2002 272.649 65.2002C270.993 65.2002 269.483 65.5448 268.133 66.1611C267.342 65.6932 266.615 65.4975 266.248 65.4111C265.413 65.2145 264.605 65.1768 263.985 65.1768H263.935C261.985 65.1949 259.899 65.5368 257.733 66.0977C257.29 64.258 256.522 62.5104 255.48 60.873C254.067 58.6307 251.512 55.6317 247.503 55.4463L247.111 55.4365C246.136 55.4365 245.224 55.6032 244.436 55.8145L244.388 55.8271L244.342 55.8408C243.732 56.0159 242.966 56.1428 242.013 56.1807H229.567C229.013 56.1807 228.595 56.1552 228.292 56.1211C227.966 56.0822 227.432 55.9964 226.648 55.8359C226.078 55.7103 225.444 55.6099 224.773 55.5859L224.459 55.5811C220.621 55.5812 218.007 58.1966 216.491 60.2412C215.433 61.6667 214.594 63.223 213.971 64.8916C213.353 66.533 212.948 68.2888 212.948 70.1006C212.948 72.1844 213.553 74.3518 215.095 76.167L215.137 76.2178C216.752 78.0727 218.972 79.0556 221.38 79.0557C222.318 79.0557 223.191 78.8962 223.996 78.6357C223.99 78.7785 223.986 78.9224 223.98 79.0674C223.874 81.7096 223.763 83.5313 223.659 84.6182C223.427 84.7133 223.166 84.8287 222.924 84.9639L222.776 85.0459L222.635 85.1377C220.633 86.4234 219.332 88.544 219.253 91.0625L219.249 91.3076L219.258 91.6738C219.34 93.4967 220.031 95.2165 221.294 96.5986C222.523 97.9438 224.042 98.7014 225.364 99.1514C225.369 99.1531 225.382 99.1564 225.387 99.1582C228.178 100.111 231.841 100.43 235.917 100.43C239.269 100.43 242.431 100.157 244.898 99.2666L244.909 99.2627C246.153 98.8143 247.579 98.0852 248.755 96.835C249.907 98.1864 251.35 98.9385 252.599 99.3672L252.608 99.3711L252.619 99.374C254.932 100.157 257.781 100.406 260.787 100.406C263.851 100.406 266.546 100.248 268.634 99.8105C270.28 99.466 271.941 98.6926 273.29 97.2891L273.322 97.2568L273.352 97.2236C274.724 95.7488 275.52 93.8439 275.52 91.7393C275.52 90.057 274.98 88.4341 273.915 87.0908C274.825 86.9462 275.705 86.6917 276.543 86.3223C276.684 89.5889 277.314 92.892 279.123 95.4326C281.787 99.1941 286.001 100.406 290.049 100.406C292.005 100.406 293.869 100.014 295.612 99.2764L295.621 99.2832L295.681 99.3223L295.741 99.3594C296.73 99.9666 297.707 100.189 298.303 100.289C298.96 100.399 299.604 100.43 300.17 100.43C302.486 100.43 304.826 100.14 307.182 99.5908C308.272 99.3384 309.381 99.0222 310.435 98.6016C310.912 98.8999 311.389 99.1355 311.838 99.3223C313.953 100.201 316.482 100.43 318.907 100.43C321.797 100.43 324.587 100.217 326.784 99.4629C327.094 99.3568 327.42 99.2278 327.756 99.0752C327.98 99.1934 328.201 99.3017 328.419 99.3945L328.43 99.3994C330.436 100.248 332.963 100.406 335.209 100.406C338.421 100.406 341.469 100.228 343.65 99.5068C343.973 99.4001 344.31 99.2696 344.653 99.1133C344.712 99.138 344.769 99.1651 344.828 99.1885C347.189 100.132 350.1 100.406 353.062 100.406C356.845 100.406 360.263 100.159 362.765 99.3457C363.956 98.9607 365.323 98.3316 366.502 97.2422C369.741 99.5464 373.594 100.574 377.742 100.574C382.807 100.574 387.444 99.0358 391.447 95.9658ZM211.314 76.002C211.314 77.63 210.932 79.1586 210.326 80.5439L210.317 80.5635L210.309 80.582C209.708 81.9274 208.865 83.1875 207.731 84.2529C207.722 84.2614 207.713 84.2699 207.704 84.2783L207.687 84.2952L207.678 84.3035C207.668 84.3127 207.659 84.322 207.649 84.3311C206.032 85.8497 204.104 86.76 202.024 87.0908C203.089 88.434 203.628 90.0571 203.628 91.7393C203.628 93.8438 202.833 95.7488 201.461 97.2236L201.43 97.2568L201.399 97.2891C200.049 98.6926 198.388 99.466 196.742 99.8105C194.654 100.248 191.96 100.406 188.896 100.406C185.89 100.406 183.041 100.157 180.728 99.374L180.717 99.3711L180.707 99.3672C179.78 99.0492 178.748 98.5529 177.805 97.7666C174.69 99.647 171.2 100.574 167.461 100.574C162.982 100.574 158.868 99.2326 155.494 96.3193L155.482 96.3086L155.47 96.2979C154.97 95.8609 154.499 95.3974 154.058 94.9102C153.727 95.2815 153.38 95.6445 153.014 95.9971C150.694 98.2512 147.955 99.7565 144.885 100.322C144.841 101.819 144.378 103.303 143.441 104.597C142.517 105.871 141.329 106.693 140.234 107.228L140.223 107.233L140.212 107.239L140.201 107.245C140.193 107.249 140.185 107.254 140.176 107.258C138.041 108.298 135.596 108.586 133.307 108.586C129.112 108.586 125.174 107.737 121.66 105.852C119.699 104.803 117.389 102.826 116.885 99.6689C114.648 100.166 112.426 100.43 110.226 100.43C109.66 100.43 109.016 100.399 108.359 100.289C107.763 100.189 106.786 99.9666 105.797 99.3594L105.737 99.3223L105.677 99.2832L105.668 99.2764C103.925 100.014 102.061 100.406 100.105 100.406C96.0568 100.406 91.8429 99.1942 89.1791 95.4326C88.9431 95.1013 88.7274 94.7559 88.53 94.4004C87.9509 95.0025 87.3186 95.5733 86.6324 96.1084C82.6045 99.247 77.623 100.574 72.1794 100.574C69.716 100.574 67.1865 100.284 64.6036 99.7354L64.5862 99.7314L64.5677 99.7275C62.1497 99.197 59.7189 98.4538 57.8576 97.2363L57.8071 97.2031C55.5037 95.6597 54.3173 93.087 53.6242 91.1758L53.6135 91.1465L53.6038 91.1182C52.8188 88.8757 52.3864 86.579 52.3864 84.2549C52.3864 82.8649 52.6477 80.8556 54.0255 79.0938C54.0316 79.0859 54.0368 79.0782 54.043 79.0703C54.0463 79.0661 54.0494 79.0618 54.0525 79.0574C54.0557 79.0529 54.059 79.0483 54.0624 79.0439C54.2599 78.7941 54.4745 78.5579 54.6998 78.335C53.7659 76.4051 53.2453 74.2791 53.2453 71.9717C53.2453 69.6841 53.7819 67.4949 54.7795 65.457C55.7925 63.3713 57.2239 61.5856 59.0119 60.124C62.7619 56.9874 67.2848 55.5088 72.2513 55.5088C74.3973 55.5088 76.7915 55.965 79.2996 56.6787C80.0957 56.4195 80.9064 56.3008 81.7034 56.3008L82.0726 56.3096C85.8277 56.4869 88.2592 59.3372 89.5347 61.167C90.5735 62.6427 91.4271 64.2855 91.9074 66.0674C94.9318 65.4911 97.9683 65.2002 101.013 65.2002L101.462 65.2129C102.539 65.2711 104.053 65.568 105.433 66.6641C105.678 66.5877 105.916 66.5209 106.143 66.4648C109.507 65.6286 112.869 65.2002 116.217 65.2002L116.547 65.2061C118.23 65.2652 120.339 65.7951 122.004 67.5674C122.241 67.8196 122.451 68.0805 122.639 68.3457C126.725 66.4864 130.651 65.2013 134.09 65.1533L134.128 65.1523H134.166C134.78 65.1523 135.464 65.1784 136.131 65.2754C136.49 65.3275 137.481 65.4737 138.531 66.0459C138.88 65.9211 139.231 65.809 139.582 65.707C141.004 65.2833 142.494 65.0088 143.999 65.0088C147.207 65.0088 150.11 66.097 152.551 68.082L153.033 68.4912C153.677 69.0624 154.268 69.6835 154.801 70.3408C156.461 68.7048 158.404 67.4151 160.597 66.4912C162.939 65.5007 165.423 65.0322 167.987 65.0322C172.079 65.0322 175.868 66.2188 179.047 68.7744C180.356 67.9055 181.959 67.2652 183.554 66.7559L184.289 66.5293C187.011 65.7131 189.632 65.1992 192.044 65.1768H192.094C192.714 65.1768 193.522 65.2145 194.357 65.4111C194.724 65.4975 195.451 65.6931 196.242 66.1611C197.592 65.5448 199.102 65.2002 200.758 65.2002C203.512 65.2002 206.157 66.1543 208.216 68.2598L208.234 68.2783L208.251 68.2959C209.287 69.3743 210 70.6215 210.492 71.8721L210.496 71.882L210.501 71.8943C210.504 71.9005 210.507 71.9066 210.509 71.9111C211.005 73.1712 211.314 74.5463 211.314 76.002Z" fill="#FFF100"/>
<path d="M189.691 39.821L188.19 43.1861C187.932 43.7532 187.723 44.1368 187.565 44.337C187.406 44.5288 187.231 44.6247 187.039 44.6247C186.856 44.6247 186.693 44.5455 186.551 44.387C186.46 44.2869 186.247 43.92 185.913 43.2862C185.588 42.6523 185.317 42.0894 185.1 41.5973L183.449 37.8819C183.224 37.3649 182.986 37.1063 182.736 37.1063C182.469 37.1063 182.323 37.3273 182.298 37.7694C182.24 38.7535 182.21 39.6625 182.21 40.4965C182.21 41.3638 182.252 41.9518 182.336 42.2604C182.394 42.4438 182.469 42.5773 182.561 42.6607C182.661 42.7441 182.923 42.8942 183.349 43.111C183.624 43.2528 183.762 43.4988 183.762 43.8491C183.762 44.7832 182.565 45.2502 180.171 45.2502C178.153 45.2502 177.144 44.7957 177.144 43.8866C177.144 43.6531 177.194 43.4863 177.294 43.3862C177.402 43.2778 177.674 43.1194 178.107 42.9109C178.382 42.7858 178.566 42.6148 178.658 42.398C178.758 42.1811 178.841 41.76 178.908 41.1345C178.983 40.4673 179.054 39.3748 179.121 37.8569C179.187 36.3307 179.221 35.0255 179.221 33.9414C179.221 32.582 179.116 31.6604 178.908 31.1767C178.833 31.0099 178.745 30.8848 178.645 30.8014C178.553 30.718 178.374 30.6096 178.107 30.4762C177.515 30.1926 177.219 29.8257 177.219 29.3753C177.219 29.0834 177.327 28.8165 177.544 28.5747C177.769 28.3328 178.066 28.1619 178.432 28.0618C178.799 27.9534 179.287 27.8616 179.896 27.7866C180.513 27.7032 181.034 27.6615 181.46 27.6615C182.527 27.6615 183.282 27.749 183.724 27.9242C183.941 28.0076 184.112 28.1202 184.237 28.2619C184.362 28.4037 184.541 28.6956 184.775 29.1376L187.377 33.9289C187.661 34.4543 187.856 34.7754 187.965 34.8921C188.073 35.0089 188.223 35.0672 188.415 35.0672C188.582 35.0672 188.728 35.0047 188.853 34.8796C188.987 34.7545 189.141 34.521 189.316 34.1791L191.08 30.7389C191.297 30.2969 191.438 30.0091 191.505 29.8757C191.914 29.0417 192.318 28.4871 192.719 28.2119C193.227 27.8533 194.153 27.674 195.496 27.674C197.856 27.674 199.036 28.2119 199.036 29.2877C199.036 29.5296 198.99 29.7256 198.898 29.8757C198.807 30.0175 198.619 30.1926 198.336 30.4011C197.952 30.693 197.71 31.1142 197.61 31.6646C197.418 32.8155 197.322 34.2166 197.322 35.8679C197.322 37.9945 197.422 39.8585 197.622 41.4597C197.672 41.8517 197.748 42.1186 197.848 42.2604C197.956 42.4021 198.227 42.6148 198.661 42.8984C198.961 43.0985 199.111 43.3654 199.111 43.699C199.111 44.2828 198.723 44.6956 197.948 44.9375C197.547 45.0709 197.126 45.1585 196.684 45.2002C196.242 45.2419 195.563 45.2627 194.645 45.2627C193.236 45.2627 192.185 45.1626 191.493 44.9625C190.725 44.7373 190.342 44.3537 190.342 43.8116C190.342 43.6114 190.392 43.4488 190.492 43.3237C190.592 43.1903 190.85 42.9526 191.267 42.6106C191.484 42.4355 191.63 42.0977 191.705 41.5973C191.789 41.097 191.83 40.2463 191.83 39.0454C191.83 38.3782 191.797 37.9403 191.73 37.7318C191.672 37.5233 191.543 37.4191 191.343 37.4191C191.109 37.4191 190.884 37.5817 190.667 37.907C190.45 38.2239 190.125 38.8619 189.691 39.821Z" fill="var(--fill-0, #FF1717)"/>
<path d="M209.557 27.5739C211.7 27.5739 213.572 28.1869 215.174 29.4128C216.258 30.2552 217.138 31.3477 217.813 32.6904C218.472 34.0248 218.801 35.3591 218.801 36.6935C218.801 38.6617 218.151 40.4214 216.85 41.9726C215.749 43.2903 214.31 44.2369 212.534 44.8124C211.442 45.1626 210.345 45.3378 209.244 45.3378C207.801 45.3378 206.421 45.0375 205.103 44.4371C203.51 43.7115 202.264 42.6148 201.363 41.147C200.487 39.7292 200.049 38.1655 200.049 36.4558C200.049 34.4709 200.612 32.7196 201.738 31.2017C202.739 29.8507 204.086 28.8582 205.779 28.2244C206.913 27.7907 208.172 27.5739 209.557 27.5739ZM208.368 31.1642C207.668 31.1642 207.113 31.4769 206.705 32.1024C206.388 32.5695 206.229 33.1241 206.229 33.7662C206.229 34.7086 206.421 35.8012 206.805 37.0438C207.188 38.2781 207.672 39.3748 208.256 40.3339C208.514 40.7425 208.831 41.0678 209.206 41.3096C209.59 41.5515 209.978 41.6724 210.37 41.6724C211.004 41.6724 211.512 41.4347 211.896 40.9593C212.288 40.484 212.484 39.8585 212.484 39.0829C212.484 38.0738 212.321 36.9854 211.996 35.8178C211.671 34.6503 211.25 33.6536 210.733 32.828C210.416 32.3193 210.049 31.919 209.632 31.6271C209.215 31.3352 208.794 31.1809 208.368 31.1642Z" fill="var(--fill-0, #FF1717)"/>
<path d="M225.131 45H224.231C223.705 45 223.117 45.025 222.467 45.0751C222.058 45.1084 221.775 45.1251 221.616 45.1251C221.057 45.1251 220.603 44.9958 220.253 44.7373C219.902 44.4788 219.727 44.141 219.727 43.724C219.727 43.4321 219.802 43.2069 219.952 43.0485C220.111 42.8817 220.365 42.7482 220.715 42.6482C221.049 42.5648 221.274 42.4313 221.391 42.2479C221.508 42.056 221.6 41.6891 221.666 41.147C221.733 40.5215 221.791 39.3039 221.841 37.4941C221.9 35.6844 221.929 33.8872 221.929 32.1024C221.929 31.4019 221.875 30.9349 221.766 30.7013C221.658 30.4678 221.404 30.2802 221.003 30.1384C220.428 29.9216 220.14 29.5504 220.14 29.025C220.14 28.6164 220.336 28.2995 220.728 28.0743C221.128 27.8408 221.683 27.724 222.392 27.724C222.625 27.724 222.901 27.7282 223.217 27.7365C223.918 27.7615 224.427 27.7741 224.744 27.7741C225.936 27.7741 227.283 27.7365 228.784 27.6615C229.101 27.6448 229.497 27.6364 229.973 27.6364C231.883 27.6364 233.392 27.8533 234.501 28.287C236.153 28.9375 237.395 30.03 238.229 31.5645C238.971 32.9156 239.343 34.5252 239.343 36.3933C239.343 37.3357 239.205 38.2823 238.93 39.233C238.654 40.1754 238.283 40.9927 237.816 41.6849C236.849 43.086 235.515 44.0701 233.813 44.6372C232.812 44.9708 231.745 45.1376 230.611 45.1376L229.097 45.0876L227.796 45.05C226.787 45.0167 225.899 45 225.131 45ZM227.758 31.4394V41.122C227.758 41.6474 227.871 42.0227 228.096 42.2479C228.321 42.4647 228.697 42.5731 229.222 42.5731C231.657 42.5731 232.875 40.7217 232.875 37.0188C232.875 34.9755 232.591 33.3909 232.024 32.2651C231.399 31.0224 230.34 30.4011 228.847 30.4011C228.447 30.4011 228.163 30.4803 227.996 30.6388C227.838 30.7972 227.758 31.0641 227.758 31.4394Z" fill="var(--fill-0, #FF1717)"/>
<path d="M250.063 27.5739C252.207 27.5739 254.079 28.1869 255.68 29.4128C256.764 30.2552 257.644 31.3477 258.32 32.6904C258.979 34.0248 259.308 35.3591 259.308 36.6935C259.308 38.6617 258.658 40.4214 257.357 41.9726C256.256 43.2903 254.817 44.2369 253.041 44.8124C251.948 45.1626 250.851 45.3378 249.751 45.3378C248.308 45.3378 246.928 45.0375 245.61 44.4371C244.017 43.7115 242.77 42.6148 241.869 41.147C240.994 39.7292 240.556 38.1655 240.556 36.4558C240.556 34.4709 241.119 32.7196 242.245 31.2017C243.246 29.8507 244.592 28.8582 246.285 28.2244C247.42 27.7907 248.679 27.5739 250.063 27.5739ZM248.875 31.1642C248.174 31.1642 247.62 31.4769 247.211 32.1024C246.894 32.5695 246.736 33.1241 246.736 33.7662C246.736 34.7086 246.928 35.8012 247.311 37.0438C247.695 38.2781 248.179 39.3748 248.762 40.3339C249.021 40.7425 249.338 41.0678 249.713 41.3096C250.097 41.5515 250.485 41.6724 250.877 41.6724C251.51 41.6724 252.019 41.4347 252.403 40.9593C252.795 40.484 252.991 39.8585 252.991 39.0829C252.991 38.0738 252.828 36.9854 252.503 35.8178C252.178 34.6503 251.756 33.6536 251.239 32.828C250.922 32.3193 250.555 31.919 250.138 31.6271C249.721 31.3352 249.3 31.1809 248.875 31.1642Z" fill="var(--fill-0, #FF1717)"/>
<path d="M70.6719 60.5827C72.3192 60.5827 74.4783 60.9905 77.1491 61.8061C77.469 61.9021 77.7249 61.9501 77.9168 61.9501C78.0767 61.9501 78.5565 61.8061 79.3561 61.5183C79.612 61.4223 79.8839 61.3743 80.1718 61.3743C81.2433 61.3743 82.3708 62.2219 83.5543 63.9172C84.7538 65.6125 85.3535 67.2278 85.3535 68.7631C85.3535 69.6587 85.0816 70.4183 84.5379 71.0421C84.0101 71.6498 83.3624 71.9537 82.5947 71.9537C81.955 71.9537 81.4352 71.8257 81.0354 71.5698C80.6356 71.314 79.756 70.5543 78.3966 69.2908C76.4774 67.4996 74.5902 66.604 72.735 66.604C71.8394 66.604 71.1198 66.8199 70.576 67.2517C70.0482 67.6835 69.7843 68.2513 69.7843 68.955C69.7843 70.3464 71.0078 71.3939 73.4547 72.0976C76.7653 73.0732 78.8843 73.7849 79.8119 74.2327C83.8901 76.2158 85.9293 79.1345 85.9293 82.9888C85.9293 86.3953 84.5379 89.1781 81.7551 91.3372C78.9083 93.5442 75.19 94.6477 70.6 94.6477C68.5529 94.6477 66.3938 94.4078 64.1228 93.928C61.8518 93.4322 60.2125 92.8565 59.205 92.2008C58.4373 91.689 57.7416 90.5775 57.1179 88.8663C56.5102 87.139 56.2063 85.4597 56.2063 83.8285C56.2063 83.0448 56.3662 82.4531 56.6861 82.0532C57.0859 81.5415 57.5897 81.2856 58.1974 81.2856C58.8052 81.2856 59.3889 81.5974 59.9487 82.2212C60.2845 82.573 61.0762 83.7005 62.3236 85.6037C62.9154 86.4993 63.8509 87.243 65.1304 87.8347C66.4258 88.4264 67.7612 88.7223 69.1366 88.7223C70.3201 88.7223 71.2797 88.5064 72.0154 88.0746C72.751 87.6268 73.1189 87.059 73.1189 86.3713C73.1189 85.7316 72.831 85.1799 72.2553 84.7161C71.6795 84.2523 70.7439 83.8205 69.4485 83.4206C67.1615 82.701 65.4183 82.0452 64.2188 81.4535C63.0193 80.8458 61.8998 80.0861 60.8603 79.1745C58.3334 76.9355 57.0699 74.3926 57.0699 71.5459C57.0699 70.1385 57.3978 68.7711 58.0535 67.4437C58.7092 66.1002 59.6368 64.9408 60.8363 63.9652C63.5231 61.7102 66.8016 60.5827 70.6719 60.5827Z" fill="var(--fill-0, #FF1717)"/>
<path d="M100.995 71.4739V84.4762C100.995 87.259 101.914 88.6503 103.753 88.6503C104.217 88.6503 104.673 88.5224 105.121 88.2665C105.569 87.9946 105.88 87.6668 106.056 87.283C106.408 86.5153 106.584 84.804 106.584 82.1492C106.584 79.5264 106.496 77.7351 106.32 76.7756C106.256 76.3757 106.144 76.0879 105.984 75.9119C105.825 75.72 105.521 75.5041 105.073 75.2642C104.161 74.7844 103.705 74.1767 103.705 73.441C103.705 72.4495 104.489 71.7618 106.056 71.3779C109.031 70.6423 111.966 70.2744 114.861 70.2744C116.476 70.2744 117.283 71.13 117.283 72.8413C117.283 73.0172 117.275 73.3771 117.26 73.9208C117.228 74.6885 117.204 75.6241 117.188 76.7276V87.3069C117.188 87.8507 117.651 88.3465 118.579 88.7943C119.363 89.1781 119.754 89.7379 119.754 90.4735C119.754 91.9129 118.051 93.0244 114.645 93.8081C112.646 94.2719 110.71 94.5038 108.839 94.5038C108.072 94.5038 107.544 94.4158 107.256 94.2399C106.984 94.064 106.824 93.7201 106.776 93.2084C106.696 92.2168 106.392 91.721 105.865 91.721C105.673 91.721 105.497 91.769 105.337 91.8649C105.177 91.9449 104.689 92.2648 103.873 92.8245C102.258 93.928 100.523 94.4798 98.6677 94.4798C95.597 94.4798 93.43 93.5922 92.1665 91.817C91.095 90.3296 90.5592 87.8267 90.5592 84.3083C90.5592 82.9968 90.5672 81.8773 90.5832 80.9497C90.5832 80.406 90.5832 80.0381 90.5832 79.8462C90.5832 78.4708 90.4553 77.4633 90.1994 76.8235C89.9595 76.1678 89.5117 75.6561 88.856 75.2882C88.2322 74.9684 87.8324 74.7125 87.6565 74.5205C87.4966 74.3286 87.4166 74.0647 87.4166 73.7289C87.4166 72.5134 88.3362 71.7058 90.1754 71.306C93.31 70.6183 96.4446 70.2744 99.5793 70.2744C100.523 70.2744 100.995 70.6742 100.995 71.4739Z" fill="var(--fill-0, #FF1717)"/>
<path d="M132.901 70.2264C133.876 70.2264 134.484 70.3144 134.724 70.4903C134.964 70.6502 135.084 71.0661 135.084 71.7378C135.084 72.3295 135.276 72.6254 135.659 72.6254C135.819 72.6254 136.355 72.3215 137.267 71.7138C137.954 71.25 138.826 70.8662 139.882 70.5623C140.953 70.2424 141.921 70.0825 142.784 70.0825C144.815 70.0825 146.631 70.7862 148.23 72.1936C149.445 73.2651 150.389 74.6165 151.061 76.2478C151.764 77.959 152.116 79.7583 152.116 81.6454C152.116 85.6757 150.757 88.9942 148.038 91.6011C145.943 93.6322 143.56 94.6477 140.889 94.6477C139.53 94.6477 138.13 94.3279 136.691 93.6881C136.403 93.5602 136.171 93.4962 135.995 93.4962C135.515 93.4962 135.276 93.976 135.276 94.9356C135.276 96.199 135.699 97.1106 136.547 97.6704C137.331 98.1982 137.794 98.55 137.938 98.7259C138.098 98.9178 138.178 99.2297 138.178 99.6615C138.178 100.621 137.643 101.357 136.571 101.869C135.499 102.396 133.988 102.66 132.037 102.66C128.567 102.66 125.528 101.965 122.921 100.573C121.594 99.8694 120.93 98.9978 120.93 97.9583C120.93 97.4785 121.026 97.1106 121.218 96.8547C121.426 96.6148 121.817 96.359 122.393 96.0871C123.225 95.7033 123.729 95.0076 123.905 94C124.096 92.9924 124.24 90.0977 124.336 85.3158C124.224 81.3815 124.081 79.1745 123.905 78.6947C123.841 78.5348 123.745 78.4308 123.617 78.3829C123.505 78.3349 123.113 78.2469 122.441 78.119C121.929 78.023 121.514 77.7911 121.194 77.4233C120.874 77.0394 120.714 76.5836 120.714 76.0559C120.714 75.4162 120.938 74.8564 121.386 74.3766C121.833 73.8808 122.561 73.401 123.569 72.9372C127.487 71.162 130.598 70.2584 132.901 70.2264ZM135.276 79.2945L134.916 85.8916C134.9 86.1634 134.892 86.4273 134.892 86.6832C134.892 87.179 135.108 87.5788 135.539 87.8827C135.971 88.1865 136.547 88.3385 137.267 88.3385C139.474 88.3385 140.577 86.5233 140.577 82.8929C140.577 80.5419 140.113 78.8866 139.186 77.9271C138.61 77.3353 137.922 77.0394 137.123 77.0394C135.987 77.0394 135.372 77.7911 135.276 79.2945Z" fill="var(--fill-0, #FF1717)"/>
<path d="M176.034 83.2527H164.759C164.263 83.2527 164.015 83.4686 164.015 83.9004C164.015 84.94 164.575 85.9235 165.694 86.8511C166.83 87.7627 168.045 88.2185 169.341 88.2185C170.108 88.2185 170.956 88.0746 171.884 87.7867C172.827 87.4829 173.603 87.115 174.211 86.6832C174.754 86.2994 175.186 86.1075 175.506 86.1075C175.922 86.1075 176.33 86.3634 176.729 86.8751C177.129 87.3869 177.329 87.9147 177.329 88.4584C177.329 89.6099 176.609 90.7214 175.17 91.793C172.627 93.6961 169.692 94.6477 166.366 94.6477C163.007 94.6477 160.193 93.6721 157.922 91.721C156.818 90.7614 155.907 89.6019 155.187 88.2425C154.243 86.4353 153.771 84.5322 153.771 82.533C153.771 79.8462 154.587 77.4313 156.218 75.2882C157.626 73.433 159.417 72.0496 161.592 71.138C163.223 70.4503 164.991 70.1065 166.894 70.1065C169.932 70.1065 172.515 70.9701 174.642 72.6973C175.714 73.561 176.577 74.5845 177.233 75.768C177.985 77.1114 178.361 78.4228 178.361 79.7023C178.361 80.7418 178.145 81.5974 177.713 82.2691C177.281 82.9249 176.721 83.2527 176.034 83.2527ZM165.382 78.7667H167.805C168.829 78.7667 169.341 78.2949 169.341 77.3513C169.341 76.4877 169.093 75.784 168.597 75.2402C168.101 74.6965 167.453 74.4246 166.654 74.4246C165.758 74.4246 165.055 74.7764 164.543 75.4801C164.063 76.1358 163.823 76.7996 163.823 77.4713C163.823 77.951 163.935 78.2869 164.159 78.4788C164.399 78.6707 164.807 78.7667 165.382 78.7667Z" fill="var(--fill-0, #FF1717)"/>
<path d="M191.123 70.2504C191.971 70.2504 192.482 70.3704 192.658 70.6103C192.85 70.8502 193.018 71.6178 193.162 72.9133C193.242 73.6169 193.49 73.9688 193.906 73.9688C194.226 73.9688 194.53 73.7369 194.817 73.2731C196.097 71.274 197.768 70.2744 199.831 70.2744C201.287 70.2744 202.478 70.7462 203.406 71.6898C203.853 72.1536 204.221 72.7533 204.509 73.489C204.797 74.2087 204.941 74.9044 204.941 75.5761C204.941 76.3278 204.765 77.1034 204.413 77.9031C204.061 78.6867 203.606 79.3344 203.046 79.8462C202.022 80.8218 200.767 81.3096 199.28 81.3096C198.464 81.3096 197.776 81.1656 197.216 80.8778C196.673 80.5899 195.953 80.0061 195.057 79.1265C194.722 78.7907 194.41 78.6227 194.122 78.6227C193.674 78.6227 193.378 78.8786 193.234 79.3904C193.106 79.8862 193.042 80.9417 193.042 82.557C193.042 84.972 193.13 86.6192 193.306 87.4989C193.418 87.9786 193.57 88.3145 193.762 88.5064C193.97 88.6823 194.402 88.8663 195.057 89.0582C196.497 89.49 197.216 90.2416 197.216 91.3132C197.216 91.9689 196.985 92.5446 196.521 93.0404C196.057 93.5202 195.441 93.8401 194.674 94C193.138 94.3199 190.883 94.4798 187.909 94.4798C185.078 94.4798 182.927 94.2319 181.455 93.7361C180.144 93.2883 179.488 92.5126 179.488 91.4091C179.488 90.5775 179.968 89.8338 180.928 89.1781C181.391 88.8742 181.711 88.6024 181.887 88.3625C182.063 88.1066 182.183 87.7627 182.247 87.3309C182.503 85.8756 182.631 83.1807 182.631 79.2465C182.631 78.5268 182.551 78.015 182.391 77.7112C182.231 77.3913 181.911 77.1354 181.431 76.9435C180.296 76.4957 179.728 75.848 179.728 75.0003C179.728 74.2327 180.12 73.577 180.904 73.0332C181.687 72.4734 182.999 71.9217 184.838 71.3779C187.301 70.6423 189.396 70.2664 191.123 70.2504Z" fill="var(--fill-0, #FF1717)"/>
<path d="M228.787 61.2544H241.429C242.788 61.2064 244.028 61.0225 245.147 60.7026C245.627 60.5747 246.051 60.5107 246.419 60.5107C247.714 60.5107 248.97 61.4703 250.185 63.3894C251.417 65.3086 252.032 67.2837 252.032 69.3148C252.032 70.7062 251.609 71.7218 250.761 72.3615C250.121 72.8413 249.354 73.0812 248.458 73.0812C247.61 73.0812 246.875 72.8493 246.251 72.3855C245.627 71.9057 245.011 71.122 244.404 70.0345C243.876 69.043 243.46 68.3952 243.156 68.0914C242.852 67.7875 242.485 67.6356 242.053 67.6356C241.461 67.6356 241.037 67.8835 240.781 68.3792C240.525 68.875 240.397 69.6907 240.397 70.8262V84.2603C240.397 85.6357 240.541 86.6352 240.829 87.259C241.117 87.8827 241.661 88.3625 242.461 88.6983C243.324 89.0662 243.908 89.418 244.212 89.7539C244.532 90.0737 244.692 90.5215 244.692 91.0973C244.692 92.2488 243.908 93.1044 242.341 93.6641C240.789 94.2239 238.398 94.5038 235.168 94.5038C231.201 94.5038 228.259 94.1759 226.34 93.5202C224.724 92.9764 223.917 92.0968 223.917 90.8814C223.917 90.2257 224.205 89.7139 224.78 89.346C224.924 89.2661 225.492 89.0742 226.484 88.7703C227.091 88.5944 227.507 88.2585 227.731 87.7627C227.971 87.267 228.163 86.3154 228.307 84.908C228.435 83.6605 228.555 81.6454 228.667 78.8626C228.779 76.0639 228.835 73.6409 228.835 71.5938C228.835 70.1545 228.723 69.1309 228.499 68.5232C228.275 67.9154 227.907 67.6116 227.395 67.6116C226.771 67.6116 226.164 68.0594 225.572 68.955C224.5 70.5863 223.621 71.6658 222.933 72.1936C222.117 72.8173 221.326 73.1292 220.558 73.1292C219.695 73.1292 218.983 72.8093 218.423 72.1696C217.863 71.5139 217.583 70.6822 217.583 69.6747C217.583 68.6831 217.807 67.5956 218.255 66.4121C218.703 65.2126 219.303 64.1091 220.054 63.1016C221.27 61.4703 222.469 60.6546 223.653 60.6546C223.973 60.6546 224.34 60.7026 224.756 60.7986C225.62 60.9745 226.324 61.0944 226.867 61.1584C227.427 61.2224 228.067 61.2544 228.787 61.2544Z" fill="var(--fill-0, #FF1717)"/>
<path d="M263.379 70.2504C264.227 70.2504 264.739 70.3704 264.915 70.6103C265.107 70.8502 265.275 71.6178 265.418 72.9133C265.498 73.6169 265.746 73.9688 266.162 73.9688C266.482 73.9688 266.786 73.7369 267.074 73.2731C268.353 71.274 270.024 70.2744 272.088 70.2744C273.543 70.2744 274.734 70.7462 275.662 71.6898C276.11 72.1536 276.478 72.7533 276.765 73.489C277.053 74.2087 277.197 74.9044 277.197 75.5761C277.197 76.3278 277.021 77.1034 276.67 77.9031C276.318 78.6867 275.862 79.3344 275.302 79.8462C274.279 80.8218 273.023 81.3096 271.536 81.3096C270.72 81.3096 270.032 81.1656 269.473 80.8778C268.929 80.5899 268.209 80.0061 267.314 79.1265C266.978 78.7907 266.666 78.6227 266.378 78.6227C265.93 78.6227 265.634 78.8786 265.49 79.3904C265.362 79.8862 265.299 80.9417 265.299 82.557C265.299 84.972 265.386 86.6192 265.562 87.4989C265.674 87.9786 265.826 88.3145 266.018 88.5064C266.226 88.6823 266.658 88.8663 267.314 89.0582C268.753 89.49 269.473 90.2416 269.473 91.3132C269.473 91.9689 269.241 92.5446 268.777 93.0404C268.313 93.5202 267.697 93.8401 266.93 94C265.394 94.3199 263.139 94.4798 260.165 94.4798C257.334 94.4798 255.183 94.2319 253.712 93.7361C252.4 93.2883 251.744 92.5126 251.744 91.4091C251.744 90.5775 252.224 89.8338 253.184 89.1781C253.648 88.8742 253.968 88.6024 254.143 88.3625C254.319 88.1066 254.439 87.7627 254.503 87.3309C254.759 85.8756 254.887 83.1807 254.887 79.2465C254.887 78.5268 254.807 78.015 254.647 77.7112C254.487 77.3913 254.167 77.1354 253.688 76.9435C252.552 76.4957 251.984 75.848 251.984 75.0003C251.984 74.2327 252.376 73.577 253.16 73.0332C253.944 72.4734 255.255 71.9217 257.094 71.3779C259.557 70.6423 261.652 70.2664 263.379 70.2504Z" fill="var(--fill-0, #FF1717)"/>
<path d="M291.903 71.4739V84.4762C291.903 87.259 292.822 88.6503 294.662 88.6503C295.125 88.6503 295.581 88.5224 296.029 88.2665C296.477 87.9946 296.789 87.6668 296.965 87.283C297.316 86.5153 297.492 84.804 297.492 82.1492C297.492 79.5264 297.404 77.7351 297.229 76.7756C297.165 76.3757 297.053 76.0879 296.893 75.9119C296.733 75.72 296.429 75.5041 295.981 75.2642C295.069 74.7844 294.614 74.1767 294.614 73.441C294.614 72.4495 295.397 71.7618 296.965 71.3779C299.939 70.6423 302.874 70.2744 305.769 70.2744C307.384 70.2744 308.192 71.13 308.192 72.8413C308.192 73.0172 308.184 73.3771 308.168 73.9208C308.136 74.6885 308.112 75.6241 308.096 76.7276V87.3069C308.096 87.8507 308.56 88.3465 309.487 88.7943C310.271 89.1781 310.663 89.7379 310.663 90.4735C310.663 91.9129 308.959 93.0244 305.553 93.8081C303.554 94.2719 301.619 94.5038 299.747 94.5038C298.98 94.5038 298.452 94.4158 298.164 94.2399C297.892 94.064 297.732 93.7201 297.684 93.2084C297.604 92.2168 297.3 91.721 296.773 91.721C296.581 91.721 296.405 91.769 296.245 91.8649C296.085 91.9449 295.597 92.2648 294.782 92.8245C293.166 93.928 291.431 94.4798 289.576 94.4798C286.505 94.4798 284.338 93.5922 283.075 91.817C282.003 90.3296 281.467 87.8267 281.467 84.3083C281.467 82.9968 281.475 81.8773 281.491 80.9497C281.491 80.406 281.491 80.0381 281.491 79.8462C281.491 78.4708 281.363 77.4633 281.108 76.8235C280.868 76.1678 280.42 75.6561 279.764 75.2882C279.14 74.9684 278.741 74.7125 278.565 74.5205C278.405 74.3286 278.325 74.0647 278.325 73.7289C278.325 72.5134 279.244 71.7058 281.084 71.306C284.218 70.6183 287.353 70.2744 290.487 70.2744C291.431 70.2744 291.903 70.6742 291.903 71.4739Z" fill="var(--fill-0, #FF1717)"/>
<path d="M341.153 78.9586L341.489 87.4029C341.521 88.0426 341.617 88.5144 341.777 88.8183C341.953 89.1221 342.449 89.7059 343.264 90.5695C343.504 90.8254 343.624 91.1852 343.624 91.649C343.624 92.7046 342.992 93.4402 341.729 93.8561C340.466 94.2719 338.211 94.4798 334.964 94.4798C332.757 94.4798 331.198 94.2879 330.286 93.904C329.342 93.5042 328.871 92.8565 328.871 91.9609C328.871 91.641 328.919 91.4091 329.015 91.2652C329.111 91.1053 329.43 90.7294 329.974 90.1377C330.614 89.466 330.934 87.227 330.934 83.4206C330.934 81.2136 330.678 79.5823 330.166 78.5268C329.75 77.6792 328.983 77.2553 327.863 77.2553C326.792 77.2553 326.056 77.5992 325.656 78.2869C325.256 78.9746 325.056 80.222 325.056 82.0293V86.7792C325.056 87.7228 325.112 88.3705 325.224 88.7223C325.352 89.0742 325.752 89.7539 326.424 90.7614C326.6 91.0493 326.688 91.3771 326.688 91.745C326.688 92.6886 326.032 93.3843 324.72 93.8321C323.409 94.2799 321.362 94.5038 318.579 94.5038C314.133 94.5038 311.91 93.5842 311.91 91.745C311.91 91.3612 311.974 91.0733 312.102 90.8814C312.246 90.6735 312.574 90.3856 313.086 90.0177C313.501 89.7139 313.765 89.37 313.877 88.9862C313.989 88.5864 314.093 87.6188 314.189 86.0835C314.301 84.2603 314.357 82.3491 314.357 80.35C314.357 79.2465 314.269 78.5268 314.093 78.1909C313.933 77.8391 313.453 77.4153 312.654 76.9195C311.966 76.4877 311.622 75.9599 311.622 75.3362C311.622 74.6965 311.902 74.1767 312.462 73.7769C313.022 73.3611 314.173 72.8413 315.916 72.2176C317.452 71.6738 318.931 71.218 320.354 70.8502C321.778 70.4663 322.753 70.2744 323.281 70.2744C323.761 70.2744 324.161 70.4503 324.481 70.8022C324.816 71.154 324.984 71.5698 324.984 72.0496C324.984 72.0976 324.976 72.2975 324.96 72.6494C324.944 72.7773 324.936 72.8893 324.936 72.9852C324.936 73.7529 325.256 74.1367 325.896 74.1367C326.28 74.1367 326.688 73.8328 327.119 73.2251C328.495 71.242 330.494 70.2504 333.117 70.2504C335.132 70.2504 336.859 70.7782 338.298 71.8337C339.306 72.5854 340.01 73.473 340.41 74.4966C340.809 75.5041 341.057 76.9915 341.153 78.9586Z" fill="var(--fill-0, #FF1717)"/>
<path d="M359.145 74.5685H362.12C362.616 74.5685 362.968 74.6485 363.176 74.8084C363.399 74.9524 363.495 75.2003 363.463 75.5521L363.271 78.4068C363.24 78.9826 363.152 79.3504 363.008 79.5104C362.864 79.6543 362.544 79.7263 362.048 79.7263C361.936 79.7263 361.672 79.7103 361.256 79.6783C360.969 79.6623 360.729 79.6543 360.537 79.6543C359.865 79.6543 359.409 79.8782 359.169 80.326C358.929 80.7578 358.809 81.5894 358.809 82.8209C358.809 84.5002 358.993 85.9155 359.361 87.067C359.505 87.5628 359.713 87.9307 359.985 88.1706C360.257 88.3945 360.705 88.5944 361.328 88.7703C362.736 89.1861 363.439 89.9618 363.439 91.0973C363.439 92.2967 362.616 93.1604 360.969 93.6881C359.337 94.2159 356.65 94.4798 352.908 94.4798C347.358 94.4798 344.584 93.3763 344.584 91.1692C344.584 90.6255 344.696 90.2257 344.92 89.9698C345.159 89.7139 345.671 89.418 346.455 89.0822C347.303 88.6983 347.814 87.9866 347.99 86.9471C348.262 85.3798 348.398 83.7005 348.398 81.9093C348.398 81.1097 348.254 80.5579 347.966 80.254C347.694 79.9342 347.191 79.7822 346.455 79.7982C345.591 79.7982 345.04 79.7583 344.8 79.6783C344.56 79.5823 344.448 79.3664 344.464 79.0306L344.656 76.0079C344.688 75.5121 344.768 75.2082 344.896 75.0963C345.04 74.9684 345.423 74.8884 346.047 74.8564C346.639 74.8244 346.935 74.5365 346.935 73.9928C346.935 73.7689 346.719 73.2571 346.287 72.4575C345.551 71.13 345.183 69.8026 345.183 68.4752C345.183 66.5241 345.855 64.9328 347.199 63.7013C349.166 61.8941 351.988 60.9905 355.667 60.9905C358.69 60.9905 361.104 61.7022 362.912 63.1256C364.303 64.2291 364.999 65.5005 364.999 66.9399C364.999 67.9794 364.655 68.859 363.967 69.5787C363.28 70.2824 362.424 70.6343 361.4 70.6343C360.249 70.6343 359.145 70.2344 358.09 69.4348C357.834 69.2269 357.226 68.5952 356.267 67.5396C355.579 66.8039 354.891 66.4361 354.204 66.4361C353.756 66.4361 353.372 66.596 353.052 66.9159C352.732 67.2357 352.572 67.6276 352.572 68.0914C352.572 69.3548 353.772 70.7062 356.171 72.1456C356.906 72.5934 357.402 72.9452 357.658 73.2011C357.93 73.457 358.17 73.8169 358.378 74.2807C358.49 74.4726 358.746 74.5685 359.145 74.5685Z" fill="var(--fill-0, #FF1717)"/>
<path d="M379.92 70.0825C382.847 70.0825 385.414 70.8422 387.621 72.3615C389.204 73.449 390.476 74.8644 391.435 76.6076C392.427 78.4308 392.922 80.334 392.922 82.3171C392.922 85.7876 391.331 88.7383 388.149 91.1692C385.11 93.4882 381.631 94.6477 377.713 94.6477C373.891 94.6477 370.796 93.5602 368.429 91.3851C366.126 89.2741 364.975 86.5233 364.975 83.1328C364.975 79.3584 366.382 76.2718 369.197 73.8728C372.14 71.3459 375.714 70.0825 379.92 70.0825ZM378.001 75.6241C377.297 75.6241 376.73 75.8879 376.298 76.4157C375.882 76.9275 375.674 77.6152 375.674 78.4788C375.674 79.4384 375.85 80.7498 376.202 82.4131C376.57 84.0604 377.001 85.5237 377.497 86.8032C377.993 88.1146 378.801 88.7703 379.92 88.7703C381.344 88.7703 382.055 87.8667 382.055 86.0595C382.055 84.7161 381.871 83.1887 381.504 81.4775C381.152 79.7662 380.72 78.3749 380.208 77.3033C379.68 76.2158 378.945 75.6561 378.001 75.6241Z" fill="var(--fill-0, #FF1717)"/>
</g>
</g>
</svg>
