<?xml version="1.0" encoding="UTF-8"?>
<svg id="Layer_2" data-name="Layer 2" xmlns="http://www.w3.org/2000/svg" viewBox="0 0 125.01 162.7">
  <defs>
    <style>
      .cls-1 {
        fill: #fff;
      }

      .cls-2 {
        fill: none;
      }

      .cls-3 {
        fill: #ffce00;
      }

      .cls-4 {
        fill: #070760;
      }
    </style>
  </defs>
  <g id="Layer_1-2" data-name="Layer 1">
    <g>
      <path class="cls-3" d="M11.77,74.32c-.11-.37-.21-.75-.3-1.12,0,0,.01-.02.02-.03.08.39.17.77.28,1.15Z"/>
      <path class="cls-2" d="M13.64,78.74s-.02.02-.03.04"/>
      <path class="cls-3" d="M107.74,74.08s-.03-.03-.04-.04c-.12-.14-.24-.27-.36-.41.12-.33.23-.66.32-1,.25-.87.41-1.77.51-2.68.1-.87.13-1.74.12-2.6.06.06.11.11.17.16.08,2.05-.08,4.35-.73,6.56Z"/>
      <path class="cls-4" d="M108.47,67.52c-.06-.06-.11-.11-.17-.16.01.86-.03,1.73-.12,2.6-.1.91-.27,1.81-.51,2.68-.09.34-.2.67-.32,1,.12.14.24.27.36.41.01.02.03.03.04.04.65-2.21.81-4.51.73-6.56ZM11.5,73.17s-.02.02-.02.03c.09.38.19.75.3,1.12-.1-.38-.2-.76-.28-1.15Z"/>
      <path class="cls-4" d="M125,105.52h0c0-.09,0-.18,0-.27-.02-1.69-.13-3.37-.31-5.02-.01-.1-.02-.2-.04-.3-.07-.59-.14-1.17-.23-1.75-.02-.15-.04-.29-.07-.44-.34-2.15-.82-4.26-1.42-6.32h0c-.55-1.88-1.2-3.72-1.94-5.51,0,0,0,0,0,0-.36-.86-.74-1.71-1.14-2.55,0,0,0,0,0,0-.35-.72-.71-1.44-1.09-2.15-.14-.27-.29-.54-.44-.8-.18-.32-.36-.64-.55-.96-.35-.6-.72-1.2-1.1-1.8-1.38-2.17-2.91-4.25-4.59-6.22-.08-.09-.16-.19-.24-.28.23-1.5.28-2.98.24-4.36-.05-1.68-.25-3.2-.47-4.42l-.84-4.67c.47-1.32.85-2.67,1.1-4.03,1.31-6.95-.87-12.7-6.32-16.61l-4.22-3.03-1.7,4.7c-.11.3-.24.59-.4.88-.35-2.22-.91-4.63-1.81-6.99-1.12-2.94-2.63-5.47-4.5-7.51-2.27-2.48-5.05-4.25-8.28-5.27l-4.53-1.44-.32,2.99-5.04-5.81c-3.15-3.63-5.06-6.93-6.01-10.39l-1.43-5.19-4.56,3.26c-3.18,2.27-5.28,4.88-6.44,7.97-.94,2.53-1.13,5.01-1.28,7.41-2.17-1.69-5.01-3.09-8.87-3.76l-5.95-1.03,1.59,5.43c.53,1.8.6,5.79-.48,10.27-.51,2.11-1.2,4.03-2.02,5.62-.16-.15-.33-.29-.5-.44-2.48-2.04-5.6-3.21-8.78-3.31l-3.52-.1-.37,3.26-.09.8c-.55,4.88-1.08,9.56-2.71,14.03-.83-.47-1.86-.88-3.12-1.25l-3.62-1.05-1.14,3.37-2.39,7.07c-.46,1.36-.9,2.71-1.26,4.08-.4,1.5-.71,3.03-.85,4.62-.02.2-.03.41-.04.62-.05.8-.05,1.6-.01,2.39.06,1.33.25,2.64.55,3.92,0,0,.01-.02.02-.03.08.39.17.77.28,1.15-.11-.37-.21-.75-.3-1.12-.14.17-.27.35-.4.52-.05.07-.1.13-.15.2-.61.8-1.19,1.62-1.75,2.45-.37.55-.74,1.11-1.09,1.68-.09.14-.18.28-.26.43-.14.23-.28.46-.42.7-.28.48-.56.97-.83,1.46,0,0,0,0,0,0,0,0,0,0,0,0-1.81,3.28-3.28,6.74-4.36,10.34-.05.15-.09.31-.14.46-1.35,4.64-2.07,9.52-2.07,14.55,0,.22,0,.44,0,.65H0c.03,2.13.18,4.22.46,6.28.08.58.16,1.15.26,1.72h0c.19,1.12.41,2.22.67,3.31.52,2.22,1.19,4.39,1.99,6.5,7.29,19.23,25.64,33.79,48.16,37.4.09.02.17.03.26.04.94.15,1.88.28,2.83.38.57.06,1.15.12,1.73.17,2.02.18,4.07.27,6.15.27,1.91,0,3.81-.08,5.68-.23.7-.06,1.39-.12,2.08-.2.28-.03.57-.07.85-.1.39-.05.79-.1,1.18-.16,27.73-3.96,49.4-24.46,52.37-50.03.2-1.75.32-3.53.34-5.33,0-.23,0-.45,0-.68v-.11c0-.11,0-.22,0-.33ZM119.89,108.66c-.02.41-.05.82-.09,1.23-.17,2.13-.5,4.24-.96,6.32-.74,3.32-1.85,6.57-3.31,9.71-2.86,6.15-6.97,11.68-12.22,16.43-5.28,4.79-11.43,8.55-18.29,11.19-3.94,1.51-8.02,2.61-12.19,3.29-.28.05-.56.09-.85.13-.25.04-.49.07-.74.11-.7.1-1.41.18-2.12.26-2.18.23-4.39.34-6.62.34s-4.45-.11-6.64-.34c-.28-.03-.55-.06-.83-.09-.66-.08-1.32-.16-1.98-.26-.13-.02-.26-.04-.39-.06-4.35-.67-8.6-1.8-12.69-3.37-6.86-2.63-13.01-6.4-18.29-11.19-5.24-4.76-9.35-10.29-12.22-16.43-.91-1.95-1.68-3.94-2.31-5.96-.66-2.11-1.17-4.25-1.52-6.43h0c-.17-1.05-.31-2.11-.41-3.18-.14-1.46-.2-2.92-.2-4.4,0-.07,0-.13,0-.2,0-1.37.07-2.73.19-4.07.01-.14.03-.28.04-.42h0c.28-2.76.79-5.48,1.55-8.14.31-1.1.67-2.19,1.06-3.27.47-1.3,1-2.58,1.59-3.84.65-1.4,1.37-2.77,2.16-4.11h0c.23-.4.47-.79.72-1.18,0,0,0-.02.02-.03.4-.64.81-1.28,1.25-1.9,0-.01.02-.03.03-.04.05-.07.09-.13.14-.2h0c.43-.62.87-1.22,1.32-1.82.34-.45.7-.89,1.06-1.33-.12-.29-.24-.58-.35-.88-.3-.8-.53-1.61-.71-2.43,0-.03-.01-.05-.02-.08-.02-.09-.04-.18-.06-.27-.02-.08-.03-.15-.04-.23-.02-.11-.04-.22-.06-.33-.1-.6-.17-1.2-.2-1.81-.05-.76-.05-1.53,0-2.31v-.16c.07-.86.18-1.7.35-2.54.16-.82.36-1.63.59-2.44.29-1.01.62-2.02.96-3.05.03-.09.06-.18.09-.27l2.39-7.07c1.12.33,2.39.81,2.95,1.4l2.55,2.68c3.87-6.66,4.54-13.68,5.33-20.65,3.17.09,5.88,1.67,7.47,3.46,0,0,.02.02.02.02.18.2.34.41.49.62,0,0,0,0,0,0,.64.88,1,1.78,1.02,2.56,5.97-4.64,8.17-17.76,6.56-23.28,6.27,1.09,9.17,4.42,11.28,7.88,1.39-1.8,1.81-3.59,1.95-5.45.4-5.32,0-10.19,6.36-14.73.07.25.14.49.22.73,0,.02.01.04.02.06l.06.19c1.15,3.58,3.16,6.83,5.82,10.01.03.03.05.06.08.09.03.04.06.07.09.11.07.08.14.17.22.25l5.54,6.38c.08.1.16.19.24.29.01.02.03.03.04.04h0c.91,1.06,1.57,2.14,2.05,3.26h0c.55,1.27.88,2.58,1.14,3.95,2.73-1.95,2.61-5.94,2.85-8.26,3.11.99,5.47,2.77,7.25,4.97,0,0,0,.01.01.02,1.76,2.18,2.96,4.77,3.77,7.42.01.03.02.06.03.09,1.23,4.09,1.52,8.29,1.5,11.26,3.87-1.79,6.24-4.3,7.25-7.09.88.63,1.63,1.3,2.26,2.01,0,0,.02.02.02.03,0,0,.01.01.02.02,1.29,1.45,2.09,3.05,2.53,4.74,0,.01,0,.02,0,.04.92,3.67.07,7.75-1.58,11.63-.28.65-.58,1.3-.89,1.94,0,.02-.02.04-.03.05-.18.36-.36.71-.55,1.07-.37.7-.77,1.39-1.18,2.06-.23.38-.47.75-.7,1.12h0s0,.01,0,.01c0,0,0,0,0,0-.03.05-.06.09-.09.14-.5.77-1.01,1.51-1.52,2.21,1.11-.25,2.01-.61,2.78-1.05.5-.28.95-.59,1.36-.93.11-.09.21-.17.32-.26.4-.34.78-.69,1.16-1.05.24-.23.48-.46.72-.69.24,1.34.41,2.85.42,4.41.06.06.11.11.17.16.08,2.05-.08,4.35-.73,6.56.15.17.29.34.44.51.08.1.16.19.25.29.54.65,1.07,1.31,1.58,1.97.43.56.84,1.12,1.23,1.7,0,0,0,0,.01.01,0,0,.01.01.01.02.43.61.83,1.22,1.23,1.85.15.24.3.48.45.72.79,1.29,1.51,2.61,2.17,3.96.15.3.29.59.43.9.1.22.2.43.3.65.22.5.44.99.64,1.5h0c.43,1.04.81,2.09,1.16,3.15.42,1.26.78,2.53,1.08,3.82.2.84.38,1.69.53,2.54.11.62.21,1.25.3,1.88,0,.03,0,.06.01.08.2,1.47.33,2.95.39,4.45,0,.14.01.28.02.43.02.49.02.98.02,1.47,0,.9-.03,1.8-.08,2.7Z"/>
    </g>
    <g>
      <path class="cls-2" d="M108.47,67.52c-.06-.06-.11-.11-.17-.16.01.86-.03,1.73-.12,2.6-.1.91-.27,1.81-.51,2.68-.09.34-.2.67-.32,1,.12.14.24.27.36.41.01.02.03.03.04.04.65-2.21.81-4.51.73-6.56ZM77.12,23.89l-5.54-6.38c-.07-.08-.14-.17-.22-.25.15.18.3.36.46.54l5.54,6.39c-.08-.1-.16-.19-.24-.29ZM13.64,78.74s-.02.02-.03.04"/>
      <path class="cls-3" d="M13.61,78.78c-.43.63-.85,1.26-1.25,1.9,0,0-.01.02-.02.03-.25.39-.48.78-.72,1.18h0c-.78,1.34-1.5,2.71-2.16,4.11-.59,1.27-1.12,2.55-1.59,3.84-.39,1.08-.75,2.17-1.06,3.27-.76,2.67-1.28,5.39-1.55,8.14h0c-.01.14-.03.28-.04.42-.12,1.35-.19,2.71-.19,4.07,0,.07,0,.13,0,.2,0,1.48.07,2.94.2,4.4.1,1.07.24,2.13.41,3.18h0c.35,2.18.86,4.32,1.52,6.43.63,2.02,1.4,4.01,2.31,5.96,2.87,6.15,6.97,11.68,12.22,16.43,5.28,4.79,11.43,8.55,18.29,11.19,4.09,1.57,8.34,2.7,12.69,3.37.13.02.26.04.39.06.66.1,1.32.19,1.98.26.28.03.55.06.83.09,2.19.23,4.4.34,6.64.34s4.44-.11,6.62-.34c.71-.07,1.42-.16,2.12-.26.25-.03.49-.07.74-.11.28-.04.56-.09.85-.13,4.18-.68,8.26-1.78,12.19-3.29,6.86-2.63,13.01-6.4,18.29-11.19,5.24-4.76,9.35-10.29,12.22-16.43,1.47-3.15,2.57-6.39,3.31-9.71.47-2.08.79-4.19.96-6.32.04-.41.06-.82.09-1.23.05-.89.08-1.79.08-2.7,0-.49,0-.98-.02-1.47,0-.14-.01-.28-.02-.43-.06-1.49-.19-2.98-.39-4.45,0-.03,0-.06-.01-.08-.09-.63-.18-1.25-.3-1.88-.15-.85-.33-1.7-.53-2.54-.3-1.29-.66-2.56-1.08-3.82-.35-1.06-.73-2.11-1.16-3.15h0c-.21-.5-.42-1-.64-1.5-.1-.22-.19-.43-.3-.65-.14-.3-.28-.6-.43-.9-.66-1.35-1.39-2.67-2.17-3.96-.15-.24-.3-.48-.45-.72-.39-.62-.8-1.24-1.23-1.85,0,0,0-.01-.01-.02,0,0,0,0-.01-.01-.4-.57-.81-1.14-1.23-1.7-.51-.67-1.03-1.33-1.58-1.97-.08-.1-.16-.19-.25-.29-.14-.17-.29-.34-.44-.51-.01-.02-.03-.03-.04-.04-.12-.14-.24-.27-.36-.41.12-.33.23-.66.32-1,.25-.87.41-1.77.51-2.68.1-.87.13-1.74.12-2.6-.02-1.56-.18-3.08-.42-4.41-.25.23-.49.46-.72.69-.38.36-.76.72-1.16,1.05-.1.09-.21.17-.32.26-.42.33-.86.65-1.36.93-.77.43-1.67.79-2.78,1.05.51-.7,1.02-1.44,1.52-2.21.03-.05.06-.09.09-.14,0,0,0,0,0,0,0,0,0,0,0-.01h0c.24-.37.47-.74.7-1.12.41-.67.8-1.36,1.18-2.06.19-.35.37-.71.55-1.07,0-.02.02-.04.03-.05.32-.64.62-1.29.89-1.94,1.65-3.88,2.5-7.96,1.58-11.63-.5-1.76-1.36-3.37-2.55-4.8,0,0-.02-.02-.02-.03-.64-.71-1.39-1.38-2.26-2.01-1.01,2.78-3.38,5.29-7.25,7.09.02-2.97-.27-7.17-1.5-11.26-.17-.55-.36-1.1-.57-1.65-.86-2.25-1.93-4.21-3.22-5.86,0,0,0-.01-.01-.02-1.78-2.2-4.14-3.98-7.25-4.97-.25,2.33-.13,6.31-2.85,8.26-.25-1.37-.59-2.68-1.14-3.95h0s0,.03,0,.05c-.49-1.1-1.14-2.21-2.04-3.31h0s-.02-.03-.04-.05l-5.54-6.39c-.16-.18-.31-.36-.46-.54-.03-.04-.06-.07-.09-.11-.03-.03-.05-.06-.08-.09-2.93-3.46-4.79-6.67-5.82-10.01l-.06-.19s-.01-.04-.02-.06c-.08-.24-.15-.49-.22-.73-6.36,4.54-5.97,9.41-6.36,14.73-.14,1.86-.56,3.64-1.95,5.45-2.11-3.46-5.01-6.79-11.28-7.88,1.62,5.52-.59,18.64-6.56,23.28-.02-.78-.38-1.68-1.02-2.56,0,0,0,0,0,0,0,0-.01.02-.02.02-.15-.22-.32-.45-.5-.66-1.59-1.8-4.29-3.37-7.47-3.46-.79,6.97-1.46,13.99-5.33,20.65l-2.55-2.68c-.56-.59-1.82-1.07-2.95-1.4l-2.39,7.07-.09.27c-.34,1.02-.67,2.03-.96,3.05-.23.81-.43,1.62-.59,2.44-.16.84-.28,1.68-.34,2.54v.16c-.06.77-.05,1.54,0,2.31.04.61.11,1.21.2,1.81.02.11.04.22.06.33.01.08.03.15.04.23.02.09.04.18.06.27,0,.03.01.05.02.08.18.82.41,1.63.71,2.43.11.29.22.58.35.88-.36.44-.71.88-1.06,1.33-.46.6-.9,1.2-1.32,1.82h0c-.05.07-.09.14-.14.2l-.03.04Z"/>
      <path class="cls-4" d="M108.47,67.52c-.06-.06-.11-.11-.17-.16.01.86-.03,1.73-.12,2.6-.1.91-.27,1.81-.51,2.68-.09.34-.2.67-.32,1,.12.14.24.27.36.41.01.02.03.03.04.04.65-2.21.81-4.51.73-6.56ZM77.12,23.89l-5.54-6.38c-.07-.08-.14-.17-.22-.25.15.18.3.36.46.54l5.54,6.39c-.08-.1-.16-.19-.24-.29ZM11.5,73.17s-.02.02-.02.03c.09.38.19.75.3,1.12-.1-.38-.2-.76-.28-1.15Z"/>
    </g>
    <polygon class="cls-4" points="37.71 51.52 89.51 51.06 82.94 113.15 45.65 110.78 37.71 51.52"/>
    <g>
      <path class="cls-4" d="M92.34,124.54c-.64,1.7-1.66,3.86-3.55,4.8-.05,2.71-.62,5.82-3.24,8.28-.88.82-1.3,1.89-1.95,3.71l-.13.36c-1,2.76-2.31,5.46-4.11,8.49-.1.18-.22.35-.33.53l.02,1.18c.03,1.5-.05,2.96-.16,4.4-.37.06-.73.12-1.1.17-.32.05-.64.09-.96.14-.92.13-1.84.24-2.76.33-2.84.29-5.71.44-8.61.44s-5.78-.15-8.63-.44c-.36-.03-.72-.07-1.08-.12-.86-.1-1.72-.21-2.57-.34-.17-.02-.34-.05-.51-.08.14-.47.27-.82.38-1.14.24-.69.38-1.07.49-3.84.05-1.65-.37-3.09-1.13-3.86-1.08-1.11-2.72-2.04-4.16-2.85-1.86-1.05-3.47-2.57-5.04-4.77-3.62-5.06-1.35-10.73.32-14.87l.05-.13,1.03-2.57c-.01-.1-.02-.2-.03-.31-.08-.89-.03-1.8.17-2.73.02-.1.05-.21.07-.32-.35-.05-.68-.12-1-.21-1.2-.35-2.17-.98-2.87-1.9-.65-.84-1.6-2.65-.69-5.3.25-.72.52-1.43.83-2.13,1.22-2.79,2.89-5.42,4.86-7.65.66-.75,1.35-1.45,2.07-2.1.19-.17.38-.35.58-.51.16-.14.33-.28.5-.41.01,0,.02-.02.03-.03.46-.37.93-.74,1.4-1.11,1.47-1.14,2.96-2.26,4.43-3.36,2.61-1.96,5.08-3.81,7.3-5.69,1.06-.9,2.21-1.54,3.41-1.92.58-.18,1.17-.3,1.77-.36.08,0,.15-.02.23-.02,2.06-.15,4.11.42,6.15,1.68.04.02.08.05.12.07.25.16.5.32.74.5.07.05.14.1.22.16.74.55,1.48,1.19,2.21,1.92.52.52,1.05,1.09,1.57,1.71.1.12.2.23.3.35,1.07,1.26,2.16,2.5,3.26,3.69,1.16,1.26,2.34,2.48,3.51,3.64,1.18,1.17,2,2.45,2.58,3.78h0c.98,2.2,1.31,4.51,1.6,6.5.26,1.76.5,3.43,1.1,4.66.97,1.97,2.77,5.64,1.29,9.58Z"/>
      <path class="cls-1" d="M88.56,115.69c-.68-1.4-.93-3.08-1.19-4.86-.04-.3-.09-.61-.14-.91h0c-.4-2.59-1.01-5.38-3.21-7.56-1.76-1.74-3.51-3.6-5.22-5.56-.48-.55-.96-1.11-1.44-1.67-1.16-1.37-2.31-2.46-3.46-3.27-.09-.06-.17-.12-.26-.17-.88-.59-1.75-1-2.62-1.25-.78-.23-1.56-.31-2.33-.26-.36.03-.71.08-1.06.17-1.02.25-2,.77-2.91,1.54-1.15.98-2.4,1.96-3.67,2.94-1.05.81-2.12,1.61-3.17,2.4-1.13.85-2.29,1.72-3.43,2.59-.65.5-1.29,1-1.92,1.51-1.02.82-1.98,1.75-2.88,2.79-1.41,1.63-2.63,3.49-3.6,5.47-.44.91-.83,1.84-1.15,2.78-.54,1.56-.1,2.6.35,3.2,1.17,1.52,3.41,1.36,4.15,1.3.23-.02.45-.04.63-.06-.78,1.5-1.17,3-1.04,4.47.07.78.34,1.42.73,1.96l-.88-.66-.94,2.34c-1.46,3.63-3.27,8.15-.5,12.02,1.3,1.81,2.59,3.04,4.08,3.88,1.44.81,3.07,1.74,4.26,2.96,1.06,1.08,1.63,2.88,1.57,4.91-.11,2.86-.28,3.33-.55,4.12-.26.72-.6,1.69-1.01,4.02.36.04.72.08,1.08.12,2.85.29,5.72.44,8.63.44s5.77-.15,8.61-.44c.92-.09,1.84-.21,2.76-.33.04-.39.08-.83.12-1.31l.06-.75c.15-1.77.3-3.6.26-5.44l-.03-1.69c.21-.28.4-.57.57-.87,1.61-2.71,2.77-5.11,3.66-7.55l.12-.34c.61-1.7,1.1-3.05,2.28-4.15,2.36-2.2,2.51-5.22,2.4-7.72.05,0,.09,0,.14,0,1.33-.1,2.38-1.27,3.28-3.68,1.09-2.91-.3-5.73-1.13-7.42ZM56.12,131.08c-.09.14-.17.27-.24.42-.05-.21-.11-.4-.19-.59.14.07.28.12.43.18Z"/>
      <path class="cls-4" d="M66.05,151.68c-2.19-.9-3.63-2.79-6.15-3.14-.06,0-.12,0-.19,0-.12,0-.23.03-.25.06-.51.48,2.27,2.77,3,3.29.65.46,1.82.82,2.7.75.43-.03.79-.16.99-.43.06-.08.1-.45-.1-.53ZM75.42,119.37c.52.22,1.04.44,1.54.64.04.02.09.02.13.02.32-.02.55-.6.56-.87,0-.02,0-.05,0-.08l-2.23.29ZM66.05,151.68c-2.19-.9-3.63-2.79-6.15-3.14-.06,0-.12,0-.19,0-.12,0-.23.03-.25.06-.51.48,2.27,2.77,3,3.29.65.46,1.82.82,2.7.75.43-.03.79-.16.99-.43.06-.08.1-.45-.1-.53ZM66.05,151.68c-2.19-.9-3.63-2.79-6.15-3.14-.06,0-.12,0-.19,0-.12,0-.23.03-.25.06-.51.48,2.27,2.77,3,3.29.65.46,1.82.82,2.7.75.43-.03.79-.16.99-.43.06-.08.1-.45-.1-.53ZM89.22,116.05c-.56-1.14-.78-2.68-1.02-4.31-.16-1.1-.34-2.31-.65-3.54h0c-.51-2.06-1.4-4.18-3.23-5.98-1.75-1.73-3.5-3.59-5.2-5.54-.45-.52-.9-1.04-1.35-1.57-1.06-1.26-2.13-2.31-3.21-3.15h0c-.27-.21-.54-.41-.81-.59-.74-.5-1.48-.9-2.23-1.2-1.31-.53-2.62-.75-3.94-.65-.26.02-.51.05-.76.09-1.53.25-2.96.94-4.26,2.04-1.08.92-2.22,1.82-3.41,2.74-1.08.83-2.2,1.67-3.34,2.53-.55.41-1.11.83-1.66,1.25-1.25.95-2.51,1.91-3.73,2.88-.4.32-.8.66-1.18,1.02-2.23,2.06-4.16,4.65-5.6,7.49-.55,1.09-1.03,2.22-1.43,3.37-.84,2.46.04,4.13.64,4.91.28.37.61.69.98.96.28.21.59.38.93.53.5.22,1.06.38,1.67.47-.23.96-.3,1.9-.22,2.82,0,.1.02.19.03.28l-.96,2.38-.05.12c-1.54,3.83-3.65,9.08-.3,13.77,1.46,2.03,2.94,3.43,4.67,4.41,1.33.76,2.85,1.61,3.85,2.64.7.72,1.09,2.05,1.05,3.58-.1,2.57-.22,2.92-.45,3.55-.23.64-.52,1.47-.86,3.12.85.13,1.71.24,2.57.34.36.04.72.08,1.08.12.74-3.41,1.14-2.13,1.33-7.01.07-2.3-.54-4.68-2.09-6.26-1.33-1.36-3-2.33-4.67-3.27-1.44-.82-2.56-2.05-3.49-3.36-2.21-3.08-.65-6.86.77-10.39,1.44,1.08,2.78.69,2.55,1.93-.45,2.42,2.59,3.6,1.75,5.59-1.62,3.85,3.61,5.18,6.3,5.32.13,0,.26,0,.39,0,.37-.03.75-.1,1.11-.13.27-.02.54-.01.78.07-.85,1-2.05,1.97-2.04,2.97,0,1.24,1.56,4.63,2.23,4.59.04,0,.07-.02.11-.04.26-.22-.16-1.24-.27-1.94-.24-1.65-.03-2.67.78-4.14.76-1.38,2.36-2.68,4.02-3.1,2.27-.94,4.04-.55,4.45-.58.16-.01.29-.07.35-.19.1-.21.14-.59-.19-.77-2.22-1.21-2.29-1.1-8.16.47-.78.33-1.68.55-2.57.61-1.12.08-2.23-.09-3.08-.59-1.4-.85-1.36-2.65-.16-3.95,1.87-2.02,5.13-4.93,7.88-5.13.05,0,.1,0,.16,0,2.43-.08,4.61.53,6.88,1.25.87.28,1.77.31,2.67.35h.02c.3-.02.51-.95.18-1.11-2.82-1.39-5.87-2.63-9.14-2.86-.28-.02-.55-.02-.83,0-3.32.24-6.42,3.24-9.02,5.33-2.16-.63-1.26-3.27-.12-4.65,1.26-1.54,2.59-3.04,3.97-4.49h0c1.29-1.37,2.62-2.7,3.99-3.99.76-.72,1.66-1.02,2.43-1.08.29-.02.55,0,.79.04,2.84.51,5.79,1.84,8.51,2.99.52.22,1.04.44,1.54.64.04.02.09.02.13.02.32-.02.55-.6.56-.87,0-.02,0-.05,0-.08h0c-.03-.33-.36-.74-.69-.97-2.98-2.03-6.11-3.77-9.79-4.56-.28-.03-.56-.04-.83-.02-2.03.15-3.95,1.59-5.32,2.96-1.31,1.32-2.5,3.03-3.95,4.36-.37.34-.73.69-1.09,1.04-1.07,1.07-2.09,2.2-3.12,3.31-1.23-.67-2.85-1.45-2.98-2.93-.17-1.87.89-3.94,2.51-5.98,2.97-3.73,7.81-7.34,10.39-9.38,1.4-1.1,2.97-2.06,4.63-2.18.63-.05,1.28.03,1.94.26,2.11.8,4.04,1.89,5.92,3.08,1.32.86,2.81,1.48,4.26,2.12.03.02.06.02.09.02.3-.02.31-.94.04-1.23-1.48-1.51-3.01-2.97-4.7-4.25-2.33-1.85-4.82-2.96-7.44-2.78-1.77.13-3.61.85-5.5,2.36-1.84,1.66-3.71,3.29-5.6,4.89-1.61,1.38-3.15,2.79-4.65,4.26-.87.85-1.73,1.73-2.57,2.62-.21.02-.52.06-.87.09-1.37.1-3.34-.02-2.64-2.08.56-1.62,1.34-3.26,2.32-4.81.65-1.04,1.38-2.03,2.19-2.95.78-.89,1.63-1.72,2.53-2.44.45-.36.92-.73,1.38-1.09,2.84-2.21,5.86-4.38,8.62-6.56.76-.6,1.51-1.21,2.23-1.82.97-.82,1.95-1.21,2.91-1.27,2.86-.21,5.52,2.39,7.12,4.3.08.09.16.19.24.28,2.08,2.45,4.26,4.82,6.54,7.07,3.4,3.36,2.22,8.67,4.12,12.71h0s.04.09.06.13c.85,1.73,1.84,3.88,1.06,5.96-.23.63-.97,2.44-1.7,2.5-.07,0-.15,0-.22-.04-.52-.25-.7-1.09-1.28-1.26-.03,0-.06-.01-.1,0-.18.01-.38.19-.38.46.04,2.84.89,6.66-1.68,9.07-1.59,1.49-2.17,3.27-2.87,5.2-.92,2.55-2.11,4.89-3.51,7.24-1.08,1.82-2.85,3.3-4.84,4.09.21.55.61.72,1.09.69.95-.07,2.21-.91,2.95-1.24.04,1.99-.16,4-.32,6.01-.02.22-.03.42-.05.62.92-.09,1.84-.21,2.76-.33.32-.04.64-.09.96-.14.02-.2.03-.41.05-.61.15-1.82.31-3.69.27-5.62l-.02-1.09c.11-.16.21-.33.31-.49,1.67-2.81,2.88-5.31,3.8-7.86l.12-.34c.61-1.68.99-2.67,1.8-3.43,2.43-2.27,2.96-5.16,3.01-7.66,1.75-.87,2.7-2.87,3.29-4.44,1.37-3.64-.3-7.04-1.2-8.87Z"/>
    </g>
  </g>
</svg>