<svg width="309" height="68" viewBox="0 0 309 68" fill="none" xmlns="http://www.w3.org/2000/svg">
<path d="M1.58717e-06 13.5705L16.9687 4.81914L19.963 7.50894L13 25.2486L9.96849 22.5254L11.6206 18.6661L6.65494 14.2054L2.95707 16.2269L1.58717e-06 13.5705ZM15.4789 9.39551L9.37215 12.7144L12.8128 15.8052L15.5161 9.42892L15.4789 9.39551ZM28.8158 26.0523L25.9672 24.062C26.6132 22.7446 26.2988 21.5795 25.0897 20.7347C23.2248 19.4317 21.2927 20.8875 20.2045 22.445C19.1449 23.9615 18.4649 26.2007 20.2888 27.475C21.6414 28.4201 23.0215 28.1034 24.108 26.9412L26.9156 28.9029C24.5851 31.4527 21.5643 31.6295 18.7772 29.6822C15.5802 27.4485 15.0035 23.6907 17.2228 20.5143C19.5281 17.2148 23.1994 16.1507 26.6423 18.5562C29.1425 20.3031 30.5214 23.2183 28.8158 26.0523ZM28.6149 28.1858C30.6456 24.5953 34.2597 23.5374 37.7849 25.5312C41.3319 27.5373 42.2876 31.1797 40.2569 34.7702C38.2385 38.339 34.6244 39.3969 31.0774 37.3908C27.5522 35.397 26.5965 31.7546 28.6149 28.1858ZM31.7049 29.9334C30.6957 31.7178 30.3053 33.8809 32.3943 35.0624C34.5051 36.2562 36.1577 34.807 37.1669 33.0226C38.1884 31.2164 38.5788 29.0534 36.468 27.8596C34.379 26.6781 32.7264 28.1273 31.7049 29.9334ZM39.2381 41.4362L44.4348 29.602L47.5021 30.9489L46.7985 32.5512L46.8442 32.5713C48.2239 31.73 49.7716 31.5632 51.3052 32.2367C52.7931 32.89 53.8795 34.0224 53.8972 35.723C55.0363 34.9945 56.6845 34.5988 58.3326 35.3225C60.8505 36.4282 62.1462 38.3896 60.7993 41.4569L57.3215 49.377L54.071 47.9497L57.0161 41.2428C57.7097 39.6634 58.1453 38.2983 56.2912 37.4841C54.46 36.68 53.4532 38.04 52.7998 39.5279L49.905 46.1203L46.6546 44.693L49.5695 38.0548C50.1726 36.6813 50.9577 35.1421 48.8976 34.2375C48.2567 33.956 46.5192 33.6846 45.504 35.9965L42.4885 42.8636L39.2381 41.4362ZM58.465 54.6996L64.0569 38.1434L67.2544 39.2234L66.7264 40.7867L66.7738 40.8027C68.0191 39.7719 69.5455 39.6278 71.0614 40.1398C74.8984 41.4358 75.5795 45.1225 74.4035 48.6043C73.2995 51.8729 70.4675 54.3204 66.891 53.1124C65.4224 52.6164 64.241 51.5049 63.8437 50.0249L63.7963 50.0089L61.8284 55.8356L58.465 54.6996ZM66.8469 50.274C69.0496 51.018 70.4002 49.3632 71.0722 47.3736C71.7282 45.4314 71.6265 43.1541 69.4711 42.4261C67.2684 41.6822 65.8938 43.4081 65.2219 45.3976C64.5499 47.3872 64.6678 49.5381 66.8469 50.274ZM83.4994 52.4837L83.8466 51.205C83.13 51.5544 81.9171 51.251 80.8031 51.1558C79.6826 51.0848 78.6193 51.1846 78.2787 52.4392C77.9315 53.7179 78.8355 54.3001 79.9454 54.6015C82.6234 55.3286 83.2964 53.2316 83.4994 52.4837ZM80.0468 47.4533L76.6209 46.5232C77.6851 43.3667 80.8182 43.1812 83.6168 43.941C86.1019 44.6157 88.9429 45.9829 88.1307 48.9746L86.3686 55.4646C86.0608 56.5986 85.8735 57.7653 86.0496 58.3571L82.5754 57.4138C82.5595 56.995 82.5744 56.5587 82.6616 56.142C81.2681 56.9812 79.5644 56.959 78.0444 56.5463C75.68 55.9044 74.1191 54.2113 74.8134 51.6538C75.5798 48.831 77.8864 48.7319 80.0881 49.0188C82.2723 49.2751 84.2069 49.878 84.5868 48.4787C84.9864 47.007 84.032 46.5147 82.8257 46.1872C81.5228 45.8335 80.5343 46.135 80.0468 47.4533ZM88.2901 58.8857L90.9609 46.2397L94.263 46.9371L93.8911 48.6982L93.9645 48.7137C95.1446 47.481 96.8058 47.1164 98.2735 47.4263C101.967 48.2064 102.457 50.4818 101.796 53.6127L100.153 61.3912L96.68 60.6576L98.1885 53.5152C98.6276 51.436 98.233 50.2795 96.6186 49.9386C94.7352 49.5408 93.7058 50.4221 93.1634 52.9905L91.7635 59.6193L88.2901 58.8857ZM102.801 61.8741L105.519 44.2322L109.027 44.7726L108.004 51.4192L108.078 51.4306C109.188 50.1345 110.826 49.6787 112.136 49.8804C115.867 50.455 116.482 52.6999 115.995 55.8626L114.785 63.7199L111.276 63.1795L112.388 55.9646C112.711 53.8644 112.253 52.7315 110.623 52.4803C108.72 52.1872 107.741 53.1241 107.341 55.7185L106.31 62.4145L102.801 61.8741ZM130.218 59.763L120.944 58.7972C120.81 61.0454 121.798 62.1788 123.762 62.3834C125.18 62.531 126.414 61.7798 126.721 61.0074L129.829 61.3311C128.518 64.2611 126.27 65.334 123.361 65.0311C119.308 64.609 117.086 61.5625 117.501 57.5841C117.902 53.7299 120.868 51.0728 124.772 51.4793C129.148 51.9351 130.879 55.8353 130.218 59.763ZM121.177 56.5593L126.921 57.1574C126.784 55.3334 126.111 54.3083 124.396 54.1296C122.158 53.8966 121.33 55.5698 121.177 56.5593ZM138.19 61.7259L141.563 61.8362C141.537 63.3862 142.816 64.0533 144.215 64.099C145.24 64.1325 146.552 63.7752 146.593 62.5258C146.628 61.4514 145.166 61.0284 142.636 60.3954C140.601 59.8787 138.576 59.0871 138.65 56.8133C138.758 53.5151 141.634 52.7587 144.408 52.8493C147.231 52.9416 149.799 53.976 149.97 57.1583L146.597 57.048C146.542 55.6705 145.505 55.2614 144.23 55.2198C143.431 55.1936 142.252 55.3052 142.217 56.3546C142.176 57.6289 144.169 57.8692 146.177 58.4101C148.236 58.9526 150.235 59.7683 150.157 62.1671C150.046 65.5652 147.061 66.5683 144.113 66.4719C141.114 66.3739 138.228 65.154 138.19 61.7259ZM164.087 53.2737L164.221 66.198L160.847 66.2332L160.828 64.4333L160.753 64.4341C159.868 65.8934 158.325 66.6095 156.825 66.6252C153.051 66.6646 152.079 64.5496 152.045 61.3498L151.962 53.4002L155.512 53.3632L155.588 60.6628C155.61 62.7877 156.246 63.8311 157.896 63.8139C159.821 63.7938 160.635 62.7102 160.607 60.0854L160.537 53.3108L164.087 53.2737ZM174.654 60.6418L174.577 59.3191C174.008 59.8783 172.762 59.9765 171.676 60.2407C170.591 60.5297 169.614 60.9627 169.691 62.2605C169.768 63.5832 170.81 63.8476 171.958 63.7802C174.729 63.6176 174.7 61.4155 174.654 60.6418ZM169.781 56.9711L166.237 57.1791C166.242 53.8481 169.153 52.6755 172.048 52.5055C174.619 52.3547 177.747 52.747 177.929 55.8417L178.323 62.5551C178.391 63.7281 178.585 64.8938 178.94 65.3988L175.346 65.6098C175.198 65.2178 175.074 64.7994 175.024 64.3766C173.969 65.6155 172.347 66.1364 170.775 66.2287C168.329 66.3723 166.311 65.2637 166.155 62.6182C165.984 59.6982 168.139 58.8705 170.318 58.4421C172.47 57.9902 174.496 57.9464 174.411 56.4989C174.322 54.9766 173.26 54.8135 172.012 54.8867C170.665 54.9658 169.823 55.5662 169.781 56.9711ZM180.17 61.0898L183.526 60.7332C183.714 62.2719 185.073 62.756 186.465 62.6081C187.485 62.4998 188.735 61.9647 188.603 60.7217C188.489 59.6527 186.983 59.4356 184.389 59.1582C182.303 58.9273 180.188 58.423 179.948 56.1607C179.599 52.8792 182.343 51.7328 185.103 51.4396C187.912 51.1411 190.598 51.811 191.207 54.9392L187.85 55.2958C187.606 53.9391 186.522 53.6771 185.254 53.8118C184.459 53.8964 183.306 54.1697 183.417 55.2138C183.552 56.4817 185.559 56.4444 187.623 56.7027C189.736 56.9558 191.829 57.4876 192.083 59.8742C192.442 63.2552 189.625 64.6607 186.691 64.9724C183.708 65.2894 180.681 64.4798 180.17 61.0898ZM208.5 56.3784L208.266 55.0744C207.768 55.6973 206.542 55.9432 205.495 56.3348C204.452 56.751 203.534 57.2972 203.765 58.5766C203.999 59.8807 205.066 60.0191 206.197 59.8155C208.929 59.3241 208.637 57.1412 208.5 56.3784ZM203.224 53.3142L199.73 53.9427C199.339 50.6348 202.09 49.1239 204.944 48.6104C207.478 48.1545 210.631 48.1715 211.18 51.2226L212.37 57.8413C212.578 58.9977 212.91 60.132 213.322 60.5912L209.779 61.2286C209.585 60.8571 209.412 60.4565 209.312 60.0426C208.413 61.3983 206.864 62.1087 205.314 62.3875C202.903 62.8213 200.767 61.961 200.297 59.3528C199.779 56.474 201.821 55.3956 203.933 54.7108C206.016 54.0058 208.022 53.7211 207.765 52.294C207.495 50.7931 206.422 50.7576 205.192 50.9789C203.863 51.2179 203.1 51.9141 203.224 53.3142ZM216.302 42.7504L217.148 46.532L219.686 45.9644L220.204 48.2821L217.667 48.8497L219.064 55.0953C219.326 56.2664 219.684 56.4937 220.855 56.2317C221.221 56.1498 221.557 56.049 221.907 55.894L222.513 58.602C221.949 58.8306 221.198 59.0242 220.515 59.177C218.393 59.6518 216.429 59.5787 215.867 57.0658L214.202 49.6247L212.104 50.0941L211.586 47.7763L213.684 47.307L212.838 43.5254L216.302 42.7504ZM224.242 58.141L221.008 45.6269L224.445 44.7389L227.679 57.2529L224.242 58.141ZM223.213 39.9705L223.945 42.8025L220.508 43.6905L219.776 40.8585L223.213 39.9705ZM237.726 40.8279L237.224 54.464L233.438 55.5921L225.507 44.469L229.076 43.4052L234.208 51.0845L234.256 51.0702L234.347 41.8345L237.726 40.8279ZM242.895 52.7148L238.721 40.4822L242.081 39.3359L246.255 51.5684L242.895 52.7148ZM240.491 34.6747L241.435 37.443L238.075 38.5894L237.131 35.8211L240.491 34.6747ZM257.443 47.1808L256.831 45.6484L256.785 45.6669C256.538 47.273 255.414 48.3679 253.881 48.9797C250.259 50.4258 247.253 48.0191 245.927 44.699C244.639 41.4717 245.23 37.7628 248.76 36.3538C250.176 35.7883 251.81 35.8358 253.026 36.7233L253.072 36.7047L250.662 30.6681L253.959 29.3518L260.578 45.9294L257.443 47.1808ZM254.987 41.1627C254.208 39.2124 252.77 37.633 250.634 38.4859C248.475 39.3479 248.473 41.502 249.261 43.4755C250.012 45.3562 251.659 46.9867 253.702 46.171C255.885 45.2996 255.775 43.1362 254.987 41.1627ZM268.071 36.8235L267.49 35.6325C267.181 36.3673 266.068 36.9374 265.167 37.5992C264.277 38.2834 263.542 39.0586 264.112 40.2272C264.693 41.4182 265.756 41.2613 266.79 40.7574C269.285 39.5416 268.41 37.5202 268.071 36.8235ZM262.16 35.3102L258.969 36.8656C257.692 33.7891 259.928 31.5867 262.535 30.3161C264.85 29.1879 267.888 28.3465 269.247 31.1331L272.193 37.1783C272.708 38.2345 273.335 39.236 273.857 39.5655L270.621 41.1428C270.334 40.838 270.057 40.4998 269.849 40.1287C269.352 41.6778 268.055 42.7828 266.64 43.4729C264.437 44.5463 262.148 44.2995 260.987 41.9174C259.705 39.2881 261.376 37.695 263.222 36.4614C265.035 35.2163 266.888 34.3965 266.253 33.093C265.585 31.7222 264.542 31.98 263.418 32.5277C262.205 33.1192 261.659 33.9969 262.16 35.3102ZM283.789 33.7234L282.943 32.3071L282.9 32.3327C282.91 33.9577 281.973 35.2166 280.557 36.0631C277.209 38.064 273.86 36.1633 272.026 33.0947C270.243 30.1119 270.24 26.356 273.502 24.4065C274.811 23.6241 276.432 23.4124 277.773 24.0964L277.816 24.0707L274.481 18.4914L277.528 16.6701L286.686 31.9918L283.789 33.7234ZM280.412 28.1697C279.334 26.3671 277.664 25.0352 275.69 26.2152C273.694 27.408 274.034 29.5352 275.124 31.3592C276.163 33.0974 278.047 34.4468 279.936 33.3181C281.953 32.1125 281.502 29.9937 280.412 28.1697ZM295.456 18.7388L287.947 24.2673C289.362 26.02 290.855 26.1932 292.446 25.0223C293.593 24.1775 294 22.791 293.707 22.0134L296.224 20.1607C297.227 23.2097 296.286 25.5164 293.931 27.2506C290.649 29.6665 286.956 28.9087 284.584 25.6875C282.287 22.567 282.692 18.6055 285.853 16.2784C289.396 13.6698 293.301 15.3895 295.456 18.7388ZM286.613 22.4554L291.264 19.0316C289.935 17.7747 288.747 17.4692 287.358 18.4919C285.546 19.8258 286.06 21.6205 286.613 22.4554ZM297.056 19.2312L299.533 16.9381C300.604 18.0584 301.983 17.6337 303.01 16.6825C303.762 15.986 304.444 14.8092 303.595 13.8921C302.864 13.1033 301.527 13.8304 299.283 15.1594C297.473 16.2221 295.476 17.083 293.93 15.4138C291.688 12.9925 293.202 10.4324 295.238 8.54698C297.311 6.62753 299.864 5.558 302.223 7.70072L299.746 9.99386C298.739 9.05294 297.714 9.49122 296.778 10.3575C296.191 10.9011 295.431 11.8095 296.144 12.5799C297.011 13.5154 298.597 12.2849 300.405 11.2575C302.251 10.1962 304.246 9.3706 305.877 11.1315C308.187 13.6262 306.77 16.4377 304.605 18.442C302.404 20.4804 299.494 21.6423 297.056 19.2312Z" fill="#F4F4F4"/>
</svg>
