<?xml version="1.0" encoding="UTF-8"?>
<svg id="Layer_2" data-name="Layer 2" xmlns="http://www.w3.org/2000/svg" xmlns:xlink="http://www.w3.org/1999/xlink" viewBox="0 0 1494.97 919.43">
  <defs>
    <style>
      .cls-1 {
        fill: #f41111;
      }

      .cls-2 {
        fill: none;
      }

      .cls-3 {
        fill: #00c;
      }

      .cls-4 {
        clip-path: url(#clippath);
      }
    </style>
    <clipPath id="clippath">
      <rect class="cls-2" x="185.2" y=".33" width="1125" height="468.94"/>
    </clipPath>
  </defs>
  <g id="Layer_1-2" data-name="Layer 1">
    <g class="cls-4">
      <g>
        <path class="cls-3" d="M5,914.43v-358.87c0-3.87.05-7.46.15-10.95,1.93-73.34,22.99-144.33,62.6-210.98,38.24-64.34,92.12-122.02,160.14-171.42,67.97-49.37,146.78-88.1,234.24-115.1,90.48-27.94,186.49-42.11,285.36-42.11s194.88,14.17,285.36,42.11c87.46,27.01,166.27,65.73,234.24,115.1,68.02,49.41,121.9,107.08,160.14,171.42,39.61,66.65,60.68,137.64,62.6,210.99.1,3.48.15,7.06.15,10.94v358.87H5Z"/>
        <path class="cls-1" d="M747.49,10c402.42,0,729.56,238.44,737.34,534.75.1,3.59.14,7.19.14,10.81v353.87H10v-353.87c0-3.61.04-7.22.14-10.81C17.92,248.44,345.07,10,747.49,10M747.49,0c-99.37,0-195.87,14.24-286.84,42.33-43.78,13.52-86.06,30.26-125.67,49.77-39.27,19.34-76.29,41.57-110.03,66.07-33.77,24.53-64.56,51.56-91.49,80.34-27.23,29.09-50.79,60.24-70.01,92.58C23.39,398.47,2.1,470.27.15,544.49c-.1,3.53-.15,7.16-.15,11.07v363.87h1494.97v-363.87c0-3.91-.05-7.54-.15-11.09-1.95-74.19-23.25-146-63.3-213.39-19.22-32.34-42.77-63.49-70.01-92.58-26.94-28.77-57.72-55.8-91.49-80.34-33.74-24.5-70.75-46.73-110.03-66.07-39.62-19.5-81.9-36.25-125.67-49.77C943.36,14.24,846.86,0,747.49,0h0Z"/>
      </g>
    </g>
  </g>
</svg>