<svg width="361" height="58" viewBox="0 0 361 58" fill="none" xmlns="http://www.w3.org/2000/svg">
<g filter="url(#filter0_d_542_245)">
<rect width="361" height="58" rx="29" fill="#F4F4F4" shape-rendering="crispEdges"/>
<rect x="-1" y="-1" width="363" height="60" rx="30" stroke="#0000CC" stroke-width="2" shape-rendering="crispEdges"/>
<g clip-path="url(#clip0_542_245)">
<path d="M17.3895 27.5124C17.3578 27.4078 17.329 27.3004 17.3031 27.1958C17.3031 27.1958 17.306 27.1901 17.3089 27.1873C17.3319 27.2975 17.3578 27.405 17.3895 27.5124Z" fill="#FFCE00"/>
<path d="M45.0266 27.4446C45.0266 27.4446 45.018 27.4361 45.0151 27.4333C44.9806 27.3937 44.946 27.3569 44.9114 27.3173C44.946 27.224 44.9777 27.1307 45.0036 27.0346C45.0756 26.7886 45.1217 26.5342 45.1505 26.2769C45.1793 26.0309 45.1879 25.7849 45.185 25.5418C45.2023 25.5588 45.2167 25.5729 45.234 25.587C45.257 26.1666 45.2109 26.8169 45.0238 27.4417L45.0266 27.4446Z" fill="#FFCE00"/>
<path d="M45.2369 25.5899C45.2196 25.5729 45.2052 25.5588 45.1879 25.5446C45.1908 25.7878 45.1793 26.0337 45.1534 26.2797C45.1246 26.537 45.0756 26.7915 45.0065 27.0374C44.9806 27.1336 44.9489 27.2269 44.9143 27.3202C44.9489 27.3597 44.9834 27.3965 45.018 27.4361C45.0209 27.4417 45.0266 27.4446 45.0295 27.4474C45.2167 26.8226 45.2628 26.1723 45.2397 25.5927L45.2369 25.5899ZM17.3117 27.1873C17.3117 27.1873 17.306 27.1929 17.306 27.1958C17.3319 27.3032 17.3607 27.4078 17.3924 27.5124C17.3636 27.405 17.3348 27.2975 17.3117 27.1873Z" fill="#040468"/>
<path d="M49.9971 36.3336C49.9971 36.3081 49.9971 36.2827 49.9971 36.2572C49.9914 35.7794 49.9597 35.3044 49.9078 34.8379C49.905 34.8097 49.9021 34.7814 49.8963 34.7531C49.8762 34.5863 49.856 34.4223 49.8301 34.2583C49.8243 34.2159 49.8186 34.1763 49.8099 34.1339C49.712 33.5261 49.5738 32.9295 49.401 32.3471C49.2426 31.8155 49.0554 31.2953 48.8423 30.7892C48.7387 30.5461 48.6292 30.3058 48.514 30.0683C48.4132 29.8647 48.3096 29.6612 48.2001 29.4604C48.1598 29.3841 48.1166 29.3077 48.0734 29.2342C48.0216 29.1438 47.9698 29.0533 47.915 28.9628C47.8143 28.7932 47.7077 28.6235 47.5983 28.4539C47.2009 27.8404 46.7603 27.2523 46.2765 26.6953C46.2534 26.6699 46.2304 26.6416 46.2073 26.6162C46.2736 26.1921 46.288 25.7736 46.2765 25.3835C46.2621 24.9085 46.2045 24.4787 46.1411 24.1338L45.8992 22.8135C46.0346 22.4403 46.144 22.0586 46.216 21.6741C46.5932 19.7091 45.9654 18.0834 44.396 16.9779L43.1807 16.1213L42.6911 17.4501C42.6595 17.5349 42.622 17.6169 42.576 17.6989C42.4752 17.0712 42.3139 16.3899 42.0547 15.7226C41.7322 14.8914 41.2973 14.1761 40.7588 13.5993C40.1051 12.8982 39.3045 12.3977 38.3744 12.1093L37.0698 11.7022L36.9777 12.5476L35.5263 10.9049C34.6191 9.87861 34.0691 8.94561 33.7955 7.96736L33.3837 6.5L32.0706 7.4217C31.1548 8.06349 30.55 8.80141 30.216 9.67505C29.9453 10.3904 29.8906 11.0915 29.8474 11.7701C29.2225 11.2923 28.4046 10.8964 27.293 10.707L25.5796 10.4158L26.0374 11.951C26.1901 12.4599 26.2102 13.588 25.8992 14.8546C25.7523 15.4512 25.5536 15.994 25.3175 16.4436C25.2714 16.4012 25.2225 16.3616 25.1735 16.3192C24.4593 15.7424 23.5608 15.4116 22.6451 15.3833L21.6314 15.3551L21.5248 16.2768L21.4989 16.503C21.3405 17.8827 21.1879 19.2058 20.7185 20.4696C20.4795 20.3368 20.1829 20.2208 19.82 20.1162L18.7775 19.8194L18.4492 20.7722L17.761 22.771C17.6285 23.1556 17.5018 23.5372 17.3981 23.9246C17.2829 24.3487 17.1937 24.7813 17.1533 25.2308C17.1476 25.2873 17.1447 25.3467 17.1418 25.4061C17.1274 25.6323 17.1274 25.8585 17.1389 26.0818C17.1562 26.4578 17.2109 26.8282 17.2973 27.1901C17.2973 27.1901 17.3002 27.1845 17.3031 27.1816C17.3261 27.2919 17.3521 27.3993 17.3837 27.5068C17.3521 27.4022 17.3233 27.2947 17.2973 27.1901C17.257 27.2382 17.2196 27.2891 17.1821 27.3371C17.1677 27.3569 17.1533 27.3739 17.1389 27.3937C16.9633 27.6199 16.7963 27.8517 16.635 28.0864C16.5284 28.2419 16.4219 28.4002 16.3211 28.5613C16.2952 28.6009 16.2693 28.6405 16.2462 28.6829C16.2059 28.7479 16.1656 28.813 16.1253 28.8808C16.0446 29.0165 15.964 29.1551 15.8862 29.2936C15.365 30.221 14.9417 31.1992 14.6307 32.217C14.6163 32.2594 14.6048 32.3047 14.5904 32.3471C14.2016 33.6589 13.9942 35.0387 13.9942 36.4608C13.9942 36.523 13.9942 36.5852 13.9942 36.6446H14C14.0086 37.2468 14.0518 37.8377 14.1325 38.4201C14.1555 38.5841 14.1785 38.7452 14.2073 38.9064C14.2621 39.223 14.3254 39.534 14.4003 39.8422C14.55 40.4699 14.743 41.0834 14.9734 41.68C17.0727 47.1168 22.3571 51.2334 28.8423 52.254C28.8682 52.2597 28.8913 52.2625 28.9172 52.2653C29.1879 52.3077 29.4586 52.3445 29.7322 52.3728C29.8963 52.3897 30.0634 52.4067 30.2304 52.4208C30.8121 52.4717 31.4024 52.4972 32.0014 52.4972C32.5515 52.4972 33.0986 52.4746 33.6371 52.4321C33.8387 52.4152 34.0374 52.3982 34.2361 52.3756C34.3168 52.3671 34.4003 52.3558 34.4809 52.3473C34.5932 52.3332 34.7084 52.3191 34.8207 52.3021C42.8063 51.1825 49.0468 45.3865 49.9021 38.1572C49.9597 37.6624 49.9942 37.1591 50 36.6502C50 36.5852 50 36.523 50 36.458V36.4269C50 36.3958 50 36.3647 50 36.3336H49.9971ZM48.5256 37.2213C48.5198 37.3372 48.5112 37.4532 48.4996 37.5691C48.4507 38.1713 48.3556 38.7679 48.2232 39.3559C48.0101 40.2946 47.6904 41.2135 47.27 42.1012C46.4464 43.84 45.2628 45.4035 43.7509 46.7465C42.2304 48.1007 40.4593 49.1638 38.4838 49.9102C37.3492 50.3371 36.1742 50.6481 34.9734 50.8404C34.8927 50.8545 34.8121 50.8658 34.7286 50.8771C34.6566 50.8884 34.5875 50.8969 34.5155 50.9082C34.3139 50.9365 34.1094 50.9591 33.905 50.9817C33.2772 51.0468 32.6407 51.0779 31.9986 51.0779C31.3564 51.0779 30.7171 51.0468 30.0864 50.9817C30.0058 50.9733 29.928 50.9648 29.8474 50.9563C29.6573 50.9337 29.4672 50.9111 29.2772 50.8828C29.2397 50.8771 29.2023 50.8715 29.1649 50.8658C27.9122 50.6764 26.6883 50.3569 25.5104 49.913C23.5349 49.1695 21.7639 48.1036 20.2433 46.7493C18.7343 45.4035 17.5508 43.84 16.7243 42.1041C16.4622 41.5527 16.2405 40.9901 16.059 40.419C15.869 39.8224 15.7221 39.2174 15.6213 38.601C15.5724 38.3042 15.532 38.0045 15.5032 37.702C15.4629 37.2892 15.4456 36.8764 15.4456 36.458C15.4456 36.4382 15.4456 36.4212 15.4456 36.4014C15.4456 36.0141 15.4658 35.6296 15.5004 35.2507C15.5032 35.2111 15.509 35.1715 15.5119 35.132C15.5925 34.3516 15.7394 33.5826 15.9582 32.8305C16.0475 32.5195 16.1512 32.2114 16.2635 31.906C16.3988 31.5385 16.5515 31.1766 16.7214 30.8203C16.9086 30.4245 17.1159 30.0372 17.3434 29.6583C17.4096 29.5452 17.4788 29.435 17.5508 29.3247C17.5508 29.3247 17.5508 29.3191 17.5565 29.3162C17.6717 29.1353 17.7898 28.9543 17.9165 28.779C17.9165 28.7762 17.9222 28.7706 17.9251 28.7677C17.9395 28.7479 17.951 28.731 17.9654 28.7112C18.0893 28.5359 18.216 28.3663 18.3456 28.1966C18.4435 28.0694 18.5472 27.945 18.6508 27.8206C18.6163 27.7386 18.5817 27.6566 18.55 27.5718C18.4636 27.3456 18.3974 27.1166 18.3456 26.8848C18.3456 26.8763 18.3427 26.8706 18.3398 26.8621C18.3341 26.8367 18.3283 26.8112 18.3225 26.7858C18.3168 26.7632 18.3139 26.7434 18.311 26.7208C18.3053 26.6897 18.2995 26.6586 18.2937 26.6275C18.2649 26.4578 18.2448 26.2882 18.2361 26.1157C18.2217 25.9009 18.2217 25.6832 18.2361 25.4626V25.4174C18.2563 25.1742 18.288 24.9368 18.3369 24.6993C18.383 24.4674 18.4406 24.2384 18.5068 24.0094C18.5904 23.7238 18.6854 23.4383 18.7833 23.1471C18.7919 23.1216 18.8006 23.0962 18.8092 23.0707L19.4975 21.0718C19.82 21.1652 20.1857 21.3009 20.347 21.4677L21.0814 22.2254C22.1958 20.3424 22.3888 18.3577 22.6163 16.387C23.5292 16.4125 24.3096 16.8592 24.7675 17.3653L24.7732 17.3709C24.8251 17.4275 24.8711 17.4868 24.9143 17.5462C25.0986 17.795 25.2023 18.0495 25.2081 18.27C26.9273 16.9581 27.5608 13.2487 27.0972 11.6881C28.9028 11.9963 29.7379 12.9377 30.3456 13.916C30.7459 13.4071 30.8668 12.901 30.9071 12.3751C31.0223 10.871 30.9071 9.4941 32.7387 8.21051C32.7588 8.28119 32.779 8.34905 32.802 8.4169C32.802 8.42256 32.8049 8.42821 32.8078 8.43387L32.8251 8.48758C33.1562 9.49975 33.7351 10.4186 34.5011 11.3177C34.5097 11.3262 34.5155 11.3347 34.5241 11.3431C34.5328 11.3545 34.5414 11.3629 34.55 11.3742C34.5702 11.3969 34.5904 11.4223 34.6134 11.4449L36.2088 13.2487C36.2318 13.277 36.2549 13.3025 36.2779 13.3307C36.2808 13.3364 36.2865 13.3392 36.2894 13.342C36.5515 13.6417 36.7415 13.9471 36.8798 14.2637C37.0382 14.6228 37.1332 14.9932 37.2081 15.3805C37.9942 14.8292 37.9597 13.7011 38.0288 13.0452C38.9244 13.3251 39.604 13.8283 40.1166 14.4503C40.1166 14.4503 40.1166 14.4532 40.1195 14.456C40.6263 15.0723 40.9719 15.8046 41.2052 16.5538C41.2081 16.5623 41.2109 16.5708 41.2138 16.5793C41.568 17.7356 41.6515 18.9231 41.6458 19.7628C42.7603 19.2567 43.4428 18.5471 43.7336 17.7583C43.987 17.9364 44.203 18.1258 44.3844 18.3266C44.3844 18.3266 44.3902 18.3322 44.3902 18.335C44.3902 18.335 44.3931 18.3379 44.396 18.3407C44.7675 18.7506 44.9978 19.203 45.1245 19.6808C45.1245 19.6837 45.1245 19.6865 45.1245 19.6921C45.3895 20.7297 45.1447 21.8833 44.6695 22.9803C44.5889 23.164 44.5025 23.3478 44.4132 23.5288C44.4132 23.5344 44.4075 23.5401 44.4046 23.5429C44.3528 23.6447 44.3009 23.7436 44.2462 23.8454C44.1397 24.0433 44.0245 24.2384 43.9064 24.4278C43.8402 24.5353 43.7711 24.6399 43.7048 24.7445V24.7473C43.6962 24.7615 43.6875 24.7728 43.6789 24.7869C43.5349 25.0046 43.388 25.2138 43.2412 25.4117C43.5608 25.3411 43.82 25.2393 44.0418 25.1149C44.1857 25.0357 44.3153 24.9481 44.4334 24.8519C44.4651 24.8265 44.4939 24.8039 44.5256 24.7784C44.6407 24.6823 44.7502 24.5833 44.8596 24.4816C44.9287 24.4165 44.9978 24.3515 45.067 24.2865C45.1361 24.6653 45.185 25.0923 45.1879 25.5333C45.2052 25.5503 45.2196 25.5644 45.2369 25.5786C45.2599 26.1581 45.2138 26.8084 45.0266 27.4333C45.0698 27.4813 45.1101 27.5294 45.1533 27.5774C45.1764 27.6057 45.1994 27.6312 45.2253 27.6594C45.3808 27.8432 45.5335 28.0298 45.6803 28.2164C45.8042 28.3747 45.9222 28.5331 46.0346 28.6971C46.0346 28.6971 46.0346 28.697 46.0374 28.6999C46.0374 28.6999 46.0403 28.7027 46.0403 28.7055C46.1641 28.878 46.2793 29.0505 46.3945 29.2286C46.4377 29.2964 46.4809 29.3643 46.5241 29.4321C46.7516 29.7969 46.959 30.1701 47.149 30.5518C47.1922 30.6366 47.2325 30.7186 47.2729 30.8062C47.3017 30.8684 47.3304 30.9278 47.3592 30.99C47.4226 31.1313 47.486 31.2699 47.5436 31.4141C47.6674 31.7081 47.7768 32.005 47.8776 32.3047C47.9986 32.6609 48.1022 33.02 48.1886 33.3847C48.2462 33.6222 48.2981 33.8625 48.3413 34.1028C48.3729 34.2781 48.4017 34.4562 48.4276 34.6344C48.4276 34.6428 48.4276 34.6513 48.4305 34.657C48.4881 35.0726 48.5256 35.491 48.5428 35.9151C48.5428 35.9547 48.5457 35.9943 48.5486 36.0367C48.5544 36.1752 48.5544 36.3138 48.5544 36.4523C48.5544 36.7068 48.5457 36.9612 48.5313 37.2157L48.5256 37.2213Z" fill="#040468"/>
<path d="M17.9194 28.7734C17.7955 28.9515 17.6746 29.1296 17.5594 29.3106C17.5594 29.3106 17.5565 29.3162 17.5536 29.3191C17.4816 29.4293 17.4154 29.5396 17.3463 29.6527C17.1217 30.0315 16.9143 30.4189 16.7243 30.8147C16.5544 31.1738 16.4017 31.5356 16.2664 31.9004C16.1541 32.2057 16.0504 32.5139 15.9611 32.8249C15.7423 33.5798 15.5925 34.3488 15.5148 35.1263C15.5119 35.1659 15.5061 35.2055 15.5032 35.2451C15.4687 35.6267 15.4485 36.0112 15.4485 36.3958C15.4485 36.4156 15.4485 36.4325 15.4485 36.4523C15.4485 36.8707 15.4687 37.2835 15.5061 37.6963C15.5349 37.9988 15.5752 38.2985 15.6242 38.5954C15.725 39.2117 15.8719 39.8168 16.0619 40.4133C16.2433 40.9844 16.4651 41.5471 16.7271 42.0984C17.5536 43.8372 18.7343 45.4007 20.2462 46.7436C21.7667 48.0979 23.5378 49.161 25.5133 49.9074C26.6911 50.3513 27.915 50.6707 29.1677 50.8602C29.2052 50.8658 29.2426 50.8715 29.2801 50.8771C29.4701 50.9054 29.6602 50.9309 29.8503 50.9506C29.9309 50.9591 30.0086 50.9676 30.0893 50.9761C30.7199 51.0411 31.3564 51.0722 32.0014 51.0722C32.6465 51.0722 33.2801 51.0411 33.9078 50.9761C34.1123 50.9563 34.3168 50.9309 34.5184 50.9026C34.5904 50.8941 34.6595 50.8828 34.7315 50.8715C34.8121 50.8602 34.8927 50.846 34.9762 50.8347C36.18 50.6425 37.3549 50.3315 38.4867 49.9045C40.4622 49.161 42.2333 48.0951 43.7538 46.7408C45.2628 45.395 46.4464 43.8315 47.2729 42.0956C47.6962 41.205 48.013 40.2889 48.2261 39.3503C48.3614 38.7622 48.4536 38.1656 48.5025 37.5634C48.514 37.4475 48.5198 37.3316 48.5284 37.2157C48.5428 36.964 48.5515 36.7096 48.5515 36.4523C48.5515 36.3138 48.5515 36.1752 48.5457 36.0367C48.5457 35.9971 48.5428 35.9575 48.54 35.9151C48.5227 35.4939 48.4852 35.0726 48.4276 34.657C48.4276 34.6485 48.4276 34.64 48.4248 34.6344C48.3988 34.4562 48.3729 34.2809 48.3384 34.1028C48.2952 33.8625 48.2433 33.6222 48.1857 33.3847C48.0993 33.02 47.9957 32.6609 47.8747 32.3047C47.7739 32.005 47.6645 31.7081 47.5407 31.4141C47.4802 31.2727 47.4197 31.1313 47.3564 30.99C47.3276 30.9278 47.3017 30.8684 47.27 30.8062C47.2297 30.7214 47.1893 30.6366 47.1461 30.5518C46.9561 30.1701 46.7459 29.7969 46.5212 29.4321C46.478 29.3643 46.4348 29.2964 46.3916 29.2286C46.2793 29.0533 46.1613 28.878 46.0374 28.7055C46.0374 28.7055 46.0374 28.7027 46.0346 28.6999C46.0346 28.6999 46.0346 28.6999 46.0317 28.6971C45.9165 28.5359 45.7984 28.3747 45.6775 28.2164C45.5306 28.027 45.3808 27.8404 45.2225 27.6594C45.1994 27.6312 45.1764 27.6057 45.1505 27.5774C45.1101 27.5294 45.067 27.4813 45.0238 27.4333C45.0209 27.4276 45.0151 27.4248 45.0122 27.4219C44.9777 27.3824 44.9431 27.3456 44.9086 27.306C44.9431 27.2127 44.9748 27.1194 45.0007 27.0233C45.0727 26.7773 45.1188 26.5229 45.1476 26.2656C45.1764 26.0196 45.185 25.7736 45.1821 25.5305C45.1764 25.0894 45.1303 24.6597 45.0612 24.2837C44.9892 24.3487 44.9201 24.4137 44.8539 24.4787C44.7444 24.5805 44.635 24.6823 44.5198 24.7756C44.491 24.801 44.4593 24.8237 44.4276 24.8491C44.3067 24.9424 44.18 25.0329 44.036 25.112C43.8143 25.2336 43.5551 25.3354 43.2354 25.4089C43.3823 25.211 43.5292 25.0018 43.6731 24.7841C43.6818 24.7699 43.6904 24.7586 43.6991 24.7445C43.6991 24.7445 43.6991 24.7445 43.6991 24.7417C43.7682 24.6371 43.8344 24.5325 43.9006 24.425C44.0187 24.2356 44.131 24.0405 44.2405 23.8426C44.2952 23.7436 44.347 23.6419 44.3988 23.5401C44.3988 23.5344 44.4046 23.5288 44.4075 23.5259C44.4996 23.345 44.586 23.1612 44.6638 22.9774C45.1389 21.8805 45.3837 20.7269 45.1188 19.6893C44.9748 19.1917 44.7271 18.7365 44.3844 18.3322C44.3844 18.3322 44.3787 18.3266 44.3787 18.3237C44.1944 18.123 43.9784 17.9336 43.7279 17.7554C43.437 18.5414 42.7545 19.2511 41.64 19.76C41.6458 18.9203 41.5623 17.7328 41.2081 16.5765C41.1591 16.421 41.1044 16.2655 41.0439 16.11C40.7963 15.4738 40.4881 14.9197 40.1166 14.4532C40.1166 14.4532 40.1166 14.4503 40.1138 14.4475C39.6012 13.8255 38.9215 13.3222 38.0259 13.0423C37.9539 13.7011 37.9885 14.8264 37.2052 15.3777C37.1332 14.9903 37.0353 14.62 36.8769 14.2609C36.8769 14.2609 36.8769 14.2694 36.8769 14.275C36.7358 13.964 36.5486 13.6502 36.2894 13.3392C36.2894 13.3392 36.2837 13.3307 36.2779 13.3251L34.6825 11.5184C34.6364 11.4675 34.5932 11.4167 34.55 11.3658C34.5414 11.3545 34.5328 11.346 34.5241 11.3347C34.5155 11.3262 34.5097 11.3177 34.5011 11.3092C33.6573 10.331 33.1217 9.42342 32.8251 8.4791L32.8078 8.42538C32.8078 8.42538 32.8049 8.41407 32.802 8.40842C32.779 8.34057 32.7588 8.26988 32.7387 8.20203C30.9071 9.48562 31.0194 10.8625 30.9071 12.3666C30.8668 12.8925 30.7459 13.3958 30.3456 13.9075C29.7379 12.9293 28.9028 11.9878 27.0972 11.6796C27.5637 13.2403 26.9273 16.9497 25.2081 18.2615C25.2023 18.041 25.0986 17.7865 24.9143 17.5377C24.9143 17.5377 24.9114 17.5434 24.9086 17.5434C24.8654 17.4812 24.8164 17.4162 24.7646 17.3568C24.3067 16.8479 23.5292 16.404 22.6134 16.3785C22.3859 18.3492 22.1929 20.3339 21.0785 22.2169L20.3441 21.4592C20.1829 21.2924 19.82 21.1567 19.4946 21.0634L18.8063 23.0623L18.7804 23.1386C18.6825 23.427 18.5875 23.7125 18.504 24.0009C18.4377 24.2299 18.3801 24.4589 18.3341 24.6908C18.288 24.9283 18.2534 25.1658 18.2361 25.4089V25.4541C18.2189 25.6719 18.2217 25.8896 18.2361 26.1073C18.2477 26.2797 18.2678 26.4494 18.2937 26.619C18.2995 26.6501 18.3053 26.6812 18.311 26.7123C18.3139 26.7349 18.3197 26.7547 18.3225 26.7773C18.3283 26.8028 18.3341 26.8282 18.3398 26.8537C18.3398 26.8621 18.3427 26.8678 18.3456 26.8763C18.3974 27.1081 18.4636 27.3371 18.55 27.5633C18.5817 27.6453 18.6134 27.7273 18.6508 27.8121C18.5472 27.9365 18.4464 28.0609 18.3456 28.1881C18.2131 28.3578 18.0864 28.5274 17.9654 28.7027C17.951 28.7225 17.9395 28.7423 17.9251 28.7593L17.9165 28.7706L17.9194 28.7734Z" fill="#FFCE00"/>
<path d="M45.2369 25.5899C45.2196 25.5729 45.2052 25.5588 45.1879 25.5446C45.1908 25.7878 45.1793 26.0337 45.1534 26.2797C45.1246 26.537 45.0756 26.7915 45.0065 27.0374C44.9806 27.1336 44.9489 27.2269 44.9143 27.3202C44.9489 27.3597 44.9834 27.3965 45.018 27.4361C45.0209 27.4417 45.0266 27.4446 45.0295 27.4474C45.2167 26.8226 45.2628 26.1723 45.2397 25.5927L45.2369 25.5899ZM36.2088 13.2544L34.6134 11.4506C34.5932 11.428 34.5731 11.4025 34.55 11.3799C34.5932 11.4308 34.6364 11.4817 34.6825 11.5326L36.2779 13.3392C36.2549 13.3109 36.2318 13.2855 36.2088 13.2572V13.2544ZM17.3117 27.1873C17.3117 27.1873 17.306 27.1929 17.306 27.1958C17.3319 27.3032 17.3607 27.4078 17.3924 27.5124C17.3636 27.405 17.3348 27.2975 17.3117 27.1873Z" fill="#040468"/>
<path d="M24.8596 21.0662L39.7768 20.9361L37.8848 38.4908L27.1461 37.8207L24.8596 21.0662Z" fill="#040468"/>
<path d="M40.5918 41.7111C40.4075 42.1917 40.1137 42.8024 39.5695 43.0682C39.5551 43.8344 39.3909 44.7136 38.6364 45.4092C38.383 45.641 38.2621 45.9435 38.0749 46.4581L38.0374 46.5599C37.7495 47.3402 37.3722 48.1036 36.8538 48.9602C36.8251 49.0111 36.7905 49.0592 36.7588 49.1101L36.7646 49.4437C36.7732 49.8678 36.7502 50.2806 36.7185 50.6877C36.6119 50.7047 36.5083 50.7216 36.4017 50.7358C36.3096 50.7499 36.2174 50.7612 36.1253 50.7754C35.8603 50.8121 35.5954 50.8432 35.3305 50.8687C34.5126 50.9506 33.6861 50.9931 32.851 50.9931C32.0158 50.9931 31.1865 50.9506 30.3657 50.8687C30.2621 50.8602 30.1584 50.8489 30.0547 50.8347C29.8071 50.8065 29.5594 50.7754 29.3146 50.7386C29.2657 50.7329 29.2167 50.7245 29.1677 50.716C29.2081 50.5831 29.2455 50.4841 29.2772 50.3937C29.3463 50.1986 29.3866 50.0912 29.4183 49.308C29.4327 48.8415 29.3117 48.4344 29.0929 48.2167C28.7819 47.9028 28.3096 47.6399 27.8949 47.4109C27.3592 47.114 26.8956 46.6843 26.4435 46.0623C25.401 44.6317 26.0547 43.0286 26.5356 41.8581L26.55 41.8213L26.8467 41.0947C26.8438 41.0664 26.8409 41.0382 26.838 41.0071C26.815 40.7554 26.8294 40.4982 26.887 40.2352C26.8927 40.2069 26.9014 40.1758 26.9071 40.1447C26.8063 40.1306 26.7113 40.1108 26.6191 40.0854C26.2736 39.9864 25.9942 39.8083 25.7927 39.5482C25.6055 39.3107 25.3319 38.799 25.594 38.0497C25.6659 37.8462 25.7437 37.6454 25.833 37.4475C26.1843 36.6587 26.6652 35.9151 27.2325 35.2846C27.4226 35.0726 27.6213 34.8747 27.8287 34.6909C27.8834 34.6428 27.9381 34.592 27.9957 34.5467C28.0418 34.5071 28.0907 34.4676 28.1397 34.4308C28.1425 34.4308 28.1454 34.4251 28.1483 34.4223C28.2808 34.3177 28.4161 34.2131 28.5515 34.1085C28.9748 33.7862 29.4039 33.4695 29.8272 33.1585C30.5788 32.6044 31.2901 32.0813 31.9294 31.5498C32.2347 31.2953 32.5659 31.1144 32.9114 31.0069C33.0785 30.9561 33.2484 30.9221 33.4212 30.9052C33.4442 30.9052 33.4644 30.8995 33.4874 30.8995C34.0806 30.8571 34.671 31.0183 35.2585 31.3745C35.27 31.3802 35.2815 31.3886 35.293 31.3943C35.365 31.4395 35.437 31.4848 35.5061 31.5357C35.5263 31.5498 35.5464 31.5639 35.5695 31.5809C35.7826 31.7364 35.9957 31.9173 36.2059 32.1237C36.3556 32.2707 36.5083 32.4319 36.658 32.6072C36.6868 32.6411 36.7156 32.6722 36.7444 32.7061C37.0526 33.0624 37.3664 33.413 37.6832 33.7494C38.0173 34.1057 38.3571 34.4506 38.694 34.7786C39.0338 35.1093 39.27 35.4712 39.437 35.8473C39.7192 36.4693 39.8143 37.1224 39.8978 37.685C39.9726 38.1826 40.0418 38.6548 40.2145 39.0025C40.4939 39.5595 41.0122 40.5971 40.586 41.7111H40.5918Z" fill="#040468"/>
<path d="M39.5032 39.2089C39.3074 38.8131 39.2354 38.3381 39.1605 37.8348C39.149 37.75 39.1346 37.6624 39.1202 37.5776C39.005 36.8453 38.8294 36.0565 38.1958 35.4401C37.689 34.9482 37.185 34.4223 36.6926 33.8682C36.5544 33.7127 36.4161 33.5543 36.2779 33.396C35.9438 33.0087 35.6127 32.7005 35.2815 32.4715C35.2556 32.4545 35.2325 32.4376 35.2066 32.4234C34.9532 32.2566 34.7027 32.1407 34.4521 32.07C34.2275 32.005 34.0029 31.9824 33.7811 31.9965C33.6775 32.005 33.5767 32.0191 33.4759 32.0446C33.1821 32.1152 32.8999 32.2623 32.6379 32.48C32.3067 32.757 31.9467 33.0341 31.581 33.3112C31.2786 33.5402 30.9705 33.7664 30.6681 33.9897C30.3427 34.2301 30.0086 34.476 29.6803 34.722C29.4932 34.8634 29.3089 35.0047 29.1274 35.1489C28.8337 35.3808 28.5572 35.6437 28.2981 35.9377C27.892 36.3986 27.5407 36.9245 27.2613 37.4843C27.1346 37.7415 27.0223 38.0045 26.9302 38.2703C26.7747 38.7113 26.9014 39.0053 27.031 39.175C27.3679 39.6047 28.013 39.5595 28.2261 39.5425C28.2923 39.5369 28.3556 39.5312 28.4075 39.5256C28.1829 39.9497 28.0706 40.3738 28.108 40.7894C28.1281 41.0099 28.2059 41.1908 28.3182 41.3435L28.0648 41.1569L27.7941 41.8185C27.3736 42.8448 26.8524 44.1227 27.6501 45.2169C28.0245 45.7286 28.396 46.0764 28.8251 46.3139C29.2397 46.5429 29.7091 46.8058 30.0518 47.1508C30.3571 47.4561 30.5212 47.965 30.504 48.539C30.4723 49.3476 30.4233 49.4805 30.3456 49.7038C30.2707 49.9074 30.1728 50.1816 30.0547 50.8404C30.1584 50.8517 30.2621 50.863 30.3657 50.8743C31.1865 50.9563 32.013 50.9987 32.851 50.9987C33.689 50.9987 34.5126 50.9563 35.3305 50.8743C35.5954 50.8489 35.8603 50.8149 36.1253 50.781C36.1368 50.6707 36.1483 50.5463 36.1598 50.4106L36.1771 50.1986C36.2203 49.6982 36.2635 49.1808 36.252 48.6605L36.2433 48.1827C36.3038 48.1036 36.3585 48.0216 36.4075 47.9368C36.8711 47.1706 37.2052 46.492 37.4615 45.8021L37.496 45.706C37.6717 45.2254 37.8128 44.8437 38.1526 44.5327C38.8323 43.9107 38.8754 43.0569 38.8438 42.35C38.8582 42.35 38.8697 42.35 38.8841 42.35C39.2671 42.3218 39.5695 41.991 39.8287 41.3096C40.1425 40.4868 39.7423 39.6896 39.5032 39.2117V39.2089ZM30.1613 43.5601C30.1353 43.5997 30.1123 43.6364 30.0921 43.6789C30.0778 43.6195 30.0605 43.5658 30.0374 43.512C30.0778 43.5318 30.1181 43.546 30.1613 43.5629V43.5601Z" fill="#F4F4F4"/>
<path d="M33.0209 49.3843C32.3902 49.1299 31.9755 48.5955 31.2498 48.4966C31.2325 48.4966 31.2153 48.4966 31.1951 48.4966C31.1605 48.4966 31.1289 48.505 31.1231 48.5135C30.9762 48.6492 31.7768 49.2967 31.987 49.4437C32.1742 49.5738 32.5112 49.6755 32.7646 49.6557C32.8884 49.6473 32.9921 49.6105 33.0497 49.5342C33.067 49.5116 33.0785 49.4069 33.0209 49.3843ZM35.7192 40.2494C35.869 40.3116 36.0187 40.3738 36.1627 40.4303C36.1742 40.436 36.1886 40.436 36.2001 40.436C36.2923 40.4303 36.3585 40.2663 36.3614 40.19C36.3614 40.1843 36.3614 40.1758 36.3614 40.1674L35.7192 40.2494ZM33.0209 49.3843C32.3902 49.1299 31.9755 48.5955 31.2498 48.4966C31.2325 48.4966 31.2153 48.4966 31.1951 48.4966C31.1605 48.4966 31.1289 48.505 31.1231 48.5135C30.9762 48.6492 31.7768 49.2967 31.987 49.4437C32.1742 49.5738 32.5112 49.6755 32.7646 49.6557C32.8884 49.6473 32.9921 49.6105 33.0497 49.5342C33.067 49.5116 33.0785 49.4069 33.0209 49.3843ZM33.0209 49.3843C32.3902 49.1299 31.9755 48.5955 31.2498 48.4966C31.2325 48.4966 31.2153 48.4966 31.1951 48.4966C31.1605 48.4966 31.1289 48.505 31.1231 48.5135C30.9762 48.6492 31.7768 49.2967 31.987 49.4437C32.1742 49.5738 32.5112 49.6755 32.7646 49.6557C32.8884 49.6473 32.9921 49.6105 33.0497 49.5342C33.067 49.5116 33.0785 49.4069 33.0209 49.3843ZM39.6933 39.3107C39.532 38.9884 39.4687 38.553 39.3996 38.0921C39.3535 37.7811 39.3017 37.439 39.2124 37.0913C39.0655 36.5088 38.8092 35.9095 38.2822 35.4006C37.7783 34.9114 37.2743 34.3856 36.7847 33.8342C36.6551 33.6872 36.5256 33.5402 36.396 33.3904C36.0907 33.0341 35.7826 32.7372 35.4716 32.4998C35.3938 32.4404 35.3161 32.3838 35.2383 32.3329C35.0252 32.1916 34.8121 32.0785 34.5961 31.9937C34.2189 31.8438 33.8416 31.7816 33.4615 31.8099C33.3866 31.8155 33.3146 31.824 33.2426 31.8353C32.802 31.906 32.3902 32.1011 32.0158 32.4121C31.7048 32.6722 31.3765 32.9267 31.0338 33.1868C30.7228 33.4215 30.4003 33.6589 30.072 33.9021C29.9136 34.018 29.7523 34.1368 29.594 34.2555C29.234 34.5241 28.8711 34.7955 28.5198 35.0698C28.4046 35.1602 28.2894 35.2564 28.18 35.3581C27.5378 35.9406 26.982 36.6728 26.5673 37.4758C26.4089 37.784 26.2707 38.1034 26.1555 38.4286C25.9136 39.1241 26.167 39.5962 26.3398 39.8168C26.4204 39.9214 26.5155 40.0119 26.622 40.0882C26.7027 40.1476 26.7919 40.1956 26.8898 40.238C27.0338 40.3002 27.1951 40.3455 27.3708 40.3709C27.3045 40.6423 27.2844 40.9081 27.3074 41.1682C27.3074 41.1965 27.3132 41.2219 27.3161 41.2474L27.0396 41.9203L27.0252 41.9542C26.5817 43.0371 25.9741 44.5214 26.9388 45.8474C27.3593 46.4213 27.7855 46.8171 28.2837 47.0942C28.6667 47.3091 29.1044 47.5494 29.3924 47.8406C29.594 48.0442 29.7063 48.4202 29.6947 48.8528C29.6659 49.5794 29.6314 49.6784 29.5652 49.8565C29.4989 50.0374 29.4154 50.2721 29.3175 50.7386C29.5623 50.7754 29.8099 50.8065 30.0576 50.8347C30.1613 50.846 30.2649 50.8573 30.3686 50.8687C30.5817 49.9045 30.6969 50.2664 30.7516 48.8867C30.7718 48.2364 30.5961 47.5636 30.1497 47.1168C29.7667 46.7323 29.2858 46.4581 28.8049 46.1923C28.3902 45.9605 28.0677 45.6127 27.7999 45.2423C27.1634 44.3715 27.6127 43.3028 28.0216 42.3048C28.4363 42.6101 28.8222 42.4999 28.7559 42.8505C28.6263 43.5347 29.5018 43.8683 29.2599 44.4309C28.7934 45.5194 30.2995 45.8954 31.0742 45.935C31.1116 45.935 31.149 45.935 31.1865 45.935C31.293 45.9265 31.4024 45.9068 31.5061 45.8983C31.5839 45.8926 31.6616 45.8955 31.7307 45.9181C31.486 46.2008 31.1404 46.475 31.1433 46.7578C31.1433 47.1084 31.5925 48.0668 31.7855 48.0555C31.797 48.0555 31.8056 48.0498 31.8171 48.0442C31.892 47.982 31.7711 47.6936 31.7394 47.4957C31.6703 47.0292 31.7307 46.7408 31.964 46.3252C32.1829 45.935 32.6436 45.5675 33.1217 45.4487C33.7754 45.183 34.2851 45.2932 34.4032 45.2848C34.4492 45.2819 34.4867 45.265 34.504 45.231C34.5328 45.1717 34.5443 45.0642 34.4492 45.0133C33.8099 44.6712 33.7898 44.7023 32.0994 45.1462C31.8747 45.2395 31.6155 45.3017 31.3592 45.3187C31.0367 45.3413 30.7171 45.2932 30.4723 45.1519C30.0691 44.9116 30.0806 44.4026 30.4262 44.0351C30.9647 43.464 31.9035 42.6412 32.6955 42.5847C32.7099 42.5847 32.7243 42.5847 32.7415 42.5847C33.4413 42.5621 34.0691 42.7345 34.7228 42.9381C34.9734 43.0173 35.2325 43.0258 35.4917 43.0371H35.4975C35.5839 43.0314 35.6443 42.7685 35.5493 42.7232C34.7372 42.3302 33.8589 41.9797 32.9172 41.9146C32.8366 41.909 32.7588 41.909 32.6782 41.9146C31.7221 41.9825 30.8294 42.8307 30.0806 43.4216C29.4586 43.2435 29.7178 42.4971 30.0461 42.1069C30.4089 41.6715 30.7919 41.2474 31.1893 40.8374C31.5608 40.4501 31.9438 40.0741 32.3384 39.7093C32.5572 39.5058 32.8164 39.421 33.0382 39.404C33.1217 39.3983 33.1965 39.404 33.2657 39.4153C34.0835 39.5595 34.933 39.9355 35.7163 40.2607C35.8661 40.3229 36.0158 40.3851 36.1598 40.4416C36.1713 40.4473 36.1857 40.4473 36.1973 40.4473C36.2894 40.4416 36.3556 40.2776 36.3585 40.2013C36.3585 40.1956 36.3585 40.1872 36.3585 40.1787C36.3499 40.0854 36.2549 39.9695 36.1598 39.9044C35.3017 39.3305 34.4003 38.8385 33.3405 38.6152C33.2599 38.6067 33.1793 38.6039 33.1015 38.6095C32.5169 38.6519 31.964 39.0591 31.5695 39.4464C31.1922 39.8196 30.8495 40.3031 30.432 40.6791C30.3254 40.7752 30.2217 40.8742 30.1181 40.9731C29.8099 41.2757 29.5162 41.5951 29.2196 41.909C28.8654 41.7195 28.3988 41.499 28.3614 41.0806C28.3125 40.5519 28.6177 39.9666 29.0842 39.3899C29.9395 38.3353 31.3333 37.3146 32.0763 36.7379C32.4795 36.4269 32.9316 36.1554 33.4096 36.1215C33.5911 36.1074 33.7783 36.13 33.9683 36.195C34.576 36.4212 35.1317 36.7294 35.6731 37.0658C36.0533 37.309 36.4824 37.4843 36.8999 37.6652C36.9086 37.6709 36.9172 37.6709 36.9258 37.6709C37.0122 37.6652 37.0151 37.4051 36.9374 37.3231C36.5112 36.8962 36.0706 36.4834 35.5839 36.1215C34.9129 35.5985 34.1958 35.2846 33.4413 35.3355C32.9316 35.3723 32.4017 35.5758 31.8574 36.0028C31.3276 36.4721 30.7891 36.9329 30.2448 37.3853C29.7811 37.7755 29.3377 38.1741 28.9057 38.5897C28.6551 38.8301 28.4075 39.0789 28.1656 39.3305C28.1051 39.3361 28.0158 39.3474 27.915 39.3559C27.5205 39.3842 26.9532 39.3503 27.1548 38.7679C27.3161 38.3098 27.5407 37.8462 27.8229 37.4079C28.0101 37.1139 28.2203 36.834 28.4536 36.5739C28.6782 36.3222 28.923 36.0876 29.1821 35.884C29.3117 35.7822 29.4471 35.6776 29.5796 35.5758C30.3974 34.951 31.2671 34.3375 32.0619 33.7211C32.2808 33.5515 32.4968 33.379 32.7041 33.2066C32.9834 32.9747 33.2657 32.8645 33.5421 32.8475C34.3657 32.7881 35.1317 33.5232 35.5925 34.0632C35.6156 34.0887 35.6386 34.117 35.6616 34.1424C36.2606 34.8351 36.8884 35.5052 37.545 36.1413C38.5241 37.0913 38.1843 38.5926 38.7315 39.7348C38.7315 39.7348 38.743 39.7602 38.7487 39.7715C38.9935 40.2607 39.2786 40.8685 39.054 41.4566C38.9878 41.6347 38.7747 42.1465 38.5644 42.1634C38.5443 42.1634 38.5212 42.1634 38.5011 42.1521C38.3513 42.0814 38.2995 41.8439 38.1325 41.7959C38.1238 41.7959 38.1152 41.7931 38.1037 41.7959C38.0518 41.7987 37.9942 41.8496 37.9942 41.9259C38.0058 42.7289 38.2505 43.8089 37.5104 44.4903C37.0526 44.9116 36.8855 45.4148 36.6839 45.9605C36.419 46.6814 36.0763 47.343 35.6731 48.0074C35.3621 48.522 34.8524 48.9404 34.2793 49.1638C34.3398 49.3193 34.455 49.3674 34.5932 49.3589C34.8668 49.3391 35.2297 49.1016 35.4428 49.0083C35.4543 49.5709 35.3967 50.1392 35.3506 50.7075C35.3449 50.7697 35.342 50.8262 35.3362 50.8828C35.6011 50.8573 35.8661 50.8234 36.131 50.7895C36.2232 50.7782 36.3153 50.764 36.4075 50.7499C36.4132 50.6934 36.4161 50.634 36.4219 50.5774C36.4651 50.0629 36.5112 49.5342 36.4996 48.9885L36.4939 48.6803C36.5256 48.6351 36.5544 48.587 36.5832 48.5418C37.0641 47.7473 37.4125 47.0405 37.6775 46.3195L37.712 46.2234C37.8877 45.7484 37.9971 45.4685 38.2304 45.2537C38.9302 44.6119 39.0828 43.7948 39.0972 43.088C39.6012 42.842 39.8747 42.2765 40.0446 41.8326C40.4392 40.8035 39.9582 39.8422 39.6991 39.3248L39.6933 39.3107Z" fill="#040468"/>
</g>
<rect x="171" y="9" width="179" height="40" rx="20" fill="#E20000"/>
<rect x="171" y="9" width="179" height="40" rx="20" stroke="#0000CC" stroke-width="2"/>
<text fill="#F4F4F4" style="white-space: pre" xml:space="preserve" font-family="Arial" font-size="16" font-weight="bold" letter-spacing="0.06em"><tspan x="182.178" y="34.5469">ENTRAR NA LISTA</tspan></text>
</g>
<defs>
<filter id="filter0_d_542_245" x="-5" y="-2" width="368" height="64" filterUnits="userSpaceOnUse" color-interpolation-filters="sRGB">
<feFlood flood-opacity="0" result="BackgroundImageFix"/>
<feColorMatrix in="SourceAlpha" type="matrix" values="0 0 0 0 0 0 0 0 0 0 0 0 0 0 0 0 0 0 127 0" result="hardAlpha"/>
<feOffset dx="-3" dy="2"/>
<feComposite in2="hardAlpha" operator="out"/>
<feColorMatrix type="matrix" values="0 0 0 0 0.0156863 0 0 0 0 0.0156863 0 0 0 0 0.407843 0 0 0 1 0"/>
<feBlend mode="normal" in2="BackgroundImageFix" result="effect1_dropShadow_542_245"/>
<feBlend mode="normal" in="SourceGraphic" in2="effect1_dropShadow_542_245" result="shape"/>
</filter>
<clipPath id="clip0_542_245">
<rect width="36" height="46" fill="white" transform="translate(14 6.5)"/>
</clipPath>
</defs>
</svg>
