<?xml version="1.0" encoding="UTF-8"?>
<svg id="Layer_2" data-name="Layer 2" xmlns="http://www.w3.org/2000/svg" xmlns:xlink="http://www.w3.org/1999/xlink" viewBox="0 0 1234.18 1167.32">
  <defs>
    <style>
      .cls-1 {
        fill: #f41111;
      }

      .cls-2 {
        fill: none;
      }

      .cls-3 {
        fill: #fff100;
      }

      .cls-4 {
        clip-path: url(#clippath);
      }
    </style>
    <clipPath id="clippath">
      <rect class="cls-2" x="41.61" width="1124.41" height="1167.32"/>
    </clipPath>
  </defs>
  <g id="Layer_1-2" data-name="Layer 1">
    <g class="cls-4">
      <g>
        <path class="cls-1" d="M597.51,1158.94c-67.56,0-134.34-9.6-198.49-28.52-61.2-18.06-118.85-44.22-171.34-77.76-103.25-65.98-180.49-157.17-217.48-256.77-.27-.72-.41-1.49-.41-2.26v-481.98c-6.24-23.39-3.57-48.37,7.72-72.51-2.07-5.6-2.33-13.48-2.45-17.1-.23-7-.01-21.04,4.1-36.47,9.18-34.45,32.24-55.21,64.93-58.45.21-.02.43-.03.64-.03,1.53,0,3.02.54,4.2,1.54,1.34,1.14,2.17,2.77,2.29,4.52.97,14.18,7.41,29.12,18.38,42.91,7.42-21.51,17.31-39.48,29.48-53.54,19.74-22.79,44.78-34.34,74.42-34.34.52,0,1.04,0,1.57.01,1.93.03,3.75.91,4.97,2.41s1.7,3.47,1.32,5.36c-.29,1.43-.59,2.88-.9,4.35-1.93,9.17-3.91,18.56-1.9,26.78,6.97-10.43,15.08-18.32,24.56-23.95,13.5-8.38,26.81-16.84,39.58-25.13,23.51-15.99,39.77-31.42,52.69-50.02,1.12-1.61,2.91-2.63,4.87-2.77.16-.01.32-.02.47-.02,1.79,0,3.51.74,4.74,2.06,26.18,27.97,22.15,54.76,15.24,82.03-1.25,4.94-1.14,9.51-.17,14.19,19.43-16.23,42.1-26.27,70.5-31.32.38-.07.76-.1,1.14-.1,2.15,0,4.2,1.07,5.42,2.91,1.43,2.16,1.44,4.96.03,7.13-12.65,19.46-17.26,47.26-12.48,74.78,2.92,2.13,6.74,3.21,11.39,3.21,18.17,0,42.49-15.76,55.37-35.88,7.13-11.14,13.85-28.28,5.36-46.69-.97-2.1-.75-4.55.57-6.44,1.22-1.75,3.22-2.78,5.33-2.78.17,0,.35,0,.52.02,28.35,2.28,48.57,9.66,64.3,23.66,3.04-5.34,4.84-10.2,4.93-15.47.54-29.37,6.8-52.06,36.36-74.4,1.14-.86,2.52-1.31,3.92-1.31.5,0,1,.06,1.5.17,1.88.45,3.47,1.71,4.33,3.45,8.07,16.33,19.71,29.34,38.88,43.48,10.77,7.39,21.89,14.92,33.05,22.38,8.21,5.42,14.67,12.76,19.04,21.54,4.55-6.65,5.03-15.46,5.49-24.04l.09-1.59c.1-1.77.92-3.43,2.27-4.58,1.18-1.01,2.68-1.56,4.22-1.56.22,0,.44.01.66.03,34.1,3.48,61.67,22.51,73.9,50.95,6.39,9.48,14.61,14.49,23.8,14.49,11.2,0,23.28-7.59,31.52-19.82,11.94-17.71,13.85-41.2,5.11-62.83-.86-2.13-.53-4.56.87-6.39,1.24-1.62,3.15-2.55,5.16-2.55.26,0,.52.02.78.05,27.84,3.36,48.59,11.88,64.61,26.64,2.7-4.06,3.26-7.86,3.37-11.43.75-24.35,3.82-44.23,35.29-60.09.92-.46,1.92-.69,2.92-.69.75,0,1.5.13,2.22.39,1.68.61,3.04,1.89,3.75,3.53,7.54,17.48,22.68,32.27,38.85,47.12,11.72,10.4,22.3,20,32.34,29.34.1.1.21.2.3.3,6.47,6.87,13.45,15.15,18.22,25.73,2.7-3.25,3.22-8.27,3.44-15.92.02-.64.04-1.27.06-1.89.07-2.17,1.23-4.16,3.08-5.3,1.04-.65,2.23-.97,3.42-.97.92,0,1.84.19,2.7.59,23.35,10.65,43.02,28.05,56.89,50.32,11.19,17.97,18.46,39.06,20.74,59.98,2.1.09,4.23.16,6.34.16,10.25,0,15.99-1.8,18.62-5.84,1.09-1.68,2.89-2.76,4.89-2.93.19-.02.38-.02.56-.02,1.79,0,3.52.74,4.75,2.07,23.38,25.1,33.45,47.77,29.91,67.4-2.02,11.19-8.42,20.93-19.11,29.1,1.89.18,3.82.26,5.79.26,2.77,0,5.7-.18,8.72-.52.25-.03.5-.04.75-.04,2.96,0,5.59,2.02,6.31,4.96l.42,1.7c2.49,10,7.13,28.6-.7,40.75-3.34,5.17-8.62,8.55-15.27,9.77-9.11,1.67-19.23,2.48-30.95,2.48-.87,0-1.74,0-2.62-.01v468.8c0,.92-.2,1.84-.58,2.68-42.2,93.14-120.49,177.79-220.43,238.33-106.07,64.26-229.16,98.23-355.97,98.23Z"/>
        <path class="cls-3" d="M970.07,14.88c8.1,18.78,24.3,34.53,40.46,49.37,10.89,9.66,21.67,19.41,32.26,29.27,9.11,9.68,16.02,19.1,19.66,30.91,13.47-4.65,12.95-17.41,13.29-27.21,47.75,21.78,71.64,68.93,74.34,110.62,3.82.16,8.07.43,12.32.43,9.62,0,19.26-1.41,24.07-8.8,28.86,30.97,47.54,70.39-1.27,94.83,7.46,2.78,14.89,4.01,22.63,4.01,3.1,0,6.25-.2,9.46-.57,2.6,10.66,11.18,40.33-10.4,44.28-9.56,1.75-19.61,2.37-29.78,2.37-3.03,0-6.07-.06-9.11-.15v475.44c-83.47,184.23-307.38,332.74-570.48,332.74S89.73,991.35,16.3,793.62v-482.85c-6.55-23.69-3.11-48.48,8.47-71.71.77.55,1.4.88,1.81.88.71,0,.72-1.01-.43-3.56-.47.9-.93,1.78-1.38,2.69-5.52-3.94-12.89-98.25,59.97-105.48,1.37,20.11,12.21,39.5,27.59,55.4,11.64-40.15,39.1-94.31,101.18-94.31.49,0,.98,0,1.48.01-2.97,14.85-8.1,32.22,3.19,45.81,6.26-11.95,14.94-23.88,28.33-31.8,13.38-8.31,26.65-16.73,39.8-25.27,22.39-15.22,40.2-31.25,54.43-51.73,23.37,24.97,20.85,47.7,13.69,75.99-2.42,9.58-.61,18.11,2.88,27.44,20.16-19.45,43.82-31.04,74.89-36.57-15.51,23.86-18.02,55.71-13.01,81.77,4.47,4.31,10.53,6.26,17.37,6.26,33.81,0,87.08-47.45,66.63-91.8,27.69,2.23,49.33,9.45,66.03,27.47,5.59-8.3,10.06-16.17,10.22-25.64.52-28.36,6.46-48.67,33.78-69.33,9.15,18.51,22.51,32.32,40.94,45.89,11.01,7.55,22.07,15.04,33.2,22.48,10.68,7.05,16.99,16.9,20.14,27.44,13.63-8.78,13.88-24,14.58-36.57,33.97,3.47,58.29,22.57,68.82,47.58,8.22,12.5,18.82,17.89,29.55,17.89,30.51,0,62.04-43.64,42.66-91.58,27.63,3.33,49.02,11.73,65.72,29.68,7.36-6.84,9.32-13.65,9.54-20.72.75-24.28,3.96-40.5,31.72-54.48M970.07,1.88c-2.01,0-4.02.47-5.85,1.39-34.6,17.43-38.07,40.07-38.86,65.69,0,.19-.01.37-.02.56-15.86-11.89-35.56-18.99-60.69-22.02-.52-.06-1.04-.09-1.56-.09-4.02,0-7.84,1.86-10.32,5.1-2.8,3.65-3.45,8.51-1.73,12.77,7.93,19.63,6.26,40.85-4.47,56.76-7.05,10.46-17.07,16.95-26.13,16.95-6.88,0-12.96-3.75-18.09-11.15-13.3-30.31-42.71-50.55-78.96-54.26-.44-.05-.88-.07-1.32-.07-3.08,0-6.08,1.09-8.44,3.11-2.7,2.31-4.34,5.62-4.54,9.16l-.09,1.6c-.19,3.62-.41,6.84-.79,9.72-3.88-4.72-8.46-8.85-13.68-12.3-11.13-7.44-22.18-14.92-32.85-22.24-18.24-13.45-29.26-25.74-36.83-41.06-1.72-3.47-4.89-6-8.66-6.89-.99-.23-1.99-.35-2.99-.35-2.8,0-5.56.91-7.84,2.63-15.02,11.36-24.87,23.08-30.98,36.88-5.17,11.68-7.63,24.81-7.95,42.58-.03,1.77-.32,3.51-.86,5.27-15.73-11.48-35.33-17.73-61.35-19.82-.35-.03-.7-.04-1.04-.04-4.22,0-8.21,2.06-10.66,5.56-2.64,3.79-3.08,8.69-1.15,12.89,7.26,15.74,1.32,30.69-4.93,40.46-13,20.31-36.02,32.89-49.89,32.89-2.13,0-3.96-.29-5.48-.86-3.67-24.92.7-49.67,12.02-67.08,2.82-4.34,2.8-9.95-.06-14.27-2.43-3.67-6.53-5.82-10.83-5.82-.76,0-1.52.07-2.28.2-24.49,4.36-44.91,12.3-62.74,24.54,4.01-15.94,6.34-29.44,4.78-43.31-1.82-16.05-8.92-30.5-21.72-44.17-2.47-2.64-5.91-4.12-9.49-4.12-.31,0-.63.01-.94.03-3.92.28-7.49,2.32-9.73,5.55-12.44,17.9-28.15,32.81-50.95,48.32-12.68,8.24-25.92,16.64-39.35,24.98-5.14,3.06-9.9,6.71-14.31,11,.39-2.17.87-4.48,1.38-6.94.31-1.49.62-2.96.91-4.41.76-3.79-.21-7.72-2.64-10.72-2.43-3-6.07-4.77-9.93-4.82-.56,0-1.1-.01-1.65-.01-47.34,0-84.23,28.4-105.66,80.59-5.98-9.82-9.49-19.92-10.15-29.56-.24-3.51-1.89-6.77-4.58-9.04-2.36-1.99-5.33-3.07-8.39-3.07-.43,0-.85.02-1.28.06-35.58,3.53-60.64,25.99-70.57,63.25-4.33,16.24-4.56,31-4.31,38.36.17,5.2.67,10.01,1.44,13.92.16.83.35,1.68.56,2.53-10.92,24.53-13.43,49.89-7.27,73.78v481.14c0,1.54.28,3.08.81,4.53,37.48,100.92,115.64,193.25,220.08,259.99,53.01,33.87,111.21,60.29,173,78.51,64.75,19.1,132.15,28.79,200.33,28.79s129.71-8.94,191.94-26.58c59.31-16.81,115.63-41.23,167.4-72.59,50.42-30.55,95.28-66.89,133.33-108.04,38.13-41.22,68.29-86.03,89.65-133.17.76-1.69,1.16-3.51,1.16-5.37v-462.32c10.5-.16,19.76-1,28.23-2.55,8.46-1.55,15.23-5.92,19.56-12.64,9.36-14.51,4.27-34.9,1.54-45.85-.15-.6-.29-1.15-.41-1.66-1.37-5.61-6.22-9.55-11.8-9.9,4.88-6.4,8.03-13.47,9.42-21.17,3.92-21.75-6.7-46.31-31.56-72.98-2.47-2.65-5.92-4.14-9.51-4.14-.37,0-.75.02-1.13.05-3.99.35-7.59,2.51-9.77,5.86-.56.87-2.97,2.88-13.17,2.88-.2,0-.41,0-.61,0-3-20-10.26-39.91-20.95-57.08-14.55-23.36-35.19-41.62-59.71-52.8-1.72-.78-3.56-1.17-5.39-1.17-2.38,0-4.76.65-6.84,1.95-3.69,2.29-6,6.27-6.15,10.61,0,.07,0,.15,0,.22-3.39-4.61-7-8.69-10.48-12.38-.2-.21-.4-.41-.61-.61-10.05-9.36-20.66-18.98-32.41-29.41-15.62-14.35-30.21-28.58-37.24-44.87-1.42-3.29-4.13-5.85-7.5-7.07-1.44-.52-2.94-.78-4.44-.78h0Z"/>
      </g>
    </g>
  </g>
</svg>