<svg width="393" height="405" viewBox="0 0 393 405" fill="none" xmlns="http://www.w3.org/2000/svg">
<path d="M407.435 305.02C409.406 306.691 414.004 313.309 410.458 309.902C414.478 324.543 412.04 346.646 386.01 349.707C385.523 341.19 381.647 332.974 376.155 326.236C371.961 343.38 362.036 366.555 339.478 366.187C340.537 359.895 342.371 352.54 338.338 346.779C336.097 351.841 333 356.895 328.217 360.251C323.436 363.77 318.695 367.336 313.999 370.957C306.002 377.408 299.633 384.197 294.552 392.872C286.201 382.294 287.103 372.667 289.659 360.679C290.525 356.62 289.88 353.007 288.628 349.055C281.425 357.297 272.972 362.205 261.876 364.55C267.417 354.439 264.615 349.604 260.319 342.142C246.778 335.275 226.156 350.204 236.512 366.148C226.619 365.205 218.889 362.149 212.923 354.516C210.924 358.03 209.332 361.361 209.273 365.373C209.09 377.391 206.965 385.993 197.205 394.745C193.936 386.902 189.163 381.051 182.58 375.303C178.648 372.102 174.692 368.93 170.719 365.78C166.903 362.792 164.648 358.618 163.522 354.156C158.654 357.876 158.563 364.322 158.314 369.65C146.179 368.18 123.274 347.469 120.069 343.029C119.375 343.102 119.027 343.132 118.333 343.205C117.477 344.443 103.743 370.087 107.934 380.712C98.0618 379.298 90.4233 375.741 84.4506 368.137C81.8203 371.034 81.1188 373.919 81.0417 376.919C80.7751 387.202 79.6318 394.077 69.7102 400C66.8168 392.045 61.03 385.371 55.2573 379.084C51.3679 374.991 47.5172 370.859 43.7295 366.68C40.4749 362.582 38.0059 358.592 36.7047 353.586C31.8929 355.553 32.0788 360.962 31.9596 365.111C14.9009 355.883 6.3646 335.905 5.39664 318.247C0.946113 318.032 -5.1282 317.278 -7.60421 321.791C-17.9116 308.667 -24.5893 291.973 -7.14834 281.618C-10.8799 279.963 -14.5939 279.612 -18.6131 280.16C-19.5424 275.643 -22.6077 263.076 -14.8991 261.4C-10.4626 260.436 -5.73845 260.281 -1.00383 260.457L-1.00382 104.038L410.462 104.038L410.462 274.64C412.805 284.678 411.574 295.179 407.439 305.02" fill="#E20000"/>
<path d="M407.435 305.02C409.406 306.691 414.004 313.309 410.458 309.902C414.478 324.543 412.04 346.647 386.01 349.707C385.523 341.19 381.647 332.974 376.155 326.236C371.961 343.38 362.036 366.555 339.478 366.187C340.537 359.895 342.371 352.54 338.338 346.779C336.097 351.841 333 356.895 328.217 360.251C323.436 363.77 318.695 367.336 313.999 370.957C306.002 377.408 299.633 384.197 294.552 392.872C286.201 382.294 287.103 372.667 289.659 360.679C290.525 356.62 289.88 353.007 288.628 349.055C281.425 357.297 272.972 362.205 261.876 364.55C267.417 354.439 264.615 349.604 260.319 342.142C246.778 335.275 226.156 350.204 236.512 366.148C226.619 365.205 218.889 362.149 212.923 354.516C210.924 358.03 209.332 361.361 209.273 365.373C209.09 377.391 206.965 385.993 197.205 394.745C193.936 386.902 189.163 381.051 182.58 375.303C178.648 372.102 174.692 368.93 170.719 365.78C166.903 362.792 164.648 358.618 163.522 354.156C158.654 357.876 158.563 364.322 158.314 369.65C146.179 368.18 123.274 347.469 120.069 343.029C119.375 343.102 119.027 343.132 118.333 343.205C117.477 344.443 103.743 370.087 107.934 380.712C98.0618 379.298 90.4233 375.741 84.4506 368.137C81.8203 371.034 81.1188 373.919 81.0417 376.919C80.7751 387.202 79.6318 394.077 69.7102 400C66.8168 392.045 61.03 385.371 55.2573 379.084C51.3679 374.991 47.5172 370.859 43.7295 366.68C40.4749 362.582 38.0059 358.592 36.7047 353.586C31.8929 355.553 32.0788 360.962 31.9596 365.111C14.9009 355.883 6.36461 335.905 5.39664 318.247C0.946109 318.032 -5.12818 317.278 -7.60421 321.791C-17.9116 308.667 -24.5892 291.973 -7.14834 281.618C-10.8799 279.963 -14.5939 279.612 -18.6131 280.16C-19.5424 275.643 -22.6077 263.076 -14.8991 261.4C-10.4626 260.436 -5.73844 260.281 -1.00383 260.457L-1.00382 104.038L410.462 104.038L410.462 274.64C412.805 284.678 411.574 295.179 407.439 305.02" stroke="#0E0AA5" stroke-width="6" stroke-miterlimit="10"/>
<mask id="mask0_543_414" style="mask-type:luminance" maskUnits="userSpaceOnUse" x="0" y="0" width="393" height="306">
<path d="M392.5 0.5V305.438H0.5V0.5H392.5Z" fill="white" stroke="white"/>
</mask>
<g mask="url(#mask0_543_414)">
<path d="M-8.43534 94.03C-10.4063 92.3584 -15.0042 85.7406 -11.4585 89.1481C-15.4776 74.5068 -13.0402 52.4033 12.9897 49.343C13.4771 57.8595 17.3525 66.076 22.8447 72.8138C27.0392 55.6693 36.9643 32.4943 59.5221 32.8629C58.463 39.1549 56.6288 46.5099 60.662 52.2704C62.903 47.2085 65.9998 42.1552 70.7835 38.7992C75.5637 35.2803 80.3053 31.7142 85.0014 28.0925C92.9976 21.6419 99.3665 14.8527 104.448 6.17761C112.799 16.7557 111.897 26.3823 109.341 38.3706C108.474 42.4295 109.12 46.0427 110.372 49.9945C117.575 41.7523 126.028 36.8447 137.124 34.5002C131.583 44.6112 134.385 49.4459 138.681 56.908C152.222 63.7743 172.844 48.8458 162.488 32.9015C172.381 33.8444 180.111 36.9004 186.077 44.534C188.076 41.0194 189.668 37.6891 189.727 33.6773C189.91 21.659 192.035 13.0568 201.795 4.30457C205.064 12.1482 209.837 17.9987 216.42 23.7464C220.352 26.9481 224.308 30.1198 228.281 33.2701C232.097 36.2575 234.352 40.4322 235.478 44.894C240.346 41.1737 240.437 34.7274 240.686 29.3997C252.821 30.8699 275.726 51.5804 278.931 56.0208C279.625 55.9479 279.973 55.9179 280.667 55.845C281.523 54.6064 295.257 28.9626 291.066 18.3373C300.938 19.7517 308.577 23.3092 314.549 30.9127C317.18 28.0153 317.881 25.1308 317.958 22.1305C318.225 11.8481 319.368 4.97321 329.29 -0.950195C332.183 7.00482 337.97 13.6783 343.743 19.966C347.632 24.0593 351.483 28.1911 355.27 32.37C358.525 36.4675 360.994 40.4579 362.295 45.4641C367.107 43.4968 366.921 38.0877 367.04 33.9387C384.099 43.1667 392.635 63.1443 393.603 80.8031C398.054 81.0174 404.128 81.7717 406.604 77.2584C416.912 90.3825 423.589 107.077 406.148 117.432C409.88 119.087 413.594 119.438 417.613 118.889C418.542 123.407 421.608 135.974 413.899 137.65C409.463 138.614 404.738 138.768 400.004 138.593L402.5 312.114H-8.96582L-11.462 124.41C-13.8047 114.372 -12.5737 103.871 -8.43884 94.03" fill="#E20000"/>
<path d="M-8.43534 94.03C-10.4063 92.3584 -15.0042 85.7406 -11.4585 89.1481C-15.4776 74.5068 -13.0402 52.4033 12.9897 49.343C13.4771 57.8595 17.3525 66.076 22.8447 72.8138C27.0392 55.6693 36.9643 32.4943 59.5221 32.8629C58.463 39.1549 56.6288 46.5099 60.662 52.2704C62.903 47.2085 65.9998 42.1552 70.7835 38.7992C75.5637 35.2803 80.3053 31.7142 85.0014 28.0925C92.9976 21.6419 99.3665 14.8527 104.448 6.17761C112.799 16.7557 111.897 26.3823 109.341 38.3706C108.474 42.4295 109.12 46.0427 110.372 49.9945C117.575 41.7523 126.028 36.8447 137.124 34.5002C131.583 44.6112 134.385 49.4459 138.681 56.908C152.222 63.7743 172.844 48.8458 162.488 32.9015C172.381 33.8444 180.111 36.9004 186.077 44.534C188.076 41.0194 189.668 37.6891 189.727 33.6773C189.91 21.659 192.035 13.0568 201.795 4.30457C205.064 12.1482 209.837 17.9987 216.42 23.7464C220.352 26.9481 224.308 30.1198 228.281 33.2701C232.097 36.2575 234.352 40.4322 235.478 44.894C240.346 41.1737 240.437 34.7274 240.686 29.3997C252.821 30.8699 275.726 51.5804 278.931 56.0208C279.625 55.9479 279.973 55.9179 280.667 55.845C281.523 54.6064 295.257 28.9626 291.066 18.3373C300.938 19.7517 308.577 23.3092 314.549 30.9127C317.18 28.0153 317.881 25.1308 317.958 22.1305C318.225 11.8481 319.368 4.97321 329.29 -0.950195C332.183 7.00482 337.97 13.6783 343.743 19.966C347.632 24.0593 351.483 28.1911 355.27 32.37C358.525 36.4675 360.994 40.4579 362.295 45.4641C367.107 43.4968 366.921 38.0877 367.04 33.9387C384.099 43.1667 392.635 63.1443 393.603 80.8031C398.054 81.0174 404.128 81.7717 406.604 77.2584C416.912 90.3825 423.589 107.077 406.148 117.432C409.88 119.087 413.594 119.438 417.613 118.889C418.542 123.407 421.608 135.974 413.899 137.65C409.463 138.614 404.738 138.768 400.004 138.593L402.5 312.114H-8.96582L-11.462 124.41C-13.8047 114.372 -12.5737 103.871 -8.43884 94.03" stroke="#0E0AA5" stroke-width="6" stroke-miterlimit="10"/>
</g>
</svg>
