<svg width="178" height="49" viewBox="0 0 178 49" fill="none" xmlns="http://www.w3.org/2000/svg">
<rect x="1.5" y="1.5" width="175" height="46" rx="23" fill="#0E0AA5"/>
<rect x="1.5" y="1.5" width="175" height="46" rx="23" stroke="#E20000" stroke-width="3"/>
<path d="M31.1028 29.0469C31.6705 29.4531 32.2877 29.776 32.9544 30.0156L32.1028 31.6484C31.7539 31.5443 31.4127 31.401 31.0794 31.2188C31.0065 31.1823 30.4934 30.8438 29.5403 30.2031C28.7903 30.5312 27.9596 30.6953 27.0481 30.6953C25.2877 30.6953 23.9075 30.1771 22.9075 29.1406C21.9127 28.1042 21.4153 26.6484 21.4153 24.7734C21.4153 22.9036 21.9153 21.4505 22.9153 20.4141C23.9153 19.3724 25.2721 18.8516 26.9856 18.8516C28.6835 18.8516 30.0299 19.3724 31.0247 20.4141C32.0195 21.4505 32.5169 22.9036 32.5169 24.7734C32.5169 25.763 32.3789 26.6328 32.1028 27.3828C31.8945 27.9557 31.5611 28.5104 31.1028 29.0469ZM29.2434 27.7422C29.5403 27.3932 29.7617 26.9714 29.9075 26.4766C30.0585 25.9818 30.1341 25.4141 30.1341 24.7734C30.1341 23.4505 29.8424 22.4635 29.2591 21.8125C28.6757 21.1562 27.9127 20.8281 26.97 20.8281C26.0273 20.8281 25.2617 21.1562 24.6731 21.8125C24.0898 22.4688 23.7981 23.4557 23.7981 24.7734C23.7981 26.112 24.0898 27.1146 24.6731 27.7812C25.2617 28.4427 26.0039 28.7734 26.8997 28.7734C27.233 28.7734 27.5481 28.7188 27.845 28.6094C27.3763 28.3021 26.8997 28.0625 26.4153 27.8906L27.0638 26.5703C27.8242 26.8307 28.5507 27.2214 29.2434 27.7422ZM35.2816 19.0469H37.5941V25.25C37.5941 26.2344 37.6227 26.8724 37.68 27.1641C37.779 27.6328 38.0133 28.0104 38.3831 28.2969C38.7581 28.5781 39.2685 28.7188 39.9144 28.7188C40.5706 28.7188 41.0654 28.5859 41.3988 28.3203C41.7321 28.0495 41.9326 27.7188 42.0003 27.3281C42.068 26.9375 42.1019 26.2891 42.1019 25.3828V19.0469H44.4144V25.0625C44.4144 26.4375 44.3519 27.4089 44.2269 27.9766C44.1019 28.5443 43.8701 29.0234 43.5316 29.4141C43.1982 29.8047 42.7503 30.1172 42.1878 30.3516C41.6253 30.5807 40.8909 30.6953 39.9847 30.6953C38.8909 30.6953 38.0602 30.5703 37.4925 30.3203C36.93 30.0651 36.4847 29.737 36.1566 29.3359C35.8284 28.9297 35.6123 28.5052 35.5081 28.0625C35.3571 27.4062 35.2816 26.4375 35.2816 25.1562V19.0469ZM47.8197 30.5V19.0469H56.3119V20.9844H50.1322V23.5234H55.8822V25.4531H50.1322V28.5703H56.5306V30.5H47.8197ZM59.4594 30.5V19.0469H64.3266C65.5505 19.0469 66.4385 19.151 66.9906 19.3594C67.5479 19.5625 67.9932 19.9271 68.3266 20.4531C68.6599 20.9792 68.8266 21.5807 68.8266 22.2578C68.8266 23.1172 68.574 23.8281 68.0688 24.3906C67.5635 24.9479 66.8083 25.2995 65.8031 25.4453C66.3031 25.737 66.7146 26.0573 67.0375 26.4062C67.3656 26.7552 67.8057 27.375 68.3578 28.2656L69.7563 30.5H66.9906L65.3188 28.0078C64.725 27.1172 64.3188 26.5573 64.1 26.3281C63.8813 26.0938 63.6495 25.9349 63.4047 25.8516C63.1599 25.763 62.7719 25.7188 62.2406 25.7188H61.7719V30.5H59.4594ZM61.7719 23.8906H63.4828C64.5922 23.8906 65.2849 23.8438 65.5609 23.75C65.837 23.6562 66.0531 23.4948 66.2094 23.2656C66.3656 23.0365 66.4438 22.75 66.4438 22.4062C66.4438 22.0208 66.3396 21.7109 66.1313 21.4766C65.9281 21.237 65.6391 21.0859 65.2641 21.0234C65.0766 20.9974 64.5141 20.9844 63.5766 20.9844H61.7719V23.8906ZM71.5053 24.8438C71.5053 23.6771 71.6798 22.6979 72.0288 21.9062C72.2892 21.3229 72.6433 20.7995 73.0913 20.3359C73.5444 19.8724 74.0392 19.5286 74.5756 19.3047C75.2892 19.0026 76.1121 18.8516 77.0444 18.8516C78.7319 18.8516 80.0808 19.375 81.0913 20.4219C82.1069 21.4688 82.6147 22.9245 82.6147 24.7891C82.6147 26.638 82.1121 28.0859 81.1069 29.1328C80.1017 30.1745 78.7579 30.6953 77.0756 30.6953C75.3725 30.6953 74.0183 30.1771 73.0131 29.1406C72.0079 28.099 71.5053 26.6667 71.5053 24.8438ZM73.8881 24.7656C73.8881 26.0625 74.1876 27.0469 74.7866 27.7188C75.3855 28.3854 76.1459 28.7188 77.0678 28.7188C77.9897 28.7188 78.7449 28.388 79.3334 27.7266C79.9272 27.0599 80.2241 26.0625 80.2241 24.7344C80.2241 23.4219 79.935 22.4427 79.3569 21.7969C78.784 21.151 78.0209 20.8281 77.0678 20.8281C76.1147 20.8281 75.3465 21.1562 74.7631 21.8125C74.1798 22.4635 73.8881 23.4479 73.8881 24.7656ZM93.3784 30.5V20.9844H89.98V19.0469H99.0816V20.9844H95.6909V30.5H93.3784ZM101.542 30.5V19.0469H110.034V20.9844H103.854V23.5234H109.604V25.4531H103.854V28.5703H110.253V30.5H101.542ZM112.588 26.7734L114.838 26.5547C114.973 27.3099 115.246 27.8646 115.658 28.2188C116.074 28.5729 116.634 28.75 117.338 28.75C118.082 28.75 118.642 28.5938 119.017 28.2812C119.397 27.9635 119.588 27.5938 119.588 27.1719C119.588 26.901 119.507 26.6719 119.345 26.4844C119.189 26.2917 118.913 26.125 118.517 25.9844C118.246 25.8906 117.629 25.724 116.666 25.4844C115.426 25.1771 114.556 24.7995 114.056 24.3516C113.353 23.7214 113.002 22.9531 113.002 22.0469C113.002 21.4635 113.166 20.9193 113.494 20.4141C113.827 19.9036 114.304 19.5156 114.923 19.25C115.548 18.9844 116.301 18.8516 117.181 18.8516C118.619 18.8516 119.699 19.1667 120.423 19.7969C121.153 20.4271 121.535 21.2682 121.572 22.3203L119.259 22.4219C119.16 21.8333 118.947 21.4115 118.619 21.1562C118.296 20.8958 117.809 20.7656 117.158 20.7656C116.486 20.7656 115.96 20.9036 115.58 21.1797C115.335 21.3568 115.213 21.5938 115.213 21.8906C115.213 22.1615 115.327 22.3932 115.556 22.5859C115.848 22.8307 116.556 23.0859 117.681 23.3516C118.806 23.6172 119.637 23.8932 120.173 24.1797C120.715 24.4609 121.137 24.849 121.439 25.3438C121.746 25.8333 121.9 26.4401 121.9 27.1641C121.9 27.8203 121.718 28.4349 121.353 29.0078C120.989 29.5807 120.473 30.0078 119.806 30.2891C119.14 30.5651 118.309 30.7031 117.314 30.7031C115.866 30.7031 114.754 30.3698 113.978 29.7031C113.202 29.0312 112.739 28.0547 112.588 26.7734ZM127.383 30.5V20.9844H123.985V19.0469H133.087V20.9844H129.696V30.5H127.383ZM144.687 30.5H142.172L141.172 27.8984H136.593L135.648 30.5H133.195L137.656 19.0469H140.101L144.687 30.5ZM140.429 25.9688L138.851 21.7188L137.304 25.9688H140.429ZM146.889 30.5V19.0469H151.757C152.981 19.0469 153.869 19.151 154.421 19.3594C154.978 19.5625 155.423 19.9271 155.757 20.4531C156.09 20.9792 156.257 21.5807 156.257 22.2578C156.257 23.1172 156.004 23.8281 155.499 24.3906C154.994 24.9479 154.238 25.2995 153.233 25.4453C153.733 25.737 154.145 26.0573 154.467 26.4062C154.796 26.7552 155.236 27.375 155.788 28.2656L157.186 30.5H154.421L152.749 28.0078C152.155 27.1172 151.749 26.5573 151.53 26.3281C151.311 26.0938 151.079 25.9349 150.835 25.8516C150.59 25.763 150.202 25.7188 149.671 25.7188H149.202V30.5H146.889ZM149.202 23.8906H150.913C152.022 23.8906 152.715 23.8438 152.991 23.75C153.267 23.6562 153.483 23.4948 153.639 23.2656C153.796 23.0365 153.874 22.75 153.874 22.4062C153.874 22.0208 153.77 21.7109 153.561 21.4766C153.358 21.237 153.069 21.0859 152.694 21.0234C152.507 20.9974 151.944 20.9844 151.007 20.9844H149.202V23.8906Z" fill="#F4F4F4"/>
</svg>
