<svg width="202" height="57" viewBox="0 0 202 57" fill="none" xmlns="http://www.w3.org/2000/svg">
<rect x="13.5" y="5.5" width="175" height="46" rx="23" fill="#E20000"/>
<rect x="13.5" y="5.5" width="175" height="46" rx="23" stroke="#FFCE00" stroke-width="3"/>
<path d="M43.1028 33.0469C43.6705 33.4531 44.2877 33.776 44.9544 34.0156L44.1028 35.6484C43.7539 35.5443 43.4127 35.401 43.0794 35.2188C43.0065 35.1823 42.4934 34.8438 41.5403 34.2031C40.7903 34.5312 39.9596 34.6953 39.0481 34.6953C37.2877 34.6953 35.9075 34.1771 34.9075 33.1406C33.9127 32.1042 33.4153 30.6484 33.4153 28.7734C33.4153 26.9036 33.9153 25.4505 34.9153 24.4141C35.9153 23.3724 37.2721 22.8516 38.9856 22.8516C40.6835 22.8516 42.0299 23.3724 43.0247 24.4141C44.0195 25.4505 44.5169 26.9036 44.5169 28.7734C44.5169 29.763 44.3789 30.6328 44.1028 31.3828C43.8945 31.9557 43.5611 32.5104 43.1028 33.0469ZM41.2434 31.7422C41.5403 31.3932 41.7617 30.9714 41.9075 30.4766C42.0585 29.9818 42.1341 29.4141 42.1341 28.7734C42.1341 27.4505 41.8424 26.4635 41.2591 25.8125C40.6757 25.1562 39.9127 24.8281 38.97 24.8281C38.0273 24.8281 37.2617 25.1562 36.6731 25.8125C36.0898 26.4688 35.7981 27.4557 35.7981 28.7734C35.7981 30.112 36.0898 31.1146 36.6731 31.7812C37.2617 32.4427 38.0039 32.7734 38.8997 32.7734C39.233 32.7734 39.5481 32.7188 39.845 32.6094C39.3763 32.3021 38.8997 32.0625 38.4153 31.8906L39.0638 30.5703C39.8242 30.8307 40.5507 31.2214 41.2434 31.7422ZM47.2816 23.0469H49.5941V29.25C49.5941 30.2344 49.6227 30.8724 49.68 31.1641C49.779 31.6328 50.0133 32.0104 50.3831 32.2969C50.7581 32.5781 51.2685 32.7188 51.9144 32.7188C52.5706 32.7188 53.0654 32.5859 53.3988 32.3203C53.7321 32.0495 53.9326 31.7188 54.0003 31.3281C54.068 30.9375 54.1019 30.2891 54.1019 29.3828V23.0469H56.4144V29.0625C56.4144 30.4375 56.3519 31.4089 56.2269 31.9766C56.1019 32.5443 55.8701 33.0234 55.5316 33.4141C55.1982 33.8047 54.7503 34.1172 54.1878 34.3516C53.6253 34.5807 52.8909 34.6953 51.9847 34.6953C50.8909 34.6953 50.0602 34.5703 49.4925 34.3203C48.93 34.0651 48.4847 33.737 48.1566 33.3359C47.8284 32.9297 47.6123 32.5052 47.5081 32.0625C47.3571 31.4062 47.2816 30.4375 47.2816 29.1562V23.0469ZM59.8197 34.5V23.0469H68.3119V24.9844H62.1322V27.5234H67.8822V29.4531H62.1322V32.5703H68.5306V34.5H59.8197ZM71.4594 34.5V23.0469H76.3266C77.5505 23.0469 78.4385 23.151 78.9906 23.3594C79.5479 23.5625 79.9932 23.9271 80.3266 24.4531C80.6599 24.9792 80.8266 25.5807 80.8266 26.2578C80.8266 27.1172 80.574 27.8281 80.0688 28.3906C79.5635 28.9479 78.8083 29.2995 77.8031 29.4453C78.3031 29.737 78.7146 30.0573 79.0375 30.4062C79.3656 30.7552 79.8057 31.375 80.3578 32.2656L81.7563 34.5H78.9906L77.3188 32.0078C76.725 31.1172 76.3188 30.5573 76.1 30.3281C75.8813 30.0938 75.6495 29.9349 75.4047 29.8516C75.1599 29.763 74.7719 29.7188 74.2406 29.7188H73.7719V34.5H71.4594ZM73.7719 27.8906H75.4828C76.5922 27.8906 77.2849 27.8438 77.5609 27.75C77.837 27.6562 78.0531 27.4948 78.2094 27.2656C78.3656 27.0365 78.4438 26.75 78.4438 26.4062C78.4438 26.0208 78.3396 25.7109 78.1313 25.4766C77.9281 25.237 77.6391 25.0859 77.2641 25.0234C77.0766 24.9974 76.5141 24.9844 75.5766 24.9844H73.7719V27.8906ZM83.5053 28.8438C83.5053 27.6771 83.6798 26.6979 84.0288 25.9062C84.2892 25.3229 84.6433 24.7995 85.0913 24.3359C85.5444 23.8724 86.0392 23.5286 86.5756 23.3047C87.2892 23.0026 88.1121 22.8516 89.0444 22.8516C90.7319 22.8516 92.0808 23.375 93.0913 24.4219C94.1069 25.4688 94.6147 26.9245 94.6147 28.7891C94.6147 30.638 94.1121 32.0859 93.1069 33.1328C92.1017 34.1745 90.7579 34.6953 89.0756 34.6953C87.3725 34.6953 86.0183 34.1771 85.0131 33.1406C84.0079 32.099 83.5053 30.6667 83.5053 28.8438ZM85.8881 28.7656C85.8881 30.0625 86.1876 31.0469 86.7866 31.7188C87.3855 32.3854 88.1459 32.7188 89.0678 32.7188C89.9897 32.7188 90.7449 32.388 91.3334 31.7266C91.9272 31.0599 92.2241 30.0625 92.2241 28.7344C92.2241 27.4219 91.935 26.4427 91.3569 25.7969C90.784 25.151 90.0209 24.8281 89.0678 24.8281C88.1147 24.8281 87.3465 25.1562 86.7631 25.8125C86.1798 26.4635 85.8881 27.4479 85.8881 28.7656ZM105.378 34.5V24.9844H101.98V23.0469H111.082V24.9844H107.691V34.5H105.378ZM113.542 34.5V23.0469H122.034V24.9844H115.854V27.5234H121.604V29.4531H115.854V32.5703H122.253V34.5H113.542ZM124.588 30.7734L126.838 30.5547C126.973 31.3099 127.246 31.8646 127.658 32.2188C128.074 32.5729 128.634 32.75 129.338 32.75C130.082 32.75 130.642 32.5938 131.017 32.2812C131.397 31.9635 131.588 31.5938 131.588 31.1719C131.588 30.901 131.507 30.6719 131.345 30.4844C131.189 30.2917 130.913 30.125 130.517 29.9844C130.246 29.8906 129.629 29.724 128.666 29.4844C127.426 29.1771 126.556 28.7995 126.056 28.3516C125.353 27.7214 125.002 26.9531 125.002 26.0469C125.002 25.4635 125.166 24.9193 125.494 24.4141C125.827 23.9036 126.304 23.5156 126.923 23.25C127.548 22.9844 128.301 22.8516 129.181 22.8516C130.619 22.8516 131.699 23.1667 132.423 23.7969C133.153 24.4271 133.535 25.2682 133.572 26.3203L131.259 26.4219C131.16 25.8333 130.947 25.4115 130.619 25.1562C130.296 24.8958 129.809 24.7656 129.158 24.7656C128.486 24.7656 127.96 24.9036 127.58 25.1797C127.335 25.3568 127.213 25.5938 127.213 25.8906C127.213 26.1615 127.327 26.3932 127.556 26.5859C127.848 26.8307 128.556 27.0859 129.681 27.3516C130.806 27.6172 131.637 27.8932 132.173 28.1797C132.715 28.4609 133.137 28.849 133.439 29.3438C133.746 29.8333 133.9 30.4401 133.9 31.1641C133.9 31.8203 133.718 32.4349 133.353 33.0078C132.989 33.5807 132.473 34.0078 131.806 34.2891C131.14 34.5651 130.309 34.7031 129.314 34.7031C127.866 34.7031 126.754 34.3698 125.978 33.7031C125.202 33.0312 124.739 32.0547 124.588 30.7734ZM139.383 34.5V24.9844H135.985V23.0469H145.087V24.9844H141.696V34.5H139.383ZM156.687 34.5H154.172L153.172 31.8984H148.593L147.648 34.5H145.195L149.656 23.0469H152.101L156.687 34.5ZM152.429 29.9688L150.851 25.7188L149.304 29.9688H152.429ZM158.889 34.5V23.0469H163.757C164.981 23.0469 165.869 23.151 166.421 23.3594C166.978 23.5625 167.423 23.9271 167.757 24.4531C168.09 24.9792 168.257 25.5807 168.257 26.2578C168.257 27.1172 168.004 27.8281 167.499 28.3906C166.994 28.9479 166.238 29.2995 165.233 29.4453C165.733 29.737 166.145 30.0573 166.467 30.4062C166.796 30.7552 167.236 31.375 167.788 32.2656L169.186 34.5H166.421L164.749 32.0078C164.155 31.1172 163.749 30.5573 163.53 30.3281C163.311 30.0938 163.079 29.9349 162.835 29.8516C162.59 29.763 162.202 29.7188 161.671 29.7188H161.202V34.5H158.889ZM161.202 27.8906H162.913C164.022 27.8906 164.715 27.8438 164.991 27.75C165.267 27.6562 165.483 27.4948 165.639 27.2656C165.796 27.0365 165.874 26.75 165.874 26.4062C165.874 26.0208 165.77 25.7109 165.561 25.4766C165.358 25.237 165.069 25.0859 164.694 25.0234C164.507 24.9974 163.944 24.9844 163.007 24.9844H161.202V27.8906Z" fill="#F4F4F4"/>
</svg>
