<svg width="337" height="188" viewBox="0 0 337 188" fill="none" xmlns="http://www.w3.org/2000/svg">
<rect x="81" y="140.5" width="175" height="46" rx="23" fill="#E20000"/>
<rect x="81" y="140.5" width="175" height="46" rx="23" stroke="#FFCE00" stroke-width="3"/>
<path d="M110.603 168.047C111.171 168.453 111.788 168.776 112.454 169.016L111.603 170.648C111.254 170.544 110.913 170.401 110.579 170.219C110.506 170.182 109.993 169.844 109.04 169.203C108.29 169.531 107.46 169.695 106.548 169.695C104.788 169.695 103.408 169.177 102.408 168.141C101.413 167.104 100.915 165.648 100.915 163.773C100.915 161.904 101.415 160.451 102.415 159.414C103.415 158.372 104.772 157.852 106.486 157.852C108.184 157.852 109.53 158.372 110.525 159.414C111.519 160.451 112.017 161.904 112.017 163.773C112.017 164.763 111.879 165.633 111.603 166.383C111.394 166.956 111.061 167.51 110.603 168.047ZM108.743 166.742C109.04 166.393 109.262 165.971 109.408 165.477C109.559 164.982 109.634 164.414 109.634 163.773C109.634 162.451 109.342 161.464 108.759 160.812C108.176 160.156 107.413 159.828 106.47 159.828C105.527 159.828 104.762 160.156 104.173 160.812C103.59 161.469 103.298 162.456 103.298 163.773C103.298 165.112 103.59 166.115 104.173 166.781C104.762 167.443 105.504 167.773 106.4 167.773C106.733 167.773 107.048 167.719 107.345 167.609C106.876 167.302 106.4 167.062 105.915 166.891L106.564 165.57C107.324 165.831 108.051 166.221 108.743 166.742ZM114.782 158.047H117.094V164.25C117.094 165.234 117.123 165.872 117.18 166.164C117.279 166.633 117.513 167.01 117.883 167.297C118.258 167.578 118.769 167.719 119.414 167.719C120.071 167.719 120.565 167.586 120.899 167.32C121.232 167.049 121.433 166.719 121.5 166.328C121.568 165.938 121.602 165.289 121.602 164.383V158.047H123.914V164.062C123.914 165.438 123.852 166.409 123.727 166.977C123.602 167.544 123.37 168.023 123.032 168.414C122.698 168.805 122.25 169.117 121.688 169.352C121.125 169.581 120.391 169.695 119.485 169.695C118.391 169.695 117.56 169.57 116.993 169.32C116.43 169.065 115.985 168.737 115.657 168.336C115.328 167.93 115.112 167.505 115.008 167.062C114.857 166.406 114.782 165.438 114.782 164.156V158.047ZM127.32 169.5V158.047H135.812V159.984H129.632V162.523H135.382V164.453H129.632V167.57H136.031V169.5H127.32ZM138.959 169.5V158.047H143.827C145.051 158.047 145.939 158.151 146.491 158.359C147.048 158.562 147.493 158.927 147.827 159.453C148.16 159.979 148.327 160.581 148.327 161.258C148.327 162.117 148.074 162.828 147.569 163.391C147.064 163.948 146.308 164.299 145.303 164.445C145.803 164.737 146.215 165.057 146.538 165.406C146.866 165.755 147.306 166.375 147.858 167.266L149.256 169.5H146.491L144.819 167.008C144.225 166.117 143.819 165.557 143.6 165.328C143.381 165.094 143.149 164.935 142.905 164.852C142.66 164.763 142.272 164.719 141.741 164.719H141.272V169.5H138.959ZM141.272 162.891H142.983C144.092 162.891 144.785 162.844 145.061 162.75C145.337 162.656 145.553 162.495 145.709 162.266C145.866 162.036 145.944 161.75 145.944 161.406C145.944 161.021 145.84 160.711 145.631 160.477C145.428 160.237 145.139 160.086 144.764 160.023C144.577 159.997 144.014 159.984 143.077 159.984H141.272V162.891ZM151.005 163.844C151.005 162.677 151.18 161.698 151.529 160.906C151.789 160.323 152.143 159.799 152.591 159.336C153.044 158.872 153.539 158.529 154.076 158.305C154.789 158.003 155.612 157.852 156.544 157.852C158.232 157.852 159.581 158.375 160.591 159.422C161.607 160.469 162.115 161.924 162.115 163.789C162.115 165.638 161.612 167.086 160.607 168.133C159.602 169.174 158.258 169.695 156.576 169.695C154.873 169.695 153.518 169.177 152.513 168.141C151.508 167.099 151.005 165.667 151.005 163.844ZM153.388 163.766C153.388 165.062 153.688 166.047 154.287 166.719C154.886 167.385 155.646 167.719 156.568 167.719C157.49 167.719 158.245 167.388 158.833 166.727C159.427 166.06 159.724 165.062 159.724 163.734C159.724 162.422 159.435 161.443 158.857 160.797C158.284 160.151 157.521 159.828 156.568 159.828C155.615 159.828 154.846 160.156 154.263 160.812C153.68 161.464 153.388 162.448 153.388 163.766ZM172.878 169.5V159.984H169.48V158.047H178.582V159.984H175.191V169.5H172.878ZM181.042 169.5V158.047H189.534V159.984H183.354V162.523H189.104V164.453H183.354V167.57H189.753V169.5H181.042ZM192.088 165.773L194.338 165.555C194.473 166.31 194.746 166.865 195.158 167.219C195.574 167.573 196.134 167.75 196.838 167.75C197.582 167.75 198.142 167.594 198.517 167.281C198.897 166.964 199.088 166.594 199.088 166.172C199.088 165.901 199.007 165.672 198.845 165.484C198.689 165.292 198.413 165.125 198.017 164.984C197.746 164.891 197.129 164.724 196.166 164.484C194.926 164.177 194.056 163.799 193.556 163.352C192.853 162.721 192.502 161.953 192.502 161.047C192.502 160.464 192.666 159.919 192.994 159.414C193.327 158.904 193.804 158.516 194.423 158.25C195.048 157.984 195.801 157.852 196.681 157.852C198.119 157.852 199.199 158.167 199.923 158.797C200.653 159.427 201.035 160.268 201.072 161.32L198.759 161.422C198.66 160.833 198.447 160.411 198.119 160.156C197.796 159.896 197.309 159.766 196.658 159.766C195.986 159.766 195.46 159.904 195.08 160.18C194.835 160.357 194.713 160.594 194.713 160.891C194.713 161.161 194.827 161.393 195.056 161.586C195.348 161.831 196.056 162.086 197.181 162.352C198.306 162.617 199.137 162.893 199.673 163.18C200.215 163.461 200.637 163.849 200.939 164.344C201.246 164.833 201.4 165.44 201.4 166.164C201.4 166.82 201.218 167.435 200.853 168.008C200.489 168.581 199.973 169.008 199.306 169.289C198.64 169.565 197.809 169.703 196.814 169.703C195.366 169.703 194.254 169.37 193.478 168.703C192.702 168.031 192.239 167.055 192.088 165.773ZM206.883 169.5V159.984H203.485V158.047H212.587V159.984H209.196V169.5H206.883ZM224.187 169.5H221.672L220.672 166.898H216.093L215.148 169.5H212.695L217.156 158.047H219.601L224.187 169.5ZM219.929 164.969L218.351 160.719L216.804 164.969H219.929ZM226.389 169.5V158.047H231.257C232.481 158.047 233.369 158.151 233.921 158.359C234.478 158.562 234.923 158.927 235.257 159.453C235.59 159.979 235.757 160.581 235.757 161.258C235.757 162.117 235.504 162.828 234.999 163.391C234.494 163.948 233.738 164.299 232.733 164.445C233.233 164.737 233.645 165.057 233.967 165.406C234.296 165.755 234.736 166.375 235.288 167.266L236.686 169.5H233.921L232.249 167.008C231.655 166.117 231.249 165.557 231.03 165.328C230.811 165.094 230.579 164.935 230.335 164.852C230.09 164.763 229.702 164.719 229.171 164.719H228.702V169.5H226.389ZM228.702 162.891H230.413C231.522 162.891 232.215 162.844 232.491 162.75C232.767 162.656 232.983 162.495 233.139 162.266C233.296 162.036 233.374 161.75 233.374 161.406C233.374 161.021 233.27 160.711 233.061 160.477C232.858 160.237 232.569 160.086 232.194 160.023C232.007 159.997 231.444 159.984 230.507 159.984H228.702V162.891Z" fill="#F4F4F4"/>
<path d="M5.71963 28V10.864H8.88763L16.7116 23.488H16.7596V10.864H19.6156V28H16.4476L8.64763 15.4H8.57563V28H5.71963ZM30.4319 23.824V21.784C29.5919 22.336 28.2719 22.312 27.0719 22.528C25.8959 22.72 24.8399 23.152 24.8399 24.592C24.8399 25.816 26.3999 26.176 27.3599 26.176C28.5599 26.176 30.4319 25.552 30.4319 23.824ZM33.1679 18.856V25.24C33.1679 25.912 33.3119 26.176 33.8159 26.176C33.9839 26.176 34.1999 26.176 34.4879 26.128V28.024C34.0799 28.168 33.2159 28.336 32.7599 28.336C31.6559 28.336 30.8639 27.952 30.6479 26.824C29.5679 27.88 27.8159 28.336 26.3519 28.336C24.1199 28.336 22.1039 27.136 22.1039 24.712C22.1039 21.616 24.5759 21.112 26.8799 20.848C28.8479 20.488 30.5999 20.704 30.5999 19.096C30.5999 17.68 29.1359 17.416 28.0319 17.416C26.4959 17.416 25.4159 18.04 25.2959 19.384H22.5599C22.7519 16.192 25.4639 15.256 28.1999 15.256C30.6239 15.256 33.1679 16.24 33.1679 18.856ZM30.9119 10.864H32.2559C32.1359 11.632 31.8959 12.328 31.4639 12.808C31.0559 13.312 30.4559 13.624 29.5919 13.624C29.0639 13.624 28.4159 13.408 27.8159 13.168C27.1919 12.952 26.6159 12.736 26.1599 12.736C25.6079 12.736 25.1519 13.264 25.1519 13.72H23.7839C23.9759 12.496 24.8159 11.008 26.2799 11.008C27.0479 11.008 27.6719 11.224 28.2239 11.464C28.7759 11.68 29.2559 11.92 29.7119 11.92C30.4079 11.92 30.7439 11.488 30.9119 10.864ZM41.7999 26.176C44.2479 26.176 45.3279 23.944 45.3279 21.784C45.3279 19.648 44.2479 17.416 41.7999 17.416C39.3519 17.416 38.2719 19.648 38.2719 21.784C38.2719 23.944 39.3519 26.176 41.7999 26.176ZM41.7999 28.336C37.8159 28.336 35.5359 25.6 35.5359 21.784C35.5359 17.992 37.8159 15.256 41.7999 15.256C45.7839 15.256 48.0639 17.992 48.0639 21.784C48.0639 25.6 45.7839 28.336 41.7999 28.336ZM56.3461 24.016H59.0821C59.2261 25.6 60.4261 26.176 61.8901 26.176C62.9221 26.176 64.7221 25.96 64.6501 24.544C64.5781 23.104 62.5861 22.936 60.5941 22.48C58.5781 22.048 56.6101 21.328 56.6101 18.808C56.6101 16.096 59.5381 15.256 61.7941 15.256C64.3381 15.256 66.6421 16.312 66.9781 19.072H64.1221C63.8821 17.776 62.8021 17.416 61.6021 17.416C60.8101 17.416 59.3461 17.608 59.3461 18.688C59.3461 20.032 61.3621 20.224 63.3781 20.68C65.3701 21.136 67.3861 21.856 67.3861 24.304C67.3861 27.256 64.4101 28.336 61.8421 28.336C58.7221 28.336 56.3941 26.944 56.3461 24.016ZM77.1194 23.824V21.784C76.2794 22.336 74.9594 22.312 73.7594 22.528C72.5834 22.72 71.5274 23.152 71.5274 24.592C71.5274 25.816 73.0874 26.176 74.0474 26.176C75.2474 26.176 77.1194 25.552 77.1194 23.824ZM79.8554 18.856V25.24C79.8554 25.912 79.9994 26.176 80.5034 26.176C80.6714 26.176 80.8874 26.176 81.1754 26.128V28.024C80.7674 28.168 79.9034 28.336 79.4474 28.336C78.3434 28.336 77.5514 27.952 77.3354 26.824C76.2554 27.88 74.5034 28.336 73.0394 28.336C70.8074 28.336 68.7914 27.136 68.7914 24.712C68.7914 21.616 71.2634 21.112 73.5674 20.848C75.5354 20.488 77.2874 20.704 77.2874 19.096C77.2874 17.68 75.8234 17.416 74.7194 17.416C73.1834 17.416 72.1034 18.04 71.9834 19.384H69.2474C69.4394 16.192 72.1514 15.256 74.8874 15.256C77.3114 15.256 79.8554 16.24 79.8554 18.856ZM92.4234 21.808C92.4234 19.552 91.2474 17.416 88.9914 17.416C86.6874 17.416 85.5114 19.168 85.5114 21.808C85.5114 24.304 86.7834 26.176 88.9914 26.176C91.4874 26.176 92.4234 23.968 92.4234 21.808ZM82.8714 28V10.864H85.6074V17.2H85.6554C86.3994 16 87.9594 15.256 89.3514 15.256C93.2634 15.256 95.1594 18.232 95.1594 21.856C95.1594 25.192 93.4794 28.336 89.8074 28.336C88.1274 28.336 86.3274 27.928 85.5114 26.296H85.4634V28H82.8714ZM108.727 22.504H99.6073C99.6073 24.448 100.663 26.176 102.943 26.176C104.527 26.176 105.487 25.48 105.967 24.112H108.559C107.959 26.824 105.655 28.336 102.943 28.336C99.0553 28.336 96.8713 25.624 96.8713 21.808C96.8713 18.28 99.1753 15.256 102.871 15.256C106.783 15.256 109.183 18.784 108.727 22.504ZM99.6073 20.704H105.991C105.895 18.976 104.719 17.416 102.871 17.416C100.975 17.416 99.6793 18.856 99.6073 20.704ZM127.111 21.808C127.111 19.552 125.935 17.416 123.679 17.416C121.375 17.416 120.199 19.168 120.199 21.808C120.199 24.304 121.471 26.176 123.679 26.176C126.175 26.176 127.111 23.968 127.111 21.808ZM117.559 32.584V15.592H120.151V17.272H120.199C120.967 15.856 122.455 15.256 124.039 15.256C127.951 15.256 129.847 18.232 129.847 21.856C129.847 25.192 128.167 28.336 124.495 28.336C122.911 28.336 121.207 27.76 120.343 26.392H120.295V32.584H117.559ZM137.847 26.176C140.295 26.176 141.375 23.944 141.375 21.784C141.375 19.648 140.295 17.416 137.847 17.416C135.399 17.416 134.319 19.648 134.319 21.784C134.319 23.944 135.399 26.176 137.847 26.176ZM137.847 28.336C133.863 28.336 131.583 25.6 131.583 21.784C131.583 17.992 133.863 15.256 137.847 15.256C141.831 15.256 144.111 17.992 144.111 21.784C144.111 25.6 141.831 28.336 137.847 28.336ZM146.385 28V15.592H148.953V17.992H149.001C149.313 16.672 150.945 15.256 152.625 15.256C153.249 15.256 153.417 15.304 153.657 15.328V17.968C153.273 17.92 152.865 17.848 152.481 17.848C150.609 17.848 149.121 19.36 149.121 22.096V28H146.385ZM167.191 26.176C169.639 26.176 170.719 23.944 170.719 21.784C170.719 19.648 169.639 17.416 167.191 17.416C164.743 17.416 163.663 19.648 163.663 21.784C163.663 23.944 164.743 26.176 167.191 26.176ZM167.191 28.336C163.207 28.336 160.927 25.6 160.927 21.784C160.927 17.992 163.207 15.256 167.191 15.256C171.175 15.256 173.455 17.992 173.455 21.784C173.455 25.6 171.175 28.336 167.191 28.336ZM175.729 28V15.592H178.321V17.416L178.369 17.464C179.185 16.096 180.601 15.256 182.233 15.256C184.921 15.256 186.625 16.696 186.625 19.48V28H183.889V20.2C183.841 18.256 183.073 17.416 181.465 17.416C179.641 17.416 178.465 18.856 178.465 20.68V28H175.729ZM191.646 21.928C191.646 24.064 192.702 26.176 195.078 26.176C197.526 26.176 198.558 23.944 198.558 21.784C198.558 19.048 197.238 17.416 195.126 17.416C192.558 17.416 191.646 19.696 191.646 21.928ZM201.198 10.864V28H198.606V26.32H198.558C197.838 27.736 196.278 28.336 194.718 28.336C190.806 28.336 188.91 25.432 188.91 21.712C188.91 17.224 191.574 15.256 194.286 15.256C195.846 15.256 197.574 15.832 198.414 17.2H198.462V10.864H201.198ZM215.438 22.504H206.318C206.318 24.448 207.374 26.176 209.654 26.176C211.238 26.176 212.198 25.48 212.678 24.112H215.27C214.67 26.824 212.366 28.336 209.654 28.336C205.766 28.336 203.582 25.624 203.582 21.808C203.582 18.28 205.886 15.256 209.582 15.256C213.494 15.256 215.894 18.784 215.438 22.504ZM206.318 20.704H212.702C212.606 18.976 211.43 17.416 209.582 17.416C207.686 17.416 206.39 18.856 206.318 20.704ZM235.31 19.744H232.574C232.358 18.232 231.254 17.416 229.742 17.416C228.326 17.416 226.334 18.16 226.334 21.928C226.334 23.992 227.246 26.176 229.622 26.176C231.206 26.176 232.31 25.12 232.574 23.344H235.31C234.806 26.56 232.814 28.336 229.622 28.336C225.734 28.336 223.598 25.576 223.598 21.928C223.598 18.184 225.638 15.256 229.718 15.256C232.598 15.256 235.046 16.696 235.31 19.744ZM243.222 26.176C245.67 26.176 246.75 23.944 246.75 21.784C246.75 19.648 245.67 17.416 243.222 17.416C240.774 17.416 239.694 19.648 239.694 21.784C239.694 23.944 240.774 26.176 243.222 26.176ZM243.222 28.336C239.238 28.336 236.958 25.6 236.958 21.784C236.958 17.992 239.238 15.256 243.222 15.256C247.206 15.256 249.486 17.992 249.486 21.784C249.486 25.6 247.206 28.336 243.222 28.336ZM251.76 28V15.592H254.352V17.32H254.424C255.24 16.096 256.272 15.256 258.24 15.256C259.752 15.256 261.168 15.904 261.72 17.32C262.632 16.048 263.808 15.256 265.608 15.256C268.224 15.256 269.76 16.408 269.76 19.432V28H267.024V20.752C267.024 18.784 266.904 17.416 264.768 17.416C262.92 17.416 262.128 18.64 262.128 20.728V28H259.392V20.032C259.392 18.328 258.864 17.416 257.208 17.416C255.792 17.416 254.496 18.568 254.496 20.632V28H251.76ZM283.899 22.504H274.779C274.779 24.448 275.835 26.176 278.115 26.176C279.699 26.176 280.659 25.48 281.139 24.112H283.731C283.131 26.824 280.827 28.336 278.115 28.336C274.227 28.336 272.043 25.624 272.043 21.808C272.043 18.28 274.347 15.256 278.043 15.256C281.955 15.256 284.355 18.784 283.899 22.504ZM274.779 20.704H281.163C281.067 18.976 279.891 17.416 278.043 17.416C276.147 17.416 274.851 18.856 274.779 20.704ZM294.355 23.344H297.091C296.611 26.392 294.787 28.144 291.907 28.288L291.067 29.392V29.44C291.259 29.368 291.499 29.368 291.859 29.368C292.795 29.368 293.899 29.92 293.899 31.144C293.899 32.776 292.387 33.304 290.995 33.304C290.275 33.304 289.147 33.16 288.523 32.8L288.955 31.84C289.459 32.008 289.987 32.224 290.515 32.224C291.187 32.224 291.979 32.056 291.979 31.24C291.979 30.64 291.403 30.328 290.875 30.328C290.563 30.328 290.227 30.4 289.939 30.568L289.411 30.112L290.779 28.288C287.275 28.024 285.379 25.36 285.379 21.928C285.379 18.184 287.419 15.256 291.499 15.256C294.379 15.256 296.827 16.696 297.091 19.744H294.355C294.139 18.232 293.035 17.416 291.523 17.416C290.107 17.416 288.115 18.16 288.115 21.928C288.115 23.992 289.027 26.176 291.403 26.176C292.987 26.176 294.091 25.12 294.355 23.344ZM306.971 23.824V21.784C306.131 22.336 304.811 22.312 303.611 22.528C302.435 22.72 301.379 23.152 301.379 24.592C301.379 25.816 302.939 26.176 303.899 26.176C305.099 26.176 306.971 25.552 306.971 23.824ZM309.707 18.856V25.24C309.707 25.912 309.851 26.176 310.355 26.176C310.523 26.176 310.739 26.176 311.027 26.128V28.024C310.619 28.168 309.755 28.336 309.299 28.336C308.195 28.336 307.403 27.952 307.187 26.824C306.107 27.88 304.355 28.336 302.891 28.336C300.659 28.336 298.643 27.136 298.643 24.712C298.643 21.616 301.115 21.112 303.419 20.848C305.387 20.488 307.139 20.704 307.139 19.096C307.139 17.68 305.675 17.416 304.571 17.416C303.035 17.416 301.955 18.04 301.835 19.384H299.099C299.291 16.192 302.003 15.256 304.739 15.256C307.163 15.256 309.707 16.24 309.707 18.856ZM312.651 28V15.592H315.219V17.992H315.267C315.579 16.672 317.211 15.256 318.891 15.256C319.515 15.256 319.683 15.304 319.923 15.328V17.968C319.539 17.92 319.131 17.848 318.747 17.848C316.875 17.848 315.387 19.36 315.387 22.096V28H312.651ZM323.56 16.312H320.824C320.8 12.784 323.056 10.456 326.584 10.456C329.512 10.456 331.816 12.208 331.816 15.304C331.816 17.56 330.76 18.4 329.704 19.288C328.48 20.32 327.592 21.04 327.592 23.344H325C325 20.536 325.6 19.576 326.872 18.472C327.904 17.584 328.816 17.008 328.816 15.4C328.816 13.456 327.328 12.736 326.464 12.736C324.496 12.736 323.56 14.152 323.56 16.312ZM324.64 28V25H327.856V28H324.64Z" fill="#F4F4F4"/>
<path d="M63.4919 57V39.864H70.8839C75.3239 39.864 78.6599 42.648 78.6599 48.336C78.6599 53.304 76.1159 57 70.8839 57H63.4919ZM67.2599 43.032V53.832H70.6199C72.8039 53.832 74.8919 52.488 74.8919 48.696C74.8919 45.24 73.6919 43.032 69.9479 43.032H67.2599ZM88.649 52.2V50.928C88.073 51.432 86.873 51.456 85.817 51.648C84.761 51.864 83.801 52.224 83.801 53.472C83.801 54.744 84.785 55.056 85.889 55.056C88.553 55.056 88.649 52.944 88.649 52.2ZM84.185 48.408H80.777C80.969 45.216 83.825 44.256 86.609 44.256C89.081 44.256 92.057 44.808 92.057 47.784V54.24C92.057 55.368 92.177 56.496 92.489 57H89.033C88.913 56.616 88.817 56.208 88.793 55.8C87.713 56.928 86.129 57.336 84.617 57.336C82.265 57.336 80.393 56.16 80.393 53.616C80.393 50.808 82.505 50.136 84.617 49.848C86.705 49.536 88.649 49.608 88.649 48.216C88.649 46.752 87.641 46.536 86.441 46.536C85.145 46.536 84.305 47.064 84.185 48.408ZM90.785 39.648L87.089 43.056H84.713L87.017 39.648H90.785ZM113.022 44.592V57H109.782V55.272H109.71C108.846 56.664 107.358 57.336 105.918 57.336C102.294 57.336 101.382 55.296 101.382 52.224V44.592H104.79V51.6C104.79 53.64 105.39 54.648 106.974 54.648C108.822 54.648 109.614 53.616 109.614 51.096V44.592H113.022ZM115.705 57V44.592H118.921V46.272H118.969C119.857 45 121.153 44.256 122.761 44.256C124.321 44.256 125.713 44.832 126.385 46.32C127.105 45.24 128.401 44.256 130.129 44.256C132.769 44.256 134.665 45.48 134.665 48.696V57H131.257V49.968C131.257 48.312 131.113 46.944 129.169 46.944C127.249 46.944 126.889 48.528 126.889 50.088V57H123.481V50.04C123.481 48.6 123.577 46.944 121.417 46.944C120.745 46.944 119.113 47.376 119.113 49.8V57H115.705ZM145.087 52.2V50.928C144.511 51.432 143.311 51.456 142.255 51.648C141.199 51.864 140.239 52.224 140.239 53.472C140.239 54.744 141.223 55.056 142.327 55.056C144.991 55.056 145.087 52.944 145.087 52.2ZM140.623 48.408H137.215C137.407 45.216 140.263 44.256 143.047 44.256C145.519 44.256 148.495 44.808 148.495 47.784V54.24C148.495 55.368 148.615 56.496 148.927 57H145.471C145.351 56.616 145.255 56.208 145.231 55.8C144.151 56.928 142.567 57.336 141.055 57.336C138.703 57.336 136.831 56.16 136.831 53.616C136.831 50.808 138.943 50.136 141.055 49.848C143.143 49.536 145.087 49.608 145.087 48.216C145.087 46.752 144.079 46.536 142.879 46.536C141.583 46.536 140.743 47.064 140.623 48.408ZM157.435 50.808C157.435 46.848 159.955 44.256 163.843 44.256C167.755 44.256 170.275 46.848 170.275 50.808C170.275 54.744 167.755 57.336 163.843 57.336C159.955 57.336 157.435 54.744 157.435 50.808ZM160.843 50.808C160.843 52.776 161.539 54.768 163.843 54.768C166.171 54.768 166.867 52.776 166.867 50.808C166.867 48.816 166.171 46.824 163.843 46.824C161.539 46.824 160.843 48.816 160.843 50.808ZM172.587 57V39.864H175.995V57H172.587ZM178.679 57V39.864H182.087V46.32H182.159C183.023 44.928 184.511 44.256 185.783 44.256C189.407 44.256 190.319 46.296 190.319 49.368V57H186.911V49.992C186.911 47.952 186.311 46.944 184.727 46.944C182.879 46.944 182.087 47.976 182.087 50.496V57H178.679ZM200.633 52.2V50.928C200.057 51.432 198.857 51.456 197.801 51.648C196.745 51.864 195.785 52.224 195.785 53.472C195.785 54.744 196.769 55.056 197.873 55.056C200.537 55.056 200.633 52.944 200.633 52.2ZM196.169 48.408H192.761C192.953 45.216 195.809 44.256 198.593 44.256C201.065 44.256 204.041 44.808 204.041 47.784V54.24C204.041 55.368 204.161 56.496 204.473 57H201.017C200.897 56.616 200.801 56.208 200.777 55.8C199.697 56.928 198.113 57.336 196.601 57.336C194.249 57.336 192.377 56.16 192.377 53.616C192.377 50.808 194.489 50.136 196.601 49.848C198.689 49.536 200.633 49.608 200.633 48.216C200.633 46.752 199.625 46.536 198.425 46.536C197.129 46.536 196.289 47.064 196.169 48.408ZM215.543 57V55.416H215.495C214.703 56.76 213.311 57.336 211.727 57.336C207.983 57.336 206.159 54.12 206.159 50.688C206.159 47.352 208.007 44.256 211.655 44.256C213.119 44.256 214.559 44.88 215.327 46.104H215.375V39.864H218.783V57H215.543ZM215.495 50.76C215.495 48.744 214.775 46.824 212.567 46.824C210.335 46.824 209.567 48.744 209.567 50.784C209.567 52.728 210.455 54.768 212.567 54.768C214.823 54.768 215.495 52.8 215.495 50.76ZM221.455 57V44.592H224.863V57H221.455ZM224.863 39.864V42.672H221.455V39.864H224.863ZM227.546 57V44.592H230.786V46.32H230.858C231.722 44.928 233.21 44.256 234.65 44.256C238.274 44.256 239.186 46.296 239.186 49.368V57H235.778V49.992C235.778 47.952 235.178 46.944 233.594 46.944C231.746 46.944 230.954 47.976 230.954 50.496V57H227.546ZM241.773 57V39.864H245.181V46.32H245.253C246.117 44.928 247.605 44.256 248.877 44.256C252.501 44.256 253.413 46.296 253.413 49.368V57H250.005V49.992C250.005 47.952 249.405 46.944 247.821 46.944C245.973 46.944 245.181 47.976 245.181 50.496V57H241.773ZM263.727 52.2V50.928C263.151 51.432 261.951 51.456 260.895 51.648C259.839 51.864 258.879 52.224 258.879 53.472C258.879 54.744 259.863 55.056 260.967 55.056C263.631 55.056 263.727 52.944 263.727 52.2ZM259.263 48.408H255.855C256.047 45.216 258.903 44.256 261.687 44.256C264.159 44.256 267.135 44.808 267.135 47.784V54.24C267.135 55.368 267.255 56.496 267.567 57H264.111C263.991 56.616 263.895 56.208 263.871 55.8C262.791 56.928 261.207 57.336 259.695 57.336C257.343 57.336 255.471 56.16 255.471 53.616C255.471 50.808 257.583 50.136 259.695 49.848C261.783 49.536 263.727 49.608 263.727 48.216C263.727 46.752 262.719 46.536 261.519 46.536C260.223 46.536 259.383 47.064 259.263 48.408ZM46.878 86V73.592H50.118V75.32H50.19C51.054 73.928 52.542 73.256 53.982 73.256C57.606 73.256 58.518 75.296 58.518 78.368V86H55.11V78.992C55.11 76.952 54.51 75.944 52.926 75.944C51.078 75.944 50.286 76.976 50.286 79.496V86H46.878ZM68.8326 81.2V79.928C68.2566 80.432 67.0566 80.456 66.0006 80.648C64.9446 80.864 63.9846 81.224 63.9846 82.472C63.9846 83.744 64.9686 84.056 66.0726 84.056C68.7366 84.056 68.8326 81.944 68.8326 81.2ZM64.3686 77.408H60.9606C61.1526 74.216 64.0086 73.256 66.7926 73.256C69.2646 73.256 72.2406 73.808 72.2406 76.784V83.24C72.2406 84.368 72.3606 85.496 72.6726 86H69.2166C69.0966 85.616 69.0006 85.208 68.9766 84.8C67.8966 85.928 66.3126 86.336 64.8006 86.336C62.4486 86.336 60.5766 85.16 60.5766 82.616C60.5766 79.808 62.6886 79.136 64.8006 78.848C66.8886 78.536 68.8326 78.608 68.8326 77.216C68.8326 75.752 67.8246 75.536 66.6246 75.536C65.3286 75.536 64.4886 76.064 64.3686 77.408ZM74.2858 81.968H77.5258C77.5498 83.456 78.7978 84.056 80.1418 84.056C81.1258 84.056 82.3738 83.672 82.3738 82.472C82.3738 81.44 80.9578 81.08 78.5098 80.552C76.5418 80.12 74.5738 79.424 74.5738 77.24C74.5738 74.072 77.3098 73.256 79.9738 73.256C82.6858 73.256 85.1818 74.168 85.4458 77.216H82.2058C82.1098 75.896 81.1018 75.536 79.8778 75.536C79.1098 75.536 77.9818 75.68 77.9818 76.688C77.9818 77.912 79.9018 78.08 81.8458 78.536C83.8378 78.992 85.7818 79.712 85.7818 82.016C85.7818 85.28 82.9498 86.336 80.1178 86.336C77.2378 86.336 74.4298 85.256 74.2858 81.968ZM94.4562 86V73.592H97.6962V75.32H97.7682C98.6322 73.928 100.12 73.256 101.56 73.256C105.184 73.256 106.096 75.296 106.096 78.368V86H102.688V78.992C102.688 76.952 102.088 75.944 100.504 75.944C98.6562 75.944 97.8642 76.976 97.8642 79.496V86H94.4562ZM108.299 79.808C108.299 75.848 110.819 73.256 114.707 73.256C118.619 73.256 121.139 75.848 121.139 79.808C121.139 83.744 118.619 86.336 114.707 86.336C110.819 86.336 108.299 83.744 108.299 79.808ZM111.707 79.808C111.707 81.776 112.403 83.768 114.707 83.768C117.035 83.768 117.731 81.776 117.731 79.808C117.731 77.816 117.035 75.824 114.707 75.824C112.403 75.824 111.707 77.816 111.707 79.808ZM122.755 81.968H125.995C126.019 83.456 127.267 84.056 128.611 84.056C129.595 84.056 130.843 83.672 130.843 82.472C130.843 81.44 129.427 81.08 126.979 80.552C125.011 80.12 123.043 79.424 123.043 77.24C123.043 74.072 125.779 73.256 128.443 73.256C131.155 73.256 133.651 74.168 133.915 77.216H130.675C130.579 75.896 129.571 75.536 128.347 75.536C127.579 75.536 126.451 75.68 126.451 76.688C126.451 77.912 128.371 78.08 130.315 78.536C132.307 78.992 134.251 79.712 134.251 82.016C134.251 85.28 131.419 86.336 128.587 86.336C125.707 86.336 122.899 85.256 122.755 81.968ZM135.645 81.968H138.885C138.909 83.456 140.157 84.056 141.501 84.056C142.485 84.056 143.733 83.672 143.733 82.472C143.733 81.44 142.317 81.08 139.869 80.552C137.901 80.12 135.933 79.424 135.933 77.24C135.933 74.072 138.669 73.256 141.333 73.256C144.045 73.256 146.541 74.168 146.805 77.216H143.565C143.469 75.896 142.461 75.536 141.237 75.536C140.469 75.536 139.341 75.68 139.341 76.688C139.341 77.912 141.261 78.08 143.205 78.536C145.197 78.992 147.141 79.712 147.141 82.016C147.141 85.28 144.309 86.336 141.477 86.336C138.597 86.336 135.789 85.256 135.645 81.968ZM156.864 81.2V79.928C156.288 80.432 155.088 80.456 154.032 80.648C152.976 80.864 152.016 81.224 152.016 82.472C152.016 83.744 153 84.056 154.104 84.056C156.768 84.056 156.864 81.944 156.864 81.2ZM152.4 77.408H148.992C149.184 74.216 152.04 73.256 154.824 73.256C157.296 73.256 160.272 73.808 160.272 76.784V83.24C160.272 84.368 160.392 85.496 160.704 86H157.248C157.128 85.616 157.032 85.208 157.008 84.8C155.928 85.928 154.344 86.336 152.832 86.336C150.48 86.336 148.608 85.16 148.608 82.616C148.608 79.808 150.72 79.136 152.832 78.848C154.92 78.536 156.864 78.608 156.864 77.216C156.864 75.752 155.856 75.536 154.656 75.536C153.36 75.536 152.52 76.064 152.4 77.408ZM162.317 81.968H165.557C165.581 83.456 166.829 84.056 168.173 84.056C169.157 84.056 170.405 83.672 170.405 82.472C170.405 81.44 168.989 81.08 166.541 80.552C164.573 80.12 162.605 79.424 162.605 77.24C162.605 74.072 165.341 73.256 168.005 73.256C170.717 73.256 173.213 74.168 173.477 77.216H170.237C170.141 75.896 169.133 75.536 167.909 75.536C167.141 75.536 166.013 75.68 166.013 76.688C166.013 77.912 167.933 78.08 169.877 78.536C171.869 78.992 173.813 79.712 173.813 82.016C173.813 85.28 170.981 86.336 168.149 86.336C165.269 86.336 162.461 85.256 162.317 81.968ZM194.271 77.96H190.935C190.719 76.568 189.831 75.824 188.415 75.824C186.231 75.824 185.511 78.032 185.511 79.856C185.511 81.632 186.207 83.768 188.343 83.768C189.927 83.768 190.839 82.76 191.055 81.248H194.343C193.911 84.536 191.631 86.336 188.367 86.336C184.623 86.336 182.103 83.696 182.103 79.976C182.103 76.112 184.407 73.256 188.439 73.256C191.367 73.256 194.055 74.792 194.271 77.96ZM195.885 79.808C195.885 75.848 198.405 73.256 202.293 73.256C206.205 73.256 208.725 75.848 208.725 79.808C208.725 83.744 206.205 86.336 202.293 86.336C198.405 86.336 195.885 83.744 195.885 79.808ZM199.293 79.808C199.293 81.776 199.989 83.768 202.293 83.768C204.621 83.768 205.317 81.776 205.317 79.808C205.317 77.816 204.621 75.824 202.293 75.824C199.989 75.824 199.293 77.816 199.293 79.808ZM211.037 86V68.864H214.445V86H211.037ZM228.888 80.624H219.936C220.032 82.784 221.088 83.768 222.984 83.768C224.352 83.768 225.456 82.928 225.672 82.16H228.672C227.712 85.088 225.672 86.336 222.864 86.336C218.952 86.336 216.528 83.648 216.528 79.808C216.528 76.088 219.096 73.256 222.864 73.256C227.088 73.256 229.128 76.808 228.888 80.624ZM219.936 78.464H225.48C225.168 76.736 224.424 75.824 222.768 75.824C220.608 75.824 219.984 77.504 219.936 78.464ZM242.693 77.96H239.357C239.141 76.568 238.253 75.824 236.837 75.824C234.653 75.824 233.933 78.032 233.933 79.856C233.933 81.632 234.629 83.768 236.765 83.768C238.349 83.768 239.261 82.76 239.477 81.248H242.765C242.357 84.44 240.197 86.216 237.077 86.312L236.405 87.272H236.453C236.597 87.2 236.861 87.152 237.269 87.152C238.349 87.152 239.477 87.656 239.477 88.832C239.477 90.704 238.085 91.232 236.669 91.232C235.157 91.232 234.605 91.016 233.693 90.704L234.197 89.552C234.701 89.768 235.397 89.984 236.213 89.984C236.789 89.984 237.173 89.744 237.173 89.168C237.173 88.568 236.741 88.4 236.213 88.4C235.877 88.4 235.517 88.472 235.253 88.568L234.749 87.992L235.949 86.264C232.685 85.928 230.525 83.408 230.525 79.976C230.525 76.112 232.829 73.256 236.861 73.256C239.789 73.256 242.477 74.792 242.693 77.96ZM244.307 79.808C244.307 75.848 246.827 73.256 250.715 73.256C254.627 73.256 257.147 75.848 257.147 79.808C257.147 83.744 254.627 86.336 250.715 86.336C246.827 86.336 244.307 83.744 244.307 79.808ZM247.715 79.808C247.715 81.776 248.411 83.768 250.715 83.768C253.043 83.768 253.739 81.776 253.739 79.808C253.739 77.816 253.043 75.824 250.715 75.824C248.411 75.824 247.715 77.816 247.715 79.808ZM253.475 68.864H255.131C254.963 69.416 254.771 70.088 254.387 70.64C254.003 71.192 253.427 71.6 252.443 71.6C251.723 71.6 251.075 71.384 250.475 71.192C249.875 70.976 249.347 70.784 248.795 70.784C248.147 70.784 247.931 71.192 247.787 71.792H246.323C246.635 70.4 247.235 68.864 249.347 68.864C249.899 68.864 250.379 69.08 250.883 69.272C251.387 69.488 251.915 69.704 252.467 69.704C253.187 69.704 253.499 69.32 253.475 68.864ZM271.122 80.624H262.17C262.266 82.784 263.322 83.768 265.218 83.768C266.586 83.768 267.69 82.928 267.906 82.16H270.906C269.946 85.088 267.906 86.336 265.098 86.336C261.186 86.336 258.762 83.648 258.762 79.808C258.762 76.088 261.33 73.256 265.098 73.256C269.322 73.256 271.362 76.808 271.122 80.624ZM262.17 78.464H267.714C267.402 76.736 266.658 75.824 265.002 75.824C262.842 75.824 262.218 77.504 262.17 78.464ZM272.544 81.968H275.784C275.808 83.456 277.056 84.056 278.4 84.056C279.384 84.056 280.632 83.672 280.632 82.472C280.632 81.44 279.216 81.08 276.768 80.552C274.8 80.12 272.832 79.424 272.832 77.24C272.832 74.072 275.568 73.256 278.232 73.256C280.944 73.256 283.44 74.168 283.704 77.216H280.464C280.368 75.896 279.36 75.536 278.136 75.536C277.368 75.536 276.24 75.68 276.24 76.688C276.24 77.912 278.16 78.08 280.104 78.536C282.096 78.992 284.04 79.712 284.04 82.016C284.04 85.28 281.208 86.336 278.376 86.336C275.496 86.336 272.688 85.256 272.544 81.968ZM286.178 86V82.304H289.946V86H286.178Z" fill="#FFF100"/>
</svg>
