<svg width="276" height="56" viewBox="0 0 276 56" fill="none" xmlns="http://www.w3.org/2000/svg">
<path d="M20.4879 14.6502L17.2798 12.6135C18.0201 10.981 17.3085 8.93009 15.6623 7.88492C12.6864 5.99556 9.95983 7.81806 8.28487 10.4563C6.69031 12.9678 6.20095 16.2107 9.17684 18.1001C11.203 19.3864 13.2271 18.717 14.7399 16.8939L17.948 18.9306C15.2251 22.4731 11.1016 23.2309 7.40809 20.886C2.74374 17.9247 2.21095 12.7003 4.97128 8.35251C7.81201 3.87811 12.7667 2.13764 17.431 5.09897C20.7446 7.20272 22.2978 10.9132 20.4879 14.6502ZM18.8108 19.9081C20.6675 16.2246 24.2268 14.9951 27.8434 16.818C31.4823 18.6522 32.611 22.2447 30.7544 25.9282C28.909 29.5894 25.3496 30.819 21.7107 28.9848C18.0942 27.1619 16.9654 23.5693 18.8108 19.9081ZM21.9809 21.506C21.0582 23.3366 20.7716 25.5158 22.9148 26.5961C25.0802 27.6876 26.6616 26.161 27.5843 24.3304C28.5183 22.4775 28.8048 20.2982 26.6393 19.2067C24.4962 18.1265 22.9148 19.6531 21.9809 21.506ZM30.0307 32.6957L37.161 16.3316L40.4154 17.7497L33.2852 34.1138L30.0307 32.6957ZM49.311 34.267L40.5896 30.9664C39.8868 33.1061 40.5528 34.4541 42.3999 35.1532C43.7327 35.6575 45.1179 35.2462 45.6115 34.5777L48.5342 35.6838C46.5194 38.1824 44.0718 38.6461 41.3362 37.6107C37.525 36.1684 36.1545 32.6559 37.5703 28.9149C38.9419 25.2907 42.4879 23.4785 46.1588 24.8678C50.274 26.4252 50.9518 30.6378 49.311 34.267ZM41.386 28.862L46.7872 30.9061C47.1203 29.1076 46.7318 27.9448 45.1185 27.3342C43.0141 26.5378 41.7868 27.9445 41.386 28.862ZM63.5228 35.7938L60.2028 34.7674C60.4162 33.3156 59.7614 32.302 58.3522 31.8663C56.1787 31.1943 54.7828 33.1701 54.2215 34.9853C53.6751 36.7528 53.7105 39.0927 55.8362 39.7499C57.4126 40.2373 58.6304 39.5147 59.3106 38.0765L62.5827 39.0881C61.1411 42.2274 58.3183 43.3172 55.07 42.3129C51.344 41.1609 49.6484 37.7583 50.793 34.0562C51.9819 30.2108 55.1536 28.0774 59.1662 29.318C62.0801 30.2189 64.2826 32.5746 63.5228 35.7938ZM63.1474 44.3767L66.4146 31.8715L69.8493 32.7688L66.5821 45.2741L63.1474 44.3767ZM71.0942 28.0038L70.3549 30.8338L66.9202 29.9364L67.6595 27.1064L71.0942 28.0038ZM70.2787 39.5383C71.1547 35.5074 74.2932 33.4265 78.2509 34.2866C82.2329 35.1521 84.2246 38.3479 83.3486 42.3788C82.4778 46.3853 79.3393 48.4662 75.3572 47.6008C71.3996 46.7407 69.4079 43.5448 70.2787 39.5383ZM73.7477 40.2923C73.3123 42.2955 73.5801 44.4771 75.9253 44.9868C78.295 45.5018 79.4442 43.6281 79.8795 41.6249C80.3202 39.5972 80.0524 37.4156 77.6828 36.9006C75.3375 36.3909 74.1884 38.2646 73.7477 40.2923ZM84.2454 49.0989L86.2964 36.3376L89.6286 36.8732L89.343 38.6504L89.4171 38.6623C90.5358 37.3735 92.1772 36.9283 93.6582 37.1663C97.3854 37.7654 97.9861 40.0142 97.4783 43.1736L96.2168 51.0229L92.7118 50.4596L93.8702 43.2521C94.2074 41.154 93.7569 40.0181 92.1278 39.7563C90.2272 39.4508 89.2421 40.3813 88.8255 42.973L87.7505 49.6622L84.2454 49.0989ZM111.675 47.1678L102.407 46.1407C102.259 48.388 103.239 49.528 105.202 49.7455C106.618 49.9025 107.858 49.1594 108.17 48.3891L111.276 48.7333C109.946 51.6546 107.69 52.7126 104.783 52.3905C100.733 51.9416 98.5318 48.8806 98.9724 44.9049C99.3992 41.0535 102.383 38.416 106.284 38.8484C110.657 39.333 112.362 43.2445 111.675 47.1678ZM102.655 43.9044L108.395 44.5405C108.27 42.7156 107.604 41.6861 105.89 41.4961C103.654 41.2482 102.815 42.916 102.655 43.9044ZM119.631 49.157L123.004 49.2857C122.97 50.8355 124.245 51.5096 125.644 51.563C126.668 51.602 127.983 51.2519 128.03 50.0028C128.071 48.9286 126.612 48.4976 124.084 47.8508C122.053 47.323 120.032 46.5204 120.119 44.247C120.245 40.9494 123.125 40.2087 125.898 40.3145C128.721 40.4222 131.283 41.4706 131.437 44.6538L128.064 44.5251C128.017 43.1473 126.982 42.7325 125.708 42.6839C124.908 42.6534 123.728 42.7585 123.688 43.8078C123.64 45.0818 125.632 45.333 127.637 45.8848C129.692 46.4386 131.687 47.2652 131.596 49.6635C131.466 53.061 128.476 54.0478 125.529 53.9353C122.531 53.8209 119.651 52.5852 119.631 49.157ZM145.744 48.1926L136.419 48.2238C136.527 50.4735 137.63 51.4948 139.605 51.4882C141.03 51.4834 142.177 50.6045 142.4 49.8038L145.525 49.7933C144.535 52.8466 142.414 54.1538 139.489 54.1636C135.414 54.1772 132.88 51.3857 132.866 47.3858C132.853 43.5108 135.518 40.5518 139.443 40.5387C143.843 40.5239 145.981 44.2167 145.744 48.1926ZM136.412 45.9739L142.187 45.9545C141.856 44.1556 141.077 43.2082 139.352 43.214C137.102 43.2215 136.458 44.9737 136.412 45.9739ZM159.268 40.1503L159.972 53.0561L156.602 53.2399L156.504 51.4426L156.429 51.4467C155.609 52.9435 154.1 53.7269 152.602 53.8086C148.833 54.0142 147.768 51.9441 147.594 48.7489L147.161 40.8107L150.706 40.6173L151.103 47.9065C151.219 50.0283 151.9 51.0427 153.548 50.9529C155.47 50.848 156.235 49.7297 156.092 47.1086L155.723 40.3436L159.268 40.1503ZM161.62 48.732L164.978 48.399C165.156 49.939 166.511 50.4327 167.905 50.2946C168.925 50.1935 170.179 49.6672 170.056 48.4233C169.949 47.3536 168.445 47.1259 165.853 46.8301C163.768 46.5845 161.657 46.0653 161.433 43.8014C161.107 40.5175 163.859 39.3905 166.621 39.1168C169.432 38.8381 172.113 39.527 172.7 42.6594L169.341 42.9923C169.106 41.6339 168.024 41.3643 166.756 41.49C165.959 41.569 164.805 41.8341 164.909 42.879C165.034 44.1478 167.042 44.1246 169.104 44.3976C171.215 44.6656 173.305 45.2122 173.541 47.6005C173.877 50.9839 171.05 52.3695 168.114 52.6605C165.129 52.9564 162.107 52.1255 161.62 48.732ZM183.693 54.9836L180.645 37.7763L183.969 37.1878L184.257 38.8126L184.306 38.8038C184.903 37.3017 186.173 36.4421 187.748 36.1631C191.736 35.4569 194.104 38.3635 194.745 41.9822C195.346 45.3794 194.038 48.8863 190.321 49.5445C188.795 49.8148 187.224 49.4074 186.165 48.3001L186.116 48.3088L187.188 54.3646L183.693 54.9836ZM188.919 47.0762C191.208 46.6708 191.598 44.5706 191.232 42.5028C190.874 40.4842 189.691 38.5356 187.451 38.9323C185.162 39.3377 184.785 41.5117 185.151 43.5795C185.518 45.6474 186.654 47.4772 188.919 47.0762ZM196.063 41.5781C195.118 37.5629 197.054 34.3331 200.996 33.4048C204.963 32.4708 208.137 34.4972 209.082 38.5124C210.022 42.5033 208.086 45.7331 204.119 46.6671C200.177 47.5954 197.003 45.5689 196.063 41.5781ZM199.519 40.7644C199.989 42.7598 201.17 44.6134 203.506 44.0633C205.867 43.5075 206.097 41.3215 205.627 39.3261C205.151 37.3064 203.97 35.4528 201.609 36.0086C199.273 36.5587 199.043 38.7446 199.519 40.7644ZM212.886 44.1798L208.062 26.9943L211.479 26.0347L216.304 43.2203L212.886 44.1798ZM219.081 42.4031L215.277 30.0505L218.669 29.0057L222.474 41.3582L219.081 42.4031ZM219.71 23.2965L217.076 27.8224L214.71 28.5508L215.959 24.4517L219.71 23.2965ZM223.892 23.1437L225.158 26.8059L227.616 25.9561L228.392 28.2007L225.935 29.0505L228.026 35.099C228.419 36.2331 228.8 36.4185 229.934 36.0263C230.289 35.9038 230.611 35.7657 230.941 35.5723L231.848 38.1949C231.314 38.4855 230.59 38.7624 229.928 38.9912C227.872 39.7021 225.913 39.8506 225.072 37.417L222.58 30.2108L220.548 30.9135L219.771 28.6689L221.803 27.9662L220.537 24.304L223.892 23.1437ZM233.514 37.5427L228.895 25.4711L232.21 24.2025L236.829 36.2741L233.514 37.5427ZM230.451 19.6027L231.496 22.3346L228.18 23.6032L227.135 20.8713L230.451 19.6027ZM247.254 22.5892L244.076 23.9942C243.284 22.759 242.124 22.4241 240.775 23.0205C238.694 23.9403 238.938 26.3472 239.706 28.0849C240.454 29.777 242.017 31.5189 244.052 30.6193C245.561 29.9522 246.006 28.6077 245.575 27.0762L248.707 25.6915C249.68 29.006 248.266 31.6811 245.157 33.0558C241.59 34.6326 238.077 33.1787 236.51 29.6346C234.883 25.9532 235.875 22.2619 239.716 20.5638C242.506 19.3306 245.714 19.6619 247.254 22.5892ZM249.07 23.8307C247.107 20.2029 248.13 16.579 251.692 14.6513C255.276 12.7117 258.869 13.8369 260.833 17.4646C262.784 21.0704 261.761 24.6944 258.177 26.634C254.615 28.5617 251.021 27.4365 249.07 23.8307ZM252.192 22.141C253.168 23.9439 254.793 25.4237 256.904 24.2814C259.036 23.1272 258.686 20.9572 257.711 19.1543C256.723 17.3295 255.098 15.8496 252.965 17.0039C250.854 18.1462 251.204 20.3162 252.192 22.141ZM263.04 18.7756L265.861 16.9227C266.733 18.2045 268.162 18.0131 269.333 17.2445C270.189 16.6818 271.056 15.6337 270.37 14.589C269.78 13.6905 268.341 14.1868 265.908 15.1271C263.947 15.8765 261.836 16.396 260.587 14.4946C258.775 11.7364 260.69 9.46126 263.01 7.93773C265.371 6.38675 268.066 5.75332 270.039 8.25603L267.218 10.109C266.379 9.01464 265.296 9.27768 264.23 9.97768C263.561 10.4169 262.662 11.1874 263.238 12.065C263.938 13.1306 265.706 12.1789 267.659 11.4641C269.654 10.7219 271.759 10.237 273.076 12.2429C274.943 15.0847 273.081 17.6237 270.616 19.2433C268.108 20.8903 265.046 21.5559 263.04 18.7756Z" fill="#F4F4F4"/>
</svg>
