<svg width="344" height="58" viewBox="0 0 344 58" fill="none" xmlns="http://www.w3.org/2000/svg">
<path d="M11.5838 44.1985L9.73558 45.2472C8.73712 44.211 7.45011 43.7685 5.91241 44.641C3.65022 45.9246 3.83656 48.4576 4.98596 50.4833C6.13535 52.5089 8.21424 53.968 10.4764 52.6844C12.1176 51.7531 12.3232 50.0141 11.5985 48.3925L13.4024 47.369C14.6891 49.9812 13.8901 52.7411 11.3322 54.1925C8.16808 55.9879 4.84927 54.5482 3.13776 51.532C1.42626 48.5157 1.89255 44.9283 5.05666 43.1329C7.44552 41.7969 10.07 42.0473 11.5838 44.1985ZM17.1424 50.5981L13.0334 42.8287L14.6414 41.9783L15.4362 43.4811L15.4662 43.4652C15.2245 42.5353 15.7774 41.1083 16.8294 40.5519C17.2201 40.3453 17.3412 40.3197 17.4994 40.2552L18.3737 41.9083C18.1173 42.0054 17.838 42.0954 17.5976 42.2226C16.4254 42.8425 15.9944 44.282 16.9004 45.9952L18.8556 49.692L17.1424 50.5981ZM22.4755 47.79L18.4471 39.9786L20.1695 39.0904L24.198 46.9018L22.4755 47.79ZM17.7536 38.6339L16.912 37.0022L18.6345 36.1139L19.476 37.7456L17.7536 38.6339ZM29.681 40.9339L29.052 39.633C28.6865 40.244 27.8374 40.6357 27.1387 41.1434C26.448 41.6284 25.9077 42.2295 26.3517 43.1478C26.7291 43.9284 27.835 43.6769 28.4472 43.3809C29.2124 43.0109 30.2138 42.0358 29.681 40.9339ZM29.894 36.9222L31.8624 40.9933C32.0696 41.4218 32.2428 41.5458 32.5642 41.3904C32.6713 41.3386 32.8091 41.272 32.9779 41.1526L33.5625 42.3617C33.3467 42.5793 32.8476 42.9528 32.5568 43.0934C31.8527 43.4338 31.2293 43.4331 30.7437 42.7804C30.3806 43.7868 29.4039 44.6178 28.4703 45.0692C27.047 45.7574 25.3914 45.6137 24.644 44.0679C23.6894 42.0936 25.1104 41.01 26.4983 40.1312C27.6423 39.2949 28.8261 38.8924 28.3303 37.867C27.8938 36.964 26.8788 37.247 26.1747 37.5874C25.1952 38.061 24.6989 38.792 25.0368 39.686L23.292 40.5296C22.4302 38.4349 23.8711 37.0018 25.6159 36.1582C27.1617 35.4108 29.0874 35.2539 29.894 36.9222ZM34.2269 37.3293C34.845 38.7103 36.1389 39.7702 37.6751 39.0827C39.2578 38.3743 39.2791 36.6326 38.6541 35.2361C37.8624 33.4672 36.5367 32.794 35.1712 33.4052C33.5109 34.1483 33.5811 35.8863 34.2269 37.3293ZM37.201 27.4121L42.1596 38.491L40.4838 39.241L39.9977 38.1549L39.9667 38.1688C39.9109 39.2926 39.0759 40.1319 38.0674 40.5833C35.5381 41.7154 33.472 40.3865 32.3955 37.9814C31.0968 35.0798 32.2497 33.0365 34.0031 32.2517C35.0117 31.8003 36.2956 31.6727 37.2345 32.3141L37.2655 32.3002L35.4321 28.2038L37.201 27.4121ZM47.3328 34.9261C48.936 34.2653 49.0408 32.5121 48.4578 31.0975C47.8812 29.6987 46.5715 28.5285 44.9683 29.1892C43.3651 29.85 43.2603 31.6032 43.8369 33.0021C44.4199 34.4166 45.7296 35.5868 47.3328 34.9261ZM47.9158 36.3406C45.3068 37.416 43.0751 36.2396 42.0451 33.7406C41.0216 31.2572 41.7762 28.85 44.3853 27.7747C46.9944 26.6993 49.226 27.8757 50.2496 30.359C51.2796 32.8581 50.5249 35.2653 47.9158 36.3406ZM62.7907 25.7467C62.2512 24.2425 60.9563 23.0996 59.4521 23.6392C57.916 24.1902 57.5509 25.6396 58.1823 27.3998C58.7792 29.0639 60.075 30.0079 61.5472 29.4798C63.2113 28.8829 63.3073 27.1869 62.7907 25.7467ZM58.9993 35.2159L54.9355 23.8867L56.6636 23.2668L57.0654 24.3869L57.0974 24.3754C57.2708 23.2477 58.1194 22.4918 59.1756 22.1129C61.7838 21.1773 63.7597 22.7081 64.6264 25.1244C65.4243 27.3486 65.0561 29.8466 62.6078 30.7248C61.5517 31.1036 60.2778 31.1271 59.3746 30.4217L59.3426 30.4331L60.8235 34.5616L58.9993 35.2159ZM71.0817 26.2277C72.7314 25.6934 72.972 23.9536 72.5006 22.498C72.0344 21.0586 70.8194 19.7903 69.1698 20.3246C67.5202 20.8588 67.2795 22.5986 67.7457 24.038C68.2172 25.4936 69.4321 26.7619 71.0817 26.2277ZM71.5532 27.6832C68.8685 28.5527 66.7349 27.2067 65.902 24.6352C65.0744 22.0798 66.0137 19.7385 68.6984 18.869C71.3831 17.9995 73.5167 19.3456 74.3443 21.9009C75.1771 24.4724 74.2379 26.8137 71.5532 27.6832ZM77.2414 25.6201L74.7639 17.1876L76.5091 16.6748L76.9883 18.3059L77.0209 18.2963C76.9694 17.3369 77.7958 16.0487 78.9375 15.7133C79.3616 15.5887 79.4854 15.5877 79.6533 15.5561L80.1804 17.3503C79.9098 17.3943 79.6182 17.4269 79.3572 17.5035C78.085 17.8773 77.3756 19.202 77.922 21.0614L79.1008 25.0738L77.2414 25.6201ZM84.8176 15.8279L84.4494 14.4306L85.8631 14.058L85.1917 11.51L87.0657 11.0161L87.7371 13.5641L89.4303 13.1179L89.7986 14.5152L88.1054 14.9614L89.301 19.4985C89.5047 20.2712 89.6744 20.6484 90.5128 20.4274C90.7758 20.3581 91.0388 20.2888 91.2845 20.1537L91.6657 21.6003C91.2634 21.7415 90.8862 21.9112 90.4752 22.0195C88.519 22.5351 87.9581 21.8742 87.5527 20.4691L86.2314 15.4553L84.8176 15.8279ZM93.0232 21.2825L90.9639 12.7382L92.7323 12.3119L93.1306 13.9646L93.1636 13.9567C93.1594 12.9959 94.0482 11.75 95.2051 11.4711C95.6348 11.3676 95.7584 11.3727 95.9277 11.3494L96.3658 13.1674C96.0935 13.1981 95.8005 13.2162 95.5361 13.2799C94.247 13.5906 93.4733 14.8788 93.9274 16.7628L94.9073 20.8284L93.0232 21.2825ZM103.506 15.8574L103.198 14.4456C102.7 14.9545 101.783 15.1372 100.985 15.468C100.2 15.7784 99.5346 16.2369 99.7521 17.2334C99.9369 18.0805 101.071 18.094 101.735 17.949C102.566 17.7678 103.767 17.0532 103.506 15.8574ZM104.649 12.0061L105.613 16.4241C105.715 16.8892 105.854 17.0501 106.203 16.974C106.319 16.9486 106.469 16.916 106.661 16.8393L106.947 18.1514C106.687 18.3127 106.114 18.5594 105.799 18.6283C105.034 18.795 104.428 18.6489 104.109 17.9009C103.521 18.7948 102.377 19.375 101.364 19.5961C99.8192 19.9332 98.2428 19.4072 97.8767 17.7297C97.4092 15.5871 99.0438 14.865 100.598 14.3343C101.906 13.788 103.151 13.6728 102.908 12.56C102.694 11.5801 101.641 11.6185 100.877 11.7852C99.8143 12.0172 99.1611 12.6122 99.2811 13.5604L97.3876 13.9736C97.0384 11.7356 98.7739 10.6782 100.667 10.265C102.345 9.89895 104.254 10.1957 104.649 12.0061ZM113.988 12.3796C113.7 10.8078 112.608 9.46987 111.036 9.75807C109.431 10.0524 108.835 11.4233 109.172 13.2626C109.491 15.0016 110.617 16.1434 112.155 15.8613C113.894 15.5425 114.264 13.8845 113.988 12.3796ZM108.124 17.914L105.935 5.97498L107.841 5.62546L108.651 10.0399L108.684 10.0337C109.049 9.10264 110.041 8.38499 111.011 8.20717C113.736 7.70742 115.437 9.53865 115.9 12.0636C116.327 14.3878 115.558 16.7929 112.999 17.262C111.829 17.4766 110.523 17.4223 109.746 16.3895L109.712 16.3956L109.93 17.5828L108.124 17.914ZM123.211 12.3304L122.992 10.9022C122.463 11.3791 121.536 11.5043 120.719 11.7847C119.917 12.0456 119.224 12.4617 119.379 13.4699C119.51 14.3268 120.641 14.411 121.313 14.3077C122.154 14.1785 123.397 13.5402 123.211 12.3304ZM124.592 8.55787L125.279 13.0274C125.351 13.4979 125.48 13.6672 125.833 13.613C125.951 13.5949 126.102 13.5716 126.299 13.507L126.503 14.8344C126.232 14.9792 125.646 15.1898 125.326 15.2388C124.553 15.3576 123.958 15.174 123.685 14.4075C123.043 15.2631 121.865 15.7708 120.84 15.9284C119.277 16.1686 117.737 15.5454 117.476 13.8483C117.143 11.6808 118.819 11.0619 120.404 10.6291C121.743 10.1653 122.993 10.128 122.82 9.00223C122.667 8.01088 121.614 7.98359 120.841 8.10239C119.766 8.26767 119.077 8.82076 119.137 9.77462L117.222 10.069C117.013 7.81362 118.811 6.86648 120.726 6.57207C122.423 6.31122 124.31 6.72638 124.592 8.55787ZM127.689 14.6513L126.027 2.62762L127.947 2.3623L129.609 14.386L127.689 14.6513ZM131.704 14.1241L130.365 2.06011L132.292 1.84641L132.788 6.32394L132.822 6.32019C133.207 5.47358 134.138 4.7716 135.287 4.64413C137.18 4.43418 138.492 5.31486 138.709 7.27484L139.375 13.273L137.449 13.4867L136.839 7.99543C136.654 6.63058 136.048 6.09919 134.915 6.22479C133.631 6.36726 132.916 7.47289 133.058 8.75701L133.63 13.9104L131.704 14.1241ZM146.573 9.68879L146.456 8.24856C145.895 8.68658 144.961 8.74556 144.127 8.96708C143.308 9.17027 142.587 9.536 142.67 10.5526C142.74 11.4168 143.862 11.5812 144.54 11.526C145.387 11.457 146.673 10.9087 146.573 9.68879ZM148.219 6.02404L148.586 10.5311C148.625 11.0055 148.742 11.1836 149.098 11.1546C149.216 11.145 149.369 11.1326 149.569 11.0821L149.679 12.4207C149.399 12.5458 148.798 12.7141 148.476 12.7403C147.697 12.8038 147.116 12.5783 146.898 11.7943C146.197 12.602 144.986 13.0247 143.952 13.1089C142.377 13.2373 140.884 12.506 140.745 10.7947C140.567 8.60896 142.283 8.11095 143.895 7.79205C145.263 7.4247 146.513 7.47642 146.42 6.34118C146.339 5.34149 145.29 5.23932 144.51 5.30282C143.426 5.39117 142.699 5.89382 142.692 6.84958L140.76 7.00695C140.712 4.74238 142.573 3.92558 144.505 3.76821C146.216 3.62878 148.069 4.17716 148.219 6.02404ZM152.113 7.96672C152.192 9.47769 153.016 10.9329 154.697 10.8457C156.429 10.7559 157.077 9.13914 156.997 7.61119C156.897 5.67579 155.903 4.56979 154.409 4.6473C152.593 4.74155 152.031 6.38785 152.113 7.96672ZM158.464 -0.21031L159.093 11.9114L157.259 12.0065L157.198 10.8181L157.164 10.8199C156.706 11.848 155.625 12.3296 154.521 12.3869C151.754 12.5305 150.306 10.5458 150.17 7.91434C150.005 4.73961 151.817 3.24971 153.736 3.15018C154.839 3.09293 156.083 3.43697 156.727 4.37384L156.761 4.37207L156.529 -0.109898L158.464 -0.21031ZM165.203 10.4511C166.937 10.4126 167.667 8.815 167.633 7.28538C167.599 5.77275 166.799 4.20912 165.066 4.24759C163.332 4.28606 162.602 5.88365 162.636 7.39627C162.67 8.9259 163.47 10.4895 165.203 10.4511ZM165.237 11.9807C162.416 12.0433 160.758 10.1416 160.698 7.43927C160.639 4.75393 162.211 2.78058 165.032 2.71797C167.853 2.65535 169.511 4.55704 169.57 7.24238C169.63 9.94472 168.059 11.9181 165.237 11.9807ZM171.278 11.634L171.302 2.84503L173.121 2.85001L173.117 4.55001L173.151 4.5501C173.374 3.61571 174.533 2.61588 175.723 2.61914C176.165 2.62035 176.284 2.65468 176.454 2.67215L176.449 4.54214C176.177 4.50739 175.888 4.4556 175.616 4.45486C174.29 4.45122 173.233 5.51933 173.228 7.45732L173.216 11.6393L171.278 11.634ZM185.021 7.9749L178.563 7.81688C178.529 9.19347 179.247 10.4354 180.862 10.4749C181.983 10.5023 182.675 10.0261 183.039 9.06574L184.874 9.11065C184.402 11.0207 182.745 12.0514 180.824 12.0044C178.071 11.9371 176.572 9.97882 176.638 7.27663C176.699 4.77837 178.383 2.67693 181 2.74097C183.77 2.80875 185.408 5.34859 185.021 7.9749ZM178.594 6.54226L183.115 6.65287C183.077 5.42758 182.271 4.30253 180.962 4.27051C179.62 4.23766 178.677 5.2349 178.594 6.54226ZM186.067 9.08766L188.003 9.18775C188.047 10.3135 188.874 10.7649 189.91 10.8184C190.64 10.8562 191.921 10.7692 191.922 9.76494C191.924 8.74366 190.521 8.55195 189.128 8.15651C187.718 7.77717 186.352 7.19586 186.445 5.41324C186.544 3.49481 188.646 3.00771 190.242 3.09024C192.041 3.1833 193.632 4.01459 193.769 5.97927L191.749 5.87479C191.626 4.94924 190.876 4.65507 190.027 4.61117C189.467 4.5822 188.424 4.66446 188.384 5.42844C188.335 6.37917 189.754 6.58874 191.164 6.98506C192.556 7.3805 193.956 7.96356 193.866 9.69525C193.758 11.7835 191.614 12.4386 189.797 12.3446C187.59 12.2305 185.994 11.1607 186.067 9.08766ZM207.122 9.04982C207.276 7.45918 206.591 5.87328 205.001 5.72005C203.376 5.56356 202.428 6.71896 202.249 8.58034C202.079 10.3402 202.849 11.7465 204.406 11.8965C206.166 12.066 206.976 10.5728 207.122 9.04982ZM199.656 15.9989L200.81 4.01832L202.637 4.19437L202.523 5.37889L202.557 5.38215C203.195 4.43594 204.285 4.11396 205.401 4.22155C208.16 4.48726 209.294 6.71433 209.048 9.2695C208.822 11.6216 207.424 13.7242 204.834 13.4748C203.718 13.3672 202.555 12.8454 202.039 11.8222L202.005 11.8189L201.585 16.1847L199.656 15.9989ZM216.007 11.5294L216.187 10.0957C215.548 10.4094 214.622 10.2759 213.76 10.3217C212.916 10.3527 212.136 10.563 212.009 11.5751C211.901 12.4353 212.965 12.8262 213.64 12.911C214.483 13.017 215.854 12.7439 216.007 11.5294ZM218.369 8.27968L217.804 12.7664C217.745 13.2386 217.823 13.4369 218.177 13.4814C218.295 13.4963 218.447 13.5154 218.654 13.5071L218.486 14.8396C218.187 14.9047 217.565 14.9465 217.244 14.9062C216.468 14.8086 215.946 14.4688 215.893 13.6569C215.041 14.3037 213.769 14.4693 212.741 14.34C211.172 14.1427 209.861 13.1212 210.075 11.4177C210.349 9.24179 212.131 9.10601 213.773 9.12405C215.188 9.04493 216.4 9.35155 216.543 8.22144C216.668 7.22628 215.662 6.91138 214.886 6.81383C213.807 6.67811 212.992 7.02122 212.789 7.95519L210.867 7.71343C211.284 5.48706 213.272 5.06887 215.195 5.31062C216.899 5.52481 218.6 6.44115 218.369 8.27968ZM219.625 14.9894L220.922 6.29663L222.722 6.56508L222.471 8.24646L222.504 8.25148C222.861 7.35933 224.152 6.53792 225.329 6.71354C225.766 6.77878 225.879 6.82997 226.045 6.87187L225.769 8.72139C225.505 8.64762 225.226 8.55453 224.957 8.51439C223.646 8.31869 222.445 9.22241 222.159 11.1392L221.542 15.2754L219.625 14.9894ZM231.382 13.9122L231.63 12.4886C230.977 12.7718 230.059 12.5946 229.195 12.5995C228.351 12.5905 227.562 12.7636 227.387 13.7685C227.238 14.6226 228.283 15.0635 228.953 15.1801C229.79 15.326 231.172 15.1181 231.382 13.9122ZM233.895 10.7779L233.119 15.2329C233.038 15.7018 233.106 15.9035 233.458 15.9648C233.575 15.9852 233.726 16.0115 233.933 16.013L233.702 17.3361C233.4 17.387 232.777 17.3992 232.458 17.3438C231.688 17.2096 231.182 16.8454 231.168 16.032C230.286 16.6376 229.008 16.7429 227.987 16.5649C226.429 16.2937 225.168 15.2112 225.463 13.5197C225.839 11.3592 227.625 11.308 229.265 11.4038C230.682 11.3917 231.879 11.7554 232.074 10.6333C232.246 9.64518 231.257 9.28302 230.486 9.14884C229.414 8.96215 228.585 9.26633 228.338 10.1896L226.429 9.8571C226.95 7.65296 228.957 7.32941 230.866 7.66195C232.558 7.95656 234.213 8.95242 233.895 10.7779ZM240.156 11.0826L240.46 9.66985L241.889 9.97718L242.443 7.40106L244.338 7.80845L243.784 10.3846L245.496 10.7527L245.192 12.1654L243.48 11.7973L242.494 16.3845C242.326 17.1656 242.306 17.5788 243.154 17.761C243.42 17.8182 243.686 17.8754 243.966 17.8661L243.652 19.3287C243.229 19.2726 242.816 19.2533 242.4 19.1639C240.423 18.7387 240.221 17.8955 240.495 16.459L241.585 11.3899L240.156 11.0826ZM245.007 19.6551L247 11.0949L248.771 11.5072L248.386 13.1629L248.419 13.1706C248.846 12.3101 250.199 11.5952 251.358 11.8649C251.789 11.9651 251.897 12.0252 252.059 12.0803L251.635 13.9016C251.378 13.8069 251.108 13.6917 250.843 13.63C249.551 13.3295 248.282 14.1337 247.843 16.0212L246.895 20.0944L245.007 19.6551ZM256.81 19.512L257.169 18.1122C256.495 18.3433 255.594 18.0948 254.732 18.0321C253.892 17.9571 253.091 18.0679 252.838 19.056C252.623 19.8959 253.63 20.4171 254.289 20.5859C255.112 20.7968 256.506 20.6977 256.81 19.512ZM259.561 16.5841L258.438 20.9646C258.32 21.4257 258.373 21.6322 258.719 21.7208C258.834 21.7503 258.982 21.7883 259.188 21.806L258.855 23.1069C258.549 23.134 257.927 23.0974 257.614 23.0173C256.857 22.8232 256.381 22.4205 256.431 21.6085C255.504 22.1433 254.222 22.1482 253.217 21.8908C251.686 21.4984 250.513 20.3206 250.939 18.6574C251.484 16.533 253.268 16.6217 254.896 16.8456C256.309 16.9445 257.474 17.4007 257.756 16.2973C258.005 15.3257 257.047 14.8872 256.29 14.6931C255.236 14.4231 254.385 14.6614 254.066 15.5625L252.189 15.0816C252.882 12.9251 254.907 12.7596 256.785 13.2405C258.448 13.6666 260.021 14.789 259.561 16.5841ZM267.728 21.071C268.169 19.5351 267.786 17.8509 266.251 17.4097C264.682 16.9591 263.539 17.9219 263.022 19.7192C262.534 21.4185 263.034 22.9417 264.537 23.3735C266.237 23.8617 267.306 22.5415 267.728 21.071ZM260.014 23.4184L263.365 11.7522L265.228 12.2873L263.989 16.6009L264.022 16.6102C264.763 15.9388 265.97 15.7374 266.918 16.0096C269.581 16.7747 270.29 19.1715 269.581 21.6388C268.929 23.9099 267.17 25.7218 264.67 25.0036C263.527 24.6751 262.381 24.0453 262.145 22.7746L262.112 22.7652L261.779 23.9253L260.014 23.4184ZM276.014 25.1638L276.459 23.7892C275.772 23.9777 274.888 23.6734 274.032 23.5569C273.198 23.4295 272.392 23.4901 272.078 24.4604C271.811 25.2852 272.783 25.8684 273.43 26.078C274.239 26.34 275.636 26.3282 276.014 25.1638ZM278.942 22.4135L277.548 26.7153C277.401 27.1681 277.441 27.3775 277.78 27.4875C277.894 27.5242 278.039 27.5713 278.244 27.6019L277.83 28.8795C277.523 28.8875 276.905 28.812 276.597 28.7125C275.853 28.4714 275.403 28.0398 275.504 27.2325C274.546 27.7083 273.266 27.6331 272.279 27.3134C270.775 26.8261 269.679 25.5773 270.208 23.9439C270.884 21.8577 272.66 22.0578 274.27 22.3829C275.675 22.57 276.808 23.0981 277.159 22.0145C277.468 21.0604 276.539 20.5628 275.795 20.3218C274.76 19.9865 273.896 20.1711 273.522 21.0506L271.678 20.4532C272.505 18.3442 274.537 18.3056 276.38 18.903C278.014 19.4322 279.513 20.6507 278.942 22.4135ZM278.97 29.2553L282.958 17.7912L284.789 18.4279L280.801 29.892L278.97 29.2553ZM282.789 30.6032L286.984 19.2131L288.802 19.8829L287.245 24.1103L287.277 24.1221C288 23.5368 289.147 23.3251 290.232 23.7246C292.018 24.3826 292.798 25.7569 292.117 27.6074L290.031 33.2705L288.213 32.6008L290.122 27.4162C290.566 26.1123 290.261 25.366 289.192 24.9723C287.98 24.5258 286.846 25.1951 286.399 26.4075L284.607 31.273L282.789 30.6032ZM298.073 33.2948L298.615 31.955C297.916 32.0947 297.056 31.7287 296.21 31.5522C295.387 31.3663 294.579 31.3698 294.197 32.3156C293.872 33.1195 294.801 33.7698 295.432 34.0245C296.22 34.3429 297.615 34.4297 298.073 33.2948ZM301.188 30.7579L299.495 34.9507C299.316 35.392 299.341 35.6036 299.672 35.7373C299.782 35.7819 299.924 35.8392 300.126 35.8841L299.623 37.1293C299.317 37.1157 298.705 36.9968 298.405 36.8758C297.68 36.5829 297.262 36.1206 297.419 35.3224C296.43 35.7294 295.158 35.5641 294.197 35.1757C292.731 34.5835 291.725 33.2605 292.368 31.6685C293.19 29.6351 294.947 29.96 296.53 30.3979C297.918 30.6836 299.011 31.2903 299.438 30.2342C299.814 29.3042 298.922 28.7424 298.197 28.4495C297.188 28.042 296.314 28.1652 295.878 29.0161L294.081 28.2902C295.054 26.2447 297.084 26.3495 298.881 27.0754C300.473 27.7185 301.882 29.0398 301.188 30.7579ZM303.804 34.2502C303.193 35.6343 303.273 37.305 304.813 37.9846C306.399 38.6847 307.706 37.5335 308.324 36.1338C309.106 34.3608 308.718 32.9257 307.349 32.3216C305.685 31.5871 304.442 32.8038 303.804 34.2502ZM313.158 29.8124L308.257 40.9169L306.577 40.1756L307.058 39.0869L307.027 39.0732C306.155 39.7849 304.972 39.7275 303.962 39.2813C301.426 38.1625 301.028 35.7383 302.092 33.3277C303.376 30.4193 305.665 29.906 307.423 30.6816C308.434 31.1278 309.389 31.9953 309.542 33.122L309.573 33.1358L311.385 29.0299L313.158 29.8124ZM314.37 42.3674C315.935 43.1145 317.306 42.0173 317.965 40.6366C318.617 39.2712 318.608 37.5148 317.043 36.7678C315.478 36.0208 314.107 37.118 313.455 38.4834C312.796 39.8641 312.805 41.6204 314.37 42.3674ZM313.711 43.7482C311.164 42.5324 310.541 40.0877 311.706 37.6484C312.863 35.2245 315.155 34.1713 317.702 35.3871C320.249 36.6028 320.871 39.0475 319.714 41.4715C318.55 43.9108 316.257 44.9639 313.711 43.7482ZM319.259 46.1618L323.244 38.328L324.865 39.1527L324.095 40.6679L324.125 40.6834C324.746 39.9502 326.231 39.5803 327.292 40.1198C327.686 40.3202 327.776 40.4045 327.92 40.4967L327.072 42.1634C326.845 42.0098 326.611 41.8333 326.368 41.71C325.186 41.1088 323.761 41.5856 322.883 43.3129L320.987 47.0404L319.259 46.1618ZM333.175 49.1005L327.484 46.0429C326.833 47.2559 326.912 48.6882 328.335 49.4526C329.323 49.9836 330.156 49.8712 330.914 49.1785L332.531 50.0475C331.247 51.5386 329.303 51.7096 327.611 50.8003C325.185 49.4968 324.731 47.0724 326.011 44.6913C327.193 42.49 329.645 41.3756 331.951 42.6147C334.392 43.9263 334.707 46.9322 333.175 49.1005ZM328.088 44.9198L332.071 47.0601C332.591 45.9497 332.38 44.582 331.227 43.9625C330.044 43.3268 328.752 43.7908 328.088 44.9198ZM333.607 50.5666L335.288 51.5307C334.818 52.5548 335.353 53.3316 336.252 53.8474C336.886 54.2111 338.069 54.7127 338.523 53.8172C338.986 52.907 337.822 52.1018 336.758 51.1197C335.672 50.1439 334.716 49.008 335.604 47.4595C336.56 45.7931 338.655 46.3087 340.041 47.1037C341.604 48.0001 342.648 49.4609 341.882 51.2752L340.127 50.2688C340.436 49.3879 339.899 48.7861 339.162 48.3633C338.675 48.0842 337.708 47.6863 337.328 48.3499C336.854 49.1757 338.025 50.0041 339.103 50.9947C340.167 51.9768 341.152 53.1296 340.289 54.6338C339.249 56.4477 337.04 56.0627 335.462 55.1578C333.544 54.0584 332.605 52.3827 333.607 50.5666Z" fill="#FFF100"/>
</svg>
