<svg width="360" height="118" viewBox="0 0 360 118" fill="none" xmlns="http://www.w3.org/2000/svg">
<path d="M6.12287 21.1023L7.84801 20.1306L7.81856 20.0783C5.86893 20.0403 4.38764 18.8776 3.41588 17.1525C1.11899 13.0749 3.50254 9.1154 7.24033 7.00992C10.8736 4.96334 15.3791 5.07665 17.6171 9.04968C18.5153 10.6441 18.7191 12.5952 17.8572 14.1826L17.8866 14.2349L24.6826 10.4067L26.7734 14.1184L8.11056 24.631L6.12287 21.1023ZM12.8894 17.2219C15.085 15.9851 16.7344 14.0231 15.3798 11.6184C14.0105 9.1875 11.4483 9.52896 9.22653 10.7805C7.10932 11.9731 5.43233 14.1917 6.72801 16.4919C8.11203 18.9489 10.6676 18.4734 12.8894 17.2219ZM23.7638 35.5207L17.3388 26.359C15.1972 28.0075 14.948 29.7945 16.3088 31.7349C17.2906 33.1349 18.9426 33.6619 19.8837 33.3318L22.0368 36.402C18.3512 37.521 15.6098 36.3289 13.5945 33.4552C10.7868 29.4515 11.7981 25.0416 15.728 22.2855C19.5351 19.6157 24.2765 20.2113 26.9809 24.0675C30.0125 28.3904 27.8414 33.0275 23.7638 35.5207ZM19.5494 24.8088L23.5284 30.4826C25.073 28.9231 25.4724 27.5071 24.2838 25.8123C22.7336 23.6018 20.5664 24.1689 19.5494 24.8088ZM46.8033 48.2078L31.5021 62.5471L28.5892 59.4387L33.996 54.3717L33.955 54.328C32.0522 54.7544 30.1538 53.7377 28.8819 52.3805C26.9331 50.3009 25.8997 46.1711 30.2778 42.0683C33.3861 39.1553 37.858 38.0482 41.0787 41.4849C42.3916 42.8859 43.1394 44.693 42.5482 46.5628L42.5892 46.6066L44.0339 45.2527L46.8033 48.2078ZM33.2564 45.1151C31.4395 46.8178 30.26 49.1567 32.1678 51.1924C34.0551 53.2063 36.4189 52.3067 38.2796 50.563C40.0527 48.9014 41.3007 46.4162 39.4749 44.468C37.5876 42.4541 35.0952 43.392 33.2564 45.1151ZM58.9619 59.042L48.7013 70.673L45.6642 67.9937L47.0931 66.3739L47.0256 66.3144C45.0646 66.9048 43.1141 66.3042 41.7643 65.1134C38.3672 62.1166 39.1993 59.4502 41.7396 56.5706L48.0507 49.4165L51.2453 52.2347L45.4502 58.8038C43.7633 60.7161 43.4921 62.1571 44.977 63.467C46.7092 64.9952 48.305 64.6827 50.3889 62.3205L55.7673 56.2238L58.9619 59.042ZM67.0392 75.9745L58.018 69.3537C56.5172 71.6014 56.8536 73.374 58.7643 74.7763C60.1428 75.788 61.8766 75.7581 62.6623 75.1439L65.6855 77.3626C62.5525 79.6032 59.5738 79.3521 56.7441 77.2754C52.8019 74.3821 52.3472 69.8806 55.1872 66.0109C57.9384 62.2622 62.6208 61.3076 66.4179 64.0943C70.6745 67.2183 70.1033 72.3065 67.0392 75.9745ZM59.6155 67.177L65.2023 71.2773C66.1659 69.3052 66.0907 67.8359 64.4219 66.6112C62.2452 65.0137 60.3739 66.2451 59.6155 67.177ZM65.2973 82.7928L73.0332 69.3497L76.5175 71.3548L75.47 73.1749L75.5221 73.2048C77.2772 72.3803 79.1451 72.3823 80.8873 73.3848C82.5774 74.3574 83.7264 75.8493 83.5268 77.8804C84.9802 77.1592 86.9978 76.9011 88.8699 77.9785C91.7301 79.6244 93.0212 82.1326 91.0161 85.6169L85.8389 94.6136L82.1466 92.4888L86.5308 84.8702C87.5632 83.0761 88.2601 81.5042 86.154 80.2922C84.0738 79.0951 82.6962 80.5868 81.7236 82.277L77.4142 89.7656L73.7219 87.6408L78.0612 80.1002C78.959 78.5401 80.0955 76.8058 77.7553 75.4591C77.0272 75.0401 74.9898 74.4907 73.4785 77.1169L68.9896 84.9175L65.2973 82.7928ZM96.415 99.581L102.038 85.1264L105.813 86.5948L105.03 88.6078L105.114 88.6405C106.751 87.4104 108.789 87.302 110.467 87.9546C114.688 89.5971 114.826 92.3869 113.434 95.9656L109.975 104.856L106.005 103.312L109.181 95.148C110.106 92.7715 109.863 91.3253 108.018 90.6074C105.865 89.7699 104.475 90.6131 103.333 93.5488L100.385 101.126L96.415 99.581ZM123.988 102.865L124.436 101.34C123.568 101.741 122.12 101.347 120.786 101.205C119.444 101.091 118.165 101.184 117.725 102.681C117.277 104.206 118.347 104.928 119.671 105.317C122.865 106.256 123.725 103.757 123.988 102.865ZM119.971 96.7435L115.884 95.5418C117.24 91.7815 121.004 91.6374 124.343 92.6191C127.307 93.4908 130.681 95.2022 129.632 98.7711L127.355 106.513C126.958 107.866 126.704 109.261 126.9 109.976L122.756 108.757C122.747 108.254 122.776 107.731 122.891 107.233C121.198 108.205 119.155 108.136 117.341 107.603C114.521 106.773 112.69 104.703 113.588 101.652C114.578 98.2845 117.347 98.2234 119.982 98.6227C122.596 98.9849 124.902 99.7567 125.393 98.0874C125.909 96.3317 124.776 95.7172 123.337 95.2941C121.783 94.8371 120.589 95.1741 119.971 96.7435ZM129.086 88.2914L131.072 88.8754C130.676 89.4781 130.209 90.2163 129.553 90.7429C128.898 91.2694 128.064 91.5556 126.884 91.2086C126.02 90.9547 125.319 90.4672 124.667 90.0254C124.024 89.5548 123.459 89.1383 122.797 88.9437C122.019 88.7152 121.617 89.1283 121.232 89.7971L119.477 89.2808C120.342 87.7215 121.603 86.0911 124.136 86.8358C124.798 87.0305 125.297 87.4587 125.834 87.8667C126.362 88.3035 126.919 88.7487 127.581 88.9434C128.444 89.1972 128.954 88.8468 129.086 88.2914ZM130.665 102.944C131.658 98.0944 135.395 95.5524 140.156 96.5278C144.946 97.5091 147.382 101.315 146.389 106.165C145.401 110.985 141.665 113.526 136.875 112.545C132.113 111.57 129.678 107.764 130.665 102.944ZM134.838 103.799C134.345 106.209 134.697 108.822 137.519 109.4C140.37 109.984 141.722 107.72 142.215 105.31C142.715 102.87 142.362 100.256 139.512 99.6725C136.69 99.0945 135.338 101.359 134.838 103.799ZM155.961 115.233L156.831 99.7479L160.845 99.9735L160.727 102.07L160.787 102.074C161.985 100.548 163.654 99.7108 165.661 99.8236C167.608 99.933 169.305 100.75 170.039 102.654C171.014 101.356 172.7 100.219 174.857 100.341C178.151 100.526 180.432 102.186 180.206 106.2L179.624 116.564L175.37 116.325L175.864 107.548C175.98 105.482 175.896 103.764 173.47 103.628C171.074 103.493 170.513 105.445 170.404 107.392L169.919 116.018L165.666 115.779L166.154 107.093C166.255 105.296 166.491 103.236 163.795 103.084C162.957 103.037 160.889 103.462 160.719 106.487L160.214 115.473L155.961 115.233ZM197.346 109.202L186.168 109.713C186.411 112.405 187.786 113.573 190.153 113.465C191.861 113.387 193.192 112.275 193.418 111.304L197.164 111.132C196.132 114.843 193.656 116.518 190.15 116.679C185.265 116.902 182.085 113.684 181.865 108.889C181.653 104.244 184.698 100.561 189.403 100.346C194.677 100.104 197.428 104.423 197.346 109.202ZM186.044 107.016L192.967 106.699C192.479 104.56 191.498 103.463 189.43 103.558C186.733 103.681 186.049 105.815 186.044 107.016ZM200.164 115.695L198.451 100.28L202.476 99.8326L202.794 102.695L202.854 102.688C203.414 100.664 205.352 99.0906 207.409 98.862C207.708 98.8289 208.072 98.8488 208.35 98.9085L208.788 102.844C208.39 102.798 207.757 102.808 207.25 102.864C204.149 103.209 203.324 105.564 203.626 108.277L204.398 115.225L200.164 115.695ZM224.486 105.137L213.474 107.122C214.071 109.758 215.588 110.734 217.92 110.314C219.603 110.01 220.775 108.732 220.871 107.74L224.561 107.075C224.029 110.889 221.796 112.877 218.342 113.499C213.529 114.367 209.952 111.597 209.1 106.873C208.276 102.297 210.807 98.2438 215.442 97.4085C220.639 96.4722 223.936 100.39 224.486 105.137ZM212.995 104.464L219.815 103.235C219.048 101.179 217.931 100.222 215.894 100.589C213.236 101.068 212.841 103.273 212.995 104.464ZM239.796 97.6883L235.765 98.7564C235.058 97.1436 233.747 96.5289 232.036 96.9823C229.397 97.6815 229.234 100.58 229.818 102.784C230.387 104.93 231.911 107.288 234.492 106.604C236.406 106.097 237.186 104.587 236.962 102.691L240.935 101.638C241.466 105.749 239.287 108.654 235.344 109.699C230.82 110.898 226.929 108.515 225.738 104.02C224.501 99.3511 226.371 95.1626 231.243 93.8717C234.781 92.9342 238.52 93.9296 239.796 97.6883ZM256.322 95.3639L245.784 99.1263C246.805 101.629 248.462 102.343 250.694 101.546C252.304 100.972 253.251 99.5187 253.182 98.5238L256.714 97.2629C256.814 101.113 254.937 103.44 251.632 104.62C247.026 106.264 243.043 104.119 241.429 99.598C239.866 95.2187 241.698 90.8055 246.134 89.2219C251.107 87.4466 255.001 90.7708 256.322 95.3639ZM244.876 96.5835L251.403 94.2534C250.309 92.3503 249.05 91.5894 247.101 92.2854C244.558 93.1932 244.529 95.4332 244.876 96.5835ZM265.629 93.2114L269.25 91.3983C270.11 93.048 271.841 93.0202 273.343 92.2681C274.443 91.7174 275.623 90.5898 274.951 89.2486C274.374 88.0951 272.589 88.4851 269.558 89.2649C267.116 89.8834 264.527 90.2068 263.305 87.7656C261.532 84.2247 264.133 81.7815 267.111 80.2906C270.142 78.7729 273.443 78.3955 275.443 81.6546L271.822 83.4678C270.976 82.0461 269.648 82.2078 268.28 82.8928C267.421 83.3226 266.241 84.1148 266.805 85.2415C267.49 86.6096 269.73 85.7229 272.158 85.1446C274.64 84.5396 277.216 84.2564 278.505 86.8317C280.332 90.4799 277.757 93.2451 274.592 94.83C271.373 96.4417 267.63 96.806 265.629 93.2114ZM291.957 76.6695L282.399 82.4882C283.905 84.7321 285.672 85.0963 287.697 83.8639C289.157 82.9747 289.79 81.3603 289.522 80.3999L292.725 78.4499C293.603 82.2001 292.236 84.8586 289.238 86.6838C285.061 89.2266 280.726 87.9322 278.23 83.8322C275.812 79.8603 276.713 75.1674 280.736 72.7182C285.246 69.9726 289.733 72.4391 291.957 76.6695ZM280.995 80.182L286.914 76.5784C285.458 74.9362 284.071 74.4461 282.303 75.5224C279.996 76.9264 280.422 79.1258 280.995 80.182ZM300.047 59.8643L309.242 72.3545L305.981 74.7556L304.7 73.0162L304.628 73.0695C304.79 75.1111 303.79 76.8902 302.34 77.9574C298.692 80.6431 296.262 79.2654 293.986 76.1731L288.33 68.4905L291.76 65.9649L296.954 73.0193C298.466 75.0728 299.817 75.6429 301.411 74.469C303.272 73.0995 303.304 71.4737 301.436 68.937L296.616 62.3899L300.047 59.8643ZM317.339 44.1311L324.281 58.9611L320.859 62.241L306.294 54.718L309.521 51.625L319.209 57.0076L319.253 56.9661L314.286 47.058L317.339 44.1311ZM323.084 49.2894C319.355 46.0348 318.985 41.5312 322.18 37.8693C325.395 34.1849 329.907 33.9418 333.637 37.1964C337.344 40.4312 337.714 44.9349 334.499 48.6193C331.304 52.2812 326.791 52.5243 323.084 49.2894ZM325.885 46.0797C327.739 47.6971 330.187 48.6788 332.08 46.5088C333.994 44.3162 332.69 42.0236 330.836 40.4061C328.96 38.769 326.512 37.7873 324.599 39.9799C322.705 42.1499 324.009 44.4425 325.885 46.0797ZM328.246 23.7519L331.975 26.5298L333.839 24.0278L336.125 25.7304L334.261 28.2324L340.42 32.8205C341.574 33.6807 342.078 33.6071 342.938 32.4523C343.207 32.0914 343.434 31.7367 343.631 31.322L346.301 33.3114C345.967 33.9605 345.436 34.7242 344.934 35.3978C343.375 37.4909 341.531 38.9609 339.053 37.1149L331.716 31.6487L330.174 33.7177L327.889 32.0151L329.43 29.9461L325.701 27.1682L328.246 23.7519ZM340.566 27.892C336.372 25.263 335.3 20.8733 337.881 16.7553C340.478 12.612 344.896 11.6637 349.09 14.2926C353.259 16.9056 354.332 21.2954 351.735 25.4387C349.153 29.5567 344.735 30.5049 340.566 27.892ZM342.829 24.2824C344.913 25.5889 347.485 26.1742 349.015 23.7339C350.56 21.2682 348.912 19.2086 346.828 17.9021C344.718 16.5797 342.146 15.9945 340.601 18.4601C339.071 20.9004 340.719 22.96 342.829 24.2824ZM357.093 15.8423L353.003 13.6928L355.194 9.52363L359.284 11.6731L357.093 15.8423Z" fill="#F4F4F4"/>
</svg>
