<svg width="170" height="172" viewBox="0 0 170 172" fill="none" xmlns="http://www.w3.org/2000/svg">
<rect width="170" height="172" rx="29" fill="#0000CC"/>
<path d="M84.5 20C48.3348 20 19 49.519 19 86C19 122.481 48.3348 152 84.5 152C120.665 152 150 122.441 150 86C150 49.5588 120.665 20 84.5 20ZM110.281 53.2984H102.622C95.0811 53.2984 92.7122 58.0325 92.7122 62.8861V74.3834H109.571L106.886 92.0868H92.7122V134.933H73.682V92.0868H58.2447V74.3834H73.682V60.8969C73.682 45.5407 82.7628 37.0669 96.6603 37.0669C103.333 37.0669 110.281 38.2604 110.281 38.2604V53.3382V53.2984Z" fill="#F4F4F4"/>
</svg>
