<svg width="393" height="137" viewBox="0 0 393 137" fill="none" xmlns="http://www.w3.org/2000/svg">
<path d="M-1 0H393V77H-1V0Z" fill="#FFCE00"/>
<path d="M394 68.5C394 106.332 305.352 137 196 137C86.6476 137 -2 106.332 -2 68.5C-2 30.6685 86.6476 0 196 0C305.352 0 394 30.6685 394 68.5Z" fill="#FFCE00"/>
<path d="M161.199 33.821L159.698 37.1861C159.439 37.7532 159.231 38.1368 159.072 38.337C158.914 38.5288 158.739 38.6247 158.547 38.6247C158.363 38.6247 158.201 38.5455 158.059 38.387C157.967 38.2869 157.754 37.92 157.421 37.2862C157.096 36.6523 156.825 36.0894 156.608 35.5973L154.956 31.8819C154.731 31.3649 154.494 31.1063 154.243 31.1063C153.977 31.1063 153.831 31.3273 153.806 31.7694C153.747 32.7535 153.718 33.6625 153.718 34.4965C153.718 35.3638 153.76 35.9518 153.843 36.2604C153.901 36.4438 153.977 36.5773 154.068 36.6607C154.168 36.7441 154.431 36.8942 154.856 37.111C155.132 37.2528 155.269 37.4988 155.269 37.8491C155.269 38.7832 154.072 39.2502 151.679 39.2502C149.661 39.2502 148.652 38.7957 148.652 37.8866C148.652 37.6531 148.702 37.4863 148.802 37.3862C148.91 37.2778 149.181 37.1194 149.615 36.9109C149.89 36.7858 150.073 36.6148 150.165 36.398C150.265 36.1811 150.349 35.76 150.415 35.1345C150.49 34.4673 150.561 33.3748 150.628 31.8569C150.695 30.3307 150.728 29.0255 150.728 27.9414C150.728 26.582 150.624 25.6604 150.415 25.1767C150.34 25.0099 150.253 24.8848 150.153 24.8014C150.061 24.718 149.882 24.6096 149.615 24.4762C149.023 24.1926 148.727 23.8257 148.727 23.3753C148.727 23.0834 148.835 22.8165 149.052 22.5747C149.277 22.3328 149.573 22.1619 149.94 22.0618C150.307 21.9534 150.795 21.8616 151.404 21.7866C152.021 21.7032 152.542 21.6615 152.967 21.6615C154.035 21.6615 154.79 21.749 155.232 21.9242C155.449 22.0076 155.619 22.1202 155.745 22.2619C155.87 22.4037 156.049 22.6956 156.282 23.1376L158.885 27.9289C159.168 28.4543 159.364 28.7754 159.472 28.8921C159.581 29.0089 159.731 29.0672 159.923 29.0672C160.09 29.0672 160.236 29.0047 160.361 28.8796C160.494 28.7545 160.648 28.521 160.824 28.1791L162.587 24.7389C162.804 24.2969 162.946 24.0091 163.013 23.8757C163.421 23.0417 163.826 22.4871 164.226 22.2119C164.735 21.8533 165.661 21.674 167.003 21.674C169.364 21.674 170.544 22.2119 170.544 23.2877C170.544 23.5296 170.498 23.7256 170.406 23.8757C170.314 24.0175 170.127 24.1926 169.843 24.4011C169.459 24.693 169.218 25.1142 169.118 25.6646C168.926 26.8155 168.83 28.2166 168.83 29.8679C168.83 31.9945 168.93 33.8585 169.13 35.4597C169.18 35.8517 169.255 36.1186 169.355 36.2604C169.464 36.4021 169.735 36.6148 170.168 36.8984C170.469 37.0985 170.619 37.3654 170.619 37.699C170.619 38.2828 170.231 38.6956 169.455 38.9375C169.055 39.0709 168.634 39.1585 168.192 39.2002C167.75 39.2419 167.07 39.2627 166.153 39.2627C164.743 39.2627 163.692 39.1626 163 38.9625C162.233 38.7373 161.849 38.3537 161.849 37.8116C161.849 37.6114 161.899 37.4488 161.999 37.3237C162.1 37.1903 162.358 36.9526 162.775 36.6106C162.992 36.4355 163.138 36.0977 163.213 35.5973C163.296 35.097 163.338 34.2463 163.338 33.0454C163.338 32.3782 163.305 31.9403 163.238 31.7318C163.18 31.5233 163.05 31.4191 162.85 31.4191C162.617 31.4191 162.391 31.5817 162.175 31.907C161.958 32.2239 161.632 32.8619 161.199 33.821ZM181.064 21.5739C183.208 21.5739 185.08 22.1869 186.681 23.4128C187.765 24.2552 188.645 25.3477 189.321 26.6904C189.98 28.0248 190.309 29.3591 190.309 30.6935C190.309 32.6617 189.659 34.4214 188.358 35.9726C187.257 37.2903 185.818 38.2369 184.042 38.8124C182.949 39.1626 181.852 39.3378 180.752 39.3378C179.309 39.3378 177.929 39.0375 176.611 38.4371C175.018 37.7115 173.771 36.6148 172.87 35.147C171.995 33.7292 171.557 32.1655 171.557 30.4558C171.557 28.4709 172.12 26.7196 173.246 25.2017C174.247 23.8507 175.593 22.8582 177.286 22.2244C178.421 21.7907 179.68 21.5739 181.064 21.5739ZM179.876 25.1642C179.175 25.1642 178.621 25.4769 178.212 26.1024C177.895 26.5695 177.737 27.1241 177.737 27.7662C177.737 28.7086 177.929 29.8012 178.312 31.0438C178.696 32.2781 179.18 33.3748 179.763 34.3339C180.022 34.7425 180.339 35.0678 180.714 35.3096C181.098 35.5515 181.486 35.6724 181.877 35.6724C182.511 35.6724 183.02 35.4347 183.404 34.9593C183.796 34.484 183.992 33.8585 183.992 33.0829C183.992 32.0738 183.829 30.9854 183.504 29.8178C183.178 28.6503 182.757 27.6536 182.24 26.828C181.923 26.3193 181.556 25.919 181.139 25.6271C180.722 25.3352 180.301 25.1809 179.876 25.1642ZM196.639 39H195.738C195.213 39 194.625 39.025 193.974 39.0751C193.566 39.1084 193.282 39.1251 193.124 39.1251C192.565 39.1251 192.11 38.9958 191.76 38.7373C191.41 38.4788 191.235 38.141 191.235 37.724C191.235 37.4321 191.31 37.2069 191.46 37.0485C191.618 36.8817 191.873 36.7482 192.223 36.6482C192.557 36.5648 192.782 36.4313 192.899 36.2479C193.015 36.056 193.107 35.6891 193.174 35.147C193.24 34.5215 193.299 33.3039 193.349 31.4941C193.407 29.6844 193.436 27.8872 193.436 26.1024C193.436 25.4019 193.382 24.9349 193.274 24.7013C193.165 24.4678 192.911 24.2802 192.511 24.1384C191.935 23.9216 191.648 23.5504 191.648 23.025C191.648 22.6164 191.844 22.2995 192.236 22.0743C192.636 21.8408 193.19 21.724 193.899 21.724C194.133 21.724 194.408 21.7282 194.725 21.7365C195.426 21.7615 195.934 21.7741 196.251 21.7741C197.444 21.7741 198.791 21.7365 200.292 21.6615C200.609 21.6448 201.005 21.6364 201.48 21.6364C203.39 21.6364 204.9 21.8533 206.009 22.287C207.66 22.9375 208.903 24.03 209.737 25.5645C210.479 26.9156 210.85 28.5252 210.85 30.3933C210.85 31.3357 210.712 32.2823 210.437 33.233C210.162 34.1754 209.791 34.9927 209.324 35.6849C208.356 37.086 207.022 38.0701 205.321 38.6372C204.32 38.9708 203.252 39.1376 202.118 39.1376L200.605 39.0876L199.304 39.05C198.294 39.0167 197.406 39 196.639 39ZM199.266 25.4394V35.122C199.266 35.6474 199.379 36.0227 199.604 36.2479C199.829 36.4647 200.204 36.5731 200.73 36.5731C203.165 36.5731 204.383 34.7217 204.383 31.0188C204.383 28.9755 204.099 27.3909 203.532 26.2651C202.906 25.0224 201.847 24.4011 200.354 24.4011C199.954 24.4011 199.671 24.4803 199.504 24.6388C199.345 24.7972 199.266 25.0641 199.266 25.4394ZM221.571 21.5739C223.714 21.5739 225.587 22.1869 227.188 23.4128C228.272 24.2552 229.152 25.3477 229.827 26.6904C230.486 28.0248 230.816 29.3591 230.816 30.6935C230.816 32.6617 230.165 34.4214 228.864 35.9726C227.763 37.2903 226.325 38.2369 224.548 38.8124C223.456 39.1626 222.359 39.3378 221.258 39.3378C219.815 39.3378 218.435 39.0375 217.117 38.4371C215.525 37.7115 214.278 36.6148 213.377 35.147C212.501 33.7292 212.064 32.1655 212.064 30.4558C212.064 28.4709 212.626 26.7196 213.752 25.2017C214.753 23.8507 216.1 22.8582 217.793 22.2244C218.927 21.7907 220.187 21.5739 221.571 21.5739ZM220.383 25.1642C219.682 25.1642 219.127 25.4769 218.719 26.1024C218.402 26.5695 218.243 27.1241 218.243 27.7662C218.243 28.7086 218.435 29.8012 218.819 31.0438C219.202 32.2781 219.686 33.3748 220.27 34.3339C220.528 34.7425 220.845 35.0678 221.221 35.3096C221.604 35.5515 221.992 35.6724 222.384 35.6724C223.018 35.6724 223.527 35.4347 223.91 34.9593C224.302 34.484 224.498 33.8585 224.498 33.0829C224.498 32.0738 224.336 30.9854 224.01 29.8178C223.685 28.6503 223.264 27.6536 222.747 26.828C222.43 26.3193 222.063 25.919 221.646 25.6271C221.229 25.3352 220.808 25.1809 220.383 25.1642ZM42.1795 54.5827C43.8268 54.5827 45.9858 54.9905 48.6567 55.8061C48.9765 55.9021 49.2324 55.9501 49.4243 55.9501C49.5843 55.9501 50.0641 55.8061 50.8637 55.5183C51.1196 55.4223 51.3915 55.3743 51.6794 55.3743C52.7509 55.3743 53.8784 56.2219 55.0619 57.9172C56.2613 59.6125 56.8611 61.2278 56.8611 62.7631C56.8611 63.6587 56.5892 64.4184 56.0454 65.0421C55.5177 65.6498 54.87 65.9537 54.1023 65.9537C53.4626 65.9537 52.9428 65.8257 52.543 65.5698C52.1431 65.314 51.2635 64.5543 49.9041 63.2908C47.985 61.4996 46.0978 60.604 44.2426 60.604C43.347 60.604 42.6273 60.8199 42.0836 61.2517C41.5558 61.6836 41.2919 62.2513 41.2919 62.955C41.2919 64.3464 42.5154 65.3939 44.9623 66.0976C48.2728 67.0732 50.3919 67.7849 51.3195 68.2327C55.3977 70.2158 57.4368 73.1345 57.4368 76.9888C57.4368 80.3953 56.0454 83.1781 53.2627 85.3372C50.4159 87.5442 46.6975 88.6477 42.1076 88.6477C40.0605 88.6477 37.9014 88.4078 35.6304 87.928C33.3594 87.4322 31.7201 86.8565 30.7126 86.2008C29.9449 85.689 29.2492 84.5775 28.6255 82.8663C28.0177 81.139 27.7139 79.4597 27.7139 77.8285C27.7139 77.0448 27.8738 76.4531 28.1937 76.0532C28.5935 75.5415 29.0973 75.2856 29.705 75.2856C30.3127 75.2856 30.8965 75.5974 31.4562 76.2212C31.7921 76.573 32.5837 77.7005 33.8312 79.6037C34.4229 80.4993 35.3585 81.243 36.638 81.8347C37.9334 82.4264 39.2688 82.7223 40.6442 82.7223C41.8277 82.7223 42.7873 82.5064 43.5229 82.0746C44.2586 81.6268 44.6264 81.059 44.6264 80.3713C44.6264 79.7316 44.3386 79.1799 43.7628 78.7161C43.1871 78.2523 42.2515 77.8205 40.9561 77.4206C38.6691 76.701 36.9258 76.0452 35.7264 75.4535C34.5269 74.8458 33.4074 74.0861 32.3678 73.1745C29.8409 70.9355 28.5775 68.3926 28.5775 65.5459C28.5775 64.1385 28.9053 62.7711 29.5611 61.4437C30.2168 60.1002 31.1444 58.9408 32.3438 57.9652C35.0307 55.7102 38.3092 54.5827 42.1795 54.5827ZM72.5022 65.4739V78.4762C72.5022 81.259 73.4218 82.6503 75.261 82.6503C75.7248 82.6503 76.1806 82.5224 76.6284 82.2665C77.0762 81.9946 77.3881 81.6668 77.564 81.2829C77.9158 80.5153 78.0918 78.804 78.0918 76.1492C78.0918 73.5264 78.0038 71.7351 77.8279 70.7756C77.7639 70.3757 77.652 70.0879 77.492 69.9119C77.3321 69.72 77.0282 69.5041 76.5804 69.2642C75.6688 68.7844 75.213 68.1767 75.213 67.441C75.213 66.4495 75.9967 65.7618 77.564 65.3779C80.5387 64.6423 83.4734 64.2744 86.3681 64.2744C87.9834 64.2744 88.7911 65.13 88.7911 66.8413C88.7911 67.0172 88.7831 67.3771 88.7671 67.9208C88.7351 68.6885 88.7111 69.6241 88.6951 70.7276V81.3069C88.6951 81.8507 89.1589 82.3465 90.0865 82.7943C90.8701 83.1781 91.262 83.7379 91.262 84.4735C91.262 85.9129 89.5587 87.0244 86.1522 87.8081C84.1531 88.2719 82.2179 88.5038 80.3468 88.5038C79.5791 88.5038 79.0513 88.4158 78.7635 88.2399C78.4916 88.064 78.3317 87.7201 78.2837 87.2083C78.2037 86.2168 77.8998 85.721 77.3721 85.721C77.1802 85.721 77.0042 85.769 76.8443 85.8649C76.6844 85.9449 76.1966 86.2648 75.3809 86.8245C73.7657 87.928 72.0304 88.4798 70.1752 88.4798C67.1046 88.4798 64.9375 87.5922 63.6741 85.817C62.6026 84.3296 62.0668 81.8267 62.0668 78.3083C62.0668 76.9968 62.0748 75.8773 62.0908 74.9497C62.0908 74.406 62.0908 74.0381 62.0908 73.8462C62.0908 72.4708 61.9628 71.4633 61.7069 70.8235C61.4671 70.1678 61.0193 69.6561 60.3635 69.2882C59.7398 68.9684 59.34 68.7125 59.1641 68.5205C59.0041 68.3286 58.9242 68.0647 58.9242 67.7289C58.9242 66.5134 59.8438 65.7058 61.683 65.306C64.8176 64.6183 67.9522 64.2744 71.0868 64.2744C72.0304 64.2744 72.5022 64.6742 72.5022 65.4739ZM104.408 64.2264C105.384 64.2264 105.992 64.3144 106.231 64.4903C106.471 64.6502 106.591 65.0661 106.591 65.7378C106.591 66.3295 106.783 66.6254 107.167 66.6254C107.327 66.6254 107.863 66.3215 108.774 65.7138C109.462 65.25 110.334 64.8662 111.389 64.5623C112.461 64.2424 113.428 64.0825 114.292 64.0825C116.323 64.0825 118.138 64.7862 119.737 66.1936C120.953 67.2651 121.897 68.6165 122.568 70.2478C123.272 71.959 123.624 73.7583 123.624 75.6454C123.624 79.6757 122.264 82.9942 119.546 85.6011C117.45 87.6322 115.068 88.6477 112.397 88.6477C111.037 88.6477 109.638 88.3279 108.199 87.6881C107.911 87.5602 107.679 87.4962 107.503 87.4962C107.023 87.4962 106.783 87.976 106.783 88.9356C106.783 90.199 107.207 91.1106 108.055 91.6704C108.838 92.1982 109.302 92.55 109.446 92.7259C109.606 92.9178 109.686 93.2297 109.686 93.6615C109.686 94.6211 109.15 95.3568 108.079 95.8685C107.007 96.3963 105.496 96.6602 103.545 96.6602C100.074 96.6602 97.0354 95.9645 94.4286 94.5731C93.1012 93.8694 92.4375 92.9978 92.4375 91.9583C92.4375 91.4785 92.5334 91.1106 92.7253 90.8547C92.9332 90.6149 93.3251 90.359 93.9008 90.0871C94.7325 89.7033 95.2362 89.0076 95.4122 88C95.6041 86.9924 95.748 84.0977 95.844 79.3158C95.732 75.3815 95.5881 73.1745 95.4122 72.6947C95.3482 72.5348 95.2522 72.4308 95.1243 72.3829C95.0123 72.3349 94.6205 72.2469 93.9488 72.119C93.437 72.023 93.0212 71.7911 92.7013 71.4233C92.3815 71.0394 92.2216 70.5836 92.2216 70.0559C92.2216 69.4162 92.4455 68.8564 92.8933 68.3766C93.3411 67.8808 94.0687 67.401 95.0763 66.9372C98.9946 65.162 102.105 64.2584 104.408 64.2264ZM106.783 73.2945L106.423 79.8916C106.407 80.1634 106.399 80.4273 106.399 80.6832C106.399 81.179 106.615 81.5788 107.047 81.8827C107.479 82.1866 108.055 82.3385 108.774 82.3385C110.981 82.3385 112.085 80.5233 112.085 76.8929C112.085 74.5419 111.621 72.8866 110.693 71.9271C110.118 71.3353 109.43 71.0394 108.63 71.0394C107.495 71.0394 106.879 71.7911 106.783 73.2945ZM147.541 77.2527H136.266C135.77 77.2527 135.523 77.4686 135.523 77.9004C135.523 78.94 136.082 79.9235 137.202 80.8511C138.337 81.7627 139.553 82.2185 140.848 82.2185C141.616 82.2185 142.464 82.0746 143.391 81.7867C144.335 81.4829 145.11 81.115 145.718 80.6832C146.262 80.2994 146.694 80.1075 147.014 80.1075C147.429 80.1075 147.837 80.3634 148.237 80.8751C148.637 81.3869 148.837 81.9147 148.837 82.4584C148.837 83.6099 148.117 84.7214 146.678 85.793C144.135 87.6961 141.2 88.6477 137.874 88.6477C134.515 88.6477 131.7 87.6721 129.429 85.721C128.326 84.7614 127.414 83.6019 126.694 82.2425C125.751 80.4353 125.279 78.5322 125.279 76.533C125.279 73.8462 126.095 71.4313 127.726 69.2882C129.133 67.433 130.925 66.0496 133.1 65.138C134.731 64.4503 136.498 64.1065 138.401 64.1065C141.44 64.1065 144.023 64.9701 146.15 66.6974C147.221 67.561 148.085 68.5845 148.741 69.768C149.492 71.1114 149.868 72.4228 149.868 73.7023C149.868 74.7418 149.652 75.5974 149.221 76.2691C148.789 76.9249 148.229 77.2527 147.541 77.2527ZM136.89 72.7667H139.313C140.336 72.7667 140.848 72.2949 140.848 71.3513C140.848 70.4877 140.6 69.784 140.105 69.2402C139.609 68.6965 138.961 68.4246 138.161 68.4246C137.266 68.4246 136.562 68.7764 136.05 69.4801C135.571 70.1358 135.331 70.7995 135.331 71.4713C135.331 71.951 135.443 72.2869 135.666 72.4788C135.906 72.6707 136.314 72.7667 136.89 72.7667ZM162.631 64.2504C163.478 64.2504 163.99 64.3704 164.166 64.6103C164.358 64.8502 164.526 65.6178 164.67 66.9133C164.75 67.6169 164.998 67.9688 165.413 67.9688C165.733 67.9688 166.037 67.7369 166.325 67.2731C167.604 65.274 169.276 64.2744 171.339 64.2744C172.794 64.2744 173.986 64.7462 174.913 65.6898C175.361 66.1536 175.729 66.7533 176.017 67.489C176.305 68.2087 176.449 68.9044 176.449 69.5761C176.449 70.3278 176.273 71.1034 175.921 71.9031C175.569 72.6867 175.113 73.3344 174.553 73.8462C173.53 74.8218 172.274 75.3096 170.787 75.3096C169.971 75.3096 169.284 75.1656 168.724 74.8778C168.18 74.5899 167.461 74.0061 166.565 73.1265C166.229 72.7907 165.917 72.6227 165.629 72.6227C165.182 72.6227 164.886 72.8786 164.742 73.3904C164.614 73.8862 164.55 74.9417 164.55 76.557C164.55 78.972 164.638 80.6192 164.814 81.4989C164.926 81.9786 165.078 82.3145 165.269 82.5064C165.477 82.6823 165.909 82.8663 166.565 83.0582C168.004 83.49 168.724 84.2416 168.724 85.3132C168.724 85.9689 168.492 86.5446 168.028 87.0404C167.564 87.5202 166.949 87.8401 166.181 88C164.646 88.3199 162.391 88.4798 159.416 88.4798C156.585 88.4798 154.434 88.2319 152.963 87.7361C151.651 87.2883 150.996 86.5127 150.996 85.4091C150.996 84.5775 151.476 83.8338 152.435 83.1781C152.899 82.8742 153.219 82.6024 153.395 82.3625C153.571 82.1066 153.691 81.7627 153.755 81.3309C154.01 79.8756 154.138 77.1807 154.138 73.2465C154.138 72.5268 154.058 72.015 153.898 71.7111C153.739 71.3913 153.419 71.1354 152.939 70.9435C151.803 70.4957 151.236 69.848 151.236 69.0003C151.236 68.2327 151.627 67.577 152.411 67.0332C153.195 66.4734 154.506 65.9217 156.345 65.3779C158.808 64.6423 160.903 64.2664 162.631 64.2504ZM200.294 55.2544H212.937C214.296 55.2064 215.535 55.0225 216.655 54.7026C217.135 54.5747 217.559 54.5107 217.926 54.5107C219.222 54.5107 220.477 55.4703 221.693 57.3894C222.924 59.3086 223.54 61.2837 223.54 63.3148C223.54 64.7062 223.116 65.7218 222.268 66.3615C221.629 66.8413 220.861 67.0812 219.965 67.0812C219.118 67.0812 218.382 66.8493 217.758 66.3855C217.135 65.9057 216.519 65.122 215.911 64.0345C215.383 63.043 214.968 62.3952 214.664 62.0914C214.36 61.7875 213.992 61.6356 213.56 61.6356C212.969 61.6356 212.545 61.8835 212.289 62.3792C212.033 62.875 211.905 63.6907 211.905 64.8262V78.2603C211.905 79.6357 212.049 80.6352 212.337 81.259C212.625 81.8827 213.168 82.3625 213.968 82.6983C214.832 83.0662 215.415 83.418 215.719 83.7539C216.039 84.0737 216.199 84.5215 216.199 85.0973C216.199 86.2488 215.415 87.1044 213.848 87.6641C212.297 88.2239 209.906 88.5038 206.675 88.5038C202.709 88.5038 199.766 88.1759 197.847 87.5202C196.232 86.9764 195.424 86.0968 195.424 84.8814C195.424 84.2257 195.712 83.7139 196.288 83.346C196.432 83.2661 197 83.0742 197.991 82.7703C198.599 82.5944 199.015 82.2585 199.239 81.7627C199.478 81.267 199.67 80.3154 199.814 78.908C199.942 77.6605 200.062 75.6454 200.174 72.8626C200.286 70.0639 200.342 67.6409 200.342 65.5938C200.342 64.1545 200.23 63.1309 200.006 62.5232C199.782 61.9154 199.415 61.6116 198.903 61.6116C198.279 61.6116 197.671 62.0594 197.08 62.955C196.008 64.5863 195.128 65.6658 194.441 66.1936C193.625 66.8173 192.833 67.1292 192.066 67.1292C191.202 67.1292 190.49 66.8093 189.931 66.1696C189.371 65.5139 189.091 64.6822 189.091 63.6747C189.091 62.6831 189.315 61.5956 189.763 60.4121C190.211 59.2126 190.81 58.1091 191.562 57.1016C192.777 55.4703 193.977 54.6546 195.16 54.6546C195.48 54.6546 195.848 54.7026 196.264 54.7986C197.128 54.9745 197.831 55.0944 198.375 55.1584C198.935 55.2224 199.574 55.2544 200.294 55.2544ZM234.887 64.2504C235.735 64.2504 236.246 64.3704 236.422 64.6103C236.614 64.8502 236.782 65.6178 236.926 66.9133C237.006 67.6169 237.254 67.9688 237.67 67.9688C237.99 67.9688 238.293 67.7369 238.581 67.2731C239.861 65.274 241.532 64.2744 243.595 64.2744C245.05 64.2744 246.242 64.7462 247.17 65.6898C247.617 66.1536 247.985 66.7533 248.273 67.489C248.561 68.2087 248.705 68.9044 248.705 69.5761C248.705 70.3278 248.529 71.1034 248.177 71.9031C247.825 72.6867 247.369 73.3344 246.81 73.8462C245.786 74.8218 244.531 75.3096 243.043 75.3096C242.228 75.3096 241.54 75.1656 240.98 74.8778C240.437 74.5899 239.717 74.0061 238.821 73.1265C238.485 72.7907 238.174 72.6227 237.886 72.6227C237.438 72.6227 237.142 72.8786 236.998 73.3904C236.87 73.8862 236.806 74.9417 236.806 76.557C236.806 78.972 236.894 80.6192 237.07 81.4989C237.182 81.9786 237.334 82.3145 237.526 82.5064C237.734 82.6823 238.166 82.8663 238.821 83.0582C240.261 83.49 240.98 84.2416 240.98 85.3132C240.98 85.9689 240.748 86.5446 240.285 87.0404C239.821 87.5202 239.205 87.8401 238.437 88C236.902 88.3199 234.647 88.4798 231.672 88.4798C228.842 88.4798 226.691 88.2319 225.219 87.7361C223.908 87.2883 223.252 86.5127 223.252 85.4091C223.252 84.5775 223.732 83.8338 224.691 83.1781C225.155 82.8742 225.475 82.6024 225.651 82.3625C225.827 82.1066 225.947 81.7627 226.011 81.3309C226.267 79.8756 226.395 77.1807 226.395 73.2465C226.395 72.5268 226.315 72.015 226.155 71.7111C225.995 71.3913 225.675 71.1354 225.195 70.9435C224.06 70.4957 223.492 69.848 223.492 69.0003C223.492 68.2327 223.884 67.577 224.667 67.0332C225.451 66.4734 226.763 65.9217 228.602 65.3779C231.065 64.6423 233.16 64.2664 234.887 64.2504ZM263.41 65.4739V78.4762C263.41 81.259 264.33 82.6503 266.169 82.6503C266.633 82.6503 267.089 82.5224 267.537 82.2665C267.984 81.9946 268.296 81.6668 268.472 81.2829C268.824 80.5153 269 78.804 269 76.1492C269 73.5264 268.912 71.7351 268.736 70.7756C268.672 70.3757 268.56 70.0879 268.4 69.9119C268.24 69.72 267.936 69.5041 267.489 69.2642C266.577 68.7844 266.121 68.1767 266.121 67.441C266.121 66.4495 266.905 65.7618 268.472 65.3779C271.447 64.6423 274.382 64.2744 277.276 64.2744C278.892 64.2744 279.699 65.13 279.699 66.8413C279.699 67.0172 279.691 67.3771 279.675 67.9208C279.643 68.6885 279.619 69.6241 279.603 70.7276V81.3069C279.603 81.8507 280.067 82.3465 280.995 82.7943C281.778 83.1781 282.17 83.7379 282.17 84.4735C282.17 85.9129 280.467 87.0244 277.06 87.8081C275.061 88.2719 273.126 88.5038 271.255 88.5038C270.487 88.5038 269.96 88.4158 269.672 88.2399C269.4 88.064 269.24 87.7201 269.192 87.2083C269.112 86.2168 268.808 85.721 268.28 85.721C268.088 85.721 267.912 85.769 267.753 85.8649C267.593 85.9449 267.105 86.2648 266.289 86.8245C264.674 87.928 262.939 88.4798 261.083 88.4798C258.013 88.4798 255.846 87.5922 254.582 85.817C253.511 84.3296 252.975 81.8267 252.975 78.3083C252.975 76.9968 252.983 75.8773 252.999 74.9497C252.999 74.406 252.999 74.0381 252.999 73.8462C252.999 72.4708 252.871 71.4633 252.615 70.8235C252.375 70.1678 251.927 69.6561 251.272 69.2882C250.648 68.9684 250.248 68.7125 250.072 68.5205C249.912 68.3286 249.832 68.0647 249.832 67.7289C249.832 66.5134 250.752 65.7058 252.591 65.306C255.726 64.6183 258.86 64.2744 261.995 64.2744C262.939 64.2744 263.41 64.6742 263.41 65.4739ZM312.661 72.9586L312.997 81.4029C313.029 82.0426 313.125 82.5144 313.285 82.8183C313.46 83.1221 313.956 83.7059 314.772 84.5695C315.012 84.8254 315.132 85.1852 315.132 85.649C315.132 86.7046 314.5 87.4402 313.237 87.8561C311.973 88.2719 309.718 88.4798 306.472 88.4798C304.264 88.4798 302.705 88.2879 301.794 87.904C300.85 87.5042 300.378 86.8565 300.378 85.9609C300.378 85.641 300.426 85.4091 300.522 85.2652C300.618 85.1053 300.938 84.7294 301.482 84.1377C302.121 83.466 302.441 81.227 302.441 77.4206C302.441 75.2136 302.185 73.5823 301.674 72.5268C301.258 71.6792 300.49 71.2553 299.371 71.2553C298.299 71.2553 297.563 71.5992 297.164 72.2869C296.764 72.9746 296.564 74.222 296.564 76.0293V80.7792C296.564 81.7228 296.62 82.3705 296.732 82.7223C296.86 83.0742 297.26 83.7539 297.931 84.7614C298.107 85.0493 298.195 85.3772 298.195 85.745C298.195 86.6886 297.539 87.3843 296.228 87.8321C294.917 88.2799 292.869 88.5038 290.087 88.5038C285.641 88.5038 283.418 87.5842 283.418 85.745C283.418 85.3612 283.482 85.0733 283.61 84.8814C283.753 84.6735 284.081 84.3856 284.593 84.0177C285.009 83.7139 285.273 83.37 285.385 82.9862C285.497 82.5864 285.601 81.6188 285.697 80.0835C285.809 78.2603 285.865 76.3491 285.865 74.35C285.865 73.2465 285.777 72.5268 285.601 72.1909C285.441 71.8391 284.961 71.4153 284.161 70.9195C283.474 70.4877 283.13 69.9599 283.13 69.3362C283.13 68.6965 283.41 68.1767 283.969 67.7769C284.529 67.3611 285.681 66.8413 287.424 66.2176C288.959 65.6738 290.439 65.218 291.862 64.8502C293.285 64.4663 294.261 64.2744 294.789 64.2744C295.268 64.2744 295.668 64.4503 295.988 64.8022C296.324 65.154 296.492 65.5698 296.492 66.0496C296.492 66.0976 296.484 66.2975 296.468 66.6494C296.452 66.7773 296.444 66.8893 296.444 66.9852C296.444 67.7529 296.764 68.1367 297.403 68.1367C297.787 68.1367 298.195 67.8329 298.627 67.2251C300.002 65.242 302.001 64.2504 304.624 64.2504C306.639 64.2504 308.367 64.7782 309.806 65.8337C310.814 66.5854 311.517 67.473 311.917 68.4966C312.317 69.5041 312.565 70.9915 312.661 72.9586ZM330.653 68.5685H333.628C334.123 68.5685 334.475 68.6485 334.683 68.8084C334.907 68.9524 335.003 69.2003 334.971 69.5521L334.779 72.4068C334.747 72.9826 334.659 73.3504 334.515 73.5104C334.371 73.6543 334.051 73.7263 333.556 73.7263C333.444 73.7263 333.18 73.7103 332.764 73.6783C332.476 73.6623 332.236 73.6543 332.044 73.6543C331.373 73.6543 330.917 73.8782 330.677 74.326C330.437 74.7578 330.317 75.5894 330.317 76.8209C330.317 78.5002 330.501 79.9155 330.869 81.067C331.013 81.5628 331.221 81.9307 331.493 82.1706C331.764 82.3945 332.212 82.5944 332.836 82.7703C334.243 83.1861 334.947 83.9618 334.947 85.0973C334.947 86.2967 334.123 87.1604 332.476 87.6881C330.845 88.2159 328.158 88.4798 324.416 88.4798C318.866 88.4798 316.091 87.3763 316.091 85.1692C316.091 84.6255 316.203 84.2257 316.427 83.9698C316.667 83.7139 317.179 83.418 317.962 83.0822C318.81 82.6983 319.322 81.9866 319.498 80.9471C319.77 79.3798 319.906 77.7005 319.906 75.9093C319.906 75.1097 319.762 74.5579 319.474 74.254C319.202 73.9342 318.698 73.7822 317.962 73.7982C317.099 73.7982 316.547 73.7583 316.307 73.6783C316.067 73.5823 315.955 73.3664 315.971 73.0306L316.163 70.0079C316.195 69.5121 316.275 69.2082 316.403 69.0963C316.547 68.9684 316.931 68.8884 317.555 68.8564C318.146 68.8244 318.442 68.5365 318.442 67.9928C318.442 67.7689 318.226 67.2571 317.795 66.4575C317.059 65.13 316.691 63.8026 316.691 62.4752C316.691 60.5241 317.363 58.9328 318.706 57.7013C320.673 55.8941 323.496 54.9905 327.174 54.9905C330.197 54.9905 332.612 55.7022 334.419 57.1256C335.811 58.2291 336.506 59.5005 336.506 60.9399C336.506 61.9794 336.162 62.859 335.475 63.5787C334.787 64.2824 333.931 64.6343 332.908 64.6343C331.756 64.6343 330.653 64.2344 329.597 63.4348C329.341 63.2269 328.734 62.5952 327.774 61.5396C327.086 60.8039 326.399 60.4361 325.711 60.4361C325.263 60.4361 324.879 60.596 324.56 60.9159C324.24 61.2357 324.08 61.6276 324.08 62.0914C324.08 63.3548 325.279 64.7062 327.678 66.1456C328.414 66.5934 328.91 66.9452 329.166 67.2011C329.437 67.457 329.677 67.8169 329.885 68.2807C329.997 68.4726 330.253 68.5685 330.653 68.5685ZM351.428 64.0825C354.354 64.0825 356.921 64.8422 359.128 66.3615C360.712 67.449 361.983 68.8644 362.943 70.6076C363.934 72.4308 364.43 74.334 364.43 76.3171C364.43 79.7876 362.839 82.7383 359.656 85.1692C356.617 87.4882 353.139 88.6477 349.221 88.6477C345.398 88.6477 342.304 87.5602 339.937 85.3851C337.634 83.2741 336.482 80.5233 336.482 77.1328C336.482 73.3584 337.89 70.2718 340.704 67.8728C343.647 65.3459 347.222 64.0825 351.428 64.0825ZM349.509 69.6241C348.805 69.6241 348.237 69.8879 347.805 70.4157C347.39 70.9275 347.182 71.6152 347.182 72.4788C347.182 73.4384 347.358 74.7498 347.709 76.4131C348.077 78.0604 348.509 79.5237 349.005 80.8032C349.501 82.1146 350.308 82.7703 351.428 82.7703C352.851 82.7703 353.563 81.8667 353.563 80.0595C353.563 78.7161 353.379 77.1887 353.011 75.4775C352.659 73.7662 352.227 72.3749 351.716 71.3033C351.188 70.2158 350.452 69.6561 349.509 69.6241Z" fill="#0E0AA5"/>
</svg>
