<svg width="248" height="202" viewBox="0 0 248 202" fill="none" xmlns="http://www.w3.org/2000/svg">
<g filter="url(#filter0_d_619_46)">
<path d="M21.1939 1.59067C23.0392 1.60799 25.4559 2.23495 28.423 3.55467C28.7796 3.71055 29.0635 3.79021 29.2782 3.79368C29.4582 3.79368 30.0018 3.57892 30.9089 3.13208C31.1997 2.98314 31.5079 2.9104 31.8299 2.91386C33.0313 2.92772 34.2708 4.28554 35.5414 7.05315C36.812 9.82076 37.411 12.481 37.3487 14.975C37.3106 16.4298 36.9817 17.6421 36.3585 18.5981C35.7353 19.5542 34.9944 19.9975 34.1357 19.9352C33.4225 19.8832 32.8443 19.6338 32.4081 19.1939C31.9718 18.754 31.0197 17.4655 29.5483 15.3802C27.4709 12.4256 25.3901 10.9534 23.3162 10.8565C22.3156 10.808 21.5089 11.1024 20.8996 11.7259C20.2902 12.3494 19.9751 13.1911 19.9544 14.2545C19.9163 16.3605 21.2596 18.0405 23.9429 19.3567C27.5852 21.1475 29.9256 22.5123 30.9401 23.3159C35.5206 26.7382 37.7607 32.793 37.4075 38.1654C37.0994 42.8208 36.175 47.4589 32.4461 50.8846C29.1051 53.9536 24.3583 54.4593 20.1206 53.3509C17.9324 52.7793 15.5781 51.8199 13.1476 50.4586C10.7171 49.0973 8.96521 47.7983 7.90923 46.5791C7.0956 45.6404 6.37199 43.853 5.72801 41.2759C5.08404 38.6954 4.76551 36.2845 4.7759 34.0053C4.78282 32.9107 4.96286 32.114 5.30908 31.6187C5.74532 30.9883 6.29582 30.7147 6.95365 30.8324C7.61494 30.9467 8.24506 31.501 8.84403 32.502C9.20411 33.0701 10.0489 34.8366 11.368 37.8744C11.9912 39.305 12.9953 40.6039 14.3802 41.7747C15.7616 42.9455 17.2019 43.7041 18.6976 44.0193C19.9855 44.2895 21.0415 44.1717 21.8586 43.6556C22.6757 43.1429 23.0981 42.3497 23.1189 41.2898C23.1396 40.306 22.8419 39.3985 22.2221 38.581C21.6059 37.7601 20.5914 36.9253 19.1823 36.0802C16.6964 34.5665 14.806 33.271 13.5077 32.1729C12.2093 31.0749 11.001 29.7794 9.87924 28.2934C7.38643 25.0236 5.79033 21.0644 5.81457 16.9147C5.82496 14.9369 6.20234 13.0387 6.94326 11.1959C7.68418 9.34968 8.73324 7.75285 10.087 6.39156C12.9883 3.33991 16.9838 1.55604 21.1939 1.59067Z" fill="#FFCE00" stroke="#040468" stroke-width="3.07046" stroke-miterlimit="10"/>
<path d="M73.8061 31.9686C75.4091 37.9056 77.0121 43.8426 78.6152 49.7796C79.0791 51.4354 79.4703 52.5299 79.7889 53.0634C80.1074 53.5968 80.6094 53.9813 81.2811 54.203C82.5829 54.6325 83.2373 55.7374 83.2061 57.5387C83.168 59.662 82.3336 61.1237 80.6994 61.9031C79.0653 62.6825 76.4132 62.8903 72.7536 62.4816C68.6197 62.0209 65.5694 61.3558 63.6098 60.5591C62.7096 60.192 61.9964 59.5789 61.4805 58.7371C60.9647 57.8989 60.7188 56.9359 60.7465 55.8483C60.7673 55.01 60.9231 54.3796 61.2139 53.9536C61.5048 53.5275 62.0414 53.1673 62.8066 52.8625C63.6687 52.5195 64.1153 51.8025 64.1395 50.7357C64.1845 48.8548 63.4678 47.6528 62.0172 47.1748C60.4661 46.6622 58.2364 46.2638 55.387 45.9279C52.9876 45.6438 51.5543 45.6819 51.0765 46.056C50.7822 46.2916 50.5191 46.7488 50.2836 47.4242C50.0482 48.1031 49.9236 48.7647 49.9097 49.4159C49.8959 50.0117 49.9616 50.4101 50.1105 50.6075C50.2594 50.8049 50.7545 51.186 51.5854 51.6986C52.6483 52.3498 53.1711 53.434 53.1573 54.8853C53.1227 58.9138 48.1613 59.0731 45.3569 58.4704C42.5767 57.8746 40.3366 57.2511 39.014 56.4129C37.7849 55.6335 37.1929 54.3034 37.2414 52.4537C37.2621 51.6467 37.4145 51.0474 37.7018 50.6525C37.9892 50.2577 38.4947 49.9424 39.2114 49.6931C40.3816 49.2912 41.2818 48.5777 41.9085 47.5732C42.5351 46.5687 43.4457 44.3483 44.6506 40.8603C46.0355 36.8526 47.4065 32.8415 48.7637 28.8234C49.8682 25.4669 51.028 22.1035 51.8451 18.6709C52.3852 16.4055 52.6864 14.1506 52.7591 11.9406C52.8388 9.59908 52.9738 7.97107 53.1677 7.06008C53.3616 6.14909 53.7666 5.26235 54.3829 4.39292C55.6709 2.49127 57.2774 1.52833 59.2024 1.53525C61.0166 1.54218 62.7754 2.65061 64.33 4.8744C69.551 12.3528 71.3998 23.2501 73.8061 31.9686ZM54.8053 35.8654C56.9242 36.0628 57.9837 36.1598 60.1095 36.3434C61.0858 36.4265 61.5809 36.1321 61.5982 35.4636C61.619 34.5422 60.9958 32.2214 59.7321 28.5428C59.1574 26.8629 58.7177 25.7406 58.406 25.1656C58.0944 24.5906 57.7586 24.2962 57.3985 24.2719C56.7511 24.2338 56.1868 25.124 55.709 26.9356C55.6293 27.1781 55.3454 28.1376 54.8503 29.8037C54.0228 32.5436 53.6039 34.175 53.5901 34.7223C53.5728 35.4082 53.9778 35.7892 54.8053 35.8654Z" fill="#FFCE00" stroke="#040468" stroke-width="3.07046" stroke-miterlimit="10"/>
<path d="M102.411 22.5677C102.349 29.3707 102.283 36.1702 102.221 42.9732C102.179 47.5663 102.394 50.5486 102.882 51.8891C103.464 53.4756 104.748 54.3138 106.704 54.3692C108.806 54.4281 110.471 53.7215 111.697 52.2528C112.919 50.7876 113.792 48.4599 114.266 45.3182C114.557 43.3958 115.176 42.4224 116.149 42.4294C117.122 42.4363 117.915 43.1499 118.528 44.57C119.141 45.9902 119.432 47.8503 119.445 50.1018C119.47 54.2307 118.22 58.0756 116.876 61.9412C116.336 63.2782 115.859 64.1892 115.45 64.6742C115.041 65.1591 114.546 65.3981 113.972 65.3877C111.503 64.8612 110.267 64.591 107.802 64.0334C101.331 63.8047 94.8773 63.4653 88.4202 63.0185C87.1496 62.9249 86.2598 62.6132 85.7509 62.1109C85.0134 61.3801 84.6464 60.3444 84.6706 59.0039C84.6845 58.1899 84.8195 57.5941 85.0723 57.22C85.3285 56.8459 85.9378 56.3228 86.9038 55.6647C87.9563 54.9477 88.7249 53.8254 88.9673 52.4607C89.5455 49.1665 89.4243 45.4672 89.4832 41.9825C89.5489 38.1134 89.5351 34.2166 89.5212 30.3336C89.5074 26.6724 89.4832 22.9938 89.5212 19.3463C89.5455 17.0152 89.4693 15.3976 89.2546 14.5316C89.0435 13.6656 88.576 13.0352 87.8594 12.6438C86.6787 11.9545 85.9274 11.4037 85.6124 10.9915C85.048 10.2537 84.7745 9.42242 84.7884 8.49065C84.8264 6.36731 85.9551 4.76702 88.1398 3.66205C90.006 2.71642 92.4988 2.22456 95.6113 2.23149C99.1013 2.23841 101.722 2.52938 103.429 3.13555C105.645 3.91838 106.76 5.54985 106.742 7.95722C106.736 8.93749 106.58 9.66489 106.278 10.1394C105.977 10.614 105.243 11.2479 104.08 12.0411C103.388 12.5399 102.948 13.3955 102.754 14.6113C102.56 15.8236 102.446 18.4769 102.408 22.5677H102.411Z" fill="#FFCE00" stroke="#040468" stroke-width="3.07046" stroke-miterlimit="10"/>
<path d="M153.666 16.7242C149.671 30.5623 145.658 44.3934 141.593 58.2106C140.842 60.7912 140.118 62.5785 139.423 63.5692C138.727 64.5599 137.84 65.0794 136.767 65.1141C135.877 65.1453 135.077 64.8543 134.368 64.2516C133.828 63.7909 133.402 63.2436 133.094 62.6097C132.785 61.9758 132.394 60.8328 131.923 59.1736C128.07 45.7893 124.299 32.3808 120.591 18.9549C119.975 16.6861 119.421 15.1412 118.923 14.3203C118.428 13.4994 117.711 12.9555 116.793 12.6819C115.713 12.3598 115.17 11.2479 115.176 9.36701C115.183 7.07048 116.135 5.30738 118.029 4.07079C119.923 2.8342 122.631 2.21417 126.159 2.21417C129.829 2.21417 132.529 2.67486 134.264 3.59278C135.998 4.5107 136.874 5.93434 136.888 7.86716C136.899 9.11415 136.438 10.2884 135.503 11.3518C134.797 12.1589 134.43 12.9209 134.433 13.6345C134.437 14.2891 134.607 15.2244 134.939 16.4402C136.095 20.6176 137.262 24.795 138.439 28.9689C138.948 30.8013 139.513 31.7088 140.132 31.6984C140.735 31.6845 141.268 31.1857 141.732 30.1986C142.196 29.2114 142.816 27.2716 143.584 24.3862C144.966 19.2112 145.762 16.17 145.984 15.2382C146.209 14.3064 146.316 13.5894 146.309 13.0872C146.299 12.0861 145.855 11.234 145.007 10.5309C144.059 9.74803 143.574 8.71927 143.567 7.48268C143.539 3.17366 148.764 2.08601 152.119 2.18646C154.885 2.26959 157.004 2.5467 158.195 3.2845C159.386 4.0223 159.999 5.2866 160.03 7.0878C160.068 9.23884 159.303 10.4997 157.769 10.8253C156.685 11.0539 155.962 11.3483 155.643 11.7328C155.075 12.4152 154.414 14.0744 153.659 16.7242H153.666Z" fill="#FFCE00" stroke="#040468" stroke-width="3.07046" stroke-miterlimit="10"/>
<path d="M190.293 30.5276C192.111 35.8411 193.946 41.1512 195.809 46.4474C196.331 47.8884 196.761 48.8167 197.093 49.2358C197.429 49.6584 197.931 49.9009 198.596 49.9563C199.88 50.0602 200.559 50.9123 200.6 52.5576C200.649 54.4939 199.901 56.0284 198.35 57.1611C196.799 58.2938 194.233 59.1874 190.629 59.7659C186.558 60.4206 183.504 60.5938 181.523 60.3236C180.613 60.1989 179.875 59.7797 179.321 59.0731C178.767 58.37 178.477 57.4659 178.452 56.3679C178.432 55.5227 178.556 54.8507 178.83 54.3554C179.1 53.86 179.616 53.3716 180.364 52.8867C181.205 52.3429 181.613 51.5323 181.589 50.4724C181.544 48.6019 180.776 47.5662 179.308 47.393C177.736 47.2095 175.496 47.2683 172.622 47.5281C170.202 47.7464 168.758 48.0927 168.291 48.5881C168.003 48.8998 167.761 49.4367 167.557 50.2022C167.352 50.9677 167.259 51.6951 167.273 52.3844C167.287 53.0183 167.373 53.4201 167.529 53.5933C167.688 53.7665 168.211 54.0505 169.07 54.3796C170.171 54.8022 170.777 55.7652 170.804 57.3066C170.881 61.4701 166.535 62.8972 163.077 63.2159C160.106 63.4895 157.89 63.3579 156.495 62.8175C155.2 62.3187 154.532 61.0025 154.501 58.9242C154.487 58.0166 154.618 57.3031 154.895 56.787C155.172 56.2709 155.678 55.7825 156.405 55.3252C157.585 54.5771 158.475 53.5656 159.067 52.3152C159.659 51.0647 160.49 48.4183 161.553 44.4038C162.755 39.8627 163.953 35.3216 165.154 30.7805C166.137 27.1123 167.107 23.4094 167.775 19.6823C168.211 17.2507 168.405 14.8641 168.374 12.5433C168.343 10.0805 168.398 8.36594 168.55 7.40299C168.703 6.44004 169.066 5.50134 169.641 4.57996C170.839 2.57093 172.4 1.57334 174.325 1.56641C176.143 1.56295 177.95 2.68177 179.609 4.87092C184.968 11.9406 187.409 22.1901 190.3 30.5276H190.293ZM171.552 37.2509C173.688 37.102 174.755 37.0258 176.884 36.863C177.864 36.7868 178.342 36.4127 178.328 35.7372C178.307 34.8089 177.573 32.5886 176.133 29.0243C175.478 27.3928 174.983 26.3017 174.647 25.751C174.308 25.2002 173.958 24.9335 173.598 24.9508C172.947 24.982 172.425 25.9623 172.033 27.8916C171.968 28.1514 171.725 29.1767 171.31 30.971C170.61 33.9256 170.264 35.6957 170.278 36.2672C170.292 36.9807 170.718 37.3098 171.552 37.2544V37.2509Z" fill="#FFCE00" stroke="#040468" stroke-width="3.07046" stroke-miterlimit="10"/>
<path d="M218.646 32.0344C217.991 32.1036 217.552 32.4708 217.378 33.0701C217.205 33.6693 217.143 35.0167 217.188 37.1089C217.257 40.2748 217.451 42.7203 217.773 44.4315C217.87 44.9129 218.012 45.2732 218.192 45.5122C218.372 45.7512 218.715 46.0214 219.213 46.3158C220.283 46.9185 220.827 47.8711 220.855 49.1977C220.889 50.8188 220.183 52.135 218.739 53.1534C217.295 54.1718 214.695 55.01 211.326 55.8483C208.113 56.6484 201.507 57.1264 201.345 52.2701C201.324 51.6397 201.414 51.1097 201.601 50.6941C201.788 50.2784 202.221 49.6653 202.896 48.8721C203.658 47.9819 204.166 46.9982 204.416 45.9174C204.665 44.8402 204.821 43.0147 204.855 40.4757C204.942 33.8494 204.651 27.1573 204.485 20.5067C204.395 16.8766 204.205 14.4138 203.921 13.1149C203.637 11.8194 203.072 10.8668 202.235 10.3057C201.445 9.77572 200.888 9.28731 200.607 8.83009C200.327 8.37632 200.175 7.77708 200.157 7.03582C200.133 6.05555 200.365 5.19652 200.86 4.46218C201.352 3.72785 202.055 3.18749 202.962 2.83764C203.727 2.54321 204.783 2.3908 206.13 2.38041C206.722 2.37695 208.207 2.49472 210.585 2.7268C211.036 2.77529 211.745 2.79261 212.715 2.78222C214.332 2.7649 216.492 2.57785 219.168 2.26957C220.861 2.0756 222.08 2.00632 222.745 1.98207C225.857 1.87816 230.026 3.29487 232.318 5.47709C234.513 7.56925 235.739 10.4269 235.77 14.1748C235.787 16.267 235.413 18.1998 234.655 20.0114C233.897 21.823 232.848 23.2605 231.508 24.3169C230.95 24.7603 230.673 25.2418 230.68 25.7544C230.691 26.4333 231.127 26.9252 231.989 27.2162C233.838 27.8327 235.195 28.9377 236.061 30.538C236.926 32.1383 237.546 34.6877 237.934 38.1723C238.093 39.6167 238.325 40.5242 238.619 40.8914C238.914 41.2551 239.589 41.508 240.645 41.6361C240.967 41.6846 241.24 41.8959 241.462 42.2666C241.683 42.6372 241.794 43.084 241.794 43.6105C241.794 44.2894 241.593 45.0342 241.188 45.8447C240.783 46.6552 240.26 47.3584 239.62 47.9473C238.204 49.2323 236.262 50.2576 233.772 50.9643C230.445 51.9099 228.025 51.3384 226.529 49.2289C225.854 48.2902 225.269 47.0259 224.777 45.436C224.286 43.8495 223.69 41.3279 222.994 37.8432C222.548 35.6056 222.001 34.0538 221.357 33.1913C220.713 32.3288 219.767 31.9062 218.639 32.0274L218.646 32.0344ZM216.689 13.1772C216.648 16.6688 216.627 18.4145 216.586 21.913C216.586 21.9892 216.589 22.1001 216.593 22.249C216.613 23.1461 216.721 23.7385 216.911 24.019C217.105 24.2996 217.486 24.4104 218.054 24.3516C219.615 24.1888 220.737 23.5064 221.422 22.3252C222.108 21.144 222.43 19.3428 222.385 16.9112C222.295 12.2177 221.028 9.92466 218.576 10.0286C217.88 10.0598 217.392 10.3022 217.115 10.7629C216.838 11.2236 216.696 12.0272 216.686 13.1772H216.689Z" fill="#FFCE00" stroke="#040468" stroke-width="3.07046" stroke-miterlimit="10"/>
<path d="M12.8221 72.1145C14.2971 72.686 15.7235 73.6767 17.0946 75.1142C17.7385 75.7896 18.1886 76.1776 18.4448 76.2711C18.6283 76.3404 18.9261 76.3854 19.3381 76.4027C19.4731 76.4062 19.622 76.4408 19.7847 76.4997C20.3179 76.6937 20.7784 77.2133 21.1662 78.0619C22.1183 80.1229 22.5684 82.4402 22.5164 84.9827C22.4783 86.7735 22.0248 87.9165 21.1627 88.3911C20.6953 88.644 20.176 88.6474 19.6047 88.4049C19.0853 88.1867 18.6699 87.8438 18.3514 87.3866C18.0328 86.9294 17.7316 86.2262 17.4408 85.291C17.0288 83.9678 16.686 83.0014 16.4194 82.3917C16.1563 81.7821 15.8274 81.1967 15.4396 80.6321C14.4736 79.2535 13.4592 78.3529 12.3928 77.9026C11.3576 77.4661 10.5336 77.6359 9.92079 78.3979C9.30451 79.1634 8.99291 80.3965 8.97559 82.1215C8.95136 84.4943 9.35298 86.8843 10.1908 89.3021C11.3126 92.5442 12.9676 94.7819 15.1626 95.8799C15.9693 96.2852 16.776 96.4861 17.5827 96.4792C18.3894 96.4722 19.023 96.2471 19.48 95.8349C19.8644 95.485 20.1933 95.3638 20.4391 95.4747C20.7957 95.634 21.0934 96.0115 21.3393 96.6039C21.5851 97.1962 21.6993 97.8335 21.6855 98.5124C21.6682 99.368 21.4708 100.248 21.0934 101.138C20.7161 102.028 20.2764 102.655 19.7709 103.009C19.5527 103.154 19.1061 103.157 18.4448 103.009C18.064 102.922 17.5516 102.929 16.9145 103.033C15.4188 103.286 13.8885 102.953 12.3167 102.066C10.6756 101.142 9.06561 99.6659 7.46952 97.688C5.61722 95.3915 4.17 92.7001 3.10363 89.6796C2.06496 86.7319 1.53523 84.0267 1.53523 81.5084C1.53523 78.585 2.20345 76.278 3.56757 74.4768C4.75166 72.9146 6.30621 71.9586 8.24506 71.6088C9.71998 71.3421 11.2503 71.4979 12.8256 72.1076L12.8221 72.1145Z" fill="#FFCE00" stroke="#040468" stroke-width="3.07046" stroke-miterlimit="10"/>
<path d="M35.9084 79.8562C38.6263 80.6355 40.9875 82.4298 42.9783 85.336C44.3251 87.3277 45.4122 89.742 46.2051 92.5789C46.991 95.388 47.2853 98.173 47.2784 100.712C47.268 103.687 46.3124 107.671 44.5051 110.147C43.0198 112.181 41.1329 113.379 38.8582 113.597C37.4595 113.733 36.0642 113.5 34.6793 112.932C32.8685 112.184 31.1582 110.885 29.5517 109.07C27.6059 106.878 26.1206 104.193 25.0716 101.072C24.0537 98.0517 23.5724 95.0382 23.6382 91.9866C23.7144 88.4465 24.4726 85.6062 25.9302 83.3685C27.2285 81.3803 28.9631 80.1471 31.1063 79.6345C32.5466 79.2916 34.1496 79.3505 35.9049 79.8527L35.9084 79.8562ZM34.2396 86.098C33.3844 85.8001 32.647 86.1846 32.0999 87.1545C31.6914 87.8819 31.4559 88.8345 31.4282 90.0191C31.3867 91.7545 31.5771 93.8466 32.003 96.3129C32.4288 98.7791 32.9828 101.044 33.6718 103.109C33.9765 103.992 34.3642 104.754 34.8282 105.392C35.2956 106.025 35.7734 106.441 36.2685 106.628C37.0682 106.933 37.7261 106.725 38.2419 106.005C38.7578 105.284 39.0348 104.186 39.0694 102.714C39.1179 100.802 38.9656 98.6648 38.6089 96.3233C38.2523 93.9783 37.7642 91.9277 37.1479 90.1646C36.7705 89.0804 36.3239 88.1833 35.8114 87.4697C35.299 86.7561 34.7624 86.2851 34.2361 86.1015L34.2396 86.098Z" fill="#FFCE00" stroke="#040468" stroke-width="3.07046" stroke-miterlimit="10"/>
<path d="M59.3305 97.262C59.237 101.1 59.1435 104.941 59.05 108.779C58.9877 111.374 59.0916 113.088 59.372 113.916C59.7044 114.896 60.4661 115.544 61.6329 115.842C62.8862 116.161 63.8902 115.981 64.6415 115.309C65.3894 114.633 65.9399 113.421 66.2584 111.689C66.4523 110.629 66.8366 110.151 67.4252 110.276C68.0103 110.4 68.4812 110.906 68.8378 111.796C69.1909 112.686 69.3537 113.781 69.326 115.08C69.281 117.2 68.7201 119.358 67.6433 121.523C67.304 122.216 67.0097 122.669 66.7604 122.891C66.5112 123.113 66.2134 123.182 65.8706 123.099C64.3992 122.461 63.6652 122.136 62.2041 121.478C58.3541 120.432 54.5526 119.323 50.7406 118.142C49.9928 117.903 49.4735 117.598 49.1792 117.241C48.7499 116.722 48.5387 116.085 48.5594 115.336C48.5698 114.879 48.6529 114.567 48.8052 114.394C48.9576 114.221 49.3177 114.017 49.8889 113.788C50.5121 113.539 50.9311 113.036 51.1215 112.288C51.2808 111.661 51.3985 109.718 51.4816 106.469C51.5196 104.959 51.5508 102.776 51.5647 99.9222C51.582 97.1858 51.5924 95.1179 51.6235 93.7427C51.6512 92.4369 51.6131 91.5155 51.4885 90.9994C51.3673 90.4833 51.0903 90.0641 50.6645 89.7455C49.9616 89.1947 49.515 88.7791 49.328 88.5019C48.9922 88.0101 48.8329 87.5009 48.8468 86.9813C48.878 85.7932 49.56 85.0554 50.8757 84.7367C51.9974 84.4631 53.5035 84.522 55.3835 84.9238C57.492 85.3776 59.0812 85.8556 60.1129 86.4029C61.4528 87.1129 62.1141 88.1625 62.0829 89.5272C62.0691 90.0815 61.9687 90.4763 61.7817 90.7084C61.5948 90.9405 61.1447 91.2141 60.4349 91.5189C60.0125 91.7164 59.739 92.1459 59.6109 92.811C59.4863 93.4726 59.3928 94.9585 59.3374 97.2689L59.3305 97.262Z" fill="#FFCE00" stroke="#040468" stroke-width="3.07046" stroke-miterlimit="10"/>
<path d="M73.7853 88.7964C77.1991 89.3159 78.9129 89.5515 82.3509 89.9775C84.089 90.1923 85.3596 90.2789 86.1629 90.2546C86.9626 90.2304 87.7451 90.0814 88.5137 89.8078C88.7492 89.7247 88.9361 89.6935 89.0711 89.7073C89.6528 89.7662 90.1618 90.3101 90.5945 91.3388C91.3112 93.0153 91.654 94.9897 91.6228 97.2655C91.6055 98.412 91.4393 99.3022 91.1208 99.9291C90.8023 100.56 90.3729 100.844 89.8328 100.785C89.4624 100.743 89.175 100.594 88.9707 100.331C88.7665 100.071 88.4964 99.5066 88.1606 98.6406C87.6862 97.4075 87.0734 96.5519 86.3221 96.067C85.5743 95.5855 84.3348 95.2426 82.6175 95.0174C81.333 94.8512 80.5471 95.1006 80.2563 95.776C80.1039 96.1397 80.007 96.6385 79.9689 97.2793C79.9274 97.9201 79.8858 99.5585 79.8373 102.201C79.8166 103.244 79.917 103.909 80.1386 104.197C80.3567 104.484 80.9418 104.699 81.8939 104.834C82.3648 104.903 82.7075 104.796 82.9257 104.522C83.1438 104.245 83.2857 103.715 83.3584 102.939C83.4519 101.938 83.5489 101.252 83.6389 100.889C83.7289 100.525 83.8985 100.217 84.1167 99.9673C84.359 99.6936 84.6325 99.562 84.9476 99.6001C85.4081 99.659 85.7993 100.05 86.1075 100.771C86.336 101.304 86.5195 102.233 86.6614 103.542C86.8034 104.851 86.8657 106.209 86.8415 107.612C86.7964 110.386 86.4848 112.624 85.9066 114.318C85.5881 115.239 85.1173 115.655 84.4975 115.565C84.1132 115.51 83.8535 115.316 83.7116 114.99C83.5696 114.661 83.4692 114.01 83.4069 113.04C83.2753 111.045 82.5483 109.947 81.2361 109.746C80.7306 109.669 80.3809 109.863 80.187 110.328C79.9931 110.795 79.8823 111.696 79.8581 113.036C79.8443 113.854 79.8581 114.917 79.91 116.223C79.9585 117.532 80.0243 118.405 80.0901 118.831C80.1732 119.365 80.4432 119.777 80.9072 120.058C81.3711 120.335 82.1467 120.567 83.2407 120.74C84.9338 121.007 86.2148 120.854 87.0873 120.3C87.9563 119.746 88.6764 118.613 89.2477 116.902C89.5801 115.922 89.8744 115.271 90.1341 114.948C90.3937 114.626 90.7261 114.491 91.1346 114.54C91.609 114.595 92.0002 114.962 92.3014 115.641C92.6026 116.32 92.748 117.148 92.7377 118.118C92.7238 119.178 92.5299 120.484 92.156 122.028C91.7821 123.577 91.332 124.935 90.8023 126.102C90.5322 126.667 90.3106 127.041 90.1375 127.221C89.9644 127.401 89.7463 127.474 89.4866 127.436C89.2719 127.404 88.95 127.314 88.5518 127.148C87.8351 126.85 86.8622 126.563 85.6504 126.324C80.8552 125.548 76.0981 124.664 71.3445 123.667C70.7766 123.542 70.3404 123.251 70.0357 122.797C69.731 122.344 69.5891 121.765 69.6029 121.062C69.6133 120.567 69.6895 120.22 69.828 120.03C69.9665 119.836 70.285 119.607 70.7663 119.382C71.0952 119.226 71.3583 119.008 71.5279 118.717C71.6976 118.426 71.8326 117.969 71.933 117.352C72.4974 113.923 72.5943 110.421 72.7017 106.968C72.8332 102.853 73.0202 98.3566 72.165 94.2762C72.0611 93.9159 71.9434 93.6527 71.8153 93.4933C71.6838 93.334 71.4102 93.1262 70.9948 92.8664C70.3716 92.475 70.0703 91.7649 70.0911 90.7569C70.1015 90.2096 70.2192 89.7385 70.4373 89.3471C70.6555 88.9557 70.9428 88.7098 71.2856 88.6336C71.708 88.54 72.5562 88.6058 73.7957 88.7929L73.7853 88.7964Z" fill="#FFCE00" stroke="#040468" stroke-width="3.07046" stroke-miterlimit="10"/>
<path d="M106.853 91.2973C108.498 91.3735 110.084 92.0039 111.614 93.1954C112.334 93.7531 112.836 94.0372 113.116 94.0441C113.321 94.051 113.646 93.9783 114.1 93.8259C114.245 93.7774 114.411 93.7531 114.591 93.7566C115.18 93.7704 115.692 94.2103 116.129 95.0763C117.209 97.1719 117.749 99.756 117.742 102.839C117.739 105.007 117.264 106.587 116.319 107.57C115.807 108.097 115.232 108.353 114.595 108.339C114.017 108.326 113.542 108.114 113.182 107.709C112.819 107.304 112.472 106.594 112.133 105.582C111.655 104.155 111.261 103.123 110.956 102.496C110.655 101.869 110.281 101.294 109.845 100.778C108.754 99.5204 107.608 98.8623 106.41 98.7999C105.247 98.7411 104.319 99.3542 103.623 100.639C102.927 101.924 102.57 103.677 102.55 105.904C102.522 108.966 102.986 111.814 103.959 114.422C105.261 117.91 107.189 119.746 109.703 119.867C110.627 119.912 111.545 119.708 112.455 119.257C113.366 118.807 114.072 118.194 114.578 117.446C115.007 116.815 115.367 116.5 115.644 116.507C116.042 116.517 116.385 116.815 116.669 117.401C116.953 117.99 117.095 118.693 117.091 119.517C117.091 120.556 116.887 121.717 116.482 122.998C116.077 124.28 115.592 125.281 115.031 125.998C114.789 126.296 114.283 126.559 113.532 126.757C113.099 126.871 112.514 127.179 111.79 127.685C110.087 128.883 108.314 129.427 106.483 129.309C104.568 129.188 102.667 128.371 100.784 126.874C98.5958 125.136 96.9062 122.531 95.6494 119.268C94.5103 116.317 93.8767 112.482 93.901 109.358C93.9252 106.043 94.7908 101.817 96.3696 98.8207C97.7683 96.164 99.5375 94.096 101.726 92.7382C103.391 91.7025 105.101 91.2245 106.857 91.3042L106.853 91.2973Z" fill="#FFCE00" stroke="#040468" stroke-width="3.07046" stroke-miterlimit="10"/>
<path d="M126.141 91.7926C127.429 91.7753 128.641 91.9311 129.784 92.2602C131.321 92.7036 132.093 93.7046 132.1 95.2772C132.1 95.7968 132.027 96.1882 131.878 96.4515C131.726 96.7147 131.342 97.1131 130.722 97.6292C130.206 98.0552 129.863 98.9697 129.704 100.369C129.545 101.768 129.472 104.491 129.489 108.537C129.503 112.756 129.441 117.016 129.863 121.221C129.946 121.738 130.071 122.132 130.237 122.403C130.403 122.673 130.694 122.964 131.11 123.272C131.868 123.781 132.249 124.54 132.256 125.558C132.263 126.989 131.567 128.011 130.171 128.592C128.665 129.219 126.803 129.555 124.611 129.583C120.865 129.628 118.992 128.475 118.995 126.254C118.995 125.447 119.366 124.703 120.1 124.006C120.661 123.473 121.007 122.728 121.097 121.807C121.519 117.553 121.429 113.119 121.426 108.804C121.419 104.224 121.28 101.28 120.986 99.988C120.827 99.2537 120.432 98.5887 119.851 97.9963C119.387 97.5218 119.075 97.1027 118.919 96.7805C118.76 96.4584 118.684 96.0427 118.684 95.5439C118.684 94.775 118.919 94.1619 119.39 93.7081C119.861 93.2543 120.699 92.8595 121.872 92.4923C123.278 92.0558 124.711 91.8099 126.155 91.7891L126.141 91.7926Z" fill="#FFCE00" stroke="#040468" stroke-width="3.07046" stroke-miterlimit="10"/>
<path d="M146.198 90.7119C149.086 90.4937 151.617 91.5674 153.805 93.9332C155.287 95.5613 156.516 97.7296 157.457 100.435C158.392 103.119 158.873 105.873 158.925 108.668C158.998 112.614 158.195 116.576 156.467 120.134C155.017 123.116 153.088 125.395 150.682 126.906C149.207 127.83 147.704 128.371 146.198 128.53C144.225 128.734 142.324 128.267 140.506 127.127C138.308 125.749 136.597 123.466 135.327 120.428C134.091 117.477 133.35 113.622 133.471 110.466C133.62 106.611 134.028 102.707 135.697 99.1082C137.051 96.1951 138.858 93.9436 141.116 92.4507C142.636 91.4427 144.332 90.8574 146.195 90.7188L146.198 90.7119ZM144.678 98.4709C143.757 98.5124 142.992 99.2745 142.449 100.636C142.037 101.658 141.825 102.86 141.839 104.231C141.857 106.24 142.14 108.551 142.687 111.152C143.234 113.753 143.917 116.039 144.737 118.01C145.097 118.849 145.54 119.5 146.063 119.964C146.586 120.428 147.116 120.633 147.649 120.577C148.511 120.487 149.203 119.905 149.716 118.838C150.232 117.771 150.477 116.417 150.453 114.775C150.426 112.638 150.173 110.355 149.702 107.927C149.231 105.496 148.632 103.438 147.912 101.748C147.469 100.705 146.963 99.898 146.392 99.3265C145.821 98.7515 145.229 98.4536 144.675 98.4778L144.678 98.4709Z" fill="#FFCE00" stroke="#040468" stroke-width="3.07046" stroke-miterlimit="10"/>
<path d="M169.271 90.0884C172.058 93.3652 174.89 96.6073 177.77 99.8044C178.567 100.681 179.135 101.079 179.474 101.006C180.045 100.885 180.308 99.8841 180.267 98.0136C180.218 95.8868 180.1 94.4528 179.917 93.7115C179.733 92.9668 179.37 92.4542 178.837 92.1667C178.401 91.9311 178.089 91.6436 177.905 91.3111C177.722 90.9786 177.621 90.5248 177.608 89.9498C177.576 88.5262 178.186 87.4974 179.439 86.8601C179.952 86.5968 180.848 86.344 182.129 86.098C183.781 85.7793 184.927 85.6997 185.564 85.8625C186.571 86.1257 187.101 86.8912 187.132 88.1867C187.16 89.264 186.772 90.168 185.969 90.8989C185.647 91.1864 185.429 91.4289 185.311 91.6194C185.193 91.8134 185.096 92.0835 185.017 92.4368C184.75 93.6042 184.646 95.724 184.712 98.7999C184.792 102.066 184.833 103.701 184.913 106.968C184.944 108.222 184.993 109.933 185.055 112.101C185.138 115.035 185.072 117.193 184.865 118.561C184.605 120.262 184.089 121.228 183.31 121.443C182.971 121.537 182.673 121.505 182.42 121.356C182.167 121.204 181.745 120.809 181.153 120.165C177.712 116.424 174.332 112.638 170.995 108.807C170.285 107.976 169.7 107.598 169.246 107.681C168.568 107.802 168.256 109.323 168.315 112.24C168.363 114.64 168.481 116.265 168.672 117.11C168.862 117.955 169.232 118.537 169.776 118.842C170.531 119.261 170.926 119.922 170.946 120.833C170.995 123.223 169.354 124.796 165.992 125.437C164.475 125.728 163.288 125.627 162.436 125.156C161.584 124.685 161.148 123.875 161.131 122.742C161.12 122.15 161.193 121.692 161.345 121.367C161.498 121.045 161.848 120.584 162.388 119.988C162.907 119.413 163.219 118.492 163.302 117.241C163.52 114.02 163.478 110.719 163.412 107.515C163.347 104.314 163.284 100.979 162.73 97.7746C162.595 97.0438 162.426 96.5069 162.232 96.1674C162.034 95.828 161.716 95.5231 161.276 95.246C160.767 94.9308 160.411 94.5983 160.21 94.2554C160.009 93.9124 159.902 93.4795 159.895 92.9564C159.867 91.2799 160.771 90.1161 162.599 89.4441C163.219 89.2259 164.309 89.0146 165.864 88.7998C166.754 88.6751 167.401 88.6924 167.809 88.8483C168.218 89.0042 168.706 89.4233 169.277 90.0953L169.271 90.0884Z" fill="#FFCE00" stroke="#040468" stroke-width="3.07046" stroke-miterlimit="10"/>
<path d="M208.453 96.0877C209.741 99.4546 210.381 101.114 211.652 104.38C211.953 105.128 212.202 105.599 212.396 105.79C212.59 105.98 212.881 106.046 213.265 105.974C214.013 105.835 214.401 106.223 214.425 107.169C214.453 108.28 214.017 109.282 213.116 110.172C212.216 111.058 210.727 111.959 208.633 112.822C206.265 113.795 204.485 114.335 203.325 114.467C202.792 114.526 202.363 114.391 202.037 114.069C201.712 113.746 201.542 113.272 201.525 112.648C201.511 112.17 201.584 111.769 201.743 111.446C201.902 111.124 202.203 110.771 202.64 110.386C203.131 109.953 203.37 109.434 203.356 108.828C203.329 107.764 202.875 107.286 202.016 107.401C201.092 107.525 199.78 107.882 198.083 108.436C196.657 108.904 195.805 109.299 195.532 109.649C195.362 109.867 195.22 110.206 195.102 110.671C194.985 111.135 194.929 111.561 194.94 111.952C194.95 112.309 195.002 112.527 195.095 112.603C195.189 112.68 195.501 112.77 196.006 112.839C196.657 112.925 197.014 113.39 197.034 114.263C197.083 116.188 195.584 117.699 192.499 118.689C190.743 119.254 189.435 119.469 188.604 119.347C187.839 119.233 187.43 118.575 187.402 117.394C187.388 116.878 187.465 116.455 187.627 116.126C187.79 115.797 188.088 115.451 188.517 115.094C189.217 114.512 189.739 113.819 190.086 113.026C190.432 112.236 190.913 110.619 191.529 108.19C192.371 104.879 192.79 103.23 193.624 99.9499C194.396 96.9398 194.905 94.7195 195.154 93.2682C195.404 91.8203 195.518 90.4347 195.494 89.1185C195.469 87.7191 195.501 86.7354 195.587 86.1673C195.674 85.5992 195.892 85.0104 196.231 84.4042C196.944 83.0879 197.876 82.2913 199.022 82.0003C200.102 81.7266 201.251 82.0938 202.165 83.081C205.202 86.3613 206.753 91.7995 208.453 96.0947V96.0877ZM197.436 102.731C198.7 102.343 199.326 102.146 200.583 101.744C201.161 101.557 201.442 101.273 201.431 100.889C201.417 100.362 200.985 99.2017 200.13 97.3832C199.742 96.5484 199.447 95.9977 199.247 95.7344C199.046 95.4712 198.838 95.3707 198.623 95.4331C198.239 95.5474 197.931 96.1778 197.699 97.3347C197.661 97.4941 197.519 98.1106 197.277 99.1913C196.868 100.972 196.667 102.028 196.678 102.354C196.688 102.759 196.941 102.887 197.436 102.735V102.731Z" fill="#FFCE00" stroke="#040468" stroke-width="3.07046" stroke-miterlimit="10"/>
<path d="M224.843 92.2117C224.466 92.371 224.216 92.662 224.116 93.0465C224.016 93.431 223.977 94.2346 224.002 95.4608C224.036 97.3139 224.147 98.7202 224.327 99.6763C224.383 99.943 224.462 100.133 224.566 100.244C224.67 100.355 224.864 100.459 225.151 100.549C225.764 100.729 226.072 101.204 226.086 101.983C226.103 102.936 225.698 103.829 224.867 104.661C224.036 105.492 222.624 106.424 220.605 107.411C216.849 109.243 214.903 109.011 214.851 106.881C214.844 106.517 214.893 106.199 215 105.929C215.107 105.658 215.36 105.236 215.751 104.671C216.191 104.034 216.489 103.383 216.634 102.718C216.779 102.052 216.88 100.965 216.897 99.4858C216.942 95.6721 216.804 91.7926 216.714 87.9512C216.665 85.859 216.561 84.4596 216.399 83.7565C216.236 83.0533 215.907 82.603 215.426 82.4263C214.969 82.2601 214.647 82.073 214.484 81.8617C214.321 81.647 214.235 81.3283 214.224 80.9023C214.21 80.3411 214.349 79.8007 214.636 79.2881C214.924 78.7754 215.332 78.3355 215.859 77.9649C216.302 77.6532 216.915 77.3726 217.694 77.1128C218.036 76.9985 218.895 76.7941 220.263 76.472C220.522 76.4131 220.931 76.2884 221.485 76.0944C222.413 75.7723 223.649 75.2389 225.175 74.5149C226.138 74.0577 226.82 73.7598 227.208 73.6143C229.386 72.8038 231.189 72.8419 232.605 73.6975C233.886 74.4699 234.53 75.9732 234.551 78.2455C234.565 79.5133 234.357 80.7672 233.935 82.0176C233.509 83.2681 232.92 84.3418 232.162 85.239C231.847 85.6131 231.691 85.956 231.695 86.2643C231.702 86.6695 231.948 86.8843 232.436 86.8982C233.481 86.9224 234.25 87.3346 234.742 88.1451C235.233 88.9557 235.586 90.3966 235.815 92.4542C235.908 93.3063 236.043 93.8224 236.21 93.9956C236.376 94.1688 236.76 94.2034 237.363 94.0995C237.546 94.0752 237.702 94.1549 237.83 94.3454C237.958 94.5359 238.02 94.7923 238.024 95.1144C238.024 95.5335 237.913 96.0254 237.688 96.59C237.463 97.1546 237.165 97.6742 236.802 98.1418C235.998 99.1636 234.89 100.106 233.471 100.934C231.574 102.042 230.189 102.087 229.334 101.072C228.946 100.622 228.613 99.9638 228.336 99.1013C228.056 98.2388 227.72 96.8394 227.322 94.8892C227.069 93.6388 226.758 92.8144 226.391 92.4161C226.024 92.0212 225.48 91.938 224.84 92.2082L224.843 92.2117ZM223.749 81.4461C223.721 83.5105 223.707 84.5462 223.68 86.6141C223.68 86.6592 223.68 86.725 223.683 86.8116C223.694 87.3381 223.752 87.6671 223.863 87.7953C223.974 87.9269 224.192 87.92 224.514 87.7849C225.407 87.4039 226.048 86.7942 226.443 85.9629C226.834 85.1316 227.021 84.0024 226.997 82.5649C226.948 79.7938 226.231 78.6854 224.836 79.2223C224.438 79.3747 224.161 79.6137 224.002 79.9393C223.842 80.2649 223.759 80.7672 223.752 81.4461H223.749Z" fill="#FFCE00" stroke="#040468" stroke-width="3.07046" stroke-miterlimit="10"/>
<path d="M17.3681 135.489C17.285 139.971 17.2053 144.453 17.1223 148.936C17.0669 151.963 17.2019 154.059 17.5412 155.212C17.9428 156.587 18.843 157.838 20.2383 158.908C21.7374 160.061 22.9492 160.442 23.8529 160.068C24.76 159.694 25.4282 158.53 25.8159 156.618C26.0548 155.441 26.5257 155.077 27.2459 155.545C27.966 156.016 28.5477 156.882 28.9839 158.153C29.4201 159.424 29.6175 160.851 29.5794 162.424C29.5171 164.987 28.8177 167.325 27.5021 169.338C27.0866 169.982 26.7265 170.363 26.4218 170.484C26.1172 170.605 25.7571 170.512 25.3416 170.204C23.562 168.548 22.6792 167.706 20.9342 165.998C16.2705 162.33 11.9012 158.336 7.63224 154.221C6.79092 153.39 6.2058 152.645 5.86996 152.012C5.38178 151.09 5.13596 150.21 5.14289 149.372C5.14289 148.863 5.22944 148.565 5.39563 148.482C5.56182 148.399 5.95998 148.44 6.59357 148.596C7.28948 148.769 7.75342 148.489 7.95423 147.768C8.12388 147.162 8.22429 145.011 8.26237 141.336C8.27968 139.628 8.27622 137.138 8.24506 133.875C8.2139 130.744 8.19313 128.388 8.20351 126.826C8.2139 125.347 8.14812 124.266 7.99578 123.598C7.84344 122.933 7.51453 122.285 7.0125 121.661C6.18156 120.601 5.65876 119.857 5.43372 119.424C5.03556 118.658 4.83821 117.986 4.84167 117.404C4.8486 116.081 5.61375 115.665 7.15445 116.071C8.46318 116.414 10.2428 117.338 12.4967 118.835C15.0241 120.511 16.9561 121.893 18.2198 123.068C19.8609 124.595 20.678 126.171 20.6434 127.778C20.6295 128.433 20.5083 128.852 20.2833 129.032C20.0548 129.212 19.5077 129.306 18.6491 129.292C18.1367 129.303 17.8078 129.663 17.6624 130.376C17.5169 131.09 17.4165 132.794 17.3681 135.489Z" fill="#FFCE00" stroke="#040468" stroke-width="3.07046" stroke-miterlimit="10"/>
<path d="M35.2713 132.316C38.9171 134.003 42.5628 135.6 46.2778 137.138C48.5352 138.042 50.1971 138.593 51.2461 138.835C52.2952 139.078 53.3269 139.15 54.3379 139.05C54.6495 139.022 54.8953 139.039 55.0719 139.102C55.8371 139.365 56.5018 140.217 57.0627 141.675C57.9871 144.048 58.4199 146.691 58.3472 149.601C58.3126 151.066 58.0806 152.15 57.6513 152.85C57.222 153.549 56.6542 153.768 55.9444 153.504C55.4562 153.324 55.0788 153.03 54.8157 152.628C54.5491 152.223 54.2029 151.409 53.7736 150.19C53.1642 148.451 52.3679 147.148 51.395 146.268C50.4187 145.389 48.8052 144.512 46.5756 143.584C44.9102 142.891 43.8923 142.895 43.5115 143.622C43.3107 144.017 43.186 144.606 43.1272 145.389C43.0718 146.175 42.9991 148.212 42.916 151.499C42.8813 152.798 43.006 153.671 43.283 154.121C43.5634 154.571 44.3113 155.087 45.5403 155.652C46.1462 155.929 46.5929 155.939 46.8802 155.676C47.1641 155.416 47.3546 154.803 47.455 153.851C47.5831 152.628 47.7181 151.797 47.8393 151.371C47.9605 150.945 48.182 150.619 48.4694 150.387C48.7845 150.134 49.148 150.068 49.5566 150.235C50.1555 150.48 50.661 151.118 51.0592 152.15C51.3535 152.912 51.582 154.156 51.7516 155.874C51.9213 157.592 51.987 159.341 51.942 161.118C51.852 164.627 51.4192 167.353 50.6472 169.268C50.2213 170.311 49.605 170.643 48.8018 170.269C48.3067 170.037 47.9708 169.684 47.7908 169.209C47.6108 168.735 47.4896 167.869 47.4169 166.615C47.268 164.038 46.3332 162.358 44.6471 161.544C43.9996 161.232 43.5496 161.322 43.2968 161.825C43.0441 162.327 42.8952 163.408 42.8536 165.074C42.826 166.092 42.8398 167.433 42.8917 169.092C42.9437 170.754 43.0164 171.877 43.0995 172.448C43.1999 173.155 43.5426 173.799 44.1312 174.36C44.7233 174.921 45.7169 175.569 47.1261 176.269C49.3038 177.353 50.9761 177.699 52.1152 177.349C53.2542 177 54.2098 175.843 54.9784 173.879C55.4251 172.753 55.8198 172.032 56.166 171.721C56.5087 171.409 56.9519 171.357 57.4851 171.568C58.1118 171.814 58.6172 172.427 59.0085 173.411C59.3997 174.395 59.5798 175.51 59.5521 176.754C59.5209 178.112 59.2474 179.719 58.735 181.568C58.2225 183.415 57.6132 184.984 56.9034 186.272C56.5434 186.892 56.2456 187.277 56.0171 187.44C55.7886 187.599 55.5012 187.602 55.1619 187.45C54.8815 187.322 54.4626 187.076 53.9432 186.695C53.0049 186.009 51.7447 185.24 50.1798 184.409C43.9062 181.343 37.92 177.824 32.0549 174.045C31.3521 173.577 30.812 172.978 30.4415 172.251C30.0676 171.523 29.8945 170.737 29.9152 169.885C29.9291 169.286 30.0226 168.905 30.1922 168.745C30.3619 168.586 30.7635 168.479 31.3521 168.465C31.7606 168.454 32.0895 168.326 32.2973 168.056C32.5085 167.786 32.6781 167.297 32.8097 166.594C33.5298 162.514 33.7168 158.326 33.8172 154.204C33.9453 149.005 34.2084 143.504 33.194 138.35C33.0659 137.858 32.917 137.488 32.7543 137.235C32.5916 136.982 32.2453 136.601 31.7225 136.095C30.9366 135.333 30.5627 134.329 30.5938 133.109C30.6112 132.448 30.7566 131.925 31.0335 131.544C31.3105 131.163 31.6775 130.986 32.1034 131.045C32.6435 131.118 33.7064 131.561 35.2852 132.313L35.2713 132.316Z" fill="#FFCE00" stroke="#040468" stroke-width="3.07046" stroke-miterlimit="10"/>
<path d="M83.5108 181.679C82.3302 185.233 81.7381 187 80.5506 190.505C80.0416 191.981 79.6331 192.951 79.3284 193.425C79.0237 193.896 78.6913 194.083 78.3347 193.986C77.992 193.893 77.6942 193.588 77.4415 193.068C77.2753 192.739 76.9048 191.603 76.3266 189.657C75.7519 187.71 75.2776 185.992 74.9036 184.502C73.9584 180.761 73.0167 177.02 72.075 173.276C71.6907 171.721 71.2717 170.876 70.8147 170.74C70.3266 170.598 70.0496 171.128 69.9769 172.341C69.8141 175.032 69.7068 177.533 69.6583 179.843C69.6064 182.244 69.6376 183.91 69.783 184.8C69.8695 185.337 70.0115 185.76 70.1846 186.047C70.3543 186.335 70.8251 186.906 71.5937 187.755C72.0923 188.309 72.3312 189.071 72.3104 190.044C72.2585 192.642 70.0115 193.29 65.6525 191.693C61.9756 190.346 60.1995 188.337 60.2549 185.864C60.2687 185.23 60.3726 184.807 60.57 184.596C60.7638 184.388 61.2589 184.152 62.0553 183.882C62.5607 183.73 62.907 183.39 63.0939 182.86C63.2809 182.33 63.4505 181.229 63.6133 179.566C63.7864 177.793 63.9941 174.831 64.2018 170.709C64.3819 167.166 64.5446 163.608 64.6277 160.058C64.7108 156.334 64.5827 153.747 64.2365 152.306C64.1118 151.807 63.9664 151.419 63.8002 151.139C63.634 150.858 63.3155 150.46 62.8447 149.947C61.7991 148.842 61.2936 147.671 61.3247 146.445C61.342 145.652 61.5567 144.987 61.9687 144.45C62.3807 143.913 62.9277 143.615 63.5821 143.529C64.2365 143.442 65.1332 143.428 66.2411 143.518C67.349 143.608 68.2908 143.754 69.0594 143.955C70.9878 144.464 72.3554 145.039 73.1483 145.721C73.5361 146.05 73.8442 146.438 74.0623 146.885C74.2804 147.335 74.592 148.226 74.9937 149.559C76.4928 154.405 77.9989 159.251 79.5119 164.093C80.007 165.69 80.3532 166.677 80.5471 167.051C80.741 167.426 81.0145 167.654 81.3711 167.73C81.6793 167.8 81.9562 167.682 82.2021 167.381C82.4479 167.079 82.7387 166.48 83.0815 165.583C84.2309 162.555 85.3735 159.521 86.5056 156.483C86.928 155.302 87.2015 154.533 87.3296 154.173C88.1225 151.939 88.9015 150.484 89.6459 149.815C90.6015 148.956 92.3222 148.697 94.815 149.019C99.1982 149.59 101.39 151.315 101.359 154.405C101.352 155.101 101.262 155.649 101.085 156.05C100.909 156.452 100.545 156.927 100.019 157.467C99.2917 158.212 98.8208 159.386 98.6235 160.938C98.1215 164.897 98.0107 168.964 97.9553 172.923C97.8826 178.243 97.9795 183.668 98.3534 189.033C98.4365 190.169 98.575 190.955 98.7689 191.388C98.9628 191.821 99.4648 192.504 100.282 193.422C100.846 194.069 101.123 194.87 101.116 195.829C101.102 197.506 100.351 198.607 98.8693 199.092C98.1041 199.369 97.3009 199.501 96.4596 199.49C95.6183 199.48 94.3268 199.331 92.5922 199.019C89.9229 198.538 87.9425 197.831 86.6545 196.976C85.2211 196.027 84.5218 194.766 84.546 193.231C84.5564 192.663 84.6568 192.22 84.8507 191.898C85.0446 191.576 85.5397 191.018 86.336 190.214C86.7514 189.805 87.0423 188.905 87.2119 187.512C87.3816 186.123 87.4924 183.723 87.5443 180.311C87.572 178.416 87.5339 177.162 87.4266 176.546C87.3193 175.933 87.0769 175.586 86.7064 175.514C86.2702 175.427 85.8443 175.798 85.4254 176.622C85.0065 177.45 84.3729 179.133 83.5177 181.665L83.5108 181.679Z" fill="#FFCE00" stroke="#040468" stroke-width="3.07046" stroke-miterlimit="10"/>
<path d="M115.644 200.73C114.359 200.696 113.715 200.675 112.431 200.616C110.18 200.536 108.515 200.453 107.497 200.481C106.59 200.502 105.912 200.516 105.513 200.478C104.54 200.381 103.765 199.923 103.208 199.116C102.657 198.32 102.387 197.388 102.397 196.356C102.404 195.684 102.512 195.167 102.719 194.807C102.927 194.447 103.433 193.903 104.232 193.169C104.696 192.736 105.018 192.019 105.202 191.014C105.385 190.01 105.603 187.828 105.822 184.492C106.24 178.08 106.351 171.606 106.407 165.174C106.431 162.368 106.317 160.484 106.081 159.538C105.846 158.596 105.281 157.775 104.399 157.11C103.388 156.348 102.868 155.316 102.879 154.021C102.889 152.964 103.204 152.129 103.824 151.513C104.444 150.893 105.236 150.622 106.202 150.695C106.732 150.733 107.418 150.827 108.235 150.945C109.592 151.139 111.091 151.26 112.684 151.329C113.854 151.381 116.163 151.412 119.598 151.298C120.675 151.263 121.654 151.239 122.53 151.236C124.608 151.229 126.287 151.45 127.561 151.932C128.835 152.413 129.946 153.245 130.888 154.433C132.429 156.362 133.211 158.988 133.229 162.33C133.239 163.989 133.017 165.624 132.571 167.225C132.121 168.828 131.515 170.12 130.746 171.097C130.196 171.797 129.922 172.424 129.926 172.978C129.926 173.581 130.261 174.073 130.926 174.45C132.225 175.181 133.412 176.445 134.475 178.247C135.576 180.114 136.092 182.559 136.158 185.444C136.227 188.534 135.219 192.452 133.713 195.129C131.716 198.683 128.08 201.198 123.891 201.226C123.302 201.229 121.838 201.201 119.525 201.046C117.42 200.904 116.118 200.772 115.64 200.73H115.644ZM117.375 161.537C117.368 164.516 117.365 166.009 117.361 168.988C117.361 170.169 117.455 171.004 117.652 171.492C117.849 171.981 118.192 172.226 118.68 172.233C119.847 172.251 120.709 171.707 121.26 170.612C121.814 169.514 122.087 167.796 122.087 165.455C122.087 163.189 121.803 161.433 121.239 160.19C120.675 158.946 119.875 158.323 118.84 158.305C118.289 158.298 117.912 158.527 117.697 158.991C117.486 159.459 117.378 160.304 117.375 161.534V161.537ZM117.333 182.372C117.333 183.747 117.33 184.433 117.327 185.808C117.32 188.967 117.468 191.07 117.766 192.112C118.067 193.155 118.68 193.688 119.605 193.699C122.028 193.73 123.129 191.444 123.233 187.263C123.313 184.114 122.603 179.566 119.189 179.22C118.556 179.154 118.009 179.431 117.739 179.882C117.468 180.335 117.333 181.163 117.33 182.369L117.333 182.372Z" fill="#FFCE00" stroke="#040468" stroke-width="3.07046" stroke-miterlimit="10"/>
<path d="M153.116 177.339C152.538 177.422 152.146 177.782 151.991 178.357C151.835 178.932 151.769 180.218 151.797 182.216C151.838 185.237 151.994 187.568 152.267 189.213C152.354 189.674 152.475 190.02 152.634 190.252C152.794 190.484 153.098 190.751 153.542 191.046C154.494 191.648 154.978 192.58 154.999 193.862C155.023 195.427 154.383 196.674 153.078 197.582C151.772 198.493 149.428 199.161 146.396 199.726C143.325 200.297 137.601 200.114 137.539 195.784C137.532 195.213 137.619 194.738 137.792 194.371C137.965 194.007 138.356 193.477 138.972 192.795C139.661 192.026 140.129 191.153 140.368 190.18C140.607 189.206 140.773 187.54 140.835 185.212C141.001 179.137 140.846 172.989 140.794 166.889C140.766 163.556 140.634 161.302 140.406 160.12C140.177 158.943 139.696 158.094 138.979 157.619C138.301 157.173 137.823 156.75 137.588 156.348C137.349 155.946 137.227 155.41 137.224 154.734C137.217 153.844 137.435 153.054 137.875 152.358C138.315 151.662 138.931 151.128 139.72 150.744C140.389 150.422 141.306 150.207 142.469 150.089C142.982 150.037 144.266 150.03 146.316 150.027C146.704 150.027 147.316 149.978 148.154 149.871C149.55 149.691 151.412 149.282 153.715 148.652C155.169 148.253 156.201 148 156.786 147.9C160.078 147.335 162.81 148.007 164.991 149.951C166.958 151.703 167.976 154.471 168.048 158.312C168.09 160.456 167.792 162.49 167.152 164.419C166.511 166.348 165.608 167.907 164.441 169.081C163.956 169.573 163.717 170.079 163.724 170.595C163.738 171.274 164.126 171.738 164.887 171.974C166.522 172.465 167.726 173.494 168.516 175.081C169.302 176.667 169.89 179.265 170.292 182.857C170.458 184.346 170.68 185.282 170.95 185.656C171.22 186.03 171.836 186.279 172.792 186.394C173.086 186.439 173.335 186.657 173.543 187.041C173.751 187.426 173.861 187.897 173.872 188.451C173.886 189.168 173.72 189.951 173.366 190.8C173.013 191.648 172.553 192.379 171.978 192.985C170.707 194.305 168.945 195.32 166.684 195.971C163.665 196.841 161.463 196.172 160.113 194.056C159.5 193.113 158.977 191.86 158.538 190.301C158.098 188.742 157.568 186.272 156.952 182.888C156.557 180.716 156.079 179.22 155.512 178.402C154.944 177.585 154.106 177.207 153.116 177.349V177.339ZM151.516 159.383C151.457 162.722 151.43 164.395 151.371 167.734C151.371 167.807 151.371 167.911 151.374 168.056C151.385 168.912 151.475 169.469 151.641 169.729C151.807 169.989 152.143 170.075 152.641 169.992C154.012 169.76 154.999 169.04 155.605 167.845C156.211 166.653 156.491 164.873 156.457 162.507C156.388 157.942 155.297 155.853 153.175 156.192C152.572 156.289 152.146 156.57 151.904 157.034C151.662 157.498 151.533 158.281 151.516 159.383Z" fill="#FFCE00" stroke="#040468" stroke-width="3.07046" stroke-miterlimit="10"/>
<path d="M203.239 156.494C204.672 160.079 206.119 163.66 207.577 167.239C207.985 168.201 208.321 168.787 208.581 169.002C208.841 169.216 209.235 169.23 209.751 169.036C210.755 168.652 211.275 169.085 211.306 170.38C211.344 171.904 210.766 173.404 209.557 174.862C208.349 176.321 206.351 177.942 203.512 179.601C200.303 181.475 197.865 182.556 196.276 182.947C195.549 183.127 194.953 183.013 194.507 182.621C194.06 182.23 193.825 181.6 193.804 180.737C193.787 180.072 193.887 179.504 194.105 179.033C194.323 178.558 194.735 178.021 195.338 177.412C196.013 176.726 196.338 175.96 196.318 175.126C196.28 173.657 195.66 173.075 194.483 173.376C193.212 173.702 191.412 174.412 189.075 175.413C187.108 176.258 185.924 176.913 185.547 177.429C185.315 177.751 185.114 178.24 184.951 178.901C184.785 179.559 184.709 180.162 184.723 180.702C184.733 181.198 184.806 181.496 184.937 181.589C185.069 181.683 185.498 181.773 186.197 181.804C187.098 181.846 187.607 182.455 187.617 183.65C187.652 187.052 184.141 189.279 181.312 190.335C178.896 191.239 177.04 191.7 175.883 191.593C174.814 191.492 174.249 190.602 174.211 188.96C174.197 188.247 174.301 187.651 174.53 187.18C174.758 186.709 175.174 186.21 175.776 185.68C176.752 184.818 177.483 183.81 177.971 182.68C178.456 181.551 179.135 179.262 179.997 175.825C180.973 171.935 181.949 168.042 182.926 164.152C183.691 161.014 184.508 157.869 185.055 154.692C185.408 152.656 185.56 150.713 185.533 148.884C185.502 146.944 185.547 145.572 185.668 144.769C185.789 143.968 186.087 143.127 186.558 142.24C187.541 140.324 188.818 139.102 190.387 138.544C191.869 138.018 193.416 138.371 194.683 139.59C198.89 143.639 201.002 150.997 203.246 156.494H203.239ZM188.181 167.568C189.923 166.861 190.788 166.497 192.509 165.746C193.299 165.399 193.686 164.956 193.672 164.426C193.655 163.698 193.063 162.157 191.889 159.757C191.356 158.655 190.955 157.931 190.678 157.595C190.401 157.256 190.117 157.145 189.822 157.263C189.293 157.474 188.867 158.392 188.552 160.03C188.496 160.255 188.303 161.132 187.967 162.666C187.402 165.195 187.125 166.691 187.136 167.138C187.15 167.699 187.499 167.845 188.178 167.571L188.181 167.568Z" fill="#FFCE00" stroke="#040468" stroke-width="3.07046" stroke-miterlimit="10"/>
<path d="M225.016 146.736C224.521 147.082 224.203 147.56 224.071 148.115C223.943 148.669 223.894 149.777 223.926 151.437C223.974 153.948 224.119 155.825 224.355 157.062C224.428 157.405 224.531 157.633 224.666 157.748C224.802 157.862 225.054 157.931 225.425 157.955C226.218 157.976 226.619 158.503 226.64 159.559C226.664 160.848 226.145 162.213 225.072 163.65C223.998 165.088 222.139 167.034 219.511 168.884C217.552 170.266 212.417 173.74 211.88 169.875C211.818 169.435 211.932 168.922 212.078 168.524C212.223 168.125 212.556 167.474 213.078 166.587C213.667 165.59 214.058 164.613 214.252 163.657C214.446 162.701 214.571 161.187 214.591 159.147C214.65 153.913 214.442 148.613 214.318 143.355C214.252 140.494 214.107 138.603 213.889 137.678C213.67 136.753 213.231 136.213 212.59 136.092C211.981 135.974 211.548 135.794 211.33 135.537C211.112 135.281 210.994 134.862 210.98 134.277C210.963 133.504 211.143 132.732 211.527 131.959C211.912 131.187 212.455 130.487 213.155 129.853C213.747 129.32 214.56 128.783 215.592 128.236C216.045 127.993 217.185 127.494 218.988 126.691C219.331 126.542 219.868 126.258 220.598 125.839C221.817 125.139 223.434 124.062 225.425 122.614C226.682 121.699 227.561 121.076 228.063 120.757C230.881 118.963 233.191 118.385 234.991 119.005C236.615 119.562 237.418 121.298 237.442 124.315C237.456 125.998 237.193 127.751 236.656 129.59C236.12 131.433 235.375 133.113 234.413 134.613C234.015 135.243 233.814 135.763 233.821 136.175C233.828 136.719 234.143 136.906 234.759 136.722C236.081 136.324 237.041 136.542 237.653 137.401C238.266 138.264 238.699 140.013 238.972 142.638C239.087 143.726 239.249 144.346 239.454 144.492C239.658 144.637 240.136 144.502 240.87 144.059C241.095 143.934 241.285 143.962 241.438 144.149C241.59 144.336 241.67 144.64 241.67 145.067C241.67 145.617 241.531 146.324 241.251 147.19C240.97 148.056 240.607 148.891 240.157 149.694C239.166 151.454 237.802 153.258 236.026 155.035C233.654 157.408 231.896 158.059 230.808 157.044C230.317 156.598 229.891 155.843 229.531 154.79C229.171 153.737 228.738 151.973 228.226 149.486C227.897 147.89 227.499 146.885 227.024 146.48C226.55 146.074 225.847 146.158 225.013 146.74L225.016 146.736ZM223.572 132.455C223.538 135.274 223.524 136.684 223.489 139.507C223.489 139.566 223.489 139.656 223.496 139.774C223.51 140.484 223.59 140.913 223.732 141.055C223.877 141.197 224.158 141.121 224.583 140.827C225.747 140.016 226.574 138.967 227.08 137.709C227.585 136.452 227.824 134.855 227.789 132.922C227.727 129.188 226.799 127.931 224.982 129.098C224.462 129.431 224.102 129.839 223.894 130.331C223.687 130.82 223.579 131.53 223.572 132.455Z" fill="#FFCE00" stroke="#040468" stroke-width="3.07046" stroke-miterlimit="10"/>
</g>
<defs>
<filter id="filter0_d_619_46" x="0" y="0" width="247.014" height="202.761" filterUnits="userSpaceOnUse" color-interpolation-filters="sRGB">
<feFlood flood-opacity="0" result="BackgroundImageFix"/>
<feColorMatrix in="SourceAlpha" type="matrix" values="0 0 0 0 0 0 0 0 0 0 0 0 0 0 0 0 0 0 127 0" result="hardAlpha"/>
<feOffset dx="3.68456"/>
<feColorMatrix type="matrix" values="0 0 0 0 0.0470588 0 0 0 0 0 0 0 0 0 0.376471 0 0 0 1 0"/>
<feBlend mode="normal" in2="BackgroundImageFix" result="effect1_dropShadow_619_46"/>
<feBlend mode="normal" in="SourceGraphic" in2="effect1_dropShadow_619_46" result="shape"/>
</filter>
</defs>
</svg>
