<svg width="343" height="87" viewBox="0 0 343 87" fill="none" xmlns="http://www.w3.org/2000/svg">
<path d="M-3.46417e-07 7.78247L15.8574 -0.412967L17.6595 3.07389L4.7337 9.7542L8.72811 17.483L5.79649 18.9981L-3.46417e-07 7.78247ZM18.7402 26.7407L13.0451 19.3568C11.3246 20.8102 11.1848 22.3072 12.3909 23.8711C13.2612 24.9994 14.6564 25.3757 15.4273 25.0652L17.3359 27.5397C14.31 28.6106 11.9828 27.7219 10.1964 25.4058C7.70771 22.1791 8.38275 18.4696 11.5501 16.0267C14.6185 13.6601 18.5881 13.9766 20.9852 17.0846C23.6724 20.5686 22.0405 24.511 18.7402 26.7407ZM14.8268 17.9827L18.3538 22.5555C19.5806 21.1989 19.8595 20.005 18.806 18.6391C17.4318 16.8575 15.6491 17.4115 14.8268 17.9827ZM15.8334 31.7185L24.4989 22.1286L26.9844 24.3746L25.8112 25.6731L25.8483 25.7066C27.4229 25.3436 28.9441 25.6737 30.1869 26.7967C31.3926 27.8862 32.0662 29.3035 31.5464 30.9228C32.8571 30.591 34.546 30.7356 35.8815 31.9424C37.9219 33.7861 38.5324 36.0562 36.2864 38.5418L30.4871 44.9597L27.8532 42.5797L32.7641 37.1448C33.9207 35.8649 34.7648 34.7071 33.2623 33.3494C31.7784 32.0085 30.3939 32.9813 29.3044 34.187L24.4772 39.5291L21.8433 37.1491L26.704 31.7699C27.7096 30.6569 28.9404 29.4441 27.2709 27.9356C26.7516 27.4663 25.1885 26.6604 23.4957 28.5338L18.4673 34.0986L15.8334 31.7185ZM32.6635 46.6609L42.5711 31.813L45.5241 33.7834L41.9163 39.1902L41.9578 39.218C43.4211 38.6015 45.0851 38.9905 46.416 39.8785C48.5579 41.3078 49.7145 44.5741 47.0919 48.5044C44.4554 52.4555 40.9954 52.6413 38.8535 51.2121C37.273 50.1575 36.282 48.805 36.4283 47.1895L36.3867 47.1617L35.4709 48.5342L32.6635 46.6609ZM44.1251 46.5548C45.3323 44.7456 45.6591 42.5893 43.9122 41.4237C42.1654 40.2581 40.2998 41.3875 39.0925 43.1967C37.8992 44.9852 37.5724 47.1414 39.3192 48.307C41.0661 49.4726 42.9317 48.3432 44.1251 46.5548ZM45.4214 55.0558L51.7943 43.8112L54.7305 45.4752L53.5471 47.5632L53.5906 47.5879C54.9574 46.4946 57.0345 46.3788 58.5353 47.2293C58.7528 47.3526 58.9891 47.544 59.1479 47.7202L57.5208 50.5911C57.275 50.3656 56.8429 50.0633 56.4732 49.8537C54.2112 48.5718 52.5037 49.7593 51.382 51.7385L48.5099 56.8062L45.4214 55.0558ZM67.0008 59.7988L58.5937 55.7644C57.7104 57.8362 58.2587 59.2362 60.0393 60.0907C61.324 60.7072 62.7394 60.4159 63.2883 59.792L66.1057 61.1439C63.8846 63.4611 61.4064 63.7138 58.7693 62.4483C55.0954 60.6853 54.0303 57.0685 55.7609 53.4622C57.4373 49.9687 61.1253 48.4663 64.664 50.1644C68.6309 52.068 68.9459 56.3232 67.0008 59.7988ZM59.5671 53.7359L64.7737 56.2344C65.2594 54.471 64.9717 53.2792 63.4165 52.5329C61.388 51.5594 60.0448 52.856 59.5671 53.7359ZM86.376 67.1516L77.5975 64.0062C76.9327 66.1581 77.6225 67.4941 79.4817 68.1603C80.8232 68.6409 82.201 68.2051 82.6826 67.5279L85.6245 68.5819C83.6543 71.1159 81.2154 71.6229 78.4618 70.6363C74.6256 69.2618 73.193 65.7742 74.5422 62.0086C75.8493 58.3607 79.3625 56.4859 83.0575 57.8098C87.1997 59.2939 87.9521 63.4939 86.376 67.1516ZM78.3564 61.8881L83.793 63.836C84.0942 62.0319 83.685 60.8762 82.0611 60.2943C79.943 59.5354 78.7408 60.9636 78.3564 61.8881ZM86.5941 73.0594L90.0011 60.5915L93.2326 61.4746L92.7713 63.1627L92.8195 63.1759C94.0611 62.1415 95.5676 61.7498 97.1834 62.1913C98.7509 62.6197 99.9915 63.5806 100.258 65.2603C101.278 64.3728 102.851 63.7399 104.587 64.2144C107.24 64.9393 108.809 66.6898 107.926 69.9213L105.646 78.2654L102.221 77.3296L104.152 70.2637C104.607 68.5997 104.838 67.1856 102.884 66.6518C100.955 66.1246 100.158 67.6174 99.73 69.1849L97.8321 76.1303L94.4076 75.1945L96.3187 68.2009C96.7141 66.754 97.2653 65.1163 95.0948 64.5233C94.4196 64.3387 92.6611 64.3247 91.9955 66.7604L90.0186 73.9952L86.5941 73.0594ZM129.777 69.7091L126.828 86.9335L123.329 86.3345L124.371 80.248L124.322 80.2396C123.272 81.4803 121.5 81.7601 119.972 81.4986C117.631 81.0978 114.867 78.8744 115.71 73.9461C116.309 70.447 118.723 67.4615 122.592 68.1238C124.169 68.3938 125.575 69.2179 126.123 70.7575L126.172 70.7659L126.451 69.1396L129.777 69.7091ZM119.222 74.4713C118.872 76.5165 119.265 78.6637 121.557 79.056C123.824 79.4441 124.942 77.6571 125.3 75.5626C125.642 73.5666 125.22 71.2878 123.027 70.9123C120.76 70.5242 119.577 72.4014 119.222 74.4713ZM143.797 71.4063L142.291 84.2433L138.939 83.85L139.148 82.0623L139.074 82.0536C138.011 83.3888 136.39 83.9035 134.9 83.7287C131.151 83.2889 130.455 81.0677 130.828 77.8895L131.754 69.9936L135.28 70.4072L134.429 77.6575C134.182 79.768 134.68 80.8837 136.319 81.0759C138.231 81.3002 139.176 80.3287 139.481 77.7215L140.271 70.9927L143.797 71.4063ZM157.562 79.7028L148.257 79.0918C148.209 81.3436 149.24 82.4384 151.211 82.5678C152.632 82.6612 153.837 81.8634 154.114 81.0799L157.233 81.2847C156.035 84.2626 153.829 85.4206 150.911 85.2289C146.844 84.9619 144.508 82.0025 144.77 78.0111C145.024 74.1444 147.887 71.376 151.803 71.6332C156.194 71.9215 158.072 75.7528 157.562 79.7028ZM148.404 76.8467L154.167 77.2251C153.961 75.4076 153.25 74.4089 151.528 74.2959C149.283 74.1485 148.52 75.8521 148.404 76.8467ZM159.397 85.3519L159.501 72.4273L162.851 72.4544L162.837 74.2044L162.887 74.2048C163.823 72.8873 165.179 72.1233 166.854 72.1368C168.479 72.15 169.924 72.7617 170.612 74.3173C171.371 73.1984 172.729 72.1844 174.529 72.1989C177.279 72.2212 179.243 73.5121 179.216 76.862L179.146 85.5117L175.596 85.483L175.656 78.1582C175.67 76.4333 175.531 75.0071 173.506 74.9907C171.506 74.9746 171.118 76.6215 171.105 78.2464L171.046 85.4462L167.497 85.4175L167.555 78.1677C167.567 76.6677 167.681 74.9436 165.431 74.9254C164.731 74.9197 163.028 75.356 163.007 77.8809L162.947 85.3806L159.397 85.3519ZM188.894 85.1131L187.89 72.2272L191.254 71.9649L191.394 73.7594L191.469 73.7536C192.254 72.238 193.744 71.4197 195.24 71.3031C199.004 71.0097 200.116 73.0544 200.365 76.2447L200.982 84.1707L197.443 84.4466L196.876 77.1687C196.711 75.0501 196.006 74.0519 194.361 74.1801C192.442 74.3297 191.703 75.4656 191.907 78.0826L192.433 84.8372L188.894 85.1131ZM211.022 77.9307L210.856 76.6161C210.326 77.212 209.089 77.393 208.023 77.7289C206.96 78.0896 206.014 78.5867 206.177 79.8765C206.342 81.1911 207.4 81.3854 208.541 81.2417C211.294 80.8949 211.119 78.6996 211.022 77.9307ZM205.914 74.5929L202.392 75.0366C202.175 71.7126 205.002 70.3486 207.879 69.9862C210.434 69.6643 213.581 69.8474 213.969 72.9231L214.809 79.5953C214.956 80.7611 215.227 81.9113 215.615 82.3915L212.043 82.8415C211.869 82.4602 211.717 82.0511 211.639 81.6325C210.67 82.9389 209.086 83.5668 207.523 83.7637C205.092 84.0699 203.005 83.0982 202.673 80.469C202.308 77.567 204.403 76.5975 206.548 76.0248C208.666 75.4306 210.684 75.2519 210.503 73.8132C210.312 72.3002 209.242 72.2082 208.002 72.3644C206.663 72.5332 205.863 73.1882 205.914 74.5929ZM210.06 65.1002L211.772 64.8846C211.67 65.477 211.559 66.1965 211.234 66.817C210.909 67.4375 210.367 67.9341 209.35 68.0622C208.606 68.156 207.908 68.0171 207.263 67.8968C206.615 67.7517 206.044 67.622 205.474 67.6938C204.804 67.7782 204.634 68.228 204.563 68.8668L203.05 69.0575C203.191 67.5782 203.611 65.9126 205.794 65.6377C206.365 65.5658 206.889 65.7265 207.435 65.8593C207.984 66.017 208.558 66.1715 209.128 66.0996C209.872 66.0058 210.145 65.5684 210.06 65.1002ZM216.351 75.7562C215.619 71.6966 217.724 68.5737 221.709 67.855C225.72 67.1318 228.782 69.3231 229.514 73.3827C230.242 77.4176 228.137 80.5406 224.127 81.2637C220.141 81.9824 217.079 79.7911 216.351 75.7562ZM219.845 75.1262C220.209 77.1437 221.291 79.0571 223.652 78.6312C226.039 78.2008 226.384 76.0301 226.02 74.0126C225.652 71.9706 224.57 70.0572 222.184 70.4875C219.822 70.9134 219.477 73.0841 219.845 75.1262ZM247.517 62.2342L246.603 75.8489L242.785 76.8618L235.194 65.5035L238.794 64.5484L243.691 72.3796L243.739 72.3668L244.11 63.1381L247.517 62.2342ZM249.833 68.2735C248.548 64.3537 250.202 60.9705 254.051 59.7093C257.923 58.4403 261.258 60.1886 262.543 64.1085C263.82 68.0046 262.166 71.3878 258.294 72.6568C254.445 73.918 251.11 72.1697 249.833 68.2735ZM253.206 67.1681C253.845 69.1161 255.18 70.8622 257.461 70.1148C259.765 69.3597 259.808 67.1621 259.169 65.214C258.523 63.2422 257.188 61.4961 254.884 62.2513C252.603 62.9986 252.56 65.1962 253.206 67.1681ZM264.83 52.1624L266.233 55.7746L268.656 54.8334L269.516 57.0474L267.092 57.9885L269.409 63.9545C269.843 65.0731 270.232 65.2442 271.35 64.8098C271.7 64.6741 272.017 64.5241 272.34 64.3184L273.344 66.9052C272.821 67.2156 272.108 67.5195 271.455 67.7729C269.428 68.5602 267.475 68.7818 266.543 66.3815L263.783 59.2736L261.779 60.0518L260.919 57.8379L262.923 57.0596L261.521 53.4474L264.83 52.1624ZM280.141 58.32L279.593 57.1136C279.264 57.8398 278.136 58.3794 277.217 59.0164C276.309 59.6762 275.553 60.4311 276.091 61.6148C276.639 62.8212 277.706 62.6932 278.753 62.2176C281.28 61.0701 280.461 59.0257 280.141 58.32ZM274.274 56.6465L271.041 58.1145C269.848 55.0044 272.144 52.8637 274.784 51.6645C277.129 50.5996 280.189 49.8412 281.471 52.6638L284.252 58.7868C284.738 59.8566 285.337 60.8748 285.85 61.2184L282.573 62.7071C282.293 62.3946 282.027 62.049 281.828 61.6724C281.29 63.2074 279.963 64.2767 278.529 64.928C276.298 65.9411 274.016 65.6322 272.921 63.2194C271.711 60.5562 273.425 59.0091 275.304 57.8262C277.15 56.6308 279.024 55.8617 278.425 54.5415C277.794 53.153 276.745 53.3823 275.607 53.8993C274.378 54.4575 273.808 55.3201 274.274 56.6465ZM287.908 60.1917L281.842 48.7786L284.822 47.1946L285.949 49.3139L285.993 49.2904C285.804 47.5504 286.821 45.7357 288.345 44.9261C288.565 44.8088 288.854 44.7121 289.088 44.6728L290.636 47.5868C290.314 47.6731 289.827 47.8753 289.452 48.0748C287.156 49.295 287.241 51.3731 288.309 53.382L291.043 58.5256L287.908 60.1917ZM302.429 51.8292L294.716 41.4577L297.404 39.4586L298.448 40.8629L298.489 40.8331C298.44 39.2179 299.061 37.7904 300.405 36.7909C301.709 35.8212 303.231 35.4374 304.717 36.2635C304.648 34.9132 305.119 33.2851 306.564 32.2109C308.771 30.5699 311.116 30.4145 313.115 33.1027L318.277 40.0438L315.428 42.1622L311.057 36.2843C310.028 34.9001 309.057 33.8461 307.432 35.0545C305.827 36.248 306.511 37.7958 307.481 39.0997L311.777 44.8773L308.929 46.9957L304.602 41.178C303.707 39.9744 302.758 38.5305 300.953 39.8731C300.391 40.2908 299.295 41.6664 300.802 43.6925L305.277 49.7108L302.429 51.8292ZM322.473 28.9898L321.531 28.0586C321.482 28.8544 320.622 29.7612 319.991 30.6843C319.378 31.625 318.942 32.5999 319.867 33.5135C320.809 34.4447 321.761 33.9439 322.569 33.1258C324.519 31.1517 323.024 29.5344 322.473 28.9898ZM316.395 29.5218L313.9 32.0472C311.675 29.5682 313.055 26.749 315.093 24.6859C316.903 22.8541 319.49 21.0528 321.696 23.2315L326.48 27.9577C327.316 28.7835 328.239 29.5203 328.841 29.6581L326.311 32.2191C325.939 32.027 325.566 31.7994 325.246 31.5185C325.292 33.1446 324.434 34.6171 323.327 35.7376C321.606 37.4805 319.364 38.0068 317.478 36.1444C315.398 34.0888 316.446 32.0317 317.778 30.2558C319.076 28.4801 320.552 27.0922 319.521 26.0732C318.436 25.0014 317.538 25.5903 316.659 26.4795C315.711 27.4399 315.487 28.4489 316.395 29.5218ZM330.412 27.8557L320.331 19.7674L322.552 16.9984L332.634 25.0867L330.412 27.8557ZM318.711 13.9164L320.992 15.7468L318.771 18.5158L316.489 16.6853L318.711 13.9164ZM330.36 21.1196L332.149 18.2578C333.476 19.0582 334.696 18.2872 335.438 17.1001C335.981 16.2309 336.331 14.9166 335.271 14.254C334.359 13.6841 333.26 14.7361 331.442 16.6068C329.973 18.1065 328.272 19.4605 326.343 18.2546C323.545 16.5053 324.335 13.6381 325.806 11.285C327.303 8.88957 329.487 7.18849 332.325 8.63832L330.536 11.5001C329.317 10.8561 328.442 11.5476 327.766 12.6288C327.342 13.3071 326.847 14.383 327.737 14.9396C328.818 15.6154 330.027 14.0123 331.503 12.547C333.006 11.0393 334.715 9.71976 336.75 10.992C339.633 12.7942 339.002 15.8788 337.438 18.3802C335.848 20.924 333.344 22.8079 330.36 21.1196ZM326.566 0.392731L330.942 2.36723L337.559 6.42334L336.829 8.04121L329.42 5.73969L325.044 3.76519L326.566 0.392731ZM341.273 11.199L337.764 9.61529L339.379 6.03775L342.888 7.62146L341.273 11.199Z" fill="#F4F4F4"/>
</svg>
