<svg width="385" height="56" viewBox="0 0 385 56" fill="none" xmlns="http://www.w3.org/2000/svg">
<path d="M36.5 7H268.5V49H36.5C24.902 49 15.5 39.598 15.5 28C15.5 16.402 24.902 7 36.5 7Z" fill="#F4F4F4"/>
<path d="M36.5 7H268.5V49H36.5C24.902 49 15.5 39.598 15.5 28C15.5 16.402 24.902 7 36.5 7Z" stroke="#040468"/>
<path d="M34.5598 31.5V20.076H36.5598V31.5H34.5598ZM38.7569 31.5V23.228H40.4849V24.444L40.5169 24.476C41.0609 23.564 42.0049 23.004 43.0929 23.004C44.8849 23.004 46.0209 23.964 46.0209 25.82V31.5H44.1969V26.3C44.1649 25.004 43.6529 24.444 42.5809 24.444C41.3649 24.444 40.5809 25.404 40.5809 26.62V31.5H38.7569ZM47.1284 24.588V23.228H48.4884V22.54C48.4884 20.428 49.5924 20.076 50.7764 20.076C51.3524 20.076 51.7684 20.108 52.0564 20.188V21.612C51.8164 21.548 51.5764 21.516 51.2084 21.516C50.7124 21.516 50.3124 21.692 50.3124 22.38V23.228H51.8644V24.588H50.3124V31.5H48.4884V24.588H47.1284ZM56.7833 30.284C58.4153 30.284 59.1353 28.796 59.1353 27.356C59.1353 25.932 58.4153 24.444 56.7833 24.444C55.1513 24.444 54.4313 25.932 54.4313 27.356C54.4313 28.796 55.1513 30.284 56.7833 30.284ZM56.7833 31.724C54.1273 31.724 52.6073 29.9 52.6073 27.356C52.6073 24.828 54.1273 23.004 56.7833 23.004C59.4393 23.004 60.9593 24.828 60.9593 27.356C60.9593 29.9 59.4393 31.724 56.7833 31.724ZM62.4756 31.5V23.228H64.1876V24.828H64.2196C64.4276 23.948 65.5156 23.004 66.6356 23.004C67.0516 23.004 67.1636 23.036 67.3236 23.052V24.812C67.0676 24.78 66.7956 24.732 66.5396 24.732C65.2916 24.732 64.2996 25.74 64.2996 27.564V31.5H62.4756ZM68.1006 31.5V23.228H69.8286V24.38H69.8766C70.4206 23.564 71.1086 23.004 72.4206 23.004C73.4286 23.004 74.3726 23.436 74.7406 24.38C75.3486 23.532 76.1326 23.004 77.3326 23.004C79.0766 23.004 80.1006 23.772 80.1006 25.788V31.5H78.2766V26.668C78.2766 25.356 78.1966 24.444 76.7726 24.444C75.5406 24.444 75.0126 25.26 75.0126 26.652V31.5H73.1886V26.188C73.1886 25.052 72.8366 24.444 71.7326 24.444C70.7886 24.444 69.9246 25.212 69.9246 26.588V31.5H68.1006ZM89.5265 27.836H83.4465C83.4465 29.132 84.1505 30.284 85.6705 30.284C86.7265 30.284 87.3665 29.82 87.6865 28.908H89.4145C89.0145 30.716 87.4785 31.724 85.6705 31.724C83.0785 31.724 81.6225 29.916 81.6225 27.372C81.6225 25.02 83.1585 23.004 85.6225 23.004C88.2305 23.004 89.8305 25.356 89.5265 27.836ZM83.4465 26.636H87.7025C87.6385 25.484 86.8545 24.444 85.6225 24.444C84.3585 24.444 83.4945 25.404 83.4465 26.636ZM94.9183 28.844H96.7423C96.8383 29.9 97.6383 30.284 98.6143 30.284C99.3023 30.284 100.502 30.14 100.454 29.196C100.406 28.236 99.0783 28.124 97.7503 27.82C96.4062 27.532 95.0943 27.052 95.0943 25.372C95.0943 23.564 97.0463 23.004 98.5503 23.004C100.246 23.004 101.782 23.708 102.006 25.548H100.102C99.9423 24.684 99.2223 24.444 98.4223 24.444C97.8943 24.444 96.9183 24.572 96.9183 25.292C96.9183 26.188 98.2623 26.316 99.6063 26.62C100.934 26.924 102.278 27.404 102.278 29.036C102.278 31.004 100.294 31.724 98.5823 31.724C96.5023 31.724 94.9503 30.796 94.9183 28.844ZM111.167 27.836H105.087C105.087 29.132 105.791 30.284 107.311 30.284C108.367 30.284 109.007 29.82 109.327 28.908H111.055C110.655 30.716 109.119 31.724 107.311 31.724C104.719 31.724 103.263 29.916 103.263 27.372C103.263 25.02 104.799 23.004 107.263 23.004C109.871 23.004 111.471 25.356 111.167 27.836ZM105.087 26.636H109.343C109.279 25.484 108.495 24.444 107.263 24.444C105.999 24.444 105.135 25.404 105.087 26.636ZM119.818 23.228V31.5H118.026V30.348H117.994C117.546 31.18 116.554 31.724 115.642 31.724C113.482 31.724 112.554 30.636 112.554 28.476V23.228H114.378V28.3C114.378 29.756 114.97 30.284 115.962 30.284C117.482 30.284 117.994 29.308 117.994 28.028V23.228H119.818ZM133.698 27.836H127.618C127.618 29.132 128.322 30.284 129.842 30.284C130.898 30.284 131.538 29.82 131.858 28.908H133.586C133.186 30.716 131.65 31.724 129.842 31.724C127.25 31.724 125.794 29.916 125.794 27.372C125.794 25.02 127.33 23.004 129.794 23.004C132.402 23.004 134.002 25.356 133.698 27.836ZM127.618 26.636H131.874C131.81 25.484 131.026 24.444 129.794 24.444C128.53 24.444 127.666 25.404 127.618 26.636ZM135.085 31.5V23.228H136.813V24.38H136.861C137.405 23.564 138.093 23.004 139.405 23.004C140.413 23.004 141.357 23.436 141.725 24.38C142.333 23.532 143.117 23.004 144.317 23.004C146.061 23.004 147.085 23.772 147.085 25.788V31.5H145.261V26.668C145.261 25.356 145.181 24.444 143.757 24.444C142.525 24.444 141.997 25.26 141.997 26.652V31.5H140.173V26.188C140.173 25.052 139.821 24.444 138.717 24.444C137.773 24.444 136.909 25.212 136.909 26.588V31.5H135.085ZM154.111 28.716V27.356C153.551 27.724 152.671 27.708 151.871 27.852C151.087 27.98 150.383 28.268 150.383 29.228C150.383 30.044 151.423 30.284 152.063 30.284C152.863 30.284 154.111 29.868 154.111 28.716ZM155.935 25.404V29.66C155.935 30.108 156.031 30.284 156.367 30.284C156.479 30.284 156.623 30.284 156.815 30.252V31.516C156.543 31.612 155.967 31.724 155.663 31.724C154.927 31.724 154.399 31.468 154.255 30.716C153.535 31.42 152.367 31.724 151.391 31.724C149.903 31.724 148.559 30.924 148.559 29.308C148.559 27.244 150.207 26.908 151.743 26.732C153.055 26.492 154.223 26.636 154.223 25.564C154.223 24.62 153.247 24.444 152.511 24.444C151.487 24.444 150.767 24.86 150.687 25.756H148.863C148.991 23.628 150.799 23.004 152.623 23.004C154.239 23.004 155.935 23.66 155.935 25.404ZM157.946 31.5V23.228H159.77V31.5H157.946ZM157.946 21.804V20.076H159.77V21.804H157.946ZM161.805 31.5V20.076H163.629V31.5H161.805Z" fill="#1E1E1E"/>
<path d="M346.5 7C358.098 7 367.5 16.402 367.5 28C367.5 39.598 358.098 49 346.5 49H268.5V7H346.5Z" fill="#0E0AA5"/>
<path d="M346.5 7C358.098 7 367.5 16.402 367.5 28C367.5 39.598 358.098 49 346.5 49H268.5V7H346.5Z" stroke="#040468"/>
<path d="M281.542 34.5V23.076H285.078L287.75 30.932H287.782L290.31 23.076H293.846V34.5H291.494V26.404H291.462L288.661 34.5H286.726L283.926 26.484H283.894V34.5H281.542ZM296.057 34.5V23.076H304.601V25.188H298.569V27.636H304.105V29.588H298.569V32.388H304.729V34.5H296.057ZM309.669 34.5L314.005 23.076H316.581L320.853 34.5H318.245L317.381 31.956H313.109L312.213 34.5H309.669ZM315.253 25.892L313.765 30.084H316.725L315.285 25.892H315.253ZM330.208 23.076L326.416 34.5H323.584L319.872 23.076H322.464L325.008 31.108H325.04L327.616 23.076H330.208ZM331.182 34.5V23.076H333.694V34.5H331.182ZM335.181 30.708H337.613C337.613 32.228 338.797 32.82 340.141 32.82C341.021 32.82 342.365 32.564 342.365 31.396C342.365 30.164 340.653 29.956 338.973 29.508C337.277 29.06 335.565 28.404 335.565 26.26C335.565 23.924 337.773 22.804 339.837 22.804C342.221 22.804 344.413 23.844 344.413 26.484H341.981C341.901 25.108 340.925 24.756 339.725 24.756C338.925 24.756 337.997 25.092 337.997 26.052C337.997 26.932 338.541 27.044 341.405 27.78C342.237 27.988 344.797 28.516 344.797 31.108C344.797 33.204 343.149 34.772 340.045 34.772C337.517 34.772 335.149 33.524 335.181 30.708ZM346.292 34.5V23.076H354.836V25.188H348.804V27.636H354.34V29.588H348.804V32.388H354.964V34.5H346.292Z" fill="#F4F4F4"/>
</svg>
