<svg width="391" height="62" viewBox="0 0 391 62" fill="none" xmlns="http://www.w3.org/2000/svg">
<path d="M41.5 10H273.5V52H41.5C29.902 52 20.5 42.598 20.5 31C20.5 19.402 29.902 10 41.5 10Z" fill="#F4F4F4"/>
<path d="M41.5 10H273.5V52H41.5C29.902 52 20.5 42.598 20.5 31C20.5 19.402 29.902 10 41.5 10Z" stroke="#040468"/>
<path d="M39.5598 37.5V26.076H41.5598V37.5H39.5598ZM43.7569 37.5V29.228H45.4849V30.444L45.5169 30.476C46.0609 29.564 47.0049 29.004 48.0929 29.004C49.8849 29.004 51.0209 29.964 51.0209 31.82V37.5H49.1969V32.3C49.1649 31.004 48.6529 30.444 47.5809 30.444C46.3649 30.444 45.5809 31.404 45.5809 32.62V37.5H43.7569ZM52.1284 30.588V29.228H53.4884V28.54C53.4884 26.428 54.5924 26.076 55.7764 26.076C56.3524 26.076 56.7684 26.108 57.0564 26.188V27.612C56.8164 27.548 56.5764 27.516 56.2084 27.516C55.7124 27.516 55.3124 27.692 55.3124 28.38V29.228H56.8644V30.588H55.3124V37.5H53.4884V30.588H52.1284ZM61.7833 36.284C63.4153 36.284 64.1353 34.796 64.1353 33.356C64.1353 31.932 63.4153 30.444 61.7833 30.444C60.1513 30.444 59.4313 31.932 59.4313 33.356C59.4313 34.796 60.1513 36.284 61.7833 36.284ZM61.7833 37.724C59.1273 37.724 57.6073 35.9 57.6073 33.356C57.6073 30.828 59.1273 29.004 61.7833 29.004C64.4393 29.004 65.9593 30.828 65.9593 33.356C65.9593 35.9 64.4393 37.724 61.7833 37.724ZM67.4756 37.5V29.228H69.1876V30.828H69.2196C69.4276 29.948 70.5156 29.004 71.6356 29.004C72.0516 29.004 72.1636 29.036 72.3236 29.052V30.812C72.0676 30.78 71.7956 30.732 71.5396 30.732C70.2916 30.732 69.2996 31.74 69.2996 33.564V37.5H67.4756ZM73.1006 37.5V29.228H74.8286V30.38H74.8766C75.4206 29.564 76.1086 29.004 77.4206 29.004C78.4286 29.004 79.3726 29.436 79.7406 30.38C80.3486 29.532 81.1326 29.004 82.3326 29.004C84.0766 29.004 85.1006 29.772 85.1006 31.788V37.5H83.2766V32.668C83.2766 31.356 83.1966 30.444 81.7726 30.444C80.5406 30.444 80.0126 31.26 80.0126 32.652V37.5H78.1886V32.188C78.1886 31.052 77.8366 30.444 76.7326 30.444C75.7886 30.444 74.9246 31.212 74.9246 32.588V37.5H73.1006ZM94.5265 33.836H88.4465C88.4465 35.132 89.1505 36.284 90.6705 36.284C91.7265 36.284 92.3665 35.82 92.6865 34.908H94.4145C94.0145 36.716 92.4785 37.724 90.6705 37.724C88.0785 37.724 86.6225 35.916 86.6225 33.372C86.6225 31.02 88.1585 29.004 90.6225 29.004C93.2305 29.004 94.8305 31.356 94.5265 33.836ZM88.4465 32.636H92.7025C92.6385 31.484 91.8545 30.444 90.6225 30.444C89.3585 30.444 88.4945 31.404 88.4465 32.636ZM99.9183 34.844H101.742C101.838 35.9 102.638 36.284 103.614 36.284C104.302 36.284 105.502 36.14 105.454 35.196C105.406 34.236 104.078 34.124 102.75 33.82C101.406 33.532 100.094 33.052 100.094 31.372C100.094 29.564 102.046 29.004 103.55 29.004C105.246 29.004 106.782 29.708 107.006 31.548H105.102C104.942 30.684 104.222 30.444 103.422 30.444C102.894 30.444 101.918 30.572 101.918 31.292C101.918 32.188 103.262 32.316 104.606 32.62C105.934 32.924 107.278 33.404 107.278 35.036C107.278 37.004 105.294 37.724 103.582 37.724C101.502 37.724 99.9503 36.796 99.9183 34.844ZM116.167 33.836H110.087C110.087 35.132 110.791 36.284 112.311 36.284C113.367 36.284 114.007 35.82 114.327 34.908H116.055C115.655 36.716 114.119 37.724 112.311 37.724C109.719 37.724 108.263 35.916 108.263 33.372C108.263 31.02 109.799 29.004 112.263 29.004C114.871 29.004 116.471 31.356 116.167 33.836ZM110.087 32.636H114.343C114.279 31.484 113.495 30.444 112.263 30.444C110.999 30.444 110.135 31.404 110.087 32.636ZM124.818 29.228V37.5H123.026V36.348H122.994C122.546 37.18 121.554 37.724 120.642 37.724C118.482 37.724 117.554 36.636 117.554 34.476V29.228H119.378V34.3C119.378 35.756 119.97 36.284 120.962 36.284C122.482 36.284 122.994 35.308 122.994 34.028V29.228H124.818ZM138.698 33.836H132.618C132.618 35.132 133.322 36.284 134.842 36.284C135.898 36.284 136.538 35.82 136.858 34.908H138.586C138.186 36.716 136.65 37.724 134.842 37.724C132.25 37.724 130.794 35.916 130.794 33.372C130.794 31.02 132.33 29.004 134.794 29.004C137.402 29.004 139.002 31.356 138.698 33.836ZM132.618 32.636H136.874C136.81 31.484 136.026 30.444 134.794 30.444C133.53 30.444 132.666 31.404 132.618 32.636ZM140.085 37.5V29.228H141.813V30.38H141.861C142.405 29.564 143.093 29.004 144.405 29.004C145.413 29.004 146.357 29.436 146.725 30.38C147.333 29.532 148.117 29.004 149.317 29.004C151.061 29.004 152.085 29.772 152.085 31.788V37.5H150.261V32.668C150.261 31.356 150.181 30.444 148.757 30.444C147.525 30.444 146.997 31.26 146.997 32.652V37.5H145.173V32.188C145.173 31.052 144.821 30.444 143.717 30.444C142.773 30.444 141.909 31.212 141.909 32.588V37.5H140.085ZM159.111 34.716V33.356C158.551 33.724 157.671 33.708 156.871 33.852C156.087 33.98 155.383 34.268 155.383 35.228C155.383 36.044 156.423 36.284 157.063 36.284C157.863 36.284 159.111 35.868 159.111 34.716ZM160.935 31.404V35.66C160.935 36.108 161.031 36.284 161.367 36.284C161.479 36.284 161.623 36.284 161.815 36.252V37.516C161.543 37.612 160.967 37.724 160.663 37.724C159.927 37.724 159.399 37.468 159.255 36.716C158.535 37.42 157.367 37.724 156.391 37.724C154.903 37.724 153.559 36.924 153.559 35.308C153.559 33.244 155.207 32.908 156.743 32.732C158.055 32.492 159.223 32.636 159.223 31.564C159.223 30.62 158.247 30.444 157.511 30.444C156.487 30.444 155.767 30.86 155.687 31.756H153.863C153.991 29.628 155.799 29.004 157.623 29.004C159.239 29.004 160.935 29.66 160.935 31.404ZM162.946 37.5V29.228H164.77V37.5H162.946ZM162.946 27.804V26.076H164.77V27.804H162.946ZM166.805 37.5V26.076H168.629V37.5H166.805Z" fill="#1E1E1E"/>
<path d="M351.5 10C363.098 10 372.5 19.402 372.5 31C372.5 42.598 363.098 52 351.5 52H273.5V10H351.5Z" fill="#E20000"/>
<path d="M351.5 10C363.098 10 372.5 19.402 372.5 31C372.5 42.598 363.098 52 351.5 52H273.5V10H351.5Z" stroke="#040468"/>
<path d="M286.542 37.5V26.076H290.078L292.75 33.932H292.782L295.31 26.076H298.846V37.5H296.494V29.404H296.462L293.661 37.5H291.726L288.926 29.484H288.894V37.5H286.542ZM301.057 37.5V26.076H309.601V28.188H303.569V30.636H309.105V32.588H303.569V35.388H309.729V37.5H301.057ZM314.669 37.5L319.005 26.076H321.581L325.853 37.5H323.245L322.381 34.956H318.109L317.213 37.5H314.669ZM320.253 28.892L318.765 33.084H321.725L320.285 28.892H320.253ZM335.208 26.076L331.416 37.5H328.584L324.872 26.076H327.464L330.008 34.108H330.04L332.616 26.076H335.208ZM336.182 37.5V26.076H338.694V37.5H336.182ZM340.181 33.708H342.613C342.613 35.228 343.797 35.82 345.141 35.82C346.021 35.82 347.365 35.564 347.365 34.396C347.365 33.164 345.653 32.956 343.973 32.508C342.277 32.06 340.565 31.404 340.565 29.26C340.565 26.924 342.773 25.804 344.837 25.804C347.221 25.804 349.413 26.844 349.413 29.484H346.981C346.901 28.108 345.925 27.756 344.725 27.756C343.925 27.756 342.997 28.092 342.997 29.052C342.997 29.932 343.541 30.044 346.405 30.78C347.237 30.988 349.797 31.516 349.797 34.108C349.797 36.204 348.149 37.772 345.045 37.772C342.517 37.772 340.149 36.524 340.181 33.708ZM351.292 37.5V26.076H359.836V28.188H353.804V30.636H359.34V32.588H353.804V35.388H359.964V37.5H351.292Z" fill="#F4F4F4"/>
</svg>
