<svg width="368" height="64" viewBox="0 0 368 64" fill="none" xmlns="http://www.w3.org/2000/svg">
<g filter="url(#filter0_d_542_245)">
<rect x="5" y="2" width="361" height="58" rx="29" fill="#F4F4F4" shape-rendering="crispEdges"/>
<rect x="4" y="1" width="363" height="60" rx="30" stroke="#0000CC" stroke-width="2" shape-rendering="crispEdges"/>
<g clip-path="url(#clip0_542_245)">
<path d="M22.3895 29.5124C22.3578 29.4078 22.329 29.3004 22.3031 29.1958C22.3031 29.1958 22.306 29.1901 22.3089 29.1873C22.3319 29.2975 22.3578 29.405 22.3895 29.5124Z" fill="#FFCE00"/>
<path d="M50.0266 29.4446C50.0266 29.4446 50.018 29.4361 50.0151 29.4333C49.9806 29.3937 49.946 29.3569 49.9114 29.3173C49.946 29.224 49.9777 29.1307 50.0036 29.0346C50.0756 28.7886 50.1217 28.5342 50.1505 28.2769C50.1793 28.0309 50.1879 27.7849 50.185 27.5418C50.2023 27.5588 50.2167 27.5729 50.234 27.587C50.257 28.1666 50.2109 28.8169 50.0238 29.4417L50.0266 29.4446Z" fill="#FFCE00"/>
<path d="M50.2369 27.5899C50.2196 27.5729 50.2052 27.5588 50.1879 27.5446C50.1908 27.7878 50.1793 28.0337 50.1534 28.2797C50.1246 28.537 50.0756 28.7915 50.0065 29.0374C49.9806 29.1336 49.9489 29.2269 49.9143 29.3202C49.9489 29.3597 49.9834 29.3965 50.018 29.4361C50.0209 29.4417 50.0266 29.4446 50.0295 29.4474C50.2167 28.8226 50.2628 28.1723 50.2397 27.5927L50.2369 27.5899ZM22.3117 29.1873C22.3117 29.1873 22.306 29.1929 22.306 29.1958C22.3319 29.3032 22.3607 29.4078 22.3924 29.5124C22.3636 29.405 22.3348 29.2975 22.3117 29.1873Z" fill="#040468"/>
<path d="M54.9971 38.3336C54.9971 38.3081 54.9971 38.2827 54.9971 38.2572C54.9914 37.7794 54.9597 37.3044 54.9078 36.8379C54.905 36.8097 54.9021 36.7814 54.8963 36.7531C54.8762 36.5863 54.856 36.4223 54.8301 36.2583C54.8243 36.2159 54.8186 36.1763 54.8099 36.1339C54.712 35.5261 54.5738 34.9295 54.401 34.3471C54.2426 33.8155 54.0554 33.2953 53.8423 32.7892C53.7387 32.5461 53.6292 32.3058 53.514 32.0683C53.4132 31.8647 53.3096 31.6612 53.2001 31.4604C53.1598 31.3841 53.1166 31.3077 53.0734 31.2342C53.0216 31.1438 52.9698 31.0533 52.915 30.9628C52.8143 30.7932 52.7077 30.6235 52.5983 30.4539C52.2009 29.8404 51.7603 29.2523 51.2765 28.6953C51.2534 28.6699 51.2304 28.6416 51.2073 28.6162C51.2736 28.1921 51.288 27.7736 51.2765 27.3835C51.2621 26.9085 51.2045 26.4787 51.1411 26.1338L50.8992 24.8135C51.0346 24.4403 51.144 24.0586 51.216 23.6741C51.5932 21.7091 50.9654 20.0834 49.396 18.9779L48.1807 18.1213L47.6911 19.4501C47.6595 19.5349 47.622 19.6169 47.576 19.6989C47.4752 19.0712 47.3139 18.3899 47.0547 17.7226C46.7322 16.8914 46.2973 16.1761 45.7588 15.5993C45.1051 14.8982 44.3045 14.3977 43.3744 14.1093L42.0698 13.7022L41.9777 14.5476L40.5263 12.9049C39.6191 11.8786 39.0691 10.9456 38.7955 9.96736L38.3837 8.5L37.0706 9.4217C36.1548 10.0635 35.55 10.8014 35.216 11.675C34.9453 12.3904 34.8906 13.0915 34.8474 13.7701C34.2225 13.2923 33.4046 12.8964 32.293 12.707L30.5796 12.4158L31.0374 13.951C31.1901 14.4599 31.2102 15.588 30.8992 16.8546C30.7523 17.4512 30.5536 17.994 30.3175 18.4436C30.2714 18.4012 30.2225 18.3616 30.1735 18.3192C29.4593 17.7424 28.5608 17.4116 27.6451 17.3833L26.6314 17.3551L26.5248 18.2768L26.4989 18.503C26.3405 19.8827 26.1879 21.2058 25.7185 22.4696C25.4795 22.3368 25.1829 22.2208 24.82 22.1162L23.7775 21.8194L23.4492 22.7722L22.761 24.771C22.6285 25.1556 22.5018 25.5372 22.3981 25.9246C22.2829 26.3487 22.1937 26.7813 22.1533 27.2308C22.1476 27.2873 22.1447 27.3467 22.1418 27.4061C22.1274 27.6323 22.1274 27.8585 22.1389 28.0818C22.1562 28.4578 22.2109 28.8282 22.2973 29.1901C22.2973 29.1901 22.3002 29.1845 22.3031 29.1816C22.3261 29.2919 22.3521 29.3993 22.3837 29.5068C22.3521 29.4022 22.3233 29.2947 22.2973 29.1901C22.257 29.2382 22.2196 29.2891 22.1821 29.3371C22.1677 29.3569 22.1533 29.3739 22.1389 29.3937C21.9633 29.6199 21.7963 29.8517 21.635 30.0864C21.5284 30.2419 21.4219 30.4002 21.3211 30.5613C21.2952 30.6009 21.2693 30.6405 21.2462 30.6829C21.2059 30.7479 21.1656 30.813 21.1253 30.8808C21.0446 31.0165 20.964 31.1551 20.8862 31.2936C20.365 32.221 19.9417 33.1992 19.6307 34.217C19.6163 34.2594 19.6048 34.3047 19.5904 34.3471C19.2016 35.6589 18.9942 37.0387 18.9942 38.4608C18.9942 38.523 18.9942 38.5852 18.9942 38.6446H19C19.0086 39.2468 19.0518 39.8377 19.1325 40.4201C19.1555 40.5841 19.1785 40.7452 19.2073 40.9064C19.2621 41.223 19.3254 41.534 19.4003 41.8422C19.55 42.4699 19.743 43.0834 19.9734 43.68C22.0727 49.1168 27.3571 53.2334 33.8423 54.254C33.8682 54.2597 33.8913 54.2625 33.9172 54.2653C34.1879 54.3077 34.4586 54.3445 34.7322 54.3728C34.8963 54.3897 35.0634 54.4067 35.2304 54.4208C35.8121 54.4717 36.4024 54.4972 37.0014 54.4972C37.5515 54.4972 38.0986 54.4746 38.6371 54.4321C38.8387 54.4152 39.0374 54.3982 39.2361 54.3756C39.3168 54.3671 39.4003 54.3558 39.4809 54.3473C39.5932 54.3332 39.7084 54.3191 39.8207 54.3021C47.8063 53.1825 54.0468 47.3865 54.9021 40.1572C54.9597 39.6624 54.9942 39.1591 55 38.6502C55 38.5852 55 38.523 55 38.458V38.4269C55 38.3958 55 38.3647 55 38.3336H54.9971ZM53.5256 39.2213C53.5198 39.3372 53.5112 39.4532 53.4996 39.5691C53.4507 40.1713 53.3556 40.7679 53.2232 41.3559C53.0101 42.2946 52.6904 43.2135 52.27 44.1012C51.4464 45.84 50.2628 47.4035 48.7509 48.7465C47.2304 50.1007 45.4593 51.1638 43.4838 51.9102C42.3492 52.3371 41.1742 52.6481 39.9734 52.8404C39.8927 52.8545 39.8121 52.8658 39.7286 52.8771C39.6566 52.8884 39.5875 52.8969 39.5155 52.9082C39.3139 52.9365 39.1094 52.9591 38.905 52.9817C38.2772 53.0468 37.6407 53.0779 36.9986 53.0779C36.3564 53.0779 35.7171 53.0468 35.0864 52.9817C35.0058 52.9733 34.928 52.9648 34.8474 52.9563C34.6573 52.9337 34.4672 52.9111 34.2772 52.8828C34.2397 52.8771 34.2023 52.8715 34.1649 52.8658C32.9122 52.6764 31.6883 52.3569 30.5104 51.913C28.5349 51.1695 26.7639 50.1036 25.2433 48.7493C23.7343 47.4035 22.5508 45.84 21.7243 44.1041C21.4622 43.5527 21.2405 42.9901 21.059 42.419C20.869 41.8224 20.7221 41.2174 20.6213 40.601C20.5724 40.3042 20.532 40.0045 20.5032 39.702C20.4629 39.2892 20.4456 38.8764 20.4456 38.458C20.4456 38.4382 20.4456 38.4212 20.4456 38.4014C20.4456 38.0141 20.4658 37.6296 20.5004 37.2507C20.5032 37.2111 20.509 37.1715 20.5119 37.132C20.5925 36.3516 20.7394 35.5826 20.9582 34.8305C21.0475 34.5195 21.1512 34.2114 21.2635 33.906C21.3988 33.5385 21.5515 33.1766 21.7214 32.8203C21.9086 32.4245 22.1159 32.0372 22.3434 31.6583C22.4096 31.5452 22.4788 31.435 22.5508 31.3247C22.5508 31.3247 22.5508 31.3191 22.5565 31.3162C22.6717 31.1353 22.7898 30.9543 22.9165 30.779C22.9165 30.7762 22.9222 30.7706 22.9251 30.7677C22.9395 30.7479 22.951 30.731 22.9654 30.7112C23.0893 30.5359 23.216 30.3663 23.3456 30.1966C23.4435 30.0694 23.5472 29.945 23.6508 29.8206C23.6163 29.7386 23.5817 29.6566 23.55 29.5718C23.4636 29.3456 23.3974 29.1166 23.3456 28.8848C23.3456 28.8763 23.3427 28.8706 23.3398 28.8621C23.3341 28.8367 23.3283 28.8112 23.3225 28.7858C23.3168 28.7632 23.3139 28.7434 23.311 28.7208C23.3053 28.6897 23.2995 28.6586 23.2937 28.6275C23.2649 28.4578 23.2448 28.2882 23.2361 28.1157C23.2217 27.9009 23.2217 27.6832 23.2361 27.4626V27.4174C23.2563 27.1742 23.288 26.9368 23.3369 26.6993C23.383 26.4674 23.4406 26.2384 23.5068 26.0094C23.5904 25.7238 23.6854 25.4383 23.7833 25.1471C23.7919 25.1216 23.8006 25.0962 23.8092 25.0707L24.4975 23.0718C24.82 23.1652 25.1857 23.3009 25.347 23.4677L26.0814 24.2254C27.1958 22.3424 27.3888 20.3577 27.6163 18.387C28.5292 18.4125 29.3096 18.8592 29.7675 19.3653L29.7732 19.3709C29.8251 19.4275 29.8711 19.4868 29.9143 19.5462C30.0986 19.795 30.2023 20.0495 30.2081 20.27C31.9273 18.9581 32.5608 15.2487 32.0972 13.6881C33.9028 13.9963 34.7379 14.9377 35.3456 15.916C35.7459 15.4071 35.8668 14.901 35.9071 14.3751C36.0223 12.871 35.9071 11.4941 37.7387 10.2105C37.7588 10.2812 37.779 10.349 37.802 10.4169C37.802 10.4226 37.8049 10.4282 37.8078 10.4339L37.8251 10.4876C38.1562 11.4998 38.7351 12.4186 39.5011 13.3177C39.5097 13.3262 39.5155 13.3347 39.5241 13.3431C39.5328 13.3545 39.5414 13.3629 39.55 13.3742C39.5702 13.3969 39.5904 13.4223 39.6134 13.4449L41.2088 15.2487C41.2318 15.277 41.2549 15.3025 41.2779 15.3307C41.2808 15.3364 41.2865 15.3392 41.2894 15.342C41.5515 15.6417 41.7415 15.9471 41.8798 16.2637C42.0382 16.6228 42.1332 16.9932 42.2081 17.3805C42.9942 16.8292 42.9597 15.7011 43.0288 15.0452C43.9244 15.3251 44.604 15.8283 45.1166 16.4503C45.1166 16.4503 45.1166 16.4532 45.1195 16.456C45.6263 17.0723 45.9719 17.8046 46.2052 18.5538C46.2081 18.5623 46.2109 18.5708 46.2138 18.5793C46.568 19.7356 46.6515 20.9231 46.6458 21.7628C47.7603 21.2567 48.4428 20.5471 48.7336 19.7583C48.987 19.9364 49.203 20.1258 49.3844 20.3266C49.3844 20.3266 49.3902 20.3322 49.3902 20.335C49.3902 20.335 49.3931 20.3379 49.396 20.3407C49.7675 20.7506 49.9978 21.203 50.1245 21.6808C50.1245 21.6837 50.1245 21.6865 50.1245 21.6921C50.3895 22.7297 50.1447 23.8833 49.6695 24.9803C49.5889 25.164 49.5025 25.3478 49.4132 25.5288C49.4132 25.5344 49.4075 25.5401 49.4046 25.5429C49.3528 25.6447 49.3009 25.7436 49.2462 25.8454C49.1397 26.0433 49.0245 26.2384 48.9064 26.4278C48.8402 26.5353 48.7711 26.6399 48.7048 26.7445V26.7473C48.6962 26.7615 48.6875 26.7728 48.6789 26.7869C48.5349 27.0046 48.388 27.2138 48.2412 27.4117C48.5608 27.3411 48.82 27.2393 49.0418 27.1149C49.1857 27.0357 49.3153 26.9481 49.4334 26.8519C49.4651 26.8265 49.4939 26.8039 49.5256 26.7784C49.6407 26.6823 49.7502 26.5833 49.8596 26.4816C49.9287 26.4165 49.9978 26.3515 50.067 26.2865C50.1361 26.6653 50.185 27.0923 50.1879 27.5333C50.2052 27.5503 50.2196 27.5644 50.2369 27.5786C50.2599 28.1581 50.2138 28.8084 50.0266 29.4333C50.0698 29.4813 50.1101 29.5294 50.1533 29.5774C50.1764 29.6057 50.1994 29.6312 50.2253 29.6594C50.3808 29.8432 50.5335 30.0298 50.6803 30.2164C50.8042 30.3747 50.9222 30.5331 51.0346 30.6971C51.0346 30.6971 51.0346 30.697 51.0374 30.6999C51.0374 30.6999 51.0403 30.7027 51.0403 30.7055C51.1641 30.878 51.2793 31.0505 51.3945 31.2286C51.4377 31.2964 51.4809 31.3643 51.5241 31.4321C51.7516 31.7969 51.959 32.1701 52.149 32.5518C52.1922 32.6366 52.2325 32.7186 52.2729 32.8062C52.3017 32.8684 52.3304 32.9278 52.3592 32.99C52.4226 33.1313 52.486 33.2699 52.5436 33.4141C52.6674 33.7081 52.7768 34.005 52.8776 34.3047C52.9986 34.6609 53.1022 35.02 53.1886 35.3847C53.2462 35.6222 53.2981 35.8625 53.3413 36.1028C53.3729 36.2781 53.4017 36.4562 53.4276 36.6344C53.4276 36.6428 53.4276 36.6513 53.4305 36.657C53.4881 37.0726 53.5256 37.491 53.5428 37.9151C53.5428 37.9547 53.5457 37.9943 53.5486 38.0367C53.5544 38.1752 53.5544 38.3138 53.5544 38.4523C53.5544 38.7068 53.5457 38.9612 53.5313 39.2157L53.5256 39.2213Z" fill="#040468"/>
<path d="M22.9194 30.7734C22.7955 30.9515 22.6746 31.1296 22.5594 31.3106C22.5594 31.3106 22.5565 31.3162 22.5536 31.3191C22.4816 31.4293 22.4154 31.5396 22.3463 31.6527C22.1217 32.0315 21.9143 32.4189 21.7243 32.8147C21.5544 33.1738 21.4017 33.5356 21.2664 33.9004C21.1541 34.2057 21.0504 34.5139 20.9611 34.8249C20.7423 35.5798 20.5925 36.3488 20.5148 37.1263C20.5119 37.1659 20.5061 37.2055 20.5032 37.2451C20.4687 37.6267 20.4485 38.0112 20.4485 38.3958C20.4485 38.4156 20.4485 38.4325 20.4485 38.4523C20.4485 38.8707 20.4687 39.2835 20.5061 39.6963C20.5349 39.9988 20.5752 40.2985 20.6242 40.5954C20.725 41.2117 20.8719 41.8168 21.0619 42.4133C21.2433 42.9844 21.4651 43.5471 21.7271 44.0984C22.5536 45.8372 23.7343 47.4007 25.2462 48.7436C26.7667 50.0979 28.5378 51.161 30.5133 51.9074C31.6911 52.3513 32.915 52.6707 34.1677 52.8602C34.2052 52.8658 34.2426 52.8715 34.2801 52.8771C34.4701 52.9054 34.6602 52.9309 34.8503 52.9506C34.9309 52.9591 35.0086 52.9676 35.0893 52.9761C35.7199 53.0411 36.3564 53.0722 37.0014 53.0722C37.6465 53.0722 38.2801 53.0411 38.9078 52.9761C39.1123 52.9563 39.3168 52.9309 39.5184 52.9026C39.5904 52.8941 39.6595 52.8828 39.7315 52.8715C39.8121 52.8602 39.8927 52.846 39.9762 52.8347C41.18 52.6425 42.3549 52.3315 43.4867 51.9045C45.4622 51.161 47.2333 50.0951 48.7538 48.7408C50.2628 47.395 51.4464 45.8315 52.2729 44.0956C52.6962 43.205 53.013 42.2889 53.2261 41.3503C53.3614 40.7622 53.4536 40.1656 53.5025 39.5634C53.514 39.4475 53.5198 39.3316 53.5284 39.2157C53.5428 38.964 53.5515 38.7096 53.5515 38.4523C53.5515 38.3138 53.5515 38.1752 53.5457 38.0367C53.5457 37.9971 53.5428 37.9575 53.54 37.9151C53.5227 37.4939 53.4852 37.0726 53.4276 36.657C53.4276 36.6485 53.4276 36.64 53.4248 36.6344C53.3988 36.4562 53.3729 36.2809 53.3384 36.1028C53.2952 35.8625 53.2433 35.6222 53.1857 35.3847C53.0993 35.02 52.9957 34.6609 52.8747 34.3047C52.7739 34.005 52.6645 33.7081 52.5407 33.4141C52.4802 33.2727 52.4197 33.1313 52.3564 32.99C52.3276 32.9278 52.3017 32.8684 52.27 32.8062C52.2297 32.7214 52.1893 32.6366 52.1461 32.5518C51.9561 32.1701 51.7459 31.7969 51.5212 31.4321C51.478 31.3643 51.4348 31.2964 51.3916 31.2286C51.2793 31.0533 51.1613 30.878 51.0374 30.7055C51.0374 30.7055 51.0374 30.7027 51.0346 30.6999C51.0346 30.6999 51.0346 30.6999 51.0317 30.6971C50.9165 30.5359 50.7984 30.3747 50.6775 30.2164C50.5306 30.027 50.3808 29.8404 50.2225 29.6594C50.1994 29.6312 50.1764 29.6057 50.1505 29.5774C50.1101 29.5294 50.067 29.4813 50.0238 29.4333C50.0209 29.4276 50.0151 29.4248 50.0122 29.4219C49.9777 29.3824 49.9431 29.3456 49.9086 29.306C49.9431 29.2127 49.9748 29.1194 50.0007 29.0233C50.0727 28.7773 50.1188 28.5229 50.1476 28.2656C50.1764 28.0196 50.185 27.7736 50.1821 27.5305C50.1764 27.0894 50.1303 26.6597 50.0612 26.2837C49.9892 26.3487 49.9201 26.4137 49.8539 26.4787C49.7444 26.5805 49.635 26.6823 49.5198 26.7756C49.491 26.801 49.4593 26.8237 49.4276 26.8491C49.3067 26.9424 49.18 27.0329 49.036 27.112C48.8143 27.2336 48.5551 27.3354 48.2354 27.4089C48.3823 27.211 48.5292 27.0018 48.6731 26.7841C48.6818 26.7699 48.6904 26.7586 48.6991 26.7445C48.6991 26.7445 48.6991 26.7445 48.6991 26.7417C48.7682 26.6371 48.8344 26.5325 48.9006 26.425C49.0187 26.2356 49.131 26.0405 49.2405 25.8426C49.2952 25.7436 49.347 25.6419 49.3988 25.5401C49.3988 25.5344 49.4046 25.5288 49.4075 25.5259C49.4996 25.345 49.586 25.1612 49.6638 24.9774C50.1389 23.8805 50.3837 22.7269 50.1188 21.6893C49.9748 21.1917 49.7271 20.7365 49.3844 20.3322C49.3844 20.3322 49.3787 20.3266 49.3787 20.3237C49.1944 20.123 48.9784 19.9336 48.7279 19.7554C48.437 20.5414 47.7545 21.2511 46.64 21.76C46.6458 20.9203 46.5623 19.7328 46.2081 18.5765C46.1591 18.421 46.1044 18.2655 46.0439 18.11C45.7963 17.4738 45.4881 16.9197 45.1166 16.4532C45.1166 16.4532 45.1166 16.4503 45.1138 16.4475C44.6012 15.8255 43.9215 15.3222 43.0259 15.0423C42.9539 15.7011 42.9885 16.8264 42.2052 17.3777C42.1332 16.9903 42.0353 16.62 41.8769 16.2609C41.8769 16.2609 41.8769 16.2694 41.8769 16.275C41.7358 15.964 41.5486 15.6502 41.2894 15.3392C41.2894 15.3392 41.2837 15.3307 41.2779 15.3251L39.6825 13.5184C39.6364 13.4675 39.5932 13.4167 39.55 13.3658C39.5414 13.3545 39.5328 13.346 39.5241 13.3347C39.5155 13.3262 39.5097 13.3177 39.5011 13.3092C38.6573 12.331 38.1217 11.4234 37.8251 10.4791L37.8078 10.4254C37.8078 10.4254 37.8049 10.4141 37.802 10.4084C37.779 10.3406 37.7588 10.2699 37.7387 10.202C35.9071 11.4856 36.0194 12.8625 35.9071 14.3666C35.8668 14.8925 35.7459 15.3958 35.3456 15.9075C34.7379 14.9293 33.9028 13.9878 32.0972 13.6796C32.5637 15.2403 31.9273 18.9497 30.2081 20.2615C30.2023 20.041 30.0986 19.7865 29.9143 19.5377C29.9143 19.5377 29.9114 19.5434 29.9086 19.5434C29.8654 19.4812 29.8164 19.4162 29.7646 19.3568C29.3067 18.8479 28.5292 18.404 27.6134 18.3785C27.3859 20.3492 27.1929 22.3339 26.0785 24.2169L25.3441 23.4592C25.1829 23.2924 24.82 23.1567 24.4946 23.0634L23.8063 25.0623L23.7804 25.1386C23.6825 25.427 23.5875 25.7125 23.504 26.0009C23.4377 26.2299 23.3801 26.4589 23.3341 26.6908C23.288 26.9283 23.2534 27.1658 23.2361 27.4089V27.4541C23.2189 27.6719 23.2217 27.8896 23.2361 28.1073C23.2477 28.2797 23.2678 28.4494 23.2937 28.619C23.2995 28.6501 23.3053 28.6812 23.311 28.7123C23.3139 28.7349 23.3197 28.7547 23.3225 28.7773C23.3283 28.8028 23.3341 28.8282 23.3398 28.8537C23.3398 28.8621 23.3427 28.8678 23.3456 28.8763C23.3974 29.1081 23.4636 29.3371 23.55 29.5633C23.5817 29.6453 23.6134 29.7273 23.6508 29.8121C23.5472 29.9365 23.4464 30.0609 23.3456 30.1881C23.2131 30.3578 23.0864 30.5274 22.9654 30.7027C22.951 30.7225 22.9395 30.7423 22.9251 30.7593L22.9165 30.7706L22.9194 30.7734Z" fill="#FFCE00"/>
<path d="M50.2369 27.5899C50.2196 27.5729 50.2052 27.5588 50.1879 27.5446C50.1908 27.7878 50.1793 28.0337 50.1534 28.2797C50.1246 28.537 50.0756 28.7915 50.0065 29.0374C49.9806 29.1336 49.9489 29.2269 49.9143 29.3202C49.9489 29.3597 49.9834 29.3965 50.018 29.4361C50.0209 29.4417 50.0266 29.4446 50.0295 29.4474C50.2167 28.8226 50.2628 28.1723 50.2397 27.5927L50.2369 27.5899ZM41.2088 15.2544L39.6134 13.4506C39.5932 13.428 39.5731 13.4025 39.55 13.3799C39.5932 13.4308 39.6364 13.4817 39.6825 13.5326L41.2779 15.3392C41.2549 15.3109 41.2318 15.2855 41.2088 15.2572V15.2544ZM22.3117 29.1873C22.3117 29.1873 22.306 29.1929 22.306 29.1958C22.3319 29.3032 22.3607 29.4078 22.3924 29.5124C22.3636 29.405 22.3348 29.2975 22.3117 29.1873Z" fill="#040468"/>
<path d="M29.8596 23.0662L44.7768 22.9361L42.8848 40.4908L32.1461 39.8207L29.8596 23.0662Z" fill="#040468"/>
<path d="M45.5918 43.7111C45.4075 44.1917 45.1137 44.8024 44.5695 45.0682C44.5551 45.8344 44.3909 46.7136 43.6364 47.4092C43.383 47.641 43.2621 47.9435 43.0749 48.4581L43.0374 48.5599C42.7495 49.3402 42.3722 50.1036 41.8538 50.9602C41.8251 51.0111 41.7905 51.0592 41.7588 51.1101L41.7646 51.4437C41.7732 51.8678 41.7502 52.2806 41.7185 52.6877C41.6119 52.7047 41.5083 52.7216 41.4017 52.7358C41.3096 52.7499 41.2174 52.7612 41.1253 52.7754C40.8603 52.8121 40.5954 52.8432 40.3305 52.8687C39.5126 52.9506 38.6861 52.9931 37.851 52.9931C37.0158 52.9931 36.1865 52.9506 35.3657 52.8687C35.2621 52.8602 35.1584 52.8489 35.0547 52.8347C34.8071 52.8065 34.5594 52.7754 34.3146 52.7386C34.2657 52.7329 34.2167 52.7245 34.1677 52.716C34.2081 52.5831 34.2455 52.4841 34.2772 52.3937C34.3463 52.1986 34.3866 52.0912 34.4183 51.308C34.4327 50.8415 34.3117 50.4344 34.0929 50.2167C33.7819 49.9028 33.3096 49.6399 32.8949 49.4109C32.3592 49.114 31.8956 48.6843 31.4435 48.0623C30.401 46.6317 31.0547 45.0286 31.5356 43.8581L31.55 43.8213L31.8467 43.0947C31.8438 43.0664 31.8409 43.0382 31.838 43.0071C31.815 42.7554 31.8294 42.4982 31.887 42.2352C31.8927 42.2069 31.9014 42.1758 31.9071 42.1447C31.8063 42.1306 31.7113 42.1108 31.6191 42.0854C31.2736 41.9864 30.9942 41.8083 30.7927 41.5482C30.6055 41.3107 30.3319 40.799 30.594 40.0497C30.6659 39.8462 30.7437 39.6454 30.833 39.4475C31.1843 38.6587 31.6652 37.9151 32.2325 37.2846C32.4226 37.0726 32.6213 36.8747 32.8287 36.6909C32.8834 36.6428 32.9381 36.592 32.9957 36.5467C33.0418 36.5071 33.0907 36.4676 33.1397 36.4308C33.1425 36.4308 33.1454 36.4251 33.1483 36.4223C33.2808 36.3177 33.4161 36.2131 33.5515 36.1085C33.9748 35.7862 34.4039 35.4695 34.8272 35.1585C35.5788 34.6044 36.2901 34.0813 36.9294 33.5498C37.2347 33.2953 37.5659 33.1144 37.9114 33.0069C38.0785 32.9561 38.2484 32.9221 38.4212 32.9052C38.4442 32.9052 38.4644 32.8995 38.4874 32.8995C39.0806 32.8571 39.671 33.0183 40.2585 33.3745C40.27 33.3802 40.2815 33.3886 40.293 33.3943C40.365 33.4395 40.437 33.4848 40.5061 33.5357C40.5263 33.5498 40.5464 33.5639 40.5695 33.5809C40.7826 33.7364 40.9957 33.9173 41.2059 34.1237C41.3556 34.2707 41.5083 34.4319 41.658 34.6072C41.6868 34.6411 41.7156 34.6722 41.7444 34.7061C42.0526 35.0624 42.3664 35.413 42.6832 35.7494C43.0173 36.1057 43.3571 36.4506 43.694 36.7786C44.0338 37.1093 44.27 37.4712 44.437 37.8473C44.7192 38.4693 44.8143 39.1224 44.8978 39.685C44.9726 40.1826 45.0418 40.6548 45.2145 41.0025C45.4939 41.5595 46.0122 42.5971 45.586 43.7111H45.5918Z" fill="#040468"/>
<path d="M44.5032 41.2089C44.3074 40.8131 44.2354 40.3381 44.1605 39.8348C44.149 39.75 44.1346 39.6624 44.1202 39.5776C44.005 38.8453 43.8294 38.0565 43.1958 37.4401C42.689 36.9482 42.185 36.4223 41.6926 35.8682C41.5544 35.7127 41.4161 35.5543 41.2779 35.396C40.9438 35.0087 40.6127 34.7005 40.2815 34.4715C40.2556 34.4545 40.2325 34.4376 40.2066 34.4234C39.9532 34.2566 39.7027 34.1407 39.4521 34.07C39.2275 34.005 39.0029 33.9824 38.7811 33.9965C38.6775 34.005 38.5767 34.0191 38.4759 34.0446C38.1821 34.1152 37.8999 34.2623 37.6379 34.48C37.3067 34.757 36.9467 35.0341 36.581 35.3112C36.2786 35.5402 35.9705 35.7664 35.6681 35.9897C35.3427 36.2301 35.0086 36.476 34.6803 36.722C34.4932 36.8634 34.3089 37.0047 34.1274 37.1489C33.8337 37.3808 33.5572 37.6437 33.2981 37.9377C32.892 38.3986 32.5407 38.9245 32.2613 39.4843C32.1346 39.7415 32.0223 40.0045 31.9302 40.2703C31.7747 40.7113 31.9014 41.0053 32.031 41.175C32.3679 41.6047 33.013 41.5595 33.2261 41.5425C33.2923 41.5369 33.3556 41.5312 33.4075 41.5256C33.1829 41.9497 33.0706 42.3738 33.108 42.7894C33.1281 43.0099 33.2059 43.1908 33.3182 43.3435L33.0648 43.1569L32.7941 43.8185C32.3736 44.8448 31.8524 46.1227 32.6501 47.2169C33.0245 47.7286 33.396 48.0764 33.8251 48.3139C34.2397 48.5429 34.7091 48.8058 35.0518 49.1508C35.3571 49.4561 35.5212 49.965 35.504 50.539C35.4723 51.3476 35.4233 51.4805 35.3456 51.7038C35.2707 51.9074 35.1728 52.1816 35.0547 52.8404C35.1584 52.8517 35.2621 52.863 35.3657 52.8743C36.1865 52.9563 37.013 52.9987 37.851 52.9987C38.689 52.9987 39.5126 52.9563 40.3305 52.8743C40.5954 52.8489 40.8603 52.8149 41.1253 52.781C41.1368 52.6707 41.1483 52.5463 41.1598 52.4106L41.1771 52.1986C41.2203 51.6982 41.2635 51.1808 41.252 50.6605L41.2433 50.1827C41.3038 50.1036 41.3585 50.0216 41.4075 49.9368C41.8711 49.1706 42.2052 48.492 42.4615 47.8021L42.496 47.706C42.6717 47.2254 42.8128 46.8437 43.1526 46.5327C43.8323 45.9107 43.8754 45.0569 43.8438 44.35C43.8582 44.35 43.8697 44.35 43.8841 44.35C44.2671 44.3218 44.5695 43.991 44.8287 43.3096C45.1425 42.4868 44.7423 41.6896 44.5032 41.2117V41.2089ZM35.1613 45.5601C35.1353 45.5997 35.1123 45.6364 35.0921 45.6789C35.0778 45.6195 35.0605 45.5658 35.0374 45.512C35.0778 45.5318 35.1181 45.546 35.1613 45.5629V45.5601Z" fill="#F4F4F4"/>
<path d="M38.0209 51.3843C37.3902 51.1299 36.9755 50.5955 36.2498 50.4966C36.2325 50.4966 36.2153 50.4966 36.1951 50.4966C36.1605 50.4966 36.1289 50.505 36.1231 50.5135C35.9762 50.6492 36.7768 51.2967 36.987 51.4437C37.1742 51.5738 37.5112 51.6755 37.7646 51.6557C37.8884 51.6473 37.9921 51.6105 38.0497 51.5342C38.067 51.5116 38.0785 51.4069 38.0209 51.3843ZM40.7192 42.2494C40.869 42.3116 41.0187 42.3738 41.1627 42.4303C41.1742 42.436 41.1886 42.436 41.2001 42.436C41.2923 42.4303 41.3585 42.2663 41.3614 42.19C41.3614 42.1843 41.3614 42.1758 41.3614 42.1674L40.7192 42.2494ZM38.0209 51.3843C37.3902 51.1299 36.9755 50.5955 36.2498 50.4966C36.2325 50.4966 36.2153 50.4966 36.1951 50.4966C36.1605 50.4966 36.1289 50.505 36.1231 50.5135C35.9762 50.6492 36.7768 51.2967 36.987 51.4437C37.1742 51.5738 37.5112 51.6755 37.7646 51.6557C37.8884 51.6473 37.9921 51.6105 38.0497 51.5342C38.067 51.5116 38.0785 51.4069 38.0209 51.3843ZM38.0209 51.3843C37.3902 51.1299 36.9755 50.5955 36.2498 50.4966C36.2325 50.4966 36.2153 50.4966 36.1951 50.4966C36.1605 50.4966 36.1289 50.505 36.1231 50.5135C35.9762 50.6492 36.7768 51.2967 36.987 51.4437C37.1742 51.5738 37.5112 51.6755 37.7646 51.6557C37.8884 51.6473 37.9921 51.6105 38.0497 51.5342C38.067 51.5116 38.0785 51.4069 38.0209 51.3843ZM44.6933 41.3107C44.532 40.9884 44.4687 40.553 44.3996 40.0921C44.3535 39.7811 44.3017 39.439 44.2124 39.0913C44.0655 38.5088 43.8092 37.9095 43.2822 37.4006C42.7783 36.9114 42.2743 36.3856 41.7847 35.8342C41.6551 35.6872 41.5256 35.5402 41.396 35.3904C41.0907 35.0341 40.7826 34.7372 40.4716 34.4998C40.3938 34.4404 40.3161 34.3838 40.2383 34.3329C40.0252 34.1916 39.8121 34.0785 39.5961 33.9937C39.2189 33.8438 38.8416 33.7816 38.4615 33.8099C38.3866 33.8155 38.3146 33.824 38.2426 33.8353C37.802 33.906 37.3902 34.1011 37.0158 34.4121C36.7048 34.6722 36.3765 34.9267 36.0338 35.1868C35.7228 35.4215 35.4003 35.6589 35.072 35.9021C34.9136 36.018 34.7523 36.1368 34.594 36.2555C34.234 36.5241 33.8711 36.7955 33.5198 37.0698C33.4046 37.1602 33.2894 37.2564 33.18 37.3581C32.5378 37.9406 31.982 38.6728 31.5673 39.4758C31.4089 39.784 31.2707 40.1034 31.1555 40.4286C30.9136 41.1241 31.167 41.5962 31.3398 41.8168C31.4204 41.9214 31.5155 42.0119 31.622 42.0882C31.7027 42.1476 31.7919 42.1956 31.8898 42.238C32.0338 42.3002 32.1951 42.3455 32.3708 42.3709C32.3045 42.6423 32.2844 42.9081 32.3074 43.1682C32.3074 43.1965 32.3132 43.2219 32.3161 43.2474L32.0396 43.9203L32.0252 43.9542C31.5817 45.0371 30.9741 46.5214 31.9388 47.8474C32.3593 48.4213 32.7855 48.8171 33.2837 49.0942C33.6667 49.3091 34.1044 49.5494 34.3924 49.8406C34.594 50.0442 34.7063 50.4202 34.6947 50.8528C34.6659 51.5794 34.6314 51.6784 34.5652 51.8565C34.4989 52.0374 34.4154 52.2721 34.3175 52.7386C34.5623 52.7754 34.8099 52.8065 35.0576 52.8347C35.1613 52.846 35.2649 52.8573 35.3686 52.8687C35.5817 51.9045 35.6969 52.2664 35.7516 50.8867C35.7718 50.2364 35.5961 49.5636 35.1497 49.1168C34.7667 48.7323 34.2858 48.4581 33.8049 48.1923C33.3902 47.9605 33.0677 47.6127 32.7999 47.2423C32.1634 46.3715 32.6127 45.3028 33.0216 44.3048C33.4363 44.6101 33.8222 44.4999 33.7559 44.8505C33.6263 45.5347 34.5018 45.8683 34.2599 46.4309C33.7934 47.5194 35.2995 47.8954 36.0742 47.935C36.1116 47.935 36.149 47.935 36.1865 47.935C36.293 47.9265 36.4024 47.9068 36.5061 47.8983C36.5839 47.8926 36.6616 47.8955 36.7307 47.9181C36.486 48.2008 36.1404 48.475 36.1433 48.7578C36.1433 49.1084 36.5925 50.0668 36.7855 50.0555C36.797 50.0555 36.8056 50.0498 36.8171 50.0442C36.892 49.982 36.7711 49.6936 36.7394 49.4957C36.6703 49.0292 36.7307 48.7408 36.964 48.3252C37.1829 47.935 37.6436 47.5675 38.1217 47.4487C38.7754 47.183 39.2851 47.2932 39.4032 47.2848C39.4492 47.2819 39.4867 47.265 39.504 47.231C39.5328 47.1717 39.5443 47.0642 39.4492 47.0133C38.8099 46.6712 38.7898 46.7023 37.0994 47.1462C36.8747 47.2395 36.6155 47.3017 36.3592 47.3187C36.0367 47.3413 35.7171 47.2932 35.4723 47.1519C35.0691 46.9116 35.0806 46.4026 35.4262 46.0351C35.9647 45.464 36.9035 44.6412 37.6955 44.5847C37.7099 44.5847 37.7243 44.5847 37.7415 44.5847C38.4413 44.5621 39.0691 44.7345 39.7228 44.9381C39.9734 45.0173 40.2325 45.0258 40.4917 45.0371H40.4975C40.5839 45.0314 40.6443 44.7685 40.5493 44.7232C39.7372 44.3302 38.8589 43.9797 37.9172 43.9146C37.8366 43.909 37.7588 43.909 37.6782 43.9146C36.7221 43.9825 35.8294 44.8307 35.0806 45.4216C34.4586 45.2435 34.7178 44.4971 35.0461 44.1069C35.4089 43.6715 35.7919 43.2474 36.1893 42.8374C36.5608 42.4501 36.9438 42.0741 37.3384 41.7093C37.5572 41.5058 37.8164 41.421 38.0382 41.404C38.1217 41.3983 38.1965 41.404 38.2657 41.4153C39.0835 41.5595 39.933 41.9355 40.7163 42.2607C40.8661 42.3229 41.0158 42.3851 41.1598 42.4416C41.1713 42.4473 41.1857 42.4473 41.1973 42.4473C41.2894 42.4416 41.3556 42.2776 41.3585 42.2013C41.3585 42.1956 41.3585 42.1872 41.3585 42.1787C41.3499 42.0854 41.2549 41.9695 41.1598 41.9044C40.3017 41.3305 39.4003 40.8385 38.3405 40.6152C38.2599 40.6067 38.1793 40.6039 38.1015 40.6095C37.5169 40.6519 36.964 41.0591 36.5695 41.4464C36.1922 41.8196 35.8495 42.3031 35.432 42.6791C35.3254 42.7752 35.2217 42.8742 35.1181 42.9731C34.8099 43.2757 34.5162 43.5951 34.2196 43.909C33.8654 43.7195 33.3988 43.499 33.3614 43.0806C33.3125 42.5519 33.6177 41.9666 34.0842 41.3899C34.9395 40.3353 36.3333 39.3146 37.0763 38.7379C37.4795 38.4269 37.9316 38.1554 38.4096 38.1215C38.5911 38.1074 38.7783 38.13 38.9683 38.195C39.576 38.4212 40.1317 38.7294 40.6731 39.0658C41.0533 39.309 41.4824 39.4843 41.8999 39.6652C41.9086 39.6709 41.9172 39.6709 41.9258 39.6709C42.0122 39.6652 42.0151 39.4051 41.9374 39.3231C41.5112 38.8962 41.0706 38.4834 40.5839 38.1215C39.9129 37.5985 39.1958 37.2846 38.4413 37.3355C37.9316 37.3723 37.4017 37.5758 36.8574 38.0028C36.3276 38.4721 35.7891 38.9329 35.2448 39.3853C34.7811 39.7755 34.3377 40.1741 33.9057 40.5897C33.6551 40.8301 33.4075 41.0789 33.1656 41.3305C33.1051 41.3361 33.0158 41.3474 32.915 41.3559C32.5205 41.3842 31.9532 41.3503 32.1548 40.7679C32.3161 40.3098 32.5407 39.8462 32.8229 39.4079C33.0101 39.1139 33.2203 38.834 33.4536 38.5739C33.6782 38.3222 33.923 38.0876 34.1821 37.884C34.3117 37.7822 34.4471 37.6776 34.5796 37.5758C35.3974 36.951 36.2671 36.3375 37.0619 35.7211C37.2808 35.5515 37.4968 35.379 37.7041 35.2066C37.9834 34.9747 38.2657 34.8645 38.5421 34.8475C39.3657 34.7881 40.1317 35.5232 40.5925 36.0632C40.6156 36.0887 40.6386 36.117 40.6616 36.1424C41.2606 36.8351 41.8884 37.5052 42.545 38.1413C43.5241 39.0913 43.1843 40.5926 43.7315 41.7348C43.7315 41.7348 43.743 41.7602 43.7487 41.7715C43.9935 42.2607 44.2786 42.8685 44.054 43.4566C43.9878 43.6347 43.7747 44.1465 43.5644 44.1634C43.5443 44.1634 43.5212 44.1634 43.5011 44.1521C43.3513 44.0814 43.2995 43.8439 43.1325 43.7959C43.1238 43.7959 43.1152 43.7931 43.1037 43.7959C43.0518 43.7987 42.9942 43.8496 42.9942 43.9259C43.0058 44.7289 43.2505 45.8089 42.5104 46.4903C42.0526 46.9116 41.8855 47.4148 41.6839 47.9605C41.419 48.6814 41.0763 49.343 40.6731 50.0074C40.3621 50.522 39.8524 50.9404 39.2793 51.1638C39.3398 51.3193 39.455 51.3674 39.5932 51.3589C39.8668 51.3391 40.2297 51.1016 40.4428 51.0083C40.4543 51.5709 40.3967 52.1392 40.3506 52.7075C40.3449 52.7697 40.342 52.8262 40.3362 52.8828C40.6011 52.8573 40.8661 52.8234 41.131 52.7895C41.2232 52.7782 41.3153 52.764 41.4075 52.7499C41.4132 52.6934 41.4161 52.634 41.4219 52.5774C41.4651 52.0629 41.5112 51.5342 41.4996 50.9885L41.4939 50.6803C41.5256 50.6351 41.5544 50.587 41.5832 50.5418C42.0641 49.7473 42.4125 49.0405 42.6775 48.3195L42.712 48.2234C42.8877 47.7484 42.9971 47.4685 43.2304 47.2537C43.9302 46.6119 44.0828 45.7948 44.0972 45.088C44.6012 44.842 44.8747 44.2765 45.0446 43.8326C45.4392 42.8035 44.9582 41.8422 44.6991 41.3248L44.6933 41.3107Z" fill="#040468"/>
</g>
<rect x="176" y="11" width="179" height="40" rx="20" fill="#E20000"/>
<rect x="176" y="11" width="179" height="40" rx="20" stroke="#0000CC" stroke-width="2"/>
<path d="M188.342 37V25.5469H196.835V27.4844H190.655V30.0234H196.405V31.9531H190.655V35.0703H197.053V37H188.342ZM199.998 37V25.5469H202.248L206.935 33.1953V25.5469H209.084V37H206.763L202.146 29.5312V37H199.998ZM215.075 37V27.4844H211.677V25.5469H220.778V27.4844H217.387V37H215.075ZM223.246 37V25.5469H228.113C229.337 25.5469 230.225 25.651 230.777 25.8594C231.334 26.0625 231.78 26.4271 232.113 26.9531C232.446 27.4792 232.613 28.0807 232.613 28.7578C232.613 29.6172 232.361 30.3281 231.855 30.8906C231.35 31.4479 230.595 31.7995 229.59 31.9453C230.09 32.237 230.501 32.5573 230.824 32.9062C231.152 33.2552 231.592 33.875 232.144 34.7656L233.543 37H230.777L229.105 34.5078C228.512 33.6172 228.105 33.0573 227.887 32.8281C227.668 32.5938 227.436 32.4349 227.191 32.3516C226.946 32.263 226.558 32.2188 226.027 32.2188H225.558V37H223.246ZM225.558 30.3906H227.269C228.379 30.3906 229.071 30.3438 229.347 30.25C229.624 30.1562 229.84 29.9948 229.996 29.7656C230.152 29.5365 230.23 29.25 230.23 28.9062C230.23 28.5208 230.126 28.2109 229.918 27.9766C229.715 27.737 229.426 27.5859 229.051 27.5234C228.863 27.4974 228.301 27.4844 227.363 27.4844H225.558V30.3906ZM246.089 37H243.573L242.573 34.3984H237.995L237.05 37H234.597L239.057 25.5469H241.503L246.089 37ZM241.831 32.4688L240.253 28.2188L238.706 32.4688H241.831ZM248.291 37V25.5469H253.158C254.382 25.5469 255.27 25.651 255.822 25.8594C256.379 26.0625 256.825 26.4271 257.158 26.9531C257.491 27.4792 257.658 28.0807 257.658 28.7578C257.658 29.6172 257.406 30.3281 256.9 30.8906C256.395 31.4479 255.64 31.7995 254.635 31.9453C255.135 32.237 255.546 32.5573 255.869 32.9062C256.197 33.2552 256.637 33.875 257.189 34.7656L258.588 37H255.822L254.15 34.5078C253.557 33.6172 253.15 33.0573 252.932 32.8281C252.713 32.5938 252.481 32.4349 252.236 32.3516C251.991 32.263 251.603 32.2188 251.072 32.2188H250.603V37H248.291ZM250.603 30.3906H252.314C253.424 30.3906 254.116 30.3438 254.392 30.25C254.669 30.1562 254.885 29.9948 255.041 29.7656C255.197 29.5365 255.275 29.25 255.275 28.9062C255.275 28.5208 255.171 28.2109 254.963 27.9766C254.76 27.737 254.471 27.5859 254.096 27.5234C253.908 27.4974 253.346 27.4844 252.408 27.4844H250.603V30.3906ZM266.242 37V25.5469H268.492L273.18 33.1953V25.5469H275.328V37H273.008L268.391 29.5312V37H266.242ZM289.069 37H286.554L285.554 34.3984H280.976L280.03 37H277.577L282.038 25.5469H284.483L289.069 37ZM284.812 32.4688L283.233 28.2188L281.687 32.4688H284.812ZM296.146 37V25.6406H298.458V35.0703H304.208V37H296.146ZM306.754 37V25.5469H309.067V37H306.754ZM311.652 33.2734L313.902 33.0547C314.037 33.8099 314.31 34.3646 314.722 34.7188C315.139 35.0729 315.698 35.25 316.402 35.25C317.146 35.25 317.706 35.0938 318.081 34.7812C318.461 34.4635 318.652 34.0938 318.652 33.6719C318.652 33.401 318.571 33.1719 318.409 32.9844C318.253 32.7917 317.977 32.625 317.581 32.4844C317.31 32.3906 316.693 32.224 315.73 31.9844C314.49 31.6771 313.62 31.2995 313.12 30.8516C312.417 30.2214 312.066 29.4531 312.066 28.5469C312.066 27.9635 312.23 27.4193 312.558 26.9141C312.891 26.4036 313.368 26.0156 313.987 25.75C314.612 25.4844 315.365 25.3516 316.245 25.3516C317.683 25.3516 318.764 25.6667 319.487 26.2969C320.217 26.9271 320.599 27.7682 320.636 28.8203L318.323 28.9219C318.224 28.3333 318.011 27.9115 317.683 27.6562C317.36 27.3958 316.873 27.2656 316.222 27.2656C315.55 27.2656 315.024 27.4036 314.644 27.6797C314.399 27.8568 314.277 28.0938 314.277 28.3906C314.277 28.6615 314.391 28.8932 314.62 29.0859C314.912 29.3307 315.62 29.5859 316.745 29.8516C317.87 30.1172 318.701 30.3932 319.237 30.6797C319.779 30.9609 320.201 31.349 320.503 31.8438C320.81 32.3333 320.964 32.9401 320.964 33.6641C320.964 34.3203 320.782 34.9349 320.417 35.5078C320.053 36.0807 319.537 36.5078 318.87 36.7891C318.204 37.0651 317.373 37.2031 316.378 37.2031C314.93 37.2031 313.818 36.8698 313.042 36.2031C312.266 35.5312 311.803 34.5547 311.652 33.2734ZM326.447 37V27.4844H323.049V25.5469H332.151V27.4844H328.76V37H326.447ZM343.751 37H341.236L340.236 34.3984H335.658L334.712 37H332.259L336.72 25.5469H339.165L343.751 37ZM339.493 32.4688L337.915 28.2188L336.368 32.4688H339.493Z" fill="#F4F4F4"/>
</g>
<defs>
<filter id="filter0_d_542_245" x="0" y="0" width="368" height="64" filterUnits="userSpaceOnUse" color-interpolation-filters="sRGB">
<feFlood flood-opacity="0" result="BackgroundImageFix"/>
<feColorMatrix in="SourceAlpha" type="matrix" values="0 0 0 0 0 0 0 0 0 0 0 0 0 0 0 0 0 0 127 0" result="hardAlpha"/>
<feOffset dx="-3" dy="2"/>
<feComposite in2="hardAlpha" operator="out"/>
<feColorMatrix type="matrix" values="0 0 0 0 0.0156863 0 0 0 0 0.0156863 0 0 0 0 0.407843 0 0 0 1 0"/>
<feBlend mode="normal" in2="BackgroundImageFix" result="effect1_dropShadow_542_245"/>
<feBlend mode="normal" in="SourceGraphic" in2="effect1_dropShadow_542_245" result="shape"/>
</filter>
<clipPath id="clip0_542_245">
<rect width="36" height="46" fill="white" transform="translate(19 8.5)"/>
</clipPath>
</defs>
</svg>
