<svg width="359" height="394" viewBox="0 0 359 394" fill="none" xmlns="http://www.w3.org/2000/svg">
<rect y="222" width="170" height="172" rx="29" fill="#040468"/>
<path d="M85.5 242C49.3348 242 20 271.559 20 308C20 344.441 49.3348 374 85.5 374C121.665 374 151 344.441 151 308C151 271.559 121.705 242 85.5 242ZM123.205 299.725C122.494 299.805 121.784 299.844 121.112 299.844C113.374 299.844 106.188 295.906 101.924 289.421V324.948C101.924 339.468 90.2378 351.204 75.8664 351.204C61.4951 351.204 49.8086 339.429 49.8086 324.948C49.8086 310.467 61.4951 298.691 75.8664 298.691C76.4192 298.691 76.9325 298.731 77.4852 298.77V311.7C76.9325 311.62 76.4192 311.541 75.8664 311.541C68.5229 311.541 62.5612 317.548 62.5612 324.948C62.5612 332.347 68.5229 338.354 75.8664 338.354C83.21 338.354 89.7245 332.506 89.7245 325.107L89.843 264.756H102.122C103.267 275.855 112.15 284.528 123.205 285.363V299.765V299.725Z" fill="#F4F4F4"/>
<rect x="189" y="222" width="170" height="172" rx="29" fill="#0E0AA5"/>
<path d="M276.088 304.351L258.609 279.089H249.258L270.959 310.398L273.681 314.297L292.265 341.111H301.576L278.81 308.29L276.088 304.351Z" fill="#F4F4F4"/>
<path d="M275.457 244C239.315 244 210 273.559 210 310C210 346.441 239.315 376 275.457 376C311.598 376 340.913 346.441 340.913 310C340.913 273.559 311.598 244 275.457 244ZM289.384 345.486L270.604 317.917L247.088 345.486H241.012L267.921 313.939L241.012 274.434H261.529L279.323 300.532L301.615 274.434H307.692L282.046 304.51L309.941 345.447H289.424L289.384 345.486Z" fill="#F4F4F4"/>
<rect y="32" width="170" height="172" rx="29" fill="#0000CC"/>
<path d="M84.5 52C48.3348 52 19 81.519 19 118C19 154.481 48.3348 184 84.5 184C120.665 184 150 154.441 150 118C150 81.5588 120.665 52 84.5 52ZM110.281 85.2984H102.622C95.0811 85.2984 92.7122 90.0325 92.7122 94.8861V106.383H109.571L106.886 124.087H92.7122V166.933H73.682V124.087H58.2447V106.383H73.682V92.8969C73.682 77.5407 82.7628 69.0669 96.6603 69.0669C103.333 69.0669 110.281 70.2604 110.281 70.2604V85.3382V85.2984Z" fill="#F4F4F4"/>
<rect x="189" y="32" width="170" height="172" rx="29" fill="#E20000"/>
<path d="M275.772 105.349C268.867 105.349 263.265 110.998 263.265 117.96C263.265 124.922 268.867 130.571 275.772 130.571C282.677 130.571 288.28 124.922 288.28 117.96C288.28 110.998 282.677 105.349 275.772 105.349Z" fill="#F4F4F4"/>
<path d="M291.278 85.4977H259.595C250.56 85.4977 243.221 92.8973 243.221 102.008V133.953C243.221 143.064 250.56 150.463 259.595 150.463H291.278C300.313 150.463 307.652 143.064 307.652 133.953V102.008C307.652 92.8973 300.313 85.4977 291.278 85.4977ZM275.772 137.693C265.001 137.693 256.242 128.861 256.242 118C256.242 107.14 265.001 98.3078 275.772 98.3078C286.543 98.3078 295.303 107.14 295.303 118C295.303 128.861 286.543 137.693 275.772 137.693ZM296.447 101.65C293.882 101.65 291.791 99.5411 291.791 96.9552C291.791 94.3693 293.882 92.2608 296.447 92.2608C299.011 92.2608 301.103 94.3693 301.103 96.9552C301.103 99.5411 299.011 101.65 296.447 101.65Z" fill="#F4F4F4"/>
<path d="M275.457 52C239.315 52 210 81.5588 210 118C210 154.441 239.315 184 275.457 184C311.598 184 340.913 154.441 340.913 118C340.913 81.5588 311.598 52 275.457 52ZM315.109 133.953C315.109 147.201 304.417 157.982 291.278 157.982H259.595C246.457 157.982 235.764 147.201 235.764 133.953V102.007C235.764 88.7595 246.457 77.9783 259.595 77.9783H291.278C304.417 77.9783 315.109 88.7595 315.109 102.007V133.953Z" fill="#F4F4F4"/>
</svg>
