<svg width="277" height="345" viewBox="0 0 277 345" fill="none" xmlns="http://www.w3.org/2000/svg">
<path d="M45.6556 215L39.7056 197.15H42.9556L47.4306 211.275H47.4806L52.0556 197.15H55.2306L49.1306 215H45.6556ZM61.1716 213.1C63.7216 213.1 64.8466 210.775 64.8466 208.525C64.8466 206.3 63.7216 203.975 61.1716 203.975C58.6216 203.975 57.4966 206.3 57.4966 208.525C57.4966 210.775 58.6216 213.1 61.1716 213.1ZM61.1716 215.35C57.0216 215.35 54.6466 212.5 54.6466 208.525C54.6466 204.575 57.0216 201.725 61.1716 201.725C65.3216 201.725 67.6966 204.575 67.6966 208.525C67.6966 212.5 65.3216 215.35 61.1716 215.35ZM68.7659 204.2V202.075H70.9159V198.2H73.7659V202.075H76.3409V204.2H73.7659V211.1C73.7659 212.275 73.8659 212.875 75.1409 212.875C75.5409 212.875 75.9409 212.875 76.3409 212.775V214.975C75.7159 215.025 75.1159 215.125 74.4909 215.125C71.5159 215.125 70.9659 213.975 70.9159 211.825V204.2H68.7659ZM86.3661 210.65V208.525C85.4911 209.1 84.1161 209.075 82.8661 209.3C81.6411 209.5 80.5411 209.95 80.5411 211.45C80.5411 212.725 82.1661 213.1 83.1661 213.1C84.4161 213.1 86.3661 212.45 86.3661 210.65ZM89.2161 205.475V212.125C89.2161 212.825 89.3661 213.1 89.8911 213.1C90.0661 213.1 90.2911 213.1 90.5911 213.05V215.025C90.1661 215.175 89.2661 215.35 88.7911 215.35C87.6411 215.35 86.8161 214.95 86.5911 213.775C85.4661 214.875 83.6411 215.35 82.1161 215.35C79.7911 215.35 77.6911 214.1 77.6911 211.575C77.6911 208.35 80.2661 207.825 82.6661 207.55C84.7161 207.175 86.5411 207.4 86.5411 205.725C86.5411 204.25 85.0161 203.975 83.8661 203.975C82.2661 203.975 81.1411 204.625 81.0161 206.025H78.1661C78.3661 202.7 81.1911 201.725 84.0411 201.725C86.5661 201.725 89.2161 202.75 89.2161 205.475ZM101.008 210.15H103.858C103.358 213.325 101.458 215.15 98.4577 215.3L97.5827 216.45V216.5C97.7827 216.425 98.0327 216.425 98.4077 216.425C99.3827 216.425 100.533 217 100.533 218.275C100.533 219.975 98.9577 220.525 97.5077 220.525C96.7577 220.525 95.5827 220.375 94.9327 220L95.3827 219C95.9077 219.175 96.4577 219.4 97.0077 219.4C97.7077 219.4 98.5327 219.225 98.5327 218.375C98.5327 217.75 97.9327 217.425 97.3827 217.425C97.0577 217.425 96.7077 217.5 96.4077 217.675L95.8577 217.2L97.2827 215.3C93.6327 215.025 91.6577 212.25 91.6577 208.675C91.6577 204.775 93.7827 201.725 98.0327 201.725C101.033 201.725 103.583 203.225 103.858 206.4H101.008C100.783 204.825 99.6327 203.975 98.0577 203.975C96.5827 203.975 94.5077 204.75 94.5077 208.675C94.5077 210.825 95.4577 213.1 97.9327 213.1C99.5827 213.1 100.733 212 101.008 210.15ZM112.099 213.1C114.649 213.1 115.774 210.775 115.774 208.525C115.774 206.3 114.649 203.975 112.099 203.975C109.549 203.975 108.424 206.3 108.424 208.525C108.424 210.775 109.549 213.1 112.099 213.1ZM112.099 215.35C107.949 215.35 105.574 212.5 105.574 208.525C105.574 204.575 107.949 201.725 112.099 201.725C116.249 201.725 118.624 204.575 118.624 208.525C118.624 212.5 116.249 215.35 112.099 215.35ZM115.099 197.15H116.499C116.374 197.95 116.124 198.675 115.674 199.175C115.249 199.7 114.624 200.025 113.724 200.025C113.174 200.025 112.499 199.8 111.874 199.55C111.224 199.325 110.624 199.1 110.149 199.1C109.574 199.1 109.099 199.65 109.099 200.125H107.674C107.874 198.85 108.749 197.3 110.274 197.3C111.074 197.3 111.724 197.525 112.299 197.775C112.874 198 113.374 198.25 113.849 198.25C114.574 198.25 114.924 197.8 115.099 197.15ZM132.719 209.275H123.219C123.219 211.3 124.319 213.1 126.694 213.1C128.344 213.1 129.344 212.375 129.844 210.95H132.544C131.919 213.775 129.519 215.35 126.694 215.35C122.644 215.35 120.369 212.525 120.369 208.55C120.369 204.875 122.769 201.725 126.619 201.725C130.694 201.725 133.194 205.4 132.719 209.275ZM123.219 207.4H129.869C129.769 205.6 128.544 203.975 126.619 203.975C124.644 203.975 123.294 205.475 123.219 207.4ZM134.185 210.85H137.035C137.185 212.5 138.435 213.1 139.96 213.1C141.035 213.1 142.91 212.875 142.835 211.4C142.76 209.9 140.685 209.725 138.61 209.25C136.51 208.8 134.46 208.05 134.46 205.425C134.46 202.6 137.51 201.725 139.86 201.725C142.51 201.725 144.91 202.825 145.26 205.7H142.285C142.035 204.35 140.91 203.975 139.66 203.975C138.835 203.975 137.31 204.175 137.31 205.3C137.31 206.7 139.41 206.9 141.51 207.375C143.585 207.85 145.685 208.6 145.685 211.15C145.685 214.225 142.585 215.35 139.91 215.35C136.66 215.35 134.235 213.9 134.185 210.85ZM148.074 215V211.625H151.549V215C151.524 217.05 150.149 218.55 148.174 218.95V217.425C149.274 217.15 149.824 216.075 149.799 215H148.074ZM160.49 204.2V202.075H162.615V201C162.615 197.7 164.34 197.15 166.19 197.15C167.09 197.15 167.74 197.2 168.19 197.325V199.55C167.815 199.45 167.44 199.4 166.865 199.4C166.09 199.4 165.465 199.675 165.465 200.75V202.075H167.89V204.2H165.465V215H162.615V204.2H160.49ZM177.626 210.65V208.525C176.751 209.1 175.376 209.075 174.126 209.3C172.901 209.5 171.801 209.95 171.801 211.45C171.801 212.725 173.426 213.1 174.426 213.1C175.676 213.1 177.626 212.45 177.626 210.65ZM180.476 205.475V212.125C180.476 212.825 180.626 213.1 181.151 213.1C181.326 213.1 181.551 213.1 181.851 213.05V215.025C181.426 215.175 180.526 215.35 180.051 215.35C178.901 215.35 178.076 214.95 177.851 213.775C176.726 214.875 174.901 215.35 173.376 215.35C171.051 215.35 168.951 214.1 168.951 211.575C168.951 208.35 171.526 207.825 173.926 207.55C175.976 207.175 177.801 207.4 177.801 205.725C177.801 204.25 176.276 203.975 175.126 203.975C173.526 203.975 172.401 204.625 172.276 206.025H169.426C169.626 202.7 172.451 201.725 175.301 201.725C177.826 201.725 180.476 202.75 180.476 205.475ZM183.617 215V197.15H186.467V215H183.617ZM188.273 204.2V202.075H190.423V198.2H193.273V202.075H195.848V204.2H193.273V211.1C193.273 212.275 193.373 212.875 194.648 212.875C195.048 212.875 195.448 212.875 195.848 212.775V214.975C195.223 215.025 194.623 215.125 193.998 215.125C191.023 215.125 190.473 213.975 190.423 211.825V204.2H188.273ZM205.873 210.65V208.525C204.998 209.1 203.623 209.075 202.373 209.3C201.148 209.5 200.048 209.95 200.048 211.45C200.048 212.725 201.673 213.1 202.673 213.1C203.923 213.1 205.873 212.45 205.873 210.65ZM208.723 205.475V212.125C208.723 212.825 208.873 213.1 209.398 213.1C209.573 213.1 209.798 213.1 210.098 213.05V215.025C209.673 215.175 208.773 215.35 208.298 215.35C207.148 215.35 206.323 214.95 206.098 213.775C204.973 214.875 203.148 215.35 201.623 215.35C199.298 215.35 197.198 214.1 197.198 211.575C197.198 208.35 199.773 207.825 202.173 207.55C204.223 207.175 206.048 207.4 206.048 205.725C206.048 204.25 204.523 203.975 203.373 203.975C201.773 203.975 200.648 204.625 200.523 206.025H197.673C197.873 202.7 200.698 201.725 203.548 201.725C206.073 201.725 208.723 202.75 208.723 205.475ZM211.09 210.85H213.94C214.09 212.5 215.34 213.1 216.865 213.1C217.94 213.1 219.815 212.875 219.74 211.4C219.665 209.9 217.59 209.725 215.515 209.25C213.415 208.8 211.365 208.05 211.365 205.425C211.365 202.6 214.415 201.725 216.765 201.725C219.415 201.725 221.815 202.825 222.165 205.7H219.19C218.94 204.35 217.815 203.975 216.565 203.975C215.74 203.975 214.215 204.175 214.215 205.3C214.215 206.7 216.315 206.9 218.415 207.375C220.49 207.85 222.59 208.6 222.59 211.15C222.59 214.225 219.49 215.35 216.815 215.35C213.565 215.35 211.14 213.9 211.09 210.85ZM224.978 215V211.625H228.453V215C228.428 217.05 227.053 218.55 225.078 218.95V217.425C226.178 217.15 226.728 216.075 226.703 215H224.978ZM14.0875 238.55C14.0875 236.2 12.8625 233.975 10.5125 233.975C8.1125 233.975 6.8875 235.8 6.8875 238.55C6.8875 241.15 8.2125 243.1 10.5125 243.1C13.1125 243.1 14.0875 240.8 14.0875 238.55ZM4.1375 249.775V232.075H6.8375V233.825H6.8875C7.6875 232.35 9.2375 231.725 10.8875 231.725C14.9625 231.725 16.9375 234.825 16.9375 238.6C16.9375 242.075 15.1875 245.35 11.3625 245.35C9.7125 245.35 7.9375 244.75 7.0375 243.325H6.9875V249.775H4.1375ZM27.3207 240.65V238.525C26.4457 239.1 25.0707 239.075 23.8207 239.3C22.5957 239.5 21.4957 239.95 21.4957 241.45C21.4957 242.725 23.1207 243.1 24.1207 243.1C25.3707 243.1 27.3207 242.45 27.3207 240.65ZM30.1707 235.475V242.125C30.1707 242.825 30.3207 243.1 30.8457 243.1C31.0207 243.1 31.2457 243.1 31.5457 243.05V245.025C31.1207 245.175 30.2207 245.35 29.7457 245.35C28.5957 245.35 27.7707 244.95 27.5457 243.775C26.4207 244.875 24.5957 245.35 23.0707 245.35C20.7457 245.35 18.6457 244.1 18.6457 241.575C18.6457 238.35 21.2207 237.825 23.6207 237.55C25.6707 237.175 27.4957 237.4 27.4957 235.725C27.4957 234.25 25.9707 233.975 24.8207 233.975C23.2207 233.975 22.0957 234.625 21.9707 236.025H19.1207C19.3207 232.7 22.1457 231.725 24.9957 231.725C27.5207 231.725 30.1707 232.75 30.1707 235.475ZM31.9373 234.2V232.075H34.0873V228.2H36.9373V232.075H39.5123V234.2H36.9373V241.1C36.9373 242.275 37.0373 242.875 38.3123 242.875C38.7123 242.875 39.1123 242.875 39.5123 242.775V244.975C38.8873 245.025 38.2873 245.125 37.6623 245.125C34.6873 245.125 34.1373 243.975 34.0873 241.825V234.2H31.9373ZM41.5625 245V232.075H44.2375V234.575H44.2875C44.6125 233.2 46.3125 231.725 48.0625 231.725C48.7125 231.725 48.8875 231.775 49.1375 231.8V234.55C48.7375 234.5 48.3125 234.425 47.9125 234.425C45.9625 234.425 44.4125 236 44.4125 238.85V245H41.5625ZM50.4266 245V232.075H53.2766V245H50.4266ZM50.4266 229.85V227.15H53.2766V229.85H50.4266ZM56.3818 245V232.075H59.0818V233.875H59.1568C60.0068 232.6 61.0818 231.725 63.1318 231.725C64.7068 231.725 66.1818 232.4 66.7568 233.875C67.7068 232.55 68.9318 231.725 70.8068 231.725C73.5318 231.725 75.1318 232.925 75.1318 236.075V245H72.2818V237.45C72.2818 235.4 72.1568 233.975 69.9318 233.975C68.0068 233.975 67.1818 235.25 67.1818 237.425V245H64.3318V236.7C64.3318 234.925 63.7818 233.975 62.0568 233.975C60.5818 233.975 59.2318 235.175 59.2318 237.325V245H56.3818ZM84.0598 243.1C86.6098 243.1 87.7348 240.775 87.7348 238.525C87.7348 236.3 86.6098 233.975 84.0598 233.975C81.5098 233.975 80.3848 236.3 80.3848 238.525C80.3848 240.775 81.5098 243.1 84.0598 243.1ZM84.0598 245.35C79.9098 245.35 77.5348 242.5 77.5348 238.525C77.5348 234.575 79.9098 231.725 84.0598 231.725C88.2098 231.725 90.5848 234.575 90.5848 238.525C90.5848 242.5 88.2098 245.35 84.0598 245.35ZM84.0348 228.05L82.2848 230.3H79.9848L82.6598 226.725H85.4348L88.1348 230.3H85.8098L84.0348 228.05ZM92.9541 245V232.075H95.6541V233.975L95.7041 234.025C96.5541 232.6 98.0291 231.725 99.7291 231.725C102.529 231.725 104.304 233.225 104.304 236.125V245H101.454V236.875C101.404 234.85 100.604 233.975 98.9291 233.975C97.0291 233.975 95.8041 235.475 95.8041 237.375V245H92.9541ZM107.385 245V232.075H110.235V245H107.385ZM107.385 229.85V227.15H110.235V229.85H107.385ZM119.265 243.1C121.815 243.1 122.94 240.775 122.94 238.525C122.94 236.3 121.815 233.975 119.265 233.975C116.715 233.975 115.59 236.3 115.59 238.525C115.59 240.775 116.715 243.1 119.265 243.1ZM119.265 245.35C115.115 245.35 112.74 242.5 112.74 238.525C112.74 234.575 115.115 231.725 119.265 231.725C123.415 231.725 125.79 234.575 125.79 238.525C125.79 242.5 123.415 245.35 119.265 245.35ZM128.384 245V241.625H131.859V245C131.834 247.05 130.459 248.55 128.484 248.95V247.425C129.584 247.15 130.134 246.075 130.109 245H128.384ZM152.1 238.55C152.1 236.2 150.875 233.975 148.525 233.975C146.125 233.975 144.9 235.8 144.9 238.55C144.9 241.15 146.225 243.1 148.525 243.1C151.125 243.1 152.1 240.8 152.1 238.55ZM142.15 249.775V232.075H144.85V233.825H144.9C145.7 232.35 147.25 231.725 148.9 231.725C152.975 231.725 154.95 234.825 154.95 238.6C154.95 242.075 153.2 245.35 149.375 245.35C147.725 245.35 145.95 244.75 145.05 243.325H145V249.775H142.15ZM157.358 245V232.075H160.033V234.575H160.083C160.408 233.2 162.108 231.725 163.858 231.725C164.508 231.725 164.683 231.775 164.933 231.8V234.55C164.533 234.5 164.108 234.425 163.708 234.425C161.758 234.425 160.208 236 160.208 238.85V245H157.358ZM171.633 243.1C174.183 243.1 175.308 240.775 175.308 238.525C175.308 236.3 174.183 233.975 171.633 233.975C169.083 233.975 167.958 236.3 167.958 238.525C167.958 240.775 169.083 243.1 171.633 243.1ZM171.633 245.35C167.483 245.35 165.108 242.5 165.108 238.525C165.108 234.575 167.483 231.725 171.633 231.725C175.783 231.725 178.158 234.575 178.158 238.525C178.158 242.5 175.783 245.35 171.633 245.35ZM192.102 236.4H189.252C189.027 234.825 187.877 233.975 186.302 233.975C184.827 233.975 182.752 234.75 182.752 238.675C182.752 240.825 183.702 243.1 186.177 243.1C187.827 243.1 188.977 242 189.252 240.15H192.102C191.577 243.5 189.502 245.35 186.177 245.35C182.127 245.35 179.902 242.475 179.902 238.675C179.902 234.775 182.027 231.725 186.277 231.725C189.277 231.725 191.827 233.225 192.102 236.4ZM206.144 239.275H196.644C196.644 241.3 197.744 243.1 200.119 243.1C201.769 243.1 202.769 242.375 203.269 240.95H205.969C205.344 243.775 202.944 245.35 200.119 245.35C196.069 245.35 193.794 242.525 193.794 238.55C193.794 234.875 196.194 231.725 200.044 231.725C204.119 231.725 206.619 235.4 206.144 239.275ZM196.644 237.4H203.294C203.194 235.6 201.969 233.975 200.044 233.975C198.069 233.975 196.719 235.475 196.644 237.4ZM207.611 240.85H210.461C210.611 242.5 211.861 243.1 213.386 243.1C214.461 243.1 216.336 242.875 216.261 241.4C216.186 239.9 214.111 239.725 212.036 239.25C209.936 238.8 207.886 238.05 207.886 235.425C207.886 232.6 210.936 231.725 213.286 231.725C215.936 231.725 218.336 232.825 218.686 235.7H215.711C215.461 234.35 214.336 233.975 213.086 233.975C212.261 233.975 210.736 234.175 210.736 235.3C210.736 236.7 212.836 236.9 214.936 237.375C217.011 237.85 219.111 238.6 219.111 241.15C219.111 244.225 216.011 245.35 213.336 245.35C210.086 245.35 207.661 243.9 207.611 240.85ZM220.574 240.85H223.424C223.574 242.5 224.824 243.1 226.349 243.1C227.424 243.1 229.299 242.875 229.224 241.4C229.149 239.9 227.074 239.725 224.999 239.25C222.899 238.8 220.849 238.05 220.849 235.425C220.849 232.6 223.899 231.725 226.249 231.725C228.899 231.725 231.299 232.825 231.649 235.7H228.674C228.424 234.35 227.299 233.975 226.049 233.975C225.224 233.975 223.699 234.175 223.699 235.3C223.699 236.7 225.799 236.9 227.899 237.375C229.974 237.85 232.074 238.6 232.074 241.15C232.074 244.225 228.974 245.35 226.299 245.35C223.049 245.35 220.624 243.9 220.574 240.85ZM240.163 243.1C242.713 243.1 243.838 240.775 243.838 238.525C243.838 236.3 242.713 233.975 240.163 233.975C237.613 233.975 236.488 236.3 236.488 238.525C236.488 240.775 237.613 243.1 240.163 243.1ZM240.163 245.35C236.013 245.35 233.638 242.5 233.638 238.525C233.638 234.575 236.013 231.725 240.163 231.725C244.313 231.725 246.688 234.575 246.688 238.525C246.688 242.5 244.313 245.35 240.163 245.35ZM248.358 240.85H251.208C251.358 242.5 252.608 243.1 254.133 243.1C255.208 243.1 257.083 242.875 257.008 241.4C256.933 239.9 254.858 239.725 252.783 239.25C250.683 238.8 248.633 238.05 248.633 235.425C248.633 232.6 251.683 231.725 254.033 231.725C256.683 231.725 259.083 232.825 259.433 235.7H256.458C256.208 234.35 255.083 233.975 253.833 233.975C253.008 233.975 251.483 234.175 251.483 235.3C251.483 236.7 253.583 236.9 255.683 237.375C257.758 237.85 259.858 238.6 259.858 241.15C259.858 244.225 256.758 245.35 254.083 245.35C250.833 245.35 248.408 243.9 248.358 240.85ZM262.246 245V241.625H265.721V245H262.246ZM5.5001 259.7V272.45H8.5751C13.4751 272.45 14.5251 269.65 14.5251 266.075C14.5251 262.5 13.4751 259.7 8.5751 259.7H5.5001ZM2.3751 275V257.15H9.7751C15.2751 257.15 17.6501 261.15 17.6501 266.075C17.6501 271 15.2751 275 9.7751 275H2.3751ZM27.9921 270.65V268.525C27.1171 269.1 25.7421 269.075 24.4921 269.3C23.2671 269.5 22.1671 269.95 22.1671 271.45C22.1671 272.725 23.7921 273.1 24.7921 273.1C26.0421 273.1 27.9921 272.45 27.9921 270.65ZM30.8421 265.475V272.125C30.8421 272.825 30.9921 273.1 31.5171 273.1C31.6921 273.1 31.9171 273.1 32.2171 273.05V275.025C31.7921 275.175 30.8921 275.35 30.4171 275.35C29.2671 275.35 28.4421 274.95 28.2171 273.775C27.0921 274.875 25.2671 275.35 23.7421 275.35C21.4171 275.35 19.3171 274.1 19.3171 271.575C19.3171 268.35 21.8921 267.825 24.2921 267.55C26.3421 267.175 28.1671 267.4 28.1671 265.725C28.1671 264.25 26.6421 263.975 25.4921 263.975C23.8921 263.975 22.7671 264.625 22.6421 266.025H19.7921C19.9921 262.7 22.8171 261.725 25.6671 261.725C28.1921 261.725 30.8421 262.75 30.8421 265.475ZM36.1337 268.675C36.1337 270.9 37.2337 273.1 39.7087 273.1C42.2587 273.1 43.3337 270.775 43.3337 268.525C43.3337 265.675 41.9587 263.975 39.7587 263.975C37.0837 263.975 36.1337 266.35 36.1337 268.675ZM46.0837 257.15V275H43.3837V273.25H43.3337C42.5837 274.725 40.9587 275.35 39.3337 275.35C35.2587 275.35 33.2837 272.325 33.2837 268.45C33.2837 263.775 36.0587 261.725 38.8837 261.725C40.5087 261.725 42.3087 262.325 43.1837 263.75H43.2337V257.15H46.0837ZM55.1169 273.1C57.6669 273.1 58.7919 270.775 58.7919 268.525C58.7919 266.3 57.6669 263.975 55.1169 263.975C52.5669 263.975 51.4419 266.3 51.4419 268.525C51.4419 270.775 52.5669 273.1 55.1169 273.1ZM55.1169 275.35C50.9669 275.35 48.5919 272.5 48.5919 268.525C48.5919 264.575 50.9669 261.725 55.1169 261.725C59.2669 261.725 61.6419 264.575 61.6419 268.525C61.6419 272.5 59.2669 275.35 55.1169 275.35ZM63.3112 270.85H66.1612C66.3112 272.5 67.5612 273.1 69.0862 273.1C70.1612 273.1 72.0362 272.875 71.9612 271.4C71.8862 269.9 69.8112 269.725 67.7362 269.25C65.6362 268.8 63.5862 268.05 63.5862 265.425C63.5862 262.6 66.6362 261.725 68.9862 261.725C71.6362 261.725 74.0362 262.825 74.3862 265.7H71.4112C71.1612 264.35 70.0362 263.975 68.7862 263.975C67.9612 263.975 66.4362 264.175 66.4362 265.3C66.4362 266.7 68.5362 266.9 70.6362 267.375C72.7112 267.85 74.8112 268.6 74.8112 271.15C74.8112 274.225 71.7112 275.35 69.0362 275.35C65.7862 275.35 63.3612 273.9 63.3112 270.85ZM93.9581 268.55C93.9581 266.2 92.7331 263.975 90.3831 263.975C87.9831 263.975 86.7581 265.8 86.7581 268.55C86.7581 271.15 88.0831 273.1 90.3831 273.1C92.9831 273.1 93.9581 270.8 93.9581 268.55ZM84.0081 279.775V262.075H86.7081V263.825H86.7581C87.5581 262.35 89.1081 261.725 90.7581 261.725C94.8331 261.725 96.8081 264.825 96.8081 268.6C96.8081 272.075 95.0581 275.35 91.2331 275.35C89.5831 275.35 87.8081 274.75 86.9081 273.325H86.8581V279.775H84.0081ZM110.566 262.075V275H107.766V273.2H107.716C107.016 274.5 105.466 275.35 104.041 275.35C100.666 275.35 99.2163 273.65 99.2163 270.275V262.075H102.066V270C102.066 272.275 102.991 273.1 104.541 273.1C106.916 273.1 107.716 271.575 107.716 269.575V262.075H110.566ZM103.016 260.3L105.266 256.725H108.641L105.091 260.3H103.016ZM123.597 268.55C123.597 266.2 122.372 263.975 120.022 263.975C117.622 263.975 116.397 265.8 116.397 268.55C116.397 271.15 117.722 273.1 120.022 273.1C122.622 273.1 123.597 270.8 123.597 268.55ZM113.647 275V257.15H116.497V263.75H116.547C117.322 262.5 118.947 261.725 120.397 261.725C124.472 261.725 126.447 264.825 126.447 268.6C126.447 272.075 124.697 275.35 120.872 275.35C119.122 275.35 117.247 274.925 116.397 273.225H116.347V275H113.647ZM128.93 275V257.15H131.78V275H128.93ZM134.96 275V262.075H137.81V275H134.96ZM134.96 259.85V257.15H137.81V259.85H134.96ZM152.491 266.4H149.641C149.416 264.825 148.266 263.975 146.691 263.975C145.216 263.975 143.141 264.75 143.141 268.675C143.141 270.825 144.091 273.1 146.566 273.1C148.216 273.1 149.366 272 149.641 270.15H152.491C151.966 273.5 149.891 275.35 146.566 275.35C142.516 275.35 140.291 272.475 140.291 268.675C140.291 264.775 142.416 261.725 146.666 261.725C149.666 261.725 152.216 263.225 152.491 266.4ZM160.732 273.1C163.282 273.1 164.407 270.775 164.407 268.525C164.407 266.3 163.282 263.975 160.732 263.975C158.182 263.975 157.057 266.3 157.057 268.525C157.057 270.775 158.182 273.1 160.732 273.1ZM160.732 275.35C156.582 275.35 154.207 272.5 154.207 268.525C154.207 264.575 156.582 261.725 160.732 261.725C164.882 261.725 167.257 264.575 167.257 268.525C167.257 272.5 164.882 275.35 160.732 275.35ZM168.926 270.85H171.776C171.926 272.5 173.176 273.1 174.701 273.1C175.776 273.1 177.651 272.875 177.576 271.4C177.501 269.9 175.426 269.725 173.351 269.25C171.251 268.8 169.201 268.05 169.201 265.425C169.201 262.6 172.251 261.725 174.601 261.725C177.251 261.725 179.651 262.825 180.001 265.7H177.026C176.776 264.35 175.651 263.975 174.401 263.975C173.576 263.975 172.051 264.175 172.051 265.3C172.051 266.7 174.151 266.9 176.251 267.375C178.326 267.85 180.426 268.6 180.426 271.15C180.426 274.225 177.326 275.35 174.651 275.35C171.401 275.35 168.976 273.9 168.926 270.85ZM195.473 273.1C198.023 273.1 199.148 270.775 199.148 268.525C199.148 266.3 198.023 263.975 195.473 263.975C192.923 263.975 191.798 266.3 191.798 268.525C191.798 270.775 192.923 273.1 195.473 273.1ZM195.473 275.35C191.323 275.35 188.948 272.5 188.948 268.525C188.948 264.575 191.323 261.725 195.473 261.725C199.623 261.725 201.998 264.575 201.998 268.525C201.998 272.5 199.623 275.35 195.473 275.35ZM212.318 275V262.075H215.168V275H212.318ZM203.093 264.2V262.075H205.218V261C205.218 257.7 206.943 257.15 208.793 257.15C209.693 257.15 210.343 257.2 210.793 257.325V259.55C210.418 259.45 210.043 259.4 209.468 259.4C208.693 259.4 208.068 259.675 208.068 260.75V262.075H210.493V264.2H208.068V275H205.218V264.2H203.093ZM212.318 259.85V257.15H215.168V259.85H212.318ZM229.834 266.4H226.984C226.759 264.825 225.609 263.975 224.034 263.975C222.559 263.975 220.484 264.75 220.484 268.675C220.484 270.825 221.434 273.1 223.909 273.1C225.559 273.1 226.709 272 226.984 270.15H229.834C229.309 273.5 227.234 275.35 223.909 275.35C219.859 275.35 217.634 272.475 217.634 268.675C217.634 264.775 219.759 261.725 224.009 261.725C227.009 261.725 229.559 263.225 229.834 266.4ZM232.226 275V262.075H235.076V275H232.226ZM232.226 259.85V257.15H235.076V259.85H232.226ZM246.156 270.65V268.525C245.281 269.1 243.906 269.075 242.656 269.3C241.431 269.5 240.331 269.95 240.331 271.45C240.331 272.725 241.956 273.1 242.956 273.1C244.206 273.1 246.156 272.45 246.156 270.65ZM249.006 265.475V272.125C249.006 272.825 249.156 273.1 249.681 273.1C249.856 273.1 250.081 273.1 250.381 273.05V275.025C249.956 275.175 249.056 275.35 248.581 275.35C247.431 275.35 246.606 274.95 246.381 273.775C245.256 274.875 243.431 275.35 241.906 275.35C239.581 275.35 237.481 274.1 237.481 271.575C237.481 268.35 240.056 267.825 242.456 267.55C244.506 267.175 246.331 267.4 246.331 265.725C246.331 264.25 244.806 263.975 243.656 263.975C242.056 263.975 240.931 264.625 240.806 266.025H237.956C238.156 262.7 240.981 261.725 243.831 261.725C246.356 261.725 249.006 262.75 249.006 265.475ZM252.148 275V262.075H254.998V275H252.148ZM252.148 259.85V257.15H254.998V259.85H252.148ZM257.403 270.85H260.253C260.403 272.5 261.653 273.1 263.178 273.1C264.253 273.1 266.128 272.875 266.053 271.4C265.978 269.9 263.903 269.725 261.828 269.25C259.728 268.8 257.678 268.05 257.678 265.425C257.678 262.6 260.728 261.725 263.078 261.725C265.728 261.725 268.128 262.825 268.478 265.7H265.503C265.253 264.35 264.128 263.975 262.878 263.975C262.053 263.975 260.528 264.175 260.528 265.3C260.528 266.7 262.628 266.9 264.728 267.375C266.803 267.85 268.903 268.6 268.903 271.15C268.903 274.225 265.803 275.35 263.128 275.35C259.878 275.35 257.453 273.9 257.403 270.85ZM40.8911 305V292.075H43.5911V293.975L43.6411 294.025C44.4911 292.6 45.9661 291.725 47.6661 291.725C50.4661 291.725 52.2411 293.225 52.2411 296.125V305H49.3911V296.875C49.3411 294.85 48.5411 293.975 46.8661 293.975C44.9661 293.975 43.7411 295.475 43.7411 297.375V305H40.8911ZM66.5966 292.075V305H63.7966V303.2H63.7466C63.0466 304.5 61.4966 305.35 60.0716 305.35C56.6966 305.35 55.2466 303.65 55.2466 300.275V292.075H58.0966V300C58.0966 302.275 59.0216 303.1 60.5716 303.1C62.9466 303.1 63.7466 301.575 63.7466 299.575V292.075H66.5966ZM69.6021 305V292.075H72.3021V293.875H72.3771C73.2271 292.6 74.3021 291.725 76.3521 291.725C77.9271 291.725 79.4021 292.4 79.9771 293.875C80.9271 292.55 82.1521 291.725 84.0271 291.725C86.7521 291.725 88.3521 292.925 88.3521 296.075V305H85.5021V297.45C85.5021 295.4 85.3771 293.975 83.1521 293.975C81.2271 293.975 80.4021 295.25 80.4021 297.425V305H77.5521V296.7C77.5521 294.925 77.0021 293.975 75.2771 293.975C73.8021 293.975 72.4521 295.175 72.4521 297.325V305H69.6021ZM99.33 300.65V298.525C98.455 299.1 97.08 299.075 95.83 299.3C94.605 299.5 93.505 299.95 93.505 301.45C93.505 302.725 95.13 303.1 96.13 303.1C97.38 303.1 99.33 302.45 99.33 300.65ZM102.18 295.475V302.125C102.18 302.825 102.33 303.1 102.855 303.1C103.03 303.1 103.255 303.1 103.555 303.05V305.025C103.13 305.175 102.23 305.35 101.755 305.35C100.605 305.35 99.78 304.95 99.555 303.775C98.43 304.875 96.605 305.35 95.08 305.35C92.755 305.35 90.655 304.1 90.655 301.575C90.655 298.35 93.23 297.825 95.63 297.55C97.68 297.175 99.505 297.4 99.505 295.725C99.505 294.25 97.98 293.975 96.83 293.975C95.23 293.975 94.105 294.625 93.98 296.025H91.13C91.33 292.7 94.155 291.725 97.005 291.725C99.53 291.725 102.18 292.75 102.18 295.475ZM112.28 305V287.15H115.13V305H112.28ZM118.31 305V292.075H121.16V305H118.31ZM118.31 289.85V287.15H121.16V289.85H118.31ZM124.265 305V292.075H126.965V293.975L127.015 294.025C127.865 292.6 129.34 291.725 131.04 291.725C133.84 291.725 135.615 293.225 135.615 296.125V305H132.765V296.875C132.715 294.85 131.915 293.975 130.24 293.975C128.34 293.975 127.115 295.475 127.115 297.375V305H124.265ZM144.246 302.75C146.771 302.75 147.721 300.45 147.721 298.25C147.721 296.025 146.721 293.975 144.246 293.975C141.721 293.975 140.846 296.325 140.846 298.475C140.846 300.6 141.871 302.75 144.246 302.75ZM150.571 292.075V304.325C150.571 308.2 148.296 310.125 144.221 310.125C141.621 310.125 138.696 309.125 138.446 306.1H141.296C141.646 307.725 142.946 308 144.396 308C146.696 308 147.721 306.825 147.721 304.7V302.725H147.671C146.871 304.15 145.396 305 143.796 305C139.696 305 137.996 301.9 137.996 298.2C137.996 294.725 140.171 291.725 143.846 291.725C145.471 291.725 146.946 292.4 147.671 293.85H147.721V292.075H150.571ZM164.79 292.075V305H161.99V303.2H161.94C161.24 304.5 159.69 305.35 158.265 305.35C154.89 305.35 153.44 303.65 153.44 300.275V292.075H156.29V300C156.29 302.275 157.215 303.1 158.765 303.1C161.14 303.1 161.94 301.575 161.94 299.575V292.075H164.79ZM175.77 300.65V298.525C174.895 299.1 173.52 299.075 172.27 299.3C171.045 299.5 169.945 299.95 169.945 301.45C169.945 302.725 171.57 303.1 172.57 303.1C173.82 303.1 175.77 302.45 175.77 300.65ZM178.62 295.475V302.125C178.62 302.825 178.77 303.1 179.295 303.1C179.47 303.1 179.695 303.1 179.995 303.05V305.025C179.57 305.175 178.67 305.35 178.195 305.35C177.045 305.35 176.22 304.95 175.995 303.775C174.87 304.875 173.045 305.35 171.52 305.35C169.195 305.35 167.095 304.1 167.095 301.575C167.095 298.35 169.67 297.825 172.07 297.55C174.12 297.175 175.945 297.4 175.945 295.725C175.945 294.25 174.42 293.975 173.27 293.975C171.67 293.975 170.545 294.625 170.42 296.025H167.57C167.77 292.7 170.595 291.725 173.445 291.725C175.97 291.725 178.62 292.75 178.62 295.475ZM187.312 302.75C189.837 302.75 190.787 300.45 190.787 298.25C190.787 296.025 189.787 293.975 187.312 293.975C184.787 293.975 183.912 296.325 183.912 298.475C183.912 300.6 184.937 302.75 187.312 302.75ZM193.637 292.075V304.325C193.637 308.2 191.362 310.125 187.287 310.125C184.687 310.125 181.762 309.125 181.512 306.1H184.362C184.712 307.725 186.012 308 187.462 308C189.762 308 190.787 306.825 190.787 304.7V302.725H190.737C189.937 304.15 188.462 305 186.862 305C182.762 305 181.062 301.9 181.062 298.2C181.062 294.725 183.237 291.725 186.912 291.725C188.537 291.725 190.012 292.4 190.737 293.85H190.787V292.075H193.637ZM208.231 299.275H198.731C198.731 301.3 199.831 303.1 202.206 303.1C203.856 303.1 204.856 302.375 205.356 300.95H208.056C207.431 303.775 205.031 305.35 202.206 305.35C198.156 305.35 195.881 302.525 195.881 298.55C195.881 294.875 198.281 291.725 202.131 291.725C206.206 291.725 208.706 295.4 208.231 299.275ZM198.731 297.4H205.381C205.281 295.6 204.056 293.975 202.131 293.975C200.156 293.975 198.806 295.475 198.731 297.4ZM210.398 305V292.075H213.098V293.875H213.173C214.023 292.6 215.098 291.725 217.148 291.725C218.723 291.725 220.198 292.4 220.773 293.875C221.723 292.55 222.948 291.725 224.823 291.725C227.548 291.725 229.148 292.925 229.148 296.075V305H226.298V297.45C226.298 295.4 226.173 293.975 223.948 293.975C222.023 293.975 221.198 295.25 221.198 297.425V305H218.348V296.7C218.348 294.925 217.798 293.975 216.073 293.975C214.598 293.975 213.248 295.175 213.248 297.325V305H210.398ZM35.2426 328.55C35.2426 330.8 36.2176 333.1 38.8176 333.1C41.2926 333.1 42.4426 331.25 42.4426 328.55C42.4426 325.75 41.1926 323.975 38.8176 323.975C36.4676 323.975 35.2426 326.2 35.2426 328.55ZM45.1926 322.075V339.775H42.3426V333.325H42.2926C41.3926 334.75 39.6176 335.35 37.9676 335.35C34.1426 335.35 32.3926 332.075 32.3926 328.6C32.3926 324.825 34.3676 321.725 38.4426 321.725C40.0926 321.725 41.6426 322.35 42.4426 323.825H42.4926V322.075H45.1926ZM59.6508 322.075V335H56.8508V333.2H56.8008C56.1008 334.5 54.5508 335.35 53.1258 335.35C49.7508 335.35 48.3008 333.65 48.3008 330.275V322.075H51.1508V330C51.1508 332.275 52.0758 333.1 53.6258 333.1C56.0008 333.1 56.8008 331.575 56.8008 329.575V322.075H59.6508ZM74.3813 329.275H64.8813C64.8813 331.3 65.9813 333.1 68.3563 333.1C70.0063 333.1 71.0063 332.375 71.5063 330.95H74.2063C73.5813 333.775 71.1813 335.35 68.3563 335.35C64.3063 335.35 62.0313 332.525 62.0313 328.55C62.0313 324.875 64.4313 321.725 68.2813 321.725C72.3563 321.725 74.8563 325.4 74.3813 329.275ZM64.8813 327.4H71.5313C71.4313 325.6 70.2063 323.975 68.2813 323.975C66.3063 323.975 64.9563 325.475 64.8813 327.4ZM86.9309 335L82.2309 322.075H85.3309L88.6059 332H88.6559L91.8059 322.075H94.7559L90.1309 335H86.9309ZM102.395 333.1C104.945 333.1 106.07 330.775 106.07 328.525C106.07 326.3 104.945 323.975 102.395 323.975C99.8447 323.975 98.7197 326.3 98.7197 328.525C98.7197 330.775 99.8447 333.1 102.395 333.1ZM102.395 335.35C98.2447 335.35 95.8697 332.5 95.8697 328.525C95.8697 324.575 98.2447 321.725 102.395 321.725C106.545 321.725 108.92 324.575 108.92 328.525C108.92 332.5 106.545 335.35 102.395 335.35ZM122.864 326.4H120.014C119.789 324.825 118.639 323.975 117.064 323.975C115.589 323.975 113.514 324.75 113.514 328.675C113.514 330.825 114.464 333.1 116.939 333.1C118.589 333.1 119.739 332 120.014 330.15H122.864C122.339 333.5 120.264 335.35 116.939 335.35C112.889 335.35 110.664 332.475 110.664 328.675C110.664 324.775 112.789 321.725 117.039 321.725C120.039 321.725 122.589 323.225 122.864 326.4ZM136.906 329.275H127.406C127.406 331.3 128.506 333.1 130.881 333.1C132.531 333.1 133.531 332.375 134.031 330.95H136.731C136.106 333.775 133.706 335.35 130.881 335.35C126.831 335.35 124.556 332.525 124.556 328.55C124.556 324.875 126.956 321.725 130.806 321.725C134.881 321.725 137.381 325.4 136.906 329.275ZM127.406 327.4H134.056C133.956 325.6 132.731 323.975 130.806 323.975C128.831 323.975 127.481 325.475 127.406 327.4ZM130.631 318.05L128.881 320.3H126.581L129.256 316.725H132.031L134.731 320.3H132.406L130.631 318.05ZM157.755 329.275H148.255C148.255 331.3 149.355 333.1 151.73 333.1C153.38 333.1 154.38 332.375 154.88 330.95H157.58C156.955 333.775 154.555 335.35 151.73 335.35C147.68 335.35 145.405 332.525 145.405 328.55C145.405 324.875 147.805 321.725 151.655 321.725C155.73 321.725 158.23 325.4 157.755 329.275ZM148.255 327.4H154.905C154.805 325.6 153.58 323.975 151.655 323.975C149.68 323.975 148.33 325.475 148.255 327.4ZM159.922 335V322.075H162.622V323.975L162.672 324.025C163.522 322.6 164.997 321.725 166.697 321.725C169.497 321.725 171.272 323.225 171.272 326.125V335H168.422V326.875C168.372 324.85 167.572 323.975 165.897 323.975C163.997 323.975 162.772 325.475 162.772 327.375V335H159.922ZM172.977 324.2V322.075H175.127V318.2H177.977V322.075H180.552V324.2H177.977V331.1C177.977 332.275 178.077 332.875 179.352 332.875C179.752 332.875 180.152 332.875 180.552 332.775V334.975C179.927 335.025 179.327 335.125 178.702 335.125C175.727 335.125 175.177 333.975 175.127 331.825V324.2H172.977ZM194.328 329.275H184.828C184.828 331.3 185.928 333.1 188.303 333.1C189.953 333.1 190.953 332.375 191.453 330.95H194.153C193.528 333.775 191.128 335.35 188.303 335.35C184.253 335.35 181.978 332.525 181.978 328.55C181.978 324.875 184.378 321.725 188.228 321.725C192.303 321.725 194.803 325.4 194.328 329.275ZM184.828 327.4H191.478C191.378 325.6 190.153 323.975 188.228 323.975C186.253 323.975 184.903 325.475 184.828 327.4ZM196.494 335V322.075H199.194V323.975L199.244 324.025C200.094 322.6 201.569 321.725 203.269 321.725C206.069 321.725 207.844 323.225 207.844 326.125V335H204.994V326.875C204.944 324.85 204.144 323.975 202.469 323.975C200.569 323.975 199.344 325.475 199.344 327.375V335H196.494ZM213.075 328.675C213.075 330.9 214.175 333.1 216.65 333.1C219.2 333.1 220.275 330.775 220.275 328.525C220.275 325.675 218.9 323.975 216.7 323.975C214.025 323.975 213.075 326.35 213.075 328.675ZM223.025 317.15V335H220.325V333.25H220.275C219.525 334.725 217.9 335.35 216.275 335.35C212.2 335.35 210.225 332.325 210.225 328.45C210.225 323.775 213 321.725 215.825 321.725C217.45 321.725 219.25 322.325 220.125 323.75H220.175V317.15H223.025ZM237.858 329.275H228.358C228.358 331.3 229.458 333.1 231.833 333.1C233.483 333.1 234.483 332.375 234.983 330.95H237.683C237.058 333.775 234.658 335.35 231.833 335.35C227.783 335.35 225.508 332.525 225.508 328.55C225.508 324.875 227.908 321.725 231.758 321.725C235.833 321.725 238.333 325.4 237.858 329.275ZM228.358 327.4H235.008C234.908 325.6 233.683 323.975 231.758 323.975C229.783 323.975 228.433 325.475 228.358 327.4ZM240.249 335V331.625H243.724V335H240.249Z" fill="#0E0AA5"/>
<path d="M32.5997 4.7V10.6H37.1747C38.5747 10.6 40.2997 9.9 40.2997 7.65C40.2997 5.3 38.8747 4.7 37.2247 4.7H32.5997ZM29.4747 20V2.15H37.3497C42.4497 2.15 43.4247 5.45 43.4247 7.675C43.4247 9.875 42.4497 13.175 37.3497 13.15H32.5997V20H29.4747ZM57.4745 14.275H47.9745C47.9745 16.3 49.0745 18.1 51.4495 18.1C53.0995 18.1 54.0995 17.375 54.5995 15.95H57.2995C56.6745 18.775 54.2745 20.35 51.4495 20.35C47.3995 20.35 45.1245 17.525 45.1245 13.55C45.1245 9.875 47.5245 6.725 51.3745 6.725C55.4495 6.725 57.9495 10.4 57.4745 14.275ZM47.9745 12.4H54.6245C54.5245 10.6 53.2995 8.975 51.3745 8.975C49.3995 8.975 48.0495 10.475 47.9745 12.4ZM58.9411 15.85H61.7911C61.9411 17.5 63.1911 18.1 64.7161 18.1C65.7911 18.1 67.6661 17.875 67.5911 16.4C67.5161 14.9 65.4411 14.725 63.3661 14.25C61.2661 13.8 59.2161 13.05 59.2161 10.425C59.2161 7.6 62.2661 6.725 64.6161 6.725C67.2661 6.725 69.6661 7.825 70.0161 10.7H67.0411C66.7911 9.35 65.6661 8.975 64.4161 8.975C63.5911 8.975 62.0661 9.175 62.0661 10.3C62.0661 11.7 64.1661 11.9 66.2661 12.375C68.3411 12.85 70.4411 13.6 70.4411 16.15C70.4411 19.225 67.3411 20.35 64.6661 20.35C61.4161 20.35 58.9911 18.9 58.9411 15.85ZM74.83 13.55C74.83 15.8 75.805 18.1 78.405 18.1C80.88 18.1 82.03 16.25 82.03 13.55C82.03 10.75 80.78 8.975 78.405 8.975C76.055 8.975 74.83 11.2 74.83 13.55ZM84.78 7.075V24.775H81.93V18.325H81.88C80.98 19.75 79.205 20.35 77.555 20.35C73.73 20.35 71.98 17.075 71.98 13.6C71.98 9.825 73.955 6.725 78.03 6.725C79.68 6.725 81.23 7.35 82.03 8.825H82.08V7.075H84.78ZM99.2382 7.075V20H96.4382V18.2H96.3882C95.6882 19.5 94.1382 20.35 92.7132 20.35C89.3382 20.35 87.8882 18.65 87.8882 15.275V7.075H90.7382V15C90.7382 17.275 91.6632 18.1 93.2132 18.1C95.5882 18.1 96.3882 16.575 96.3882 14.575V7.075H99.2382ZM102.319 20V7.075H105.169V20H102.319ZM102.319 4.85V2.15H105.169V4.85H102.319ZM107.574 15.85H110.424C110.574 17.5 111.824 18.1 113.349 18.1C114.424 18.1 116.299 17.875 116.224 16.4C116.149 14.9 114.074 14.725 111.999 14.25C109.899 13.8 107.849 13.05 107.849 10.425C107.849 7.6 110.899 6.725 113.249 6.725C115.899 6.725 118.299 7.825 118.649 10.7H115.674C115.424 9.35 114.299 8.975 113.049 8.975C112.224 8.975 110.699 9.175 110.699 10.3C110.699 11.7 112.799 11.9 114.899 12.375C116.974 12.85 119.074 13.6 119.074 16.15C119.074 19.225 115.974 20.35 113.299 20.35C110.049 20.35 107.624 18.9 107.574 15.85ZM132.963 14.275H123.463C123.463 16.3 124.563 18.1 126.938 18.1C128.588 18.1 129.588 17.375 130.088 15.95H132.788C132.163 18.775 129.763 20.35 126.938 20.35C122.888 20.35 120.613 17.525 120.613 13.55C120.613 9.875 123.013 6.725 126.863 6.725C130.938 6.725 133.438 10.4 132.963 14.275ZM123.463 12.4H130.113C130.013 10.6 128.788 8.975 126.863 8.975C124.888 8.975 123.538 10.475 123.463 12.4ZM144.312 13.55C144.312 15.8 145.287 18.1 147.887 18.1C150.362 18.1 151.512 16.25 151.512 13.55C151.512 10.75 150.262 8.975 147.887 8.975C145.537 8.975 144.312 11.2 144.312 13.55ZM154.262 7.075V24.775H151.412V18.325H151.362C150.462 19.75 148.687 20.35 147.037 20.35C143.212 20.35 141.462 17.075 141.462 13.6C141.462 9.825 143.437 6.725 147.512 6.725C149.162 6.725 150.712 7.35 151.512 8.825H151.562V7.075H154.262ZM168.721 7.075V20H165.921V18.2H165.871C165.171 19.5 163.621 20.35 162.196 20.35C158.821 20.35 157.371 18.65 157.371 15.275V7.075H160.221V15C160.221 17.275 161.146 18.1 162.696 18.1C165.071 18.1 165.871 16.575 165.871 14.575V7.075H168.721ZM179.701 15.65V13.525C178.826 14.1 177.451 14.075 176.201 14.3C174.976 14.5 173.876 14.95 173.876 16.45C173.876 17.725 175.501 18.1 176.501 18.1C177.751 18.1 179.701 17.45 179.701 15.65ZM182.551 10.475V17.125C182.551 17.825 182.701 18.1 183.226 18.1C183.401 18.1 183.626 18.1 183.926 18.05V20.025C183.501 20.175 182.601 20.35 182.126 20.35C180.976 20.35 180.151 19.95 179.926 18.775C178.801 19.875 176.976 20.35 175.451 20.35C173.126 20.35 171.026 19.1 171.026 16.575C171.026 13.35 173.601 12.825 176.001 12.55C178.051 12.175 179.876 12.4 179.876 10.725C179.876 9.25 178.351 8.975 177.201 8.975C175.601 8.975 174.476 9.625 174.351 11.025H171.501C171.701 7.7 174.526 6.725 177.376 6.725C179.901 6.725 182.551 7.75 182.551 10.475ZM185.693 20V2.15H188.543V20H185.693ZM193.873 13.55C193.873 15.8 194.848 18.1 197.448 18.1C199.923 18.1 201.073 16.25 201.073 13.55C201.073 10.75 199.823 8.975 197.448 8.975C195.098 8.975 193.873 11.2 193.873 13.55ZM203.823 7.075V24.775H200.973V18.325H200.923C200.023 19.75 198.248 20.35 196.598 20.35C192.773 20.35 191.023 17.075 191.023 13.6C191.023 9.825 192.998 6.725 197.073 6.725C198.723 6.725 200.273 7.35 201.073 8.825H201.123V7.075H203.823ZM218.281 7.075V20H215.481V18.2H215.431C214.731 19.5 213.181 20.35 211.756 20.35C208.381 20.35 206.931 18.65 206.931 15.275V7.075H209.781V15C209.781 17.275 210.706 18.1 212.256 18.1C214.631 18.1 215.431 16.575 215.431 14.575V7.075H218.281ZM233.012 14.275H223.512C223.512 16.3 224.612 18.1 226.987 18.1C228.637 18.1 229.637 17.375 230.137 15.95H232.837C232.212 18.775 229.812 20.35 226.987 20.35C222.937 20.35 220.662 17.525 220.662 13.55C220.662 9.875 223.062 6.725 226.912 6.725C230.987 6.725 233.487 10.4 233.012 14.275ZM223.512 12.4H230.162C230.062 10.6 228.837 8.975 226.912 8.975C224.937 8.975 223.587 10.475 223.512 12.4ZM235.178 20V7.075H237.853V9.575H237.903C238.228 8.2 239.928 6.725 241.678 6.725C242.328 6.725 242.503 6.775 242.753 6.8V9.55C242.353 9.5 241.928 9.425 241.528 9.425C239.578 9.425 238.028 11 238.028 13.85V20H235.178ZM18.9581 43.55C18.9581 41.2 17.7331 38.975 15.3831 38.975C12.9831 38.975 11.7581 40.8 11.7581 43.55C11.7581 46.15 13.0831 48.1 15.3831 48.1C17.9831 48.1 18.9581 45.8 18.9581 43.55ZM9.00811 54.775V37.075H11.7081V38.825H11.7581C12.5581 37.35 14.1081 36.725 15.7581 36.725C19.8331 36.725 21.8081 39.825 21.8081 43.6C21.8081 47.075 20.0581 50.35 16.2331 50.35C14.5831 50.35 12.8081 49.75 11.9081 48.325H11.8581V54.775H9.00811ZM32.1913 45.65V43.525C31.3163 44.1 29.9413 44.075 28.6913 44.3C27.4663 44.5 26.3663 44.95 26.3663 46.45C26.3663 47.725 27.9913 48.1 28.9913 48.1C30.2413 48.1 32.1913 47.45 32.1913 45.65ZM35.0413 40.475V47.125C35.0413 47.825 35.1913 48.1 35.7163 48.1C35.8913 48.1 36.1163 48.1 36.4163 48.05V50.025C35.9913 50.175 35.0913 50.35 34.6163 50.35C33.4663 50.35 32.6413 49.95 32.4163 48.775C31.2913 49.875 29.4663 50.35 27.9413 50.35C25.6163 50.35 23.5163 49.1 23.5163 46.575C23.5163 43.35 26.0913 42.825 28.4913 42.55C30.5413 42.175 32.3663 42.4 32.3663 40.725C32.3663 39.25 30.8413 38.975 29.6913 38.975C28.0913 38.975 26.9663 39.625 26.8413 41.025H23.9913C24.1913 37.7 27.0163 36.725 29.8663 36.725C32.3913 36.725 35.0413 37.75 35.0413 40.475ZM38.1079 50V37.075H40.7829V39.575H40.8329C41.1579 38.2 42.8579 36.725 44.6079 36.725C45.2579 36.725 45.4329 36.775 45.6829 36.8V39.55C45.2829 39.5 44.8579 39.425 44.4579 39.425C42.5079 39.425 40.9579 41 40.9579 43.85V50H38.1079ZM46.972 50V32.15H49.822V50H46.972ZM60.9022 45.65V43.525C60.0272 44.1 58.6522 44.075 57.4022 44.3C56.1772 44.5 55.0772 44.95 55.0772 46.45C55.0772 47.725 56.7022 48.1 57.7022 48.1C58.9522 48.1 60.9022 47.45 60.9022 45.65ZM63.7522 40.475V47.125C63.7522 47.825 63.9022 48.1 64.4272 48.1C64.6022 48.1 64.8272 48.1 65.1272 48.05V50.025C64.7022 50.175 63.8022 50.35 63.3272 50.35C62.1772 50.35 61.3522 49.95 61.1272 48.775C60.0022 49.875 58.1772 50.35 56.6522 50.35C54.3272 50.35 52.2272 49.1 52.2272 46.575C52.2272 43.35 54.8022 42.825 57.2022 42.55C59.2522 42.175 61.0772 42.4 61.0772 40.725C61.0772 39.25 59.5522 38.975 58.4022 38.975C56.8022 38.975 55.6772 39.625 55.5522 41.025H52.7022C52.9022 37.7 55.7272 36.725 58.5772 36.725C61.1022 36.725 63.7522 37.75 63.7522 40.475ZM66.8188 50V37.075H69.5188V38.875H69.5938C70.4438 37.6 71.5188 36.725 73.5688 36.725C75.1438 36.725 76.6188 37.4 77.1938 38.875C78.1438 37.55 79.3688 36.725 81.2438 36.725C83.9688 36.725 85.5688 37.925 85.5688 41.075V50H82.7188V42.45C82.7188 40.4 82.5938 38.975 80.3688 38.975C78.4438 38.975 77.6188 40.25 77.6188 42.425V50H74.7688V41.7C74.7688 39.925 74.2188 38.975 72.4938 38.975C71.0188 38.975 69.6688 40.175 69.6688 42.325V50H66.8188ZM100.297 44.275H90.7968C90.7968 46.3 91.8968 48.1 94.2718 48.1C95.9218 48.1 96.9218 47.375 97.4218 45.95H100.122C99.4968 48.775 97.0968 50.35 94.2718 50.35C90.2218 50.35 87.9468 47.525 87.9468 43.55C87.9468 39.875 90.3468 36.725 94.1968 36.725C98.2718 36.725 100.772 40.4 100.297 44.275ZM90.7968 42.4H97.4468C97.3468 40.6 96.1218 38.975 94.1968 38.975C92.2218 38.975 90.8718 40.475 90.7968 42.4ZM102.463 50V37.075H105.163V38.975L105.213 39.025C106.063 37.6 107.538 36.725 109.238 36.725C112.038 36.725 113.813 38.225 113.813 41.125V50H110.963V41.875C110.913 39.85 110.113 38.975 108.438 38.975C106.538 38.975 105.313 40.475 105.313 42.375V50H102.463ZM115.519 39.2V37.075H117.669V33.2H120.519V37.075H123.094V39.2H120.519V46.1C120.519 47.275 120.619 47.875 121.894 47.875C122.294 47.875 122.694 47.875 123.094 47.775V49.975C122.469 50.025 121.869 50.125 121.244 50.125C118.269 50.125 117.719 48.975 117.669 46.825V39.2H115.519ZM133.119 45.65V43.525C132.244 44.1 130.869 44.075 129.619 44.3C128.394 44.5 127.294 44.95 127.294 46.45C127.294 47.725 128.919 48.1 129.919 48.1C131.169 48.1 133.119 47.45 133.119 45.65ZM135.969 40.475V47.125C135.969 47.825 136.119 48.1 136.644 48.1C136.819 48.1 137.044 48.1 137.344 48.05V50.025C136.919 50.175 136.019 50.35 135.544 50.35C134.394 50.35 133.569 49.95 133.344 48.775C132.219 49.875 130.394 50.35 128.869 50.35C126.544 50.35 124.444 49.1 124.444 46.575C124.444 43.35 127.019 42.825 129.419 42.55C131.469 42.175 133.294 42.4 133.294 40.725C133.294 39.25 131.769 38.975 130.619 38.975C129.019 38.975 127.894 39.625 127.769 41.025H124.919C125.119 37.7 127.944 36.725 130.794 36.725C133.319 36.725 135.969 37.75 135.969 40.475ZM139.036 50V37.075H141.711V39.575H141.761C142.086 38.2 143.786 36.725 145.536 36.725C146.186 36.725 146.361 36.775 146.611 36.8V39.55C146.211 39.5 145.786 39.425 145.386 39.425C143.436 39.425 141.886 41 141.886 43.85V50H139.036ZM157.008 43.675C157.008 45.9 158.108 48.1 160.583 48.1C163.133 48.1 164.208 45.775 164.208 43.525C164.208 40.675 162.833 38.975 160.633 38.975C157.958 38.975 157.008 41.35 157.008 43.675ZM166.958 32.15V50H164.258V48.25H164.208C163.458 49.725 161.833 50.35 160.208 50.35C156.133 50.35 154.158 47.325 154.158 43.45C154.158 38.775 156.933 36.725 159.758 36.725C161.383 36.725 163.183 37.325 164.058 38.75H164.108V32.15H166.958ZM175.991 48.1C178.541 48.1 179.666 45.775 179.666 43.525C179.666 41.3 178.541 38.975 175.991 38.975C173.441 38.975 172.316 41.3 172.316 43.525C172.316 45.775 173.441 48.1 175.991 48.1ZM175.991 50.35C171.841 50.35 169.466 47.5 169.466 43.525C169.466 39.575 171.841 36.725 175.991 36.725C180.141 36.725 182.516 39.575 182.516 43.525C182.516 47.5 180.141 50.35 175.991 50.35ZM195.368 41.875V47.45H200.893C202.793 47.45 203.893 46.425 203.893 44.625C203.893 42.875 202.793 41.875 200.893 41.875H195.368ZM192.243 50V32.15H200.918C204.118 32.15 206.218 33.6 206.218 36.575C206.218 38.375 205.293 39.675 203.668 40.375V40.425C205.843 40.9 207.018 42.6 207.018 45.025C207.018 47.825 205.068 50 200.443 50H192.243ZM195.368 34.7V39.625H200.468C201.968 39.625 203.093 38.75 203.093 37.15C203.093 35.35 202.168 34.7 200.468 34.7H195.368ZM209.446 50V37.075H212.121V39.575H212.171C212.496 38.2 214.196 36.725 215.946 36.725C216.596 36.725 216.771 36.775 217.021 36.8V39.55C216.621 39.5 216.196 39.425 215.796 39.425C213.846 39.425 212.296 41 212.296 43.85V50H209.446ZM226.21 45.65V43.525C225.335 44.1 223.96 44.075 222.71 44.3C221.485 44.5 220.385 44.95 220.385 46.45C220.385 47.725 222.01 48.1 223.01 48.1C224.26 48.1 226.21 47.45 226.21 45.65ZM229.06 40.475V47.125C229.06 47.825 229.21 48.1 229.735 48.1C229.91 48.1 230.135 48.1 230.435 48.05V50.025C230.01 50.175 229.11 50.35 228.635 50.35C227.485 50.35 226.66 49.95 226.435 48.775C225.31 49.875 223.485 50.35 221.96 50.35C219.635 50.35 217.535 49.1 217.535 46.575C217.535 43.35 220.11 42.825 222.51 42.55C224.56 42.175 226.385 42.4 226.385 40.725C226.385 39.25 224.86 38.975 223.71 38.975C222.11 38.975 220.985 39.625 220.86 41.025H218.01C218.21 37.7 221.035 36.725 223.885 36.725C226.41 36.725 229.06 37.75 229.06 40.475ZM231.426 45.85H234.276C234.426 47.5 235.676 48.1 237.201 48.1C238.276 48.1 240.151 47.875 240.076 46.4C240.001 44.9 237.926 44.725 235.851 44.25C233.751 43.8 231.701 43.05 231.701 40.425C231.701 37.6 234.751 36.725 237.101 36.725C239.751 36.725 242.151 37.825 242.501 40.7H239.526C239.276 39.35 238.151 38.975 236.901 38.975C236.076 38.975 234.551 39.175 234.551 40.3C234.551 41.7 236.651 41.9 238.751 42.375C240.826 42.85 242.926 43.6 242.926 46.15C242.926 49.225 239.826 50.35 237.151 50.35C233.901 50.35 231.476 48.9 231.426 45.85ZM245.165 50V37.075H248.015V50H245.165ZM245.165 34.85V32.15H248.015V34.85H245.165ZM251.196 50V32.15H254.046V50H251.196ZM257.376 50V46.625H260.851V50H257.376ZM36.3229 64.7V77.45H39.3979C44.2979 77.45 45.3479 74.65 45.3479 71.075C45.3479 67.5 44.2979 64.7 39.3979 64.7H36.3229ZM33.1979 80V62.15H40.5979C46.0979 62.15 48.4729 66.15 48.4729 71.075C48.4729 76 46.0979 80 40.5979 80H33.1979ZM62.5648 74.275H53.0648C53.0648 76.3 54.1648 78.1 56.5398 78.1C58.1898 78.1 59.1898 77.375 59.6898 75.95H62.3898C61.7648 78.775 59.3648 80.35 56.5398 80.35C52.4898 80.35 50.2148 77.525 50.2148 73.55C50.2148 69.875 52.6148 66.725 56.4648 66.725C60.5398 66.725 63.0398 70.4 62.5648 74.275ZM53.0648 72.4H59.7148C59.6148 70.6 58.3898 68.975 56.4648 68.975C54.4898 68.975 53.1398 70.475 53.0648 72.4ZM74.7564 73.55C74.7564 71.2 73.5314 68.975 71.1814 68.975C68.7814 68.975 67.5564 70.8 67.5564 73.55C67.5564 76.15 68.8814 78.1 71.1814 78.1C73.7814 78.1 74.7564 75.8 74.7564 73.55ZM64.8064 84.775V67.075H67.5064V68.825H67.5564C68.3564 67.35 69.9064 66.725 71.5564 66.725C75.6314 66.725 77.6064 69.825 77.6064 73.6C77.6064 77.075 75.8564 80.35 72.0314 80.35C70.3814 80.35 68.6064 79.75 67.7064 78.325H67.6564V84.775H64.8064ZM91.3646 67.075V80H88.5646V78.2H88.5146C87.8146 79.5 86.2646 80.35 84.8396 80.35C81.4646 80.35 80.0146 78.65 80.0146 75.275V67.075H82.8646V75C82.8646 77.275 83.7896 78.1 85.3396 78.1C87.7146 78.1 88.5146 76.575 88.5146 74.575V67.075H91.3646ZM93.0701 69.2V67.075H95.2201V63.2H98.0701V67.075H100.645V69.2H98.0701V76.1C98.0701 77.275 98.1701 77.875 99.4451 77.875C99.8451 77.875 100.245 77.875 100.645 77.775V79.975C100.02 80.025 99.4201 80.125 98.7951 80.125C95.8201 80.125 95.2701 78.975 95.2201 76.825V69.2H93.0701ZM110.67 75.65V73.525C109.795 74.1 108.42 74.075 107.17 74.3C105.945 74.5 104.845 74.95 104.845 76.45C104.845 77.725 106.47 78.1 107.47 78.1C108.72 78.1 110.67 77.45 110.67 75.65ZM113.52 70.475V77.125C113.52 77.825 113.67 78.1 114.195 78.1C114.37 78.1 114.595 78.1 114.895 78.05V80.025C114.47 80.175 113.57 80.35 113.095 80.35C111.945 80.35 111.12 79.95 110.895 78.775C109.77 79.875 107.945 80.35 106.42 80.35C104.095 80.35 101.995 79.1 101.995 76.575C101.995 73.35 104.57 72.825 106.97 72.55C109.02 72.175 110.845 72.4 110.845 70.725C110.845 69.25 109.32 68.975 108.17 68.975C106.57 68.975 105.445 69.625 105.32 71.025H102.47C102.67 67.7 105.495 66.725 108.345 66.725C110.87 66.725 113.52 67.75 113.52 70.475ZM118.812 73.675C118.812 75.9 119.912 78.1 122.387 78.1C124.937 78.1 126.012 75.775 126.012 73.525C126.012 70.675 124.637 68.975 122.437 68.975C119.762 68.975 118.812 71.35 118.812 73.675ZM128.762 62.15V80H126.062V78.25H126.012C125.262 79.725 123.637 80.35 122.012 80.35C117.937 80.35 115.962 77.325 115.962 73.45C115.962 68.775 118.737 66.725 121.562 66.725C123.187 66.725 124.987 67.325 125.862 68.75H125.912V62.15H128.762ZM137.795 78.1C140.345 78.1 141.47 75.775 141.47 73.525C141.47 71.3 140.345 68.975 137.795 68.975C135.245 68.975 134.12 71.3 134.12 73.525C134.12 75.775 135.245 78.1 137.795 78.1ZM137.795 80.35C133.645 80.35 131.27 77.5 131.27 73.525C131.27 69.575 133.645 66.725 137.795 66.725C141.945 66.725 144.32 69.575 144.32 73.525C144.32 77.5 141.945 80.35 137.795 80.35ZM154.047 80V62.15H166.372V64.85H157.172V69.525H165.247V72.075H157.172V80H154.047ZM180.192 74.275H170.692C170.692 76.3 171.792 78.1 174.167 78.1C175.817 78.1 176.817 77.375 177.317 75.95H180.017C179.392 78.775 176.992 80.35 174.167 80.35C170.117 80.35 167.842 77.525 167.842 73.55C167.842 69.875 170.242 66.725 174.092 66.725C178.167 66.725 180.667 70.4 180.192 74.275ZM170.692 72.4H177.342C177.242 70.6 176.017 68.975 174.092 68.975C172.117 68.975 170.767 70.475 170.692 72.4ZM184.583 73.675C184.583 75.9 185.683 78.1 188.158 78.1C190.708 78.1 191.783 75.775 191.783 73.525C191.783 70.675 190.408 68.975 188.208 68.975C185.533 68.975 184.583 71.35 184.583 73.675ZM194.533 62.15V80H191.833V78.25H191.783C191.033 79.725 189.408 80.35 187.783 80.35C183.708 80.35 181.733 77.325 181.733 73.45C181.733 68.775 184.508 66.725 187.333 66.725C188.958 66.725 190.758 67.325 191.633 68.75H191.683V62.15H194.533ZM209.367 74.275H199.867C199.867 76.3 200.967 78.1 203.342 78.1C204.992 78.1 205.992 77.375 206.492 75.95H209.192C208.567 78.775 206.167 80.35 203.342 80.35C199.292 80.35 197.017 77.525 197.017 73.55C197.017 69.875 199.417 66.725 203.267 66.725C207.342 66.725 209.842 70.4 209.367 74.275ZM199.867 72.4H206.517C206.417 70.6 205.192 68.975 203.267 68.975C201.292 68.975 199.942 70.475 199.867 72.4ZM211.533 80V67.075H214.208V69.575H214.258C214.583 68.2 216.283 66.725 218.033 66.725C218.683 66.725 218.858 66.775 219.108 66.8V69.55C218.708 69.5 218.283 69.425 217.883 69.425C215.933 69.425 214.383 71 214.383 73.85V80H211.533ZM228.297 75.65V73.525C227.422 74.1 226.047 74.075 224.797 74.3C223.572 74.5 222.472 74.95 222.472 76.45C222.472 77.725 224.097 78.1 225.097 78.1C226.347 78.1 228.297 77.45 228.297 75.65ZM231.147 70.475V77.125C231.147 77.825 231.297 78.1 231.822 78.1C231.997 78.1 232.222 78.1 232.522 78.05V80.025C232.097 80.175 231.197 80.35 230.722 80.35C229.572 80.35 228.747 79.95 228.522 78.775C227.397 79.875 225.572 80.35 224.047 80.35C221.722 80.35 219.622 79.1 219.622 76.575C219.622 73.35 222.197 72.825 224.597 72.55C226.647 72.175 228.472 72.4 228.472 70.725C228.472 69.25 226.947 68.975 225.797 68.975C224.197 68.975 223.072 69.625 222.947 71.025H220.097C220.297 67.7 223.122 66.725 225.972 66.725C228.497 66.725 231.147 67.75 231.147 70.475ZM234.289 80V62.15H237.139V80H234.289ZM73.4274 108.1C75.9774 108.1 77.1024 105.775 77.1024 103.525C77.1024 101.3 75.9774 98.975 73.4274 98.975C70.8774 98.975 69.7524 101.3 69.7524 103.525C69.7524 105.775 70.8774 108.1 73.4274 108.1ZM73.4274 110.35C69.2774 110.35 66.9024 107.5 66.9024 103.525C66.9024 99.575 69.2774 96.725 73.4274 96.725C77.5774 96.725 79.9524 99.575 79.9524 103.525C79.9524 107.5 77.5774 110.35 73.4274 110.35ZM93.6718 97.075V110H90.8718V108.2H90.8218C90.1218 109.5 88.5718 110.35 87.1468 110.35C83.7718 110.35 82.3218 108.65 82.3218 105.275V97.075H85.1718V105C85.1718 107.275 86.0968 108.1 87.6468 108.1C90.0218 108.1 90.8218 106.575 90.8218 104.575V97.075H93.6718ZM102.96 104.05H106.085C106.085 106.8 108.11 107.875 110.61 107.875C113.36 107.875 114.385 106.525 114.385 105.175C114.385 103.8 113.635 103.25 112.91 102.975C111.66 102.5 110.035 102.175 107.585 101.5C104.535 100.675 103.635 98.825 103.635 96.975C103.635 93.4 106.935 91.725 110.16 91.725C113.885 91.725 117.01 93.7 117.01 97.425H113.885C113.735 95.125 112.185 94.275 110.035 94.275C108.585 94.275 106.76 94.8 106.76 96.6C106.76 97.85 107.61 98.55 108.885 98.9C109.16 98.975 113.11 100 114.035 100.275C116.385 100.975 117.51 102.975 117.51 104.825C117.51 108.825 113.96 110.425 110.41 110.425C106.335 110.425 103.035 108.475 102.96 104.05ZM131.571 104.275H122.071C122.071 106.3 123.171 108.1 125.546 108.1C127.196 108.1 128.196 107.375 128.696 105.95H131.396C130.771 108.775 128.371 110.35 125.546 110.35C121.496 110.35 119.221 107.525 119.221 103.55C119.221 99.875 121.621 96.725 125.471 96.725C129.546 96.725 132.046 100.4 131.571 104.275ZM122.071 102.4H128.721C128.621 100.6 127.396 98.975 125.471 98.975C123.496 98.975 122.146 100.475 122.071 102.4ZM133.738 110V97.075H136.438V98.975L136.488 99.025C137.338 97.6 138.813 96.725 140.513 96.725C143.313 96.725 145.088 98.225 145.088 101.125V110H142.238V101.875C142.188 99.85 141.388 98.975 139.713 98.975C137.813 98.975 136.588 100.475 136.588 102.375V110H133.738ZM156.068 105.65V103.525C155.193 104.1 153.818 104.075 152.568 104.3C151.343 104.5 150.243 104.95 150.243 106.45C150.243 107.725 151.868 108.1 152.868 108.1C154.118 108.1 156.068 107.45 156.068 105.65ZM158.918 100.475V107.125C158.918 107.825 159.068 108.1 159.593 108.1C159.768 108.1 159.993 108.1 160.293 108.05V110.025C159.868 110.175 158.968 110.35 158.493 110.35C157.343 110.35 156.518 109.95 156.293 108.775C155.168 109.875 153.343 110.35 151.818 110.35C149.493 110.35 147.393 109.1 147.393 106.575C147.393 103.35 149.968 102.825 152.368 102.55C154.418 102.175 156.243 102.4 156.243 100.725C156.243 99.25 154.718 98.975 153.568 98.975C151.968 98.975 150.843 99.625 150.718 101.025H147.868C148.068 97.7 150.893 96.725 153.743 96.725C156.268 96.725 158.918 97.75 158.918 100.475ZM164.21 103.675C164.21 105.9 165.31 108.1 167.785 108.1C170.335 108.1 171.41 105.775 171.41 103.525C171.41 100.675 170.035 98.975 167.835 98.975C165.16 98.975 164.21 101.35 164.21 103.675ZM174.16 92.15V110H171.46V108.25H171.41C170.66 109.725 169.035 110.35 167.41 110.35C163.335 110.35 161.36 107.325 161.36 103.45C161.36 98.775 164.135 96.725 166.96 96.725C168.585 96.725 170.385 97.325 171.26 98.75H171.31V92.15H174.16ZM183.193 108.1C185.743 108.1 186.868 105.775 186.868 103.525C186.868 101.3 185.743 98.975 183.193 98.975C180.643 98.975 179.518 101.3 179.518 103.525C179.518 105.775 180.643 108.1 183.193 108.1ZM183.193 110.35C179.043 110.35 176.668 107.5 176.668 103.525C176.668 99.575 179.043 96.725 183.193 96.725C187.343 96.725 189.718 99.575 189.718 103.525C189.718 107.5 187.343 110.35 183.193 110.35ZM192.087 110V97.075H194.762V99.575H194.812C195.137 98.2 196.837 96.725 198.587 96.725C199.237 96.725 199.412 96.775 199.662 96.8V99.55C199.262 99.5 198.837 99.425 198.437 99.425C196.487 99.425 194.937 101 194.937 103.85V110H192.087ZM198.807 110V106.625H202.282V110C202.257 112.05 200.882 113.55 198.907 113.95V112.425C200.007 112.15 200.557 111.075 200.532 110H198.807ZM56.5438 133.675C56.5438 135.9 57.6438 138.1 60.1188 138.1C62.6688 138.1 63.7438 135.775 63.7438 133.525C63.7438 130.675 62.3688 128.975 60.1688 128.975C57.4938 128.975 56.5438 131.35 56.5438 133.675ZM66.4938 122.15V140H63.7938V138.25H63.7438C62.9938 139.725 61.3688 140.35 59.7438 140.35C55.6688 140.35 53.6938 137.325 53.6938 133.45C53.6938 128.775 56.4688 126.725 59.2938 126.725C60.9188 126.725 62.7188 127.325 63.5938 128.75H63.6438V122.15H66.4938ZM75.5271 138.1C78.0771 138.1 79.2021 135.775 79.2021 133.525C79.2021 131.3 78.0771 128.975 75.5271 128.975C72.9771 128.975 71.8521 131.3 71.8521 133.525C71.8521 135.775 72.9771 138.1 75.5271 138.1ZM75.5271 140.35C71.3771 140.35 69.0021 137.5 69.0021 133.525C69.0021 129.575 71.3771 126.725 75.5271 126.725C79.6771 126.725 82.0521 129.575 82.0521 133.525C82.0521 137.5 79.6771 140.35 75.5271 140.35ZM90.6794 135.85H93.5294C93.6794 137.5 94.9294 138.1 96.4544 138.1C97.5294 138.1 99.4044 137.875 99.3294 136.4C99.2544 134.9 97.1794 134.725 95.1044 134.25C93.0044 133.8 90.9544 133.05 90.9544 130.425C90.9544 127.6 94.0044 126.725 96.3544 126.725C99.0044 126.725 101.404 127.825 101.754 130.7H98.7794C98.5294 129.35 97.4044 128.975 96.1544 128.975C95.3294 128.975 93.8044 129.175 93.8044 130.3C93.8044 131.7 95.9044 131.9 98.0044 132.375C100.079 132.85 102.179 133.6 102.179 136.15C102.179 139.225 99.0794 140.35 96.4044 140.35C93.1544 140.35 90.7294 138.9 90.6794 135.85ZM116.068 134.275H106.568C106.568 136.3 107.668 138.1 110.043 138.1C111.693 138.1 112.693 137.375 113.193 135.95H115.893C115.268 138.775 112.868 140.35 110.043 140.35C105.993 140.35 103.718 137.525 103.718 133.55C103.718 129.875 106.118 126.725 109.968 126.725C114.043 126.725 116.543 130.4 116.068 134.275ZM106.568 132.4H113.218C113.118 130.6 111.893 128.975 109.968 128.975C107.993 128.975 106.643 130.475 106.568 132.4ZM129.585 127.075V140H126.785V138.2H126.735C126.035 139.5 124.485 140.35 123.06 140.35C119.685 140.35 118.235 138.65 118.235 135.275V127.075H121.085V135C121.085 137.275 122.01 138.1 123.56 138.1C125.935 138.1 126.735 136.575 126.735 134.575V127.075H129.585ZM151.273 134.275H141.773C141.773 136.3 142.873 138.1 145.248 138.1C146.898 138.1 147.898 137.375 148.398 135.95H151.098C150.473 138.775 148.073 140.35 145.248 140.35C141.198 140.35 138.923 137.525 138.923 133.55C138.923 129.875 141.323 126.725 145.173 126.725C149.248 126.725 151.748 130.4 151.273 134.275ZM141.773 132.4H148.423C148.323 130.6 147.098 128.975 145.173 128.975C143.198 128.975 141.848 130.475 141.773 132.4ZM152.74 135.85H155.59C155.74 137.5 156.99 138.1 158.515 138.1C159.59 138.1 161.465 137.875 161.39 136.4C161.315 134.9 159.24 134.725 157.165 134.25C155.065 133.8 153.015 133.05 153.015 130.425C153.015 127.6 156.065 126.725 158.415 126.725C161.065 126.725 163.465 127.825 163.815 130.7H160.84C160.59 129.35 159.465 128.975 158.215 128.975C157.39 128.975 155.865 129.175 155.865 130.3C155.865 131.7 157.965 131.9 160.065 132.375C162.14 132.85 164.24 133.6 164.24 136.15C164.24 139.225 161.14 140.35 158.465 140.35C155.215 140.35 152.79 138.9 152.74 135.85ZM165.104 129.2V127.075H167.254V123.2H170.104V127.075H172.679V129.2H170.104V136.1C170.104 137.275 170.204 137.875 171.479 137.875C171.879 137.875 172.279 137.875 172.679 137.775V139.975C172.054 140.025 171.454 140.125 170.829 140.125C167.854 140.125 167.304 138.975 167.254 136.825V129.2H165.104ZM182.704 135.65V133.525C181.829 134.1 180.454 134.075 179.204 134.3C177.979 134.5 176.879 134.95 176.879 136.45C176.879 137.725 178.504 138.1 179.504 138.1C180.754 138.1 182.704 137.45 182.704 135.65ZM185.554 130.475V137.125C185.554 137.825 185.704 138.1 186.229 138.1C186.404 138.1 186.629 138.1 186.929 138.05V140.025C186.504 140.175 185.604 140.35 185.129 140.35C183.979 140.35 183.154 139.95 182.929 138.775C181.804 139.875 179.979 140.35 178.454 140.35C176.129 140.35 174.029 139.1 174.029 136.575C174.029 133.35 176.604 132.825 179.004 132.55C181.054 132.175 182.879 132.4 182.879 130.725C182.879 129.25 181.354 128.975 180.204 128.975C178.604 128.975 177.479 129.625 177.354 131.025H174.504C174.704 127.7 177.529 126.725 180.379 126.725C182.904 126.725 185.554 127.75 185.554 130.475ZM190.846 133.675C190.846 135.9 191.946 138.1 194.421 138.1C196.971 138.1 198.046 135.775 198.046 133.525C198.046 130.675 196.671 128.975 194.471 128.975C191.796 128.975 190.846 131.35 190.846 133.675ZM200.796 122.15V140H198.096V138.25H198.046C197.296 139.725 195.671 140.35 194.046 140.35C189.971 140.35 187.996 137.325 187.996 133.45C187.996 128.775 190.771 126.725 193.596 126.725C195.221 126.725 197.021 127.325 197.896 128.75H197.946V122.15H200.796ZM209.829 138.1C212.379 138.1 213.504 135.775 213.504 133.525C213.504 131.3 212.379 128.975 209.829 128.975C207.279 128.975 206.154 131.3 206.154 133.525C206.154 135.775 207.279 138.1 209.829 138.1ZM209.829 140.35C205.679 140.35 203.304 137.5 203.304 133.525C203.304 129.575 205.679 126.725 209.829 126.725C213.979 126.725 216.354 129.575 216.354 133.525C216.354 137.5 213.979 140.35 209.829 140.35ZM21.5598 168.1C24.1098 168.1 25.2348 165.775 25.2348 163.525C25.2348 161.3 24.1098 158.975 21.5598 158.975C19.0098 158.975 17.8848 161.3 17.8848 163.525C17.8848 165.775 19.0098 168.1 21.5598 168.1ZM21.5598 170.35C17.4098 170.35 15.0348 167.5 15.0348 163.525C15.0348 159.575 17.4098 156.725 21.5598 156.725C25.7098 156.725 28.0848 159.575 28.0848 163.525C28.0848 167.5 25.7098 170.35 21.5598 170.35ZM41.8041 157.075V170H39.0041V168.2H38.9541C38.2541 169.5 36.7041 170.35 35.2791 170.35C31.9041 170.35 30.4541 168.65 30.4541 165.275V157.075H33.3041V165C33.3041 167.275 34.2291 168.1 35.7791 168.1C38.1541 168.1 38.9541 166.575 38.9541 164.575V157.075H41.8041ZM53.9926 163.675C53.9926 165.9 55.0926 168.1 57.5676 168.1C60.1176 168.1 61.1926 165.775 61.1926 163.525C61.1926 160.675 59.8176 158.975 57.6176 158.975C54.9426 158.975 53.9926 161.35 53.9926 163.675ZM63.9426 152.15V170H61.2426V168.25H61.1926C60.4426 169.725 58.8176 170.35 57.1926 170.35C53.1176 170.35 51.1426 167.325 51.1426 163.45C51.1426 158.775 53.9176 156.725 56.7426 156.725C58.3676 156.725 60.1676 157.325 61.0426 158.75H61.0926V152.15H63.9426ZM78.7758 164.275H69.2758C69.2758 166.3 70.3758 168.1 72.7508 168.1C74.4008 168.1 75.4008 167.375 75.9008 165.95H78.6008C77.9758 168.775 75.5758 170.35 72.7508 170.35C68.7008 170.35 66.4258 167.525 66.4258 163.55C66.4258 159.875 68.8258 156.725 72.6758 156.725C76.7508 156.725 79.2508 160.4 78.7758 164.275ZM69.2758 162.4H75.9258C75.8258 160.6 74.6008 158.975 72.6758 158.975C70.7008 158.975 69.3508 160.475 69.2758 162.4ZM90.1254 163.55C90.1254 165.8 91.1004 168.1 93.7004 168.1C96.1754 168.1 97.3254 166.25 97.3254 163.55C97.3254 160.75 96.0754 158.975 93.7004 158.975C91.3504 158.975 90.1254 161.2 90.1254 163.55ZM100.075 157.075V174.775H97.2254V168.325H97.1754C96.2754 169.75 94.5004 170.35 92.8504 170.35C89.0254 170.35 87.2754 167.075 87.2754 163.6C87.2754 159.825 89.2504 156.725 93.3254 156.725C94.9754 156.725 96.5254 157.35 97.3254 158.825H97.3754V157.075H100.075ZM114.534 157.075V170H111.734V168.2H111.684C110.984 169.5 109.434 170.35 108.009 170.35C104.634 170.35 103.184 168.65 103.184 165.275V157.075H106.034V165C106.034 167.275 106.959 168.1 108.509 168.1C110.884 168.1 111.684 166.575 111.684 164.575V157.075H114.534ZM125.514 165.65V163.525C124.639 164.1 123.264 164.075 122.014 164.3C120.789 164.5 119.689 164.95 119.689 166.45C119.689 167.725 121.314 168.1 122.314 168.1C123.564 168.1 125.514 167.45 125.514 165.65ZM128.364 160.475V167.125C128.364 167.825 128.514 168.1 129.039 168.1C129.214 168.1 129.439 168.1 129.739 168.05V170.025C129.314 170.175 128.414 170.35 127.939 170.35C126.789 170.35 125.964 169.95 125.739 168.775C124.614 169.875 122.789 170.35 121.264 170.35C118.939 170.35 116.839 169.1 116.839 166.575C116.839 163.35 119.414 162.825 121.814 162.55C123.864 162.175 125.689 162.4 125.689 160.725C125.689 159.25 124.164 158.975 123.014 158.975C121.414 158.975 120.289 159.625 120.164 161.025H117.314C117.514 157.7 120.339 156.725 123.189 156.725C125.714 156.725 128.364 157.75 128.364 160.475ZM131.506 170V152.15H134.356V170H131.506ZM139.686 163.55C139.686 165.8 140.661 168.1 143.261 168.1C145.736 168.1 146.886 166.25 146.886 163.55C146.886 160.75 145.636 158.975 143.261 158.975C140.911 158.975 139.686 161.2 139.686 163.55ZM149.636 157.075V174.775H146.786V168.325H146.736C145.836 169.75 144.061 170.35 142.411 170.35C138.586 170.35 136.836 167.075 136.836 163.6C136.836 159.825 138.811 156.725 142.886 156.725C144.536 156.725 146.086 157.35 146.886 158.825H146.936V157.075H149.636ZM164.094 157.075V170H161.294V168.2H161.244C160.544 169.5 158.994 170.35 157.569 170.35C154.194 170.35 152.744 168.65 152.744 165.275V157.075H155.594V165C155.594 167.275 156.519 168.1 158.069 168.1C160.444 168.1 161.244 166.575 161.244 164.575V157.075H164.094ZM178.825 164.275H169.325C169.325 166.3 170.425 168.1 172.8 168.1C174.45 168.1 175.45 167.375 175.95 165.95H178.65C178.025 168.775 175.625 170.35 172.8 170.35C168.75 170.35 166.475 167.525 166.475 163.55C166.475 159.875 168.875 156.725 172.725 156.725C176.8 156.725 179.3 160.4 178.825 164.275ZM169.325 162.4H175.975C175.875 160.6 174.65 158.975 172.725 158.975C170.75 158.975 169.4 160.475 169.325 162.4ZM180.991 170V157.075H183.666V159.575H183.716C184.041 158.2 185.741 156.725 187.491 156.725C188.141 156.725 188.316 156.775 188.566 156.8V159.55C188.166 159.5 187.741 159.425 187.341 159.425C185.391 159.425 183.841 161 183.841 163.85V170H180.991ZM202.663 168.1C205.213 168.1 206.338 165.775 206.338 163.525C206.338 161.3 205.213 158.975 202.663 158.975C200.113 158.975 198.988 161.3 198.988 163.525C198.988 165.775 200.113 168.1 202.663 168.1ZM202.663 170.35C198.513 170.35 196.138 167.5 196.138 163.525C196.138 159.575 198.513 156.725 202.663 156.725C206.813 156.725 209.188 159.575 209.188 163.525C209.188 167.5 206.813 170.35 202.663 170.35ZM222.908 157.075V170H220.108V168.2H220.058C219.358 169.5 217.808 170.35 216.383 170.35C213.008 170.35 211.558 168.65 211.558 165.275V157.075H214.408V165C214.408 167.275 215.333 168.1 216.883 168.1C219.258 168.1 220.058 166.575 220.058 164.575V157.075H222.908ZM224.613 159.2V157.075H226.763V153.2H229.613V157.075H232.188V159.2H229.613V166.1C229.613 167.275 229.713 167.875 230.988 167.875C231.388 167.875 231.788 167.875 232.188 167.775V169.975C231.563 170.025 230.963 170.125 230.338 170.125C227.363 170.125 226.813 168.975 226.763 166.825V159.2H224.613ZM234.238 170V157.075H236.913V159.575H236.963C237.288 158.2 238.988 156.725 240.738 156.725C241.388 156.725 241.563 156.775 241.813 156.8V159.55C241.413 159.5 240.988 159.425 240.588 159.425C238.638 159.425 237.088 161 237.088 163.85V170H234.238ZM248.513 168.1C251.063 168.1 252.188 165.775 252.188 163.525C252.188 161.3 251.063 158.975 248.513 158.975C245.963 158.975 244.838 161.3 244.838 163.525C244.838 165.775 245.963 168.1 248.513 168.1ZM248.513 170.35C244.363 170.35 241.988 167.5 241.988 163.525C241.988 159.575 244.363 156.725 248.513 156.725C252.663 156.725 255.038 159.575 255.038 163.525C255.038 167.5 252.663 170.35 248.513 170.35ZM257.632 170V166.625H261.107V170H257.632Z" fill="#0E0AA5"/>
</svg>
