<svg width="170" height="172" viewBox="0 0 170 172" fill="none" xmlns="http://www.w3.org/2000/svg">
<rect width="170" height="172" rx="29" fill="#040468"/>
<path d="M85.5 20C49.3348 20 20 49.5588 20 86C20 122.441 49.3348 152 85.5 152C121.665 152 151 122.441 151 86C151 49.5588 121.705 20 85.5 20ZM123.205 77.7251C122.494 77.8047 121.784 77.8445 121.112 77.8445C113.374 77.8445 106.188 73.906 101.924 67.4213V102.948C101.924 117.468 90.2378 129.204 75.8664 129.204C61.4951 129.204 49.8086 117.429 49.8086 102.948C49.8086 88.4665 61.4951 76.6908 75.8664 76.6908C76.4192 76.6908 76.9325 76.7306 77.4852 76.7703V89.6998C76.9325 89.6203 76.4192 89.5407 75.8664 89.5407C68.5229 89.5407 62.5612 95.5479 62.5612 102.948C62.5612 110.347 68.5229 116.354 75.8664 116.354C83.21 116.354 89.7245 110.506 89.7245 103.107L89.843 42.7559H102.122C103.267 53.8553 112.15 62.528 123.205 63.3635V77.7649V77.7251Z" fill="#F4F4F4"/>
</svg>
