<svg width="170" height="172" viewBox="0 0 170 172" fill="none" xmlns="http://www.w3.org/2000/svg">
<rect width="170" height="172" rx="29" fill="#0E0AA5"/>
<path d="M87.0879 82.3511L69.6091 57.0889H60.2582L81.9587 88.3981L84.6811 92.2968L103.265 119.111H112.576L89.8103 86.2896L87.0879 82.3511Z" fill="#F4F4F4"/>
<path d="M86.4565 22C50.3154 22 21 51.5588 21 88C21 124.441 50.3154 154 86.4565 154C122.598 154 151.913 124.441 151.913 88C151.913 51.5588 122.598 22 86.4565 22ZM100.384 123.486L81.6035 95.9168L58.0881 123.486H52.012L78.9205 91.9385L52.012 52.434H72.5288L90.3231 78.5316L112.615 52.434H118.692L93.0456 82.5099L120.941 123.447H100.424L100.384 123.486Z" fill="#F4F4F4"/>
</svg>
