<svg width="36" height="46" viewBox="0 0 36 46" fill="none" xmlns="http://www.w3.org/2000/svg">
<path d="M3.39525 21.0124C3.36357 20.9078 3.33477 20.8004 3.30886 20.6958C3.30886 20.6958 3.31174 20.6901 3.31462 20.6873C3.33765 20.7975 3.36357 20.905 3.39525 21.0124Z" fill="#FFCE00"/>
<path d="M31.0324 20.9446C31.0324 20.9446 31.0238 20.9361 31.0209 20.9333C30.9863 20.8937 30.9518 20.8569 30.9172 20.8173C30.9518 20.724 30.9834 20.6307 31.0094 20.5346C31.0814 20.2886 31.1274 20.0342 31.1562 19.7769C31.185 19.5309 31.1937 19.2849 31.1908 19.0418C31.2081 19.0588 31.2225 19.0729 31.2397 19.087C31.2628 19.6666 31.2167 20.3169 31.0295 20.9417L31.0324 20.9446Z" fill="#FFCE00"/>
<path d="M31.2426 19.0899C31.2253 19.0729 31.2109 19.0588 31.1937 19.0446C31.1965 19.2878 31.185 19.5337 31.1591 19.7797C31.1303 20.037 31.0814 20.2915 31.0122 20.5374C30.9863 20.6336 30.9546 20.7269 30.9201 20.8202C30.9546 20.8597 30.9892 20.8965 31.0238 20.9361C31.0266 20.9417 31.0324 20.9446 31.0353 20.9474C31.2225 20.3226 31.2685 19.6723 31.2455 19.0927L31.2426 19.0899ZM3.31749 20.6873C3.31749 20.6873 3.31174 20.6929 3.31174 20.6958C3.33765 20.8032 3.36645 20.9078 3.39813 21.0124C3.36933 20.905 3.34053 20.7975 3.31749 20.6873Z" fill="#040468"/>
<path d="M36.0029 29.8336C36.0029 29.8081 36.0029 29.7827 36.0029 29.7572C35.9971 29.2794 35.9654 28.8044 35.9136 28.3379C35.9107 28.3097 35.9078 28.2814 35.9021 28.2531C35.8819 28.0863 35.8618 27.9223 35.8358 27.7583C35.8301 27.7159 35.8243 27.6763 35.8157 27.6339C35.7178 27.0261 35.5796 26.4295 35.4068 25.8471C35.2484 25.3155 35.0612 24.7953 34.8481 24.2892C34.7444 24.0461 34.635 23.8058 34.5198 23.5683C34.419 23.3647 34.3153 23.1612 34.2059 22.9604C34.1656 22.8841 34.1224 22.8077 34.0792 22.7342C34.0274 22.6438 33.9755 22.5533 33.9208 22.4628C33.82 22.2932 33.7135 22.1235 33.604 21.9539C33.2066 21.3404 32.766 20.7523 32.2822 20.1953C32.2592 20.1699 32.2361 20.1416 32.2131 20.1162C32.2793 19.6921 32.2937 19.2736 32.2822 18.8835C32.2678 18.4085 32.2102 17.9787 32.1469 17.6338L31.905 16.3135C32.0403 15.9403 32.1497 15.5586 32.2217 15.1741C32.599 13.2091 31.9712 11.5834 30.4017 10.4779L29.1865 9.62127L28.6969 10.9501C28.6652 11.0349 28.6278 11.1169 28.5817 11.1989C28.4809 10.5712 28.3197 9.88986 28.0605 9.22262C27.7379 8.39139 27.3031 7.67609 26.7646 7.09932C26.1109 6.39816 25.3103 5.89773 24.3801 5.60934L23.0756 5.20221L22.9834 6.04757L21.532 4.40492C20.6249 3.37861 20.0749 2.44561 19.8013 1.46736L19.3895 0L18.0763 0.921696C17.1605 1.56349 16.5558 2.30141 16.2217 3.17505C15.951 3.89035 15.8963 4.59152 15.8531 5.27007C15.2282 4.79226 14.4104 4.39644 13.2988 4.20701L11.5853 3.9158L12.0432 5.45101C12.1958 5.95993 12.216 7.08801 11.905 8.35464C11.7581 8.9512 11.5594 9.49404 11.3233 9.94358C11.2772 9.90117 11.2282 9.86159 11.1793 9.81918C10.4651 9.24241 9.56659 8.91162 8.65083 8.88334L7.63715 8.85507L7.5306 9.77677L7.50468 10.003C7.34629 11.3827 7.19366 12.7058 6.72426 13.9696C6.48524 13.8368 6.18862 13.7208 5.82577 13.6162L4.7833 13.3194L3.76674 16.271C3.63427 16.6556 3.50756 17.0372 3.40389 17.4246C3.2887 17.8487 3.19942 18.2813 3.15911 18.7308C3.15335 18.7873 3.15047 18.8467 3.14759 18.9061C3.13319 19.1323 3.13319 19.3585 3.14471 19.5818C3.16199 19.9578 3.2167 20.3282 3.3031 20.6901C3.3031 20.6901 3.30598 20.6845 3.30886 20.6816C3.33189 20.7919 3.35781 20.8993 3.38949 21.0068C3.35781 20.9022 3.32901 20.7947 3.3031 20.6901C3.26278 20.7382 3.22534 20.7891 3.18791 20.8371C3.17351 20.8569 3.15911 20.8739 3.14471 20.8937C2.96904 21.1199 2.80202 21.3517 2.64075 21.5864C2.5342 21.7419 2.42765 21.9002 2.32685 22.0613C2.30094 22.1009 2.27502 22.1405 2.25198 22.1829C2.21166 22.2479 2.17135 22.313 2.13103 22.3808C2.0504 22.5165 1.96976 22.6551 1.89201 22.7936C1.37077 23.721 0.947444 24.6992 0.636429 25.717C0.62203 25.7594 0.610511 25.8047 0.596112 25.8471C0.207343 27.1589 0 28.5387 0 29.9608C0 30.023 0 30.0852 0 30.1446H0.00575954C0.0143988 30.7468 0.0575954 31.3377 0.138229 31.9201C0.161267 32.0841 0.184305 32.2452 0.213103 32.4064C0.267819 32.723 0.331173 33.034 0.406047 33.3422C0.555795 33.9699 0.74874 34.5834 0.979122 35.18C3.07847 40.6168 8.36285 44.7334 14.8481 45.754C14.874 45.7597 14.897 45.7625 14.923 45.7653C15.1937 45.8077 15.4644 45.8445 15.7379 45.8728C15.9021 45.8897 16.0691 45.9067 16.2361 45.9208C16.8179 45.9717 17.4082 45.9972 18.0072 45.9972C18.5572 45.9972 19.1044 45.9746 19.6429 45.9321C19.8445 45.9152 20.0432 45.8982 20.2419 45.8756C20.3225 45.8671 20.406 45.8558 20.4867 45.8473C20.599 45.8332 20.7142 45.8191 20.8265 45.8021C28.8121 44.6825 35.0526 38.8865 35.9078 31.6572C35.9654 31.1624 36 30.6591 36.0058 30.1502C36.0058 30.0852 36.0058 30.023 36.0058 29.958V29.9269C36.0058 29.8958 36.0058 29.8647 36.0058 29.8336H36.0029ZM34.5313 30.7213C34.5256 30.8372 34.5169 30.9532 34.5054 31.0691C34.4564 31.6713 34.3614 32.2679 34.2289 32.8559C34.0158 33.7946 33.6962 34.7135 33.2757 35.6012C32.4521 37.34 31.2685 38.9035 29.7567 40.2465C28.2361 41.6007 26.4651 42.6638 24.4896 43.4102C23.3549 43.8371 22.18 44.1481 20.9791 44.3404C20.8985 44.3545 20.8179 44.3658 20.7343 44.3771C20.6623 44.3884 20.5932 44.3969 20.5212 44.4082C20.3197 44.4365 20.1152 44.4591 19.9107 44.4817C19.2829 44.5468 18.6465 44.5779 18.0043 44.5779C17.3621 44.5779 16.7228 44.5468 16.0922 44.4817C16.0115 44.4733 15.9338 44.4648 15.8531 44.4563C15.6631 44.4337 15.473 44.4111 15.2829 44.3828C15.2455 44.3771 15.2081 44.3715 15.1706 44.3658C13.9179 44.1764 12.694 43.8569 11.5162 43.413C9.54068 42.6695 7.76962 41.6036 6.2491 40.2493C4.7401 38.9035 3.55652 37.34 2.73002 35.6041C2.46796 35.0527 2.24622 34.4901 2.06479 33.919C1.87473 33.3224 1.72786 32.7174 1.62707 32.101C1.57811 31.8042 1.5378 31.5045 1.509 31.202C1.46868 30.7892 1.4514 30.3764 1.4514 29.958C1.4514 29.9382 1.4514 29.9212 1.4514 29.9014C1.4514 29.5141 1.47156 29.1296 1.50612 28.7507C1.509 28.7111 1.51476 28.6715 1.51764 28.632C1.59827 27.8516 1.74514 27.0826 1.964 26.3305C2.05328 26.0195 2.15695 25.7114 2.26926 25.406C2.40461 25.0385 2.55724 24.6766 2.72714 24.3203C2.91433 23.9245 3.12167 23.5372 3.34917 23.1583C3.41541 23.0452 3.48452 22.935 3.55652 22.8247C3.55652 22.8247 3.55652 22.8191 3.56228 22.8162C3.67747 22.6353 3.79554 22.4543 3.92225 22.279C3.92225 22.2762 3.92801 22.2706 3.93089 22.2677C3.94528 22.2479 3.9568 22.231 3.9712 22.2112C4.09503 22.0359 4.22174 21.8663 4.35133 21.6966C4.44924 21.5694 4.55292 21.445 4.65659 21.3206C4.62203 21.2386 4.58747 21.1566 4.5558 21.0718C4.4694 20.8456 4.40317 20.6166 4.35133 20.3848C4.35133 20.3763 4.34845 20.3706 4.34557 20.3621C4.33981 20.3367 4.33405 20.3112 4.32829 20.2858C4.32253 20.2632 4.31965 20.2434 4.31677 20.2208C4.31102 20.1897 4.30526 20.1586 4.2995 20.1275C4.2707 19.9578 4.25054 19.7882 4.2419 19.6157C4.2275 19.4009 4.2275 19.1832 4.2419 18.9626V18.9174C4.26206 18.6742 4.29374 18.4368 4.34269 18.1993C4.38877 17.9674 4.44636 17.7384 4.5126 17.5094C4.59611 17.2238 4.69114 16.9383 4.78906 16.6471C4.7977 16.6216 4.80634 16.5962 4.81497 16.5707L5.50324 14.5718C5.82577 14.6652 6.1915 14.8009 6.35277 14.9677L7.08711 15.7254C8.20158 13.8424 8.39453 11.8577 8.62203 9.88703C9.53492 9.91248 10.3153 10.3592 10.7732 10.8653L10.779 10.8709C10.8308 10.9275 10.8769 10.9868 10.9201 11.0462C11.1044 11.295 11.2081 11.5495 11.2138 11.77C12.933 10.4581 13.5666 6.74874 13.103 5.18808C14.9086 5.49625 15.7437 6.43774 16.3513 7.41598C16.7516 6.90707 16.8726 6.40098 16.9129 5.87511C17.0281 4.37099 16.9129 2.9941 18.7444 1.71051C18.7646 1.78119 18.7847 1.84905 18.8078 1.9169C18.8078 1.92256 18.8107 1.92821 18.8135 1.93387L18.8308 1.98758C19.162 2.99975 19.7408 3.91862 20.5068 4.8177C20.5155 4.82618 20.5212 4.83466 20.5299 4.84315C20.5385 4.85446 20.5472 4.86294 20.5558 4.87425C20.576 4.89687 20.5961 4.92231 20.6192 4.94493L22.2145 6.74874C22.2376 6.77701 22.2606 6.80246 22.2837 6.83073C22.2865 6.83639 22.2923 6.83921 22.2952 6.84204C22.5572 7.14173 22.7473 7.44708 22.8855 7.76374C23.0439 8.1228 23.1389 8.49318 23.2138 8.88052C24 8.32919 23.9654 7.20111 24.0346 6.54518C24.9302 6.82508 25.6098 7.32833 26.1224 7.95034C26.1224 7.95034 26.1224 7.95317 26.1253 7.95599C26.6321 8.57234 26.9777 9.30461 27.2109 10.0538C27.2138 10.0623 27.2167 10.0708 27.2196 10.0793C27.5738 11.2356 27.6573 12.4231 27.6515 13.2628C28.766 12.7567 29.4485 12.0471 29.7394 11.2583C29.9928 11.4364 30.2088 11.6258 30.3902 11.8266C30.3902 11.8266 30.396 11.8322 30.396 11.835C30.396 11.835 30.3988 11.8379 30.4017 11.8407C30.7732 12.2506 31.0036 12.703 31.1303 13.1808C31.1303 13.1837 31.1303 13.1865 31.1303 13.1921C31.3952 14.2297 31.1505 15.3833 30.6753 16.4803C30.5947 16.664 30.5083 16.8478 30.419 17.0288C30.419 17.0344 30.4132 17.0401 30.4104 17.0429C30.3585 17.1447 30.3067 17.2436 30.252 17.3454C30.1454 17.5433 30.0302 17.7384 29.9122 17.9278C29.8459 18.0353 29.7768 18.1399 29.7106 18.2445V18.2473C29.7019 18.2615 29.6933 18.2728 29.6847 18.2869C29.5407 18.5046 29.3938 18.7138 29.2469 18.9117C29.5666 18.8411 29.8258 18.7393 30.0475 18.6149C30.1915 18.5357 30.3211 18.4481 30.4392 18.3519C30.4708 18.3265 30.4996 18.3039 30.5313 18.2784C30.6465 18.1823 30.7559 18.0833 30.8654 17.9816C30.9345 17.9165 31.0036 17.8515 31.0727 17.7865C31.1418 18.1653 31.1908 18.5923 31.1937 19.0333C31.2109 19.0503 31.2253 19.0644 31.2426 19.0786C31.2657 19.6581 31.2196 20.3084 31.0324 20.9333C31.0756 20.9813 31.1159 21.0294 31.1591 21.0774C31.1821 21.1057 31.2052 21.1312 31.2311 21.1594C31.3866 21.3432 31.5392 21.5298 31.6861 21.7164C31.8099 21.8747 31.928 22.0331 32.0403 22.1971C32.0403 22.1971 32.0403 22.197 32.0432 22.1999C32.0432 22.1999 32.0461 22.2027 32.0461 22.2055C32.1699 22.378 32.2851 22.5505 32.4003 22.7286C32.4435 22.7964 32.4867 22.8643 32.5299 22.9321C32.7574 23.2969 32.9647 23.6701 33.1548 24.0518C33.198 24.1366 33.2383 24.2186 33.2786 24.3062C33.3074 24.3684 33.3362 24.4278 33.365 24.49C33.4284 24.6313 33.4917 24.7699 33.5493 24.9141C33.6731 25.2081 33.7826 25.505 33.8834 25.8047C34.0043 26.1609 34.108 26.52 34.1944 26.8847C34.252 27.1222 34.3038 27.3625 34.347 27.6028C34.3787 27.7781 34.4075 27.9562 34.4334 28.1344C34.4334 28.1428 34.4334 28.1513 34.4363 28.157C34.4939 28.5726 34.5313 28.991 34.5486 29.4151C34.5486 29.4547 34.5515 29.4943 34.5544 29.5367C34.5601 29.6752 34.5601 29.8138 34.5601 29.9523C34.5601 30.2068 34.5515 30.4612 34.5371 30.7157L34.5313 30.7213Z" fill="#040468"/>
<path d="M3.92513 22.2741C3.8013 22.4522 3.68035 22.6296 3.56515 22.8106C3.56515 22.8106 3.56227 22.8162 3.5594 22.8191C3.4874 22.9293 3.42117 23.0396 3.35205 23.1527C3.12743 23.5315 2.92009 23.9189 2.73002 24.3147C2.56012 24.6738 2.40749 25.0356 2.27214 25.4004C2.15983 25.7057 2.05616 26.0139 1.96688 26.3249C1.74802 27.0798 1.59827 27.8488 1.52052 28.6263C1.51764 28.6659 1.51188 28.7055 1.509 28.7451C1.47444 29.1267 1.45428 29.5112 1.45428 29.8958C1.45428 29.9156 1.45428 29.9325 1.45428 29.9523C1.45428 30.3707 1.47444 30.7835 1.51188 31.1963C1.54068 31.4988 1.58099 31.7985 1.62995 32.0954C1.73074 32.7117 1.87761 33.3168 2.06767 33.9133C2.2491 34.4845 2.47084 35.0471 2.7329 35.5984C3.5594 37.3372 4.7401 38.9007 6.25198 40.2436C7.7725 41.5979 9.54356 42.661 11.5191 43.4074C12.6969 43.8513 13.9208 44.1707 15.1735 44.3602C15.2109 44.3658 15.2484 44.3715 15.2858 44.3771C15.4759 44.4054 15.6659 44.4309 15.856 44.4506C15.9366 44.4591 16.0144 44.4676 16.095 44.4761C16.7257 44.5411 17.3621 44.5722 18.0072 44.5722C18.6523 44.5722 19.2858 44.5411 19.9136 44.4761C20.1181 44.4563 20.3225 44.4309 20.5241 44.4026C20.5961 44.3941 20.6652 44.3828 20.7372 44.3715C20.8179 44.3602 20.8985 44.346 20.982 44.3347C22.1857 44.1425 23.3607 43.8315 24.4924 43.4045C26.468 42.661 28.239 41.5951 29.7595 40.2408C31.2685 38.895 32.4521 37.3315 33.2786 35.5956C33.7019 34.705 34.0187 33.7889 34.2318 32.8503C34.3672 32.2622 34.4593 31.6656 34.5083 31.0634C34.5198 30.9475 34.5256 30.8316 34.5342 30.7157C34.5486 30.464 34.5572 30.2096 34.5572 29.9523C34.5572 29.8138 34.5572 29.6752 34.5515 29.5367C34.5515 29.4971 34.5486 29.4575 34.5457 29.4151C34.5284 28.9939 34.491 28.5726 34.4334 28.157C34.4334 28.1485 34.4334 28.14 34.4305 28.1344C34.4046 27.9562 34.3787 27.7809 34.3441 27.6028C34.3009 27.3625 34.2491 27.1222 34.1915 26.8847C34.1051 26.52 34.0014 26.1609 33.8805 25.8047C33.7797 25.505 33.6703 25.2081 33.5464 24.9141C33.486 24.7727 33.4255 24.6313 33.3621 24.49C33.3333 24.4278 33.3074 24.3684 33.2757 24.3062C33.2354 24.2214 33.1951 24.1366 33.1519 24.0518C32.9618 23.6701 32.7516 23.2969 32.527 22.9321C32.4838 22.8643 32.4406 22.7964 32.3974 22.7286C32.2851 22.5533 32.167 22.378 32.0432 22.2055C32.0432 22.2055 32.0432 22.2027 32.0403 22.1999C32.0403 22.1999 32.0403 22.1999 32.0374 22.1971C31.9222 22.0359 31.8042 21.8747 31.6832 21.7164C31.5364 21.527 31.3866 21.3404 31.2282 21.1594C31.2052 21.1312 31.1821 21.1057 31.1562 21.0774C31.1159 21.0294 31.0727 20.9813 31.0295 20.9333C31.0266 20.9276 31.0209 20.9248 31.018 20.9219C30.9834 20.8824 30.9489 20.8456 30.9143 20.806C30.9489 20.7127 30.9806 20.6194 31.0065 20.5233C31.0785 20.2773 31.1245 20.0229 31.1533 19.7656C31.1821 19.5196 31.1908 19.2736 31.1879 19.0305C31.1821 18.5894 31.1361 18.1597 31.067 17.7837C30.995 17.8487 30.9258 17.9137 30.8596 17.9787C30.7502 18.0805 30.6407 18.1823 30.5256 18.2756C30.4968 18.301 30.4651 18.3237 30.4334 18.3491C30.3125 18.4424 30.1857 18.5329 30.0418 18.612C29.82 18.7336 29.5608 18.8354 29.2412 18.9089C29.388 18.711 29.5349 18.5018 29.6789 18.2841C29.6875 18.2699 29.6962 18.2586 29.7048 18.2445C29.7048 18.2445 29.7048 18.2445 29.7048 18.2417C29.7739 18.1371 29.8402 18.0325 29.9064 17.925C30.0245 17.7356 30.1368 17.5405 30.2462 17.3426C30.3009 17.2436 30.3528 17.1419 30.4046 17.0401C30.4046 17.0344 30.4104 17.0288 30.4132 17.0259C30.5054 16.845 30.5918 16.6612 30.6695 16.4774C31.1447 15.3805 31.3895 14.2269 31.1245 13.1893C30.9806 12.6917 30.7329 12.2365 30.3902 11.8322C30.3902 11.8322 30.3844 11.8266 30.3844 11.8237C30.2001 11.623 29.9842 11.4336 29.7336 11.2554C29.4428 12.0414 28.7603 12.7511 27.6458 13.26C27.6515 12.4203 27.568 11.2328 27.2138 10.0765C27.1649 9.92096 27.1102 9.76546 27.0497 9.60996C26.802 8.97382 26.4939 8.41967 26.1224 7.95316C26.1224 7.95316 26.1224 7.95034 26.1195 7.94751C25.6069 7.32551 24.9273 6.82225 24.0317 6.54235C23.9597 7.20111 23.9942 8.32637 23.2109 8.87769C23.1389 8.49035 23.041 8.11998 22.8826 7.76091C22.8826 7.76091 22.8826 7.76939 22.8826 7.77505C22.7415 7.46404 22.5544 7.15022 22.2952 6.83921C22.2952 6.83921 22.2894 6.83073 22.2837 6.82508L20.6883 5.01844C20.6422 4.96755 20.599 4.91666 20.5558 4.86576C20.5472 4.85446 20.5385 4.84597 20.5299 4.83466C20.5212 4.82618 20.5155 4.8177 20.5068 4.80922C19.6631 3.83098 19.1274 2.92342 18.8308 1.9791L18.8135 1.92538C18.8135 1.92538 18.8107 1.91408 18.8078 1.90842C18.7847 1.84057 18.7646 1.76988 18.7444 1.70203C16.9129 2.98562 17.0252 4.36251 16.9129 5.86663C16.8726 6.3925 16.7516 6.89576 16.3513 7.4075C15.7437 6.42926 14.9086 5.48777 13.103 5.17959C13.5695 6.74026 12.933 10.4497 11.2138 11.7615C11.2081 11.541 11.1044 11.2865 10.9201 11.0377C10.9201 11.0377 10.9172 11.0434 10.9143 11.0434C10.8711 10.9812 10.8222 10.9162 10.7703 10.8568C10.3125 10.3479 9.53492 9.90399 8.61915 9.87855C8.39165 11.8492 8.1987 13.8339 7.08423 15.7169L6.34989 14.9592C6.18862 14.7924 5.82577 14.6567 5.50036 14.5634L4.81209 16.5623L4.78618 16.6386C4.68826 16.927 4.59323 17.2125 4.50972 17.5009C4.44348 17.7299 4.38589 17.9589 4.33981 18.1908C4.29374 18.4283 4.25918 18.6658 4.2419 18.9089V18.9541C4.22462 19.1719 4.2275 19.3896 4.2419 19.6073C4.25342 19.7797 4.27358 19.9494 4.2995 20.119C4.30525 20.1501 4.31102 20.1812 4.31677 20.2123C4.31965 20.2349 4.32541 20.2547 4.32829 20.2773C4.33405 20.3028 4.33981 20.3282 4.34557 20.3537C4.34557 20.3621 4.34845 20.3678 4.35133 20.3763C4.40317 20.6081 4.4694 20.8371 4.5558 21.0633C4.58747 21.1453 4.61915 21.2273 4.65659 21.3121C4.55292 21.4365 4.45212 21.5609 4.35133 21.6881C4.21886 21.8578 4.09215 22.0274 3.9712 22.2027C3.9568 22.2225 3.94528 22.2423 3.93089 22.2593L3.92225 22.2706L3.92513 22.2741Z" fill="#FFCE00"/>
<path d="M31.2426 19.0899C31.2253 19.0729 31.2109 19.0588 31.1937 19.0446C31.1965 19.2878 31.185 19.5337 31.1591 19.7797C31.1303 20.037 31.0814 20.2915 31.0122 20.5374C30.9863 20.6336 30.9546 20.7269 30.9201 20.8202C30.9546 20.8597 30.9892 20.8965 31.0238 20.9361C31.0266 20.9417 31.0324 20.9446 31.0353 20.9474C31.2225 20.3226 31.2685 19.6723 31.2455 19.0927L31.2426 19.0899ZM22.2145 6.75439L20.6192 4.95058C20.599 4.92797 20.5788 4.90252 20.5558 4.8799C20.599 4.93076 20.6422 4.98171 20.6883 5.03258L22.2837 6.83921C22.2606 6.81094 22.2376 6.78549 22.2145 6.75722V6.75439ZM3.31749 20.6873C3.31749 20.6873 3.31174 20.6929 3.31174 20.6958C3.33765 20.8032 3.36645 20.9078 3.39813 21.0124C3.36933 20.905 3.34053 20.7975 3.31749 20.6873Z" fill="#040468"/>
<path d="M10.8654 14.5662L25.7826 14.4361L23.8906 31.9908L13.1519 31.3207L10.8654 14.5662Z" fill="#040468"/>
<path d="M26.5975 35.2111C26.4132 35.6917 26.1195 36.3024 25.5752 36.5682C25.5608 37.3344 25.3967 38.2136 24.6422 38.9092C24.3888 39.141 24.2678 39.4435 24.0806 39.9581L24.0432 40.0599C23.7552 40.8402 23.378 41.6036 22.8596 42.4602C22.8308 42.5111 22.7963 42.5592 22.7646 42.6101L22.7703 42.9437C22.779 43.3678 22.7559 43.7806 22.7243 44.1877C22.6177 44.2047 22.514 44.2216 22.4075 44.2358C22.3153 44.2499 22.2232 44.2612 22.131 44.2754C21.8661 44.3121 21.6012 44.3432 21.3362 44.3687C20.5184 44.4506 19.6919 44.4931 18.8567 44.4931C18.0216 44.4931 17.1922 44.4506 16.3715 44.3687C16.2678 44.3602 16.1641 44.3489 16.0605 44.3347C15.8128 44.3064 15.5652 44.2754 15.3204 44.2386C15.2714 44.2329 15.2225 44.2245 15.1735 44.216C15.2138 44.0831 15.2513 43.9841 15.2829 43.8937C15.3521 43.6986 15.3924 43.5911 15.424 42.808C15.4384 42.3415 15.3175 41.9344 15.0986 41.7167C14.7876 41.4028 14.3153 41.1399 13.9006 40.9109C13.365 40.614 12.9014 40.1843 12.4492 39.5623C11.4068 38.1317 12.0605 36.5286 12.5414 35.3581L12.5558 35.3213L12.8524 34.5947C12.8495 34.5664 12.8467 34.5382 12.8438 34.5071C12.8207 34.2554 12.8351 33.9982 12.8927 33.7352C12.8985 33.7069 12.9071 33.6758 12.9129 33.6447C12.8121 33.6306 12.7171 33.6108 12.6249 33.5854C12.2793 33.4864 12 33.3083 11.7984 33.0482C11.6112 32.8107 11.3377 32.299 11.5997 31.5497C11.6717 31.3462 11.7495 31.1454 11.8387 30.9475C12.1901 30.1587 12.671 29.4151 13.2383 28.7846C13.4284 28.5726 13.6271 28.3747 13.8344 28.1909C13.8891 28.1428 13.9438 28.0919 14.0014 28.0467C14.0475 28.0071 14.0965 27.9676 14.1454 27.9308C14.1483 27.9308 14.1512 27.9251 14.1541 27.9223C14.2865 27.8177 14.4219 27.7131 14.5572 27.6085C14.9806 27.2862 15.4096 26.9695 15.833 26.6585C16.5846 26.1044 17.2959 25.5813 17.9352 25.0498C18.2405 24.7953 18.5716 24.6144 18.9172 24.5069C19.0842 24.4561 19.2541 24.4221 19.4269 24.4052C19.45 24.4052 19.4701 24.3995 19.4932 24.3995C20.0864 24.3571 20.6767 24.5183 21.2642 24.8745C21.2757 24.8802 21.2873 24.8886 21.2988 24.8943C21.3708 24.9395 21.4428 24.9848 21.5119 25.0357C21.532 25.0498 21.5522 25.0639 21.5752 25.0809C21.7883 25.2364 22.0014 25.4173 22.2117 25.6237C22.3614 25.7707 22.514 25.9319 22.6638 26.1072C22.6926 26.1411 22.7214 26.1722 22.7502 26.2062C23.0583 26.5624 23.3722 26.913 23.689 27.2494C24.023 27.6057 24.3629 27.9506 24.6998 28.2786C25.0396 28.6093 25.2757 28.9712 25.4428 29.3473C25.725 29.9693 25.82 30.6224 25.9035 31.185C25.9784 31.6826 26.0475 32.1548 26.2203 32.5025C26.4996 33.0595 27.018 34.0971 26.5918 35.2111H26.5975Z" fill="#040468"/>
<path d="M25.509 32.7089C25.3132 32.3131 25.2412 31.8381 25.1663 31.3349C25.1548 31.25 25.1404 31.1624 25.126 31.0776C25.0108 30.3453 24.8351 29.5565 24.2016 28.9401C23.6947 28.4482 23.1908 27.9223 22.6983 27.3682C22.5601 27.2127 22.4219 27.0543 22.2837 26.896C21.9496 26.5087 21.6184 26.2005 21.2873 25.9715C21.2613 25.9545 21.2383 25.9376 21.2124 25.9234C20.959 25.7566 20.7084 25.6407 20.4579 25.57C20.2333 25.505 20.0086 25.4824 19.7869 25.4965C19.6832 25.505 19.5824 25.5191 19.4816 25.5446C19.1879 25.6152 18.9057 25.7623 18.6436 25.98C18.3125 26.257 17.9525 26.5341 17.5868 26.8112C17.2844 27.0402 16.9762 27.2664 16.6739 27.4897C16.3485 27.7301 16.0144 27.976 15.6861 28.222C15.4989 28.3634 15.3146 28.5047 15.1332 28.6489C14.8395 28.8808 14.563 29.1437 14.3038 29.4377C13.8978 29.8986 13.5464 30.4245 13.2671 30.9843C13.1404 31.2415 13.0281 31.5045 12.9359 31.7703C12.7804 32.2113 12.9071 32.5053 13.0367 32.675C13.3737 33.1047 14.0187 33.0595 14.2318 33.0425C14.2981 33.0369 14.3614 33.0312 14.4132 33.0256C14.1886 33.4497 14.0763 33.8738 14.1138 34.2894C14.1339 34.5099 14.2117 34.6908 14.324 34.8435L14.0706 34.6569L13.7999 35.3185C13.3794 36.3448 12.8582 37.6227 13.6559 38.7169C14.0302 39.2286 14.4017 39.5764 14.8308 39.8139C15.2455 40.0429 15.7149 40.3058 16.0576 40.6508C16.3629 40.9561 16.527 41.465 16.5097 42.039C16.478 42.8476 16.4291 42.9805 16.3513 43.2038C16.2765 43.4074 16.1785 43.6816 16.0605 44.3404C16.1641 44.3517 16.2678 44.363 16.3715 44.3743C17.1922 44.4563 18.0187 44.4987 18.8567 44.4987C19.6947 44.4987 20.5184 44.4563 21.3362 44.3743C21.6012 44.3489 21.8661 44.3149 22.131 44.281C22.1425 44.1707 22.1541 44.0463 22.1656 43.9106L22.1829 43.6986C22.2261 43.1982 22.2693 42.6808 22.2577 42.1605L22.2491 41.6827C22.3096 41.6036 22.3643 41.5216 22.4132 41.4368C22.8769 40.6706 23.2109 39.992 23.4672 39.3022L23.5018 39.206C23.6775 38.7254 23.8186 38.3437 24.1584 38.0327C24.838 37.4107 24.8812 36.5569 24.8495 35.85C24.8639 35.85 24.8755 35.85 24.8898 35.85C25.2729 35.8218 25.5752 35.491 25.8344 34.8096C26.1483 33.9868 25.748 33.1896 25.509 32.7117V32.7089ZM16.167 37.0601C16.1411 37.0997 16.1181 37.1364 16.0979 37.1789C16.0835 37.1195 16.0662 37.0658 16.0432 37.012C16.0835 37.0318 16.1238 37.046 16.167 37.0629V37.0601Z" fill="#F4F4F4"/>
<path d="M19.0266 42.8843C18.396 42.6299 17.9813 42.0955 17.2556 41.9966C17.2383 41.9966 17.221 41.9966 17.2009 41.9966C17.1663 41.9966 17.1346 42.005 17.1289 42.0135C16.982 42.1492 17.7826 42.7967 17.9928 42.9437C18.18 43.0738 18.5169 43.1755 18.7703 43.1557C18.8942 43.1473 18.9978 43.1105 19.0554 43.0342C19.0727 43.0116 19.0842 42.9069 19.0266 42.8843ZM21.725 33.7494C21.8747 33.8116 22.0245 33.8738 22.1685 33.9303C22.18 33.936 22.1944 33.936 22.2059 33.936C22.2981 33.9303 22.3643 33.7663 22.3672 33.69C22.3672 33.6843 22.3672 33.6758 22.3672 33.6674L21.725 33.7494ZM19.0266 42.8843C18.396 42.6299 17.9813 42.0955 17.2556 41.9966C17.2383 41.9966 17.221 41.9966 17.2009 41.9966C17.1663 41.9966 17.1346 42.005 17.1289 42.0135C16.982 42.1492 17.7826 42.7967 17.9928 42.9437C18.18 43.0738 18.5169 43.1755 18.7703 43.1557C18.8942 43.1473 18.9978 43.1105 19.0554 43.0342C19.0727 43.0116 19.0842 42.9069 19.0266 42.8843ZM19.0266 42.8843C18.396 42.6299 17.9813 42.0955 17.2556 41.9966C17.2383 41.9966 17.221 41.9966 17.2009 41.9966C17.1663 41.9966 17.1346 42.005 17.1289 42.0135C16.982 42.1492 17.7826 42.7967 17.9928 42.9437C18.18 43.0738 18.5169 43.1755 18.7703 43.1557C18.8942 43.1473 18.9978 43.1105 19.0554 43.0342C19.0727 43.0116 19.0842 42.9069 19.0266 42.8843ZM25.6991 32.8107C25.5378 32.4884 25.4744 32.053 25.4053 31.5921C25.3592 31.2811 25.3074 30.939 25.2181 30.5913C25.0713 30.0089 24.815 29.4095 24.288 28.9006C23.784 28.4114 23.2801 27.8856 22.7905 27.3342C22.6609 27.1872 22.5313 27.0402 22.4017 26.8904C22.0965 26.5341 21.7883 26.2372 21.4773 25.9998C21.3996 25.9404 21.3218 25.8838 21.2441 25.8329C21.031 25.6916 20.8179 25.5785 20.6019 25.4937C20.2246 25.3438 19.8474 25.2816 19.4672 25.3099C19.3924 25.3155 19.3204 25.324 19.2484 25.3353C18.8078 25.406 18.396 25.6011 18.0216 25.9121C17.7106 26.1722 17.3823 26.4267 17.0396 26.6868C16.7286 26.9215 16.406 27.1589 16.0778 27.4021C15.9194 27.518 15.7581 27.6368 15.5997 27.7555C15.2397 28.0241 14.8769 28.2955 14.5256 28.5698C14.4104 28.6602 14.2952 28.7564 14.1857 28.8581C13.5436 29.4406 12.9878 30.1728 12.5731 30.9758C12.4147 31.284 12.2765 31.6034 12.1613 31.9286C11.9194 32.6241 12.1728 33.0963 12.3456 33.3168C12.4262 33.4214 12.5212 33.5119 12.6278 33.5882C12.7084 33.6476 12.7977 33.6956 12.8956 33.738C13.0396 33.8002 13.2009 33.8455 13.3765 33.8709C13.3103 34.1423 13.2901 34.4081 13.3132 34.6682C13.3132 34.6965 13.3189 34.7219 13.3218 34.7474L13.0454 35.4203L13.031 35.4542C12.5875 36.5371 11.9798 38.0214 12.9446 39.3474C13.365 39.9213 13.7912 40.3172 14.2894 40.5942C14.6724 40.8091 15.1102 41.0494 15.3981 41.3406C15.5997 41.5442 15.712 41.9202 15.7005 42.3528C15.6717 43.0794 15.6371 43.1784 15.5709 43.3565C15.5047 43.5374 15.4212 43.7721 15.3233 44.2386C15.568 44.2754 15.8157 44.3064 16.0634 44.3347C16.167 44.346 16.2707 44.3573 16.3744 44.3687C16.5875 43.4045 16.7027 43.7664 16.7574 42.3867C16.7775 41.7364 16.6019 41.0636 16.1555 40.6168C15.7725 40.2323 15.2916 39.9581 14.8107 39.6923C14.396 39.4605 14.0734 39.1127 13.8056 38.7423C13.1692 37.8715 13.6184 36.8028 14.0274 35.8048C14.442 36.1101 14.8279 35.9999 14.7617 36.3505C14.6321 37.0347 15.5076 37.3683 15.2657 37.9309C14.7991 39.0194 16.3053 39.3955 17.0799 39.435C17.1174 39.435 17.1548 39.435 17.1922 39.435C17.2988 39.4266 17.4082 39.4068 17.5119 39.3983C17.5896 39.3926 17.6674 39.3955 17.7365 39.4181C17.4917 39.7008 17.1461 39.975 17.149 40.2578C17.149 40.6084 17.5983 41.5668 17.7912 41.5555C17.8027 41.5555 17.8114 41.5499 17.8229 41.5442C17.8978 41.482 17.7768 41.1936 17.7451 40.9957C17.676 40.5292 17.7365 40.2408 17.9698 39.8252C18.1886 39.435 18.6494 39.0675 19.1274 38.9487C19.7811 38.683 20.2909 38.7932 20.4089 38.7848C20.455 38.7819 20.4924 38.765 20.5097 38.731C20.5385 38.6717 20.55 38.5642 20.455 38.5133C19.8157 38.1712 19.7955 38.2023 18.1051 38.6462C17.8805 38.7395 17.6213 38.8017 17.365 38.8187C17.0425 38.8413 16.7228 38.7932 16.478 38.6519C16.0749 38.4116 16.0864 37.9026 16.432 37.5351C16.9705 36.964 17.9093 36.1412 18.7012 36.0847C18.7156 36.0847 18.73 36.0847 18.7473 36.0847C19.4471 36.0621 20.0749 36.2345 20.7286 36.4381C20.9791 36.5173 21.2383 36.5257 21.4975 36.5371H21.5032C21.5896 36.5314 21.6501 36.2685 21.5551 36.2232C20.743 35.8302 19.8647 35.4797 18.923 35.4146C18.8423 35.409 18.7646 35.409 18.6839 35.4146C17.7279 35.4825 16.8351 36.3307 16.0864 36.9216C15.4644 36.7435 15.7235 35.9971 16.0518 35.6069C16.4147 35.1715 16.7977 34.7474 17.1951 34.3374C17.5666 33.9501 17.9496 33.5741 18.3441 33.2093C18.563 33.0058 18.8222 32.921 19.0439 32.904C19.1274 32.8983 19.2023 32.904 19.2714 32.9153C20.0893 33.0595 20.9388 33.4355 21.7221 33.7607C21.8719 33.8229 22.0216 33.8851 22.1656 33.9416C22.1771 33.9473 22.1915 33.9473 22.203 33.9473C22.2952 33.9416 22.3614 33.7776 22.3643 33.7013C22.3643 33.6956 22.3643 33.6872 22.3643 33.6787C22.3557 33.5854 22.2606 33.4695 22.1656 33.4044C21.3074 32.8305 20.406 32.3385 19.3463 32.1152C19.2657 32.1067 19.185 32.1039 19.1073 32.1095C18.5227 32.1519 17.9698 32.5591 17.5752 32.9464C17.198 33.3196 16.8553 33.8031 16.4377 34.1791C16.3312 34.2752 16.2275 34.3742 16.1238 34.4731C15.8157 34.7757 15.522 35.0951 15.2253 35.409C14.8711 35.2195 14.4046 34.999 14.3672 34.5806C14.3182 34.0519 14.6235 33.4666 15.09 32.8899C15.9453 31.8353 17.3391 30.8146 18.0821 30.2379C18.4852 29.9269 18.9374 29.6554 19.4154 29.6215C19.5968 29.6074 19.784 29.63 19.9741 29.695C20.5817 29.9212 21.1375 30.2294 21.6789 30.5658C22.059 30.809 22.4881 30.9843 22.9057 31.1652C22.9143 31.1709 22.923 31.1709 22.9316 31.1709C23.018 31.1652 23.0209 30.9051 22.9431 30.8231C22.5169 30.3962 22.0763 29.9834 21.5896 29.6215C20.9186 29.0985 20.2016 28.7846 19.4471 28.8355C18.9374 28.8723 18.4075 29.0758 17.8632 29.5028C17.3333 29.9721 16.7948 30.4329 16.2505 30.8853C15.7869 31.2755 15.3434 31.6741 14.9114 32.0897C14.6609 32.3301 14.4132 32.5789 14.1713 32.8305C14.1109 32.8361 14.0216 32.8475 13.9208 32.8559C13.5263 32.8842 12.959 32.8503 13.1605 32.2679C13.3218 31.8098 13.5464 31.3462 13.8287 30.9079C14.0158 30.6139 14.2261 30.334 14.4593 30.0739C14.6839 29.8223 14.9287 29.5876 15.1879 29.384C15.3175 29.2822 15.4528 29.1776 15.5853 29.0758C16.4032 28.451 17.2729 27.8375 18.0677 27.2211C18.2865 27.0515 18.5025 26.879 18.7099 26.7066C18.9892 26.4747 19.2714 26.3645 19.5479 26.3475C20.3715 26.2881 21.1375 27.0232 21.5983 27.5632C21.6213 27.5887 21.6443 27.617 21.6674 27.6424C22.2664 28.3351 22.8942 29.0052 23.5508 29.6413C24.5299 30.5913 24.1901 32.0926 24.7372 33.2348C24.7372 33.2348 24.7487 33.2602 24.7545 33.2715C24.9993 33.7607 25.2844 34.3685 25.0598 34.9566C24.9935 35.1347 24.7804 35.6465 24.5702 35.6634C24.55 35.6634 24.527 35.6634 24.5068 35.6521C24.3571 35.5814 24.3053 35.3439 24.1382 35.2959C24.1296 35.2959 24.1209 35.2931 24.1094 35.2959C24.0576 35.2987 24 35.3496 24 35.4259C24.0115 36.2289 24.2563 37.3089 23.5162 37.9903C23.0583 38.4116 22.8913 38.9148 22.6897 39.4605C22.4248 40.1814 22.0821 40.843 21.6789 41.5074C21.3679 42.022 20.8582 42.4404 20.2851 42.6638C20.3456 42.8193 20.4608 42.8674 20.599 42.8589C20.8726 42.8391 21.2354 42.6016 21.4485 42.5083C21.46 43.0709 21.4024 43.6392 21.3564 44.2075C21.3506 44.2697 21.3477 44.3262 21.342 44.3828C21.6069 44.3573 21.8718 44.3234 22.1368 44.2895C22.2289 44.2782 22.3211 44.264 22.4132 44.2499C22.419 44.1934 22.4219 44.134 22.4276 44.0774C22.4708 43.5629 22.5169 43.0342 22.5054 42.4885L22.4996 42.1803C22.5313 42.1351 22.5601 42.087 22.5889 42.0418C23.0698 41.2473 23.4183 40.5405 23.6832 39.8195L23.7178 39.7234C23.8934 39.2484 24.0029 38.9685 24.2361 38.7537C24.9359 38.1119 25.0886 37.2948 25.103 36.588C25.6069 36.342 25.8805 35.7765 26.0504 35.3326C26.4449 34.3035 25.964 33.3422 25.7048 32.8248L25.6991 32.8107Z" fill="#040468"/>
</svg>
