<?xml version="1.0" encoding="UTF-8"?>
<svg id="Layer_2" data-name="Layer 2" xmlns="http://www.w3.org/2000/svg" xmlns:xlink="http://www.w3.org/1999/xlink" viewBox="0 0 1237.78 822.81">
  <defs>
    <style>
      .cls-1 {
        fill: none;
      }

      .cls-2 {
        fill: #ffce00;
        stroke: #c82127;
        stroke-miterlimit: 10;
        stroke-width: 6px;
      }

      .cls-3 {
        clip-path: url(#clippath);
      }
    </style>
    <clipPath id="clippath">
      <rect class="cls-1" x="41.01" y="5.75" width="1128.54" height="784.06"/>
    </clipPath>
  </defs>
  <g id="Layer_1-2" data-name="Layer 1">
    <g class="cls-3">
      <path class="cls-2" d="M16.02,225.65c-5.62-3.9-18.73-19.34-8.62-11.39-11.46-34.16-4.51-85.73,69.71-92.87,1.39,19.87,12.44,39.04,28.1,54.76,11.96-40,40.26-94.07,104.58-93.21-3.02,14.68-8.25,31.84,3.25,45.28,6.39-11.81,15.22-23.6,28.86-31.43,13.63-8.21,27.15-16.53,40.54-24.98,22.8-15.05,40.96-30.89,55.45-51.13,23.81,24.68,21.24,47.14,13.95,75.11-2.47,9.47-.63,17.9,2.94,27.12,20.54-19.23,44.64-30.68,76.28-36.15-15.8,23.59-7.81,34.87,4.44,52.28,38.61,16.02,97.41-18.81,67.88-56.01,28.21,2.2,50.25,9.33,67.26,27.14,5.7-8.2,10.24-15.97,10.41-25.33.52-28.04,6.58-48.11,34.41-68.53,9.32,18.3,22.93,31.95,41.7,45.36,11.21,7.47,22.49,14.87,33.82,22.22,10.88,6.97,17.31,16.71,20.52,27.12,13.88-8.68,14.14-23.72,14.85-36.15,34.6,3.43,99.91,51.75,109.05,62.11,1.98-.17,2.97-.24,4.95-.41,2.44-2.89,41.6-62.72,29.65-87.51,28.15,3.3,49.93,11.6,66.96,29.34,7.5-6.76,9.5-13.49,9.72-20.49.76-23.99,4.02-40.03,32.31-53.85,8.25,18.56,24.75,34.13,41.21,48.8,11.09,9.55,22.07,19.19,32.87,28.94,9.28,9.56,16.32,18.87,20.03,30.55,13.72-4.59,13.19-17.21,13.53-26.89,48.64,21.53,72.98,68.14,75.74,109.34,12.69.5,30.01,2.26,37.07-8.27,29.39,30.62,48.43,69.57-1.3,93.73,10.64,3.86,21.23,4.68,32.69,3.4,2.65,10.54,11.39,39.86-10.59,43.77-12.65,2.25-26.12,2.61-39.62,2.2v490.19H7.39V296.53c-6.68-23.42-3.17-47.92,8.62-70.88"/>
    </g>
  </g>
</svg>