<?xml version="1.0" encoding="UTF-8"?>
<svg id="Layer_2" data-name="Layer 2" xmlns="http://www.w3.org/2000/svg" xmlns:xlink="http://www.w3.org/1999/xlink" viewBox="0 0 707.7 581.5">
  <defs>
    <style>
      .cls-1 {
        fill: #ffce00;
        stroke: #040468;
        stroke-miterlimit: 10;
        stroke-width: 5px;
      }

      .cls-2 {
        filter: url(#drop-shadow-1);
      }
    </style>
    <filter id="drop-shadow-1" x="2.74" y="0" width="698.96" height="581.5" filterUnits="userSpaceOnUse">
      <feOffset dx="6" dy="0"/>
      <feGaussianBlur result="blur" stdDeviation="0"/>
      <feFlood flood-color="#0c0060" flood-opacity="1"/>
      <feComposite in2="blur" operator="in"/>
      <feComposite in="SourceGraphic"/>
    </filter>
  </defs>
  <g id="Layer_1-2" data-name="Layer 1">
    <g class="cls-2">
      <g>
        <path class="cls-1" d="M62.02,2.66c5.33.05,12.31,1.86,20.88,5.67,1.03.45,1.85.68,2.47.69.52,0,2.09-.62,4.71-1.91.84-.43,1.73-.64,2.66-.63,3.47.04,7.05,3.96,10.72,11.95,3.67,7.99,5.4,15.67,5.22,22.87-.11,4.2-1.06,7.7-2.86,10.46-1.8,2.76-3.94,4.04-6.42,3.86-2.06-.15-3.73-.87-4.99-2.14-1.26-1.27-4.01-4.99-8.26-11.01-6-8.53-12.01-12.78-18-13.06-2.89-.14-5.22.71-6.98,2.51-1.76,1.8-2.67,4.23-2.73,7.3-.11,6.08,3.77,10.93,11.52,14.73,10.52,5.17,17.28,9.11,20.21,11.43,13.23,9.88,19.7,27.36,18.68,42.87-.89,13.44-3.56,26.83-14.33,36.72-9.65,8.86-23.36,10.32-35.6,7.12-6.32-1.65-13.12-4.42-20.14-8.35-7.02-3.93-12.08-7.68-15.13-11.2-2.35-2.71-4.44-7.87-6.3-15.31-1.86-7.45-2.78-14.41-2.75-20.99.02-3.16.54-5.46,1.54-6.89,1.26-1.82,2.85-2.61,4.75-2.27,1.91.33,3.73,1.93,5.46,4.82,1.04,1.64,3.48,6.74,7.29,15.51,1.8,4.13,4.7,7.88,8.7,11.26,3.99,3.38,8.15,5.57,12.47,6.48,3.72.78,6.77.44,9.13-1.05,2.36-1.48,3.58-3.77,3.64-6.83.06-2.84-.8-5.46-2.59-7.82-1.78-2.37-4.71-4.78-8.78-7.22-7.18-4.37-12.64-8.11-16.39-11.28-3.75-3.17-7.24-6.91-10.48-11.2-7.2-9.44-11.81-20.87-11.74-32.85.03-5.71,1.12-11.19,3.26-16.51,2.14-5.33,5.17-9.94,9.08-13.87C38.32,7.71,49.86,2.56,62.02,2.66Z"/>
        <path class="cls-1" d="M213.98,90.36c4.63,17.14,9.26,34.28,13.89,51.42,1.34,4.78,2.47,7.94,3.39,9.48.92,1.54,2.37,2.65,4.31,3.29,3.76,1.24,5.65,4.43,5.56,9.63-.11,6.13-2.52,10.35-7.24,12.6-4.72,2.25-12.38,2.85-22.95,1.67-11.94-1.33-20.75-3.25-26.41-5.55-2.6-1.06-4.66-2.83-6.15-5.26-1.49-2.42-2.2-5.2-2.12-8.34.06-2.42.51-4.24,1.35-5.47.84-1.23,2.39-2.27,4.6-3.15,2.49-.99,3.78-3.06,3.85-6.14.13-5.43-1.94-8.9-6.13-10.28-4.48-1.48-10.92-2.63-19.15-3.6-6.93-.82-11.07-.71-12.45.37-.85.68-1.61,2-2.29,3.95-.68,1.96-1.04,3.87-1.08,5.75-.04,1.72.15,2.87.58,3.44.43.57,1.86,1.67,4.26,3.15,3.07,1.88,4.58,5.01,4.54,9.2-.1,11.63-14.43,12.09-22.53,10.35-8.03-1.72-14.5-3.52-18.32-5.94-3.55-2.25-5.26-6.09-5.12-11.43.06-2.33.5-4.06,1.33-5.2.83-1.14,2.29-2.05,4.36-2.77,3.38-1.16,5.98-3.22,7.79-6.12,1.81-2.9,4.44-9.31,7.92-19.38,4-11.57,7.96-23.15,11.88-34.75,3.19-9.69,6.54-19.4,8.9-29.31,1.56-6.54,2.43-13.05,2.64-19.43.23-6.76.62-11.46,1.18-14.09.56-2.63,1.73-5.19,3.51-7.7,3.72-5.49,8.36-8.27,13.92-8.25,5.24.02,10.32,3.22,14.81,9.64,15.08,21.59,20.42,53.05,27.37,78.22ZM159.1,101.61c6.12.57,9.18.85,15.32,1.38,2.82.24,4.25-.61,4.3-2.54.06-2.66-1.74-9.36-5.39-19.98-1.66-4.85-2.93-8.09-3.83-9.75-.9-1.66-1.87-2.51-2.91-2.58-1.87-.11-3.5,2.46-4.88,7.69-.23.7-1.05,3.47-2.48,8.28-2.39,7.91-3.6,12.62-3.64,14.2-.05,1.98,1.12,3.08,3.51,3.3Z"/>
        <path class="cls-1" d="M296.6,63.22c-.18,19.64-.37,39.27-.55,58.91-.12,13.26.5,21.87,1.91,25.74,1.68,4.58,5.39,7,11.04,7.16,6.07.17,10.88-1.87,14.42-6.11,3.53-4.23,6.05-10.95,7.42-20.02.84-5.55,2.63-8.36,5.44-8.34,2.81.02,5.1,2.08,6.87,6.18,1.77,4.1,2.61,9.47,2.65,15.97.07,11.92-3.54,23.02-7.42,34.18-1.56,3.86-2.94,6.49-4.12,7.89-1.18,1.4-2.61,2.09-4.27,2.06-7.13-1.52-10.7-2.3-17.82-3.91-18.69-.66-37.33-1.64-55.98-2.93-3.67-.27-6.24-1.17-7.71-2.62-2.13-2.11-3.19-5.1-3.12-8.97.04-2.35.43-4.07,1.16-5.15.74-1.08,2.5-2.59,5.29-4.49,3.04-2.07,5.26-5.31,5.96-9.25,1.67-9.51,1.32-20.19,1.49-30.25.19-11.17.15-22.42.11-33.63-.04-10.57-.11-21.19,0-31.72.07-6.73-.15-11.4-.77-13.9-.61-2.5-1.96-4.32-4.03-5.45-3.41-1.99-5.58-3.58-6.49-4.77-1.63-2.13-2.42-4.53-2.38-7.22.11-6.13,3.37-10.75,9.68-13.94,5.39-2.73,12.59-4.15,21.58-4.13,10.08.02,17.65.86,22.58,2.61,6.4,2.26,9.62,6.97,9.57,13.92-.02,2.83-.47,4.93-1.34,6.3-.87,1.37-2.99,3.2-6.35,5.49-2,1.44-3.27,3.91-3.83,7.42-.56,3.5-.89,11.16-1,22.97Z"/>
        <path class="cls-1" d="M444.64,46.35c-11.54,39.95-23.13,79.88-34.87,119.77-2.17,7.45-4.26,12.61-6.27,15.47-2.01,2.86-4.57,4.36-7.67,4.46-2.57.09-4.88-.75-6.93-2.49-1.56-1.33-2.79-2.91-3.68-4.74-.89-1.83-2.02-5.13-3.38-9.92-11.13-38.64-22.02-77.35-32.73-116.11-1.78-6.55-3.38-11.01-4.82-13.38-1.43-2.37-3.5-3.94-6.15-4.73-3.12-.93-4.69-4.14-4.67-9.57.02-6.63,2.77-11.72,8.24-15.29,5.47-3.57,13.29-5.36,23.48-5.36,10.6,0,18.4,1.33,23.41,3.98,5.01,2.65,7.54,6.76,7.58,12.34.03,3.6-1.3,6.99-4,10.06-2.04,2.33-3.1,4.53-3.09,6.59.01,1.89.5,4.59,1.46,8.1,3.34,12.06,6.71,24.12,10.11,36.17,1.47,5.29,3.1,7.91,4.89,7.88,1.74-.04,3.28-1.48,4.62-4.33,1.34-2.85,3.13-8.45,5.35-16.78,3.99-14.94,6.29-23.72,6.93-26.41.65-2.69.96-4.76.94-6.21-.03-2.89-1.31-5.35-3.76-7.38-2.74-2.26-4.14-5.23-4.16-8.8-.08-12.44,15.01-15.58,24.7-15.29,7.99.24,14.11,1.04,17.55,3.17,3.44,2.13,5.21,5.78,5.3,10.98.11,6.21-2.1,9.85-6.53,10.79-3.13.66-5.22,1.51-6.14,2.62-1.64,1.97-3.55,6.76-5.73,14.41Z"/>
        <path class="cls-1" d="M550.43,86.2c5.25,15.34,10.55,30.67,15.93,45.96,1.51,4.16,2.75,6.84,3.71,8.05.97,1.22,2.42,1.92,4.34,2.08,3.71.3,5.67,2.76,5.79,7.51.14,5.59-2.02,10.02-6.5,13.29-4.48,3.27-11.89,5.85-22.3,7.52-11.76,1.89-20.58,2.39-26.3,1.61-2.63-.36-4.76-1.57-6.36-3.61-1.6-2.03-2.44-4.64-2.51-7.81-.06-2.44.3-4.38,1.09-5.81.78-1.43,2.27-2.84,4.43-4.24,2.43-1.57,3.61-3.91,3.54-6.97-.13-5.4-2.35-8.39-6.59-8.89-4.54-.53-11.01-.36-19.31.39-6.99.63-11.16,1.63-12.51,3.06-.83.9-1.53,2.45-2.12,4.66-.59,2.21-.86,4.31-.82,6.3.04,1.83.29,2.99.74,3.49.46.5,1.97,1.32,4.45,2.27,3.18,1.22,4.93,4,5.01,8.45.22,12.02-12.33,16.14-22.32,17.06-8.58.79-14.98.41-19.01-1.15-3.74-1.44-5.67-5.24-5.76-11.24-.04-2.62.34-4.68,1.14-6.17.8-1.49,2.26-2.9,4.36-4.22,3.41-2.16,5.98-5.08,7.69-8.69,1.71-3.61,4.11-11.25,7.18-22.84,3.47-13.11,6.93-26.22,10.4-39.33,2.84-10.59,5.64-21.28,7.57-32.04,1.26-7.02,1.82-13.91,1.73-20.61-.09-7.11.07-12.06.51-14.84.44-2.78,1.49-5.49,3.15-8.15,3.46-5.8,7.97-8.68,13.53-8.7,5.25-.01,10.47,3.22,15.26,9.54,15.48,20.41,22.53,50,30.88,74.07ZM496.3,105.61c6.17-.43,9.25-.65,15.4-1.12,2.83-.22,4.21-1.3,4.17-3.25-.06-2.68-2.18-9.09-6.34-19.38-1.89-4.71-3.32-7.86-4.29-9.45-.98-1.59-1.99-2.36-3.03-2.31-1.88.09-3.39,2.92-4.52,8.49-.19.75-.89,3.71-2.09,8.89-2.02,8.53-3.02,13.64-2.98,15.29.04,2.06,1.27,3.01,3.68,2.85Z"/>
        <path class="cls-1" d="M632.32,90.55c-1.89.2-3.16,1.26-3.66,2.99-.5,1.73-.68,5.62-.55,11.66.2,9.14.76,16.2,1.69,21.14.28,1.39.69,2.43,1.21,3.12.52.69,1.51,1.47,2.95,2.32,3.09,1.74,4.66,4.49,4.74,8.32.1,4.68-1.94,8.48-6.11,11.42-4.17,2.94-11.68,5.36-21.41,7.78-9.28,2.31-28.36,3.69-28.83-10.33-.06-1.82.2-3.35.74-4.55.54-1.2,1.79-2.97,3.74-5.26,2.2-2.57,3.67-5.41,4.39-8.53.72-3.11,1.17-8.38,1.27-15.71.25-19.13-.59-38.45-1.07-57.65-.26-10.48-.81-17.59-1.63-21.34-.82-3.74-2.45-6.49-4.87-8.11-2.28-1.53-3.89-2.94-4.7-4.26-.81-1.31-1.25-3.04-1.3-5.18-.07-2.83.6-5.31,2.03-7.43,1.42-2.12,3.45-3.68,6.07-4.69,2.21-.85,5.26-1.29,9.15-1.32,1.71-.01,6,.33,12.87,1,1.3.14,3.35.19,6.15.16,4.67-.05,10.91-.59,18.64-1.48,4.89-.56,8.41-.76,10.33-.83,8.99-.3,21.03,3.79,27.65,10.09,6.34,6.04,9.88,14.29,9.97,25.11.05,6.04-1.03,11.62-3.22,16.85-2.19,5.23-5.22,9.38-9.09,12.43-1.61,1.28-2.41,2.67-2.39,4.15.03,1.96,1.29,3.38,3.78,4.22,5.34,1.78,9.26,4.97,11.76,9.59,2.5,4.62,4.29,11.98,5.41,22.04.46,4.17,1.13,6.79,1.98,7.85.85,1.05,2.8,1.78,5.85,2.15.93.14,1.72.75,2.36,1.82.64,1.07.96,2.36.96,3.88,0,1.96-.58,4.11-1.75,6.45-1.17,2.34-2.68,4.37-4.53,6.07-4.09,3.71-9.7,6.67-16.89,8.71-9.61,2.73-16.6,1.08-20.92-5.01-1.95-2.71-3.64-6.36-5.06-10.95-1.42-4.58-3.14-11.86-5.15-21.92-1.29-6.46-2.87-10.94-4.73-13.43-1.86-2.49-4.59-3.71-7.85-3.36ZM626.67,36.11c-.12,10.08-.18,15.12-.3,25.22,0,.22.01.54.02.97.06,2.59.37,4.3.92,5.11.56.81,1.66,1.13,3.3.96,4.51-.47,7.75-2.44,9.73-5.85,1.98-3.41,2.91-8.61,2.78-15.63-.26-13.55-3.92-20.17-11-19.87-2.01.09-3.42.79-4.22,2.12s-1.21,3.65-1.24,6.97Z"/>
      </g>
      <g>
        <path class="cls-1" d="M37.84,206.26c4.26,1.65,8.38,4.51,12.34,8.66,1.86,1.95,3.16,3.07,3.9,3.34.53.2,1.39.33,2.58.38.39.01.82.11,1.29.28,1.54.56,2.87,2.06,3.99,4.51,2.75,5.95,4.05,12.64,3.9,19.98-.11,5.17-1.42,8.47-3.91,9.84-1.35.73-2.85.74-4.5.04-1.5-.63-2.7-1.62-3.62-2.94-.92-1.32-1.79-3.35-2.63-6.05-1.19-3.82-2.18-6.61-2.95-8.37-.76-1.76-1.71-3.45-2.83-5.08-2.79-3.98-5.72-6.58-8.8-7.88-2.99-1.26-5.37-.77-7.14,1.43-1.78,2.21-2.68,5.77-2.73,10.75-.07,6.85,1.09,13.75,3.51,20.73,3.24,9.36,8.02,15.82,14.36,18.99,2.33,1.17,4.66,1.75,6.99,1.73,2.33-.02,4.16-.67,5.48-1.86,1.11-1.01,2.06-1.36,2.77-1.04,1.03.46,1.89,1.55,2.6,3.26.71,1.71,1.04,3.55,1,5.51-.05,2.47-.62,5.01-1.71,7.58-1.09,2.57-2.36,4.38-3.82,5.4-.63.42-1.92.43-3.83,0-1.1-.25-2.58-.23-4.42.07-4.32.73-8.74-.23-13.28-2.79-4.74-2.67-9.39-6.93-14-12.64-5.35-6.63-9.53-14.4-12.61-23.12-3-8.51-4.53-16.32-4.53-23.59,0-8.44,1.93-15.1,5.87-20.3,3.42-4.51,7.91-7.27,13.51-8.28,4.26-.77,8.68-.32,13.23,1.44Z"/>
        <path class="cls-1" d="M104.52,228.61c7.85,2.25,14.67,7.43,20.42,15.82,3.89,5.75,7.03,12.72,9.32,20.91,2.27,8.11,3.12,16.15,3.1,23.48-.03,8.59-2.79,20.09-8.01,27.24-4.29,5.87-9.74,9.33-16.31,9.96-4.04.39-8.07-.28-12.07-1.92-5.23-2.16-10.17-5.91-14.81-11.15-5.62-6.33-9.91-14.08-12.94-23.09-2.94-8.72-4.33-17.42-4.14-26.23.22-10.22,2.41-18.42,6.62-24.88,3.75-5.74,8.76-9.3,14.95-10.78,4.16-.99,8.79-.82,13.86.63ZM99.7,246.63c-2.47-.86-4.6.25-6.18,3.05-1.18,2.1-1.86,4.85-1.94,8.27-.12,5.01.43,11.05,1.66,18.17,1.23,7.12,2.83,13.66,4.82,19.62.88,2.55,2,4.75,3.34,6.59,1.35,1.83,2.73,3.03,4.16,3.57,2.31.88,4.21.28,5.7-1.8,1.49-2.08,2.29-5.25,2.39-9.5.14-5.52-.3-11.69-1.33-18.45-1.03-6.77-2.44-12.69-4.22-17.78-1.09-3.13-2.38-5.72-3.86-7.78-1.48-2.06-3.03-3.42-4.55-3.95Z"/>
        <path class="cls-1" d="M172.17,278.86c-.27,11.08-.54,22.17-.81,33.25-.18,7.49.12,12.44.93,14.83.96,2.83,3.16,4.7,6.53,5.56,3.62.92,6.52.4,8.69-1.54,2.16-1.95,3.75-5.45,4.67-10.45.56-3.06,1.67-4.44,3.37-4.08,1.69.36,3.05,1.82,4.08,4.39,1.02,2.57,1.49,5.73,1.41,9.48-.13,6.12-1.75,12.35-4.86,18.6-.98,2-1.83,3.31-2.55,3.95-.72.64-1.58.84-2.57.6-4.25-1.84-6.37-2.78-10.59-4.68-11.12-3.02-22.1-6.22-33.11-9.63-2.16-.69-3.66-1.57-4.51-2.6-1.24-1.5-1.85-3.34-1.79-5.5.03-1.32.27-2.22.71-2.72.44-.5,1.48-1.09,3.13-1.75,1.8-.72,3.01-2.17,3.56-4.33.46-1.81.8-7.42,1.04-16.8.11-4.36.2-10.66.24-18.9.05-7.9.08-13.87.17-17.84.08-3.77-.03-6.43-.39-7.92-.35-1.49-1.15-2.7-2.38-3.62-2.03-1.59-3.32-2.79-3.86-3.59-.97-1.42-1.43-2.89-1.39-4.39.09-3.43,2.06-5.56,5.86-6.48,3.24-.79,7.59-.62,13.02.54,6.09,1.31,10.68,2.69,13.66,4.27,3.87,2.05,5.78,5.08,5.69,9.02-.04,1.6-.33,2.74-.87,3.41-.54.67-1.84,1.46-3.89,2.34-1.22.57-2.01,1.81-2.38,3.73-.36,1.91-.63,6.2-.79,12.87Z"/>
        <path class="cls-1" d="M213.92,254.42c9.86,1.5,14.81,2.18,24.74,3.41,5.02.62,8.69.87,11.01.8,2.31-.07,4.57-.5,6.79-1.29.68-.24,1.22-.33,1.61-.29,1.68.17,3.15,1.74,4.4,4.71,2.07,4.84,3.06,10.54,2.97,17.11-.05,3.31-.53,5.88-1.45,7.69-.92,1.82-2.16,2.64-3.72,2.47-1.07-.12-1.9-.55-2.49-1.31-.59-.75-1.37-2.38-2.34-4.88-1.37-3.56-3.14-6.03-5.31-7.43-2.16-1.39-5.74-2.38-10.7-3.03-3.71-.48-5.98.24-6.82,2.19-.44,1.05-.72,2.49-.83,4.34-.12,1.85-.24,6.58-.38,14.21-.06,3.01.23,4.93.87,5.76.63.83,2.32,1.45,5.07,1.84,1.36.2,2.35-.11,2.98-.9.63-.8,1.04-2.33,1.25-4.57.27-2.89.55-4.87.81-5.92.26-1.05.75-1.94,1.38-2.66.7-.79,1.49-1.17,2.4-1.06,1.33.17,2.46,1.3,3.35,3.38.66,1.54,1.19,4.22,1.6,8,.41,3.78.59,7.7.52,11.75-.13,8.01-1.03,14.47-2.7,19.36-.92,2.66-2.28,3.86-4.07,3.6-1.11-.16-1.86-.72-2.27-1.66-.41-.95-.7-2.83-.88-5.63-.38-5.76-2.48-8.93-6.27-9.51-1.46-.22-2.47.34-3.03,1.68-.56,1.35-.88,3.95-.95,7.82-.04,2.36,0,5.43.15,9.2.14,3.78.33,6.3.52,7.53.24,1.54,1.02,2.73,2.36,3.54,1.34.8,3.58,1.47,6.74,1.97,4.89.77,8.59.33,11.11-1.27,2.51-1.6,4.59-4.87,6.24-9.81.96-2.83,1.81-4.71,2.56-5.64.75-.93,1.71-1.32,2.89-1.18,1.37.16,2.5,1.22,3.37,3.18.87,1.96,1.29,4.35,1.26,7.15-.04,3.06-.6,6.83-1.68,11.29-1.08,4.47-2.38,8.39-3.91,11.76-.78,1.63-1.42,2.71-1.92,3.23-.5.52-1.13.73-1.88.62-.62-.09-1.55-.35-2.7-.83-2.07-.86-4.88-1.69-8.38-2.38-13.85-2.24-27.59-4.79-41.32-7.67-1.64-.36-2.9-1.2-3.78-2.51-.88-1.31-1.29-2.98-1.25-5.01.03-1.43.25-2.43.65-2.98.4-.56,1.32-1.22,2.71-1.87.95-.45,1.71-1.08,2.2-1.92.49-.84.88-2.16,1.17-3.94,1.63-9.9,1.91-20.01,2.22-29.98.38-11.88.92-24.86-1.55-36.64-.3-1.04-.64-1.8-1.01-2.26-.38-.46-1.17-1.06-2.37-1.81-1.8-1.13-2.67-3.18-2.61-6.09.03-1.58.37-2.94,1-4.07.63-1.13,1.46-1.84,2.45-2.06,1.22-.27,3.67-.08,7.25.46Z"/>
        <path class="cls-1" d="M309.43,261.64c4.75.22,9.33,2.04,13.75,5.48,2.08,1.61,3.53,2.43,4.34,2.45.59.02,1.53-.19,2.84-.63.42-.14.9-.21,1.42-.2,1.7.04,3.18,1.31,4.44,3.81,3.12,6.05,4.68,13.51,4.66,22.41-.01,6.26-1.38,10.82-4.11,13.66-1.48,1.52-3.14,2.26-4.98,2.22-1.67-.04-3.04-.65-4.08-1.82-1.05-1.17-2.05-3.22-3.03-6.14-1.38-4.12-2.52-7.1-3.4-8.91-.87-1.81-1.95-3.47-3.21-4.96-3.15-3.63-6.46-5.53-9.92-5.71-3.36-.17-6.04,1.6-8.05,5.31-2.01,3.71-3.04,8.77-3.1,15.2-.08,8.84,1.26,17.06,4.07,24.59,3.76,10.07,9.33,15.37,16.59,15.72,2.67.13,5.32-.46,7.95-1.76,2.63-1.3,4.67-3.07,6.13-5.23,1.24-1.82,2.28-2.73,3.08-2.71,1.15.03,2.14.89,2.96,2.58.82,1.7,1.23,3.73,1.22,6.11,0,3-.59,6.35-1.76,10.05-1.17,3.7-2.57,6.59-4.19,8.66-.7.86-2.16,1.62-4.33,2.19-1.25.33-2.94,1.22-5.03,2.68-4.92,3.46-10.04,5.03-15.33,4.69-5.53-.35-11.02-2.71-16.46-7.03-6.32-5.02-11.2-12.54-14.83-21.96-3.29-8.52-5.12-19.59-5.05-28.61.07-9.57,2.57-21.77,7.13-30.42,4.04-7.67,9.15-13.64,15.47-17.56,4.81-2.99,9.75-4.37,14.82-4.14Z"/>
        <path class="cls-1" d="M365.14,263.07c3.72-.05,7.22.4,10.52,1.35,4.44,1.28,6.67,4.17,6.69,8.71,0,1.5-.21,2.63-.64,3.39-.44.76-1.55,1.91-3.34,3.4-1.49,1.23-2.48,3.87-2.94,7.91-.46,4.04-.67,11.9-.62,23.58.04,12.18-.14,24.48,1.08,36.62.24,1.49.6,2.63,1.08,3.41.48.78,1.32,1.62,2.52,2.51,2.19,1.47,3.29,3.66,3.31,6.6.02,4.13-1.99,7.08-6.02,8.76-4.35,1.81-9.73,2.78-16.06,2.86-10.82.13-16.23-3.2-16.22-9.61,0-2.33,1.07-4.48,3.19-6.49,1.62-1.54,2.62-3.69,2.88-6.35,1.22-12.28.96-25.08.95-37.54-.02-13.22-.42-21.72-1.27-25.45-.46-2.12-1.6-4.04-3.28-5.75-1.34-1.37-2.24-2.58-2.69-3.51-.46-.93-.68-2.13-.68-3.57,0-2.22.68-3.99,2.04-5.3,1.36-1.31,3.78-2.45,7.17-3.51,4.06-1.26,8.2-1.97,12.37-2.03Z"/>
        <path class="cls-1" d="M423.07,259.95c8.34-.63,15.65,2.47,21.97,9.3,4.28,4.7,7.83,10.96,10.55,18.77,2.7,7.75,4.09,15.7,4.24,23.77.21,11.39-2.11,22.83-7.1,33.1-4.19,8.61-9.76,15.19-16.71,19.55-4.26,2.67-8.6,4.23-12.95,4.69-5.7.59-11.19-.76-16.44-4.05-6.35-3.98-11.29-10.57-14.96-19.34-3.57-8.52-5.71-19.65-5.36-28.76.43-11.13,1.61-22.4,6.43-32.79,3.91-8.41,9.13-14.91,15.65-19.22,4.39-2.91,9.29-4.6,14.67-5ZM418.68,282.35c-2.66.12-4.87,2.32-6.44,6.25-1.19,2.95-1.8,6.42-1.76,10.38.05,5.8.87,12.47,2.45,19.98,1.58,7.51,3.55,14.11,5.92,19.8,1.04,2.42,2.32,4.3,3.83,5.64,1.51,1.34,3.04,1.93,4.58,1.77,2.49-.26,4.49-1.94,5.97-5.02,1.49-3.08,2.2-6.99,2.13-11.73-.08-6.17-.81-12.76-2.17-19.77-1.36-7.02-3.09-12.96-5.17-17.84-1.28-3.01-2.74-5.34-4.39-6.99-1.65-1.66-3.36-2.52-4.96-2.45Z"/>
        <path class="cls-1" d="M489.71,258.15c8.05,9.46,16.23,18.82,24.55,28.05,2.3,2.53,3.94,3.68,4.92,3.47,1.65-.35,2.41-3.24,2.29-8.64-.14-6.14-.48-10.28-1.01-12.42-.53-2.15-1.58-3.63-3.12-4.46-1.26-.68-2.16-1.51-2.69-2.47-.53-.96-.82-2.27-.86-3.93-.09-4.11,1.67-7.08,5.29-8.92,1.48-.76,4.07-1.49,7.77-2.2,4.77-.92,8.08-1.15,9.92-.68,2.91.76,4.44,2.97,4.53,6.71.08,3.11-1.04,5.72-3.36,7.83-.93.83-1.56,1.53-1.9,2.08-.34.56-.62,1.34-.85,2.36-.77,3.37-1.07,9.49-.88,18.37.23,9.43.35,14.15.58,23.58.09,3.62.23,8.56.41,14.82.24,8.47.05,14.7-.55,18.65-.75,4.91-2.24,7.7-4.49,8.32-.98.27-1.84.18-2.57-.25-.73-.44-1.95-1.58-3.66-3.44-9.94-10.8-19.7-21.73-29.34-32.79-2.05-2.4-3.74-3.49-5.05-3.25-1.96.35-2.86,4.74-2.69,13.16.14,6.93.48,11.62,1.03,14.06s1.62,4.12,3.19,5c2.18,1.21,3.32,3.12,3.38,5.75.14,6.9-4.6,11.44-14.31,13.29-4.38.84-7.81.55-10.27-.81-2.46-1.36-3.72-3.7-3.77-6.97-.03-1.71.18-3.03.62-3.97.44-.93,1.45-2.26,3.01-3.98,1.5-1.66,2.4-4.32,2.64-7.93.63-9.3.51-18.83.32-28.08-.19-9.24-.37-18.87-1.97-28.12-.39-2.11-.88-3.66-1.44-4.64-.57-.98-1.49-1.86-2.76-2.66-1.47-.91-2.5-1.87-3.08-2.86-.58-.99-.89-2.24-.91-3.75-.08-4.84,2.53-8.2,7.81-10.14,1.79-.63,4.94-1.24,9.43-1.86,2.57-.36,4.44-.31,5.62.14,1.18.45,2.59,1.66,4.24,3.6Z"/>
        <path class="cls-1" d="M602.88,275.47c3.72,9.72,5.57,14.51,9.24,23.94.87,2.16,1.59,3.52,2.15,4.07.56.55,1.4.74,2.51.53,2.16-.4,3.28.72,3.35,3.45.08,3.21-1.18,6.1-3.78,8.67-2.6,2.56-6.9,5.16-12.95,7.65-6.84,2.81-11.98,4.37-15.33,4.75-1.54.17-2.78-.22-3.72-1.15-.94-.93-1.43-2.3-1.48-4.1-.04-1.38.17-2.54.63-3.47.46-.93,1.33-1.95,2.59-3.06,1.42-1.25,2.11-2.75,2.07-4.5-.08-3.07-1.39-4.45-3.87-4.12-2.67.36-6.46,1.39-11.36,2.99-4.12,1.35-6.58,2.49-7.37,3.5-.49.63-.9,1.61-1.24,2.95-.34,1.34-.5,2.57-.47,3.7.03,1.03.18,1.66.45,1.88.27.22,1.17.48,2.63.68,1.88.25,2.91,1.59,2.97,4.11.14,5.56-4.19,9.92-13.1,12.78-5.07,1.63-8.85,2.25-11.25,1.9-2.21-.33-3.39-2.23-3.47-5.64-.04-1.49.18-2.71.65-3.66.47-.95,1.33-1.95,2.57-2.98,2.02-1.68,3.53-3.68,4.53-5.97,1-2.28,2.39-6.95,4.17-13.96,2.43-9.56,3.64-14.32,6.05-23.79,2.23-8.69,3.7-15.1,4.42-19.29.72-4.18,1.05-8.18.98-11.98-.07-4.04.02-6.88.27-8.52.25-1.64.88-3.34,1.86-5.09,2.06-3.8,4.75-6.1,8.06-6.94,3.12-.79,6.44.27,9.08,3.12,8.77,9.47,13.25,25.17,18.16,37.57ZM571.06,294.65c3.65-1.12,5.46-1.69,9.09-2.85,1.67-.54,2.48-1.36,2.45-2.47-.04-1.52-1.29-4.87-3.76-10.12-1.12-2.41-1.97-4-2.55-4.76-.58-.76-1.18-1.05-1.8-.87-1.11.33-2,2.15-2.67,5.49-.11.46-.52,2.24-1.22,5.36-1.18,5.14-1.76,8.19-1.73,9.13.03,1.17.76,1.54,2.19,1.1Z"/>
        <path class="cls-1" d="M650.22,264.28c-1.09.46-1.81,1.3-2.1,2.41-.29,1.11-.4,3.43-.33,6.97.1,5.35.42,9.41.94,12.17.16.77.39,1.32.69,1.64.3.32.86.62,1.69.88,1.77.52,2.66,1.89,2.7,4.14.05,2.75-1.12,5.33-3.52,7.73-2.4,2.4-6.48,5.09-12.31,7.94-10.85,5.29-16.47,4.62-16.62-1.53-.02-1.05.12-1.97.43-2.75.31-.78,1.04-2,2.17-3.63,1.27-1.84,2.13-3.72,2.55-5.64.42-1.92.71-5.06.76-9.33.13-11.01-.27-22.21-.53-33.3-.14-6.04-.44-10.08-.91-12.11-.47-2.03-1.42-3.33-2.81-3.84-1.32-.48-2.25-1.02-2.72-1.63-.47-.62-.72-1.54-.75-2.77-.04-1.62.36-3.18,1.19-4.66.83-1.48,2.01-2.75,3.53-3.82,1.28-.9,3.05-1.71,5.3-2.46.99-.33,3.47-.92,7.42-1.85.75-.17,1.93-.53,3.53-1.09,2.68-.93,6.25-2.47,10.66-4.56,2.78-1.32,4.75-2.18,5.87-2.6,6.29-2.34,11.5-2.23,15.59.24,3.7,2.23,5.56,6.57,5.62,13.13.04,3.66-.56,7.28-1.78,10.89-1.23,3.61-2.93,6.71-5.12,9.3-.91,1.08-1.36,2.07-1.35,2.96.02,1.17.73,1.79,2.14,1.83,3.02.07,5.24,1.26,6.66,3.6,1.42,2.34,2.44,6.5,3.1,12.44.27,2.46.66,3.95,1.14,4.45.48.5,1.59.6,3.33.3.53-.07.98.16,1.35.71.37.55.55,1.29.56,2.22,0,1.21-.32,2.63-.97,4.26s-1.51,3.13-2.56,4.48c-2.32,2.95-5.52,5.67-9.62,8.06-5.48,3.2-9.48,3.33-11.95.4-1.12-1.3-2.08-3.2-2.88-5.69-.81-2.49-1.78-6.53-2.93-12.16-.73-3.61-1.63-5.99-2.69-7.14-1.06-1.14-2.63-1.38-4.48-.6ZM647.06,233.2c-.08,5.96-.12,8.95-.2,14.92,0,.13,0,.32.01.57.03,1.52.2,2.47.52,2.84.32.38.95.36,1.88-.03,2.58-1.1,4.43-2.86,5.57-5.26,1.13-2.4,1.67-5.66,1.6-9.81-.14-8-2.21-11.2-6.24-9.65-1.15.44-1.95,1.13-2.41,2.07-.46.94-.7,2.39-.72,4.35Z"/>
      </g>
      <g>
        <path class="cls-1" d="M50.97,389.22c-.24,12.94-.47,25.88-.71,38.82-.16,8.74.23,14.79,1.21,18.12,1.16,3.97,3.76,7.58,7.79,10.67,4.33,3.33,7.83,4.43,10.44,3.35,2.62-1.08,4.55-4.44,5.67-9.96.69-3.4,2.05-4.45,4.13-3.1,2.08,1.36,3.76,3.86,5.02,7.53,1.26,3.67,1.83,7.79,1.72,12.33-.18,7.4-2.2,14.15-6,19.96-1.2,1.86-2.24,2.96-3.12,3.31-.88.35-1.92.08-3.12-.81-5.14-4.78-7.69-7.21-12.73-12.14-13.47-10.59-26.09-22.12-38.42-34-2.43-2.4-4.12-4.55-5.09-6.38-1.41-2.66-2.12-5.2-2.1-7.62,0-1.47.25-2.33.73-2.57s1.63-.12,3.46.33c2.01.5,3.35-.31,3.93-2.39.49-1.75.78-7.96.89-18.57.05-4.93.04-12.12-.05-21.54-.09-9.04-.15-15.84-.12-20.35.03-4.27-.16-7.39-.6-9.32-.44-1.92-1.39-3.79-2.84-5.59-2.4-3.06-3.91-5.21-4.56-6.46-1.15-2.21-1.72-4.15-1.71-5.83.02-3.82,2.23-5.02,6.68-3.85,3.78.99,8.92,3.66,15.43,7.98,7.3,4.84,12.88,8.83,16.53,12.22,4.74,4.41,7.1,8.96,7,13.6-.04,1.89-.39,3.1-1.04,3.62-.66.52-2.24.79-4.72.75-1.48.03-2.43,1.07-2.85,3.13-.42,2.06-.71,6.98-.85,14.76Z"/>
        <path class="cls-1" d="M102.68,380.06c10.53,4.87,21.06,9.48,31.79,13.92,6.52,2.61,11.32,4.2,14.35,4.9,3.03.7,6.01.91,8.93.62.9-.08,1.61-.03,2.12.15,2.21.76,4.13,3.22,5.75,7.43,2.67,6.85,3.92,14.48,3.71,22.88-.1,4.23-.77,7.36-2.01,9.38-1.24,2.02-2.88,2.65-4.93,1.89-1.41-.52-2.5-1.37-3.26-2.53-.77-1.17-1.77-3.52-3.01-7.04-1.76-5.02-4.06-8.78-6.87-11.32-2.82-2.54-7.48-5.07-13.92-7.75-4.81-2-7.75-1.99-8.85.11-.58,1.14-.94,2.84-1.11,5.1-.16,2.27-.37,8.15-.61,17.64-.1,3.75.26,6.27,1.06,7.57.81,1.3,2.97,2.79,6.52,4.42,1.75.8,3.04.83,3.87.07.82-.75,1.37-2.52,1.66-5.27.37-3.53.76-5.93,1.11-7.16.35-1.23.99-2.17,1.82-2.84.91-.73,1.96-.92,3.14-.44,1.73.71,3.19,2.55,4.34,5.53.85,2.2,1.51,5.79,2,10.75.49,4.96.68,10.01.55,15.14-.26,10.13-1.51,18-3.74,23.53-1.23,3.01-3.01,3.97-5.33,2.89-1.43-.67-2.4-1.69-2.92-3.06-.52-1.37-.87-3.87-1.08-7.49-.43-7.44-3.13-12.29-8-14.64-1.87-.9-3.17-.64-3.9.81-.73,1.45-1.16,4.57-1.28,9.38-.08,2.94-.04,6.81.11,11.6.15,4.8.36,8.04.6,9.69.29,2.04,1.28,3.9,2.98,5.52,1.71,1.62,4.58,3.49,8.65,5.51,6.29,3.13,11.12,4.13,14.41,3.12,3.29-1.01,6.05-4.35,8.27-10.02,1.29-3.25,2.43-5.33,3.43-6.23.99-.9,2.27-1.05,3.81-.44,1.81.71,3.27,2.48,4.4,5.32,1.13,2.84,1.65,6.06,1.57,9.65-.09,3.92-.88,8.56-2.36,13.9-1.48,5.33-3.24,9.86-5.29,13.58-1.04,1.79-1.9,2.9-2.56,3.37-.66.46-1.49.47-2.47.03-.81-.37-2.02-1.08-3.52-2.18-2.71-1.98-6.35-4.2-10.87-6.6-18.12-8.85-35.41-19.01-52.35-29.92-2.03-1.35-3.59-3.08-4.66-5.18-1.08-2.1-1.58-4.37-1.52-6.83.04-1.73.31-2.83.8-3.29.49-.46,1.65-.77,3.35-.81,1.18-.03,2.13-.4,2.73-1.18.61-.78,1.1-2.19,1.48-4.22,2.08-11.78,2.62-23.87,2.91-35.77.37-15.01,1.13-30.89-1.8-45.77-.37-1.42-.8-2.49-1.27-3.22-.47-.73-1.47-1.83-2.98-3.29-2.27-2.2-3.35-5.1-3.26-8.62.05-1.91.47-3.42,1.27-4.52.8-1.1,1.86-1.61,3.09-1.44,1.56.21,4.63,1.49,9.19,3.66Z"/>
        <path class="cls-1" d="M242.01,522.57c-3.41,10.26-5.12,15.36-8.55,25.48-1.47,4.26-2.65,7.06-3.53,8.43-.88,1.36-1.84,1.9-2.87,1.62-.99-.27-1.85-1.15-2.58-2.65-.48-.95-1.55-4.23-3.22-9.85-1.66-5.62-3.03-10.58-4.11-14.88-2.73-10.8-5.45-21.6-8.17-32.41-1.11-4.49-2.32-6.93-3.64-7.32-1.41-.41-2.21,1.12-2.42,4.62-.47,7.77-.78,14.99-.92,21.66-.15,6.93-.06,11.74.36,14.31.25,1.55.66,2.77,1.16,3.6.49.83,1.85,2.48,4.07,4.93,1.44,1.6,2.13,3.8,2.07,6.61-.15,7.5-6.64,9.37-19.23,4.76-10.62-3.89-15.75-9.69-15.59-16.83.04-1.83.34-3.05.91-3.66.56-.6,1.99-1.28,4.29-2.06,1.46-.44,2.46-1.42,3-2.95.54-1.53,1.03-4.71,1.5-9.51.5-5.12,1.1-13.67,1.7-25.57.52-10.23.99-20.5,1.23-30.75.24-10.75-.13-18.22-1.13-22.38-.36-1.44-.78-2.56-1.26-3.37-.48-.81-1.4-1.96-2.76-3.44-3.02-3.19-4.48-6.57-4.39-10.11.05-2.29.67-4.21,1.86-5.76,1.19-1.55,2.77-2.41,4.66-2.66,1.89-.25,4.48-.29,7.68-.03,3.2.26,5.92.68,8.14,1.26,5.57,1.47,9.52,3.13,11.81,5.1,1.12.95,2.01,2.07,2.64,3.36.63,1.3,1.53,3.87,2.69,7.72,4.33,13.99,8.68,27.98,13.05,41.96,1.43,4.61,2.43,7.46,2.99,8.54.56,1.08,1.35,1.74,2.38,1.96.89.2,1.69-.14,2.4-1.01.71-.87,1.55-2.6,2.54-5.19,3.32-8.74,6.62-17.5,9.89-26.27,1.22-3.41,2.01-5.63,2.38-6.67,2.29-6.45,4.54-10.65,6.69-12.58,2.76-2.48,7.73-3.23,14.93-2.3,12.66,1.65,18.99,6.63,18.9,15.55-.02,2.01-.28,3.59-.79,4.75-.51,1.16-1.56,2.53-3.08,4.09-2.1,2.15-3.46,5.54-4.03,10.02-1.45,11.43-1.77,23.17-1.93,34.6-.21,15.36.07,31.02,1.15,46.51.24,3.28.64,5.55,1.2,6.8.56,1.25,2.01,3.22,4.37,5.87,1.63,1.87,2.43,4.18,2.41,6.95-.04,4.84-2.21,8.02-6.49,9.42-2.21.8-4.53,1.18-6.96,1.15-2.43-.03-6.16-.46-11.17-1.36-7.71-1.39-13.43-3.43-17.15-5.9-4.14-2.74-6.16-6.38-6.09-10.81.03-1.64.32-2.92.88-3.85.56-.93,1.99-2.54,4.29-4.86,1.2-1.18,2.04-3.78,2.53-7.8.49-4.01.81-10.94.96-20.79.08-5.47-.03-9.09-.34-10.87-.31-1.77-1.01-2.77-2.08-2.98-1.26-.25-2.49.82-3.7,3.2-1.21,2.39-3.04,7.25-5.51,14.56Z"/>
        <path class="cls-1" d="M334.82,577.57c-3.71-.1-5.57-.16-9.28-.33-6.5-.23-11.31-.47-14.25-.39-2.62.06-4.58.1-5.73-.01-2.81-.28-5.05-1.6-6.66-3.93-1.59-2.3-2.37-4.99-2.34-7.97.02-1.94.33-3.43.93-4.47.6-1.04,2.06-2.61,4.37-4.73,1.34-1.25,2.27-3.32,2.8-6.22.53-2.9,1.16-9.2,1.79-18.83,1.21-18.51,1.53-37.2,1.69-55.77.07-8.1-.26-13.54-.94-16.27-.68-2.72-2.31-5.09-4.86-7.01-2.92-2.2-4.42-5.18-4.39-8.92.03-3.05.94-5.46,2.73-7.24,1.79-1.79,4.08-2.57,6.87-2.36,1.53.11,3.51.38,5.87.72,3.92.56,8.25.91,12.85,1.11,3.38.15,10.05.24,19.97-.09,3.11-.1,5.94-.17,8.47-.18,6-.02,10.85.62,14.53,2.01,3.68,1.39,6.89,3.79,9.61,7.22,4.45,5.57,6.71,13.15,6.76,22.8.03,4.79-.61,9.51-1.9,14.13-1.3,4.63-3.05,8.36-5.27,11.18-1.59,2.02-2.38,3.83-2.37,5.43,0,1.74.97,3.16,2.89,4.25,3.75,2.11,7.18,5.76,10.25,10.96,3.18,5.39,4.67,12.45,4.86,20.78.2,8.92-2.71,20.23-7.06,27.96-5.77,10.26-16.27,17.52-28.37,17.6-1.7.01-5.93-.07-12.61-.52-6.08-.41-9.84-.79-11.22-.91ZM339.82,464.42c-.02,8.6-.03,12.91-.04,21.51,0,3.41.27,5.82.84,7.23.57,1.41,1.56,2.12,2.97,2.14,3.37.05,5.86-1.52,7.45-4.68,1.6-3.17,2.39-8.13,2.39-14.89,0-6.54-.82-11.61-2.45-15.2-1.63-3.59-3.94-5.39-6.93-5.44-1.59-.02-2.68.64-3.3,1.98-.61,1.35-.92,3.79-.93,7.34ZM339.7,524.57c0,3.97-.01,5.95-.02,9.92-.02,9.12.41,15.19,1.27,18.2.87,3.01,2.64,4.55,5.31,4.58,7,.09,10.18-6.51,10.48-18.58.23-9.09-1.82-22.22-11.68-23.22-1.83-.19-3.41.61-4.19,1.91-.78,1.31-1.17,3.7-1.18,7.18Z"/>
        <path class="cls-1" d="M443.05,510.04c-1.67.24-2.8,1.28-3.25,2.94-.45,1.66-.64,5.37-.56,11.14.12,8.72.57,15.45,1.36,20.2.25,1.33.6,2.33,1.06,3,.46.67,1.34,1.44,2.62,2.29,2.75,1.74,4.15,4.43,4.21,8.13.07,4.52-1.78,8.12-5.55,10.74-3.77,2.63-10.54,4.56-19.3,6.19-8.87,1.65-25.4,1.12-25.58-11.38-.02-1.65.23-3.02.73-4.08.5-1.05,1.63-2.58,3.41-4.55,1.99-2.22,3.34-4.74,4.03-7.55.69-2.81,1.17-7.62,1.35-14.34.48-17.54.03-35.29-.12-52.9-.08-9.62-.46-16.13-1.12-19.54-.66-3.4-2.05-5.85-4.12-7.22-1.96-1.29-3.34-2.51-4.02-3.67-.69-1.16-1.04-2.71-1.05-4.66-.02-2.57.61-4.85,1.88-6.86,1.27-2.01,3.05-3.55,5.33-4.66,1.93-.93,4.58-1.55,7.94-1.89,1.48-.15,5.19-.17,11.11-.18,1.12,0,2.89-.14,5.31-.45,4.03-.52,9.41-1.7,16.06-3.52,4.2-1.15,7.18-1.88,8.87-2.17,9.51-1.63,17.4.31,23.7,5.92,5.68,5.06,8.62,13.05,8.83,24.14.12,6.19-.74,12.06-2.59,17.63-1.85,5.57-4.46,10.07-7.83,13.46-1.4,1.42-2.09,2.88-2.07,4.37.04,1.96,1.16,3.3,3.36,3.98,4.72,1.42,8.2,4.39,10.48,8.97,2.27,4.58,3.97,12.08,5.13,22.45.48,4.3,1.12,7,1.9,8.08.78,1.08,2.56,1.8,5.32,2.13.85.13,1.57.76,2.17,1.87.6,1.11.92,2.47.95,4.07.04,2.07-.44,4.33-1.46,6.78-1.02,2.45-2.35,4.56-4.01,6.31-3.67,3.81-8.76,6.74-15.29,8.62-8.72,2.51-15.08.58-18.98-5.53-1.77-2.72-3.28-6.34-4.55-10.84-1.27-4.5-2.8-11.63-4.58-21.4-1.14-6.27-2.52-10.59-4.16-12.95-1.64-2.36-4.06-3.45-6.92-3.04ZM438.43,458.2c-.17,9.64-.25,14.47-.42,24.11,0,.21,0,.51.01.93.03,2.47.29,4.08.77,4.83s1.45,1,2.89.76c3.96-.67,6.81-2.75,8.56-6.2,1.75-3.44,2.56-8.58,2.46-15.41-.2-13.18-3.35-19.21-9.48-18.23-1.74.28-2.97,1.09-3.67,2.43-.7,1.34-1.07,3.6-1.12,6.78Z"/>
        <path class="cls-1" d="M587.82,449.86c4.14,10.35,8.32,20.69,12.53,31.02,1.18,2.78,2.15,4.47,2.9,5.09.75.62,1.89.66,3.38.1,2.9-1.11,4.4.14,4.49,3.88.11,4.4-1.56,8.73-5.05,12.94-3.49,4.21-9.26,8.89-17.46,13.68-9.27,5.41-16.31,8.53-20.9,9.66-2.1.52-3.82.19-5.11-.94-1.29-1.13-1.97-2.95-2.03-5.44-.05-1.92.24-3.56.87-4.92.63-1.37,1.82-2.92,3.56-4.68,1.95-1.98,2.89-4.19,2.83-6.6-.11-4.24-1.9-5.92-5.3-5.05-3.67.94-8.87,2.99-15.62,5.88-5.68,2.44-9.1,4.33-10.19,5.82-.67.93-1.25,2.34-1.72,4.25-.48,1.9-.7,3.64-.66,5.2.03,1.43.24,2.29.62,2.56.38.27,1.62.53,3.64.62,2.6.12,4.07,1.88,4.1,5.33.1,9.82-10.04,16.25-18.21,19.3-6.98,2.61-12.34,3.94-15.68,3.63-3.09-.29-4.72-2.86-4.83-7.6-.04-2.06.26-3.78.92-5.14.66-1.36,1.86-2.8,3.6-4.33,2.82-2.49,4.93-5.4,6.34-8.66,1.4-3.26,3.36-9.87,5.85-19.79,2.82-11.23,5.64-22.47,8.46-33.7,2.21-9.06,4.57-18.14,6.15-27.31,1.02-5.88,1.46-11.49,1.38-16.77-.09-5.6.04-9.56.39-11.88.35-2.31,1.21-4.74,2.57-7.3,2.84-5.53,6.53-9.06,11.06-10.67,4.28-1.52,8.75-.5,12.41,3.02,12.15,11.69,18.25,32.93,24.73,48.8ZM544.33,481.83c5.03-2.04,7.53-3.09,12.5-5.26,2.28-1,3.4-2.28,3.36-3.81-.05-2.1-1.76-6.55-5.15-13.48-1.54-3.18-2.7-5.27-3.5-6.24-.8-.98-1.62-1.3-2.47-.96-1.53.61-2.76,3.26-3.67,7.99-.16.65-.72,3.18-1.69,7.61-1.63,7.3-2.43,11.62-2.4,12.91.04,1.62,1.05,2.04,3.01,1.25Z"/>
        <path class="cls-1" d="M650.72,421.69c-1.43,1-2.35,2.38-2.73,3.98-.37,1.6-.51,4.8-.42,9.59.14,7.25.56,12.67,1.24,16.24.21.99.51,1.65.9,1.98.39.33,1.12.53,2.19.6,2.29.06,3.45,1.58,3.51,4.63.07,3.72-1.43,7.66-4.53,11.81-3.1,4.15-8.47,9.77-16.06,15.11-5.66,3.99-20.49,14.02-22.04,2.86-.18-1.27.15-2.75.57-3.9.42-1.15,1.38-3.03,2.89-5.59,1.7-2.88,2.83-5.7,3.39-8.46.56-2.76.92-7.13.98-13.02.17-15.11-.43-30.41-.79-45.59-.19-8.26-.61-13.72-1.24-16.39-.63-2.67-1.9-4.23-3.75-4.58-1.76-.34-3.01-.86-3.64-1.6-.63-.74-.97-1.95-1.01-3.64-.05-2.23.47-4.46,1.58-6.69,1.11-2.23,2.68-4.25,4.7-6.08,1.71-1.54,4.06-3.09,7.04-4.67,1.31-.7,4.6-2.14,9.81-4.46.99-.43,2.54-1.25,4.65-2.46,3.52-2.02,8.19-5.13,13.94-9.31,3.63-2.64,6.17-4.44,7.62-5.36,8.14-5.18,14.81-6.85,20.01-5.06,4.69,1.61,7.01,6.62,7.08,15.33.04,4.86-.72,9.92-2.27,15.23-1.55,5.32-3.7,10.17-6.48,14.5-1.15,1.82-1.73,3.32-1.71,4.51.02,1.57.93,2.11,2.71,1.58,3.82-1.15,6.59-.52,8.36,1.96,1.77,2.49,3.02,7.54,3.81,15.12.33,3.14.8,4.93,1.39,5.35.59.42,1.97.03,4.09-1.25.65-.36,1.2-.28,1.64.26.44.54.67,1.42.67,2.65,0,1.59-.4,3.63-1.21,6.13-.81,2.5-1.86,4.91-3.16,7.23-2.86,5.08-6.8,10.29-11.93,15.42-6.85,6.85-11.93,8.73-15.07,5.8-1.42-1.29-2.65-3.47-3.69-6.51-1.04-3.04-2.29-8.13-3.77-15.31-.95-4.61-2.1-7.51-3.47-8.68-1.37-1.17-3.4-.93-5.81.75ZM646.55,380.46c-.1,8.14-.14,12.21-.24,20.36,0,.17,0,.43.02.77.04,2.05.27,3.29.68,3.7.42.41,1.23.19,2.46-.66,3.36-2.34,5.75-5.37,7.21-9,1.46-3.63,2.15-8.24,2.05-13.82-.18-10.78-2.86-14.41-8.11-11.04-1.5.96-2.54,2.14-3.14,3.56-.6,1.41-.91,3.46-.93,6.13Z"/>
      </g>
    </g>
  </g>
</svg>